<?xml version="1.0" encoding="utf-8"?>
<!-- Generator: Adobe Illustrator 21.0.0, SVG Export Plug-In . SVG Version: 6.00 Build 0)  -->
<svg version="1.1" xmlns="http://www.w3.org/2000/svg" xmlns:xlink="http://www.w3.org/1999/xlink" x="0px" y="0px"
	 viewBox="0 0 1197.2 516" style="enable-background:new 0 0 1197.2 516;" xml:space="preserve">
<style type="text/css">
	.st0{fill:#0E97E7;}
	.st1{fill:#FFFFFF;}
	.st2{fill:none;stroke:#FFFFFF;stroke-width:18;stroke-miterlimit:10;}
	.st3{fill:none;stroke:#FFFFFF;stroke-width:5;stroke-miterlimit:10;}
	.st4{opacity:0.5;fill:none;stroke:#000000;stroke-width:1.5;stroke-miterlimit:10;}
	.st5{fill:none;stroke:#000000;stroke-width:8;stroke-miterlimit:10;}
	.st6{fill:#4F4F4F;}
	.st7{fill:none;stroke:#FFFFFF;stroke-width:16;stroke-miterlimit:10;}
	.st8{fill:none;stroke:#DF0920;stroke-width:18;stroke-miterlimit:10;}
	.st9{fill:none;stroke:#3E4098;stroke-width:18;stroke-miterlimit:10;}
	.st10{fill:#3E4098;}
	.st11{fill:none;stroke:#59C24F;stroke-width:18;stroke-miterlimit:10;}
	.st12{fill:none;}
</style>
<g id="Home_x5F_Claire_x5F_Juglair_x5F_St_x5F_Nazaire_xA0_Image_1_">
</g>
<g id="Calque_3">
</g>
<g id="bulles">
	<g>
		<path class="st1" d="M1195.4,480.9c0,18.8-15.2,34-34,34h-1018c-18.8,0-34-15.2-34-34V33c0-18.8,15.2-34,34-34h1018
			c18.8,0,34,15.2,34,34V480.9z"/>
		<polygon class="st1" points="120.4,74.9 -7.1,74.9 109.4,170.9 		"/>
		<g>
			<g>
				<path d="M260.9,143.4c-0.6,5.2-2.4,9.3-5.6,12c-3.2,2.8-7.4,4.2-12.7,4.2c-3.7,0-7-0.9-9.8-2.8c-2.8-1.8-5-4.5-6.6-7.8
					c-1.5-3.4-2.3-7.3-2.4-11.6V131c0-4.4,0.8-8.3,2.3-11.8c1.5-3.4,3.8-6.1,6.7-7.9c2.9-1.9,6.2-2.8,10-2.8c5.3,0,9.5,1.4,12.6,4.3
					c3.1,2.9,4.9,6.8,5.4,11.9h-4.2c-1-8.5-5.6-12.7-13.8-12.7c-4.5,0-8.1,1.7-10.8,5.1c-2.7,3.4-4,8-4,14v6.1
					c0,5.7,1.3,10.3,3.9,13.8s6.1,5.1,10.6,5.1c4.4,0,7.7-1.1,9.9-3.2c2.2-2.1,3.6-5.3,4.1-9.5H260.9z"/>
				<path d="M284.5,159.6c-3.1,0-6-0.8-8.5-2.3c-2.5-1.5-4.5-3.7-5.9-6.5c-1.4-2.8-2.1-5.9-2.1-9.3V140c0-3.6,0.7-6.8,2.1-9.6
					c1.4-2.8,3.3-5.1,5.8-6.7c2.5-1.6,5.1-2.4,8-2.4c4.5,0,8,1.5,10.7,4.6c2.6,3.1,3.9,7.3,3.9,12.6v2.3H272v0.8
					c0,4.2,1.2,7.7,3.6,10.5c2.4,2.8,5.4,4.2,9.1,4.2c2.2,0,4.1-0.4,5.8-1.2c1.7-0.8,3.2-2.1,4.6-3.8l2.6,1.9
					C294.6,157.5,290.2,159.6,284.5,159.6z M283.8,124.8c-3.1,0-5.7,1.1-7.8,3.4s-3.4,5.3-3.8,9.1h22.2v-0.4c-0.1-3.6-1.1-6.4-3-8.7
					C289.4,125.9,286.9,124.8,283.8,124.8z"/>
				<path d="M312.7,112.5v9.5h7.7v3.3h-7.7V150c0,2.1,0.4,3.6,1.1,4.6c0.7,1,2,1.5,3.7,1.5c0.7,0,1.8-0.1,3.3-0.3l0.2,3.3
					c-1.1,0.4-2.5,0.6-4.4,0.6c-2.8,0-4.8-0.8-6.1-2.4c-1.3-1.6-1.9-4-1.9-7.2v-24.7h-6.8V122h6.8v-9.5H312.7z"/>
				<path d="M369.2,158.9c-0.4-1.2-0.7-2.9-0.8-5.2c-1.4,1.9-3.3,3.3-5.5,4.3c-2.2,1-4.6,1.5-7.1,1.5c-3.6,0-6.4-1-8.6-3
					c-2.2-2-3.3-4.5-3.3-7.5c0-3.6,1.5-6.4,4.5-8.5c3-2.1,7.2-3.1,12.5-3.1h7.4v-4.2c0-2.6-0.8-4.7-2.4-6.2c-1.6-1.5-4-2.3-7.1-2.3
					c-2.8,0-5.2,0.7-7.1,2.2c-1.9,1.5-2.8,3.2-2.8,5.3l-4.1,0c0-2.9,1.4-5.5,4.1-7.6c2.7-2.2,6.1-3.2,10.1-3.2c4.1,0,7.4,1,9.8,3.1
					c2.4,2.1,3.6,4.9,3.7,8.6v17.5c0,3.6,0.4,6.3,1.1,8v0.4H369.2z M356.4,156c2.7,0,5.2-0.7,7.3-2c2.2-1.3,3.7-3.1,4.7-5.3v-8.1
					h-7.3c-4.1,0-7.3,0.8-9.6,2.2c-2.3,1.4-3.5,3.4-3.5,6c0,2.1,0.8,3.8,2.3,5.2C351.9,155.3,353.9,156,356.4,156z"/>
				<path d="M400.5,125.5c-0.9-0.2-1.8-0.2-2.8-0.2c-2.6,0-4.7,0.7-6.5,2.1c-1.8,1.4-3,3.5-3.8,6.2v25.4h-4.1v-37h4l0.1,5.9
					c2.2-4.4,5.6-6.6,10.4-6.6c1.1,0,2,0.1,2.7,0.4L400.5,125.5z"/>
				<path d="M404.6,140.1c0-5.8,1.3-10.4,3.8-13.8c2.6-3.4,6-5.1,10.4-5.1c5,0,8.9,2,11.5,6l0.2-5.3h3.8v36.2c0,4.8-1.3,8.5-4,11.3
					c-2.7,2.8-6.3,4.2-10.8,4.2c-2.6,0-5-0.6-7.4-1.7c-2.3-1.2-4.2-2.7-5.5-4.6l2.3-2.5c2.9,3.6,6.3,5.3,10.3,5.3c3.4,0,6.1-1,8-3
					c1.9-2,2.9-4.8,3-8.4v-4.6c-2.6,3.6-6.4,5.5-11.5,5.5c-4.3,0-7.7-1.7-10.3-5.1s-3.9-8-3.9-13.8V140.1z M408.8,140.8
					c0,4.7,0.9,8.4,2.8,11.2c1.9,2.7,4.6,4.1,8,4.1c5,0,8.6-2.3,10.7-6.8v-17.2c-1-2.4-2.3-4.2-4.1-5.4c-1.8-1.2-4-1.9-6.5-1.9
					c-3.4,0-6.1,1.3-8,4.1C409.7,131.6,408.8,135.6,408.8,140.8z"/>
				<path d="M459.4,159.6c-3.1,0-6-0.8-8.5-2.3c-2.5-1.5-4.5-3.7-5.9-6.5c-1.4-2.8-2.1-5.9-2.1-9.3V140c0-3.6,0.7-6.8,2.1-9.6
					c1.4-2.8,3.3-5.1,5.8-6.7c2.5-1.6,5.1-2.4,8-2.4c4.5,0,8,1.5,10.7,4.6c2.6,3.1,3.9,7.3,3.9,12.6v2.3h-26.4v0.8
					c0,4.2,1.2,7.7,3.6,10.5c2.4,2.8,5.4,4.2,9.1,4.2c2.2,0,4.1-0.4,5.8-1.2c1.7-0.8,3.2-2.1,4.6-3.8l2.6,1.9
					C469.5,157.5,465.1,159.6,459.4,159.6z M458.7,124.8c-3.1,0-5.7,1.1-7.8,3.4s-3.4,5.3-3.8,9.1h22.2v-0.4c-0.1-3.6-1.1-6.4-3-8.7
					C464.3,125.9,461.8,124.8,458.7,124.8z"/>
				<path d="M485.2,122l0.1,6.3c1.4-2.3,3.1-4,5.2-5.2c2.1-1.2,4.4-1.8,6.9-1.8c4,0,6.9,1.1,8.9,3.3c1.9,2.2,2.9,5.6,2.9,10v24.3
					h-4.1v-24.3c0-3.3-0.7-5.8-2.1-7.4c-1.4-1.6-3.6-2.4-6.6-2.4c-2.5,0-4.8,0.8-6.7,2.4c-1.9,1.6-3.4,3.7-4.3,6.4v25.3h-4.1v-37
					H485.2z"/>
				<path d="M526.1,112.5v9.5h7.7v3.3h-7.7V150c0,2.1,0.4,3.6,1.1,4.6c0.7,1,2,1.5,3.7,1.5c0.7,0,1.8-0.1,3.3-0.3l0.2,3.3
					c-1.1,0.4-2.5,0.6-4.4,0.6c-2.8,0-4.8-0.8-6.1-2.4c-1.3-1.6-1.9-4-1.9-7.2v-24.7h-6.8V122h6.8v-9.5H526.1z"/>
				<path d="M582.6,158.9c-0.4-1.2-0.7-2.9-0.8-5.2c-1.4,1.9-3.3,3.3-5.5,4.3c-2.2,1-4.6,1.5-7.1,1.5c-3.6,0-6.4-1-8.6-3
					c-2.2-2-3.3-4.5-3.3-7.5c0-3.6,1.5-6.4,4.5-8.5c3-2.1,7.2-3.1,12.5-3.1h7.4v-4.2c0-2.6-0.8-4.7-2.4-6.2c-1.6-1.5-4-2.3-7.1-2.3
					c-2.8,0-5.2,0.7-7.1,2.2c-1.9,1.5-2.8,3.2-2.8,5.3l-4.1,0c0-2.9,1.4-5.5,4.1-7.6c2.7-2.2,6.1-3.2,10.1-3.2c4.1,0,7.4,1,9.8,3.1
					c2.4,2.1,3.6,4.9,3.7,8.6v17.5c0,3.6,0.4,6.3,1.1,8v0.4H582.6z M569.7,156c2.7,0,5.2-0.7,7.3-2c2.2-1.3,3.7-3.1,4.7-5.3v-8.1
					h-7.3c-4.1,0-7.3,0.8-9.6,2.2c-2.3,1.4-3.5,3.4-3.5,6c0,2.1,0.8,3.8,2.3,5.2C565.3,155.3,567.3,156,569.7,156z"/>
				<path d="M601.3,158.9h-4.1v-52.5h4.1V158.9z"/>
				<path d="M617,158.9h-4.1v-52.5h4.1V158.9z"/>
				<path d="M627.9,111.3c0-0.8,0.2-1.4,0.8-2c0.5-0.5,1.2-0.8,2.1-0.8c0.9,0,1.6,0.3,2.1,0.8c0.5,0.5,0.8,1.2,0.8,2
					c0,0.8-0.3,1.4-0.8,1.9c-0.5,0.5-1.2,0.8-2.1,0.8c-0.9,0-1.5-0.3-2.1-0.8C628.1,112.7,627.9,112.1,627.9,111.3z M632.7,158.9
					h-4.1v-37h4.1V158.9z"/>
				<path d="M647.5,122l0.1,6c1.4-2.2,3.1-3.9,5.1-5c2.1-1.1,4.3-1.7,6.8-1.7c5.8,0,9.5,2.4,11.1,7.2c1.3-2.3,3.1-4.1,5.3-5.3
					c2.2-1.2,4.6-1.9,7.3-1.9c7.9,0,12,4.3,12.1,13v24.7h-4.1v-24.4c0-3.3-0.7-5.8-2.1-7.3c-1.4-1.6-3.7-2.4-6.9-2.4
					c-2.9,0-5.4,1-7.5,2.9c-2,1.9-3.2,4.1-3.4,6.8v24.5h-4.1v-24.7c0-3.2-0.8-5.5-2.2-7.1c-1.5-1.6-3.7-2.3-6.8-2.3
					c-2.6,0-4.8,0.7-6.6,2.2c-1.8,1.5-3.2,3.7-4.1,6.5v25.4h-4.1v-37H647.5z"/>
				<path d="M720.1,159.6c-3.1,0-6-0.8-8.5-2.3c-2.5-1.5-4.5-3.7-5.9-6.5c-1.4-2.8-2.1-5.9-2.1-9.3V140c0-3.6,0.7-6.8,2.1-9.6
					c1.4-2.8,3.3-5.1,5.8-6.7c2.5-1.6,5.1-2.4,8-2.4c4.5,0,8,1.5,10.7,4.6c2.6,3.1,3.9,7.3,3.9,12.6v2.3h-26.4v0.8
					c0,4.2,1.2,7.7,3.6,10.5c2.4,2.8,5.4,4.2,9.1,4.2c2.2,0,4.1-0.4,5.8-1.2c1.7-0.8,3.2-2.1,4.6-3.8l2.6,1.9
					C730.2,157.5,725.9,159.6,720.1,159.6z M719.4,124.8c-3.1,0-5.7,1.1-7.8,3.4s-3.4,5.3-3.8,9.1H730v-0.4c-0.1-3.6-1.1-6.4-3-8.7
					C725,125.9,722.5,124.8,719.4,124.8z"/>
				<path d="M745.9,122l0.1,6.3c1.4-2.3,3.1-4,5.2-5.2c2.1-1.2,4.4-1.8,6.9-1.8c4,0,6.9,1.1,8.9,3.3c1.9,2.2,2.9,5.6,2.9,10v24.3
					h-4.1v-24.3c0-3.3-0.7-5.8-2.1-7.4c-1.4-1.6-3.6-2.4-6.6-2.4c-2.5,0-4.8,0.8-6.7,2.4c-1.9,1.6-3.4,3.7-4.3,6.4v25.3H742v-37
					H745.9z"/>
				<path d="M786.8,112.5v9.5h7.7v3.3h-7.7V150c0,2.1,0.4,3.6,1.1,4.6c0.7,1,2,1.5,3.7,1.5c0.7,0,1.8-0.1,3.3-0.3l0.2,3.3
					c-1.1,0.4-2.5,0.6-4.4,0.6c-2.8,0-4.8-0.8-6.1-2.4c-1.3-1.6-1.9-4-1.9-7.2v-24.7h-6.8V122h6.8v-9.5H786.8z"/>
				<path d="M817.2,159.6c-3.1,0-6-0.8-8.5-2.3c-2.5-1.5-4.5-3.7-5.9-6.5c-1.4-2.8-2.1-5.9-2.1-9.3V140c0-3.6,0.7-6.8,2.1-9.6
					c1.4-2.8,3.3-5.1,5.8-6.7c2.5-1.6,5.1-2.4,8-2.4c4.5,0,8,1.5,10.7,4.6c2.6,3.1,3.9,7.3,3.9,12.6v2.3h-26.4v0.8
					c0,4.2,1.2,7.7,3.6,10.5c2.4,2.8,5.4,4.2,9.1,4.2c2.2,0,4.1-0.4,5.8-1.2c1.7-0.8,3.2-2.1,4.6-3.8l2.6,1.9
					C827.3,157.5,823,159.6,817.2,159.6z M816.5,124.8c-3.1,0-5.7,1.1-7.8,3.4s-3.4,5.3-3.8,9.1h22.2v-0.4c-0.1-3.6-1.1-6.4-3-8.7
					C822.1,125.9,819.6,124.8,816.5,124.8z"/>
				<path d="M860.7,158.9h-4.1v-52.5h4.1V158.9z"/>
				<path d="M886.1,159.6c-3.1,0-6-0.8-8.5-2.3c-2.5-1.5-4.5-3.7-5.9-6.5c-1.4-2.8-2.1-5.9-2.1-9.3V140c0-3.6,0.7-6.8,2.1-9.6
					c1.4-2.8,3.3-5.1,5.8-6.7c2.5-1.6,5.1-2.4,8-2.4c4.5,0,8,1.5,10.7,4.6c2.6,3.1,3.9,7.3,3.9,12.6v2.3h-26.4v0.8
					c0,4.2,1.2,7.7,3.6,10.5c2.4,2.8,5.4,4.2,9.1,4.2c2.2,0,4.1-0.4,5.8-1.2c1.7-0.8,3.2-2.1,4.6-3.8l2.6,1.9
					C896.2,157.5,891.8,159.6,886.1,159.6z M885.4,124.8c-3.1,0-5.7,1.1-7.8,3.4s-3.4,5.3-3.8,9.1h22.2v-0.4c-0.1-3.6-1.1-6.4-3-8.7
					C891,125.9,888.5,124.8,885.4,124.8z"/>
				<path d="M256.5,224.8c0,5.9-1.3,10.5-3.8,13.9c-2.5,3.3-6.1,5-10.6,5c-4,0-7.2-1.5-9.6-4.6l-0.4,3.9h-8.9v-52.5h9.9v18.8
					c2.3-2.7,5.3-4,9-4c4.5,0,8,1.7,10.6,5c2.6,3.3,3.8,8,3.8,14V224.8z M246.7,224c0-3.7-0.6-6.5-1.8-8.2c-1.2-1.7-3-2.6-5.3-2.6
					c-3.1,0-5.3,1.3-6.5,3.9v14.6c1.2,2.6,3.4,3.9,6.6,3.9c3.2,0,5.3-1.6,6.3-4.7C246.4,229.4,246.7,227.1,246.7,224z"/>
				<path d="M284.8,239.2c-2.4,3-5.8,4.4-10.1,4.4c-4,0-7-1.1-9.1-3.4c-2.1-2.3-3.2-5.6-3.2-10V206h9.9v23.9c0,3.9,1.8,5.8,5.3,5.8
					c3.3,0,5.7-1.2,6.9-3.5V206h9.9v37H285L284.8,239.2z"/>
				<path d="M300.2,224.2c0-5.8,1.3-10.4,3.9-13.8s6.1-5.1,10.6-5.1c3.6,0,6.6,1.3,8.9,4v-18.9h9.9v52.5h-8.9l-0.5-3.9
					c-2.5,3.1-5.6,4.6-9.5,4.6c-4.4,0-7.8-1.7-10.5-5.1C301.6,235.1,300.2,230.3,300.2,224.2z M310.1,224.9c0,3.5,0.6,6.1,1.8,8
					c1.2,1.9,3,2.8,5.3,2.8c3.1,0,5.2-1.3,6.5-3.9v-14.7c-1.2-2.6-3.4-3.9-6.4-3.9C312.5,213.2,310.1,217.1,310.1,224.9z"/>
				<path d="M339.8,224.2c0-5.7,1.4-10.2,4-13.7c2.7-3.5,6.3-5.2,10.9-5.2c4.1,0,7.2,1.4,9.5,4.2l0.4-3.5h9v35.8
					c0,3.2-0.7,6-2.2,8.4c-1.5,2.4-3.5,4.2-6.2,5.5c-2.7,1.3-5.8,1.9-9.4,1.9c-2.7,0-5.4-0.5-7.9-1.6c-2.6-1.1-4.5-2.5-5.8-4.2
					l4.4-6c2.5,2.8,5.4,4.1,9,4.1c2.6,0,4.7-0.7,6.1-2.1c1.5-1.4,2.2-3.4,2.2-6v-2c-2.3,2.6-5.3,3.9-9,3.9c-4.4,0-8-1.7-10.8-5.2
					c-2.7-3.5-4.1-8.1-4.1-13.8V224.2z M349.7,224.9c0,3.4,0.7,6,2,7.9c1.3,1.9,3.2,2.9,5.5,2.9c3,0,5.2-1.1,6.5-3.4v-15.6
					c-1.3-2.3-3.5-3.4-6.4-3.4c-2.4,0-4.2,1-5.6,2.9C350.3,218.1,349.7,221,349.7,224.9z"/>
				<path d="M398.2,243.6c-5.4,0-9.8-1.7-13.2-5c-3.4-3.3-5.1-7.8-5.1-13.3v-1c0-3.7,0.7-7,2.2-10c1.4-2.9,3.5-5.2,6.1-6.8
					c2.6-1.6,5.6-2.4,9-2.4c5.1,0,9,1.6,11.9,4.8c2.9,3.2,4.4,7.7,4.4,13.6v4h-23.5c0.3,2.4,1.3,4.4,2.9,5.8
					c1.6,1.5,3.6,2.2,6.1,2.2c3.8,0,6.8-1.4,8.9-4.1l4.9,5.4c-1.5,2.1-3.5,3.7-6,4.9C404.1,243,401.3,243.6,398.2,243.6z
					 M397.1,213.2c-2,0-3.5,0.7-4.8,2c-1.2,1.3-2,3.2-2.3,5.7h13.7v-0.8c0-2.2-0.6-3.9-1.8-5.1C400.8,213.8,399.2,213.2,397.1,213.2
					z"/>
				<path d="M430.8,196.9v9.1h6.3v7.2h-6.3v18.5c0,1.4,0.3,2.3,0.8,2.9c0.5,0.6,1.5,0.9,3,0.9c1.1,0,2.1-0.1,2.9-0.2v7.5
					c-1.9,0.6-3.9,0.9-6,0.9c-6.9,0-10.5-3.5-10.6-10.5v-19.9h-5.4V206h5.4v-9.1H430.8z"/>
				<path d="M458.6,224.2c0-5.8,1.3-10.4,3.9-13.8s6.1-5.1,10.6-5.1c3.6,0,6.6,1.3,8.9,4v-18.9h9.9v52.5H483l-0.5-3.9
					c-2.5,3.1-5.6,4.6-9.5,4.6c-4.4,0-7.8-1.7-10.5-5.1C459.9,235.1,458.6,230.3,458.6,224.2z M468.4,224.9c0,3.5,0.6,6.1,1.8,8
					c1.2,1.9,3,2.8,5.3,2.8c3.1,0,5.2-1.3,6.5-3.9v-14.7c-1.2-2.6-3.4-3.9-6.4-3.9C470.8,213.2,468.4,217.1,468.4,224.9z"/>
				<path d="M516.6,243.6c-5.4,0-9.8-1.7-13.2-5c-3.4-3.3-5.1-7.8-5.1-13.3v-1c0-3.7,0.7-7,2.2-10c1.4-2.9,3.5-5.2,6.1-6.8
					c2.6-1.6,5.6-2.4,9-2.4c5.1,0,9,1.6,11.9,4.8c2.9,3.2,4.4,7.7,4.4,13.6v4h-23.5c0.3,2.4,1.3,4.4,2.9,5.8
					c1.6,1.5,3.6,2.2,6.1,2.2c3.8,0,6.8-1.4,8.9-4.1l4.9,5.4c-1.5,2.1-3.5,3.7-6,4.9C522.4,243,519.6,243.6,516.6,243.6z
					 M515.4,213.2c-2,0-3.5,0.7-4.8,2c-1.2,1.3-2,3.2-2.3,5.7h13.7v-0.8c0-2.2-0.6-3.9-1.8-5.1C519.2,213.8,517.5,213.2,515.4,213.2
					z"/>
				<path d="M565.2,242.9h-9.9v-52.5h9.9V242.9z"/>
				<path d="M594.8,242.9c-0.5-0.9-0.8-2-1-3.3c-2.4,2.7-5.5,4-9.3,4c-3.6,0-6.6-1-9-3.1c-2.4-2.1-3.6-4.7-3.6-7.9
					c0-3.9,1.5-6.9,4.4-9c2.9-2.1,7.1-3.2,12.6-3.2h4.5v-2.1c0-1.7-0.4-3.1-1.3-4.1c-0.9-1-2.3-1.5-4.2-1.5c-1.7,0-3,0.4-3.9,1.2
					c-0.9,0.8-1.4,1.9-1.4,3.3h-9.9c0-2.1,0.7-4.1,2-5.9c1.3-1.8,3.2-3.3,5.6-4.3c2.4-1,5.1-1.6,8.1-1.6c4.6,0,8.2,1.1,10.9,3.4
					c2.7,2.3,4,5.5,4,9.7v16c0,3.5,0.5,6.2,1.5,8v0.6H594.8z M586.6,236.1c1.5,0,2.8-0.3,4-1c1.2-0.7,2.1-1.5,2.7-2.6v-6.4h-3.7
					c-4.9,0-7.6,1.7-7.9,5.1l0,0.6c0,1.2,0.4,2.2,1.3,3C583.9,235.7,585.1,236.1,586.6,236.1z"/>
				<path d="M642.2,230.9l6.9-24.9h10.3l-12.5,37h-9.4L625,206h10.3L642.2,230.9z"/>
				<path d="M663.6,196.4c0-1.5,0.5-2.7,1.5-3.7c1-1,2.3-1.4,4-1.4c1.7,0,3,0.5,4,1.4c1,1,1.5,2.2,1.5,3.7c0,1.5-0.5,2.7-1.5,3.7
					c-1,1-2.4,1.4-4,1.4c-1.7,0-3-0.5-4-1.4S663.6,197.9,663.6,196.4z M674.1,242.9h-9.9v-37h9.9V242.9z"/>
				<path d="M692.7,242.9h-9.9v-52.5h9.9V242.9z"/>
				<path d="M711.3,242.9h-9.9v-52.5h9.9V242.9z"/>
				<path d="M736.4,243.6c-5.4,0-9.8-1.7-13.2-5c-3.4-3.3-5.1-7.8-5.1-13.3v-1c0-3.7,0.7-7,2.2-10c1.4-2.9,3.5-5.2,6.1-6.8
					c2.6-1.6,5.6-2.4,9-2.4c5.1,0,9,1.6,11.9,4.8c2.9,3.2,4.4,7.7,4.4,13.6v4h-23.5c0.3,2.4,1.3,4.4,2.9,5.8
					c1.6,1.5,3.6,2.2,6.1,2.2c3.8,0,6.8-1.4,8.9-4.1l4.9,5.4c-1.5,2.1-3.5,3.7-6,4.9C742.3,243,739.5,243.6,736.4,243.6z
					 M735.3,213.2c-2,0-3.5,0.7-4.8,2c-1.2,1.3-2,3.2-2.3,5.7h13.7v-0.8c0-2.2-0.6-3.9-1.8-5.1C739,213.8,737.4,213.2,735.3,213.2z"
					/>
				<path d="M774.1,224.1c0-5.8,1.3-10.4,3.8-13.8c2.6-3.4,6.1-5.1,10.5-5.1c5,0,8.8,1.9,11.4,5.7l0.2-5h3.8v51.2h-4.1v-18.8
					c-2.7,3.5-6.5,5.3-11.4,5.3c-4.3,0-7.8-1.7-10.4-5.1s-3.9-8-3.9-13.8V224.1z M778.3,224.8c0,4.8,1,8.5,2.9,11.3
					c1.9,2.7,4.6,4.1,8,4.1c4.9,0,8.4-2.1,10.6-6.4v-18.1c-1-2.2-2.4-3.9-4.3-5.1c-1.8-1.2-3.9-1.8-6.3-1.8c-3.4,0-6.1,1.4-8.1,4.1
					C779.3,215.6,778.3,219.6,778.3,224.8z"/>
				<path d="M838.6,238.3c-2.5,3.6-6.4,5.4-11.8,5.4c-3.9,0-6.9-1.1-9-3.4c-2.1-2.3-3.1-5.7-3.1-10.2V206h4.1v23.5
					c0,7,2.8,10.6,8.5,10.6c5.9,0,9.7-2.4,11.2-7.3V206h4.1v37h-4L838.6,238.3z"/>
				<path d="M853,195.3c0-0.8,0.2-1.4,0.8-2c0.5-0.5,1.2-0.8,2.1-0.8c0.9,0,1.6,0.3,2.1,0.8c0.5,0.5,0.8,1.2,0.8,2
					c0,0.8-0.3,1.4-0.8,1.9c-0.5,0.5-1.2,0.8-2.1,0.8c-0.9,0-1.5-0.3-2.1-0.8C853.3,196.7,853,196.1,853,195.3z M857.9,242.9h-4.1
					v-37h4.1V242.9z"/>
				<path d="M903.1,209.5c-0.9-0.2-1.8-0.2-2.8-0.2c-2.6,0-4.7,0.7-6.5,2.1c-1.8,1.4-3,3.5-3.8,6.2v25.4H886v-37h4l0.1,5.9
					c2.2-4.4,5.6-6.6,10.4-6.6c1.1,0,2,0.1,2.7,0.4L903.1,209.5z"/>
				<path d="M923.2,243.6c-3.1,0-6-0.8-8.5-2.3c-2.5-1.5-4.5-3.7-5.9-6.5c-1.4-2.8-2.1-5.9-2.1-9.3V224c0-3.6,0.7-6.8,2.1-9.6
					c1.4-2.8,3.3-5.1,5.8-6.7c2.5-1.6,5.1-2.4,8-2.4c4.5,0,8,1.5,10.7,4.6c2.6,3.1,3.9,7.3,3.9,12.6v2.3h-26.4v0.8
					c0,4.2,1.2,7.7,3.6,10.5c2.4,2.8,5.4,4.2,9.1,4.2c2.2,0,4.1-0.4,5.8-1.2c1.7-0.8,3.2-2.1,4.6-3.8l2.6,1.9
					C933.3,241.5,928.9,243.6,923.2,243.6z M922.5,208.8c-3.1,0-5.7,1.1-7.8,3.4s-3.4,5.3-3.8,9.1H933v-0.4c-0.1-3.6-1.1-6.4-3-8.7
					C928.1,209.9,925.6,208.8,922.5,208.8z"/>
				<path d="M958.7,240.2c2.8,0,5.2-0.8,7.2-2.4c1.9-1.6,3-3.7,3.1-6.2h3.9c-0.1,2.3-0.8,4.3-2.1,6.2s-3,3.3-5.2,4.4
					c-2.2,1-4.5,1.6-6.9,1.6c-4.9,0-8.7-1.7-11.5-5.1c-2.8-3.4-4.3-7.9-4.3-13.6v-1.2c0-3.6,0.6-6.9,1.9-9.7c1.3-2.8,3.1-5,5.5-6.5
					c2.4-1.5,5.2-2.3,8.4-2.3c4.1,0,7.4,1.2,10,3.6c2.6,2.4,4,5.6,4.2,9.5H969c-0.2-2.9-1.2-5.2-3.1-7s-4.3-2.7-7.2-2.7
					c-3.7,0-6.6,1.3-8.6,4s-3.1,6.4-3.1,11.2v1.2c0,4.7,1,8.4,3.1,11C952.1,238.9,955,240.2,958.7,240.2z M959.8,243.3l-0.4,2.2
					c3.8,0.5,5.6,2.4,5.6,5.8c0,2.1-0.9,3.8-2.7,5c-1.8,1.2-4.2,1.8-7.3,1.8l-0.2-2.7c2,0,3.7-0.4,5-1.1c1.3-0.7,1.9-1.7,1.9-3
					c0-1.3-0.5-2.2-1.5-2.7c-1-0.5-2.5-0.8-4.5-1l1-4.3H959.8z"/>
				<path d="M978.9,223.9c0-3.6,0.7-6.8,2.1-9.6c1.4-2.8,3.3-5.1,5.8-6.6c2.5-1.6,5.4-2.4,8.6-2.4c4.9,0,8.9,1.7,12,5.2
					c3.1,3.5,4.6,8,4.6,13.7v0.9c0,3.6-0.7,6.8-2.1,9.7s-3.3,5.1-5.8,6.6c-2.5,1.5-5.4,2.3-8.6,2.3c-4.9,0-8.9-1.7-11.9-5.2
					c-3.1-3.5-4.6-8-4.6-13.7V223.9z M983,225c0,4.4,1.1,8,3.4,10.9c2.3,2.8,5.3,4.3,9,4.3c3.7,0,6.7-1.4,9-4.3
					c2.3-2.8,3.4-6.6,3.4-11.2v-0.8c0-2.8-0.5-5.4-1.6-7.8c-1-2.3-2.5-4.2-4.4-5.5c-1.9-1.3-4.1-1.9-6.5-1.9c-3.6,0-6.6,1.4-8.9,4.3
					c-2.3,2.9-3.5,6.6-3.5,11.2V225z"/>
				<path d="M1020.1,195.3c0-0.8,0.2-1.4,0.8-2c0.5-0.5,1.2-0.8,2.1-0.8c0.9,0,1.6,0.3,2.1,0.8c0.5,0.5,0.8,1.2,0.8,2
					c0,0.8-0.3,1.4-0.8,1.9c-0.5,0.5-1.2,0.8-2.1,0.8c-0.9,0-1.5-0.3-2.1-0.8C1020.3,196.7,1020.1,196.1,1020.1,195.3z
					 M1024.9,242.9h-4.1v-37h4.1V242.9z"/>
				<path d="M1042.4,196.5v9.5h7.7v3.3h-7.7V234c0,2.1,0.4,3.6,1.1,4.6c0.7,1,2,1.5,3.7,1.5c0.7,0,1.8-0.1,3.3-0.3l0.2,3.3
					c-1.1,0.4-2.5,0.6-4.4,0.6c-2.8,0-4.8-0.8-6.1-2.4c-1.3-1.6-1.9-4-1.9-7.2v-24.7h-6.8V206h6.8v-9.5H1042.4z"/>
				<path d="M248.1,326.9c-0.4-1.2-0.7-2.9-0.8-5.2c-1.4,1.9-3.3,3.3-5.5,4.3c-2.2,1-4.6,1.5-7.1,1.5c-3.6,0-6.4-1-8.6-3
					c-2.2-2-3.3-4.5-3.3-7.5c0-3.6,1.5-6.4,4.5-8.5c3-2.1,7.2-3.1,12.5-3.1h7.4v-4.2c0-2.6-0.8-4.7-2.4-6.2c-1.6-1.5-4-2.3-7.1-2.3
					c-2.8,0-5.2,0.7-7.1,2.2c-1.9,1.5-2.8,3.2-2.8,5.3l-4.1,0c0-2.9,1.4-5.5,4.1-7.6c2.7-2.2,6.1-3.2,10.1-3.2c4.1,0,7.4,1,9.8,3.1
					c2.4,2.1,3.6,4.9,3.7,8.6v17.5c0,3.6,0.4,6.3,1.1,8v0.4H248.1z M235.2,324c2.7,0,5.2-0.7,7.3-2c2.2-1.3,3.7-3.1,4.7-5.3v-8.1
					H240c-4.1,0-7.3,0.8-9.6,2.2c-2.3,1.4-3.5,3.4-3.5,6c0,2.1,0.8,3.8,2.3,5.2C230.8,323.3,232.8,324,235.2,324z"/>
				<path d="M286,322.3c-2.5,3.6-6.4,5.4-11.8,5.4c-3.9,0-6.9-1.1-9-3.4c-2.1-2.3-3.1-5.7-3.1-10.2V290h4.1v23.5
					c0,7,2.8,10.6,8.5,10.6c5.9,0,9.7-2.4,11.2-7.3V290h4.1v37h-4L286,322.3z"/>
				<path d="M322.8,317.5c0-2-0.8-3.7-2.4-4.9c-1.6-1.2-4.1-2.2-7.4-2.9c-3.3-0.7-5.8-1.5-7.6-2.4c-1.8-0.9-3.2-2-4-3.3
					s-1.3-2.9-1.3-4.7c0-2.9,1.2-5.3,3.7-7.2c2.4-1.9,5.6-2.9,9.4-2.9c4.1,0,7.4,1,9.9,3.1c2.5,2,3.7,4.7,3.7,8h-4.1
					c0-2.2-0.9-4-2.7-5.4c-1.8-1.4-4.1-2.2-6.9-2.2c-2.7,0-4.8,0.6-6.5,1.8c-1.6,1.2-2.4,2.8-2.4,4.7c0,1.8,0.7,3.3,2,4.3
					c1.4,1,3.8,1.9,7.4,2.8c3.6,0.8,6.3,1.7,8.1,2.7s3.1,2.1,4,3.5c0.9,1.3,1.3,3,1.3,4.9c0,3.1-1.3,5.6-3.8,7.5
					c-2.5,1.9-5.8,2.8-9.9,2.8c-4.3,0-7.8-1-10.5-3.1c-2.7-2.1-4-4.7-4-7.9h4.1c0.2,2.4,1.2,4.3,3,5.6c1.9,1.3,4.3,2,7.4,2
					c2.8,0,5.1-0.6,6.9-1.9C322,321,322.8,319.5,322.8,317.5z"/>
				<path d="M358.3,317.5c0-2-0.8-3.7-2.4-4.9c-1.6-1.2-4.1-2.2-7.4-2.9c-3.3-0.7-5.8-1.5-7.6-2.4c-1.8-0.9-3.2-2-4-3.3
					s-1.3-2.9-1.3-4.7c0-2.9,1.2-5.3,3.7-7.2c2.4-1.9,5.6-2.9,9.4-2.9c4.1,0,7.4,1,9.9,3.1c2.5,2,3.7,4.7,3.7,8h-4.1
					c0-2.2-0.9-4-2.7-5.4c-1.8-1.4-4.1-2.2-6.9-2.2c-2.7,0-4.8,0.6-6.5,1.8c-1.6,1.2-2.4,2.8-2.4,4.7c0,1.8,0.7,3.3,2,4.3
					c1.4,1,3.8,1.9,7.4,2.8c3.6,0.8,6.3,1.7,8.1,2.7s3.1,2.1,4,3.5c0.9,1.3,1.3,3,1.3,4.9c0,3.1-1.3,5.6-3.8,7.5
					c-2.5,1.9-5.8,2.8-9.9,2.8c-4.3,0-7.8-1-10.5-3.1c-2.7-2.1-4-4.7-4-7.9h4.1c0.2,2.4,1.2,4.3,3,5.6c1.9,1.3,4.3,2,7.4,2
					c2.8,0,5.1-0.6,6.9-1.9C357.4,321,358.3,319.5,358.3,317.5z"/>
				<path d="M371.3,279.3c0-0.8,0.2-1.4,0.8-2c0.5-0.5,1.2-0.8,2.1-0.8c0.9,0,1.6,0.3,2.1,0.8c0.5,0.5,0.8,1.2,0.8,2
					c0,0.8-0.3,1.4-0.8,1.9c-0.5,0.5-1.2,0.8-2.1,0.8c-0.9,0-1.5-0.3-2.1-0.8C371.6,280.7,371.3,280.1,371.3,279.3z M376.2,326.9
					h-4.1v-37h4.1V326.9z"/>
				<path d="M402.6,308.1c0-5.7,1.3-10.3,3.8-13.7c2.6-3.4,6-5.1,10.4-5.1c5,0,8.8,2,11.4,5.9v-20.7h4.1v52.5h-3.8l-0.2-4.9
					c-2.6,3.7-6.5,5.6-11.6,5.6c-4.3,0-7.7-1.7-10.3-5.1c-2.6-3.4-3.9-8.1-3.9-13.9V308.1z M406.8,308.8c0,4.7,0.9,8.4,2.8,11.2
					c1.9,2.7,4.6,4.1,8,4.1c5,0,8.6-2.2,10.7-6.7V300c-2.1-4.8-5.7-7.2-10.7-7.2c-3.4,0-6.1,1.3-8,4.1
					C407.7,299.6,406.8,303.6,406.8,308.8z"/>
				<path d="M457.5,327.6c-3.1,0-6-0.8-8.5-2.3c-2.5-1.5-4.5-3.7-5.9-6.5c-1.4-2.8-2.1-5.9-2.1-9.3V308c0-3.6,0.7-6.8,2.1-9.6
					c1.4-2.8,3.3-5.1,5.8-6.7c2.5-1.6,5.1-2.4,8-2.4c4.5,0,8,1.5,10.7,4.6c2.6,3.1,3.9,7.3,3.9,12.6v2.3H445v0.8
					c0,4.2,1.2,7.7,3.6,10.5c2.4,2.8,5.4,4.2,9.1,4.2c2.2,0,4.1-0.4,5.8-1.2c1.7-0.8,3.2-2.1,4.6-3.8l2.6,1.9
					C467.6,325.5,463.2,327.6,457.5,327.6z M456.8,292.8c-3.1,0-5.7,1.1-7.8,3.4s-3.4,5.3-3.8,9.1h22.2v-0.4c-0.1-3.6-1.1-6.4-3-8.7
					C462.4,293.9,459.9,292.8,456.8,292.8z"/>
				<path d="M501.5,317.5c0-2-0.8-3.7-2.4-4.9c-1.6-1.2-4.1-2.2-7.4-2.9c-3.3-0.7-5.8-1.5-7.6-2.4c-1.8-0.9-3.2-2-4-3.3
					s-1.3-2.9-1.3-4.7c0-2.9,1.2-5.3,3.7-7.2c2.4-1.9,5.6-2.9,9.4-2.9c4.1,0,7.4,1,9.9,3.1c2.5,2,3.7,4.7,3.7,8h-4.1
					c0-2.2-0.9-4-2.7-5.4c-1.8-1.4-4.1-2.2-6.9-2.2c-2.7,0-4.8,0.6-6.5,1.8c-1.6,1.2-2.4,2.8-2.4,4.7c0,1.8,0.7,3.3,2,4.3
					c1.4,1,3.8,1.9,7.4,2.8c3.6,0.8,6.3,1.7,8.1,2.7s3.1,2.1,4,3.5c0.9,1.3,1.3,3,1.3,4.9c0,3.1-1.3,5.6-3.8,7.5
					c-2.5,1.9-5.8,2.8-9.9,2.8c-4.3,0-7.8-1-10.5-3.1c-2.7-2.1-4-4.7-4-7.9h4.1c0.2,2.4,1.2,4.3,3,5.6c1.9,1.3,4.3,2,7.4,2
					c2.8,0,5.1-0.6,6.9-1.9C500.6,321,501.5,319.5,501.5,317.5z"/>
				<path d="M528.7,308.2c0-5.8,1.3-10.4,3.9-13.8s6.1-5.1,10.6-5.1c3.6,0,6.6,1.3,8.9,4v-18.9h9.9v52.5h-8.9l-0.5-3.9
					c-2.5,3.1-5.6,4.6-9.5,4.6c-4.4,0-7.8-1.7-10.5-5.1C530.1,319.1,528.7,314.3,528.7,308.2z M538.6,308.9c0,3.5,0.6,6.1,1.8,8
					c1.2,1.9,3,2.8,5.3,2.8c3.1,0,5.2-1.3,6.5-3.9v-14.7c-1.2-2.6-3.4-3.9-6.4-3.9C541,297.2,538.6,301.1,538.6,308.9z"/>
				<path d="M568.2,308.1c0-3.7,0.7-6.9,2.1-9.8c1.4-2.9,3.4-5.1,6.1-6.7c2.7-1.6,5.7-2.4,9.2-2.4c5,0,9.1,1.5,12.2,4.6
					c3.2,3.1,4.9,7.2,5.3,12.4l0.1,2.5c0,5.7-1.6,10.2-4.8,13.7c-3.2,3.4-7.4,5.1-12.7,5.1s-9.6-1.7-12.8-5.1
					c-3.2-3.4-4.8-8.1-4.8-13.9V308.1z M578.1,308.8c0,3.5,0.7,6.2,2,8.1c1.3,1.9,3.2,2.8,5.7,2.8c2.4,0,4.3-0.9,5.6-2.8
					c1.3-1.8,2-4.8,2-8.8c0-3.4-0.7-6.1-2-8c-1.3-1.9-3.2-2.8-5.7-2.8c-2.4,0-4.3,0.9-5.6,2.8C578.7,302,578.1,304.9,578.1,308.8z"
					/>
				<path d="M621.1,280.9v9.1h6.3v7.2h-6.3v18.5c0,1.4,0.3,2.3,0.8,2.9c0.5,0.6,1.5,0.9,3,0.9c1.1,0,2.1-0.1,2.9-0.2v7.5
					c-1.9,0.6-3.9,0.9-6,0.9c-6.9,0-10.5-3.5-10.6-10.5v-19.9h-5.4V290h5.4v-9.1H621.1z"/>
				<path d="M654.4,326.9c-0.5-0.9-0.8-2-1-3.3c-2.4,2.7-5.5,4-9.3,4c-3.6,0-6.6-1-9-3.1c-2.4-2.1-3.6-4.7-3.6-7.9
					c0-3.9,1.5-6.9,4.4-9c2.9-2.1,7.1-3.2,12.6-3.2h4.5v-2.1c0-1.7-0.4-3.1-1.3-4.1c-0.9-1-2.3-1.5-4.2-1.5c-1.7,0-3,0.4-3.9,1.2
					c-0.9,0.8-1.4,1.9-1.4,3.3h-9.9c0-2.1,0.7-4.1,2-5.9c1.3-1.8,3.2-3.3,5.6-4.3c2.4-1,5.1-1.6,8.1-1.6c4.6,0,8.2,1.1,10.9,3.4
					c2.7,2.3,4,5.5,4,9.7v16c0,3.5,0.5,6.2,1.5,8v0.6H654.4z M646.2,320.1c1.5,0,2.8-0.3,4-1c1.2-0.7,2.1-1.5,2.7-2.6v-6.4h-3.7
					c-4.9,0-7.6,1.7-7.9,5.1l0,0.6c0,1.2,0.4,2.2,1.3,3C643.5,319.7,644.7,320.1,646.2,320.1z"/>
				<path d="M682.3,280.9v9.1h6.3v7.2h-6.3v18.5c0,1.4,0.3,2.3,0.8,2.9c0.5,0.6,1.5,0.9,3,0.9c1.1,0,2.1-0.1,2.9-0.2v7.5
					c-1.9,0.6-3.9,0.9-6,0.9c-6.9,0-10.5-3.5-10.6-10.5v-19.9H667V290h5.4v-9.1H682.3z"/>
				<path d="M694.1,280.4c0-1.5,0.5-2.7,1.5-3.7c1-1,2.3-1.4,4-1.4c1.7,0,3,0.5,4,1.4c1,1,1.5,2.2,1.5,3.7c0,1.5-0.5,2.7-1.5,3.7
					c-1,1-2.4,1.4-4,1.4c-1.7,0-3-0.5-4-1.4S694.1,281.9,694.1,280.4z M704.6,326.9h-9.9v-37h9.9V326.9z"/>
				<path d="M711.2,308.1c0-3.7,0.7-6.9,2.1-9.8c1.4-2.9,3.4-5.1,6.1-6.7c2.7-1.6,5.7-2.4,9.2-2.4c5,0,9.1,1.5,12.2,4.6
					c3.2,3.1,4.9,7.2,5.3,12.4l0.1,2.5c0,5.7-1.6,10.2-4.8,13.7c-3.2,3.4-7.4,5.1-12.7,5.1s-9.6-1.7-12.8-5.1
					c-3.2-3.4-4.8-8.1-4.8-13.9V308.1z M721,308.8c0,3.5,0.7,6.2,2,8.1c1.3,1.9,3.2,2.8,5.7,2.8c2.4,0,4.3-0.9,5.6-2.8
					c1.3-1.8,2-4.8,2-8.8c0-3.4-0.7-6.1-2-8c-1.3-1.9-3.2-2.8-5.7-2.8c-2.4,0-4.3,0.9-5.6,2.8C721.7,302,721,304.9,721,308.8z"/>
				<path d="M761.4,290l0.3,4.3c2.6-3.3,6.2-5,10.6-5c3.9,0,6.8,1.2,8.8,3.5c1.9,2.3,2.9,5.7,2.9,10.3v23.9h-9.9v-23.7
					c0-2.1-0.5-3.6-1.4-4.6c-0.9-0.9-2.4-1.4-4.5-1.4c-2.8,0-4.9,1.2-6.3,3.6v26.1h-9.9v-37H761.4z"/>
				<path d="M811.5,316.7c0-1.2-0.6-2.2-1.8-2.9c-1.2-0.7-3.1-1.3-5.8-1.9c-8.8-1.8-13.2-5.6-13.2-11.2c0-3.3,1.4-6,4.1-8.2
					s6.3-3.3,10.7-3.3c4.7,0,8.4,1.1,11.3,3.3c2.8,2.2,4.2,5.1,4.2,8.6h-9.9c0-1.4-0.5-2.6-1.4-3.5c-0.9-0.9-2.3-1.4-4.3-1.4
					c-1.7,0-3,0.4-3.9,1.1c-0.9,0.8-1.4,1.7-1.4,2.9c0,1.1,0.5,2,1.6,2.6s2.8,1.3,5.2,1.7c2.5,0.5,4.5,1,6.2,1.7
					c5.2,1.9,7.8,5.2,7.8,9.9c0,3.4-1.4,6.1-4.3,8.2c-2.9,2.1-6.6,3.1-11.2,3.1c-3.1,0-5.9-0.6-8.3-1.7c-2.4-1.1-4.3-2.6-5.7-4.5
					s-2.1-4-2.1-6.2h9.4c0.1,1.8,0.7,3.1,1.9,4c1.2,0.9,2.8,1.4,4.9,1.4c1.9,0,3.3-0.4,4.3-1.1C811,318.8,811.5,317.9,811.5,316.7z"
					/>
				<path d="M843.4,308.2c0-5.8,1.3-10.4,3.9-13.8s6.1-5.1,10.6-5.1c3.6,0,6.6,1.3,8.9,4v-18.9h9.9v52.5h-8.9l-0.5-3.9
					c-2.5,3.1-5.6,4.6-9.5,4.6c-4.4,0-7.8-1.7-10.5-5.1C844.7,319.1,843.4,314.3,843.4,308.2z M853.2,308.9c0,3.5,0.6,6.1,1.8,8
					c1.2,1.9,3,2.8,5.3,2.8c3.1,0,5.2-1.3,6.5-3.9v-14.7c-1.2-2.6-3.4-3.9-6.4-3.9C855.6,297.2,853.2,301.1,853.2,308.9z"/>
				<path d="M901.4,327.6c-5.4,0-9.8-1.7-13.2-5c-3.4-3.3-5.1-7.8-5.1-13.3v-1c0-3.7,0.7-7,2.2-10c1.4-2.9,3.5-5.2,6.1-6.8
					c2.6-1.6,5.6-2.4,9-2.4c5.1,0,9,1.6,11.9,4.8c2.9,3.2,4.4,7.7,4.4,13.6v4H893c0.3,2.4,1.3,4.4,2.9,5.8c1.6,1.5,3.6,2.2,6.1,2.2
					c3.8,0,6.8-1.4,8.9-4.1l4.9,5.4c-1.5,2.1-3.5,3.7-6,4.9C907.2,327,904.4,327.6,901.4,327.6z M900.2,297.2c-2,0-3.5,0.7-4.8,2
					c-1.2,1.3-2,3.2-2.3,5.7h13.7v-0.8c0-2.2-0.6-3.9-1.8-5.1C904,297.8,902.3,297.2,900.2,297.2z"/>
				<path d="M950,326.9h-9.9v-52.5h9.9V326.9z"/>
				<path d="M961,292.5l-4.6-2.7c2-3.1,3-6.3,3-9.5v-5.8h7.9v5.3c0,2.1-0.6,4.3-1.7,6.7C964.4,288.8,962.9,290.8,961,292.5z"/>
				<path d="M1004.8,305.3h-19.7v13.4h23.1v8.2h-33.4v-49.8h33.3v8.3h-23v11.9h19.7V305.3z M994.1,263.8h10.8l-9.5,10.6h-8
					L994.1,263.8z"/>
				<path d="M1025.4,280.9v9.1h6.3v7.2h-6.3v18.5c0,1.4,0.3,2.3,0.8,2.9c0.5,0.6,1.5,0.9,3,0.9c1.1,0,2.1-0.1,2.9-0.2v7.5
					c-1.9,0.6-3.9,0.9-6,0.9c-6.9,0-10.5-3.5-10.6-10.5v-19.9h-5.4V290h5.4v-9.1H1025.4z"/>
				<path d="M1058.7,326.9c-0.5-0.9-0.8-2-1-3.3c-2.4,2.7-5.5,4-9.3,4c-3.6,0-6.6-1-9-3.1c-2.4-2.1-3.6-4.7-3.6-7.9
					c0-3.9,1.5-6.9,4.4-9c2.9-2.1,7.1-3.2,12.6-3.2h4.5v-2.1c0-1.7-0.4-3.1-1.3-4.1c-0.9-1-2.3-1.5-4.2-1.5c-1.7,0-3,0.4-3.9,1.2
					c-0.9,0.8-1.4,1.9-1.4,3.3h-9.9c0-2.1,0.7-4.1,2-5.9c1.3-1.8,3.2-3.3,5.6-4.3c2.4-1,5.1-1.6,8.1-1.6c4.6,0,8.2,1.1,10.9,3.4
					c2.7,2.3,4,5.5,4,9.7v16c0,3.5,0.5,6.2,1.5,8v0.6H1058.7z M1050.5,320.1c1.5,0,2.8-0.3,4-1c1.2-0.7,2.1-1.5,2.7-2.6v-6.4h-3.7
					c-4.9,0-7.6,1.7-7.9,5.1l0,0.6c0,1.2,0.4,2.2,1.3,3C1047.8,319.7,1049,320.1,1050.5,320.1z"/>
				<path d="M1086.6,280.9v9.1h6.3v7.2h-6.3v18.5c0,1.4,0.3,2.3,0.8,2.9c0.5,0.6,1.5,0.9,3,0.9c1.1,0,2.1-0.1,2.9-0.2v7.5
					c-1.9,0.6-3.9,0.9-6,0.9c-6.9,0-10.5-3.5-10.6-10.5v-19.9h-5.4V290h5.4v-9.1H1086.6z"/>
				<path d="M239.1,411.6c-3.1,0-6-0.8-8.5-2.3s-4.5-3.7-5.9-6.5c-1.4-2.8-2.1-5.9-2.1-9.3V392c0-3.6,0.7-6.8,2.1-9.6
					c1.4-2.8,3.3-5.1,5.8-6.7s5.1-2.4,8-2.4c4.5,0,8,1.5,10.7,4.6c2.6,3.1,3.9,7.3,3.9,12.6v2.3h-26.4v0.8c0,4.2,1.2,7.7,3.6,10.5
					c2.4,2.8,5.4,4.2,9.1,4.2c2.2,0,4.1-0.4,5.8-1.2c1.7-0.8,3.2-2.1,4.6-3.8l2.6,1.9C249.1,409.5,244.8,411.6,239.1,411.6z
					 M238.3,376.8c-3.1,0-5.7,1.1-7.8,3.4s-3.4,5.3-3.8,9.1h22.2v-0.4c-0.1-3.6-1.1-6.4-3-8.7S241.4,376.8,238.3,376.8z"/>
				<path d="M267.3,364.5v9.5h7.7v3.3h-7.7V402c0,2.1,0.4,3.6,1.1,4.6c0.7,1,2,1.5,3.7,1.5c0.7,0,1.8-0.1,3.3-0.3l0.2,3.3
					c-1.1,0.4-2.5,0.6-4.4,0.6c-2.8,0-4.8-0.8-6.1-2.4c-1.3-1.6-1.9-4-1.9-7.2v-24.7h-6.8V374h6.8v-9.5H267.3z"/>
				<path d="M314.7,411.6c-3.1,0-6-0.8-8.5-2.3s-4.5-3.7-5.9-6.5c-1.4-2.8-2.1-5.9-2.1-9.3V392c0-3.6,0.7-6.8,2.1-9.6
					c1.4-2.8,3.3-5.1,5.8-6.7s5.1-2.4,8-2.4c4.5,0,8,1.5,10.7,4.6c2.6,3.1,3.9,7.3,3.9,12.6v2.3h-26.4v0.8c0,4.2,1.2,7.7,3.6,10.5
					c2.4,2.8,5.4,4.2,9.1,4.2c2.2,0,4.1-0.4,5.8-1.2c1.7-0.8,3.2-2.1,4.6-3.8l2.6,1.9C324.8,409.5,320.5,411.6,314.7,411.6z
					 M314,376.8c-3.1,0-5.7,1.1-7.8,3.4s-3.4,5.3-3.8,9.1h22.2v-0.4c-0.1-3.6-1.1-6.4-3-8.7S317.1,376.8,314,376.8z"/>
				<path d="M340.3,374l0.1,6c1.4-2.2,3.1-3.9,5.1-5c2.1-1.1,4.3-1.7,6.8-1.7c5.8,0,9.5,2.4,11.1,7.2c1.3-2.3,3.1-4.1,5.3-5.3
					c2.2-1.2,4.6-1.9,7.3-1.9c7.9,0,12,4.3,12.1,13v24.7h-4.1v-24.4c0-3.3-0.7-5.8-2.1-7.3c-1.4-1.6-3.7-2.4-6.9-2.4
					c-2.9,0-5.4,1-7.5,2.9c-2,1.9-3.2,4.1-3.4,6.8v24.5h-4.1v-24.7c0-3.2-0.8-5.5-2.2-7.1c-1.5-1.6-3.7-2.3-6.8-2.3
					c-2.6,0-4.8,0.7-6.6,2.2c-1.8,1.5-3.2,3.7-4.1,6.5v25.4h-4.1v-37H340.3z"/>
				<path d="M428.4,392.8c0,5.8-1.3,10.3-3.8,13.7c-2.6,3.4-6,5.1-10.3,5.1c-5.1,0-8.9-1.8-11.6-5.3v18.9h-4.1V374h3.8l0.2,5.2
					c2.7-3.9,6.5-5.9,11.6-5.9c4.4,0,7.9,1.7,10.4,5s3.8,8,3.8,13.9V392.8z M424.3,392.1c0-4.7-1-8.4-2.9-11.2
					c-1.9-2.7-4.6-4.1-8.1-4.1c-2.5,0-4.7,0.6-6.5,1.8c-1.8,1.2-3.2,3-4.1,5.3v17.7c1,2.1,2.4,3.7,4.2,4.9c1.8,1.1,4,1.7,6.5,1.7
					c3.4,0,6.1-1.4,8-4.1S424.3,397.3,424.3,392.1z"/>
				<path d="M454.5,377.5c-0.9-0.2-1.8-0.2-2.8-0.2c-2.6,0-4.7,0.7-6.5,2.1s-3,3.5-3.8,6.2v25.4h-4.1v-37h4l0.1,5.9
					c2.2-4.4,5.6-6.6,10.4-6.6c1.1,0,2,0.1,2.7,0.4L454.5,377.5z"/>
				<path d="M484.7,406.3c-2.5,3.6-6.4,5.4-11.8,5.4c-3.9,0-6.9-1.1-9-3.4c-2.1-2.3-3.1-5.7-3.1-10.2V374h4.1v23.5
					c0,7,2.8,10.6,8.5,10.6c5.9,0,9.7-2.4,11.2-7.3V374h4.1v37h-4L484.7,406.3z"/>
				<path d="M503.3,374l0.1,6.3c1.4-2.3,3.1-4,5.2-5.2c2.1-1.2,4.4-1.8,6.9-1.8c4,0,6.9,1.1,8.9,3.3c1.9,2.2,2.9,5.6,2.9,10v24.3
					h-4.1v-24.3c0-3.3-0.7-5.8-2.1-7.4c-1.4-1.6-3.6-2.4-6.6-2.4c-2.5,0-4.8,0.8-6.7,2.4c-1.9,1.6-3.4,3.7-4.3,6.4v25.3h-4.1v-37
					H503.3z"/>
				<path d="M544.2,364.5v9.5h7.7v3.3h-7.7V402c0,2.1,0.4,3.6,1.1,4.6c0.7,1,2,1.5,3.7,1.5c0.7,0,1.8-0.1,3.3-0.3l0.2,3.3
					c-1.1,0.4-2.5,0.6-4.4,0.6c-2.8,0-4.8-0.8-6.1-2.4c-1.3-1.6-1.9-4-1.9-7.2v-24.7h-6.8V374h6.8v-9.5H544.2z"/>
				<path d="M574.7,411.6c-3.1,0-6-0.8-8.5-2.3s-4.5-3.7-5.9-6.5c-1.4-2.8-2.1-5.9-2.1-9.3V392c0-3.6,0.7-6.8,2.1-9.6
					c1.4-2.8,3.3-5.1,5.8-6.7s5.1-2.4,8-2.4c4.5,0,8,1.5,10.7,4.6c2.6,3.1,3.9,7.3,3.9,12.6v2.3h-26.4v0.8c0,4.2,1.2,7.7,3.6,10.5
					c2.4,2.8,5.4,4.2,9.1,4.2c2.2,0,4.1-0.4,5.8-1.2c1.7-0.8,3.2-2.1,4.6-3.8l2.6,1.9C584.8,409.5,580.4,411.6,574.7,411.6z
					 M573.9,376.8c-3.1,0-5.7,1.1-7.8,3.4s-3.4,5.3-3.8,9.1h22.2v-0.4c-0.1-3.6-1.1-6.4-3-8.7S577,376.8,573.9,376.8z"/>
				<path d="M643.3,392.8c0,5.8-1.3,10.3-3.8,13.7c-2.6,3.4-6,5.1-10.3,5.1c-5.1,0-8.9-1.8-11.6-5.3v18.9h-4.1V374h3.8l0.2,5.2
					c2.7-3.9,6.5-5.9,11.6-5.9c4.4,0,7.9,1.7,10.4,5s3.8,8,3.8,13.9V392.8z M639.2,392.1c0-4.7-1-8.4-2.9-11.2
					c-1.9-2.7-4.6-4.1-8.1-4.1c-2.5,0-4.7,0.6-6.5,1.8c-1.8,1.2-3.2,3-4.1,5.3v17.7c1,2.1,2.4,3.7,4.2,4.9c1.8,1.1,4,1.7,6.5,1.7
					c3.4,0,6.1-1.4,8-4.1S639.2,397.3,639.2,392.1z"/>
				<path d="M650.1,391.9c0-3.6,0.7-6.8,2.1-9.6c1.4-2.8,3.3-5.1,5.8-6.6s5.4-2.4,8.6-2.4c4.9,0,8.9,1.7,12,5.2
					c3.1,3.5,4.6,8,4.6,13.7v0.9c0,3.6-0.7,6.8-2.1,9.7s-3.3,5.1-5.8,6.6c-2.5,1.5-5.4,2.3-8.6,2.3c-4.9,0-8.9-1.7-11.9-5.2
					c-3.1-3.5-4.6-8-4.6-13.7V391.9z M654.2,393c0,4.4,1.1,8,3.4,10.9c2.3,2.8,5.3,4.3,9,4.3c3.7,0,6.7-1.4,9-4.3
					c2.3-2.8,3.4-6.6,3.4-11.2v-0.8c0-2.8-0.5-5.4-1.6-7.8c-1-2.3-2.5-4.2-4.4-5.5c-1.9-1.3-4.1-1.9-6.5-1.9c-3.6,0-6.6,1.4-8.9,4.3
					c-2.3,2.9-3.5,6.6-3.5,11.2V393z"/>
				<path d="M715.3,406.3c-2.5,3.6-6.4,5.4-11.8,5.4c-3.9,0-6.9-1.1-9-3.4c-2.1-2.3-3.1-5.7-3.1-10.2V374h4.1v23.5
					c0,7,2.8,10.6,8.5,10.6c5.9,0,9.7-2.4,11.2-7.3V374h4.1v37h-4L715.3,406.3z"/>
				<path d="M747.1,377.5c-0.9-0.2-1.8-0.2-2.8-0.2c-2.6,0-4.7,0.7-6.5,2.1s-3,3.5-3.8,6.2v25.4H730v-37h4l0.1,5.9
					c2.2-4.4,5.6-6.6,10.4-6.6c1.1,0,2,0.1,2.7,0.4L747.1,377.5z"/>
				<path d="M792.7,401.5c0-2-0.8-3.7-2.4-4.9c-1.6-1.2-4.1-2.2-7.4-2.9s-5.8-1.5-7.6-2.4c-1.8-0.9-3.2-2-4-3.3s-1.3-2.9-1.3-4.7
					c0-2.9,1.2-5.3,3.7-7.2c2.4-1.9,5.6-2.9,9.4-2.9c4.1,0,7.4,1,9.9,3.1c2.5,2,3.7,4.7,3.7,8h-4.1c0-2.2-0.9-4-2.7-5.4
					c-1.8-1.4-4.1-2.2-6.9-2.2c-2.7,0-4.8,0.6-6.5,1.8c-1.6,1.2-2.4,2.8-2.4,4.7c0,1.8,0.7,3.3,2,4.3c1.4,1,3.8,1.9,7.4,2.8
					c3.6,0.8,6.3,1.7,8.1,2.7s3.1,2.1,4,3.5c0.9,1.3,1.3,3,1.3,4.9c0,3.1-1.3,5.6-3.8,7.5s-5.8,2.8-9.9,2.8c-4.3,0-7.8-1-10.5-3.1
					c-2.7-2.1-4-4.7-4-7.9h4.1c0.2,2.4,1.2,4.3,3,5.6c1.9,1.3,4.3,2,7.4,2c2.8,0,5.1-0.6,6.9-1.9C791.8,405,792.7,403.5,792.7,401.5
					z"/>
				<path d="M820.3,411.6c-3.1,0-6-0.8-8.5-2.3s-4.5-3.7-5.9-6.5c-1.4-2.8-2.1-5.9-2.1-9.3V392c0-3.6,0.7-6.8,2.1-9.6
					c1.4-2.8,3.3-5.1,5.8-6.7s5.1-2.4,8-2.4c4.5,0,8,1.5,10.7,4.6c2.6,3.1,3.9,7.3,3.9,12.6v2.3h-26.4v0.8c0,4.2,1.2,7.7,3.6,10.5
					c2.4,2.8,5.4,4.2,9.1,4.2c2.2,0,4.1-0.4,5.8-1.2c1.7-0.8,3.2-2.1,4.6-3.8l2.6,1.9C830.4,409.5,826,411.6,820.3,411.6z
					 M819.6,376.8c-3.1,0-5.7,1.1-7.8,3.4s-3.4,5.3-3.8,9.1h22.2v-0.4c-0.1-3.6-1.1-6.4-3-8.7S822.7,376.8,819.6,376.8z"/>
				<path d="M862.1,410.9v-33.6H856V374h6.1v-4.5c0-3.8,1-6.7,2.9-8.7c1.9-2,4.6-3,8-3c1.5,0,3,0.2,4.3,0.6l-0.3,3.4
					c-1.1-0.3-2.4-0.4-3.7-0.4c-2.3,0-4,0.7-5.3,2.1c-1.3,1.4-1.9,3.4-1.9,6v4.6h8.8v3.3h-8.8v33.6H862.1z"/>
				<path d="M882.1,363.3c0-0.8,0.2-1.4,0.8-2c0.5-0.5,1.2-0.8,2.1-0.8c0.9,0,1.6,0.3,2.1,0.8c0.5,0.5,0.8,1.2,0.8,2
					s-0.3,1.4-0.8,1.9c-0.5,0.5-1.2,0.8-2.1,0.8c-0.9,0-1.5-0.3-2.1-0.8C882.4,364.7,882.1,364.1,882.1,363.3z M886.9,410.9h-4.1
					v-37h4.1V410.9z"/>
				<path d="M901.9,374l0.1,6.3c1.4-2.3,3.1-4,5.2-5.2c2.1-1.2,4.4-1.8,6.9-1.8c4,0,6.9,1.1,8.9,3.3c1.9,2.2,2.9,5.6,2.9,10v24.3
					h-4.1v-24.3c0-3.3-0.7-5.8-2.1-7.4c-1.4-1.6-3.6-2.4-6.6-2.4c-2.5,0-4.8,0.8-6.7,2.4c-1.9,1.6-3.4,3.7-4.3,6.4v25.3H898v-37
					H901.9z"/>
				<path d="M959.8,410.9c-0.4-1.2-0.7-2.9-0.8-5.2c-1.4,1.9-3.3,3.3-5.5,4.3c-2.2,1-4.6,1.5-7.1,1.5c-3.6,0-6.4-1-8.6-3
					c-2.2-2-3.3-4.5-3.3-7.5c0-3.6,1.5-6.4,4.5-8.5c3-2.1,7.2-3.1,12.5-3.1h7.4v-4.2c0-2.6-0.8-4.7-2.4-6.2s-4-2.3-7.1-2.3
					c-2.8,0-5.2,0.7-7.1,2.2c-1.9,1.5-2.8,3.2-2.8,5.3l-4.1,0c0-2.9,1.4-5.5,4.1-7.6c2.7-2.2,6.1-3.2,10.1-3.2c4.1,0,7.4,1,9.8,3.1
					c2.4,2.1,3.6,4.9,3.7,8.6v17.5c0,3.6,0.4,6.3,1.1,8v0.4H959.8z M947,408c2.7,0,5.2-0.7,7.3-2c2.2-1.3,3.7-3.1,4.7-5.3v-8.1h-7.3
					c-4.1,0-7.3,0.8-9.6,2.2c-2.3,1.4-3.5,3.4-3.5,6c0,2.1,0.8,3.8,2.3,5.2C942.5,407.3,944.5,408,947,408z"/>
				<path d="M977.9,374l0.1,6.3c1.4-2.3,3.1-4,5.2-5.2c2.1-1.2,4.4-1.8,6.9-1.8c4,0,6.9,1.1,8.9,3.3c1.9,2.2,2.9,5.6,2.9,10v24.3
					h-4.1v-24.3c0-3.3-0.7-5.8-2.1-7.4c-1.4-1.6-3.6-2.4-6.6-2.4c-2.5,0-4.8,0.8-6.7,2.4c-1.9,1.6-3.4,3.7-4.3,6.4v25.3H974v-37
					H977.9z"/>
				<path d="M1026.1,408.2c2.8,0,5.2-0.8,7.2-2.4c1.9-1.6,3-3.7,3.1-6.2h3.9c-0.1,2.3-0.8,4.3-2.1,6.2s-3,3.3-5.2,4.4
					c-2.2,1-4.5,1.6-6.9,1.6c-4.9,0-8.7-1.7-11.5-5.1c-2.8-3.4-4.3-7.9-4.3-13.6v-1.2c0-3.6,0.6-6.9,1.9-9.7c1.3-2.8,3.1-5,5.5-6.5
					c2.4-1.5,5.2-2.3,8.4-2.3c4.1,0,7.4,1.2,10,3.6c2.6,2.4,4,5.6,4.2,9.5h-3.9c-0.2-2.9-1.2-5.2-3.1-7s-4.3-2.7-7.2-2.7
					c-3.7,0-6.6,1.3-8.6,4s-3.1,6.4-3.1,11.2v1.2c0,4.7,1,8.4,3.1,11C1019.5,406.9,1022.4,408.2,1026.1,408.2z"/>
				<path d="M1062.8,411.6c-3.1,0-6-0.8-8.5-2.3s-4.5-3.7-5.9-6.5c-1.4-2.8-2.1-5.9-2.1-9.3V392c0-3.6,0.7-6.8,2.1-9.6
					c1.4-2.8,3.3-5.1,5.8-6.7s5.1-2.4,8-2.4c4.5,0,8,1.5,10.7,4.6c2.6,3.1,3.9,7.3,3.9,12.6v2.3h-26.4v0.8c0,4.2,1.2,7.7,3.6,10.5
					c2.4,2.8,5.4,4.2,9.1,4.2c2.2,0,4.1-0.4,5.8-1.2c1.7-0.8,3.2-2.1,4.6-3.8l2.6,1.9C1072.9,409.5,1068.5,411.6,1062.8,411.6z
					 M1062.1,376.8c-3.1,0-5.7,1.1-7.8,3.4s-3.4,5.3-3.8,9.1h22.2v-0.4c-0.1-3.6-1.1-6.4-3-8.7S1065.2,376.8,1062.1,376.8z"/>
				<path d="M1101.8,377.5c-0.9-0.2-1.8-0.2-2.8-0.2c-2.6,0-4.7,0.7-6.5,2.1s-3,3.5-3.8,6.2v25.4h-4.1v-37h4l0.1,5.9
					c2.2-4.4,5.6-6.6,10.4-6.6c1.1,0,2,0.1,2.7,0.4L1101.8,377.5z"/>
				<path d="M1103.6,408.5c0-0.8,0.3-1.5,0.8-2c0.5-0.6,1.2-0.8,2.1-0.8c0.9,0,1.6,0.3,2.2,0.8c0.5,0.6,0.8,1.2,0.8,2
					s-0.3,1.5-0.8,2c-0.5,0.5-1.2,0.8-2.2,0.8c-0.9,0-1.6-0.3-2.1-0.8C1103.9,409.9,1103.6,409.3,1103.6,408.5z"/>
			</g>
		</g>
	</g>
</g>
</svg>
