<?xml version="1.0" encoding="utf-8"?>
<!-- Generator: Adobe Illustrator 21.0.0, SVG Export Plug-In . SVG Version: 6.00 Build 0)  -->
<svg version="1.1" xmlns="http://www.w3.org/2000/svg" xmlns:xlink="http://www.w3.org/1999/xlink" x="0px" y="0px"
	 viewBox="0 0 1197.2 516" style="enable-background:new 0 0 1197.2 516;" xml:space="preserve">
<style type="text/css">
	.st0{fill:#0E97E7;}
	.st1{fill:#FFFFFF;}
	.st2{fill:none;stroke:#FFFFFF;stroke-width:18;stroke-miterlimit:10;}
	.st3{fill:none;stroke:#FFFFFF;stroke-width:5;stroke-miterlimit:10;}
	.st4{opacity:0.5;fill:none;stroke:#000000;stroke-width:1.5;stroke-miterlimit:10;}
	.st5{fill:none;stroke:#000000;stroke-width:8;stroke-miterlimit:10;}
	.st6{fill:#4F4F4F;}
	.st7{fill:none;stroke:#FFFFFF;stroke-width:16;stroke-miterlimit:10;}
	.st8{fill:none;stroke:#DF0920;stroke-width:18;stroke-miterlimit:10;}
	.st9{fill:none;stroke:#3E4098;stroke-width:18;stroke-miterlimit:10;}
	.st10{fill:#3E4098;}
	.st11{fill:none;stroke:#59C24F;stroke-width:18;stroke-miterlimit:10;}
	.st12{fill:none;}
</style>
<g id="Home_x5F_Claire_x5F_Juglair_x5F_St_x5F_Nazaire_xA0_Image_1_">
</g>
<g id="Calque_3">
</g>
<g id="bulles">
	<g>
		<path class="st1" d="M1200.9,482.1c0,18.8-15.2,34-34,34h-1018c-18.8,0-34-15.2-34-34v-448c0-18.8,15.2-34,34-34h1018
			c18.8,0,34,15.2,34,34V482.1z"/>
		<polygon class="st1" points="125.9,76.1 -1.6,76.1 114.9,172.1 		"/>
		<g>
			<g>
				<path d="M235.4,195.6H260v3.6h-28.8v-49.8h4.2V195.6z"/>
				<path d="M281.4,199.8c-3.1,0-6-0.8-8.5-2.3c-2.5-1.5-4.5-3.7-5.9-6.5c-1.4-2.8-2.1-5.9-2.1-9.3v-1.5c0-3.6,0.7-6.8,2.1-9.6
					c1.4-2.8,3.3-5.1,5.8-6.7c2.5-1.6,5.1-2.4,8-2.4c4.5,0,8,1.5,10.7,4.6c2.6,3.1,3.9,7.3,3.9,12.6v2.3h-26.4v0.8
					c0,4.2,1.2,7.7,3.6,10.5c2.4,2.8,5.4,4.2,9.1,4.2c2.2,0,4.1-0.4,5.8-1.2c1.7-0.8,3.2-2.1,4.6-3.8l2.6,1.9
					C291.5,197.6,287.1,199.8,281.4,199.8z M280.6,164.9c-3.1,0-5.7,1.1-7.8,3.4s-3.4,5.3-3.8,9.1h22.2V177c-0.1-3.6-1.1-6.4-3-8.7
					C286.3,166,283.7,164.9,280.6,164.9z"/>
				<path d="M318.6,180.3c0-5.7,1.3-10.3,3.8-13.7c2.6-3.4,6-5.1,10.4-5.1c5,0,8.8,2,11.4,5.9v-20.7h4.1v52.5h-3.8l-0.2-4.9
					c-2.6,3.7-6.5,5.6-11.6,5.6c-4.3,0-7.7-1.7-10.3-5.1c-2.6-3.4-3.9-8.1-3.9-13.9V180.3z M322.8,181c0,4.7,0.9,8.4,2.8,11.2
					c1.9,2.7,4.6,4.1,8,4.1c5,0,8.6-2.2,10.7-6.7v-17.4c-2.1-4.8-5.7-7.2-10.7-7.2c-3.4,0-6.1,1.3-8,4.1
					C323.7,171.8,322.8,175.7,322.8,181z"/>
				<path d="M373.5,199.8c-3.1,0-6-0.8-8.5-2.3c-2.5-1.5-4.5-3.7-5.9-6.5c-1.4-2.8-2.1-5.9-2.1-9.3v-1.5c0-3.6,0.7-6.8,2.1-9.6
					c1.4-2.8,3.3-5.1,5.8-6.7c2.5-1.6,5.1-2.4,8-2.4c4.5,0,8,1.5,10.7,4.6c2.6,3.1,3.9,7.3,3.9,12.6v2.3H361v0.8
					c0,4.2,1.2,7.7,3.6,10.5c2.4,2.8,5.4,4.2,9.1,4.2c2.2,0,4.1-0.4,5.8-1.2c1.7-0.8,3.2-2.1,4.6-3.8l2.6,1.9
					C383.6,197.6,379.2,199.8,373.5,199.8z M372.7,164.9c-3.1,0-5.7,1.1-7.8,3.4s-3.4,5.3-3.8,9.1h22.2V177c-0.1-3.6-1.1-6.4-3-8.7
					C378.3,166,375.8,164.9,372.7,164.9z M377.3,147h5l-7.9,9.5l-3.6,0L377.3,147z"/>
				<path d="M425.1,181c0,5.8-1.3,10.3-3.8,13.7c-2.6,3.4-6,5.1-10.3,5.1c-5.1,0-8.9-1.8-11.6-5.3v18.9h-4.1v-51.2h3.8l0.2,5.2
					c2.7-3.9,6.5-5.9,11.6-5.9c4.4,0,7.9,1.7,10.4,5s3.8,8,3.8,13.9V181z M421,180.3c0-4.7-1-8.4-2.9-11.2c-1.9-2.7-4.6-4.1-8.1-4.1
					c-2.5,0-4.7,0.6-6.5,1.8c-1.8,1.2-3.2,3-4.1,5.3v17.7c1,2.1,2.4,3.7,4.2,4.9c1.8,1.1,4,1.7,6.5,1.7c3.4,0,6.1-1.4,8-4.1
					S421,185.5,421,180.3z"/>
				<path d="M457.5,199.1c-0.4-1.2-0.7-2.9-0.8-5.2c-1.4,1.9-3.3,3.3-5.5,4.3c-2.2,1-4.6,1.5-7.1,1.5c-3.6,0-6.4-1-8.6-3
					c-2.2-2-3.3-4.5-3.3-7.5c0-3.6,1.5-6.4,4.5-8.5c3-2.1,7.2-3.1,12.5-3.1h7.4v-4.2c0-2.6-0.8-4.7-2.4-6.2c-1.6-1.5-4-2.3-7.1-2.3
					c-2.8,0-5.2,0.7-7.1,2.2c-1.9,1.5-2.8,3.2-2.8,5.3l-4.1,0c0-2.9,1.4-5.5,4.1-7.6c2.7-2.2,6.1-3.2,10.1-3.2c4.1,0,7.4,1,9.8,3.1
					c2.4,2.1,3.6,4.9,3.7,8.6v17.5c0,3.6,0.4,6.3,1.1,8v0.4H457.5z M444.6,196.2c2.7,0,5.2-0.7,7.3-2c2.2-1.3,3.7-3.1,4.7-5.3v-8.1
					h-7.3c-4.1,0-7.3,0.8-9.6,2.2c-2.3,1.4-3.5,3.4-3.5,6c0,2.1,0.8,3.8,2.3,5.2C440.1,195.5,442.1,196.2,444.6,196.2z"/>
				<path d="M488.7,165.6c-0.9-0.2-1.8-0.2-2.8-0.2c-2.6,0-4.7,0.7-6.5,2.1c-1.8,1.4-3,3.5-3.8,6.2v25.4h-4.1v-37h4l0.1,5.9
					c2.2-4.4,5.6-6.6,10.4-6.6c1.1,0,2,0.1,2.7,0.4L488.7,165.6z"/>
				<path d="M503.2,152.7v9.5h7.7v3.3h-7.7v24.7c0,2.1,0.4,3.6,1.1,4.6c0.7,1,2,1.5,3.7,1.5c0.7,0,1.8-0.1,3.3-0.3l0.2,3.3
					c-1.1,0.4-2.5,0.6-4.4,0.6c-2.8,0-4.8-0.8-6.1-2.4c-1.3-1.6-1.9-4-1.9-7.2v-24.7h-6.8v-3.3h6.8v-9.5H503.2z"/>
				<path d="M533.7,199.8c-3.1,0-6-0.8-8.5-2.3c-2.5-1.5-4.5-3.7-5.9-6.5c-1.4-2.8-2.1-5.9-2.1-9.3v-1.5c0-3.6,0.7-6.8,2.1-9.6
					c1.4-2.8,3.3-5.1,5.8-6.7c2.5-1.6,5.1-2.4,8-2.4c4.5,0,8,1.5,10.7,4.6c2.6,3.1,3.9,7.3,3.9,12.6v2.3h-26.4v0.8
					c0,4.2,1.2,7.7,3.6,10.5c2.4,2.8,5.4,4.2,9.1,4.2c2.2,0,4.1-0.4,5.8-1.2c1.7-0.8,3.2-2.1,4.6-3.8l2.6,1.9
					C543.8,197.6,539.4,199.8,533.7,199.8z M532.9,164.9c-3.1,0-5.7,1.1-7.8,3.4s-3.4,5.3-3.8,9.1h22.2V177c-0.1-3.6-1.1-6.4-3-8.7
					C538.5,166,536,164.9,532.9,164.9z"/>
				<path d="M559.2,162.1l0.1,6c1.4-2.2,3.1-3.9,5.1-5c2.1-1.1,4.3-1.7,6.8-1.7c5.8,0,9.5,2.4,11.1,7.2c1.3-2.3,3.1-4.1,5.3-5.3
					c2.2-1.2,4.6-1.9,7.3-1.9c7.9,0,12,4.3,12.1,13v24.7h-4.1v-24.4c0-3.3-0.7-5.8-2.1-7.3c-1.4-1.6-3.7-2.4-6.9-2.4
					c-2.9,0-5.4,1-7.5,2.9c-2,1.9-3.2,4.1-3.4,6.8v24.5h-4.1v-24.7c0-3.2-0.8-5.5-2.2-7.1c-1.5-1.6-3.7-2.3-6.8-2.3
					c-2.6,0-4.8,0.7-6.6,2.2c-1.8,1.5-3.2,3.7-4.1,6.5v25.4h-4.1v-37H559.2z"/>
				<path d="M631.9,199.8c-3.1,0-6-0.8-8.5-2.3c-2.5-1.5-4.5-3.7-5.9-6.5c-1.4-2.8-2.1-5.9-2.1-9.3v-1.5c0-3.6,0.7-6.8,2.1-9.6
					c1.4-2.8,3.3-5.1,5.8-6.7c2.5-1.6,5.1-2.4,8-2.4c4.5,0,8,1.5,10.7,4.6c2.6,3.1,3.9,7.3,3.9,12.6v2.3h-26.4v0.8
					c0,4.2,1.2,7.7,3.6,10.5c2.4,2.8,5.4,4.2,9.1,4.2c2.2,0,4.1-0.4,5.8-1.2c1.7-0.8,3.2-2.1,4.6-3.8l2.6,1.9
					C642,197.6,637.6,199.8,631.9,199.8z M631.1,164.9c-3.1,0-5.7,1.1-7.8,3.4s-3.4,5.3-3.8,9.1h22.2V177c-0.1-3.6-1.1-6.4-3-8.7
					C636.7,166,634.2,164.9,631.1,164.9z"/>
				<path d="M657.6,162.1l0.1,6.3c1.4-2.3,3.1-4,5.2-5.2c2.1-1.2,4.4-1.8,6.9-1.8c4,0,6.9,1.1,8.9,3.3c1.9,2.2,2.9,5.6,2.9,10v24.3
					h-4.1v-24.3c0-3.3-0.7-5.8-2.1-7.4c-1.4-1.6-3.6-2.4-6.6-2.4c-2.5,0-4.8,0.8-6.7,2.4c-1.9,1.6-3.4,3.7-4.3,6.4v25.3h-4.1v-37
					H657.6z"/>
				<path d="M698.5,152.7v9.5h7.7v3.3h-7.7v24.7c0,2.1,0.4,3.6,1.1,4.6c0.7,1,2,1.5,3.7,1.5c0.7,0,1.8-0.1,3.3-0.3l0.2,3.3
					c-1.1,0.4-2.5,0.6-4.4,0.6c-2.8,0-4.8-0.8-6.1-2.4c-1.3-1.6-1.9-4-1.9-7.2v-24.7h-6.8v-3.3h6.8v-9.5H698.5z"/>
				<path d="M739.8,169.9h5.3c2.5,0,4.4-0.6,5.6-1.9c1.2-1.3,1.8-2.9,1.8-5c0-2-0.6-3.6-1.8-4.7c-1.2-1.1-2.8-1.7-4.9-1.7
					c-1.9,0-3.5,0.5-4.8,1.6c-1.3,1-1.9,2.4-1.9,4h-9.9c0-2.6,0.7-4.9,2.1-7c1.4-2.1,3.4-3.7,5.9-4.8s5.3-1.7,8.3-1.7
					c5.3,0,9.4,1.3,12.4,3.8c3,2.5,4.5,6,4.5,10.4c0,2.3-0.7,4.4-2.1,6.3c-1.4,1.9-3.2,3.4-5.5,4.4c2.8,1,4.9,2.5,6.3,4.5
					c1.4,2,2.1,4.4,2.1,7.1c0,4.4-1.6,8-4.8,10.6s-7.5,4-12.8,4c-5,0-9-1.3-12.2-3.9c-3.2-2.6-4.7-6.1-4.7-10.4h9.9
					c0,1.9,0.7,3.4,2.1,4.6c1.4,1.2,3.1,1.8,5.2,1.8c2.3,0,4.2-0.6,5.5-1.9c1.3-1.2,2-2.9,2-4.9c0-5-2.7-7.5-8.2-7.5h-5.2V169.9z"/>
				<path d="M793.9,199.1H784V161l-11.8,3.6v-8l20.6-7.4h1.1V199.1z"/>
				<path d="M813,211.6l-5.2-2.7l1.2-2.2c1.5-2.8,2.3-5.5,2.4-8.3v-7.7h8.3l0,6.8c0,2.5-0.7,5.1-1.9,7.7
					C816.6,207.8,815,209.9,813,211.6z"/>
				<path d="M853.9,148.8v8.1h-1c-4.5,0.1-8.1,1.2-10.8,3.5s-4.4,5.4-4.9,9.4c2.6-2.7,6-4,10-4c4.3,0,7.8,1.5,10.3,4.6
					c2.6,3.1,3.8,7.2,3.8,12.2c0,3.2-0.7,6.2-2.1,8.8c-1.4,2.6-3.4,4.7-5.9,6.1c-2.6,1.5-5.5,2.2-8.7,2.2c-5.2,0-9.5-1.8-12.7-5.5
					c-3.2-3.6-4.8-8.5-4.8-14.6v-3.6c0-5.4,1-10.2,3.1-14.3c2-4.1,5-7.3,8.8-9.6c3.8-2.3,8.2-3.4,13.3-3.4H853.9z M844.3,173.8
					c-1.6,0-3,0.4-4.3,1.2s-2.3,1.9-2.9,3.3v3c0,3.3,0.6,5.9,1.9,7.7s3.1,2.8,5.5,2.8c2.1,0,3.8-0.8,5.1-2.5c1.3-1.7,2-3.8,2-6.5
					c0-2.7-0.7-4.9-2-6.5C848.3,174.6,846.5,173.8,844.3,173.8z"/>
				<path d="M867.2,158.9c0-3.1,1-5.5,3-7.4s4.6-2.9,7.8-2.9c3.3,0,5.9,0.9,7.9,2.8c2,1.9,3,4.4,3,7.6v2.5c0,3.1-1,5.5-3,7.4
					c-2,1.9-4.6,2.8-7.8,2.8c-3.2,0-5.9-0.9-7.8-2.8c-2-1.9-3-4.4-3-7.6V158.9z M873.7,161.6c0,1.4,0.4,2.5,1.2,3.3
					c0.8,0.8,1.8,1.3,3.1,1.3c1.3,0,2.3-0.4,3-1.3c0.8-0.8,1.1-2,1.1-3.4v-2.5c0-1.4-0.4-2.5-1.1-3.3c-0.8-0.8-1.8-1.3-3.1-1.3
					c-1.3,0-2.3,0.4-3,1.3c-0.8,0.8-1.2,2-1.2,3.5V161.6z M880,195.4l-4.8-2.6l24.3-38.9l4.8,2.6L880,195.4z M891,186.9
					c0-3.1,1-5.6,3-7.4c2-1.9,4.6-2.8,7.8-2.8c3.2,0,5.8,0.9,7.8,2.8c2,1.9,3,4.4,3,7.7v2.5c0,3.1-1,5.5-2.9,7.4
					c-2,1.9-4.6,2.8-7.8,2.8c-3.3,0-5.9-0.9-7.9-2.8c-2-1.9-3-4.4-3-7.5V186.9z M897.5,189.6c0,1.3,0.4,2.3,1.2,3.2
					c0.8,0.9,1.8,1.3,3.1,1.3c2.8,0,4.2-1.5,4.2-4.6v-2.6c0-1.4-0.4-2.5-1.2-3.3c-0.8-0.8-1.8-1.3-3.1-1.3c-1.3,0-2.3,0.4-3.1,1.3
					c-0.8,0.8-1.2,2-1.2,3.4V189.6z"/>
				<path d="M235.4,279.6H260v3.6h-28.8v-49.8h4.2V279.6z"/>
				<path d="M254.8,245.5l-2.4-1.8c2.1-2.8,3.1-5.7,3.2-8.7v-4.5h4v3.5C259.6,238.8,258,242.7,254.8,245.5z"/>
				<path d="M267.8,235.4c0-0.8,0.2-1.4,0.8-2c0.5-0.5,1.2-0.8,2.1-0.8c0.9,0,1.6,0.3,2.1,0.8c0.5,0.5,0.8,1.2,0.8,2
					c0,0.8-0.3,1.4-0.8,1.9c-0.5,0.5-1.2,0.8-2.1,0.8c-0.9,0-1.5-0.3-2.1-0.8C268,236.9,267.8,236.2,267.8,235.4z M272.6,283.1h-4.1
					v-37h4.1V283.1z"/>
				<path d="M287.6,246.1l0.1,6.3c1.4-2.3,3.1-4,5.2-5.2c2.1-1.2,4.4-1.8,6.9-1.8c4,0,6.9,1.1,8.9,3.3c1.9,2.2,2.9,5.6,2.9,10v24.3
					h-4.1v-24.3c0-3.3-0.7-5.8-2.1-7.4c-1.4-1.6-3.6-2.4-6.6-2.4c-2.5,0-4.8,0.8-6.7,2.4c-1.9,1.6-3.4,3.7-4.3,6.4v25.3h-4.1v-37
					H287.6z"/>
				<path d="M328.5,236.7v9.5h7.7v3.3h-7.7v24.7c0,2.1,0.4,3.6,1.1,4.6c0.7,1,2,1.5,3.7,1.5c0.7,0,1.8-0.1,3.3-0.3l0.2,3.3
					c-1.1,0.4-2.5,0.6-4.4,0.6c-2.8,0-4.8-0.8-6.1-2.4c-1.3-1.6-1.9-4-1.9-7.2v-24.7h-6.8v-3.3h6.8v-9.5H328.5z"/>
				<path d="M359,283.8c-3.1,0-6-0.8-8.5-2.3c-2.5-1.5-4.5-3.7-5.9-6.5c-1.4-2.8-2.1-5.9-2.1-9.3v-1.5c0-3.6,0.7-6.8,2.1-9.6
					c1.4-2.8,3.3-5.1,5.8-6.7c2.5-1.6,5.1-2.4,8-2.4c4.5,0,8,1.5,10.7,4.6c2.6,3.1,3.9,7.3,3.9,12.6v2.3h-26.4v0.8
					c0,4.2,1.2,7.7,3.6,10.5c2.4,2.8,5.4,4.2,9.1,4.2c2.2,0,4.1-0.4,5.8-1.2c1.7-0.8,3.2-2.1,4.6-3.8l2.6,1.9
					C369.1,281.6,364.7,283.8,359,283.8z M358.2,248.9c-3.1,0-5.7,1.1-7.8,3.4s-3.4,5.3-3.8,9.1h22.2V261c-0.1-3.6-1.1-6.4-3-8.7
					C363.8,250,361.3,248.9,358.2,248.9z"/>
				<path d="M397.9,249.6c-0.9-0.2-1.8-0.2-2.8-0.2c-2.6,0-4.7,0.7-6.5,2.1c-1.8,1.4-3,3.5-3.8,6.2v25.4h-4.1v-37h4l0.1,5.9
					c2.2-4.4,5.6-6.6,10.4-6.6c1.1,0,2,0.1,2.7,0.4L397.9,249.6z"/>
				<path d="M417.4,280.3c2.8,0,5.2-0.8,7.2-2.4c1.9-1.6,3-3.7,3.1-6.2h3.9c-0.1,2.3-0.8,4.3-2.1,6.2s-3,3.3-5.2,4.4
					c-2.2,1-4.5,1.6-6.9,1.6c-4.9,0-8.7-1.7-11.5-5.1c-2.8-3.4-4.3-7.9-4.3-13.6v-1.2c0-3.6,0.6-6.9,1.9-9.7c1.3-2.8,3.1-5,5.5-6.5
					c2.4-1.5,5.2-2.3,8.4-2.3c4.1,0,7.4,1.2,10,3.6c2.6,2.4,4,5.6,4.2,9.5h-3.9c-0.2-2.9-1.2-5.2-3.1-7s-4.3-2.7-7.2-2.7
					c-3.7,0-6.6,1.3-8.6,4s-3.1,6.4-3.1,11.2v1.2c0,4.7,1,8.4,3.1,11C410.8,279,413.7,280.3,417.4,280.3z"/>
				<path d="M437.5,264.1c0-3.6,0.7-6.8,2.1-9.6c1.4-2.8,3.3-5.1,5.8-6.6c2.5-1.6,5.4-2.4,8.6-2.4c4.9,0,8.9,1.7,12,5.2
					c3.1,3.5,4.6,8,4.6,13.7v0.9c0,3.6-0.7,6.8-2.1,9.7s-3.3,5.1-5.8,6.6c-2.5,1.5-5.4,2.3-8.6,2.3c-4.9,0-8.9-1.7-11.9-5.2
					c-3.1-3.5-4.6-8-4.6-13.7V264.1z M441.6,265.2c0,4.4,1.1,8,3.4,10.9c2.3,2.8,5.3,4.3,9,4.3c3.7,0,6.7-1.4,9-4.3
					c2.3-2.8,3.4-6.6,3.4-11.2v-0.8c0-2.8-0.5-5.4-1.6-7.8c-1-2.3-2.5-4.2-4.4-5.5c-1.9-1.3-4.1-1.9-6.5-1.9c-3.6,0-6.6,1.4-8.9,4.3
					c-2.3,2.9-3.5,6.6-3.5,11.2V265.2z"/>
				<path d="M482.7,246.1l0.1,6c1.4-2.2,3.1-3.9,5.1-5c2.1-1.1,4.3-1.7,6.8-1.7c5.8,0,9.5,2.4,11.1,7.2c1.3-2.3,3.1-4.1,5.3-5.3
					c2.2-1.2,4.6-1.9,7.3-1.9c7.9,0,12,4.3,12.1,13v24.7h-4.1v-24.4c0-3.3-0.7-5.8-2.1-7.3c-1.4-1.6-3.7-2.4-6.9-2.4
					c-2.9,0-5.4,1-7.5,2.9c-2,1.9-3.2,4.1-3.4,6.8v24.5h-4.1v-24.7c0-3.2-0.8-5.5-2.2-7.1c-1.5-1.6-3.7-2.3-6.8-2.3
					c-2.6,0-4.8,0.7-6.6,2.2c-1.8,1.5-3.2,3.7-4.1,6.5v25.4h-4.1v-37H482.7z"/>
				<path d="M544.8,246.1l0.1,6c1.4-2.2,3.1-3.9,5.1-5c2.1-1.1,4.3-1.7,6.8-1.7c5.8,0,9.5,2.4,11.1,7.2c1.3-2.3,3.1-4.1,5.3-5.3
					c2.2-1.2,4.6-1.9,7.3-1.9c7.9,0,12,4.3,12.1,13v24.7h-4.1v-24.4c0-3.3-0.7-5.8-2.1-7.3c-1.4-1.6-3.7-2.4-6.9-2.4
					c-2.9,0-5.4,1-7.5,2.9c-2,1.9-3.2,4.1-3.4,6.8v24.5h-4.1v-24.7c0-3.2-0.8-5.5-2.2-7.1c-1.5-1.6-3.7-2.3-6.8-2.3
					c-2.6,0-4.8,0.7-6.6,2.2c-1.8,1.5-3.2,3.7-4.1,6.5v25.4h-4.1v-37H544.8z"/>
				<path d="M626.9,278.4c-2.5,3.6-6.4,5.4-11.8,5.4c-3.9,0-6.9-1.1-9-3.4c-2.1-2.3-3.1-5.7-3.1-10.2v-24.1h4.1v23.5
					c0,7,2.8,10.6,8.5,10.6c5.9,0,9.7-2.4,11.2-7.3v-26.8h4.1v37h-4L626.9,278.4z"/>
				<path d="M645.4,246.1l0.1,6.3c1.4-2.3,3.1-4,5.2-5.2c2.1-1.2,4.4-1.8,6.9-1.8c4,0,6.9,1.1,8.9,3.3c1.9,2.2,2.9,5.6,2.9,10v24.3
					h-4.1v-24.3c0-3.3-0.7-5.8-2.1-7.4c-1.4-1.6-3.6-2.4-6.6-2.4c-2.5,0-4.8,0.8-6.7,2.4c-1.9,1.6-3.4,3.7-4.3,6.4v25.3h-4.1v-37
					H645.4z"/>
				<path d="M703.3,283.1c-0.4-1.2-0.7-2.9-0.8-5.2c-1.4,1.9-3.3,3.3-5.5,4.3c-2.2,1-4.6,1.5-7.1,1.5c-3.6,0-6.4-1-8.6-3
					c-2.2-2-3.3-4.5-3.3-7.5c0-3.6,1.5-6.4,4.5-8.5c3-2.1,7.2-3.1,12.5-3.1h7.4v-4.2c0-2.6-0.8-4.7-2.4-6.2c-1.6-1.5-4-2.3-7.1-2.3
					c-2.8,0-5.2,0.7-7.1,2.2c-1.9,1.5-2.8,3.2-2.8,5.3l-4.1,0c0-2.9,1.4-5.5,4.1-7.6c2.7-2.2,6.1-3.2,10.1-3.2c4.1,0,7.4,1,9.8,3.1
					c2.4,2.1,3.6,4.9,3.7,8.6v17.5c0,3.6,0.4,6.3,1.1,8v0.4H703.3z M690.5,280.2c2.7,0,5.2-0.7,7.3-2c2.2-1.3,3.7-3.1,4.7-5.3v-8.1
					h-7.3c-4.1,0-7.3,0.8-9.6,2.2c-2.3,1.4-3.5,3.4-3.5,6c0,2.1,0.8,3.8,2.3,5.2C686,279.5,688,280.2,690.5,280.2z"/>
				<path d="M722,283.1h-4.1v-52.5h4.1V283.1z"/>
				<path d="M732.9,235.4c0-0.8,0.2-1.4,0.8-2c0.5-0.5,1.2-0.8,2.1-0.8c0.9,0,1.6,0.3,2.1,0.8c0.5,0.5,0.8,1.2,0.8,2
					c0,0.8-0.3,1.4-0.8,1.9c-0.5,0.5-1.2,0.8-2.1,0.8c-0.9,0-1.5-0.3-2.1-0.8C733.2,236.9,732.9,236.2,732.9,235.4z M737.7,283.1
					h-4.1v-37h4.1V283.1z"/>
				<path d="M755.2,236.7v9.5h7.7v3.3h-7.7v24.7c0,2.1,0.4,3.6,1.1,4.6c0.7,1,2,1.5,3.7,1.5c0.7,0,1.8-0.1,3.3-0.3l0.2,3.3
					c-1.1,0.4-2.5,0.6-4.4,0.6c-2.8,0-4.8-0.8-6.1-2.4c-1.3-1.6-1.9-4-1.9-7.2v-24.7h-6.8v-3.3h6.8v-9.5H755.2z"/>
				<path d="M785.7,283.8c-3.1,0-6-0.8-8.5-2.3c-2.5-1.5-4.5-3.7-5.9-6.5c-1.4-2.8-2.1-5.9-2.1-9.3v-1.5c0-3.6,0.7-6.8,2.1-9.6
					c1.4-2.8,3.3-5.1,5.8-6.7c2.5-1.6,5.1-2.4,8-2.4c4.5,0,8,1.5,10.7,4.6c2.6,3.1,3.9,7.3,3.9,12.6v2.3h-26.4v0.8
					c0,4.2,1.2,7.7,3.6,10.5c2.4,2.8,5.4,4.2,9.1,4.2c2.2,0,4.1-0.4,5.8-1.2c1.7-0.8,3.2-2.1,4.6-3.8l2.6,1.9
					C795.7,281.6,791.4,283.8,785.7,283.8z M784.9,248.9c-3.1,0-5.7,1.1-7.8,3.4s-3.4,5.3-3.8,9.1h22.2V261c-0.1-3.6-1.1-6.4-3-8.7
					C790.5,250,788,248.9,784.9,248.9z M789.4,231h5l-7.9,9.5l-3.6,0L789.4,231z"/>
				<path d="M856.7,283.1h-34.1v-6.8l16.1-17.2c2.2-2.4,3.8-4.5,4.9-6.3c1.1-1.8,1.6-3.5,1.6-5.1c0-2.2-0.6-3.9-1.7-5.2
					c-1.1-1.3-2.7-1.9-4.8-1.9c-2.2,0-4,0.8-5.3,2.3c-1.3,1.5-1.9,3.6-1.9,6.1h-9.9c0-3,0.7-5.8,2.2-8.3c1.4-2.5,3.5-4.5,6.1-5.9
					c2.6-1.4,5.6-2.1,9-2.1c5.1,0,9.1,1.2,11.9,3.7c2.8,2.5,4.3,5.9,4.3,10.4c0,2.5-0.6,5-1.9,7.5c-1.3,2.6-3.5,5.5-6.6,8.9
					l-11.3,11.9h21.4V283.1z"/>
				<path d="M896.8,283.1h-34.1v-6.8l16.1-17.2c2.2-2.4,3.8-4.5,4.9-6.3c1.1-1.8,1.6-3.5,1.6-5.1c0-2.2-0.6-3.9-1.7-5.2
					c-1.1-1.3-2.7-1.9-4.8-1.9c-2.2,0-4,0.8-5.3,2.3c-1.3,1.5-1.9,3.6-1.9,6.1h-9.9c0-3,0.7-5.8,2.2-8.3c1.4-2.5,3.5-4.5,6.1-5.9
					c2.6-1.4,5.6-2.1,9-2.1c5.1,0,9.1,1.2,11.9,3.7c2.8,2.5,4.3,5.9,4.3,10.4c0,2.5-0.6,5-1.9,7.5c-1.3,2.6-3.5,5.5-6.6,8.9
					l-11.3,11.9h21.4V283.1z"/>
				<path d="M905.9,295.6l-5.2-2.7l1.2-2.2c1.5-2.8,2.3-5.5,2.4-8.3v-7.7h8.3l0,6.8c0,2.5-0.7,5.1-1.9,7.7
					C909.4,291.8,907.8,293.9,905.9,295.6z"/>
				<path d="M952.4,246.6c0,2.4-0.6,4.6-1.8,6.4c-1.2,1.9-2.9,3.4-5,4.5c2.4,1.2,4.3,2.8,5.7,4.8c1.4,2,2.1,4.4,2.1,7.2
					c0,4.4-1.5,7.9-4.5,10.5c-3,2.6-7.1,3.8-12.3,3.8c-5.2,0-9.3-1.3-12.3-3.9c-3-2.6-4.5-6.1-4.5-10.5c0-2.8,0.7-5.2,2.1-7.2
					c1.4-2.1,3.3-3.6,5.7-4.8c-2.1-1.1-3.8-2.6-5-4.5c-1.2-1.9-1.8-4-1.8-6.4c0-4.2,1.4-7.6,4.2-10.1c2.8-2.5,6.7-3.8,11.5-3.8
					c4.8,0,8.7,1.2,11.5,3.7C951,238.9,952.4,242.3,952.4,246.6z M943.6,268.8c0-2.2-0.6-3.9-1.9-5.2c-1.3-1.3-2.9-1.9-5.1-1.9
					c-2.1,0-3.8,0.6-5,1.9c-1.3,1.3-1.9,3-1.9,5.2c0,2.1,0.6,3.8,1.8,5.1s2.9,1.9,5.1,1.9c2.1,0,3.8-0.6,5-1.9
					C943,272.7,943.6,271,943.6,268.8z M942.5,247.1c0-1.9-0.5-3.5-1.5-4.7s-2.5-1.8-4.3-1.8c-1.8,0-3.3,0.6-4.3,1.7
					c-1,1.1-1.5,2.7-1.5,4.7c0,2,0.5,3.6,1.5,4.8c1,1.2,2.5,1.8,4.3,1.8c1.9,0,3.3-0.6,4.3-1.8C942,250.6,942.5,249,942.5,247.1z"/>
				<path d="M960,242.9c0-3.1,1-5.5,3-7.4s4.6-2.9,7.8-2.9c3.3,0,5.9,0.9,7.9,2.8c2,1.9,3,4.4,3,7.6v2.5c0,3.1-1,5.5-3,7.4
					c-2,1.9-4.6,2.8-7.8,2.8c-3.2,0-5.9-0.9-7.8-2.8c-2-1.9-3-4.4-3-7.6V242.9z M966.6,245.6c0,1.4,0.4,2.5,1.2,3.3
					c0.8,0.8,1.8,1.3,3.1,1.3c1.3,0,2.3-0.4,3-1.3c0.8-0.8,1.1-2,1.1-3.4v-2.5c0-1.4-0.4-2.5-1.1-3.3c-0.8-0.8-1.8-1.3-3.1-1.3
					c-1.3,0-2.3,0.4-3,1.3c-0.8,0.8-1.2,2-1.2,3.5V245.6z M972.8,279.4l-4.8-2.6l24.3-38.9l4.8,2.6L972.8,279.4z M983.8,270.9
					c0-3.1,1-5.6,3-7.4c2-1.9,4.6-2.8,7.8-2.8c3.2,0,5.8,0.9,7.8,2.8c2,1.9,3,4.4,3,7.7v2.5c0,3.1-1,5.5-2.9,7.4
					c-2,1.9-4.6,2.8-7.8,2.8c-3.3,0-5.9-0.9-7.9-2.8c-2-1.9-3-4.4-3-7.5V270.9z M990.4,273.6c0,1.3,0.4,2.3,1.2,3.2
					c0.8,0.9,1.8,1.3,3.1,1.3c2.8,0,4.2-1.5,4.2-4.6v-2.6c0-1.4-0.4-2.5-1.2-3.3c-0.8-0.8-1.8-1.3-3.1-1.3c-1.3,0-2.3,0.4-3.1,1.3
					c-0.8,0.8-1.2,2-1.2,3.4V273.6z"/>
				<path d="M235.4,363.6H260v3.6h-28.8v-49.8h4.2V363.6z"/>
				<path d="M290.4,367.1c-0.4-1.2-0.7-2.9-0.8-5.2c-1.4,1.9-3.3,3.3-5.5,4.3c-2.2,1-4.6,1.5-7.1,1.5c-3.6,0-6.4-1-8.6-3
					c-2.2-2-3.3-4.5-3.3-7.5c0-3.6,1.5-6.4,4.5-8.5c3-2.1,7.2-3.1,12.5-3.1h7.4v-4.2c0-2.6-0.8-4.7-2.4-6.2c-1.6-1.5-4-2.3-7.1-2.3
					c-2.8,0-5.2,0.7-7.1,2.2c-1.9,1.5-2.8,3.2-2.8,5.3l-4.1,0c0-2.9,1.4-5.5,4.1-7.6c2.7-2.2,6.1-3.2,10.1-3.2c4.1,0,7.4,1,9.8,3.1
					c2.4,2.1,3.6,4.9,3.7,8.6v17.5c0,3.6,0.4,6.3,1.1,8v0.4H290.4z M277.6,364.2c2.7,0,5.2-0.7,7.3-2c2.2-1.3,3.7-3.1,4.7-5.3v-8.1
					h-7.3c-4.1,0-7.3,0.8-9.6,2.2c-2.3,1.4-3.5,3.4-3.5,6c0,2.1,0.8,3.8,2.3,5.2C273.1,363.5,275.1,364.2,277.6,364.2z"/>
				<path d="M333.1,361.5l11.2-31.3h4.2l-13.8,37h-3.3l-13.9-37h4.2L333.1,361.5z"/>
				<path d="M355,319.4c0-0.8,0.2-1.4,0.8-2c0.5-0.5,1.2-0.8,2.1-0.8c0.9,0,1.6,0.3,2.1,0.8c0.5,0.5,0.8,1.2,0.8,2
					c0,0.8-0.3,1.4-0.8,1.9c-0.5,0.5-1.2,0.8-2.1,0.8c-0.9,0-1.5-0.3-2.1-0.8C355.3,320.9,355,320.2,355,319.4z M359.8,367.1h-4.1
					v-37h4.1V367.1z"/>
				<path d="M375.5,367.1h-4.1v-52.5h4.1V367.1z"/>
				<path d="M391.2,367.1h-4.1v-52.5h4.1V367.1z"/>
				<path d="M416.6,367.8c-3.1,0-6-0.8-8.5-2.3c-2.5-1.5-4.5-3.7-5.9-6.5c-1.4-2.8-2.1-5.9-2.1-9.3v-1.5c0-3.6,0.7-6.8,2.1-9.6
					c1.4-2.8,3.3-5.1,5.8-6.7c2.5-1.6,5.1-2.4,8-2.4c4.5,0,8,1.5,10.7,4.6c2.6,3.1,3.9,7.3,3.9,12.6v2.3h-26.4v0.8
					c0,4.2,1.2,7.7,3.6,10.5c2.4,2.8,5.4,4.2,9.1,4.2c2.2,0,4.1-0.4,5.8-1.2c1.7-0.8,3.2-2.1,4.6-3.8l2.6,1.9
					C426.7,365.6,422.4,367.8,416.6,367.8z M415.9,332.9c-3.1,0-5.7,1.1-7.8,3.4s-3.4,5.3-3.8,9.1h22.2V345c-0.1-3.6-1.1-6.4-3-8.7
					C421.5,334,419,332.9,415.9,332.9z"/>
				<path d="M482.8,348.4h5.6v8h-5.6v10.8h-9.9v-10.8h-20.4l-0.4-6.2l20.7-32.8h10V348.4z M461.9,348.4h11v-17.6l-0.6,1.1
					L461.9,348.4z"/>
				<path d="M495.2,342.6l2.9-25.3H526v8.2h-19.8l-1.2,10.7c2.3-1.3,4.8-1.9,7.5-1.9c4.7,0,8.5,1.5,11.1,4.4c2.7,2.9,4,7.1,4,12.3
					c0,3.2-0.7,6.1-2,8.6c-1.4,2.5-3.3,4.5-5.8,5.9c-2.5,1.4-5.5,2.1-9,2.1c-3,0-5.8-0.6-8.4-1.8c-2.6-1.2-4.6-2.9-6.1-5.1
					c-1.5-2.2-2.3-4.7-2.4-7.6h9.8c0.2,2.1,0.9,3.7,2.2,4.8c1.2,1.2,2.9,1.7,4.9,1.7c2.2,0,4-0.8,5.2-2.4c1.2-1.6,1.8-3.9,1.8-6.8
					c0-2.8-0.7-5-2.1-6.5c-1.4-1.5-3.4-2.3-5.9-2.3c-2.3,0-4.2,0.6-5.7,1.8l-1,0.9L495.2,342.6z"/>
				<path d="M536.9,379.6l-5.2-2.7l1.2-2.2c1.5-2.8,2.3-5.5,2.4-8.3v-7.7h8.3l0,6.8c0,2.5-0.7,5.1-1.9,7.7
					C540.4,375.8,538.8,377.9,536.9,379.6z"/>
				<path d="M577.8,316.8v8.1h-1c-4.5,0.1-8.1,1.2-10.8,3.5s-4.4,5.4-4.9,9.4c2.6-2.7,6-4,10-4c4.3,0,7.8,1.5,10.3,4.6
					c2.6,3.1,3.8,7.2,3.8,12.2c0,3.2-0.7,6.2-2.1,8.8c-1.4,2.6-3.4,4.7-5.9,6.1c-2.6,1.5-5.5,2.2-8.7,2.2c-5.2,0-9.5-1.8-12.7-5.5
					c-3.2-3.6-4.8-8.5-4.8-14.6v-3.6c0-5.4,1-10.2,3.1-14.3c2-4.1,5-7.3,8.8-9.6c3.8-2.3,8.2-3.4,13.3-3.4H577.8z M568.1,341.8
					c-1.6,0-3,0.4-4.3,1.2s-2.3,1.9-2.9,3.3v3c0,3.3,0.6,5.9,1.9,7.7s3.1,2.8,5.5,2.8c2.1,0,3.8-0.8,5.1-2.5c1.3-1.7,2-3.8,2-6.5
					c0-2.7-0.7-4.9-2-6.5C572.1,342.6,570.4,341.8,568.1,341.8z"/>
				<path d="M591,326.9c0-3.1,1-5.5,3-7.4s4.6-2.9,7.8-2.9c3.3,0,5.9,0.9,7.9,2.8c2,1.9,3,4.4,3,7.6v2.5c0,3.1-1,5.5-3,7.4
					c-2,1.9-4.6,2.8-7.8,2.8c-3.2,0-5.9-0.9-7.8-2.8c-2-1.9-3-4.4-3-7.6V326.9z M597.6,329.6c0,1.4,0.4,2.5,1.2,3.3
					c0.8,0.8,1.8,1.3,3.1,1.3c1.3,0,2.3-0.4,3-1.3c0.8-0.8,1.1-2,1.1-3.4v-2.5c0-1.4-0.4-2.5-1.1-3.3c-0.8-0.8-1.8-1.3-3.1-1.3
					c-1.3,0-2.3,0.4-3,1.3c-0.8,0.8-1.2,2-1.2,3.5V329.6z M603.8,363.4l-4.8-2.6l24.3-38.9l4.8,2.6L603.8,363.4z M614.8,354.9
					c0-3.1,1-5.6,3-7.4c2-1.9,4.6-2.8,7.8-2.8c3.2,0,5.8,0.9,7.8,2.8c2,1.9,3,4.4,3,7.7v2.5c0,3.1-1,5.5-2.9,7.4
					c-2,1.9-4.6,2.8-7.8,2.8c-3.3,0-5.9-0.9-7.9-2.8c-2-1.9-3-4.4-3-7.5V354.9z M621.4,357.6c0,1.3,0.4,2.3,1.2,3.2
					c0.8,0.9,1.8,1.3,3.1,1.3c2.8,0,4.2-1.5,4.2-4.6v-2.6c0-1.4-0.4-2.5-1.2-3.3c-0.8-0.8-1.8-1.3-3.1-1.3c-1.3,0-2.3,0.4-3.1,1.3
					c-0.8,0.8-1.2,2-1.2,3.4V357.6z"/>
			</g>
		</g>
	</g>
</g>
</svg>
