<?xml version="1.0" encoding="utf-8"?>
<!-- Generator: Adobe Illustrator 21.0.0, SVG Export Plug-In . SVG Version: 6.00 Build 0)  -->
<svg version="1.1" xmlns="http://www.w3.org/2000/svg" xmlns:xlink="http://www.w3.org/1999/xlink" x="0px" y="0px"
	 viewBox="0 0 1197.2 516" style="enable-background:new 0 0 1197.2 516;" xml:space="preserve">
<style type="text/css">
	.st0{fill:#0E97E7;}
	.st1{fill:#FFFFFF;}
	.st2{fill:none;stroke:#FFFFFF;stroke-width:18;stroke-miterlimit:10;}
	.st3{fill:none;stroke:#FFFFFF;stroke-width:5;stroke-miterlimit:10;}
	.st4{opacity:0.5;fill:none;stroke:#000000;stroke-width:1.5;stroke-miterlimit:10;}
	.st5{fill:none;stroke:#000000;stroke-width:8;stroke-miterlimit:10;}
	.st6{fill:#4F4F4F;}
	.st7{fill:none;stroke:#FFFFFF;stroke-width:16;stroke-miterlimit:10;}
	.st8{fill:none;stroke:#DF0920;stroke-width:18;stroke-miterlimit:10;}
	.st9{fill:none;stroke:#3E4098;stroke-width:18;stroke-miterlimit:10;}
	.st10{fill:#3E4098;}
	.st11{fill:none;stroke:#59C24F;stroke-width:18;stroke-miterlimit:10;}
	.st12{fill:none;}
</style>
<g id="Home_x5F_Claire_x5F_Juglair_x5F_St_x5F_Nazaire_xA0_Image_1_">
</g>
<g id="Calque_3">
</g>
<g id="bulles">
	<g>
		<path class="st1" d="M113.2,490.3c0,18.8,15.2,34,34,34h1018c18.8,0,34-15.2,34-34v-448c0-18.8-15.2-34-34-34h-1018
			c-18.8,0-34,15.2-34,34V490.3z"/>
		<g>
			<path d="M221.3,197.9h24.6v3.6h-28.8v-49.8h4.2V197.9z"/>
			<path d="M276.3,201.5c-0.4-1.2-0.7-2.9-0.8-5.2c-1.4,1.9-3.3,3.3-5.5,4.3c-2.2,1-4.6,1.5-7.1,1.5c-3.6,0-6.4-1-8.6-3
				s-3.3-4.5-3.3-7.5c0-3.6,1.5-6.4,4.5-8.5c3-2.1,7.2-3.1,12.5-3.1h7.4v-4.2c0-2.6-0.8-4.7-2.4-6.2c-1.6-1.5-4-2.3-7.1-2.3
				c-2.8,0-5.2,0.7-7.1,2.2c-1.9,1.5-2.8,3.2-2.8,5.3l-4.1,0c0-2.9,1.4-5.5,4.1-7.6c2.7-2.2,6.1-3.2,10.1-3.2c4.1,0,7.4,1,9.8,3.1
				s3.6,4.9,3.7,8.6v17.5c0,3.6,0.4,6.3,1.1,8v0.4H276.3z M263.5,198.6c2.7,0,5.2-0.7,7.3-2c2.2-1.3,3.7-3.1,4.7-5.3v-8.1h-7.3
				c-4.1,0-7.3,0.8-9.6,2.2c-2.3,1.4-3.5,3.4-3.5,6c0,2.1,0.8,3.8,2.3,5.2S261,198.6,263.5,198.6z"/>
			<path d="M311.2,164.5l0.1,6c1.4-2.2,3.1-3.9,5.1-5c2.1-1.1,4.3-1.7,6.8-1.7c5.8,0,9.5,2.4,11.1,7.2c1.3-2.3,3.1-4.1,5.3-5.3
				c2.2-1.2,4.6-1.9,7.3-1.9c7.9,0,12,4.3,12.1,13v24.7h-4.1v-24.4c0-3.3-0.7-5.8-2.1-7.3c-1.4-1.6-3.7-2.4-6.9-2.4
				c-2.9,0-5.4,1-7.5,2.9c-2,1.9-3.2,4.1-3.4,6.8v24.5h-4.1v-24.7c0-3.2-0.8-5.5-2.2-7.1s-3.7-2.3-6.8-2.3c-2.6,0-4.8,0.7-6.6,2.2
				c-1.8,1.5-3.2,3.7-4.1,6.5v25.4h-4.1v-37H311.2z"/>
			<path d="M393.3,196.8c-2.5,3.6-6.4,5.4-11.8,5.4c-3.9,0-6.9-1.1-9-3.4c-2.1-2.3-3.1-5.7-3.1-10.2v-24.1h4.1v23.5
				c0,7,2.8,10.6,8.5,10.6c5.9,0,9.7-2.4,11.2-7.3v-26.8h4.1v37h-4L393.3,196.8z"/>
			<path d="M411.9,164.5l0.1,6.3c1.4-2.3,3.1-4,5.2-5.2c2.1-1.2,4.4-1.8,6.9-1.8c4,0,6.9,1.1,8.9,3.3c1.9,2.2,2.9,5.6,2.9,10v24.3
				h-4.1v-24.3c0-3.3-0.7-5.8-2.1-7.4c-1.4-1.6-3.6-2.4-6.6-2.4c-2.5,0-4.8,0.8-6.7,2.4c-1.9,1.6-3.4,3.7-4.3,6.4v25.3H408v-37
				H411.9z"/>
			<path d="M446.2,153.8c0-0.8,0.2-1.4,0.8-2c0.5-0.5,1.2-0.8,2.1-0.8c0.9,0,1.6,0.3,2.1,0.8c0.5,0.5,0.8,1.2,0.8,2
				c0,0.8-0.3,1.4-0.8,1.9c-0.5,0.5-1.2,0.8-2.1,0.8c-0.9,0-1.5-0.3-2.1-0.8C446.4,155.3,446.2,154.6,446.2,153.8z M451,201.5h-4.1
				v-37h4.1V201.5z"/>
			<path d="M475.8,198.7c2.8,0,5.2-0.8,7.2-2.4c1.9-1.6,3-3.7,3.1-6.2h3.9c-0.1,2.3-0.8,4.3-2.1,6.2s-3,3.3-5.2,4.4
				s-4.5,1.6-6.9,1.6c-4.9,0-8.7-1.7-11.5-5.1c-2.8-3.4-4.3-7.9-4.3-13.6v-1.2c0-3.6,0.6-6.9,1.9-9.7c1.3-2.8,3.1-5,5.5-6.5
				c2.4-1.5,5.2-2.3,8.4-2.3c4.1,0,7.4,1.2,10,3.6c2.6,2.4,4,5.6,4.2,9.5h-3.9c-0.2-2.9-1.2-5.2-3.1-7s-4.3-2.7-7.2-2.7
				c-3.7,0-6.6,1.3-8.6,4s-3.1,6.4-3.1,11.2v1.2c0,4.7,1,8.4,3.1,11C469.2,197.4,472.1,198.7,475.8,198.7z"/>
			<path d="M497.9,153.8c0-0.8,0.2-1.4,0.8-2c0.5-0.5,1.2-0.8,2.1-0.8c0.9,0,1.6,0.3,2.1,0.8c0.5,0.5,0.8,1.2,0.8,2
				c0,0.8-0.3,1.4-0.8,1.9c-0.5,0.5-1.2,0.8-2.1,0.8c-0.9,0-1.5-0.3-2.1-0.8C498.2,155.3,497.9,154.6,497.9,153.8z M502.8,201.5
				h-4.1v-37h4.1V201.5z"/>
			<path d="M543.6,183.4c0,5.8-1.3,10.3-3.8,13.7c-2.6,3.4-6,5.1-10.3,5.1c-5.1,0-8.9-1.8-11.6-5.3v18.9h-4.1v-51.2h3.8l0.2,5.2
				c2.7-3.9,6.5-5.9,11.6-5.9c4.4,0,7.9,1.7,10.4,5s3.8,8,3.8,13.9V183.4z M539.5,182.7c0-4.7-1-8.4-2.9-11.2
				c-1.9-2.7-4.6-4.1-8.1-4.1c-2.5,0-4.7,0.6-6.5,1.8c-1.8,1.2-3.2,3-4.1,5.3v17.7c1,2.1,2.4,3.7,4.2,4.9c1.8,1.1,4,1.7,6.5,1.7
				c3.4,0,6.1-1.4,8-4.1S539.5,187.9,539.5,182.7z"/>
			<path d="M576,201.5c-0.4-1.2-0.7-2.9-0.8-5.2c-1.4,1.9-3.3,3.3-5.5,4.3c-2.2,1-4.6,1.5-7.1,1.5c-3.6,0-6.4-1-8.6-3
				s-3.3-4.5-3.3-7.5c0-3.6,1.5-6.4,4.5-8.5c3-2.1,7.2-3.1,12.5-3.1h7.4v-4.2c0-2.6-0.8-4.7-2.4-6.2c-1.6-1.5-4-2.3-7.1-2.3
				c-2.8,0-5.2,0.7-7.1,2.2c-1.9,1.5-2.8,3.2-2.8,5.3l-4.1,0c0-2.9,1.4-5.5,4.1-7.6c2.7-2.2,6.1-3.2,10.1-3.2c4.1,0,7.4,1,9.8,3.1
				s3.6,4.9,3.7,8.6v17.5c0,3.6,0.4,6.3,1.1,8v0.4H576z M563.2,198.6c2.7,0,5.2-0.7,7.3-2c2.2-1.3,3.7-3.1,4.7-5.3v-8.1h-7.3
				c-4.1,0-7.3,0.8-9.6,2.2c-2.3,1.4-3.5,3.4-3.5,6c0,2.1,0.8,3.8,2.3,5.2S560.7,198.6,563.2,198.6z"/>
			<path d="M594.7,201.5h-4.1V149h4.1V201.5z"/>
			<path d="M605.6,153.8c0-0.8,0.2-1.4,0.8-2c0.5-0.5,1.2-0.8,2.1-0.8c0.9,0,1.6,0.3,2.1,0.8c0.5,0.5,0.8,1.2,0.8,2
				c0,0.8-0.3,1.4-0.8,1.9c-0.5,0.5-1.2,0.8-2.1,0.8c-0.9,0-1.5-0.3-2.1-0.8C605.9,155.3,605.6,154.6,605.6,153.8z M610.4,201.5
				h-4.1v-37h4.1V201.5z"/>
			<path d="M627.9,155.1v9.5h7.7v3.3h-7.7v24.7c0,2.1,0.4,3.6,1.1,4.6c0.7,1,2,1.5,3.7,1.5c0.7,0,1.8-0.1,3.3-0.3l0.2,3.3
				c-1.1,0.4-2.5,0.6-4.4,0.6c-2.8,0-4.8-0.8-6.1-2.4c-1.3-1.6-1.9-4-1.9-7.2v-24.7H617v-3.3h6.8v-9.5H627.9z"/>
			<path d="M658.3,202.2c-3.1,0-6-0.8-8.5-2.3c-2.5-1.5-4.5-3.7-5.9-6.5c-1.4-2.8-2.1-5.9-2.1-9.3v-1.5c0-3.6,0.7-6.8,2.1-9.6
				c1.4-2.8,3.3-5.1,5.8-6.7c2.5-1.6,5.1-2.4,8-2.4c4.5,0,8.1,1.5,10.7,4.6c2.6,3.1,3.9,7.3,3.9,12.6v2.3h-26.4v0.8
				c0,4.2,1.2,7.7,3.6,10.5c2.4,2.8,5.4,4.2,9.1,4.2c2.2,0,4.1-0.4,5.8-1.2c1.7-0.8,3.2-2.1,4.6-3.8l2.6,1.9
				C668.4,200,664.1,202.2,658.3,202.2z M657.6,167.3c-3.1,0-5.7,1.1-7.8,3.4s-3.4,5.3-3.8,9.1h22.2v-0.4c-0.1-3.6-1.1-6.4-3-8.7
				C663.2,168.4,660.7,167.3,657.6,167.3z M662.1,149.4h5l-7.9,9.5l-3.6,0L662.1,149.4z"/>
			<path d="M714.3,168c-0.9-0.2-1.8-0.2-2.8-0.2c-2.6,0-4.7,0.7-6.5,2.1c-1.8,1.4-3,3.5-3.8,6.2v25.4h-4.1v-37h4l0.1,5.9
				c2.2-4.4,5.6-6.6,10.4-6.6c1.1,0,2,0.1,2.7,0.4L714.3,168z"/>
			<path d="M734.4,202.2c-3.1,0-6-0.8-8.5-2.3c-2.5-1.5-4.5-3.7-5.9-6.5c-1.4-2.8-2.1-5.9-2.1-9.3v-1.5c0-3.6,0.7-6.8,2.1-9.6
				c1.4-2.8,3.3-5.1,5.8-6.7c2.5-1.6,5.1-2.4,8-2.4c4.5,0,8,1.5,10.7,4.6c2.6,3.1,3.9,7.3,3.9,12.6v2.3h-26.4v0.8
				c0,4.2,1.2,7.7,3.6,10.5c2.4,2.8,5.4,4.2,9.1,4.2c2.2,0,4.1-0.4,5.8-1.2c1.7-0.8,3.2-2.1,4.6-3.8l2.6,1.9
				C744.5,200,740.1,202.2,734.4,202.2z M733.7,167.3c-3.1,0-5.7,1.1-7.8,3.4s-3.4,5.3-3.8,9.1h22.2v-0.4c-0.1-3.6-1.1-6.4-3-8.7
				C739.3,168.4,736.8,167.3,733.7,167.3z M738.2,149.4h5l-7.9,9.5l-3.6,0L738.2,149.4z"/>
			<path d="M786,183.4c0,5.8-1.3,10.3-3.8,13.7c-2.6,3.4-6,5.1-10.3,5.1c-5.1,0-8.9-1.8-11.6-5.3v18.9h-4.1v-51.2h3.8l0.2,5.2
				c2.7-3.9,6.5-5.9,11.6-5.9c4.4,0,7.9,1.7,10.4,5s3.8,8,3.8,13.9V183.4z M781.9,182.7c0-4.7-1-8.4-2.9-11.2
				c-1.9-2.7-4.6-4.1-8.1-4.1c-2.5,0-4.7,0.6-6.5,1.8c-1.8,1.2-3.2,3-4.1,5.3v17.7c1,2.1,2.4,3.7,4.2,4.9c1.8,1.1,4,1.7,6.5,1.7
				c3.4,0,6.1-1.4,8-4.1S781.9,187.9,781.9,182.7z"/>
			<path d="M818.4,201.5c-0.4-1.2-0.7-2.9-0.8-5.2c-1.4,1.9-3.3,3.3-5.5,4.3c-2.2,1-4.6,1.5-7.1,1.5c-3.6,0-6.4-1-8.6-3
				c-2.2-2-3.3-4.5-3.3-7.5c0-3.6,1.5-6.4,4.5-8.5c3-2.1,7.2-3.1,12.5-3.1h7.4v-4.2c0-2.6-0.8-4.7-2.4-6.2c-1.6-1.5-4-2.3-7.1-2.3
				c-2.8,0-5.2,0.7-7.1,2.2c-1.9,1.5-2.8,3.2-2.8,5.3l-4.1,0c0-2.9,1.4-5.5,4.1-7.6c2.7-2.2,6.1-3.2,10.1-3.2c4.1,0,7.4,1,9.8,3.1
				c2.4,2.1,3.6,4.9,3.7,8.6v17.5c0,3.6,0.4,6.3,1.1,8v0.4H818.4z M805.6,198.6c2.7,0,5.2-0.7,7.3-2c2.2-1.3,3.7-3.1,4.7-5.3v-8.1
				h-7.3c-4.1,0-7.3,0.8-9.6,2.2c-2.3,1.4-3.5,3.4-3.5,6c0,2.1,0.8,3.8,2.3,5.2C801.1,197.9,803.1,198.6,805.6,198.6z"/>
			<path d="M849.6,168c-0.9-0.2-1.8-0.2-2.8-0.2c-2.6,0-4.7,0.7-6.5,2.1c-1.8,1.4-3,3.5-3.8,6.2v25.4h-4.1v-37h4l0.1,5.9
				c2.2-4.4,5.6-6.6,10.4-6.6c1.1,0,2,0.1,2.7,0.4L849.6,168z"/>
			<path d="M864.2,155.1v9.5h7.7v3.3h-7.7v24.7c0,2.1,0.4,3.6,1.1,4.6c0.7,1,2,1.5,3.7,1.5c0.7,0,1.8-0.1,3.3-0.3l0.2,3.3
				c-1.1,0.4-2.5,0.6-4.4,0.6c-2.8,0-4.8-0.8-6.1-2.4c-1.3-1.6-1.9-4-1.9-7.2v-24.7h-6.8v-3.3h6.8v-9.5H864.2z"/>
			<path d="M880.1,153.8c0-0.8,0.2-1.4,0.8-2c0.5-0.5,1.2-0.8,2.1-0.8c0.9,0,1.6,0.3,2.1,0.8c0.5,0.5,0.8,1.2,0.8,2
				c0,0.8-0.3,1.4-0.8,1.9c-0.5,0.5-1.2,0.8-2.1,0.8c-0.9,0-1.5-0.3-2.1-0.8C880.3,155.3,880.1,154.6,880.1,153.8z M884.9,201.5
				h-4.1v-37h4.1V201.5z"/>
			<path d="M902.4,155.1v9.5h7.7v3.3h-7.7v24.7c0,2.1,0.4,3.6,1.1,4.6c0.7,1,2,1.5,3.7,1.5c0.7,0,1.8-0.1,3.3-0.3l0.2,3.3
				c-1.1,0.4-2.5,0.6-4.4,0.6c-2.8,0-4.8-0.8-6.1-2.4c-1.3-1.6-1.9-4-1.9-7.2v-24.7h-6.8v-3.3h6.8v-9.5H902.4z"/>
			<path d="M967.3,183.4c0,5.7-1.3,10.3-3.9,13.7c-2.6,3.4-6.1,5.1-10.5,5.1c-3.7,0-6.8-1.3-9.1-3.9v17.4H934v-51.2h9.2l0.3,3.6
				c2.4-2.9,5.5-4.3,9.4-4.3c4.6,0,8.1,1.7,10.6,5.1c2.5,3.4,3.8,8,3.8,13.9V183.4z M957.4,182.6c0-3.5-0.6-6.1-1.8-8
				c-1.2-1.9-3-2.8-5.3-2.8c-3.1,0-5.2,1.2-6.4,3.6v15.2c1.2,2.4,3.4,3.7,6.5,3.7C955,194.2,957.4,190.3,957.4,182.6z"/>
			<path d="M994.2,173.8c-1.3-0.2-2.5-0.3-3.6-0.3c-3.7,0-6.2,1.3-7.3,3.8v24.2h-9.9v-37h9.3l0.3,4.4c2-3.4,4.7-5.1,8.2-5.1
				c1.1,0,2.1,0.1,3.1,0.4L994.2,173.8z"/>
			<path d="M1015.3,202.2c-5.4,0-9.8-1.7-13.2-5c-3.4-3.3-5.1-7.8-5.1-13.3v-1c0-3.7,0.7-7,2.2-10c1.4-2.9,3.5-5.2,6.1-6.8
				c2.6-1.6,5.6-2.4,9-2.4c5.1,0,9,1.6,11.9,4.8c2.9,3.2,4.4,7.7,4.4,13.6v4h-23.5c0.3,2.4,1.3,4.4,2.9,5.8c1.6,1.5,3.6,2.2,6.1,2.2
				c3.8,0,6.8-1.4,8.9-4.1l4.9,5.4c-1.5,2.1-3.5,3.7-6,4.9C1021.2,201.6,1018.4,202.2,1015.3,202.2z M1014.2,171.8
				c-2,0-3.5,0.7-4.8,2c-1.2,1.3-2,3.2-2.3,5.7h13.7v-0.8c0-2.2-0.6-3.9-1.8-5.1C1017.9,172.4,1016.2,171.8,1014.2,171.8z M1015,149
				h10.8l-9.5,10.6h-8L1015,149z"/>
			<path d="M1055.3,184.2h-19.2v-8h19.2V184.2z"/>
			<path d="M229.9,278.2c1.8,0,3.3-0.5,4.4-1.5c1.1-1,1.7-2.3,1.8-4h9.3c0,2.5-0.7,4.8-2.1,6.9c-1.3,2.1-3.2,3.7-5.5,4.9
				c-2.3,1.2-4.9,1.7-7.7,1.7c-5.3,0-9.5-1.7-12.5-5c-3.1-3.4-4.6-8-4.6-13.9v-0.6c0-5.7,1.5-10.2,4.5-13.6c3-3.4,7.2-5.1,12.5-5.1
				c4.6,0,8.3,1.3,11.1,3.9c2.8,2.6,4.2,6.1,4.3,10.5h-9.3c0-1.9-0.6-3.5-1.8-4.7c-1.1-1.2-2.6-1.8-4.5-1.8c-2.3,0-4,0.8-5.2,2.5
				c-1.2,1.7-1.8,4.4-1.8,8.2v1c0,3.8,0.6,6.5,1.7,8.2S227.6,278.2,229.9,278.2z"/>
			<path d="M272.5,285.5c-0.5-0.9-0.8-2-1-3.3c-2.4,2.7-5.5,4-9.3,4c-3.6,0-6.6-1-9-3.1c-2.4-2.1-3.6-4.7-3.6-7.9
				c0-3.9,1.5-6.9,4.4-9c2.9-2.1,7.1-3.2,12.6-3.2h4.5v-2.1c0-1.7-0.4-3.1-1.3-4.1s-2.3-1.5-4.2-1.5c-1.7,0-3,0.4-3.9,1.2
				c-0.9,0.8-1.4,1.9-1.4,3.3h-9.9c0-2.1,0.7-4.1,2-5.9c1.3-1.8,3.2-3.3,5.6-4.3c2.4-1,5.1-1.6,8.1-1.6c4.6,0,8.2,1.1,10.9,3.4
				c2.7,2.3,4,5.5,4,9.7v16c0,3.5,0.5,6.2,1.5,8v0.6H272.5z M264.3,278.6c1.5,0,2.8-0.3,4-1c1.2-0.7,2.1-1.5,2.7-2.6v-6.4h-3.7
				c-4.9,0-7.6,1.7-7.9,5.1l0,0.6c0,1.2,0.4,2.2,1.3,3C261.6,278.2,262.8,278.6,264.3,278.6z"/>
			<path d="M310.7,281.7c-2.4,3-5.8,4.4-10.1,4.4c-4,0-7-1.1-9.1-3.4c-2.1-2.3-3.2-5.6-3.2-10v-24.2h9.9v23.9c0,3.9,1.8,5.8,5.3,5.8
				c3.3,0,5.7-1.2,6.9-3.5v-26.2h9.9v37H311L310.7,281.7z"/>
			<path d="M339.6,239.4v9.1h6.3v7.2h-6.3v18.5c0,1.4,0.3,2.3,0.8,2.9c0.5,0.6,1.5,0.9,3,0.9c1.1,0,2.1-0.1,2.9-0.2v7.5
				c-1.9,0.6-3.9,0.9-6,0.9c-6.9,0-10.5-3.5-10.6-10.5v-19.9h-5.4v-7.2h5.4v-9.1H339.6z"/>
			<path d="M351.3,238.9c0-1.5,0.5-2.7,1.5-3.7s2.3-1.4,4.1-1.4c1.7,0,3,0.5,4,1.4c1,1,1.5,2.2,1.5,3.7c0,1.5-0.5,2.7-1.5,3.7
				s-2.4,1.4-4,1.4c-1.7,0-3-0.5-4-1.4S351.3,240.5,351.3,238.9z M361.8,285.5h-9.9v-37h9.9V285.5z"/>
			<path d="M368.4,266.7c0-3.7,0.7-6.9,2.1-9.8c1.4-2.9,3.4-5.1,6.1-6.7s5.7-2.4,9.2-2.4c5,0,9.1,1.5,12.2,4.6
				c3.2,3.1,4.9,7.2,5.3,12.4l0.1,2.5c0,5.7-1.6,10.2-4.8,13.7c-3.2,3.4-7.4,5.1-12.7,5.1s-9.6-1.7-12.8-5.1s-4.8-8.1-4.8-13.9
				V266.7z M378.3,267.4c0,3.5,0.7,6.2,2,8.1c1.3,1.9,3.2,2.8,5.7,2.8c2.4,0,4.3-0.9,5.6-2.8c1.3-1.8,2-4.8,2-8.8c0-3.4-0.7-6.1-2-8
				c-1.3-1.9-3.2-2.8-5.7-2.8c-2.4,0-4.3,0.9-5.6,2.8C379,260.5,378.3,263.4,378.3,267.4z"/>
			<path d="M418.6,248.5l0.3,4.3c2.6-3.3,6.2-5,10.6-5c3.9,0,6.8,1.2,8.8,3.5c1.9,2.3,2.9,5.7,2.9,10.3v23.9h-9.9v-23.7
				c0-2.1-0.5-3.6-1.4-4.6c-0.9-0.9-2.4-1.4-4.5-1.4c-2.8,0-4.9,1.2-6.3,3.6v26.1h-9.9v-37H418.6z"/>
			<path d="M457.8,248.5l0.3,4.3c2.6-3.3,6.2-5,10.6-5c3.9,0,6.8,1.2,8.8,3.5c1.9,2.3,2.9,5.7,2.9,10.3v23.9h-9.9v-23.7
				c0-2.1-0.5-3.6-1.4-4.6c-0.9-0.9-2.4-1.4-4.5-1.4c-2.8,0-4.9,1.2-6.3,3.6v26.1h-9.9v-37H457.8z"/>
			<path d="M505,286.2c-5.4,0-9.8-1.7-13.2-5c-3.4-3.3-5.1-7.8-5.1-13.3v-1c0-3.7,0.7-7,2.2-10c1.4-2.9,3.5-5.2,6.1-6.8
				c2.6-1.6,5.6-2.4,9-2.4c5.1,0,9,1.6,11.9,4.8c2.9,3.2,4.4,7.7,4.4,13.6v4h-23.5c0.3,2.4,1.3,4.4,2.9,5.8c1.6,1.5,3.6,2.2,6.1,2.2
				c3.8,0,6.8-1.4,8.9-4.1l4.9,5.4c-1.5,2.1-3.5,3.7-6,4.9C510.9,285.6,508.1,286.2,505,286.2z M503.9,255.8c-2,0-3.5,0.7-4.8,2
				c-1.2,1.3-2,3.2-2.3,5.7h13.7v-0.8c0-2.2-0.6-3.9-1.8-5.1C507.6,256.4,505.9,255.8,503.9,255.8z"/>
			<path d="M547.9,281.7c-2.4,3-5.8,4.4-10.1,4.4c-4,0-7-1.1-9.1-3.4c-2.1-2.3-3.2-5.6-3.2-10v-24.2h9.9v23.9c0,3.9,1.8,5.8,5.3,5.8
				c3.3,0,5.7-1.2,6.9-3.5v-26.2h9.9v37h-9.3L547.9,281.7z"/>
			<path d="M585,275.3c0-1.2-0.6-2.2-1.8-2.9c-1.2-0.7-3.1-1.3-5.8-1.9c-8.8-1.8-13.2-5.6-13.2-11.2c0-3.3,1.4-6,4.1-8.2
				s6.3-3.3,10.7-3.3c4.7,0,8.4,1.1,11.3,3.3c2.8,2.2,4.2,5.1,4.2,8.6h-9.9c0-1.4-0.5-2.6-1.4-3.5c-0.9-0.9-2.3-1.4-4.3-1.4
				c-1.7,0-3,0.4-3.9,1.1c-0.9,0.8-1.4,1.7-1.4,2.9c0,1.1,0.5,2,1.6,2.6s2.8,1.3,5.2,1.7c2.5,0.5,4.5,1,6.2,1.7
				c5.2,1.9,7.8,5.2,7.8,9.9c0,3.4-1.4,6.1-4.3,8.2c-2.9,2.1-6.6,3.1-11.2,3.1c-3.1,0-5.9-0.6-8.3-1.7c-2.4-1.1-4.3-2.6-5.7-4.5
				s-2.1-4-2.1-6.2h9.4c0.1,1.8,0.7,3.1,1.9,4c1.2,0.9,2.8,1.4,4.9,1.4c1.9,0,3.3-0.4,4.3-1.1C584.5,277.4,585,276.4,585,275.3z"/>
			<path d="M618,286.2c-5.4,0-9.8-1.7-13.2-5c-3.4-3.3-5.1-7.8-5.1-13.3v-1c0-3.7,0.7-7,2.2-10c1.4-2.9,3.5-5.2,6.1-6.8
				c2.6-1.6,5.6-2.4,9-2.4c5.1,0,9,1.6,11.9,4.8c2.9,3.2,4.4,7.7,4.4,13.6v4h-23.5c0.3,2.4,1.3,4.4,2.9,5.8c1.6,1.5,3.6,2.2,6.1,2.2
				c3.8,0,6.8-1.4,8.9-4.1l4.9,5.4c-1.5,2.1-3.5,3.7-6,4.9C623.9,285.6,621.1,286.2,618,286.2z M616.9,255.8c-2,0-3.5,0.7-4.8,2
				c-1.2,1.3-2,3.2-2.3,5.7h13.7v-0.8c0-2.2-0.6-3.9-1.8-5.1C620.6,256.4,618.9,255.8,616.9,255.8z"/>
			<path d="M648.1,248.5l0.3,4.1c2.6-3.2,6.2-4.8,10.6-4.8c4.8,0,8,1.9,9.8,5.6c2.6-3.8,6.3-5.6,11.1-5.6c4,0,7,1.2,9,3.5
				c2,2.3,2.9,5.9,2.9,10.5v23.6h-9.9v-23.6c0-2.1-0.4-3.6-1.2-4.6c-0.8-1-2.3-1.5-4.3-1.5c-3,0-5,1.4-6.2,4.2l0,25.5h-9.9v-23.6
				c0-2.1-0.4-3.7-1.3-4.7c-0.8-1-2.3-1.4-4.3-1.4c-2.8,0-4.8,1.2-6.1,3.5v26.2h-9.9v-37H648.1z"/>
			<path d="M716.4,286.2c-5.4,0-9.8-1.7-13.2-5c-3.4-3.3-5.1-7.8-5.1-13.3v-1c0-3.7,0.7-7,2.2-10c1.4-2.9,3.5-5.2,6.1-6.8
				c2.6-1.6,5.6-2.4,9-2.4c5.1,0,9,1.6,11.9,4.8c2.9,3.2,4.4,7.7,4.4,13.6v4h-23.5c0.3,2.4,1.3,4.4,2.9,5.8c1.6,1.5,3.6,2.2,6.1,2.2
				c3.8,0,6.8-1.4,8.9-4.1l4.9,5.4c-1.5,2.1-3.5,3.7-6,4.9C722.3,285.6,719.5,286.2,716.4,286.2z M715.3,255.8c-2,0-3.5,0.7-4.8,2
				c-1.2,1.3-2,3.2-2.3,5.7h13.7v-0.8c0-2.2-0.6-3.9-1.8-5.1C719,256.4,717.4,255.8,715.3,255.8z"/>
			<path d="M746.3,248.5l0.3,4.3c2.6-3.3,6.2-5,10.6-5c3.9,0,6.8,1.2,8.8,3.5c1.9,2.3,2.9,5.7,2.9,10.3v23.9h-9.9v-23.7
				c0-2.1-0.5-3.6-1.4-4.6c-0.9-0.9-2.4-1.4-4.5-1.4c-2.8,0-4.9,1.2-6.3,3.6v26.1H737v-37H746.3z"/>
			<path d="M788.3,239.4v9.1h6.3v7.2h-6.3v18.5c0,1.4,0.3,2.3,0.8,2.9c0.5,0.6,1.5,0.9,3,0.9c1.1,0,2.1-0.1,2.9-0.2v7.5
				c-1.9,0.6-3.9,0.9-6,0.9c-6.9,0-10.5-3.5-10.6-10.5v-19.9H773v-7.2h5.4v-9.1H788.3z"/>
			<path d="M823.6,285.5h-4.1V233h4.1V285.5z"/>
			<path d="M834,247.9l-2.4-1.8c2.1-2.8,3.1-5.7,3.2-8.7V233h4v3.5C838.7,241.2,837.1,245,834,247.9z"/>
			<path d="M868.8,285.5c-0.4-1.2-0.7-2.9-0.8-5.2c-1.4,1.9-3.3,3.3-5.5,4.3c-2.2,1-4.6,1.5-7.1,1.5c-3.6,0-6.4-1-8.6-3
				c-2.2-2-3.3-4.5-3.3-7.5c0-3.6,1.5-6.4,4.5-8.5c3-2.1,7.2-3.1,12.5-3.1h7.4v-4.2c0-2.6-0.8-4.7-2.4-6.2c-1.6-1.5-4-2.3-7.1-2.3
				c-2.8,0-5.2,0.7-7.1,2.2c-1.9,1.5-2.8,3.2-2.8,5.3l-4.1,0c0-2.9,1.4-5.5,4.1-7.6c2.7-2.2,6.1-3.2,10.1-3.2c4.1,0,7.4,1,9.8,3.1
				c2.4,2.1,3.6,4.9,3.7,8.6v17.5c0,3.6,0.4,6.3,1.1,8v0.4H868.8z M856,282.6c2.7,0,5.2-0.7,7.3-2c2.2-1.3,3.7-3.1,4.7-5.3v-8.1
				h-7.3c-4.1,0-7.3,0.8-9.6,2.2c-2.3,1.4-3.5,3.4-3.5,6c0,2.1,0.8,3.8,2.3,5.2C851.5,281.9,853.5,282.6,856,282.6z"/>
			<path d="M900.1,252c-0.9-0.2-1.8-0.2-2.8-0.2c-2.6,0-4.7,0.7-6.5,2.1c-1.8,1.4-3,3.5-3.8,6.2v25.4H883v-37h4l0.1,5.9
				c2.2-4.4,5.6-6.6,10.4-6.6c1.1,0,2,0.1,2.7,0.4L900.1,252z"/>
			<path d="M904.2,266.7c0-5.8,1.3-10.4,3.8-13.8c2.6-3.4,6-5.1,10.4-5.1c5,0,8.9,2,11.5,6l0.2-5.3h3.8v36.2c0,4.8-1.3,8.5-4,11.3
				c-2.7,2.8-6.3,4.2-10.8,4.2c-2.6,0-5-0.6-7.4-1.7c-2.3-1.2-4.2-2.7-5.5-4.6l2.3-2.5c2.9,3.6,6.3,5.3,10.3,5.3c3.4,0,6.1-1,8-3
				c1.9-2,2.9-4.8,3-8.4v-4.6c-2.6,3.6-6.4,5.5-11.5,5.5c-4.3,0-7.7-1.7-10.3-5.1s-3.9-8-3.9-13.8V266.7z M908.4,267.4
				c0,4.7,0.9,8.4,2.8,11.2c1.9,2.7,4.6,4.1,8,4.1c5,0,8.6-2.3,10.7-6.8v-17.2c-1-2.4-2.3-4.2-4.1-5.4c-1.8-1.2-4-1.9-6.5-1.9
				c-3.4,0-6.1,1.3-8,4.1C909.3,258.1,908.4,262.1,908.4,267.4z"/>
			<path d="M959,286.2c-3.1,0-6-0.8-8.5-2.3c-2.5-1.5-4.5-3.7-5.9-6.5c-1.4-2.8-2.1-5.9-2.1-9.3v-1.5c0-3.6,0.7-6.8,2.1-9.6
				c1.4-2.8,3.3-5.1,5.8-6.7c2.5-1.6,5.1-2.4,8-2.4c4.5,0,8,1.5,10.7,4.6c2.6,3.1,3.9,7.3,3.9,12.6v2.3h-26.4v0.8
				c0,4.2,1.2,7.7,3.6,10.5c2.4,2.8,5.4,4.2,9.1,4.2c2.2,0,4.1-0.4,5.8-1.2c1.7-0.8,3.2-2.1,4.6-3.8l2.6,1.9
				C969.1,284,964.7,286.2,959,286.2z M958.3,251.3c-3.1,0-5.7,1.1-7.8,3.4s-3.4,5.3-3.8,9.1h22.2v-0.4c-0.1-3.6-1.1-6.4-3-8.7
				C963.9,252.4,961.4,251.3,958.3,251.3z"/>
			<path d="M984.8,248.5l0.1,6.3c1.4-2.3,3.1-4,5.2-5.2c2.1-1.2,4.4-1.8,6.9-1.8c4,0,6.9,1.1,8.9,3.3c1.9,2.2,2.9,5.6,2.9,10v24.3
				h-4.1v-24.3c0-3.3-0.7-5.8-2.1-7.4c-1.4-1.6-3.6-2.4-6.6-2.4c-2.5,0-4.8,0.8-6.7,2.4c-1.9,1.6-3.4,3.7-4.3,6.4v25.3h-4.1v-37
				H984.8z"/>
			<path d="M1025.7,239.1v9.5h7.7v3.3h-7.7v24.7c0,2.1,0.4,3.6,1.1,4.6c0.7,1,2,1.5,3.7,1.5c0.7,0,1.8-0.1,3.3-0.3l0.2,3.3
				c-1.1,0.4-2.5,0.6-4.4,0.6c-2.8,0-4.8-0.8-6.1-2.4c-1.3-1.6-1.9-4-1.9-7.2v-24.7h-6.8v-3.3h6.8v-9.5H1025.7z"/>
			<path d="M214.5,350.7c0-5.7,1.3-10.3,3.8-13.7c2.6-3.4,6-5.1,10.4-5.1c5,0,8.8,2,11.4,5.9V317h4.1v52.5h-3.8l-0.2-4.9
				c-2.6,3.7-6.5,5.6-11.6,5.6c-4.3,0-7.7-1.7-10.3-5.1c-2.6-3.4-3.9-8.1-3.9-13.9V350.7z M218.6,351.4c0,4.7,0.9,8.4,2.8,11.2
				c1.9,2.7,4.6,4.1,8,4.1c5,0,8.6-2.2,10.7-6.7v-17.4c-2.1-4.8-5.7-7.2-10.7-7.2c-3.4,0-6.1,1.3-8,4.1
				C219.5,342.1,218.6,346.1,218.6,351.4z"/>
			<path d="M269.3,370.2c-3.1,0-6-0.8-8.5-2.3c-2.5-1.5-4.5-3.7-5.9-6.5c-1.4-2.8-2.1-5.9-2.1-9.3v-1.5c0-3.6,0.7-6.8,2.1-9.6
				c1.4-2.8,3.3-5.1,5.8-6.7c2.5-1.6,5.1-2.4,8-2.4c4.5,0,8,1.5,10.7,4.6s3.9,7.3,3.9,12.6v2.3h-26.4v0.8c0,4.2,1.2,7.7,3.6,10.5
				s5.4,4.2,9.1,4.2c2.2,0,4.1-0.4,5.8-1.2c1.7-0.8,3.2-2.1,4.6-3.8l2.6,1.9C279.4,368,275,370.2,269.3,370.2z M268.6,335.3
				c-3.1,0-5.7,1.1-7.8,3.4s-3.4,5.3-3.8,9.1h22.2v-0.4c-0.1-3.6-1.1-6.4-3-8.7C274.2,336.4,271.7,335.3,268.6,335.3z"/>
			<path d="M313.3,360.1c0-2-0.8-3.7-2.4-4.9s-4.1-2.2-7.4-2.9c-3.3-0.7-5.8-1.5-7.6-2.4c-1.8-0.9-3.2-2-4-3.3s-1.3-2.9-1.3-4.7
				c0-2.9,1.2-5.3,3.7-7.2c2.4-1.9,5.6-2.9,9.4-2.9c4.1,0,7.4,1,9.9,3.1c2.5,2,3.7,4.7,3.7,8h-4.1c0-2.2-0.9-4-2.7-5.4
				s-4.1-2.2-6.9-2.2c-2.7,0-4.8,0.6-6.5,1.8c-1.6,1.2-2.4,2.8-2.4,4.7c0,1.8,0.7,3.3,2,4.3s3.8,1.9,7.4,2.8
				c3.6,0.8,6.3,1.7,8.1,2.7s3.1,2.1,4,3.5c0.9,1.3,1.3,3,1.3,4.9c0,3.1-1.3,5.6-3.8,7.5c-2.5,1.9-5.8,2.8-9.9,2.8
				c-4.3,0-7.8-1-10.5-3.1c-2.7-2.1-4-4.7-4-7.9h4.1c0.2,2.4,1.2,4.3,3,5.6c1.9,1.3,4.3,2,7.4,2c2.8,0,5.1-0.6,6.9-1.9
				C312.4,363.6,313.3,362,313.3,360.1z"/>
			<path d="M343.4,321.8c0-0.8,0.2-1.4,0.8-2c0.5-0.5,1.2-0.8,2.1-0.8c0.9,0,1.6,0.3,2.1,0.8c0.5,0.5,0.8,1.2,0.8,2
				c0,0.8-0.3,1.4-0.8,1.9c-0.5,0.5-1.2,0.8-2.1,0.8c-0.9,0-1.5-0.3-2.1-0.8C343.6,323.3,343.4,322.6,343.4,321.8z M348.2,369.5
				h-4.1v-37h4.1V369.5z"/>
			<path d="M363,332.5l0.1,6c1.4-2.2,3.1-3.9,5.1-5c2.1-1.1,4.3-1.7,6.8-1.7c5.8,0,9.5,2.4,11.1,7.2c1.3-2.3,3.1-4.1,5.3-5.3
				c2.2-1.2,4.6-1.9,7.3-1.9c7.9,0,12,4.3,12.1,13v24.7h-4.1v-24.4c0-3.3-0.7-5.8-2.1-7.3c-1.4-1.6-3.7-2.4-6.9-2.4
				c-2.9,0-5.4,1-7.5,2.9c-2,1.9-3.2,4.1-3.4,6.8v24.5H383v-24.7c0-3.2-0.8-5.5-2.2-7.1s-3.7-2.3-6.8-2.3c-2.6,0-4.8,0.7-6.6,2.2
				c-1.8,1.5-3.2,3.7-4.1,6.5v25.4h-4.1v-37H363z"/>
			<path d="M451.1,351.4c0,5.8-1.3,10.3-3.8,13.7c-2.6,3.4-6,5.1-10.3,5.1c-5.1,0-8.9-1.8-11.6-5.3v18.9h-4.1v-51.2h3.8l0.2,5.2
				c2.7-3.9,6.5-5.9,11.6-5.9c4.4,0,7.9,1.7,10.4,5s3.8,8,3.8,13.9V351.4z M447,350.7c0-4.7-1-8.4-2.9-11.2
				c-1.9-2.7-4.6-4.1-8.1-4.1c-2.5,0-4.7,0.6-6.5,1.8c-1.8,1.2-3.2,3-4.1,5.3v17.7c1,2.1,2.4,3.7,4.2,4.9c1.8,1.1,4,1.7,6.5,1.7
				c3.4,0,6.1-1.4,8-4.1S447,355.9,447,350.7z"/>
			<path d="M457.9,350.5c0-3.6,0.7-6.8,2.1-9.6c1.4-2.8,3.3-5.1,5.8-6.6c2.5-1.6,5.4-2.4,8.6-2.4c4.9,0,8.9,1.7,12,5.2
				c3.1,3.5,4.6,8,4.6,13.7v0.9c0,3.6-0.7,6.8-2.1,9.7s-3.3,5.1-5.8,6.6c-2.5,1.5-5.4,2.3-8.6,2.3c-4.9,0-8.9-1.7-11.9-5.2
				c-3.1-3.5-4.6-8-4.6-13.7V350.5z M462,351.6c0,4.4,1.1,8,3.4,10.9c2.3,2.8,5.3,4.3,9,4.3c3.7,0,6.7-1.4,9-4.3
				c2.3-2.8,3.4-6.6,3.4-11.2v-0.8c0-2.8-0.5-5.4-1.6-7.8c-1-2.3-2.5-4.2-4.4-5.5c-1.9-1.3-4.1-1.9-6.5-1.9c-3.6,0-6.6,1.4-8.9,4.3
				c-2.3,2.9-3.5,6.6-3.5,11.2V351.6z M483.9,326.2v0.3h-3.8l-5.7-6.3l-5.7,6.3h-3.7v-0.4l8.1-8.7h2.6L483.9,326.2z"/>
			<path d="M505.7,323.1v9.5h7.7v3.3h-7.7v24.7c0,2.1,0.4,3.6,1.1,4.6c0.7,1,2,1.5,3.7,1.5c0.7,0,1.8-0.1,3.3-0.3l0.2,3.3
				c-1.1,0.4-2.5,0.6-4.4,0.6c-2.8,0-4.8-0.8-6.1-2.4c-1.3-1.6-1.9-4-1.9-7.2v-24.7h-6.8v-3.3h6.8v-9.5H505.7z"/>
			<path d="M544,360.1c0-2-0.8-3.7-2.4-4.9s-4.1-2.2-7.4-2.9c-3.3-0.7-5.8-1.5-7.6-2.4c-1.8-0.9-3.2-2-4-3.3s-1.3-2.9-1.3-4.7
				c0-2.9,1.2-5.3,3.7-7.2c2.4-1.9,5.6-2.9,9.4-2.9c4.1,0,7.4,1,9.9,3.1c2.5,2,3.7,4.7,3.7,8h-4.1c0-2.2-0.9-4-2.7-5.4
				s-4.1-2.2-6.9-2.2c-2.7,0-4.8,0.6-6.5,1.8c-1.6,1.2-2.4,2.8-2.4,4.7c0,1.8,0.7,3.3,2,4.3s3.8,1.9,7.4,2.8
				c3.6,0.8,6.3,1.7,8.1,2.7s3.1,2.1,4,3.5c0.9,1.3,1.3,3,1.3,4.9c0,3.1-1.3,5.6-3.8,7.5c-2.5,1.9-5.8,2.8-9.9,2.8
				c-4.3,0-7.8-1-10.5-3.1c-2.7-2.1-4-4.7-4-7.9h4.1c0.2,2.4,1.2,4.3,3,5.6c1.9,1.3,4.3,2,7.4,2c2.8,0,5.1-0.6,6.9-1.9
				C543.1,363.6,544,362,544,360.1z"/>
			<path d="M556.9,367c0-0.8,0.3-1.5,0.8-2s1.2-0.8,2.1-0.8c0.9,0,1.6,0.3,2.2,0.8c0.5,0.6,0.8,1.2,0.8,2c0,0.8-0.3,1.5-0.8,2
				c-0.5,0.5-1.2,0.8-2.2,0.8c-0.9,0-1.6-0.3-2.1-0.8C557.2,368.5,556.9,367.8,556.9,367z"/>
			<path d="M573.6,367c0-0.8,0.3-1.5,0.8-2s1.2-0.8,2.1-0.8c0.9,0,1.6,0.3,2.2,0.8c0.5,0.6,0.8,1.2,0.8,2c0,0.8-0.3,1.5-0.8,2
				c-0.5,0.5-1.2,0.8-2.2,0.8c-0.9,0-1.6-0.3-2.1-0.8C573.9,368.5,573.6,367.8,573.6,367z"/>
			<path d="M590.6,367.1c0-0.8,0.2-1.4,0.8-2c0.5-0.5,1.2-0.8,2.1-0.8c0.9,0,1.6,0.3,2.1,0.8s0.8,1.2,0.8,2c0,0.8-0.3,1.4-0.8,1.9
				c-0.5,0.5-1.2,0.8-2.1,0.8c-0.9,0-1.5-0.3-2.1-0.8C590.9,368.5,590.6,367.8,590.6,367.1z M595.1,355.6h-3.8l-0.2-35.9h4.2
				L595.1,355.6z"/>
		</g>
		<polygon class="st1" points="124.2,84.3 -3.2,84.3 113.2,180.3 		"/>
	</g>
</g>
</svg>
