<?xml version="1.0" encoding="utf-8"?>
<!-- Generator: Adobe Illustrator 21.0.0, SVG Export Plug-In . SVG Version: 6.00 Build 0)  -->
<svg version="1.1" xmlns="http://www.w3.org/2000/svg" xmlns:xlink="http://www.w3.org/1999/xlink" x="0px" y="0px"
	 viewBox="0 0 1197.2 516" style="enable-background:new 0 0 1197.2 516;" xml:space="preserve">
<style type="text/css">
	.st0{fill:#0E97E7;}
	.st1{fill:#FFFFFF;}
	.st2{fill:none;stroke:#FFFFFF;stroke-width:18;stroke-miterlimit:10;}
	.st3{fill:none;stroke:#FFFFFF;stroke-width:5;stroke-miterlimit:10;}
	.st4{opacity:0.5;fill:none;stroke:#000000;stroke-width:1.5;stroke-miterlimit:10;}
	.st5{fill:none;stroke:#000000;stroke-width:8;stroke-miterlimit:10;}
	.st6{fill:#4F4F4F;}
	.st7{fill:none;stroke:#FFFFFF;stroke-width:16;stroke-miterlimit:10;}
	.st8{fill:none;stroke:#DF0920;stroke-width:18;stroke-miterlimit:10;}
	.st9{fill:none;stroke:#3E4098;stroke-width:18;stroke-miterlimit:10;}
	.st10{fill:#3E4098;}
	.st11{fill:none;stroke:#59C24F;stroke-width:18;stroke-miterlimit:10;}
	.st12{fill:none;}
</style>
<g id="Home_x5F_Claire_x5F_Juglair_x5F_St_x5F_Nazaire_xA0_Image_1_">
</g>
<g id="Calque_3">
</g>
<g id="bulles">
	<g>
		<path class="st1" d="M111.4,487c0,18.8,15.2,34,34,34h1018c18.8,0,34-15.2,34-34V39c0-18.8-15.2-34-34-34h-1018
			c-18.8,0-34,15.2-34,34V487z"/>
		<polygon class="st1" points="122.6,79 -4.9,79 111.5,175 		"/>
		<g>
			<path d="M253.5,152.5c-0.6,5.2-2.4,9.3-5.6,12c-3.2,2.8-7.4,4.2-12.7,4.2c-3.7,0-7-0.9-9.8-2.8s-5-4.5-6.6-7.8
				c-1.5-3.4-2.3-7.3-2.4-11.6V140c0-4.4,0.8-8.3,2.3-11.8c1.5-3.4,3.8-6.1,6.7-7.9c2.9-1.9,6.2-2.8,10-2.8c5.3,0,9.5,1.4,12.6,4.3
				s4.9,6.8,5.4,11.9h-4.2c-1-8.5-5.6-12.7-13.8-12.7c-4.5,0-8.1,1.7-10.8,5.1c-2.7,3.4-4,8-4,14v6.1c0,5.7,1.3,10.3,3.9,13.8
				s6.1,5.1,10.6,5.1c4.4,0,7.7-1.1,9.9-3.2c2.2-2.1,3.6-5.3,4.1-9.5H253.5z"/>
			<path d="M277.1,168.7c-3.1,0-6-0.8-8.5-2.3c-2.5-1.5-4.5-3.7-5.9-6.5c-1.4-2.8-2.1-5.9-2.1-9.3v-1.5c0-3.6,0.7-6.8,2.1-9.6
				c1.4-2.8,3.3-5.1,5.8-6.7c2.5-1.6,5.1-2.4,8-2.4c4.5,0,8,1.5,10.7,4.6s3.9,7.3,3.9,12.6v2.3h-26.4v0.8c0,4.2,1.2,7.7,3.6,10.5
				s5.4,4.2,9.1,4.2c2.2,0,4.1-0.4,5.8-1.2c1.7-0.8,3.2-2.1,4.6-3.8l2.6,1.9C287.1,166.5,282.8,168.7,277.1,168.7z M276.3,133.8
				c-3.1,0-5.7,1.1-7.8,3.4s-3.4,5.3-3.8,9.1h22.2v-0.4c-0.1-3.6-1.1-6.4-3-8.7C281.9,134.9,279.4,133.8,276.3,133.8z"/>
			<path d="M321.1,158.6c0-2-0.8-3.7-2.4-4.9s-4.1-2.2-7.4-2.9c-3.3-0.7-5.8-1.5-7.6-2.4c-1.8-0.9-3.2-2-4-3.3s-1.3-2.9-1.3-4.7
				c0-2.9,1.2-5.3,3.7-7.2c2.4-1.9,5.6-2.9,9.4-2.9c4.1,0,7.4,1,9.9,3.1c2.5,2,3.7,4.7,3.7,8h-4.1c0-2.2-0.9-4-2.7-5.4
				s-4.1-2.2-6.9-2.2c-2.7,0-4.8,0.6-6.5,1.8c-1.6,1.2-2.4,2.8-2.4,4.7c0,1.8,0.7,3.3,2,4.3s3.8,1.9,7.4,2.8
				c3.6,0.8,6.3,1.7,8.1,2.7s3.1,2.1,4,3.5c0.9,1.3,1.3,3,1.3,4.9c0,3.1-1.3,5.6-3.8,7.5c-2.5,1.9-5.8,2.8-9.9,2.8
				c-4.3,0-7.8-1-10.5-3.1c-2.7-2.1-4-4.7-4-7.9h4.1c0.2,2.4,1.2,4.3,3,5.6c1.9,1.3,4.3,2,7.4,2c2.8,0,5.1-0.6,6.9-1.9
				C320.2,162.1,321.1,160.5,321.1,158.6z"/>
			<path d="M381.1,149.9c0,5.8-1.3,10.3-3.8,13.7c-2.6,3.4-6,5.1-10.3,5.1c-5.1,0-8.9-1.8-11.6-5.3v18.9h-4.1V131h3.8l0.2,5.2
				c2.7-3.9,6.5-5.9,11.6-5.9c4.4,0,7.9,1.7,10.4,5s3.8,8,3.8,13.9V149.9z M377,149.2c0-4.7-1-8.4-2.9-11.2
				c-1.9-2.7-4.6-4.1-8.1-4.1c-2.5,0-4.7,0.6-6.5,1.8c-1.8,1.2-3.2,3-4.1,5.3v17.7c1,2.1,2.4,3.7,4.2,4.9c1.8,1.1,4,1.7,6.5,1.7
				c3.4,0,6.1-1.4,8-4.1S377,154.4,377,149.2z"/>
			<path d="M407.3,134.5c-0.9-0.2-1.8-0.2-2.8-0.2c-2.6,0-4.7,0.7-6.5,2.1c-1.8,1.4-3,3.5-3.8,6.2V168h-4.1v-37h4l0.1,5.9
				c2.2-4.4,5.6-6.6,10.4-6.6c1.1,0,2,0.1,2.7,0.4L407.3,134.5z"/>
			<path d="M410.8,149c0-3.6,0.7-6.8,2.1-9.6c1.4-2.8,3.3-5.1,5.8-6.6c2.5-1.6,5.4-2.4,8.6-2.4c4.9,0,8.9,1.7,12,5.2
				c3.1,3.5,4.6,8,4.6,13.7v0.9c0,3.6-0.7,6.8-2.1,9.7s-3.3,5.1-5.8,6.6c-2.5,1.5-5.4,2.3-8.6,2.3c-4.9,0-8.9-1.7-11.9-5.2
				c-3.1-3.5-4.6-8-4.6-13.7V149z M414.9,150.1c0,4.4,1.1,8,3.4,10.9c2.3,2.8,5.3,4.3,9,4.3c3.7,0,6.7-1.4,9-4.3
				c2.3-2.8,3.4-6.6,3.4-11.2V149c0-2.8-0.5-5.4-1.6-7.8c-1-2.3-2.5-4.2-4.4-5.5c-1.9-1.3-4.1-1.9-6.5-1.9c-3.6,0-6.6,1.4-8.9,4.3
				c-2.3,2.9-3.5,6.6-3.5,11.2V150.1z"/>
			<path d="M456.6,131v41.4c0,3.4-0.8,6-2.5,7.8c-1.6,1.8-4.1,2.7-7.2,2.7c-1.2,0-2.4-0.2-3.6-0.6l0.1-3.4c1,0.3,2,0.4,3.1,0.4
				c4.1,0,6.1-2.3,6.1-7V131H456.6z M454.6,117.6c0.9,0,1.6,0.3,2.1,0.8c0.5,0.5,0.8,1.2,0.8,2c0,0.8-0.3,1.4-0.8,1.9
				c-0.5,0.5-1.2,0.8-2.1,0.8c-0.9,0-1.5-0.3-2-0.8c-0.5-0.5-0.7-1.2-0.7-1.9c0-0.8,0.2-1.4,0.7-2
				C453.1,117.9,453.8,117.6,454.6,117.6z"/>
			<path d="M482.5,168.7c-3.1,0-6-0.8-8.5-2.3c-2.5-1.5-4.5-3.7-5.9-6.5c-1.4-2.8-2.1-5.9-2.1-9.3v-1.5c0-3.6,0.7-6.8,2.1-9.6
				c1.4-2.8,3.3-5.1,5.8-6.7c2.5-1.6,5.1-2.4,8-2.4c4.5,0,8,1.5,10.7,4.6s3.9,7.3,3.9,12.6v2.3H470v0.8c0,4.2,1.2,7.7,3.6,10.5
				s5.4,4.2,9.1,4.2c2.2,0,4.1-0.4,5.8-1.2c1.7-0.8,3.2-2.1,4.6-3.8l2.6,1.9C492.6,166.5,488.2,168.7,482.5,168.7z M481.8,133.8
				c-3.1,0-5.7,1.1-7.8,3.4s-3.4,5.3-3.8,9.1h22.2v-0.4c-0.1-3.6-1.1-6.4-3-8.7C487.4,134.9,484.9,133.8,481.8,133.8z"/>
			<path d="M510.7,121.6v9.5h7.7v3.3h-7.7V159c0,2.1,0.4,3.6,1.1,4.6c0.7,1,2,1.5,3.7,1.5c0.7,0,1.8-0.1,3.3-0.3l0.2,3.3
				c-1.1,0.4-2.5,0.6-4.4,0.6c-2.8,0-4.8-0.8-6.1-2.4c-1.3-1.6-1.9-4-1.9-7.2v-24.7h-6.8V131h6.8v-9.5H510.7z"/>
			<path d="M549,158.6c0-2-0.8-3.7-2.4-4.9s-4.1-2.2-7.4-2.9c-3.3-0.7-5.8-1.5-7.6-2.4c-1.8-0.9-3.2-2-4-3.3s-1.3-2.9-1.3-4.7
				c0-2.9,1.2-5.3,3.7-7.2c2.4-1.9,5.6-2.9,9.4-2.9c4.1,0,7.4,1,9.9,3.1c2.5,2,3.7,4.7,3.7,8h-4.1c0-2.2-0.9-4-2.7-5.4
				s-4.1-2.2-6.9-2.2c-2.7,0-4.8,0.6-6.5,1.8c-1.6,1.2-2.4,2.8-2.4,4.7c0,1.8,0.7,3.3,2,4.3s3.8,1.9,7.4,2.8
				c3.6,0.8,6.3,1.7,8.1,2.7s3.1,2.1,4,3.5c0.9,1.3,1.3,3,1.3,4.9c0,3.1-1.3,5.6-3.8,7.5c-2.5,1.9-5.8,2.8-9.9,2.8
				c-4.3,0-7.8-1-10.5-3.1c-2.7-2.1-4-4.7-4-7.9h4.1c0.2,2.4,1.2,4.3,3,5.6c1.9,1.3,4.3,2,7.4,2c2.8,0,5.1-0.6,6.9-1.9
				C548.1,162.1,549,160.5,549,158.6z"/>
			<path d="M577.1,149c0-3.6,0.7-6.8,2.1-9.6c1.4-2.8,3.3-5.1,5.8-6.6c2.5-1.6,5.4-2.4,8.6-2.4c4.9,0,8.9,1.7,12,5.2
				c3.1,3.5,4.6,8,4.6,13.7v0.9c0,3.6-0.7,6.8-2.1,9.7s-3.3,5.1-5.8,6.6c-2.5,1.5-5.4,2.3-8.6,2.3c-4.9,0-8.9-1.7-11.9-5.2
				c-3.1-3.5-4.6-8-4.6-13.7V149z M581.2,150.1c0,4.4,1.1,8,3.4,10.9c2.3,2.8,5.3,4.3,9,4.3c3.7,0,6.7-1.4,9-4.3
				c2.3-2.8,3.4-6.6,3.4-11.2V149c0-2.8-0.5-5.4-1.6-7.8c-1-2.3-2.5-4.2-4.4-5.5c-1.9-1.3-4.1-1.9-6.5-1.9c-3.6,0-6.6,1.4-8.9,4.3
				c-2.3,2.9-3.5,6.6-3.5,11.2V150.1z"/>
			<path d="M622.4,131l0.1,6.3c1.4-2.3,3.1-4,5.2-5.2c2.1-1.2,4.4-1.8,6.9-1.8c4,0,6.9,1.1,8.9,3.3c1.9,2.2,2.9,5.6,2.9,10V168h-4.1
				v-24.3c0-3.3-0.7-5.8-2.1-7.4c-1.4-1.6-3.6-2.4-6.6-2.4c-2.5,0-4.8,0.8-6.7,2.4c-1.9,1.6-3.4,3.7-4.3,6.4V168h-4.1v-37H622.4z"/>
			<path d="M663.3,121.6v9.5h7.7v3.3h-7.7V159c0,2.1,0.4,3.6,1.1,4.6c0.7,1,2,1.5,3.7,1.5c0.7,0,1.8-0.1,3.3-0.3l0.2,3.3
				c-1.1,0.4-2.5,0.6-4.4,0.6c-2.8,0-4.8-0.8-6.1-2.4c-1.3-1.6-1.9-4-1.9-7.2v-24.7h-6.8V131h6.8v-9.5H663.3z"/>
			<path d="M726.2,149.9c0,5.8-1.3,10.3-3.8,13.7c-2.6,3.4-6,5.1-10.3,5.1c-5.1,0-8.9-1.8-11.6-5.3v18.9h-4.1V131h3.8l0.2,5.2
				c2.7-3.9,6.5-5.9,11.6-5.9c4.4,0,7.9,1.7,10.4,5s3.8,8,3.8,13.9V149.9z M722.1,149.2c0-4.7-1-8.4-2.9-11.2
				c-1.9-2.7-4.6-4.1-8.1-4.1c-2.5,0-4.7,0.6-6.5,1.8c-1.8,1.2-3.2,3-4.1,5.3v17.7c1,2.1,2.4,3.7,4.2,4.9c1.8,1.1,4,1.7,6.5,1.7
				c3.4,0,6.1-1.4,8-4.1S722.1,154.4,722.1,149.2z"/>
			<path d="M733,149c0-3.6,0.7-6.8,2.1-9.6c1.4-2.8,3.3-5.1,5.8-6.6c2.5-1.6,5.4-2.4,8.6-2.4c4.9,0,8.9,1.7,12,5.2
				c3.1,3.5,4.6,8,4.6,13.7v0.9c0,3.6-0.7,6.8-2.1,9.7s-3.3,5.1-5.8,6.6c-2.5,1.5-5.4,2.3-8.6,2.3c-4.9,0-8.9-1.7-11.9-5.2
				c-3.1-3.5-4.6-8-4.6-13.7V149z M737.1,150.1c0,4.4,1.1,8,3.4,10.9c2.3,2.8,5.3,4.3,9,4.3c3.7,0,6.7-1.4,9-4.3
				c2.3-2.8,3.4-6.6,3.4-11.2V149c0-2.8-0.5-5.4-1.6-7.8c-1-2.3-2.5-4.2-4.4-5.5c-1.9-1.3-4.1-1.9-6.5-1.9c-3.6,0-6.6,1.4-8.9,4.3
				c-2.3,2.9-3.5,6.6-3.5,11.2V150.1z"/>
			<path d="M798.3,163.3c-2.5,3.6-6.4,5.4-11.8,5.4c-3.9,0-6.9-1.1-9-3.4c-2.1-2.3-3.1-5.7-3.1-10.2V131h4.1v23.5
				c0,7,2.8,10.6,8.5,10.6c5.9,0,9.7-2.4,11.2-7.3V131h4.1v37h-4L798.3,163.3z"/>
			<path d="M830,134.5c-0.9-0.2-1.8-0.2-2.8-0.2c-2.6,0-4.7,0.7-6.5,2.1c-1.8,1.4-3,3.5-3.8,6.2V168h-4.1v-37h4l0.1,5.9
				c2.2-4.4,5.6-6.6,10.4-6.6c1.1,0,2,0.1,2.7,0.4L830,134.5z"/>
			<path d="M883.3,149.9c0,5.8-1.3,10.3-3.8,13.7c-2.6,3.4-6,5.1-10.3,5.1c-5.2,0-9-1.9-11.7-5.7l-0.2,5.1h-3.8v-52.5h4.1v20.9
				c2.6-4,6.4-6,11.6-6c4.4,0,7.8,1.7,10.4,5s3.8,8,3.8,13.9V149.9z M879.2,149.2c0-4.9-0.9-8.6-2.8-11.3c-1.9-2.7-4.6-4-8-4
				c-2.6,0-4.8,0.6-6.7,1.9c-1.8,1.3-3.2,3.2-4.1,5.7v16.7c2.1,4.6,5.7,7,10.9,7c3.4,0,6-1.3,7.9-4S879.2,154.5,879.2,149.2z"/>
			<path d="M916.1,163.3c-2.5,3.6-6.4,5.4-11.8,5.4c-3.9,0-6.9-1.1-9-3.4c-2.1-2.3-3.1-5.7-3.1-10.2V131h4.1v23.5
				c0,7,2.8,10.6,8.5,10.6c5.9,0,9.7-2.4,11.2-7.3V131h4.1v37h-4L916.1,163.3z"/>
			<path d="M937.1,121.6v9.5h7.7v3.3h-7.7V159c0,2.1,0.4,3.6,1.1,4.6c0.7,1,2,1.5,3.7,1.5c0.7,0,1.8-0.1,3.3-0.3l0.2,3.3
				c-1.1,0.4-2.5,0.6-4.4,0.6c-2.8,0-4.8-0.8-6.1-2.4c-1.3-1.6-1.9-4-1.9-7.2v-24.7h-6.8V131h6.8v-9.5H937.1z"/>
			<path d="M215.6,233.2c0-5.7,1.3-10.3,3.8-13.7c2.6-3.4,6-5.1,10.4-5.1c5,0,8.8,2,11.4,5.9v-20.7h4.1V252h-3.8l-0.2-4.9
				c-2.6,3.7-6.5,5.6-11.6,5.6c-4.3,0-7.7-1.7-10.3-5.1c-2.6-3.4-3.9-8.1-3.9-13.9V233.2z M219.8,233.9c0,4.7,0.9,8.4,2.8,11.2
				c1.9,2.7,4.6,4.1,8,4.1c5,0,8.6-2.2,10.7-6.7v-17.4c-2.1-4.8-5.7-7.2-10.7-7.2c-3.4,0-6.1,1.3-8,4.1
				C220.7,224.6,219.8,228.6,219.8,233.9z"/>
			<path d="M255.4,214.4l-2.4-1.8c2.1-2.8,3.1-5.7,3.2-8.7v-4.5h4v3.5C260.2,207.7,258.6,211.5,255.4,214.4z"/>
			<path d="M290.3,252c-0.4-1.2-0.7-2.9-0.8-5.2c-1.4,1.9-3.3,3.3-5.5,4.3c-2.2,1-4.6,1.5-7.1,1.5c-3.6,0-6.4-1-8.6-3
				s-3.3-4.5-3.3-7.5c0-3.6,1.5-6.4,4.5-8.5c3-2.1,7.2-3.1,12.5-3.1h7.4v-4.2c0-2.6-0.8-4.7-2.4-6.2c-1.6-1.5-4-2.3-7.1-2.3
				c-2.8,0-5.2,0.7-7.1,2.2c-1.9,1.5-2.8,3.2-2.8,5.3l-4.1,0c0-2.9,1.4-5.5,4.1-7.6c2.7-2.2,6.1-3.2,10.1-3.2c4.1,0,7.4,1,9.8,3.1
				s3.6,4.9,3.7,8.6v17.5c0,3.6,0.4,6.3,1.1,8v0.4H290.3z M277.4,249.1c2.7,0,5.2-0.7,7.3-2c2.2-1.3,3.7-3.1,4.7-5.3v-8.1h-7.3
				c-4.1,0-7.3,0.8-9.6,2.2c-2.3,1.4-3.5,3.4-3.5,6c0,2.1,0.8,3.8,2.3,5.2S274.9,249.1,277.4,249.1z"/>
			<path d="M308.1,215l0.1,6c1.4-2.2,3.1-3.9,5.1-5c2.1-1.1,4.3-1.7,6.8-1.7c5.8,0,9.5,2.4,11.1,7.2c1.3-2.3,3.1-4.1,5.3-5.3
				c2.2-1.2,4.6-1.9,7.3-1.9c7.9,0,12,4.3,12.1,13V252H352v-24.4c0-3.3-0.7-5.8-2.1-7.3c-1.4-1.6-3.7-2.4-6.9-2.4
				c-2.9,0-5.4,1-7.5,2.9c-2,1.9-3.2,4.1-3.4,6.8V252h-4.1v-24.7c0-3.2-0.8-5.5-2.2-7.1s-3.7-2.3-6.8-2.3c-2.6,0-4.8,0.7-6.6,2.2
				c-1.8,1.5-3.2,3.7-4.1,6.5V252h-4.1v-37H308.1z"/>
			<path d="M380.8,252.7c-3.1,0-6-0.8-8.5-2.3c-2.5-1.5-4.5-3.7-5.9-6.5c-1.4-2.8-2.1-5.9-2.1-9.3v-1.5c0-3.6,0.7-6.8,2.1-9.6
				c1.4-2.8,3.3-5.1,5.8-6.7c2.5-1.6,5.1-2.4,8-2.4c4.5,0,8,1.5,10.7,4.6s3.9,7.3,3.9,12.6v2.3h-26.4v0.8c0,4.2,1.2,7.7,3.6,10.5
				s5.4,4.2,9.1,4.2c2.2,0,4.1-0.4,5.8-1.2c1.7-0.8,3.2-2.1,4.6-3.8l2.6,1.9C390.8,250.5,386.5,252.7,380.8,252.7z M380,217.8
				c-3.1,0-5.7,1.1-7.8,3.4s-3.4,5.3-3.8,9.1h22.2v-0.4c-0.1-3.6-1.1-6.4-3-8.7C385.6,218.9,383.1,217.8,380,217.8z M384.6,199.9h5
				l-7.9,9.5l-3.6,0L384.6,199.9z"/>
			<path d="M407.2,252h-4.1v-52.5h4.1V252z"/>
			<path d="M418.1,204.3c0-0.8,0.2-1.4,0.8-2c0.5-0.5,1.2-0.8,2.1-0.8c0.9,0,1.6,0.3,2.1,0.8c0.5,0.5,0.8,1.2,0.8,2
				c0,0.8-0.3,1.4-0.8,1.9c-0.5,0.5-1.2,0.8-2.1,0.8c-0.9,0-1.5-0.3-2.1-0.8C418.3,205.8,418.1,205.1,418.1,204.3z M422.9,252h-4.1
				v-37h4.1V252z"/>
			<path d="M431.7,233c0-3.6,0.7-6.8,2.1-9.6c1.4-2.8,3.3-5.1,5.8-6.6c2.5-1.6,5.4-2.4,8.6-2.4c4.9,0,8.9,1.7,12,5.2
				c3.1,3.5,4.6,8,4.6,13.7v0.9c0,3.6-0.7,6.8-2.1,9.7s-3.3,5.1-5.8,6.6c-2.5,1.5-5.4,2.3-8.6,2.3c-4.9,0-8.9-1.7-11.9-5.2
				c-3.1-3.5-4.6-8-4.6-13.7V233z M435.8,234.1c0,4.4,1.1,8,3.4,10.9c2.3,2.8,5.3,4.3,9,4.3c3.7,0,6.7-1.4,9-4.3
				c2.3-2.8,3.4-6.6,3.4-11.2V233c0-2.8-0.5-5.4-1.6-7.8c-1-2.3-2.5-4.2-4.4-5.5c-1.9-1.3-4.1-1.9-6.5-1.9c-3.6,0-6.6,1.4-8.9,4.3
				c-2.3,2.9-3.5,6.6-3.5,11.2V234.1z"/>
			<path d="M490.3,218.5c-0.9-0.2-1.8-0.2-2.8-0.2c-2.6,0-4.7,0.7-6.5,2.1c-1.8,1.4-3,3.5-3.8,6.2V252h-4.1v-37h4l0.1,5.9
				c2.2-4.4,5.6-6.6,10.4-6.6c1.1,0,2,0.1,2.7,0.4L490.3,218.5z"/>
			<path d="M510.4,252.7c-3.1,0-6-0.8-8.5-2.3c-2.5-1.5-4.5-3.7-5.9-6.5c-1.4-2.8-2.1-5.9-2.1-9.3v-1.5c0-3.6,0.7-6.8,2.1-9.6
				c1.4-2.8,3.3-5.1,5.8-6.7c2.5-1.6,5.1-2.4,8-2.4c4.5,0,8,1.5,10.7,4.6s3.9,7.3,3.9,12.6v2.3h-26.4v0.8c0,4.2,1.2,7.7,3.6,10.5
				s5.4,4.2,9.1,4.2c2.2,0,4.1-0.4,5.8-1.2c1.7-0.8,3.2-2.1,4.6-3.8l2.6,1.9C520.5,250.5,516.1,252.7,510.4,252.7z M509.7,217.8
				c-3.1,0-5.7,1.1-7.8,3.4s-3.4,5.3-3.8,9.1h22.2v-0.4c-0.1-3.6-1.1-6.4-3-8.7C515.3,218.9,512.8,217.8,509.7,217.8z"/>
			<path d="M549.3,218.5c-0.9-0.2-1.8-0.2-2.8-0.2c-2.6,0-4.7,0.7-6.5,2.1c-1.8,1.4-3,3.5-3.8,6.2V252h-4.1v-37h4l0.1,5.9
				c2.2-4.4,5.6-6.6,10.4-6.6c1.1,0,2,0.1,2.7,0.4L549.3,218.5z"/>
			<path d="M585.1,239.9L592,215h10.3l-12.5,37h-9.4l-12.5-37h10.3L585.1,239.9z"/>
			<path d="M604.6,233.2c0-3.7,0.7-6.9,2.1-9.8c1.4-2.9,3.4-5.1,6.1-6.7s5.7-2.4,9.2-2.4c5,0,9.1,1.5,12.2,4.6
				c3.2,3.1,4.9,7.2,5.3,12.4l0.1,2.5c0,5.7-1.6,10.2-4.8,13.7c-3.2,3.4-7.4,5.1-12.7,5.1s-9.6-1.7-12.8-5.1s-4.8-8.1-4.8-13.9
				V233.2z M614.5,233.9c0,3.5,0.7,6.2,2,8.1c1.3,1.9,3.2,2.8,5.7,2.8c2.4,0,4.3-0.9,5.6-2.8c1.3-1.8,2-4.8,2-8.8c0-3.4-0.7-6.1-2-8
				c-1.3-1.9-3.2-2.8-5.7-2.8c-2.4,0-4.3,0.9-5.6,2.8C615.1,227,614.5,229.9,614.5,233.9z"/>
			<path d="M657.5,205.9v9.1h6.3v7.2h-6.3v18.5c0,1.4,0.3,2.3,0.8,2.9c0.5,0.6,1.5,0.9,3,0.9c1.1,0,2.1-0.1,2.9-0.2v7.5
				c-1.9,0.6-3.9,0.9-6,0.9c-6.9,0-10.5-3.5-10.6-10.5v-19.9h-5.4V215h5.4v-9.1H657.5z"/>
			<path d="M690.2,224.3c-1.3-0.2-2.5-0.3-3.6-0.3c-3.7,0-6.2,1.3-7.3,3.8V252h-9.9v-37h9.3l0.3,4.4c2-3.4,4.7-5.1,8.2-5.1
				c1.1,0,2.1,0.1,3.1,0.4L690.2,224.3z"/>
			<path d="M711.3,252.7c-5.4,0-9.8-1.7-13.2-5c-3.4-3.3-5.1-7.8-5.1-13.3v-1c0-3.7,0.7-7,2.2-10c1.4-2.9,3.5-5.2,6.1-6.8
				c2.6-1.6,5.6-2.4,9-2.4c5.1,0,9,1.6,11.9,4.8c2.9,3.2,4.4,7.7,4.4,13.6v4h-23.5c0.3,2.4,1.3,4.4,2.9,5.8c1.6,1.5,3.6,2.2,6.1,2.2
				c3.8,0,6.8-1.4,8.9-4.1l4.9,5.4c-1.5,2.1-3.5,3.7-6,4.9C717.2,252.1,714.4,252.7,711.3,252.7z M710.2,222.3c-2,0-3.5,0.7-4.8,2
				c-1.2,1.3-2,3.2-2.3,5.7h13.7v-0.8c0-2.2-0.6-3.9-1.8-5.1C713.9,222.9,712.2,222.3,710.2,222.3z"/>
			<path d="M763.4,239.9l6.9-24.9h10.3l-12.5,37h-9.4l-12.5-37h10.3L763.4,239.9z"/>
			<path d="M784.8,205.4c0-1.5,0.5-2.7,1.5-3.7c1-1,2.3-1.4,4-1.4c1.7,0,3,0.5,4,1.4c1,1,1.5,2.2,1.5,3.7c0,1.5-0.5,2.7-1.5,3.7
				c-1,1-2.4,1.4-4,1.4c-1.7,0-3-0.5-4-1.4S784.8,207,784.8,205.4z M795.3,252h-9.9v-37h9.9V252z"/>
			<path d="M820.5,252.7c-5.4,0-9.8-1.7-13.2-5c-3.4-3.3-5.1-7.8-5.1-13.3v-1c0-3.7,0.7-7,2.2-10c1.4-2.9,3.5-5.2,6.1-6.8
				c2.6-1.6,5.6-2.4,9-2.4c5.1,0,9,1.6,11.9,4.8c2.9,3.2,4.4,7.7,4.4,13.6v4h-23.5c0.3,2.4,1.3,4.4,2.9,5.8c1.6,1.5,3.6,2.2,6.1,2.2
				c3.8,0,6.8-1.4,8.9-4.1l4.9,5.4c-1.5,2.1-3.5,3.7-6,4.9C826.4,252.1,823.6,252.7,820.5,252.7z M819.4,222.3c-2,0-3.5,0.7-4.8,2
				c-1.2,1.3-2,3.2-2.3,5.7H826v-0.8c0-2.2-0.6-3.9-1.8-5.1C823.1,222.9,821.5,222.3,819.4,222.3z"/>
			<path d="M880.2,252c-0.5-0.9-0.8-2-1-3.3c-2.4,2.7-5.5,4-9.3,4c-3.6,0-6.6-1-9-3.1c-2.4-2.1-3.6-4.7-3.6-7.9c0-3.9,1.5-6.9,4.4-9
				c2.9-2.1,7.1-3.2,12.6-3.2h4.5v-2.1c0-1.7-0.4-3.1-1.3-4.1c-0.9-1-2.3-1.5-4.2-1.5c-1.7,0-3,0.4-3.9,1.2
				c-0.9,0.8-1.4,1.9-1.4,3.3h-9.9c0-2.1,0.7-4.1,2-5.9c1.3-1.8,3.2-3.3,5.6-4.3c2.4-1,5.1-1.6,8.1-1.6c4.6,0,8.2,1.1,10.9,3.4
				c2.7,2.3,4,5.5,4,9.7v16c0,3.5,0.5,6.2,1.5,8v0.6H880.2z M872,245.1c1.5,0,2.8-0.3,4-1c1.2-0.7,2.1-1.5,2.7-2.6v-6.4h-3.7
				c-4.9,0-7.6,1.7-7.9,5.1l0,0.6c0,1.2,0.4,2.2,1.3,3C869.3,244.7,870.5,245.1,872,245.1z"/>
			<path d="M918.4,248.2c-2.4,3-5.8,4.4-10.1,4.4c-4,0-7-1.1-9.1-3.4c-2.1-2.3-3.2-5.6-3.2-10V215h9.9v23.9c0,3.9,1.8,5.8,5.3,5.8
				c3.3,0,5.7-1.2,6.9-3.5V215h9.9v37h-9.3L918.4,248.2z"/>
			<path d="M214.2,317.2c0-5.8,1.3-10.4,3.9-13.8c2.6-3.4,6.1-5.1,10.6-5.1c4,0,7.1,1.5,9.5,4.5l0.6-3.9h8.7v51.2h-9.9v-17.4
				c-2.3,2.6-5.3,3.9-9,3.9c-4.4,0-7.9-1.7-10.5-5.1C215.5,328.1,214.2,323.3,214.2,317.2z M224.1,317.9c0,3.5,0.6,6.2,1.9,8.1
				s3,2.8,5.2,2.8c3,0,5.2-1.2,6.4-3.6v-15.3c-1.2-2.3-3.3-3.5-6.4-3.5c-2.3,0-4,0.9-5.3,2.8C224.7,310.9,224.1,313.9,224.1,317.9z"
				/>
			<path d="M277.4,332.2c-2.4,3-5.8,4.4-10.1,4.4c-4,0-7-1.1-9.1-3.4c-2.1-2.3-3.2-5.6-3.2-10V299h9.9v23.9c0,3.9,1.8,5.8,5.3,5.8
				c3.3,0,5.7-1.2,6.9-3.5V299h9.9v37h-9.3L277.4,332.2z"/>
			<path d="M292.9,317.2c0-3.7,0.7-6.9,2.1-9.8c1.4-2.9,3.4-5.1,6.1-6.7s5.7-2.4,9.2-2.4c5,0,9.1,1.5,12.2,4.6
				c3.2,3.1,4.9,7.2,5.3,12.4l0.1,2.5c0,5.7-1.6,10.2-4.8,13.7c-3.2,3.4-7.4,5.1-12.7,5.1s-9.6-1.7-12.8-5.1s-4.8-8.1-4.8-13.9
				V317.2z M302.8,317.9c0,3.5,0.7,6.2,2,8.1c1.3,1.9,3.2,2.8,5.7,2.8c2.4,0,4.3-0.9,5.6-2.8c1.3-1.8,2-4.8,2-8.8c0-3.4-0.7-6.1-2-8
				c-1.3-1.9-3.2-2.8-5.7-2.8c-2.4,0-4.3,0.9-5.6,2.8C303.5,311,302.8,313.9,302.8,317.9z"/>
			<path d="M345.9,289.9v9.1h6.3v7.2h-6.3v18.5c0,1.4,0.3,2.3,0.8,2.9c0.5,0.6,1.5,0.9,3,0.9c1.1,0,2.1-0.1,2.9-0.2v7.5
				c-1.9,0.6-3.9,0.9-6,0.9c-6.9,0-10.5-3.5-10.6-10.5v-19.9h-5.4V299h5.4v-9.1H345.9z"/>
			<path d="M357.6,289.4c0-1.5,0.5-2.7,1.5-3.7s2.3-1.4,4.1-1.4c1.7,0,3,0.5,4,1.4c1,1,1.5,2.2,1.5,3.7c0,1.5-0.5,2.7-1.5,3.7
				s-2.4,1.4-4,1.4c-1.7,0-3-0.5-4-1.4S357.6,291,357.6,289.4z M368.1,336h-9.9v-37h9.9V336z"/>
			<path d="M374.7,317.2c0-5.8,1.3-10.4,3.9-13.8s6.1-5.1,10.6-5.1c3.6,0,6.6,1.3,8.9,4v-18.9h9.9V336h-8.9l-0.5-3.9
				c-2.5,3.1-5.6,4.6-9.5,4.6c-4.4,0-7.8-1.7-10.5-5.1C376,328.1,374.7,323.3,374.7,317.2z M384.6,317.9c0,3.5,0.6,6.1,1.8,8
				c1.2,1.9,3,2.8,5.3,2.8c3.1,0,5.2-1.3,6.5-3.9v-14.7c-1.2-2.6-3.4-3.9-6.4-3.9C387,306.3,384.6,310.2,384.6,317.9z"/>
			<path d="M415.6,289.4c0-1.5,0.5-2.7,1.5-3.7s2.3-1.4,4.1-1.4c1.7,0,3,0.5,4,1.4c1,1,1.5,2.2,1.5,3.7c0,1.5-0.5,2.7-1.5,3.7
				s-2.4,1.4-4,1.4c-1.7,0-3-0.5-4-1.4S415.6,291,415.6,289.4z M426.1,336h-9.9v-37h9.9V336z"/>
			<path d="M451.3,336.7c-5.4,0-9.8-1.7-13.2-5c-3.4-3.3-5.1-7.8-5.1-13.3v-1c0-3.7,0.7-7,2.2-10c1.4-2.9,3.5-5.2,6.1-6.8
				c2.6-1.6,5.6-2.4,9-2.4c5.1,0,9,1.6,11.9,4.8c2.9,3.2,4.4,7.7,4.4,13.6v4h-23.5c0.3,2.4,1.3,4.4,2.9,5.8c1.6,1.5,3.6,2.2,6.1,2.2
				c3.8,0,6.8-1.4,8.9-4.1l4.9,5.4c-1.5,2.1-3.5,3.7-6,4.9C457.2,336.1,454.4,336.7,451.3,336.7z M450.1,306.3c-2,0-3.5,0.7-4.8,2
				c-1.2,1.3-2,3.2-2.3,5.7h13.7v-0.8c0-2.2-0.6-3.9-1.8-5.1C453.9,306.9,452.2,306.3,450.1,306.3z"/>
			<path d="M481.2,299l0.3,4.3c2.6-3.3,6.2-5,10.6-5c3.9,0,6.8,1.2,8.8,3.5c1.9,2.3,2.9,5.7,2.9,10.3V336h-9.9v-23.7
				c0-2.1-0.5-3.6-1.4-4.6c-0.9-0.9-2.4-1.4-4.5-1.4c-2.8,0-4.9,1.2-6.3,3.6V336h-9.9v-37H481.2z"/>
			<path d="M529.3,315.9c0-5,0.6-9.8,1.9-14.5c1.3-4.7,3.1-9,5.6-12.9s5.1-6.7,7.9-8.4l1,2.8c-1.5,1.1-3,2.6-4.5,4.7
				c-1.5,2.1-2.8,4.5-4,7.3c-1.2,2.8-2.1,6-2.8,9.5c-0.7,3.5-1.1,7.5-1.1,12c0,4.8,0.5,9.3,1.6,13.7c1.1,4.4,2.6,8.3,4.5,11.6
				c1.9,3.4,4,5.9,6.3,7.6l-1,2.6c-2.9-1.7-5.6-4.5-8-8.4c-2.5-3.9-4.3-8.1-5.6-12.8C529.9,326.3,529.3,321.3,529.3,315.9z"/>
			<path d="M566.5,336.7c-3.1,0-6-0.8-8.5-2.3c-2.5-1.5-4.5-3.7-5.9-6.5c-1.4-2.8-2.1-5.9-2.1-9.3v-1.5c0-3.6,0.7-6.8,2.1-9.6
				c1.4-2.8,3.3-5.1,5.8-6.7c2.5-1.6,5.1-2.4,8-2.4c4.5,0,8,1.5,10.7,4.6s3.9,7.3,3.9,12.6v2.3H554v0.8c0,4.2,1.2,7.7,3.6,10.5
				s5.4,4.2,9.1,4.2c2.2,0,4.1-0.4,5.8-1.2c1.7-0.8,3.2-2.1,4.6-3.8l2.6,1.9C576.6,334.5,572.2,336.7,566.5,336.7z M565.7,301.8
				c-3.1,0-5.7,1.1-7.8,3.4s-3.4,5.3-3.8,9.1h22.2v-0.4c-0.1-3.6-1.1-6.4-3-8.7C571.3,302.9,568.8,301.8,565.7,301.8z"/>
			<path d="M610.5,326.6c0-2-0.8-3.7-2.4-4.9s-4.1-2.2-7.4-2.9c-3.3-0.7-5.8-1.5-7.6-2.4c-1.8-0.9-3.2-2-4-3.3s-1.3-2.9-1.3-4.7
				c0-2.9,1.2-5.3,3.7-7.2c2.4-1.9,5.6-2.9,9.4-2.9c4.1,0,7.4,1,9.9,3.1c2.5,2,3.7,4.7,3.7,8h-4.1c0-2.2-0.9-4-2.7-5.4
				s-4.1-2.2-6.9-2.2c-2.7,0-4.8,0.6-6.5,1.8c-1.6,1.2-2.4,2.8-2.4,4.7c0,1.8,0.7,3.3,2,4.3s3.8,1.9,7.4,2.8
				c3.6,0.8,6.3,1.7,8.1,2.7s3.1,2.1,4,3.5c0.9,1.3,1.3,3,1.3,4.9c0,3.1-1.3,5.6-3.8,7.5c-2.5,1.9-5.8,2.8-9.9,2.8
				c-4.3,0-7.8-1-10.5-3.1c-2.7-2.1-4-4.7-4-7.9h4.1c0.2,2.4,1.2,4.3,3,5.6c1.9,1.3,4.3,2,7.4,2c2.8,0,5.1-0.6,6.9-1.9
				C609.6,330.1,610.5,328.5,610.5,326.6z"/>
			<path d="M653.5,317.9c0,5.8-1.3,10.3-3.8,13.7c-2.6,3.4-6,5.1-10.3,5.1c-5.1,0-8.9-1.8-11.6-5.3v18.9h-4.1V299h3.8l0.2,5.2
				c2.7-3.9,6.5-5.9,11.6-5.9c4.4,0,7.9,1.7,10.4,5s3.8,8,3.8,13.9V317.9z M649.4,317.2c0-4.7-1-8.4-2.9-11.2
				c-1.9-2.7-4.6-4.1-8.1-4.1c-2.5,0-4.7,0.6-6.5,1.8c-1.8,1.2-3.2,3-4.1,5.3v17.7c1,2.1,2.4,3.7,4.2,4.9c1.8,1.1,4,1.7,6.5,1.7
				c3.4,0,6.1-1.4,8-4.1S649.4,322.4,649.4,317.2z"/>
			<path d="M685.9,336c-0.4-1.2-0.7-2.9-0.8-5.2c-1.4,1.9-3.3,3.3-5.5,4.3c-2.2,1-4.6,1.5-7.1,1.5c-3.6,0-6.4-1-8.6-3
				c-2.2-2-3.3-4.5-3.3-7.5c0-3.6,1.5-6.4,4.5-8.5c3-2.1,7.2-3.1,12.5-3.1h7.4v-4.2c0-2.6-0.8-4.7-2.4-6.2c-1.6-1.5-4-2.3-7.1-2.3
				c-2.8,0-5.2,0.7-7.1,2.2c-1.9,1.5-2.8,3.2-2.8,5.3l-4.1,0c0-2.9,1.4-5.5,4.1-7.6c2.7-2.2,6.1-3.2,10.1-3.2c4.1,0,7.4,1,9.8,3.1
				c2.4,2.1,3.6,4.9,3.7,8.6v17.5c0,3.6,0.4,6.3,1.1,8v0.4H685.9z M673.1,333.1c2.7,0,5.2-0.7,7.3-2c2.2-1.3,3.7-3.1,4.7-5.3v-8.1
				h-7.3c-4.1,0-7.3,0.8-9.6,2.2c-2.3,1.4-3.5,3.4-3.5,6c0,2.1,0.8,3.8,2.3,5.2C668.6,332.4,670.6,333.1,673.1,333.1z"/>
			<path d="M713.7,333.2c2.8,0,5.2-0.8,7.2-2.4c1.9-1.6,3-3.7,3.1-6.2h3.9c-0.1,2.3-0.8,4.3-2.1,6.2s-3,3.3-5.2,4.4
				c-2.2,1-4.5,1.6-6.9,1.6c-4.9,0-8.7-1.7-11.5-5.1c-2.8-3.4-4.3-7.9-4.3-13.6v-1.2c0-3.6,0.6-6.9,1.9-9.7c1.3-2.8,3.1-5,5.5-6.5
				c2.4-1.5,5.2-2.3,8.4-2.3c4.1,0,7.4,1.2,10,3.6c2.6,2.4,4,5.6,4.2,9.5H724c-0.2-2.9-1.2-5.2-3.1-7s-4.3-2.7-7.2-2.7
				c-3.7,0-6.6,1.3-8.6,4s-3.1,6.4-3.1,11.2v1.2c0,4.7,1,8.4,3.1,11C707.1,331.9,710,333.2,713.7,333.2z"/>
			<path d="M750.5,336.7c-3.1,0-6-0.8-8.5-2.3c-2.5-1.5-4.5-3.7-5.9-6.5c-1.4-2.8-2.1-5.9-2.1-9.3v-1.5c0-3.6,0.7-6.8,2.1-9.6
				c1.4-2.8,3.3-5.1,5.8-6.7c2.5-1.6,5.1-2.4,8-2.4c4.5,0,8,1.5,10.7,4.6c2.6,3.1,3.9,7.3,3.9,12.6v2.3h-26.4v0.8
				c0,4.2,1.2,7.7,3.6,10.5c2.4,2.8,5.4,4.2,9.1,4.2c2.2,0,4.1-0.4,5.8-1.2c1.7-0.8,3.2-2.1,4.6-3.8l2.6,1.9
				C760.5,334.5,756.2,336.7,750.5,336.7z M749.7,301.8c-3.1,0-5.7,1.1-7.8,3.4s-3.4,5.3-3.8,9.1h22.2v-0.4c-0.1-3.6-1.1-6.4-3-8.7
				C755.3,302.9,752.8,301.8,749.7,301.8z"/>
			<path d="M794.4,326.6c0-2-0.8-3.7-2.4-4.9c-1.6-1.2-4.1-2.2-7.4-2.9c-3.3-0.7-5.8-1.5-7.6-2.4c-1.8-0.9-3.2-2-4-3.3
				s-1.3-2.9-1.3-4.7c0-2.9,1.2-5.3,3.7-7.2c2.4-1.9,5.6-2.9,9.4-2.9c4.1,0,7.4,1,9.9,3.1c2.5,2,3.7,4.7,3.7,8h-4.1
				c0-2.2-0.9-4-2.7-5.4c-1.8-1.4-4.1-2.2-6.9-2.2c-2.7,0-4.8,0.6-6.5,1.8c-1.6,1.2-2.4,2.8-2.4,4.7c0,1.8,0.7,3.3,2,4.3
				c1.4,1,3.8,1.9,7.4,2.8c3.6,0.8,6.3,1.7,8.1,2.7s3.1,2.1,4,3.5c0.9,1.3,1.3,3,1.3,4.9c0,3.1-1.3,5.6-3.8,7.5
				c-2.5,1.9-5.8,2.8-9.9,2.8c-4.3,0-7.8-1-10.5-3.1c-2.7-2.1-4-4.7-4-7.9h4.1c0.2,2.4,1.2,4.3,3,5.6c1.9,1.3,4.3,2,7.4,2
				c2.8,0,5.1-0.6,6.9-1.9C793.6,330.1,794.4,328.5,794.4,326.6z"/>
			<path d="M854.5,317.9c0,5.8-1.3,10.3-3.8,13.7c-2.6,3.4-6,5.1-10.3,5.1c-5.1,0-8.9-1.8-11.6-5.3v18.9h-4.1V299h3.8l0.2,5.2
				c2.7-3.9,6.5-5.9,11.6-5.9c4.4,0,7.9,1.7,10.4,5s3.8,8,3.8,13.9V317.9z M850.4,317.2c0-4.7-1-8.4-2.9-11.2
				c-1.9-2.7-4.6-4.1-8.1-4.1c-2.5,0-4.7,0.6-6.5,1.8c-1.8,1.2-3.2,3-4.1,5.3v17.7c1,2.1,2.4,3.7,4.2,4.9c1.8,1.1,4,1.7,6.5,1.7
				c3.4,0,6.1-1.4,8-4.1S850.4,322.4,850.4,317.2z"/>
			<path d="M887.3,331.3c-2.5,3.6-6.4,5.4-11.8,5.4c-3.9,0-6.9-1.1-9-3.4c-2.1-2.3-3.1-5.7-3.1-10.2V299h4.1v23.5
				c0,7,2.8,10.6,8.5,10.6c5.9,0,9.7-2.4,11.2-7.3V299h4.1v37h-4L887.3,331.3z"/>
			<path d="M931.8,317.9c0,5.8-1.3,10.3-3.8,13.7c-2.6,3.4-6,5.1-10.3,5.1c-5.2,0-9-1.9-11.7-5.7l-0.2,5.1H902v-52.5h4.1v20.9
				c2.6-4,6.4-6,11.6-6c4.4,0,7.8,1.7,10.4,5s3.8,8,3.8,13.9V317.9z M927.7,317.2c0-4.9-0.9-8.6-2.8-11.3c-1.9-2.7-4.6-4-8-4
				c-2.6,0-4.8,0.6-6.7,1.9c-1.8,1.3-3.2,3.2-4.1,5.7v16.7c2.1,4.6,5.7,7,10.9,7c3.4,0,6-1.3,7.9-4S927.7,322.5,927.7,317.2z"/>
			<path d="M945.4,336h-4.1v-52.5h4.1V336z"/>
			<path d="M956.2,288.3c0-0.8,0.2-1.4,0.8-2c0.5-0.5,1.2-0.8,2.1-0.8c0.9,0,1.6,0.3,2.1,0.8c0.5,0.5,0.8,1.2,0.8,2
				c0,0.8-0.3,1.4-0.8,1.9c-0.5,0.5-1.2,0.8-2.1,0.8c-0.9,0-1.5-0.3-2.1-0.8C956.5,289.8,956.2,289.1,956.2,288.3z M961.1,336H957
				v-37h4.1V336z"/>
			<path d="M985.8,333.2c2.8,0,5.2-0.8,7.2-2.4c1.9-1.6,3-3.7,3.1-6.2h3.9c-0.1,2.3-0.8,4.3-2.1,6.2s-3,3.3-5.2,4.4
				c-2.2,1-4.5,1.6-6.9,1.6c-4.9,0-8.7-1.7-11.5-5.1c-2.8-3.4-4.3-7.9-4.3-13.6v-1.2c0-3.6,0.6-6.9,1.9-9.7c1.3-2.8,3.1-5,5.5-6.5
				c2.4-1.5,5.2-2.3,8.4-2.3c4.1,0,7.4,1.2,10,3.6c2.6,2.4,4,5.6,4.2,9.5h-3.9c-0.2-2.9-1.2-5.2-3.1-7s-4.3-2.7-7.2-2.7
				c-3.7,0-6.6,1.3-8.6,4s-3.1,6.4-3.1,11.2v1.2c0,4.7,1,8.4,3.1,11C979.3,331.9,982.1,333.2,985.8,333.2z"/>
			<path d="M1030.4,326.6c0-2-0.8-3.7-2.4-4.9c-1.6-1.2-4.1-2.2-7.4-2.9c-3.3-0.7-5.8-1.5-7.6-2.4c-1.8-0.9-3.2-2-4-3.3
				s-1.3-2.9-1.3-4.7c0-2.9,1.2-5.3,3.7-7.2c2.4-1.9,5.6-2.9,9.4-2.9c4.1,0,7.4,1,9.9,3.1c2.5,2,3.7,4.7,3.7,8h-4.1
				c0-2.2-0.9-4-2.7-5.4c-1.8-1.4-4.1-2.2-6.9-2.2c-2.7,0-4.8,0.6-6.5,1.8c-1.6,1.2-2.4,2.8-2.4,4.7c0,1.8,0.7,3.3,2,4.3
				c1.4,1,3.8,1.9,7.4,2.8c3.6,0.8,6.3,1.7,8.1,2.7s3.1,2.1,4,3.5c0.9,1.3,1.3,3,1.3,4.9c0,3.1-1.3,5.6-3.8,7.5
				c-2.5,1.9-5.8,2.8-9.9,2.8c-4.3,0-7.8-1-10.5-3.1c-2.7-2.1-4-4.7-4-7.9h4.1c0.2,2.4,1.2,4.3,3,5.6c1.9,1.3,4.3,2,7.4,2
				c2.8,0,5.1-0.6,6.9-1.9C1029.5,330.1,1030.4,328.5,1030.4,326.6z"/>
			<path d="M1042.8,345.3l-2.4-1.8c2.1-2.8,3.1-5.7,3.2-8.6v-5.3h4v4.3C1047.6,338.6,1046,342.4,1042.8,345.3z"/>
			<path d="M221.9,420h-4.1v-52.5h4.1V420z"/>
			<path d="M230.7,401c0-3.6,0.7-6.8,2.1-9.6c1.4-2.8,3.3-5.1,5.8-6.6c2.5-1.6,5.4-2.4,8.6-2.4c4.9,0,8.9,1.7,12,5.2
				c3.1,3.5,4.6,8,4.6,13.7v0.9c0,3.6-0.7,6.8-2.1,9.7s-3.3,5.1-5.8,6.6c-2.5,1.5-5.4,2.3-8.6,2.3c-4.9,0-8.9-1.7-11.9-5.2
				c-3.1-3.5-4.6-8-4.6-13.7V401z M234.8,402.1c0,4.4,1.1,8,3.4,10.9c2.3,2.8,5.3,4.3,9,4.3c3.7,0,6.7-1.4,9-4.3
				c2.3-2.8,3.4-6.6,3.4-11.2V401c0-2.8-0.5-5.4-1.6-7.8c-1-2.3-2.5-4.2-4.4-5.5c-1.9-1.3-4.1-1.9-6.5-1.9c-3.6,0-6.6,1.4-8.9,4.3
				c-2.3,2.9-3.5,6.6-3.5,11.2V402.1z"/>
			<path d="M271.9,372.3c0-0.8,0.2-1.4,0.8-2c0.5-0.5,1.2-0.8,2.1-0.8c0.9,0,1.6,0.3,2.1,0.8c0.5,0.5,0.8,1.2,0.8,2
				c0,0.8-0.3,1.4-0.8,1.9c-0.5,0.5-1.2,0.8-2.1,0.8c-0.9,0-1.5-0.3-2.1-0.8C272.2,373.8,271.9,373.1,271.9,372.3z M276.8,420h-4.1
				v-37h4.1V420z"/>
			<path d="M310,410.6c0-2-0.8-3.7-2.4-4.9s-4.1-2.2-7.4-2.9c-3.3-0.7-5.8-1.5-7.6-2.4c-1.8-0.9-3.2-2-4-3.3s-1.3-2.9-1.3-4.7
				c0-2.9,1.2-5.3,3.7-7.2c2.4-1.9,5.6-2.9,9.4-2.9c4.1,0,7.4,1,9.9,3.1c2.5,2,3.7,4.7,3.7,8h-4.1c0-2.2-0.9-4-2.7-5.4
				s-4.1-2.2-6.9-2.2c-2.7,0-4.8,0.6-6.5,1.8c-1.6,1.2-2.4,2.8-2.4,4.7c0,1.8,0.7,3.3,2,4.3s3.8,1.9,7.4,2.8
				c3.6,0.8,6.3,1.7,8.1,2.7s3.1,2.1,4,3.5c0.9,1.3,1.3,3,1.3,4.9c0,3.1-1.3,5.6-3.8,7.5c-2.5,1.9-5.8,2.8-9.9,2.8
				c-4.3,0-7.8-1-10.5-3.1c-2.7-2.1-4-4.7-4-7.9h4.1c0.2,2.4,1.2,4.3,3,5.6c1.9,1.3,4.3,2,7.4,2c2.8,0,5.1-0.6,6.9-1.9
				C309.1,414.1,310,412.5,310,410.6z"/>
			<path d="M323.1,372.3c0-0.8,0.2-1.4,0.8-2c0.5-0.5,1.2-0.8,2.1-0.8c0.9,0,1.6,0.3,2.1,0.8c0.5,0.5,0.8,1.2,0.8,2
				c0,0.8-0.3,1.4-0.8,1.9c-0.5,0.5-1.2,0.8-2.1,0.8c-0.9,0-1.5-0.3-2.1-0.8C323.3,373.8,323.1,373.1,323.1,372.3z M327.9,420h-4.1
				v-37h4.1V420z"/>
			<path d="M356.1,386.5c-0.9-0.2-1.8-0.2-2.8-0.2c-2.6,0-4.7,0.7-6.5,2.1c-1.8,1.4-3,3.5-3.8,6.2V420H339v-37h4l0.1,5.9
				c2.2-4.4,5.6-6.6,10.4-6.6c1.1,0,2,0.1,2.7,0.4L356.1,386.5z"/>
			<path d="M384.7,410.6c0-2-0.8-3.7-2.4-4.9s-4.1-2.2-7.4-2.9c-3.3-0.7-5.8-1.5-7.6-2.4c-1.8-0.9-3.2-2-4-3.3s-1.3-2.9-1.3-4.7
				c0-2.9,1.2-5.3,3.7-7.2c2.4-1.9,5.6-2.9,9.4-2.9c4.1,0,7.4,1,9.9,3.1c2.5,2,3.7,4.7,3.7,8h-4.1c0-2.2-0.9-4-2.7-5.4
				s-4.1-2.2-6.9-2.2c-2.7,0-4.8,0.6-6.5,1.8c-1.6,1.2-2.4,2.8-2.4,4.7c0,1.8,0.7,3.3,2,4.3s3.8,1.9,7.4,2.8
				c3.6,0.8,6.3,1.7,8.1,2.7s3.1,2.1,4,3.5c0.9,1.3,1.3,3,1.3,4.9c0,3.1-1.3,5.6-3.8,7.5c-2.5,1.9-5.8,2.8-9.9,2.8
				c-4.3,0-7.8-1-10.5-3.1c-2.7-2.1-4-4.7-4-7.9h4.1c0.2,2.4,1.2,4.3,3,5.6c1.9,1.3,4.3,2,7.4,2c2.8,0,5.1-0.6,6.9-1.9
				C383.8,414.1,384.7,412.5,384.7,410.6z"/>
			<path d="M397.1,429.3l-2.4-1.8c2.1-2.8,3.1-5.7,3.2-8.6v-5.3h4v4.3C401.9,422.6,400.3,426.4,397.1,429.3z"/>
			<path d="M450.6,410.6c0-2-0.8-3.7-2.4-4.9s-4.1-2.2-7.4-2.9c-3.3-0.7-5.8-1.5-7.6-2.4c-1.8-0.9-3.2-2-4-3.3s-1.3-2.9-1.3-4.7
				c0-2.9,1.2-5.3,3.7-7.2c2.4-1.9,5.6-2.9,9.4-2.9c4.1,0,7.4,1,9.9,3.1c2.5,2,3.7,4.7,3.7,8h-4.1c0-2.2-0.9-4-2.7-5.4
				s-4.1-2.2-6.9-2.2c-2.7,0-4.8,0.6-6.5,1.8c-1.6,1.2-2.4,2.8-2.4,4.7c0,1.8,0.7,3.3,2,4.3s3.8,1.9,7.4,2.8
				c3.6,0.8,6.3,1.7,8.1,2.7s3.1,2.1,4,3.5c0.9,1.3,1.3,3,1.3,4.9c0,3.1-1.3,5.6-3.8,7.5c-2.5,1.9-5.8,2.8-9.9,2.8
				c-4.3,0-7.8-1-10.5-3.1c-2.7-2.1-4-4.7-4-7.9h4.1c0.2,2.4,1.2,4.3,3,5.6c1.9,1.3,4.3,2,7.4,2c2.8,0,5.1-0.6,6.9-1.9
				C449.7,414.1,450.6,412.5,450.6,410.6z"/>
			<path d="M478.2,420.7c-3.1,0-6-0.8-8.5-2.3c-2.5-1.5-4.5-3.7-5.9-6.5c-1.4-2.8-2.1-5.9-2.1-9.3v-1.5c0-3.6,0.7-6.8,2.1-9.6
				c1.4-2.8,3.3-5.1,5.8-6.7c2.5-1.6,5.1-2.4,8-2.4c4.5,0,8,1.5,10.7,4.6s3.9,7.3,3.9,12.6v2.3h-26.4v0.8c0,4.2,1.2,7.7,3.6,10.5
				s5.4,4.2,9.1,4.2c2.2,0,4.1-0.4,5.8-1.2c1.7-0.8,3.2-2.1,4.6-3.8l2.6,1.9C488.3,418.5,483.9,420.7,478.2,420.7z M477.4,385.8
				c-3.1,0-5.7,1.1-7.8,3.4s-3.4,5.3-3.8,9.1H488v-0.4c-0.1-3.6-1.1-6.4-3-8.7C483,386.9,480.5,385.8,477.4,385.8z"/>
			<path d="M517.1,386.5c-0.9-0.2-1.8-0.2-2.8-0.2c-2.6,0-4.7,0.7-6.5,2.1c-1.8,1.4-3,3.5-3.8,6.2V420H500v-37h4l0.1,5.9
				c2.2-4.4,5.6-6.6,10.4-6.6c1.1,0,2,0.1,2.7,0.4L517.1,386.5z"/>
			<path d="M535.7,414.4l11.2-31.3h4.2l-13.8,37H534l-13.9-37h4.2L535.7,414.4z"/>
			<path d="M557.6,372.3c0-0.8,0.2-1.4,0.8-2c0.5-0.5,1.2-0.8,2.1-0.8c0.9,0,1.6,0.3,2.1,0.8c0.5,0.5,0.8,1.2,0.8,2
				c0,0.8-0.3,1.4-0.8,1.9c-0.5,0.5-1.2,0.8-2.1,0.8c-0.9,0-1.5-0.3-2.1-0.8C557.9,373.8,557.6,373.1,557.6,372.3z M562.4,420h-4.1
				v-37h4.1V420z"/>
			<path d="M587.2,417.2c2.8,0,5.2-0.8,7.2-2.4c1.9-1.6,3-3.7,3.1-6.2h3.9c-0.1,2.3-0.8,4.3-2.1,6.2s-3,3.3-5.2,4.4
				s-4.5,1.6-6.9,1.6c-4.9,0-8.7-1.7-11.5-5.1c-2.8-3.4-4.3-7.9-4.3-13.6v-1.2c0-3.6,0.6-6.9,1.9-9.7c1.3-2.8,3.1-5,5.5-6.5
				c2.4-1.5,5.2-2.3,8.4-2.3c4.1,0,7.4,1.2,10,3.6c2.6,2.4,4,5.6,4.2,9.5h-3.9c-0.2-2.9-1.2-5.2-3.1-7s-4.3-2.7-7.2-2.7
				c-3.7,0-6.6,1.3-8.6,4s-3.1,6.4-3.1,11.2v1.2c0,4.7,1,8.4,3.1,11C580.6,415.9,583.5,417.2,587.2,417.2z"/>
			<path d="M623.9,420.7c-3.1,0-6-0.8-8.5-2.3c-2.5-1.5-4.5-3.7-5.9-6.5c-1.4-2.8-2.1-5.9-2.1-9.3v-1.5c0-3.6,0.7-6.8,2.1-9.6
				c1.4-2.8,3.3-5.1,5.8-6.7c2.5-1.6,5.1-2.4,8-2.4c4.5,0,8,1.5,10.7,4.6s3.9,7.3,3.9,12.6v2.3h-26.4v0.8c0,4.2,1.2,7.7,3.6,10.5
				s5.4,4.2,9.1,4.2c2.2,0,4.1-0.4,5.8-1.2c1.7-0.8,3.2-2.1,4.6-3.8l2.6,1.9C634,418.5,629.6,420.7,623.9,420.7z M623.2,385.8
				c-3.1,0-5.7,1.1-7.8,3.4s-3.4,5.3-3.8,9.1h22.2v-0.4c-0.1-3.6-1.1-6.4-3-8.7C628.8,386.9,626.3,385.8,623.2,385.8z"/>
			<path d="M667.9,410.6c0-2-0.8-3.7-2.4-4.9c-1.6-1.2-4.1-2.2-7.4-2.9c-3.3-0.7-5.8-1.5-7.6-2.4c-1.8-0.9-3.2-2-4-3.3
				s-1.3-2.9-1.3-4.7c0-2.9,1.2-5.3,3.7-7.2c2.4-1.9,5.6-2.9,9.4-2.9c4.1,0,7.4,1,9.9,3.1c2.5,2,3.7,4.7,3.7,8h-4.1
				c0-2.2-0.9-4-2.7-5.4c-1.8-1.4-4.1-2.2-6.9-2.2c-2.7,0-4.8,0.6-6.5,1.8c-1.6,1.2-2.4,2.8-2.4,4.7c0,1.8,0.7,3.3,2,4.3
				c1.4,1,3.8,1.9,7.4,2.8c3.6,0.8,6.3,1.7,8.1,2.7s3.1,2.1,4,3.5c0.9,1.3,1.3,3,1.3,4.9c0,3.1-1.3,5.6-3.8,7.5
				c-2.5,1.9-5.8,2.8-9.9,2.8c-4.3,0-7.8-1-10.5-3.1c-2.7-2.1-4-4.7-4-7.9h4.1c0.2,2.4,1.2,4.3,3,5.6c1.9,1.3,4.3,2,7.4,2
				c2.8,0,5.2-0.6,6.9-1.9C667,414.1,667.9,412.5,667.9,410.6z"/>
			<path d="M680.8,417.5c0-0.8,0.3-1.5,0.8-2c0.5-0.6,1.2-0.8,2.1-0.8c0.9,0,1.6,0.3,2.2,0.8c0.5,0.6,0.8,1.2,0.8,2
				c0,0.8-0.3,1.5-0.8,2c-0.5,0.5-1.2,0.8-2.2,0.8c-0.9,0-1.6-0.3-2.1-0.8C681.1,419,680.8,418.3,680.8,417.5z"/>
			<path d="M697.5,417.5c0-0.8,0.3-1.5,0.8-2c0.5-0.6,1.2-0.8,2.1-0.8c0.9,0,1.6,0.3,2.2,0.8c0.5,0.6,0.8,1.2,0.8,2
				c0,0.8-0.3,1.5-0.8,2c-0.5,0.5-1.2,0.8-2.2,0.8c-0.9,0-1.6-0.3-2.1-0.8C697.8,419,697.5,418.3,697.5,417.5z"/>
			<path d="M726.9,400.4c0,5-0.6,9.8-1.9,14.5s-3.1,8.9-5.5,12.7c-2.4,3.9-5.1,6.7-8.1,8.4l-1-2.6c2.2-1.6,4.3-4.1,6.2-7.4
				c1.9-3.3,3.4-7.3,4.5-11.7c1.1-4.5,1.6-9.3,1.6-14.5c0-4.7-0.5-9.3-1.6-13.7c-1.1-4.4-2.6-8.3-4.5-11.8c-1.9-3.5-4-6-6.2-7.5
				l1-2.6c2.9,1.8,5.5,4.6,8,8.4c2.4,3.9,4.3,8.1,5.6,12.8C726.2,390.1,726.9,395.1,726.9,400.4z"/>
		</g>
	</g>
</g>
</svg>
