<?xml version="1.0" encoding="utf-8"?>
<!-- Generator: Adobe Illustrator 21.0.0, SVG Export Plug-In . SVG Version: 6.00 Build 0)  -->
<svg version="1.1" xmlns="http://www.w3.org/2000/svg" xmlns:xlink="http://www.w3.org/1999/xlink" x="0px" y="0px"
	 viewBox="0 0 1197.2 516" style="enable-background:new 0 0 1197.2 516;" xml:space="preserve">
<style type="text/css">
	.st0{fill:#0E97E7;}
	.st1{fill:#FFFFFF;}
	.st2{fill:none;stroke:#FFFFFF;stroke-width:18;stroke-miterlimit:10;}
	.st3{fill:none;stroke:#FFFFFF;stroke-width:5;stroke-miterlimit:10;}
	.st4{opacity:0.5;fill:none;stroke:#000000;stroke-width:1.5;stroke-miterlimit:10;}
	.st5{fill:none;stroke:#000000;stroke-width:8;stroke-miterlimit:10;}
	.st6{fill:#4F4F4F;}
	.st7{fill:none;stroke:#FFFFFF;stroke-width:16;stroke-miterlimit:10;}
	.st8{fill:none;stroke:#DF0920;stroke-width:18;stroke-miterlimit:10;}
	.st9{fill:none;stroke:#3E4098;stroke-width:18;stroke-miterlimit:10;}
	.st10{fill:#3E4098;}
	.st11{fill:none;stroke:#59C24F;stroke-width:18;stroke-miterlimit:10;}
	.st12{fill:none;}
</style>
<g id="Home_x5F_Claire_x5F_Juglair_x5F_St_x5F_Nazaire_xA0_Image_1_">
</g>
<g id="Calque_3">
</g>
<g id="bulles">
	<g>
		<path class="st1" d="M1194.8,482c0,18.8-15.2,34-34,34h-1018c-18.8,0-34-15.2-34-34V34c0-18.8,15.2-34,34-34h1018
			c18.8,0,34,15.2,34,34V482z"/>
		<polygon class="st1" points="119.9,76 -7.6,76 108.8,172 		"/>
		<g>
			<g>
				<path d="M283.6,178.1h-23.3v20.3h26.8v3.6h-31v-49.8h30.8v3.6h-26.6v18.8h23.3V178.1z"/>
				<path d="M298.9,165l0.1,6.3c1.4-2.3,3.1-4,5.2-5.2c2.1-1.2,4.4-1.8,6.9-1.8c4,0,6.9,1.1,8.9,3.3c1.9,2.2,2.9,5.6,2.9,10V202
					h-4.1v-24.3c0-3.3-0.7-5.8-2.1-7.4c-1.4-1.6-3.6-2.4-6.6-2.4c-2.5,0-4.8,0.8-6.7,2.4c-1.9,1.6-3.4,3.7-4.3,6.4V202H295v-37
					H298.9z"/>
				<path d="M339.8,155.6v9.5h7.7v3.3h-7.7V193c0,2.1,0.4,3.6,1.1,4.6c0.7,1,2,1.5,3.7,1.5c0.7,0,1.8-0.1,3.3-0.3l0.2,3.3
					c-1.1,0.4-2.5,0.6-4.4,0.6c-2.8,0-4.8-0.8-6.1-2.4c-1.3-1.6-1.9-4-1.9-7.2v-24.7h-6.8V165h6.8v-9.5H339.8z"/>
				<path d="M373,168.5c-0.9-0.2-1.8-0.2-2.8-0.2c-2.6,0-4.7,0.7-6.5,2.1c-1.8,1.4-3,3.5-3.8,6.2V202h-4.1v-37h4l0.1,5.9
					c2.2-4.4,5.6-6.6,10.4-6.6c1.1,0,2,0.1,2.7,0.4L373,168.5z"/>
				<path d="M393.2,202.7c-3.1,0-6-0.8-8.5-2.3c-2.5-1.5-4.5-3.7-5.9-6.5c-1.4-2.8-2.1-5.9-2.1-9.3v-1.5c0-3.6,0.7-6.8,2.1-9.6
					c1.4-2.8,3.3-5.1,5.8-6.7c2.5-1.6,5.1-2.4,8-2.4c4.5,0,8,1.5,10.7,4.6c2.6,3.1,3.9,7.3,3.9,12.6v2.3h-26.4v0.8
					c0,4.2,1.2,7.7,3.6,10.5c2.4,2.8,5.4,4.2,9.1,4.2c2.2,0,4.1-0.4,5.8-1.2c1.7-0.8,3.2-2.1,4.6-3.8l2.6,1.9
					C403.3,200.5,398.9,202.7,393.2,202.7z M392.4,167.8c-3.1,0-5.7,1.1-7.8,3.4s-3.4,5.3-3.8,9.1H403v-0.4c-0.1-3.6-1.1-6.4-3-8.7
					C398,168.9,395.5,167.8,392.4,167.8z"/>
				<path d="M417.7,198.5h24v3.5h-29.1v-3l22.4-30.4h-21.7V165h26.9v3.1L417.7,198.5z"/>
				<path d="M465.8,154.3c0-0.8,0.2-1.4,0.8-2c0.5-0.5,1.2-0.8,2.1-0.8c0.9,0,1.6,0.3,2.1,0.8c0.5,0.5,0.8,1.2,0.8,2
					c0,0.8-0.3,1.4-0.8,1.9c-0.5,0.5-1.2,0.8-2.1,0.8c-0.9,0-1.5-0.3-2.1-0.8C466.1,155.8,465.8,155.1,465.8,154.3z M470.7,202h-4.1
					v-37h4.1V202z"/>
				<path d="M495.4,199.2c2.8,0,5.2-0.8,7.2-2.4c1.9-1.6,3-3.7,3.1-6.2h3.9c-0.1,2.3-0.8,4.3-2.1,6.2s-3,3.3-5.2,4.4
					c-2.2,1-4.5,1.6-6.9,1.6c-4.9,0-8.7-1.7-11.5-5.1c-2.8-3.4-4.3-7.9-4.3-13.6v-1.2c0-3.6,0.6-6.9,1.9-9.7c1.3-2.8,3.1-5,5.5-6.5
					c2.4-1.5,5.2-2.3,8.4-2.3c4.1,0,7.4,1.2,10,3.6c2.6,2.4,4,5.6,4.2,9.5h-3.9c-0.2-2.9-1.2-5.2-3.1-7s-4.3-2.7-7.2-2.7
					c-3.7,0-6.6,1.3-8.6,4s-3.1,6.4-3.1,11.2v1.2c0,4.7,1,8.4,3.1,11C488.8,197.9,491.7,199.2,495.4,199.2z"/>
				<path d="M517.6,154.3c0-0.8,0.2-1.4,0.8-2c0.5-0.5,1.2-0.8,2.1-0.8c0.9,0,1.6,0.3,2.1,0.8c0.5,0.5,0.8,1.2,0.8,2
					c0,0.8-0.3,1.4-0.8,1.9c-0.5,0.5-1.2,0.8-2.1,0.8c-0.9,0-1.5-0.3-2.1-0.8C517.8,155.8,517.6,155.1,517.6,154.3z M522.4,202h-4.1
					v-37h4.1V202z"/>
				<path d="M555.1,202H551v-52.5h4.1V202z"/>
				<path d="M589.6,202c-0.4-1.2-0.7-2.9-0.8-5.2c-1.4,1.9-3.3,3.3-5.5,4.3c-2.2,1-4.6,1.5-7.1,1.5c-3.6,0-6.4-1-8.6-3
					c-2.2-2-3.3-4.5-3.3-7.5c0-3.6,1.5-6.4,4.5-8.5c3-2.1,7.2-3.1,12.5-3.1h7.4v-4.2c0-2.6-0.8-4.7-2.4-6.2c-1.6-1.5-4-2.3-7.1-2.3
					c-2.8,0-5.2,0.7-7.1,2.2c-1.9,1.5-2.8,3.2-2.8,5.3l-4.1,0c0-2.9,1.4-5.5,4.1-7.6c2.7-2.2,6.1-3.2,10.1-3.2c4.1,0,7.4,1,9.8,3.1
					c2.4,2.1,3.6,4.9,3.7,8.6v17.5c0,3.6,0.4,6.3,1.1,8v0.4H589.6z M576.7,199.1c2.7,0,5.2-0.7,7.3-2c2.2-1.3,3.7-3.1,4.7-5.3v-8.1
					h-7.3c-4.1,0-7.3,0.8-9.6,2.2c-2.3,1.4-3.5,3.4-3.5,6c0,2.1,0.8,3.8,2.3,5.2C572.3,198.4,574.3,199.1,576.7,199.1z"/>
				<path d="M642.9,192.6c0-2-0.8-3.7-2.4-4.9c-1.6-1.2-4.1-2.2-7.4-2.9c-3.3-0.7-5.8-1.5-7.6-2.4c-1.8-0.9-3.2-2-4-3.3
					s-1.3-2.9-1.3-4.7c0-2.9,1.2-5.3,3.7-7.2c2.4-1.9,5.6-2.9,9.4-2.9c4.1,0,7.4,1,9.9,3.1c2.5,2,3.7,4.7,3.7,8h-4.1
					c0-2.2-0.9-4-2.7-5.4c-1.8-1.4-4.1-2.2-6.9-2.2c-2.7,0-4.8,0.6-6.5,1.8c-1.6,1.2-2.4,2.8-2.4,4.7c0,1.8,0.7,3.3,2,4.3
					c1.4,1,3.8,1.9,7.4,2.8c3.6,0.8,6.3,1.7,8.1,2.7s3.1,2.1,4,3.5c0.9,1.3,1.3,3,1.3,4.9c0,3.1-1.3,5.6-3.8,7.5
					c-2.5,1.9-5.8,2.8-9.9,2.8c-4.3,0-7.8-1-10.5-3.1c-2.7-2.1-4-4.7-4-7.9h4.1c0.2,2.4,1.2,4.3,3,5.6c1.9,1.3,4.3,2,7.4,2
					c2.8,0,5.1-0.6,6.9-1.9C642,196.1,642.9,194.5,642.9,192.6z"/>
				<path d="M653.9,183c0-3.6,0.7-6.8,2.1-9.6c1.4-2.8,3.3-5.1,5.8-6.6c2.5-1.6,5.4-2.4,8.6-2.4c4.9,0,8.9,1.7,12,5.2
					c3.1,3.5,4.6,8,4.6,13.7v0.9c0,3.6-0.7,6.8-2.1,9.7s-3.3,5.1-5.8,6.6c-2.5,1.5-5.4,2.3-8.6,2.3c-4.9,0-8.9-1.7-11.9-5.2
					c-3.1-3.5-4.6-8-4.6-13.7V183z M658,184.1c0,4.4,1.1,8,3.4,10.9c2.3,2.8,5.3,4.3,9,4.3c3.7,0,6.7-1.4,9-4.3
					c2.3-2.8,3.4-6.6,3.4-11.2V183c0-2.8-0.5-5.4-1.6-7.8c-1-2.3-2.5-4.2-4.4-5.5c-1.9-1.3-4.1-1.9-6.5-1.9c-3.6,0-6.6,1.4-8.9,4.3
					c-2.3,2.9-3.5,6.6-3.5,11.2V184.1z"/>
				<path d="M699.1,165l0.1,6c1.4-2.2,3.1-3.9,5.1-5c2.1-1.1,4.3-1.7,6.8-1.7c5.8,0,9.5,2.4,11.1,7.2c1.3-2.3,3.1-4.1,5.3-5.3
					c2.2-1.2,4.6-1.9,7.3-1.9c7.9,0,12,4.3,12.1,13V202H743v-24.4c0-3.3-0.7-5.8-2.1-7.3c-1.4-1.6-3.7-2.4-6.9-2.4
					c-2.9,0-5.4,1-7.5,2.9c-2,1.9-3.2,4.1-3.4,6.8V202H719v-24.7c0-3.2-0.8-5.5-2.2-7.1c-1.5-1.6-3.7-2.3-6.8-2.3
					c-2.6,0-4.8,0.7-6.6,2.2c-1.8,1.5-3.2,3.7-4.1,6.5V202h-4.1v-37H699.1z"/>
				<path d="M761.1,165l0.1,6c1.4-2.2,3.1-3.9,5.1-5c2.1-1.1,4.3-1.7,6.8-1.7c5.8,0,9.5,2.4,11.1,7.2c1.3-2.3,3.1-4.1,5.3-5.3
					c2.2-1.2,4.6-1.9,7.3-1.9c7.9,0,12,4.3,12.1,13V202H805v-24.4c0-3.3-0.7-5.8-2.1-7.3c-1.4-1.6-3.7-2.4-6.9-2.4
					c-2.9,0-5.4,1-7.5,2.9c-2,1.9-3.2,4.1-3.4,6.8V202h-4.1v-24.7c0-3.2-0.8-5.5-2.2-7.1c-1.5-1.6-3.7-2.3-6.8-2.3
					c-2.6,0-4.8,0.7-6.6,2.2c-1.8,1.5-3.2,3.7-4.1,6.5V202h-4.1v-37H761.1z"/>
				<path d="M833.8,202.7c-3.1,0-6-0.8-8.5-2.3c-2.5-1.5-4.5-3.7-5.9-6.5c-1.4-2.8-2.1-5.9-2.1-9.3v-1.5c0-3.6,0.7-6.8,2.1-9.6
					c1.4-2.8,3.3-5.1,5.8-6.7c2.5-1.6,5.1-2.4,8-2.4c4.5,0,8,1.5,10.7,4.6c2.6,3.1,3.9,7.3,3.9,12.6v2.3h-26.4v0.8
					c0,4.2,1.2,7.7,3.6,10.5c2.4,2.8,5.4,4.2,9.1,4.2c2.2,0,4.1-0.4,5.8-1.2c1.7-0.8,3.2-2.1,4.6-3.8l2.6,1.9
					C843.9,200.5,839.5,202.7,833.8,202.7z M833,167.8c-3.1,0-5.7,1.1-7.8,3.4s-3.4,5.3-3.8,9.1h22.2v-0.4c-0.1-3.6-1.1-6.4-3-8.7
					C838.6,168.9,836.1,167.8,833,167.8z"/>
				<path d="M871,183.2c0-5.7,1.3-10.3,3.8-13.7c2.6-3.4,6-5.1,10.4-5.1c5,0,8.8,2,11.4,5.9v-20.7h4.1V202h-3.8l-0.2-4.9
					c-2.6,3.7-6.5,5.6-11.6,5.6c-4.3,0-7.7-1.7-10.3-5.1c-2.6-3.4-3.9-8.1-3.9-13.9V183.2z M875.1,183.9c0,4.7,0.9,8.4,2.8,11.2
					c1.9,2.7,4.6,4.1,8,4.1c5,0,8.6-2.2,10.7-6.7v-17.4c-2.1-4.8-5.7-7.2-10.7-7.2c-3.4,0-6.1,1.3-8,4.1
					C876.1,174.6,875.1,178.6,875.1,183.9z"/>
				<path d="M925.9,202.7c-3.1,0-6-0.8-8.5-2.3c-2.5-1.5-4.5-3.7-5.9-6.5c-1.4-2.8-2.1-5.9-2.1-9.3v-1.5c0-3.6,0.7-6.8,2.1-9.6
					c1.4-2.8,3.3-5.1,5.8-6.7c2.5-1.6,5.1-2.4,8-2.4c4.5,0,8,1.5,10.7,4.6c2.6,3.1,3.9,7.3,3.9,12.6v2.3h-26.4v0.8
					c0,4.2,1.2,7.7,3.6,10.5c2.4,2.8,5.4,4.2,9.1,4.2c2.2,0,4.1-0.4,5.8-1.2c1.7-0.8,3.2-2.1,4.6-3.8l2.6,1.9
					C935.9,200.5,931.6,202.7,925.9,202.7z M925.1,167.8c-3.1,0-5.7,1.1-7.8,3.4s-3.4,5.3-3.8,9.1h22.2v-0.4c-0.1-3.6-1.1-6.4-3-8.7
					C930.7,168.9,928.2,167.8,925.1,167.8z"/>
				<path d="M969.8,192.6c0-2-0.8-3.7-2.4-4.9c-1.6-1.2-4.1-2.2-7.4-2.9c-3.3-0.7-5.8-1.5-7.6-2.4c-1.8-0.9-3.2-2-4-3.3
					s-1.3-2.9-1.3-4.7c0-2.9,1.2-5.3,3.7-7.2c2.4-1.9,5.6-2.9,9.4-2.9c4.1,0,7.4,1,9.9,3.1c2.5,2,3.7,4.7,3.7,8h-4.1
					c0-2.2-0.9-4-2.7-5.4c-1.8-1.4-4.1-2.2-6.9-2.2c-2.7,0-4.8,0.6-6.5,1.8c-1.6,1.2-2.4,2.8-2.4,4.7c0,1.8,0.7,3.3,2,4.3
					c1.4,1,3.8,1.9,7.4,2.8c3.6,0.8,6.3,1.7,8.1,2.7s3.1,2.1,4,3.5c0.9,1.3,1.3,3,1.3,4.9c0,3.1-1.3,5.6-3.8,7.5
					c-2.5,1.9-5.8,2.8-9.9,2.8c-4.3,0-7.8-1-10.5-3.1c-2.7-2.1-4-4.7-4-7.9h4.1c0.2,2.4,1.2,4.3,3,5.6c1.9,1.3,4.3,2,7.4,2
					c2.8,0,5.1-0.6,6.9-1.9C969,196.1,969.8,194.5,969.8,192.6z"/>
				<path d="M252.1,267.2c0-5.8,1.3-10.4,3.9-13.8s6.1-5.1,10.6-5.1c3.6,0,6.6,1.3,8.9,4v-18.9h9.9V286h-8.9l-0.5-3.9
					c-2.5,3.1-5.6,4.6-9.5,4.6c-4.4,0-7.8-1.7-10.5-5.1C253.4,278.1,252.1,273.3,252.1,267.2z M262,267.9c0,3.5,0.6,6.1,1.8,8
					c1.2,1.9,3,2.8,5.3,2.8c3.1,0,5.2-1.3,6.5-3.9v-14.7c-1.2-2.6-3.4-3.9-6.4-3.9C264.4,256.3,262,260.2,262,267.9z"/>
				<path d="M310.1,286.7c-5.4,0-9.8-1.7-13.2-5c-3.4-3.3-5.1-7.8-5.1-13.3v-1c0-3.7,0.7-7,2.2-10c1.4-2.9,3.5-5.2,6.1-6.8
					c2.6-1.6,5.6-2.4,9-2.4c5.1,0,9,1.6,11.9,4.8c2.9,3.2,4.4,7.7,4.4,13.6v4h-23.5c0.3,2.4,1.3,4.4,2.9,5.8
					c1.6,1.5,3.6,2.2,6.1,2.2c3.8,0,6.8-1.4,8.9-4.1l4.9,5.4c-1.5,2.1-3.5,3.7-6,4.9C316,286.1,313.2,286.7,310.1,286.7z M309,256.3
					c-2,0-3.5,0.7-4.8,2c-1.2,1.3-2,3.2-2.3,5.7h13.7v-0.8c0-2.2-0.6-3.9-1.8-5.1C312.7,256.9,311.1,256.3,309,256.3z"/>
				<path d="M351.7,258.3c-1.3-0.2-2.5-0.3-3.6-0.3c-3.7,0-6.2,1.3-7.3,3.8V286h-9.9v-37h9.3l0.3,4.4c2-3.4,4.7-5.1,8.2-5.1
					c1.1,0,2.1,0.1,3.1,0.4L351.7,258.3z"/>
				<path d="M365.6,249l0.3,4.3c2.6-3.3,6.2-5,10.6-5c3.9,0,6.8,1.2,8.8,3.5c1.9,2.3,2.9,5.7,2.9,10.3V286h-9.9v-23.7
					c0-2.1-0.5-3.6-1.4-4.6c-0.9-0.9-2.4-1.4-4.5-1.4c-2.8,0-4.9,1.2-6.3,3.6V286h-9.9v-37H365.6z"/>
				<path d="M395.6,239.4c0-1.5,0.5-2.7,1.5-3.7c1-1,2.3-1.4,4-1.4c1.7,0,3,0.5,4,1.4c1,1,1.5,2.2,1.5,3.7c0,1.5-0.5,2.7-1.5,3.7
					c-1,1-2.4,1.4-4,1.4c-1.7,0-3-0.5-4-1.4S395.6,241,395.6,239.4z M406.1,286h-9.9v-37h9.9V286z"/>
				<path d="M431.2,286.7c-5.4,0-9.8-1.7-13.2-5c-3.4-3.3-5.1-7.8-5.1-13.3v-1c0-3.7,0.7-7,2.2-10c1.4-2.9,3.5-5.2,6.1-6.8
					c2.6-1.6,5.6-2.4,9-2.4c5.1,0,9,1.6,11.9,4.8c2.9,3.2,4.4,7.7,4.4,13.6v4h-23.5c0.3,2.4,1.3,4.4,2.9,5.8
					c1.6,1.5,3.6,2.2,6.1,2.2c3.8,0,6.8-1.4,8.9-4.1l4.9,5.4c-1.5,2.1-3.5,3.7-6,4.9C437.1,286.1,434.3,286.7,431.2,286.7z
					 M430.1,256.3c-2,0-3.5,0.7-4.8,2c-1.2,1.3-2,3.2-2.3,5.7h13.7v-0.8c0-2.2-0.6-3.9-1.8-5.1C433.8,256.9,432.2,256.3,430.1,256.3
					z"/>
				<path d="M472.8,258.3c-1.3-0.2-2.5-0.3-3.6-0.3c-3.7,0-6.2,1.3-7.3,3.8V286h-9.9v-37h9.3l0.3,4.4c2-3.4,4.7-5.1,8.2-5.1
					c1.1,0,2.1,0.1,3.1,0.4L472.8,258.3z"/>
				<path d="M497.6,275.8c0-1.2-0.6-2.2-1.8-2.9c-1.2-0.7-3.1-1.3-5.8-1.9c-8.8-1.8-13.2-5.6-13.2-11.2c0-3.3,1.4-6,4.1-8.2
					s6.3-3.3,10.7-3.3c4.7,0,8.4,1.1,11.3,3.3c2.8,2.2,4.2,5.1,4.2,8.6h-9.9c0-1.4-0.5-2.6-1.4-3.5c-0.9-0.9-2.3-1.4-4.3-1.4
					c-1.7,0-3,0.4-3.9,1.1c-0.9,0.8-1.4,1.7-1.4,2.9c0,1.1,0.5,2,1.6,2.6s2.8,1.3,5.2,1.7c2.5,0.5,4.5,1,6.2,1.7
					c5.2,1.9,7.8,5.2,7.8,9.9c0,3.4-1.4,6.1-4.3,8.2c-2.9,2.1-6.6,3.1-11.2,3.1c-3.1,0-5.9-0.6-8.3-1.7c-2.4-1.1-4.3-2.6-5.7-4.5
					s-2.1-4-2.1-6.2h9.4c0.1,1.8,0.7,3.1,1.9,4c1.2,0.9,2.8,1.4,4.9,1.4c1.9,0,3.3-0.4,4.3-1.1C497.1,277.9,497.6,276.9,497.6,275.8
					z"/>
				<path d="M530.9,239.4c0-1.5,0.5-2.7,1.5-3.7c1-1,2.3-1.4,4-1.4c1.7,0,3,0.5,4,1.4c1,1,1.5,2.2,1.5,3.7c0,1.5-0.5,2.7-1.5,3.7
					c-1,1-2.4,1.4-4,1.4c-1.7,0-3-0.5-4-1.4S530.9,241,530.9,239.4z M541.4,286h-9.9v-37h9.9V286z"/>
				<path d="M558.8,249l0.3,4.1c2.6-3.2,6.2-4.8,10.6-4.8c4.8,0,8,1.9,9.8,5.6c2.6-3.8,6.3-5.6,11.1-5.6c4,0,7,1.2,9,3.5
					c2,2.3,2.9,5.9,2.9,10.5V286h-9.9v-23.6c0-2.1-0.4-3.6-1.2-4.6c-0.8-1-2.3-1.5-4.3-1.5c-3,0-5,1.4-6.2,4.2l0,25.5h-9.9v-23.6
					c0-2.1-0.4-3.7-1.3-4.7c-0.8-1-2.3-1.4-4.3-1.4c-2.8,0-4.8,1.2-6.1,3.5V286h-9.9v-37H558.8z"/>
				<path d="M643.5,267.9c0,5.7-1.3,10.3-3.9,13.7c-2.6,3.4-6.1,5.1-10.5,5.1c-3.7,0-6.8-1.3-9.1-3.9v17.4h-9.9V249h9.2l0.3,3.6
					c2.4-2.9,5.5-4.3,9.4-4.3c4.6,0,8.1,1.7,10.6,5.1c2.5,3.4,3.8,8,3.8,13.9V267.9z M633.6,267.1c0-3.5-0.6-6.1-1.8-8
					c-1.2-1.9-3-2.8-5.3-2.8c-3.1,0-5.2,1.2-6.4,3.6v15.2c1.2,2.4,3.4,3.7,6.5,3.7C631.2,278.7,633.6,274.8,633.6,267.1z"/>
				<path d="M648,267.2c0-3.7,0.7-6.9,2.1-9.8c1.4-2.9,3.4-5.1,6.1-6.7c2.7-1.6,5.7-2.4,9.2-2.4c5,0,9.1,1.5,12.2,4.6
					c3.2,3.1,4.9,7.2,5.3,12.4l0.1,2.5c0,5.7-1.6,10.2-4.8,13.7c-3.2,3.4-7.4,5.1-12.7,5.1s-9.6-1.7-12.8-5.1
					c-3.2-3.4-4.8-8.1-4.8-13.9V267.2z M678.6,243.1v0.4l-7.9,0l-5.3-5l-5.3,5l-7.7,0v-0.5l10.1-9.4h5.7L678.6,243.1z M657.9,267.9
					c0,3.5,0.7,6.2,2,8.1c1.3,1.9,3.2,2.8,5.7,2.8c2.4,0,4.3-0.9,5.6-2.8c1.3-1.8,2-4.8,2-8.8c0-3.4-0.7-6.1-2-8
					c-1.3-1.9-3.2-2.8-5.7-2.8c-2.4,0-4.3,0.9-5.6,2.8C658.6,261,657.9,263.9,657.9,267.9z"/>
				<path d="M701,239.9v9.1h6.3v7.2H701v18.5c0,1.4,0.3,2.3,0.8,2.9c0.5,0.6,1.5,0.9,3,0.9c1.1,0,2.1-0.1,2.9-0.2v7.5
					c-1.9,0.6-3.9,0.9-6,0.9c-6.9,0-10.5-3.5-10.6-10.5v-19.9h-5.4V249h5.4v-9.1H701z"/>
				<path d="M732.8,275.8c0-1.2-0.6-2.2-1.8-2.9c-1.2-0.7-3.1-1.3-5.8-1.9c-8.8-1.8-13.2-5.6-13.2-11.2c0-3.3,1.4-6,4.1-8.2
					s6.3-3.3,10.7-3.3c4.7,0,8.4,1.1,11.3,3.3c2.8,2.2,4.2,5.1,4.2,8.6h-9.9c0-1.4-0.5-2.6-1.4-3.5c-0.9-0.9-2.3-1.4-4.3-1.4
					c-1.7,0-3,0.4-3.9,1.1c-0.9,0.8-1.4,1.7-1.4,2.9c0,1.1,0.5,2,1.6,2.6s2.8,1.3,5.2,1.7c2.5,0.5,4.5,1,6.2,1.7
					c5.2,1.9,7.8,5.2,7.8,9.9c0,3.4-1.4,6.1-4.3,8.2c-2.9,2.1-6.6,3.1-11.2,3.1c-3.1,0-5.9-0.6-8.3-1.7c-2.4-1.1-4.3-2.6-5.7-4.5
					s-2.1-4-2.1-6.2h9.4c0.1,1.8,0.7,3.1,1.9,4c1.2,0.9,2.8,1.4,4.9,1.4c1.9,0,3.3-0.4,4.3-1.1C732.4,277.9,732.8,276.9,732.8,275.8
					z"/>
				<path d="M765.7,267.2c0-5.8,1.3-10.4,3.8-13.8c2.6-3.4,6.1-5.1,10.5-5.1c5,0,8.8,1.9,11.4,5.7l0.2-5h3.8v51.2h-4.1v-18.8
					c-2.7,3.5-6.5,5.3-11.4,5.3c-4.3,0-7.8-1.7-10.4-5.1s-3.9-8-3.9-13.8V267.2z M769.9,267.9c0,4.8,1,8.5,2.9,11.3
					c1.9,2.7,4.6,4.1,8,4.1c4.9,0,8.4-2.1,10.6-6.4v-18.1c-1-2.2-2.4-3.9-4.3-5.1c-1.8-1.2-3.9-1.8-6.3-1.8c-3.4,0-6.1,1.4-8.1,4.1
					C770.8,258.6,769.9,262.6,769.9,267.9z"/>
				<path d="M830.2,281.3c-2.5,3.6-6.4,5.4-11.8,5.4c-3.9,0-6.9-1.1-9-3.4c-2.1-2.3-3.1-5.7-3.1-10.2V249h4.1v23.5
					c0,7,2.8,10.6,8.5,10.6c5.9,0,9.7-2.4,11.2-7.3V249h4.1v37h-4L830.2,281.3z"/>
				<path d="M859.2,286.7c-3.1,0-6-0.8-8.5-2.3c-2.5-1.5-4.5-3.7-5.9-6.5c-1.4-2.8-2.1-5.9-2.1-9.3v-1.5c0-3.6,0.7-6.8,2.1-9.6
					c1.4-2.8,3.3-5.1,5.8-6.7c2.5-1.6,5.1-2.4,8-2.4c4.5,0,8,1.5,10.7,4.6c2.6,3.1,3.9,7.3,3.9,12.6v2.3h-26.4v0.8
					c0,4.2,1.2,7.7,3.6,10.5c2.4,2.8,5.4,4.2,9.1,4.2c2.2,0,4.1-0.4,5.8-1.2c1.7-0.8,3.2-2.1,4.6-3.8l2.6,1.9
					C869.3,284.5,864.9,286.7,859.2,286.7z M858.4,251.8c-3.1,0-5.7,1.1-7.8,3.4s-3.4,5.3-3.8,9.1H869v-0.4c-0.1-3.6-1.1-6.4-3-8.7
					C864,252.9,861.5,251.8,858.4,251.8z"/>
				<path d="M909.6,280.4l11.2-31.3h4.2l-13.8,37h-3.3L894,249h4.2L909.6,280.4z"/>
				<path d="M928.9,267c0-3.6,0.7-6.8,2.1-9.6c1.4-2.8,3.3-5.1,5.8-6.6c2.5-1.6,5.4-2.4,8.6-2.4c4.9,0,8.9,1.7,12,5.2
					c3.1,3.5,4.6,8,4.6,13.7v0.9c0,3.6-0.7,6.8-2.1,9.7s-3.3,5.1-5.8,6.6c-2.5,1.5-5.4,2.3-8.6,2.3c-4.9,0-8.9-1.7-11.9-5.2
					c-3.1-3.5-4.6-8-4.6-13.7V267z M933,268.1c0,4.4,1.1,8,3.4,10.9c2.3,2.8,5.3,4.3,9,4.3c3.7,0,6.7-1.4,9-4.3
					c2.3-2.8,3.4-6.6,3.4-11.2V267c0-2.8-0.5-5.4-1.6-7.8c-1-2.3-2.5-4.2-4.4-5.5c-1.9-1.3-4.1-1.9-6.5-1.9c-3.6,0-6.6,1.4-8.9,4.3
					c-2.3,2.9-3.5,6.6-3.5,11.2V268.1z"/>
				<path d="M994.2,281.3c-2.5,3.6-6.4,5.4-11.8,5.4c-3.9,0-6.9-1.1-9-3.4c-2.1-2.3-3.1-5.7-3.1-10.2V249h4.1v23.5
					c0,7,2.8,10.6,8.5,10.6c5.9,0,9.7-2.4,11.2-7.3V249h4.1v37h-4L994.2,281.3z"/>
				<path d="M1031,276.6c0-2-0.8-3.7-2.4-4.9c-1.6-1.2-4.1-2.2-7.4-2.9c-3.3-0.7-5.8-1.5-7.6-2.4c-1.8-0.9-3.2-2-4-3.3
					s-1.3-2.9-1.3-4.7c0-2.9,1.2-5.3,3.7-7.2c2.4-1.9,5.6-2.9,9.4-2.9c4.1,0,7.4,1,9.9,3.1c2.5,2,3.7,4.7,3.7,8h-4.1
					c0-2.2-0.9-4-2.7-5.4c-1.8-1.4-4.1-2.2-6.9-2.2c-2.7,0-4.8,0.6-6.5,1.8c-1.6,1.2-2.4,2.8-2.4,4.7c0,1.8,0.7,3.3,2,4.3
					c1.4,1,3.8,1.9,7.4,2.8c3.6,0.8,6.3,1.7,8.1,2.7s3.1,2.1,4,3.5c0.9,1.3,1.3,3,1.3,4.9c0,3.1-1.3,5.6-3.8,7.5
					c-2.5,1.9-5.8,2.8-9.9,2.8c-4.3,0-7.8-1-10.5-3.1c-2.7-2.1-4-4.7-4-7.9h4.1c0.2,2.4,1.2,4.3,3,5.6c1.9,1.3,4.3,2,7.4,2
					c2.8,0,5.1-0.6,6.9-1.9C1030.1,280.1,1031,278.5,1031,276.6z"/>
				<path d="M278.5,370c-0.4-1.2-0.7-2.9-0.8-5.2c-1.4,1.9-3.3,3.3-5.5,4.3c-2.2,1-4.6,1.5-7.1,1.5c-3.6,0-6.4-1-8.6-3
					c-2.2-2-3.3-4.5-3.3-7.5c0-3.6,1.5-6.4,4.5-8.5c3-2.1,7.2-3.1,12.5-3.1h7.4v-4.2c0-2.6-0.8-4.7-2.4-6.2c-1.6-1.5-4-2.3-7.1-2.3
					c-2.8,0-5.2,0.7-7.1,2.2c-1.9,1.5-2.8,3.2-2.8,5.3l-4.1,0c0-2.9,1.4-5.5,4.1-7.6c2.7-2.2,6.1-3.2,10.1-3.2c4.1,0,7.4,1,9.8,3.1
					c2.4,2.1,3.6,4.9,3.7,8.6v17.5c0,3.6,0.4,6.3,1.1,8v0.4H278.5z M265.7,367.1c2.7,0,5.2-0.7,7.3-2c2.2-1.3,3.7-3.1,4.7-5.3v-8.1
					h-7.3c-4.1,0-7.3,0.8-9.6,2.2c-2.3,1.4-3.5,3.4-3.5,6c0,2.1,0.8,3.8,2.3,5.2C261.2,366.4,263.2,367.1,265.7,367.1z"/>
				<path d="M303.7,364.4l11.2-31.3h4.2l-13.8,37H302l-13.9-37h4.2L303.7,364.4z"/>
				<path d="M339.7,370.7c-3.1,0-6-0.8-8.5-2.3c-2.5-1.5-4.5-3.7-5.9-6.5c-1.4-2.8-2.1-5.9-2.1-9.3v-1.5c0-3.6,0.7-6.8,2.1-9.6
					c1.4-2.8,3.3-5.1,5.8-6.7c2.5-1.6,5.1-2.4,8-2.4c4.5,0,8,1.5,10.7,4.6c2.6,3.1,3.9,7.3,3.9,12.6v2.3h-26.4v0.8
					c0,4.2,1.2,7.7,3.6,10.5c2.4,2.8,5.4,4.2,9.1,4.2c2.2,0,4.1-0.4,5.8-1.2c1.7-0.8,3.2-2.1,4.6-3.8l2.6,1.9
					C349.8,368.5,345.4,370.7,339.7,370.7z M339,335.8c-3.1,0-5.7,1.1-7.8,3.4s-3.4,5.3-3.8,9.1h22.2v-0.4c-0.1-3.6-1.1-6.4-3-8.7
					C344.6,336.9,342.1,335.8,339,335.8z"/>
				<path d="M364.3,366.5h24v3.5h-29.1v-3l22.4-30.4h-21.7V333h26.9v3.1L364.3,366.5z"/>
				<path d="M442.4,351.9c0,5.8-1.3,10.3-3.8,13.7c-2.6,3.4-6,5.1-10.3,5.1c-5.1,0-8.9-1.8-11.6-5.3v18.9h-4.1V333h3.8l0.2,5.2
					c2.7-3.9,6.5-5.9,11.6-5.9c4.4,0,7.9,1.7,10.4,5s3.8,8,3.8,13.9V351.9z M438.3,351.2c0-4.7-1-8.4-2.9-11.2
					c-1.9-2.7-4.6-4.1-8.1-4.1c-2.5,0-4.7,0.6-6.5,1.8c-1.8,1.2-3.2,3-4.1,5.3v17.7c1,2.1,2.4,3.7,4.2,4.9c1.8,1.1,4,1.7,6.5,1.7
					c3.4,0,6.1-1.4,8-4.1S438.3,356.4,438.3,351.2z"/>
				<path d="M474.8,370c-0.4-1.2-0.7-2.9-0.8-5.2c-1.4,1.9-3.3,3.3-5.5,4.3c-2.2,1-4.6,1.5-7.1,1.5c-3.6,0-6.4-1-8.6-3
					c-2.2-2-3.3-4.5-3.3-7.5c0-3.6,1.5-6.4,4.5-8.5c3-2.1,7.2-3.1,12.5-3.1h7.4v-4.2c0-2.6-0.8-4.7-2.4-6.2c-1.6-1.5-4-2.3-7.1-2.3
					c-2.8,0-5.2,0.7-7.1,2.2c-1.9,1.5-2.8,3.2-2.8,5.3l-4.1,0c0-2.9,1.4-5.5,4.1-7.6c2.7-2.2,6.1-3.2,10.1-3.2c4.1,0,7.4,1,9.8,3.1
					c2.4,2.1,3.6,4.9,3.7,8.6v17.5c0,3.6,0.4,6.3,1.1,8v0.4H474.8z M461.9,367.1c2.7,0,5.2-0.7,7.3-2c2.2-1.3,3.7-3.1,4.7-5.3v-8.1
					h-7.3c-4.1,0-7.3,0.8-9.6,2.2c-2.3,1.4-3.5,3.4-3.5,6c0,2.1,0.8,3.8,2.3,5.2C457.4,366.4,459.4,367.1,461.9,367.1z"/>
				<path d="M500.1,364.1l10.8-31.1h4.4l-15.8,43.3l-0.8,1.9c-2,4.5-5.2,6.7-9.4,6.7c-1,0-2-0.2-3.1-0.5l0-3.4l2.1,0.2
					c2,0,3.6-0.5,4.9-1.5c1.2-1,2.3-2.7,3.2-5.1l1.8-5L484.2,333h4.5L500.1,364.1z"/>
				<path d="M535.5,370.7c-3.1,0-6-0.8-8.5-2.3c-2.5-1.5-4.5-3.7-5.9-6.5c-1.4-2.8-2.1-5.9-2.1-9.3v-1.5c0-3.6,0.7-6.8,2.1-9.6
					c1.4-2.8,3.3-5.1,5.8-6.7c2.5-1.6,5.1-2.4,8-2.4c4.5,0,8,1.5,10.7,4.6c2.6,3.1,3.9,7.3,3.9,12.6v2.3H523v0.8
					c0,4.2,1.2,7.7,3.6,10.5c2.4,2.8,5.4,4.2,9.1,4.2c2.2,0,4.1-0.4,5.8-1.2c1.7-0.8,3.2-2.1,4.6-3.8l2.6,1.9
					C545.6,368.5,541.2,370.7,535.5,370.7z M534.8,335.8c-3.1,0-5.7,1.1-7.8,3.4s-3.4,5.3-3.8,9.1h22.2v-0.4c-0.1-3.6-1.1-6.4-3-8.7
					C540.4,336.9,537.9,335.8,534.8,335.8z M539.3,317.9h5l-7.9,9.5l-3.6,0L539.3,317.9z"/>
				<path d="M579.5,360.6c0-2-0.8-3.7-2.4-4.9c-1.6-1.2-4.1-2.2-7.4-2.9c-3.3-0.7-5.8-1.5-7.6-2.4c-1.8-0.9-3.2-2-4-3.3
					s-1.3-2.9-1.3-4.7c0-2.9,1.2-5.3,3.7-7.2c2.4-1.9,5.6-2.9,9.4-2.9c4.1,0,7.4,1,9.9,3.1c2.5,2,3.7,4.7,3.7,8h-4.1
					c0-2.2-0.9-4-2.7-5.4c-1.8-1.4-4.1-2.2-6.9-2.2c-2.7,0-4.8,0.6-6.5,1.8c-1.6,1.2-2.4,2.8-2.4,4.7c0,1.8,0.7,3.3,2,4.3
					c1.4,1,3.8,1.9,7.4,2.8c3.6,0.8,6.3,1.7,8.1,2.7s3.1,2.1,4,3.5c0.9,1.3,1.3,3,1.3,4.9c0,3.1-1.3,5.6-3.8,7.5
					c-2.5,1.9-5.8,2.8-9.9,2.8c-4.3,0-7.8-1-10.5-3.1c-2.7-2.1-4-4.7-4-7.9h4.1c0.2,2.4,1.2,4.3,3,5.6c1.9,1.3,4.3,2,7.4,2
					c2.8,0,5.1-0.6,6.9-1.9C578.6,364.1,579.5,362.5,579.5,360.6z"/>
				<path d="M592.4,367.5c0-0.8,0.3-1.5,0.8-2c0.5-0.6,1.2-0.8,2.1-0.8c0.9,0,1.6,0.3,2.2,0.8c0.5,0.6,0.8,1.2,0.8,2
					c0,0.8-0.3,1.5-0.8,2c-0.5,0.5-1.2,0.8-2.2,0.8c-0.9,0-1.6-0.3-2.1-0.8C592.7,369,592.4,368.3,592.4,367.5z"/>
			</g>
		</g>
	</g>
</g>
</svg>
