<?xml version="1.0" encoding="utf-8"?>
<!-- Generator: Adobe Illustrator 17.0.0, SVG Export Plug-In . SVG Version: 6.00 Build 0)  -->
<!DOCTYPE svg PUBLIC "-//W3C//DTD SVG 1.1//EN" "http://www.w3.org/Graphics/SVG/1.1/DTD/svg11.dtd">
<svg version="1.1" id="Calque_1" xmlns="http://www.w3.org/2000/svg" xmlns:xlink="http://www.w3.org/1999/xlink" x="0px" y="0px"
	 width="1417.3px" height="850.4px" viewBox="0 0 1417.3 850.4" style="enable-background:new 0 0 1417.3 850.4;"
	 xml:space="preserve">
<style type="text/css">
	.st0{fill:#FFFFFF;}
	.st1{enable-background:new    ;}
</style>
<g>
	<g>
		<path class="st0" d="M1310,649c0,18.8-15.2,34-34,34H258c-18.8,0-34-15.2-34-34V201c0-18.8,15.2-34,34-34h1018
			c18.8,0,34,15.2,34,34V649z"/>
	</g>
	<g>
		<polygon class="st0" points="235,243 107.5,243 224,339 		"/>
	</g>
	<g>
		<g class="st1">
			<path d="M360.7,346.5h-18v-4.6h18V346.5z"/>
			<path d="M394.5,356.4h23.1v4.6h-28.1v-49.6h5V356.4z"/>
			<path d="M426,345.9c0.1,1.6,0.5,3.2,1.2,4.6c0.7,1.4,1.5,2.7,2.6,3.7c1.1,1,2.3,1.9,3.7,2.5c1.4,0.6,2.9,0.9,4.5,0.9
				c2.5,0,4.6-0.6,6.4-1.7c1.8-1.1,3.2-2.5,4.1-4l3.6,2.9c-2,2.5-4.1,4.2-6.5,5.3c-2.4,1.1-4.9,1.6-7.6,1.6c-2.4,0-4.7-0.4-6.8-1.3
				c-2.1-0.9-3.9-2.1-5.4-3.6c-1.5-1.5-2.7-3.4-3.5-5.5c-0.9-2.1-1.3-4.4-1.3-6.9c0-2.5,0.4-4.8,1.3-6.9c0.8-2.1,2-3.9,3.5-5.5
				c1.5-1.5,3.2-2.7,5.2-3.6c2-0.9,4.2-1.3,6.5-1.3c2.5,0,4.7,0.4,6.6,1.3c2,0.9,3.6,2.1,4.9,3.5c1.3,1.5,2.3,3.2,3,5.2s1,4.1,1,6.3
				v2.1H426z M448.3,342.1c0-3.1-0.9-5.7-2.8-7.6c-1.9-1.9-4.5-2.9-7.8-2.9c-1.5,0-2.9,0.3-4.3,0.9c-1.4,0.6-2.6,1.4-3.7,2.3
				c-1.1,1-1.9,2.1-2.5,3.4c-0.6,1.3-0.9,2.6-0.9,3.9H448.3z"/>
			<path d="M513.9,361h-4.6v-5.5h-0.1c-0.7,1.1-1.6,2.1-2.7,2.9c-1,0.8-2.1,1.4-3.2,2c-1.1,0.5-2.3,0.9-3.5,1.1
				c-1.2,0.2-2.3,0.3-3.4,0.3c-2.6,0-4.9-0.4-7-1.3c-2.1-0.9-4-2.1-5.5-3.6s-2.7-3.4-3.6-5.5c-0.9-2.1-1.3-4.4-1.3-6.9
				c0-2.5,0.4-4.8,1.3-6.9c0.9-2.1,2.1-3.9,3.6-5.5s3.4-2.7,5.5-3.6c2.1-0.9,4.5-1.3,7-1.3c1.1,0,2.2,0.1,3.4,0.3
				c1.2,0.2,2.3,0.6,3.5,1.1c1.1,0.5,2.2,1.2,3.2,2c1,0.8,1.9,1.8,2.7,2.9h0.1v-25.6h4.6V361z M484,344.6c0,1.8,0.3,3.5,0.9,5.1
				c0.6,1.6,1.4,3,2.5,4.1c1.1,1.2,2.4,2.1,3.9,2.8c1.5,0.7,3.2,1,5.1,1c1.9,0,3.6-0.3,5.2-1c1.6-0.7,3-1.6,4.2-2.8
				c1.2-1.2,2.1-2.5,2.7-4.1c0.7-1.6,1-3.3,1-5.1s-0.3-3.5-1-5.1c-0.7-1.6-1.6-3-2.7-4.1c-1.2-1.2-2.6-2.1-4.2-2.8
				c-1.6-0.7-3.3-1-5.2-1c-1.9,0-3.6,0.3-5.1,1c-1.5,0.7-2.8,1.6-3.9,2.8c-1.1,1.2-1.9,2.5-2.5,4.1C484.3,341.1,484,342.8,484,344.6
				z"/>
			<path d="M527.2,345.9c0.1,1.6,0.5,3.2,1.2,4.6c0.7,1.4,1.5,2.7,2.6,3.7c1.1,1,2.3,1.9,3.7,2.5c1.4,0.6,2.9,0.9,4.5,0.9
				c2.5,0,4.6-0.6,6.4-1.7c1.8-1.1,3.2-2.5,4.1-4l3.6,2.9c-2,2.5-4.1,4.2-6.5,5.3c-2.4,1.1-4.9,1.6-7.6,1.6c-2.4,0-4.7-0.4-6.8-1.3
				c-2.1-0.9-3.9-2.1-5.4-3.6c-1.5-1.5-2.7-3.4-3.5-5.5c-0.9-2.1-1.3-4.4-1.3-6.9c0-2.5,0.4-4.8,1.3-6.9c0.8-2.1,2-3.9,3.5-5.5
				c1.5-1.5,3.2-2.7,5.2-3.6c2-0.9,4.2-1.3,6.5-1.3c2.5,0,4.7,0.4,6.6,1.3c2,0.9,3.6,2.1,4.9,3.5c1.3,1.5,2.3,3.2,3,5.2s1,4.1,1,6.3
				v2.1H527.2z M549.4,342.1c0-3.1-0.9-5.7-2.8-7.6c-1.9-1.9-4.5-2.9-7.8-2.9c-1.5,0-2.9,0.3-4.3,0.9c-1.4,0.6-2.6,1.4-3.7,2.3
				c-1.1,1-1.9,2.1-2.5,3.4c-0.6,1.3-0.9,2.6-0.9,3.9H549.4z M538.2,321.5h-4.1l7-10.1h6.4L538.2,321.5z"/>
			<path d="M562.9,328.2h4.6v5.5h0.1c0.7-1.1,1.6-2.1,2.7-2.9c1-0.8,2.1-1.4,3.2-2c1.1-0.5,2.3-0.9,3.5-1.1c1.2-0.2,2.3-0.3,3.4-0.3
				c2.6,0,4.9,0.4,7,1.3c2.1,0.9,4,2.1,5.5,3.6s2.7,3.4,3.6,5.5c0.9,2.1,1.3,4.4,1.3,6.9c0,2.5-0.4,4.8-1.3,6.9
				c-0.9,2.1-2.1,3.9-3.6,5.5s-3.4,2.7-5.5,3.6c-2.1,0.9-4.5,1.3-7,1.3c-1.1,0-2.2-0.1-3.4-0.3c-1.2-0.2-2.3-0.6-3.5-1.1
				c-1.1-0.5-2.2-1.2-3.2-2c-1-0.8-1.9-1.8-2.7-2.9h-0.1v25.6h-4.6V328.2z M592.8,344.6c0-1.8-0.3-3.5-0.9-5.1
				c-0.6-1.6-1.4-3-2.5-4.1c-1.1-1.2-2.4-2.1-3.9-2.8c-1.5-0.7-3.2-1-5.1-1c-1.9,0-3.7,0.3-5.2,1c-1.6,0.7-3,1.6-4.1,2.8
				c-1.2,1.2-2.1,2.5-2.7,4.1c-0.7,1.6-1,3.3-1,5.1s0.3,3.5,1,5.1c0.7,1.6,1.6,3,2.7,4.1c1.2,1.2,2.5,2.1,4.1,2.8
				c1.6,0.7,3.3,1,5.2,1c1.9,0,3.6-0.3,5.1-1c1.5-0.7,2.8-1.6,3.9-2.8c1.1-1.2,1.9-2.5,2.5-4.1C592.5,348.1,592.8,346.4,592.8,344.6
				z"/>
			<path d="M626.7,340.9v-0.8c0-5.6-2.8-8.5-8.4-8.5c-3.8,0-7.2,1.3-10,3.9l-2.8-3.3c3.1-3.2,7.7-4.8,13.9-4.8
				c1.6,0,3.1,0.2,4.6,0.7c1.5,0.5,2.7,1.2,3.8,2.1c1.1,1,1.9,2.2,2.6,3.6c0.7,1.4,1,3.2,1,5.2v14.6c0,1.3,0.1,2.6,0.2,4
				c0.1,1.4,0.2,2.5,0.4,3.4h-4.5c-0.1-0.8-0.2-1.7-0.3-2.6s-0.1-1.8-0.1-2.7h-0.1c-1.4,2.2-3,3.8-4.8,4.7c-1.8,1-4.1,1.4-6.8,1.4
				c-1.4,0-2.8-0.2-4.2-0.6c-1.4-0.4-2.6-1-3.6-1.8c-1.1-0.8-1.9-1.8-2.5-3s-0.9-2.6-0.9-4.2c0-2.7,0.7-4.7,2.1-6.3
				c1.4-1.5,3.1-2.6,5.2-3.4c2.1-0.7,4.3-1.2,6.7-1.4c2.4-0.2,4.5-0.3,6.5-0.3H626.7z M624.3,344.7c-1.2,0-2.6,0.1-4.4,0.2
				c-1.8,0.1-3.4,0.4-5,0.8c-1.6,0.4-3,1.1-4.1,2.1c-1.1,0.9-1.7,2.2-1.7,3.9c0,1.1,0.2,2,0.7,2.8c0.4,0.8,1,1.4,1.8,1.9
				c0.7,0.5,1.6,0.8,2.5,1s1.8,0.3,2.8,0.3c1.7,0,3.1-0.3,4.4-0.8c1.2-0.6,2.3-1.3,3.1-2.3c0.8-1,1.5-2.1,1.9-3.4
				c0.4-1.3,0.6-2.6,0.6-4.1v-2.4H624.3z"/>
			<path d="M642.5,338.5c0-1.4,0-2.9-0.1-4.4c-0.1-1.5-0.1-3.4-0.2-5.8h4.5v6.1h0.1c0.3-0.9,0.8-1.7,1.4-2.6s1.3-1.6,2.2-2.2
				s1.9-1.2,3-1.6c1.1-0.4,2.4-0.6,3.9-0.6c1.3,0,2.5,0.1,3.4,0.4l-0.9,4.5c-0.6-0.2-1.5-0.4-2.7-0.4c-1.8,0-3.3,0.3-4.5,1
				c-1.3,0.7-2.3,1.5-3.1,2.6c-0.8,1-1.5,2.2-1.9,3.4c-0.4,1.2-0.6,2.4-0.6,3.5V361h-4.6V338.5z"/>
			<path d="M682.2,332.4h-9.5v19.3c0,1.2,0.1,2.2,0.3,3c0.2,0.8,0.6,1.4,1,1.8c0.4,0.4,0.9,0.7,1.5,0.9c0.6,0.2,1.2,0.2,1.9,0.2
				c0.8,0,1.6-0.1,2.5-0.3c0.8-0.2,1.6-0.5,2.3-0.9l0.2,4.3c-1.7,0.8-3.8,1.2-6.2,1.2c-0.9,0-1.8-0.1-2.8-0.3
				c-1-0.2-1.8-0.7-2.6-1.3c-0.8-0.7-1.4-1.5-2-2.7c-0.5-1.1-0.8-2.6-0.8-4.4v-20.6h-6.9v-4.2h6.9V319h4.6v9.2h9.5V332.4z"/>
			<path d="M691.7,345.9c0.1,1.6,0.5,3.2,1.2,4.6c0.7,1.4,1.5,2.7,2.6,3.7c1.1,1,2.3,1.9,3.7,2.5c1.4,0.6,2.9,0.9,4.5,0.9
				c2.5,0,4.6-0.6,6.4-1.7c1.8-1.1,3.2-2.5,4.1-4l3.6,2.9c-2,2.5-4.1,4.2-6.5,5.3c-2.4,1.1-4.9,1.6-7.6,1.6c-2.4,0-4.7-0.4-6.8-1.3
				c-2.1-0.9-3.9-2.1-5.4-3.6c-1.5-1.5-2.7-3.4-3.5-5.5c-0.9-2.1-1.3-4.4-1.3-6.9c0-2.5,0.4-4.8,1.3-6.9c0.8-2.1,2-3.9,3.5-5.5
				c1.5-1.5,3.2-2.7,5.2-3.6c2-0.9,4.2-1.3,6.5-1.3c2.5,0,4.7,0.4,6.6,1.3c2,0.9,3.6,2.1,4.9,3.5c1.3,1.5,2.3,3.2,3,5.2s1,4.1,1,6.3
				v2.1H691.7z M713.9,342.1c0-3.1-0.9-5.7-2.8-7.6c-1.9-1.9-4.5-2.9-7.8-2.9c-1.5,0-2.9,0.3-4.3,0.9c-1.4,0.6-2.6,1.4-3.7,2.3
				c-1.1,1-1.9,2.1-2.5,3.4c-0.6,1.3-0.9,2.6-0.9,3.9H713.9z"/>
			<path d="M727.4,335.5c0-1.2,0-2.4-0.1-3.6c-0.1-1.2-0.2-2.4-0.2-3.6h5v5h0.1c1.1-1.9,2.7-3.4,4.7-4.3c2-1,4-1.5,5.9-1.5
				c0.9,0,1.8,0.1,2.8,0.3c1,0.2,2,0.5,2.9,1c0.9,0.5,1.8,1.2,2.6,2.1c0.8,0.9,1.5,2,2.1,3.4c0.9-2.1,2.4-3.8,4.4-5
				c2-1.2,4.1-1.8,6.3-1.8c4.2,0,7.3,1.1,9.3,3.3c2,2.2,3,5.4,3,9.5V361h-4.6v-19.1c0-3.3-0.6-5.9-1.8-7.6c-1.2-1.8-3.3-2.7-6.5-2.7
				c-1.7,0-3.2,0.3-4.3,1c-1.2,0.7-2.1,1.6-2.8,2.7c-0.7,1.1-1.2,2.4-1.6,3.8c-0.3,1.4-0.5,2.9-0.5,4.4V361h-4.6v-19.1
				c0-3.3-0.6-5.9-1.8-7.6c-1.2-1.8-3.3-2.7-6.5-2.7c-0.3,0-0.9,0.1-1.9,0.3c-1,0.2-2,0.7-3.1,1.5s-2,2.1-2.9,3.8
				c-0.9,1.7-1.3,4-1.3,7V361h-4.6V335.5z"/>
			<path d="M790.2,345.9c0.1,1.6,0.5,3.2,1.2,4.6c0.7,1.4,1.5,2.7,2.6,3.7c1.1,1,2.3,1.9,3.7,2.5c1.4,0.6,2.9,0.9,4.5,0.9
				c2.5,0,4.6-0.6,6.4-1.7c1.8-1.1,3.2-2.5,4.1-4l3.6,2.9c-2,2.5-4.1,4.2-6.5,5.3c-2.4,1.1-4.9,1.6-7.6,1.6c-2.4,0-4.7-0.4-6.8-1.3
				c-2.1-0.9-3.9-2.1-5.4-3.6c-1.5-1.5-2.7-3.4-3.5-5.5c-0.9-2.1-1.3-4.4-1.3-6.9c0-2.5,0.4-4.8,1.3-6.9c0.8-2.1,2-3.9,3.5-5.5
				c1.5-1.5,3.2-2.7,5.2-3.6c2-0.9,4.2-1.3,6.5-1.3c2.5,0,4.7,0.4,6.6,1.3c2,0.9,3.6,2.1,4.9,3.5c1.3,1.5,2.3,3.2,3,5.2s1,4.1,1,6.3
				v2.1H790.2z M812.5,342.1c0-3.1-0.9-5.7-2.8-7.6c-1.9-1.9-4.5-2.9-7.8-2.9c-1.5,0-2.9,0.3-4.3,0.9c-1.4,0.6-2.6,1.4-3.7,2.3
				c-1.1,1-1.9,2.1-2.5,3.4c-0.6,1.3-0.9,2.6-0.9,3.9H812.5z"/>
			<path d="M830.4,328.2c0.1,0.9,0.2,1.8,0.2,2.6c0,0.9,0,1.7,0,2.6h0.1c0.5-0.9,1.2-1.7,2-2.5c0.8-0.7,1.7-1.4,2.7-1.9
				c1-0.5,2-1,3.1-1.3c1.1-0.3,2.2-0.5,3.3-0.5c4.2,0,7.3,1.1,9.3,3.3c2,2.2,3,5.4,3,9.5V361h-4.6v-18.1c0-3.6-0.6-6.4-1.9-8.4
				c-1.3-1.9-3.6-2.9-7-2.9c-0.2,0-0.9,0.1-2,0.3c-1.1,0.2-2.2,0.7-3.4,1.5c-1.2,0.8-2.3,2.1-3.2,3.8c-0.9,1.7-1.4,4-1.4,7V361h-4.6
				v-25.5c0-0.9,0-2-0.1-3.4c-0.1-1.4-0.2-2.6-0.2-3.8H830.4z"/>
			<path d="M881.8,332.4h-9.5v19.3c0,1.2,0.1,2.2,0.4,3c0.2,0.8,0.6,1.4,1,1.8c0.4,0.4,0.9,0.7,1.5,0.9c0.6,0.2,1.2,0.2,1.9,0.2
				c0.8,0,1.6-0.1,2.5-0.3c0.8-0.2,1.6-0.5,2.3-0.9l0.2,4.3c-1.7,0.8-3.8,1.2-6.2,1.2c-0.9,0-1.8-0.1-2.8-0.3
				c-1-0.2-1.8-0.7-2.6-1.3c-0.8-0.7-1.4-1.5-2-2.7c-0.5-1.1-0.8-2.6-0.8-4.4v-20.6h-6.9v-4.2h6.9V319h4.6v9.2h9.5V332.4z"/>
		</g>
		<g class="st1">
			<path d="M918.1,331.4h2.2c1.2,0,2.4-0.1,3.5-0.2c1.1-0.1,2.2-0.4,3.1-0.9c0.9-0.5,1.6-1.1,2.2-2c0.6-0.9,0.8-2.1,0.8-3.6
				c0-1.9-0.7-3.5-2-4.7c-1.3-1.2-3-1.8-5.1-1.8c-1.7,0-3.2,0.5-4.5,1.4c-1.3,1-2.3,2.3-2.9,4l-8.9-2.4c0.6-1.8,1.4-3.4,2.4-4.8
				c1-1.4,2.2-2.5,3.6-3.3c1.4-0.9,2.9-1.5,4.6-1.9c1.7-0.4,3.4-0.6,5.2-0.6c2.1,0,4.2,0.3,6.1,0.8c1.9,0.6,3.6,1.4,5,2.5
				c1.4,1.1,2.6,2.5,3.5,4.1c0.9,1.7,1.3,3.6,1.3,5.8c0,2.7-0.7,5-2.2,7.1c-1.5,2.1-3.6,3.4-6.2,4.1v0.1c3.2,0.5,5.6,1.8,7.2,4.1
				c1.6,2.2,2.5,4.9,2.5,8c0,2.4-0.5,4.5-1.4,6.3c-0.9,1.8-2.1,3.3-3.7,4.6c-1.5,1.2-3.3,2.2-5.4,2.8c-2,0.6-4.1,0.9-6.3,0.9
				c-2.1,0-4-0.2-5.8-0.7c-1.8-0.4-3.5-1.1-4.9-2.1c-1.5-0.9-2.7-2.1-3.8-3.6c-1.1-1.5-1.9-3.2-2.5-5.3l9-2.4
				c0.5,2.1,1.4,3.6,2.7,4.8c1.3,1.1,3.1,1.7,5.3,1.7c1.1,0,2.2-0.2,3.2-0.6c1-0.4,1.9-0.9,2.7-1.6c0.8-0.7,1.4-1.5,1.8-2.4
				c0.4-1,0.7-2,0.7-3.2c0-1.6-0.3-2.9-1-3.9c-0.7-1-1.5-1.8-2.6-2.3c-1.1-0.5-2.2-0.9-3.5-1.1c-1.3-0.2-2.6-0.3-3.9-0.3h-2V331.4z"
				/>
			<path d="M962.7,321.1l-9.3,8.6l-4.9-5.8l15-12.5h7.6V361h-8.4V321.1z"/>
			<path d="M992.9,351.3h8.5l-6,18.5H988L992.9,351.3z"/>
			<path d="M1021.6,331.4h2.2c1.2,0,2.4-0.1,3.5-0.2c1.1-0.1,2.2-0.4,3.1-0.9c0.9-0.5,1.6-1.1,2.2-2c0.6-0.9,0.8-2.1,0.8-3.6
				c0-1.9-0.7-3.5-2-4.7c-1.3-1.2-3-1.8-5.1-1.8c-1.7,0-3.2,0.5-4.5,1.4c-1.3,1-2.3,2.3-2.9,4l-8.9-2.4c0.6-1.8,1.4-3.4,2.4-4.8
				c1-1.4,2.2-2.5,3.6-3.3c1.4-0.9,2.9-1.5,4.6-1.9c1.7-0.4,3.4-0.6,5.2-0.6c2.1,0,4.2,0.3,6.1,0.8c1.9,0.6,3.6,1.4,5,2.5
				c1.4,1.1,2.6,2.5,3.5,4.1c0.9,1.7,1.3,3.6,1.3,5.8c0,2.7-0.7,5-2.2,7.1c-1.5,2.1-3.6,3.4-6.2,4.1v0.1c3.2,0.5,5.6,1.8,7.2,4.1
				c1.6,2.2,2.5,4.9,2.5,8c0,2.4-0.5,4.5-1.4,6.3c-0.9,1.8-2.1,3.3-3.7,4.6c-1.5,1.2-3.3,2.2-5.4,2.8c-2,0.6-4.1,0.9-6.3,0.9
				c-2.1,0-4-0.2-5.8-0.7c-1.8-0.4-3.5-1.1-4.9-2.1c-1.5-0.9-2.7-2.1-3.8-3.6c-1.1-1.5-1.9-3.2-2.5-5.3l9-2.4
				c0.5,2.1,1.4,3.6,2.7,4.8c1.3,1.1,3.1,1.7,5.3,1.7c1.1,0,2.2-0.2,3.2-0.6c1-0.4,1.9-0.9,2.7-1.6c0.8-0.7,1.4-1.5,1.8-2.4
				c0.4-1,0.7-2,0.7-3.2c0-1.6-0.3-2.9-1-3.9c-0.7-1-1.5-1.8-2.6-2.3c-1.1-0.5-2.2-0.9-3.5-1.1c-1.3-0.2-2.6-0.3-3.9-0.3h-2V331.4z"
				/>
			<path d="M1078.1,311.4l-11.9,18.3l0.1,0.1c0.5-0.3,1.2-0.5,2.1-0.6c0.9-0.1,1.7-0.2,2.6-0.2c2.2,0,4.2,0.4,6,1.3s3.4,2,4.7,3.4
				c1.3,1.4,2.4,3.1,3.1,5c0.7,1.9,1.1,3.9,1.1,6.1c0,2.6-0.4,4.9-1.3,7c-0.9,2.1-2.1,3.9-3.7,5.4s-3.4,2.6-5.6,3.4s-4.5,1.2-7,1.2
				c-2.6,0-5-0.4-7.1-1.2c-2.1-0.8-4-1.9-5.6-3.3s-2.8-3.2-3.6-5.3c-0.9-2.1-1.3-4.5-1.3-7.1c0-2.6,0.4-5,1.3-7.1
				c0.9-2.1,2-4.3,3.3-6.5l12.7-19.9H1078.1z M1059.4,344.8c0,1.3,0.2,2.4,0.7,3.5c0.5,1.1,1.1,2.1,1.9,2.9s1.8,1.5,2.9,1.9
				c1.1,0.5,2.3,0.7,3.5,0.7s2.4-0.2,3.5-0.7c1.1-0.5,2.1-1.1,2.9-1.9c0.8-0.8,1.5-1.8,1.9-2.9c0.5-1.1,0.7-2.3,0.7-3.5
				s-0.2-2.4-0.7-3.5c-0.5-1.1-1.1-2.1-1.9-2.9c-0.8-0.8-1.8-1.5-2.9-1.9c-1.1-0.5-2.3-0.7-3.5-0.7s-2.4,0.2-3.5,0.7
				c-1.1,0.5-2.1,1.1-2.9,1.9c-0.8,0.8-1.5,1.8-1.9,2.9C1059.7,342.4,1059.4,343.6,1059.4,344.8z"/>
			<path d="M1091.1,323.6c0-1.8,0.3-3.5,1-5.1c0.7-1.6,1.6-2.9,2.8-4.1c1.2-1.2,2.6-2.1,4.1-2.8c1.6-0.7,3.3-1,5.1-1s3.5,0.3,5.1,1
				c1.6,0.7,2.9,1.6,4.1,2.8s2.1,2.6,2.8,4.1c0.7,1.6,1,3.3,1,5.1s-0.3,3.5-1,5.1c-0.7,1.6-1.6,2.9-2.8,4.1
				c-1.2,1.2-2.6,2.1-4.1,2.8c-1.6,0.7-3.3,1-5.1,1s-3.5-0.3-5.1-1c-1.6-0.7-2.9-1.6-4.1-2.8c-1.2-1.2-2.1-2.6-2.8-4.1
				C1091.4,327.1,1091.1,325.4,1091.1,323.6z M1110.4,323.6c0-1.8-0.6-3.3-1.8-4.5c-1.2-1.2-2.7-1.8-4.5-1.8c-1.8,0-3.3,0.6-4.5,1.8
				c-1.2,1.2-1.8,2.7-1.8,4.5c0,1.8,0.6,3.3,1.8,4.5c1.2,1.2,2.7,1.8,4.5,1.8c1.8,0,3.3-0.6,4.5-1.8
				C1109.8,326.9,1110.4,325.4,1110.4,323.6z M1132.5,309.2l5.8,2.7l-29.1,51.4l-5.8-2.7L1132.5,309.2z M1124.3,348.8
				c0-1.8,0.3-3.5,1-5.1c0.7-1.6,1.6-2.9,2.8-4.1c1.2-1.2,2.6-2.1,4.1-2.8s3.3-1,5.1-1s3.5,0.3,5.1,1c1.6,0.7,2.9,1.6,4.1,2.8
				c1.2,1.2,2.1,2.6,2.8,4.1c0.7,1.6,1,3.3,1,5.1c0,1.8-0.3,3.5-1,5.1c-0.7,1.6-1.6,2.9-2.8,4.1c-1.2,1.2-2.6,2.1-4.1,2.8
				c-1.6,0.7-3.3,1-5.1,1s-3.5-0.3-5.1-1s-2.9-1.6-4.1-2.8c-1.2-1.2-2.1-2.6-2.8-4.1C1124.7,352.3,1124.3,350.6,1124.3,348.8z
				 M1143.7,348.8c0-1.8-0.6-3.3-1.8-4.5c-1.2-1.2-2.7-1.8-4.5-1.8c-1.8,0-3.3,0.6-4.5,1.8c-1.2,1.2-1.8,2.7-1.8,4.5
				s0.6,3.3,1.8,4.5c1.2,1.2,2.7,1.8,4.5,1.8c1.8,0,3.3-0.6,4.5-1.8C1143.1,352.1,1143.7,350.6,1143.7,348.8z"/>
		</g>
		<g class="st1">
			<path d="M360.7,430.5h-18v-4.6h18V430.5z"/>
			<path d="M394.5,440.4h23.1v4.6h-28.1v-49.6h5V440.4z"/>
			<path d="M443.8,424.9v-0.8c0-5.6-2.8-8.5-8.4-8.5c-3.8,0-7.2,1.3-10,3.9l-2.8-3.3c3.1-3.2,7.7-4.8,13.9-4.8
				c1.6,0,3.1,0.2,4.6,0.7c1.5,0.5,2.7,1.2,3.8,2.1c1.1,1,1.9,2.2,2.6,3.6c0.7,1.4,1,3.2,1,5.2v14.6c0,1.3,0.1,2.6,0.2,4
				c0.1,1.4,0.2,2.5,0.4,3.4h-4.5c-0.1-0.8-0.2-1.7-0.3-2.6s-0.1-1.8-0.1-2.7H444c-1.4,2.2-3,3.8-4.8,4.7c-1.8,1-4.1,1.4-6.8,1.4
				c-1.4,0-2.8-0.2-4.2-0.6c-1.4-0.4-2.6-1-3.6-1.8c-1.1-0.8-1.9-1.8-2.5-3s-0.9-2.6-0.9-4.2c0-2.7,0.7-4.7,2.1-6.3
				c1.4-1.5,3.1-2.6,5.2-3.4c2.1-0.7,4.3-1.2,6.7-1.4c2.4-0.2,4.5-0.3,6.5-0.3H443.8z M441.4,428.7c-1.2,0-2.6,0.1-4.4,0.2
				c-1.8,0.1-3.4,0.4-5,0.8c-1.6,0.4-3,1.1-4.1,2.1c-1.1,0.9-1.7,2.2-1.7,3.9c0,1.1,0.2,2,0.7,2.8c0.4,0.8,1,1.4,1.8,1.9
				c0.7,0.5,1.6,0.8,2.5,1s1.8,0.3,2.8,0.3c1.7,0,3.1-0.3,4.4-0.8c1.2-0.6,2.3-1.3,3.1-2.3c0.8-1,1.5-2.1,1.9-3.4
				c0.4-1.3,0.6-2.6,0.6-4.1v-2.4H441.4z"/>
			<path d="M493,445h-5.2l-13.3-32.8h5.5l10.5,27.6h0.1l10.4-27.6h5.2L493,445z"/>
			<path d="M519.1,399.6c0,1-0.3,1.8-1,2.4s-1.5,0.9-2.3,0.9c-0.8,0-1.6-0.3-2.3-0.9s-1-1.4-1-2.4c0-1,0.3-1.8,1-2.4
				c0.7-0.6,1.5-0.9,2.3-0.9c0.8,0,1.6,0.3,2.3,0.9C518.7,397.9,519.1,398.7,519.1,399.6z M518,445h-4.6v-32.8h4.6V445z"/>
			<path d="M534.8,445h-4.6v-52.9h4.6V445z"/>
			<path d="M551.6,445H547v-52.9h4.6V445z"/>
			<path d="M566,429.9c0.1,1.6,0.5,3.2,1.2,4.6c0.7,1.4,1.5,2.7,2.6,3.7c1.1,1,2.3,1.9,3.7,2.5c1.4,0.6,2.9,0.9,4.5,0.9
				c2.5,0,4.6-0.6,6.4-1.7c1.8-1.1,3.2-2.5,4.1-4l3.6,2.9c-2,2.5-4.1,4.2-6.5,5.3c-2.4,1.1-4.9,1.6-7.6,1.6c-2.4,0-4.7-0.4-6.8-1.3
				c-2.1-0.9-3.9-2.1-5.4-3.6c-1.5-1.5-2.7-3.4-3.5-5.5c-0.9-2.1-1.3-4.4-1.3-6.9c0-2.5,0.4-4.8,1.3-6.9c0.8-2.1,2-3.9,3.5-5.5
				c1.5-1.5,3.2-2.7,5.2-3.6c2-0.9,4.2-1.3,6.5-1.3c2.5,0,4.7,0.4,6.7,1.3s3.6,2.1,4.9,3.5c1.3,1.5,2.3,3.2,3,5.2
				c0.7,2,1.1,4.1,1.1,6.3v2.1H566z M588.2,426.1c0-3.1-0.9-5.7-2.8-7.6c-1.9-1.9-4.5-2.9-7.8-2.9c-1.5,0-2.9,0.3-4.3,0.9
				c-1.4,0.6-2.6,1.4-3.7,2.3c-1,1-1.9,2.1-2.5,3.4c-0.6,1.3-0.9,2.6-0.9,3.9H588.2z"/>
		</g>
		<g class="st1">
			<path d="M639.6,434.9h-21.1v-8.3l20-31.1h9.5v31.9h7.2v7.6H648V445h-8.4V434.9z M639.6,407.3h-0.1l-12.4,20h12.5V407.3z"/>
			<path d="M692.9,403h-20l-0.2,9.9c0.7-0.2,1.5-0.4,2.5-0.5c1-0.1,1.9-0.1,2.8-0.1c2.4,0,4.7,0.4,6.7,1.2c2,0.8,3.8,1.9,5.2,3.3
				c1.4,1.4,2.6,3.2,3.4,5.2c0.8,2,1.2,4.3,1.2,6.8c0,2.7-0.5,5.1-1.4,7.2c-0.9,2.1-2.2,3.9-3.8,5.4c-1.6,1.5-3.5,2.6-5.7,3.4
				c-2.2,0.8-4.6,1.2-7.1,1.2c-4,0-7.3-0.9-10.1-2.8c-2.8-1.9-4.7-4.7-5.9-8.5l8.8-2.4c0.6,1.8,1.5,3.2,2.9,4.2
				c1.4,1,3.1,1.5,5.2,1.5c1.3,0,2.4-0.2,3.5-0.6c1.1-0.4,2-1,2.7-1.8c0.8-0.8,1.4-1.7,1.8-2.7c0.4-1,0.6-2.1,0.6-3.4
				c0-1.7-0.3-3.2-0.9-4.4s-1.5-2.2-2.6-3c-1.1-0.8-2.3-1.3-3.7-1.7c-1.4-0.4-2.9-0.5-4.4-0.5c-1.8,0-3.6,0.2-5.4,0.6
				c-1.8,0.4-3.4,1-4.9,1.8l0.5-26.7h28.2V403z"/>
			<path d="M706.5,435.3h8.5l-6,18.5h-7.5L706.5,435.3z"/>
			<path d="M750.3,395.4l-11.9,18.3l0.1,0.1c0.5-0.3,1.2-0.5,2.1-0.6c0.9-0.1,1.7-0.2,2.6-0.2c2.2,0,4.2,0.4,6,1.3
				c1.8,0.8,3.4,2,4.7,3.4c1.3,1.4,2.4,3.1,3.1,5c0.7,1.9,1.1,3.9,1.1,6.1c0,2.6-0.4,4.9-1.3,7c-0.9,2.1-2.1,3.9-3.7,5.4
				c-1.6,1.5-3.4,2.6-5.6,3.4s-4.5,1.2-7,1.2c-2.6,0-5-0.4-7.1-1.2c-2.1-0.8-4-1.9-5.6-3.3c-1.6-1.4-2.8-3.2-3.6-5.3
				c-0.9-2.1-1.3-4.5-1.3-7.1c0-2.6,0.4-5,1.3-7.1c0.9-2.1,2-4.3,3.3-6.5l12.7-19.9H750.3z M731.6,428.8c0,1.3,0.2,2.4,0.7,3.5
				c0.5,1.1,1.1,2.1,1.9,2.9c0.8,0.8,1.8,1.5,2.9,1.9c1.1,0.5,2.3,0.7,3.5,0.7c1.3,0,2.4-0.2,3.5-0.7c1.1-0.5,2.1-1.1,2.9-1.9
				s1.5-1.8,1.9-2.9c0.5-1.1,0.7-2.3,0.7-3.5s-0.2-2.4-0.7-3.5c-0.5-1.1-1.1-2.1-1.9-2.9c-0.8-0.8-1.8-1.5-2.9-1.9
				c-1.1-0.5-2.3-0.7-3.5-0.7c-1.3,0-2.4,0.2-3.5,0.7c-1.1,0.5-2.1,1.1-2.9,1.9c-0.8,0.8-1.5,1.8-1.9,2.9
				C731.8,426.4,731.6,427.6,731.6,428.8z"/>
			<path d="M763.2,407.6c0-1.8,0.3-3.5,1-5.1c0.7-1.6,1.6-2.9,2.8-4.1c1.2-1.2,2.6-2.1,4.1-2.8c1.6-0.7,3.3-1,5.1-1s3.5,0.3,5.1,1
				c1.6,0.7,2.9,1.6,4.1,2.8s2.1,2.6,2.8,4.1c0.7,1.6,1,3.3,1,5.1s-0.3,3.5-1,5.1c-0.7,1.6-1.6,2.9-2.8,4.1
				c-1.2,1.2-2.6,2.1-4.1,2.8c-1.6,0.7-3.3,1-5.1,1s-3.5-0.3-5.1-1c-1.6-0.7-2.9-1.6-4.1-2.8c-1.2-1.2-2.1-2.6-2.8-4.1
				C763.6,411.1,763.2,409.4,763.2,407.6z M782.6,407.6c0-1.8-0.6-3.3-1.8-4.5c-1.2-1.2-2.7-1.8-4.5-1.8c-1.8,0-3.3,0.6-4.5,1.8
				c-1.2,1.2-1.8,2.7-1.8,4.5c0,1.8,0.6,3.3,1.8,4.5c1.2,1.2,2.7,1.8,4.5,1.8c1.8,0,3.3-0.6,4.5-1.8
				C782,410.9,782.6,409.4,782.6,407.6z M804.6,393.2l5.8,2.7l-29.1,51.4l-5.8-2.7L804.6,393.2z M796.5,432.8c0-1.8,0.3-3.5,1-5.1
				c0.7-1.6,1.6-2.9,2.8-4.1c1.2-1.2,2.6-2.1,4.1-2.8s3.3-1,5.1-1s3.5,0.3,5.1,1c1.6,0.7,2.9,1.6,4.1,2.8c1.2,1.2,2.1,2.6,2.8,4.1
				c0.7,1.6,1,3.3,1,5.1c0,1.8-0.3,3.5-1,5.1c-0.7,1.6-1.6,2.9-2.8,4.1c-1.2,1.2-2.6,2.1-4.1,2.8c-1.6,0.7-3.3,1-5.1,1
				s-3.5-0.3-5.1-1s-2.9-1.6-4.1-2.8c-1.2-1.2-2.1-2.6-2.8-4.1C796.8,436.3,796.5,434.6,796.5,432.8z M815.8,432.8
				c0-1.8-0.6-3.3-1.8-4.5c-1.2-1.2-2.7-1.8-4.5-1.8c-1.8,0-3.3,0.6-4.5,1.8c-1.2,1.2-1.8,2.7-1.8,4.5s0.6,3.3,1.8,4.5
				c1.2,1.2,2.7,1.8,4.5,1.8c1.8,0,3.3-0.6,4.5-1.8C815.2,436.1,815.8,434.6,815.8,432.8z"/>
		</g>
		<g class="st1">
			<path d="M360.7,514.5h-18v-4.6h18V514.5z"/>
			<path d="M394.5,524.4h23.1v4.6h-28.1v-49.6h5V524.4z"/>
			<path d="M419.5,495.9h-4.6l4.7-16.4h5.7L419.5,495.9z"/>
			<path d="M440.9,483.6c0,1-0.3,1.8-1,2.4s-1.5,0.9-2.3,0.9s-1.6-0.3-2.3-0.9c-0.7-0.6-1-1.4-1-2.4c0-1,0.4-1.8,1-2.4
				c0.7-0.6,1.5-0.9,2.3-0.9s1.6,0.3,2.3,0.9C440.5,481.9,440.9,482.7,440.9,483.6z M439.8,529h-4.6v-32.8h4.6V529z"/>
			<path d="M455.4,496.2c0.1,0.9,0.2,1.8,0.2,2.6c0,0.9,0,1.7,0,2.6h0.1c0.5-0.9,1.2-1.7,2-2.5c0.8-0.7,1.7-1.4,2.7-1.9
				c1-0.5,2-1,3.1-1.3c1.1-0.3,2.2-0.5,3.3-0.5c4.2,0,7.3,1.1,9.3,3.3c2,2.2,3,5.4,3,9.5V529h-4.6v-18.1c0-3.6-0.6-6.4-1.9-8.4
				c-1.3-1.9-3.6-2.9-7-2.9c-0.2,0-0.9,0.1-2,0.3c-1.1,0.2-2.2,0.7-3.4,1.5c-1.2,0.8-2.3,2.1-3.2,3.8c-0.9,1.7-1.4,4-1.4,7V529H451
				v-25.5c0-0.9,0-2-0.1-3.4c-0.1-1.4-0.2-2.6-0.2-3.8H455.4z"/>
			<path d="M506.8,500.4h-9.5v19.3c0,1.2,0.1,2.2,0.4,3c0.2,0.8,0.6,1.4,1,1.8c0.4,0.4,0.9,0.7,1.5,0.9c0.6,0.2,1.2,0.2,1.9,0.2
				c0.8,0,1.6-0.1,2.5-0.3c0.8-0.2,1.6-0.5,2.3-0.9l0.2,4.3c-1.7,0.8-3.8,1.2-6.2,1.2c-0.9,0-1.8-0.1-2.8-0.3
				c-1-0.2-1.8-0.7-2.6-1.3c-0.8-0.7-1.4-1.5-2-2.7c-0.5-1.1-0.8-2.6-0.8-4.4v-20.6h-6.9v-4.2h6.9V487h4.6v9.2h9.5V500.4z"/>
			<path d="M516.3,513.9c0.1,1.6,0.5,3.2,1.2,4.6c0.7,1.4,1.5,2.7,2.6,3.7c1.1,1,2.3,1.9,3.7,2.5c1.4,0.6,2.9,0.9,4.5,0.9
				c2.5,0,4.6-0.6,6.4-1.7c1.8-1.1,3.2-2.5,4.1-4l3.6,2.9c-2,2.5-4.1,4.2-6.5,5.3c-2.4,1.1-4.9,1.6-7.6,1.6c-2.4,0-4.7-0.4-6.8-1.3
				c-2.1-0.9-3.9-2.1-5.4-3.6c-1.5-1.5-2.7-3.4-3.5-5.5c-0.9-2.1-1.3-4.4-1.3-6.9c0-2.5,0.4-4.8,1.3-6.9c0.8-2.1,2-3.9,3.5-5.5
				c1.5-1.5,3.2-2.7,5.2-3.6c2-0.9,4.2-1.3,6.5-1.3c2.5,0,4.7,0.4,6.7,1.3s3.6,2.1,4.9,3.5c1.3,1.5,2.3,3.2,3,5.2
				c0.7,2,1.1,4.1,1.1,6.3v2.1H516.3z M538.6,510.1c0-3.1-0.9-5.7-2.8-7.6c-1.9-1.9-4.5-2.9-7.8-2.9c-1.5,0-2.9,0.3-4.3,0.9
				c-1.4,0.6-2.6,1.4-3.7,2.3c-1,1-1.9,2.1-2.5,3.4c-0.6,1.3-0.9,2.6-0.9,3.9H538.6z"/>
			<path d="M552.5,506.5c0-1.4,0-2.9-0.1-4.4c-0.1-1.5-0.1-3.4-0.2-5.8h4.5v6.1h0.1c0.3-0.9,0.8-1.7,1.4-2.6s1.3-1.6,2.2-2.2
				s1.9-1.2,3-1.6c1.1-0.4,2.4-0.6,3.9-0.6c1.3,0,2.5,0.1,3.4,0.4l-0.9,4.5c-0.6-0.2-1.5-0.4-2.7-0.4c-1.8,0-3.3,0.3-4.5,1
				c-1.3,0.7-2.3,1.5-3.1,2.6c-0.8,1-1.5,2.2-1.9,3.4c-0.4,1.2-0.6,2.4-0.6,3.5V529h-4.6V506.5z"/>
			<path d="M597.9,503.9c-0.8-1.2-1.9-2.2-3.3-3.1c-1.4-0.8-3-1.3-4.9-1.3c-1.9,0-3.6,0.3-5.1,0.9c-1.5,0.7-2.8,1.6-3.9,2.7
				c-1.1,1.2-1.9,2.6-2.4,4.2c-0.6,1.6-0.8,3.3-0.8,5.2c0,1.9,0.3,3.6,0.8,5.2c0.6,1.6,1.4,3,2.4,4.2c1.1,1.2,2.4,2.1,3.9,2.7
				c1.5,0.7,3.2,1,5.1,0.9c1.8,0,3.4-0.4,4.9-1.3c1.4-0.8,2.5-1.9,3.3-3.1l3.8,2.9c-1.6,1.9-3.5,3.3-5.5,4.2
				c-2.1,0.9-4.2,1.4-6.4,1.4c-2.7,0-5.1-0.4-7.2-1.2c-2.1-0.9-4-2.1-5.5-3.6c-1.5-1.5-2.7-3.4-3.5-5.5c-0.8-2.1-1.2-4.4-1.2-6.9
				c0-2.5,0.4-4.8,1.2-6.9c0.8-2.1,1.9-4,3.5-5.5c1.5-1.5,3.3-2.7,5.5-3.6c2.1-0.9,4.5-1.3,7.2-1.2c2.2,0,4.4,0.5,6.4,1.4
				c2.1,0.9,3.9,2.3,5.5,4.2L597.9,503.9z"/>
			<path d="M640.9,512.6c0,2.5-0.4,4.8-1.3,6.9c-0.9,2.1-2.1,3.9-3.6,5.5s-3.4,2.7-5.5,3.6c-2.1,0.9-4.5,1.3-7,1.3
				c-2.5,0-4.8-0.4-7-1.3c-2.1-0.9-4-2.1-5.5-3.6s-2.7-3.4-3.6-5.5c-0.9-2.1-1.3-4.4-1.3-6.9c0-2.5,0.4-4.8,1.3-6.9
				c0.9-2.1,2.1-3.9,3.6-5.5s3.4-2.7,5.5-3.6c2.1-0.9,4.4-1.3,7-1.3c2.6,0,4.9,0.4,7,1.3c2.1,0.9,4,2.1,5.5,3.6s2.7,3.4,3.6,5.5
				C640.4,507.9,640.9,510.1,640.9,512.6z M635.8,512.6c0-1.8-0.3-3.5-0.9-5.1c-0.6-1.6-1.4-3-2.5-4.1c-1.1-1.2-2.4-2.1-3.9-2.8
				c-1.5-0.7-3.2-1-5.1-1c-1.9,0-3.6,0.3-5.1,1c-1.5,0.7-2.8,1.6-3.9,2.8c-1,1.2-1.9,2.5-2.5,4.1c-0.6,1.6-0.9,3.3-0.9,5.1
				s0.3,3.5,0.9,5.1c0.6,1.6,1.4,3,2.5,4.1c1,1.2,2.3,2.1,3.9,2.8c1.5,0.7,3.2,1,5.1,1c1.9,0,3.6-0.3,5.1-1c1.5-0.7,2.8-1.6,3.9-2.8
				c1.1-1.2,1.9-2.5,2.5-4.1C635.5,516.1,635.8,514.4,635.8,512.6z"/>
			<path d="M649.3,503.5c0-1.2,0-2.4-0.1-3.6c-0.1-1.2-0.2-2.4-0.2-3.6h5v5h0.1c1.1-1.9,2.7-3.4,4.7-4.3c2-1,4-1.5,5.9-1.5
				c0.9,0,1.8,0.1,2.8,0.3c1,0.2,2,0.5,2.9,1c0.9,0.5,1.8,1.2,2.6,2.1c0.8,0.9,1.5,2,2.1,3.4c0.9-2.1,2.4-3.8,4.4-5
				c2-1.2,4.1-1.8,6.3-1.8c4.2,0,7.3,1.1,9.3,3.3c2,2.2,3,5.4,3,9.5V529h-4.6v-19.1c0-3.3-0.6-5.9-1.8-7.6c-1.2-1.8-3.3-2.7-6.5-2.7
				c-1.7,0-3.2,0.3-4.3,1c-1.2,0.7-2.1,1.6-2.8,2.7c-0.7,1.1-1.2,2.4-1.6,3.8c-0.3,1.4-0.5,2.9-0.5,4.4V529h-4.6v-19.1
				c0-3.3-0.6-5.9-1.8-7.6c-1.2-1.8-3.3-2.7-6.5-2.7c-0.3,0-0.9,0.1-1.9,0.3c-1,0.2-2,0.7-3.1,1.5c-1.1,0.8-2,2.1-2.9,3.8
				c-0.9,1.7-1.3,4-1.3,7V529h-4.6V503.5z"/>
			<path d="M708.9,503.5c0-1.2,0-2.4-0.1-3.6c-0.1-1.2-0.2-2.4-0.2-3.6h5v5h0.1c1.1-1.9,2.7-3.4,4.7-4.3c2-1,4-1.5,5.9-1.5
				c0.9,0,1.8,0.1,2.8,0.3c1,0.2,2,0.5,2.9,1c0.9,0.5,1.8,1.2,2.6,2.1c0.8,0.9,1.5,2,2.1,3.4c0.9-2.1,2.4-3.8,4.4-5
				c2-1.2,4.1-1.8,6.3-1.8c4.2,0,7.3,1.1,9.3,3.3c2,2.2,3,5.4,3,9.5V529h-4.6v-19.1c0-3.3-0.6-5.9-1.8-7.6c-1.2-1.8-3.3-2.7-6.5-2.7
				c-1.7,0-3.2,0.3-4.3,1c-1.2,0.7-2.1,1.6-2.8,2.7c-0.7,1.1-1.2,2.4-1.6,3.8c-0.3,1.4-0.5,2.9-0.5,4.4V529H731v-19.1
				c0-3.3-0.6-5.9-1.8-7.6c-1.2-1.8-3.3-2.7-6.5-2.7c-0.3,0-0.9,0.1-1.9,0.3c-1,0.2-2,0.7-3.1,1.5s-2,2.1-2.9,3.8
				c-0.9,1.7-1.3,4-1.3,7V529h-4.6V503.5z"/>
			<path d="M792.2,529c-0.1-0.9-0.2-1.8-0.2-2.6c0-0.9,0-1.7,0-2.6h-0.1c-0.5,0.9-1.2,1.7-2,2.5c-0.8,0.7-1.7,1.4-2.7,1.9
				c-1,0.5-2,1-3.1,1.3c-1.1,0.3-2.2,0.5-3.3,0.5c-4.2,0-7.3-1.1-9.3-3.3c-2-2.2-3-5.4-3-9.5v-20.8h4.6v18.1c0,1.8,0.1,3.4,0.4,4.8
				c0.3,1.4,0.8,2.6,1.4,3.5c0.7,1,1.6,1.7,2.7,2.2c1.1,0.5,2.6,0.7,4.3,0.7c0.2,0,0.9-0.1,2-0.3c1.1-0.2,2.2-0.7,3.4-1.5
				c1.2-0.8,2.3-2.1,3.2-3.8c0.9-1.7,1.4-4,1.4-7v-16.8h4.6v25.5c0,0.9,0,2,0.1,3.4s0.2,2.6,0.2,3.8H792.2z"/>
			<path d="M811.9,496.2c0.1,0.9,0.2,1.8,0.2,2.6c0,0.9,0,1.7,0,2.6h0.1c0.5-0.9,1.2-1.7,2-2.5c0.8-0.7,1.7-1.4,2.7-1.9
				c1-0.5,2-1,3.1-1.3c1.1-0.3,2.2-0.5,3.3-0.5c4.2,0,7.3,1.1,9.3,3.3c2,2.2,3,5.4,3,9.5V529h-4.6v-18.1c0-3.6-0.6-6.4-1.9-8.4
				c-1.3-1.9-3.6-2.9-7-2.9c-0.2,0-0.9,0.1-2,0.3c-1.1,0.2-2.2,0.7-3.4,1.5c-1.2,0.8-2.3,2.1-3.2,3.8c-0.9,1.7-1.4,4-1.4,7V529h-4.6
				v-25.5c0-0.9,0-2-0.1-3.4c-0.1-1.4-0.2-2.6-0.2-3.8H811.9z"/>
			<path d="M867.4,508.9v-0.8c0-5.6-2.8-8.5-8.4-8.5c-3.8,0-7.2,1.3-10,3.9l-2.8-3.3c3.1-3.2,7.7-4.8,13.9-4.8
				c1.6,0,3.1,0.2,4.6,0.7c1.5,0.5,2.7,1.2,3.8,2.1c1.1,1,1.9,2.2,2.6,3.6c0.7,1.4,1,3.2,1,5.2v14.6c0,1.3,0.1,2.6,0.2,4
				c0.1,1.4,0.2,2.5,0.4,3.4h-4.5c-0.1-0.8-0.2-1.7-0.3-2.6s-0.1-1.8-0.1-2.7h-0.1c-1.4,2.2-3,3.8-4.8,4.7c-1.8,1-4.1,1.4-6.8,1.4
				c-1.4,0-2.8-0.2-4.2-0.6c-1.4-0.4-2.6-1-3.6-1.8c-1.1-0.8-1.9-1.8-2.5-3s-0.9-2.6-0.9-4.2c0-2.7,0.7-4.7,2.1-6.3
				c1.4-1.5,3.1-2.6,5.2-3.4c2.1-0.7,4.3-1.2,6.7-1.4c2.4-0.2,4.5-0.3,6.5-0.3H867.4z M865,512.7c-1.2,0-2.6,0.1-4.4,0.2
				c-1.8,0.1-3.4,0.4-5,0.8c-1.6,0.4-3,1.1-4.1,2.1c-1.1,0.9-1.7,2.2-1.7,3.9c0,1.1,0.2,2,0.7,2.8c0.4,0.8,1,1.4,1.8,1.9
				c0.7,0.5,1.6,0.8,2.5,1s1.8,0.3,2.8,0.3c1.7,0,3.1-0.3,4.4-0.8c1.2-0.6,2.3-1.3,3.1-2.3c0.8-1,1.5-2.1,1.9-3.4
				c0.4-1.3,0.6-2.6,0.6-4.1v-2.4H865z"/>
			<path d="M888.4,529h-4.6v-52.9h4.6V529z"/>
			<path d="M906.2,483.6c0,1-0.3,1.8-1,2.4s-1.5,0.9-2.3,0.9c-0.8,0-1.6-0.3-2.3-0.9s-1-1.4-1-2.4c0-1,0.3-1.8,1-2.4
				c0.7-0.6,1.5-0.9,2.3-0.9c0.8,0,1.6,0.3,2.3,0.9C905.9,481.9,906.2,482.7,906.2,483.6z M905.2,529h-4.6v-32.8h4.6V529z"/>
			<path d="M933.3,500.4h-9.5v19.3c0,1.2,0.1,2.2,0.3,3c0.2,0.8,0.6,1.4,1,1.8c0.4,0.4,0.9,0.7,1.5,0.9c0.6,0.2,1.2,0.2,1.9,0.2
				c0.8,0,1.6-0.1,2.5-0.3c0.8-0.2,1.6-0.5,2.3-0.9l0.2,4.3c-1.7,0.8-3.8,1.2-6.2,1.2c-0.9,0-1.8-0.1-2.8-0.3
				c-1-0.2-1.8-0.7-2.6-1.3c-0.8-0.7-1.4-1.5-2-2.7c-0.5-1.1-0.8-2.6-0.8-4.4v-20.6h-6.9v-4.2h6.9V487h4.6v9.2h9.5V500.4z"/>
			<path d="M942.8,513.9c0.1,1.6,0.5,3.2,1.2,4.6c0.7,1.4,1.5,2.7,2.6,3.7c1.1,1,2.3,1.9,3.7,2.5c1.4,0.6,2.9,0.9,4.5,0.9
				c2.5,0,4.6-0.6,6.4-1.7c1.8-1.1,3.2-2.5,4.1-4l3.6,2.9c-2,2.5-4.1,4.2-6.5,5.3c-2.4,1.1-4.9,1.6-7.6,1.6c-2.4,0-4.7-0.4-6.8-1.3
				c-2.1-0.9-3.9-2.1-5.4-3.6c-1.5-1.5-2.7-3.4-3.5-5.5c-0.9-2.1-1.3-4.4-1.3-6.9c0-2.5,0.4-4.8,1.3-6.9c0.8-2.1,2-3.9,3.5-5.5
				c1.5-1.5,3.2-2.7,5.2-3.6c2-0.9,4.2-1.3,6.5-1.3c2.5,0,4.7,0.4,6.6,1.3c2,0.9,3.6,2.1,4.9,3.5c1.3,1.5,2.3,3.2,3,5.2s1,4.1,1,6.3
				v2.1H942.8z M965,510.1c0-3.1-0.9-5.7-2.8-7.6c-1.9-1.9-4.5-2.9-7.8-2.9c-1.5,0-2.9,0.3-4.3,0.9c-1.4,0.6-2.6,1.4-3.7,2.3
				c-1.1,1-1.9,2.1-2.5,3.4c-0.6,1.3-0.9,2.6-0.9,3.9H965z M953.8,489.5h-4.1l7-10.1h6.4L953.8,489.5z"/>
		</g>
		<g class="st1">
			<path d="M1005.1,520.1l19.2-18.6c0.6-0.6,1.1-1.2,1.8-1.8c0.6-0.6,1.2-1.3,1.6-2c0.5-0.7,0.9-1.4,1.2-2.2
				c0.3-0.8,0.5-1.6,0.5-2.4c0-1-0.2-1.9-0.6-2.7c-0.4-0.8-0.9-1.5-1.6-2c-0.7-0.6-1.4-1-2.3-1.3c-0.9-0.3-1.8-0.5-2.8-0.5
				c-2.1,0-3.8,0.6-5.2,1.8c-1.4,1.2-2.2,2.8-2.5,4.9l-8.8-0.7c0.2-2.3,0.7-4.3,1.6-6.1s2.1-3.2,3.5-4.4c1.4-1.2,3.1-2.1,5-2.7
				c1.9-0.6,4-0.9,6.2-0.9c2.2,0,4.3,0.3,6.3,0.9c1.9,0.6,3.6,1.4,5.1,2.6c1.4,1.1,2.6,2.6,3.4,4.4s1.3,3.8,1.3,6.2
				c0,3.1-0.7,5.8-2.1,8.1c-1.4,2.3-3.3,4.4-5.5,6.5l-15.3,14.2h23v7.6h-33.2V520.1z"/>
			<path d="M1046.6,520.1l19.2-18.6c0.6-0.6,1.1-1.2,1.8-1.8c0.6-0.6,1.2-1.3,1.6-2c0.5-0.7,0.9-1.4,1.2-2.2
				c0.3-0.8,0.5-1.6,0.5-2.4c0-1-0.2-1.9-0.6-2.7c-0.4-0.8-0.9-1.5-1.6-2c-0.7-0.6-1.4-1-2.3-1.3c-0.9-0.3-1.8-0.5-2.8-0.5
				c-2.1,0-3.8,0.6-5.2,1.8c-1.4,1.2-2.2,2.8-2.5,4.9l-8.8-0.7c0.2-2.3,0.7-4.3,1.6-6.1s2.1-3.2,3.5-4.4c1.4-1.2,3.1-2.1,5-2.7
				c1.9-0.6,4-0.9,6.2-0.9c2.2,0,4.3,0.3,6.3,0.9c1.9,0.6,3.6,1.4,5.1,2.6c1.4,1.1,2.6,2.6,3.4,4.4s1.3,3.8,1.3,6.2
				c0,3.1-0.7,5.8-2.1,8.1c-1.4,2.3-3.3,4.4-5.5,6.5l-15.3,14.2h23v7.6h-33.2V520.1z"/>
			<path d="M1091.4,519.3h8.5l-6,18.5h-7.5L1091.4,519.3z"/>
			<path d="M1125.3,478.6c2.1,0,4.1,0.3,5.9,0.9c1.8,0.6,3.5,1.4,4.8,2.5c1.4,1.1,2.5,2.5,3.3,4.1c0.8,1.6,1.2,3.5,1.2,5.6
				c0,2.7-0.6,5-1.9,7c-1.2,2-3.1,3.4-5.6,4.1v0.1c1.2,0.2,2.3,0.7,3.4,1.4s2.1,1.6,2.9,2.7c0.8,1,1.5,2.3,2,3.6
				c0.5,1.4,0.7,2.8,0.7,4.3c0,2.5-0.4,4.6-1.3,6.5c-0.9,1.8-2.1,3.4-3.6,4.7c-1.5,1.3-3.3,2.2-5.3,2.8c-2.1,0.6-4.2,0.9-6.5,0.9
				c-2.3,0-4.5-0.3-6.5-0.9c-2-0.6-3.8-1.6-5.3-2.8c-1.5-1.3-2.7-2.8-3.6-4.7c-0.9-1.8-1.3-4-1.3-6.5c0-1.5,0.2-3,0.7-4.3
				c0.5-1.4,1.2-2.6,2-3.6c0.8-1.1,1.8-1.9,2.9-2.7c1.1-0.7,2.2-1.2,3.4-1.4v-0.1c-2.5-0.7-4.4-2.1-5.6-4.1c-1.2-2-1.9-4.3-1.9-7
				c0-2.1,0.4-4,1.2-5.6c0.8-1.6,1.9-3,3.3-4.1c1.4-1.1,3-1.9,4.8-2.5C1121.3,478.9,1123.2,478.6,1125.3,478.6z M1125.3,506.1
				c-1.1,0-2.2,0.2-3.2,0.6c-1,0.4-1.9,0.9-2.7,1.6c-0.7,0.7-1.3,1.5-1.8,2.5c-0.4,1-0.7,2-0.7,3.1c0,2.4,0.8,4.3,2.3,5.8
				c1.6,1.5,3.6,2.2,6,2.2c2.4,0,4.4-0.7,6-2.2c1.6-1.5,2.3-3.4,2.3-5.8c0-1.1-0.2-2.2-0.7-3.1c-0.4-1-1-1.8-1.8-2.5
				c-0.7-0.7-1.6-1.2-2.7-1.6C1127.5,506.3,1126.4,506.1,1125.3,506.1z M1125.3,485.7c-2.1,0-3.8,0.7-5,2c-1.2,1.3-1.8,2.9-1.8,4.8
				c0,2,0.6,3.6,1.8,4.9c1.2,1.3,2.9,2,5,2c0.9,0,1.8-0.2,2.6-0.5c0.8-0.4,1.5-0.8,2.2-1.5c0.6-0.6,1.1-1.4,1.5-2.2
				c0.4-0.8,0.5-1.8,0.5-2.7c0-1.9-0.6-3.5-1.9-4.8C1128.9,486.4,1127.3,485.7,1125.3,485.7z"/>
			<path d="M1148.1,491.6c0-1.8,0.3-3.5,1-5.1c0.7-1.6,1.6-2.9,2.8-4.1c1.2-1.2,2.6-2.1,4.1-2.8c1.6-0.7,3.3-1,5.1-1
				c1.8,0,3.5,0.3,5.1,1c1.6,0.7,2.9,1.6,4.1,2.8c1.2,1.2,2.1,2.6,2.8,4.1c0.7,1.6,1,3.3,1,5.1s-0.3,3.5-1,5.1
				c-0.7,1.6-1.6,2.9-2.8,4.1c-1.2,1.2-2.6,2.1-4.1,2.8c-1.6,0.7-3.3,1-5.1,1c-1.8,0-3.5-0.3-5.1-1c-1.6-0.7-2.9-1.6-4.1-2.8
				c-1.2-1.2-2.1-2.6-2.8-4.1C1148.5,495.1,1148.1,493.4,1148.1,491.6z M1167.5,491.6c0-1.8-0.6-3.3-1.8-4.5
				c-1.2-1.2-2.7-1.8-4.5-1.8c-1.8,0-3.3,0.6-4.5,1.8c-1.2,1.2-1.8,2.7-1.8,4.5c0,1.8,0.6,3.3,1.8,4.5c1.2,1.2,2.7,1.8,4.5,1.8
				c1.8,0,3.3-0.6,4.5-1.8C1166.9,494.9,1167.5,493.4,1167.5,491.6z M1189.5,477.2l5.8,2.7l-29.1,51.4l-5.8-2.7L1189.5,477.2z
				 M1181.4,516.8c0-1.8,0.3-3.5,1-5.1c0.7-1.6,1.6-2.9,2.8-4.1c1.2-1.2,2.6-2.1,4.1-2.8c1.6-0.7,3.3-1,5.1-1c1.8,0,3.5,0.3,5.1,1
				s2.9,1.6,4.1,2.8c1.2,1.2,2.1,2.6,2.8,4.1c0.7,1.6,1,3.3,1,5.1c0,1.8-0.3,3.5-1,5.1c-0.7,1.6-1.6,2.9-2.8,4.1
				c-1.2,1.2-2.6,2.1-4.1,2.8s-3.3,1-5.1,1c-1.8,0-3.5-0.3-5.1-1c-1.6-0.7-2.9-1.6-4.1-2.8c-1.2-1.2-2.1-2.6-2.8-4.1
				C1181.7,520.3,1181.4,518.6,1181.4,516.8z M1200.7,516.8c0-1.8-0.6-3.3-1.8-4.5c-1.2-1.2-2.7-1.8-4.5-1.8c-1.8,0-3.3,0.6-4.5,1.8
				c-1.2,1.2-1.8,2.7-1.8,4.5s0.6,3.3,1.8,4.5c1.2,1.2,2.7,1.8,4.5,1.8c1.8,0,3.3-0.6,4.5-1.8
				C1200.1,520.1,1200.7,518.6,1200.7,516.8z"/>
		</g>
	</g>
</g>
</svg>
