<?xml version="1.0" encoding="utf-8"?>
<!-- Generator: Adobe Illustrator 21.0.0, SVG Export Plug-In . SVG Version: 6.00 Build 0)  -->
<svg version="1.1" xmlns="http://www.w3.org/2000/svg" xmlns:xlink="http://www.w3.org/1999/xlink" x="0px" y="0px"
	 viewBox="0 0 1197.2 516" style="enable-background:new 0 0 1197.2 516;" xml:space="preserve">
<style type="text/css">
	.st0{fill:#0E97E7;}
	.st1{fill:#FFFFFF;}
	.st2{fill:none;stroke:#FFFFFF;stroke-width:18;stroke-miterlimit:10;}
	.st3{fill:none;stroke:#FFFFFF;stroke-width:5;stroke-miterlimit:10;}
	.st4{opacity:0.5;fill:none;stroke:#000000;stroke-width:1.5;stroke-miterlimit:10;}
	.st5{fill:none;stroke:#000000;stroke-width:8;stroke-miterlimit:10;}
	.st6{fill:#4F4F4F;}
	.st7{fill:none;stroke:#FFFFFF;stroke-width:16;stroke-miterlimit:10;}
	.st8{fill:none;stroke:#DF0920;stroke-width:18;stroke-miterlimit:10;}
	.st9{fill:none;stroke:#3E4098;stroke-width:18;stroke-miterlimit:10;}
	.st10{fill:#3E4098;}
	.st11{fill:none;stroke:#59C24F;stroke-width:18;stroke-miterlimit:10;}
	.st12{fill:none;}
</style>
<g id="Home_x5F_Claire_x5F_Juglair_x5F_St_x5F_Nazaire_xA0_Image_1_">
</g>
<g id="Calque_3">
</g>
<g id="bulles">
	<path class="st1" d="M107.4,478.5c0,18.8,15.2,34,34,34h1018c18.8,0,34-15.2,34-34v-448c0-18.8-15.2-34-34-34h-1018
		c-18.8,0-34,15.2-34,34V478.5z"/>
	<polygon class="st1" points="118.6,70.5 -8.9,70.5 107.5,166.5 	"/>
	<g>
		<path d="M241.1,171.6h-22.6l-5.1,14H209l18.8-49.8h4l18.8,49.8h-4.4L241.1,171.6z M219.8,168h20l-10-27.1L219.8,168z M232.4,132.2
			l-3.7,0l-7.7-9.5h4.9L232.4,132.2z"/>
		<path d="M285.6,179.9l11.2-31.3h4.2l-13.8,37h-3.3l-13.9-37h4.2L285.6,179.9z"/>
		<path d="M304.9,166.5c0-3.6,0.7-6.8,2.1-9.6c1.4-2.8,3.3-5.1,5.8-6.6c2.5-1.6,5.4-2.4,8.6-2.4c4.9,0,8.9,1.7,12,5.2
			c3.1,3.5,4.6,8,4.6,13.7v0.9c0,3.6-0.7,6.8-2.1,9.7c-1.4,2.9-3.3,5.1-5.8,6.6c-2.5,1.5-5.4,2.3-8.6,2.3c-4.9,0-8.9-1.7-11.9-5.2
			c-3.1-3.5-4.6-8-4.6-13.7V166.5z M309,167.7c0,4.4,1.1,8,3.4,10.9c2.3,2.8,5.3,4.3,9,4.3c3.7,0,6.7-1.4,9-4.3
			c2.3-2.8,3.4-6.6,3.4-11.2v-0.8c0-2.8-0.5-5.4-1.6-7.8c-1-2.3-2.5-4.2-4.4-5.5s-4.1-1.9-6.5-1.9c-3.6,0-6.6,1.4-8.9,4.3
			c-2.3,2.9-3.5,6.6-3.5,11.2V167.7z"/>
		<path d="M352.7,139.1v9.5h7.7v3.3h-7.7v24.7c0,2.1,0.4,3.6,1.1,4.6c0.7,1,2,1.5,3.7,1.5c0.7,0,1.8-0.1,3.3-0.3l0.2,3.3
			c-1.1,0.4-2.5,0.6-4.4,0.6c-2.8,0-4.8-0.8-6.1-2.4s-1.9-4-1.9-7.2v-24.7h-6.8v-3.3h6.8v-9.5H352.7z"/>
		<path d="M386,152.1c-0.9-0.2-1.8-0.2-2.8-0.2c-2.6,0-4.7,0.7-6.5,2.1c-1.8,1.4-3,3.5-3.8,6.2v25.4h-4.1v-37h4l0.1,5.9
			c2.2-4.4,5.6-6.6,10.4-6.6c1.1,0,2,0.1,2.7,0.4L386,152.1z"/>
		<path d="M406.1,186.3c-3.1,0-6-0.8-8.5-2.3c-2.5-1.5-4.5-3.7-5.9-6.5c-1.4-2.8-2.1-5.9-2.1-9.3v-1.5c0-3.6,0.7-6.8,2.1-9.6
			c1.4-2.8,3.3-5.1,5.8-6.7c2.5-1.6,5.1-2.4,8-2.4c4.5,0,8,1.5,10.7,4.6s3.9,7.3,3.9,12.6v2.3h-26.4v0.8c0,4.2,1.2,7.7,3.6,10.5
			c2.4,2.8,5.4,4.2,9.1,4.2c2.2,0,4.1-0.4,5.8-1.2c1.7-0.8,3.2-2.1,4.6-3.8l2.6,1.9C416.2,184.1,411.8,186.3,406.1,186.3z
			 M405.4,151.4c-3.1,0-5.7,1.1-7.8,3.4c-2.1,2.3-3.4,5.3-3.8,9.1h22.2v-0.4c-0.1-3.6-1.1-6.4-3-8.7
			C411,152.5,408.5,151.4,405.4,151.4z"/>
		<path d="M468.3,185.6c-0.4-1.2-0.7-2.9-0.8-5.2c-1.4,1.9-3.3,3.3-5.5,4.3c-2.2,1-4.6,1.5-7.1,1.5c-3.6,0-6.4-1-8.6-3
			c-2.2-2-3.3-4.5-3.3-7.5c0-3.6,1.5-6.4,4.5-8.5c3-2.1,7.2-3.1,12.5-3.1h7.4v-4.2c0-2.6-0.8-4.7-2.4-6.2c-1.6-1.5-4-2.3-7.1-2.3
			c-2.8,0-5.2,0.7-7.1,2.2c-1.9,1.5-2.8,3.2-2.8,5.3l-4.1,0c0-2.9,1.4-5.5,4.1-7.6c2.7-2.2,6.1-3.2,10.1-3.2c4.1,0,7.4,1,9.8,3.1
			c2.4,2.1,3.6,4.9,3.7,8.6v17.5c0,3.6,0.4,6.3,1.1,8v0.4H468.3z M455.5,182.6c2.7,0,5.2-0.7,7.3-2c2.2-1.3,3.7-3.1,4.7-5.3v-8.1
			h-7.3c-4.1,0-7.3,0.8-9.6,2.2s-3.5,3.4-3.5,6c0,2.1,0.8,3.8,2.3,5.2S453,182.6,455.5,182.6z"/>
		<path d="M493.5,179.9l11.2-31.3h4.2l-13.8,37h-3.3l-13.9-37h4.2L493.5,179.9z"/>
		<path d="M515.4,137.9c0-0.8,0.3-1.4,0.8-2c0.5-0.5,1.2-0.8,2.1-0.8s1.6,0.3,2.1,0.8c0.5,0.5,0.8,1.2,0.8,2c0,0.8-0.3,1.4-0.8,1.9
			c-0.5,0.5-1.2,0.8-2.1,0.8s-1.5-0.3-2.1-0.8C515.6,139.3,515.4,138.7,515.4,137.9z M520.2,185.6h-4.1v-37h4.1V185.6z"/>
		<path d="M553.5,176.2c0-2-0.8-3.7-2.4-4.9c-1.6-1.2-4.1-2.2-7.4-2.9c-3.3-0.7-5.8-1.5-7.6-2.4c-1.8-0.9-3.2-2-4-3.3
			c-0.9-1.3-1.3-2.9-1.3-4.7c0-2.9,1.2-5.3,3.7-7.2c2.4-1.9,5.6-2.9,9.4-2.9c4.1,0,7.4,1,9.9,3.1c2.5,2,3.7,4.7,3.7,8h-4.1
			c0-2.2-0.9-4-2.7-5.4s-4.1-2.2-6.9-2.2c-2.7,0-4.8,0.6-6.5,1.8c-1.6,1.2-2.4,2.8-2.4,4.7c0,1.8,0.7,3.3,2,4.3
			c1.4,1,3.8,1.9,7.4,2.8c3.6,0.8,6.3,1.7,8.1,2.7c1.8,1,3.1,2.1,4,3.5c0.9,1.3,1.3,3,1.3,4.9c0,3.1-1.3,5.6-3.8,7.5
			c-2.5,1.9-5.8,2.8-9.9,2.8c-4.3,0-7.8-1-10.5-3.1c-2.7-2.1-4-4.7-4-7.9h4.1c0.2,2.4,1.2,4.3,3,5.6c1.9,1.3,4.3,2,7.4,2
			c2.8,0,5.1-0.6,6.9-1.9C552.6,179.7,553.5,178.1,553.5,176.2z"/>
		<path d="M565.9,194.9l-2.4-1.8c2.1-2.8,3.1-5.7,3.2-8.6v-5.3h4v4.3C570.7,188.2,569.1,192,565.9,194.9z"/>
		<path d="M595.5,166.7c0-5.8,1.3-10.4,3.8-13.8c2.6-3.4,6.1-5.1,10.5-5.1c5,0,8.8,1.9,11.4,5.7l0.2-5h3.8v51.2h-4.1V181
			c-2.7,3.5-6.5,5.3-11.4,5.3c-4.3,0-7.8-1.7-10.4-5.1s-3.9-8-3.9-13.8V166.7z M599.7,167.5c0,4.8,1,8.5,2.9,11.3
			c1.9,2.7,4.6,4.1,8,4.1c4.9,0,8.4-2.1,10.6-6.4v-18.1c-1-2.2-2.4-3.9-4.3-5.1c-1.8-1.2-3.9-1.8-6.3-1.8c-3.4,0-6.1,1.4-8.1,4.1
			C600.6,158.2,599.7,162.2,599.7,167.5z"/>
		<path d="M660,180.9c-2.5,3.6-6.4,5.4-11.8,5.4c-3.9,0-6.9-1.1-9-3.4c-2.1-2.3-3.1-5.7-3.1-10.2v-24.1h4.1v23.5
			c0,7,2.8,10.6,8.5,10.6c5.9,0,9.7-2.4,11.2-7.3v-26.8h4.1v37h-4L660,180.9z"/>
		<path d="M689,186.3c-3.1,0-6-0.8-8.5-2.3c-2.5-1.5-4.5-3.7-5.9-6.5c-1.4-2.8-2.1-5.9-2.1-9.3v-1.5c0-3.6,0.7-6.8,2.1-9.6
			c1.4-2.8,3.3-5.1,5.8-6.7c2.5-1.6,5.1-2.4,8-2.4c4.5,0,8,1.5,10.7,4.6c2.6,3.1,3.9,7.3,3.9,12.6v2.3h-26.4v0.8
			c0,4.2,1.2,7.7,3.6,10.5c2.4,2.8,5.4,4.2,9.1,4.2c2.2,0,4.1-0.4,5.8-1.2c1.7-0.8,3.2-2.1,4.6-3.8l2.6,1.9
			C699.1,184.1,694.7,186.3,689,186.3z M688.2,151.4c-3.1,0-5.7,1.1-7.8,3.4s-3.4,5.3-3.8,9.1h22.2v-0.4c-0.1-3.6-1.1-6.4-3-8.7
			C693.8,152.5,691.3,151.4,688.2,151.4z"/>
		<path d="M715.4,185.6h-4.1v-52.5h4.1V185.6z"/>
		<path d="M731.1,185.6H727v-52.5h4.1V185.6z"/>
		<path d="M756.5,186.3c-3.1,0-6-0.8-8.5-2.3c-2.5-1.5-4.5-3.7-5.9-6.5c-1.4-2.8-2.1-5.9-2.1-9.3v-1.5c0-3.6,0.7-6.8,2.1-9.6
			c1.4-2.8,3.3-5.1,5.8-6.7c2.5-1.6,5.1-2.4,8-2.4c4.5,0,8,1.5,10.7,4.6c2.6,3.1,3.9,7.3,3.9,12.6v2.3H744v0.8
			c0,4.2,1.2,7.7,3.6,10.5c2.4,2.8,5.4,4.2,9.1,4.2c2.2,0,4.1-0.4,5.8-1.2c1.7-0.8,3.2-2.1,4.6-3.8l2.6,1.9
			C766.6,184.1,762.2,186.3,756.5,186.3z M755.8,151.4c-3.1,0-5.7,1.1-7.8,3.4s-3.4,5.3-3.8,9.1h22.2v-0.4c-0.1-3.6-1.1-6.4-3-8.7
			C761.4,152.5,758.9,151.4,755.8,151.4z"/>
		<path d="M825.1,167.5c0,5.8-1.3,10.3-3.8,13.7c-2.6,3.4-6,5.1-10.3,5.1c-5.1,0-8.9-1.8-11.6-5.3v18.9h-4.1v-51.2h3.8l0.2,5.2
			c2.7-3.9,6.5-5.9,11.6-5.9c4.4,0,7.9,1.7,10.4,5s3.8,8,3.8,13.9V167.5z M821,166.7c0-4.7-1-8.4-2.9-11.2c-1.9-2.7-4.6-4.1-8.1-4.1
			c-2.5,0-4.7,0.6-6.5,1.8c-1.8,1.2-3.2,3-4.1,5.3v17.7c1,2.1,2.4,3.7,4.2,4.9c1.8,1.1,4,1.7,6.5,1.7c3.4,0,6.1-1.4,8-4.1
			S821,172,821,166.7z"/>
		<path d="M857.5,185.6c-0.4-1.2-0.7-2.9-0.8-5.2c-1.4,1.9-3.3,3.3-5.5,4.3c-2.2,1-4.6,1.5-7.1,1.5c-3.6,0-6.4-1-8.6-3
			c-2.2-2-3.3-4.5-3.3-7.5c0-3.6,1.5-6.4,4.5-8.5c3-2.1,7.2-3.1,12.5-3.1h7.4v-4.2c0-2.6-0.8-4.7-2.4-6.2c-1.6-1.5-4-2.3-7.1-2.3
			c-2.8,0-5.2,0.7-7.1,2.2c-1.9,1.5-2.8,3.2-2.8,5.3l-4.1,0c0-2.9,1.4-5.5,4.1-7.6c2.7-2.2,6.1-3.2,10.1-3.2c4.1,0,7.4,1,9.8,3.1
			c2.4,2.1,3.6,4.9,3.7,8.6v17.5c0,3.6,0.4,6.3,1.1,8v0.4H857.5z M844.7,182.6c2.7,0,5.2-0.7,7.3-2c2.2-1.3,3.7-3.1,4.7-5.3v-8.1
			h-7.3c-4.1,0-7.3,0.8-9.6,2.2c-2.3,1.4-3.5,3.4-3.5,6c0,2.1,0.8,3.8,2.3,5.2C840.2,182,842.2,182.6,844.7,182.6z"/>
		<path d="M888.8,152.1c-0.9-0.2-1.8-0.2-2.8-0.2c-2.6,0-4.7,0.7-6.5,2.1c-1.8,1.4-3,3.5-3.8,6.2v25.4h-4.1v-37h4l0.1,5.9
			c2.2-4.4,5.6-6.6,10.4-6.6c1.1,0,2,0.1,2.7,0.4L888.8,152.1z"/>
		<path d="M903.3,139.1v9.5h7.7v3.3h-7.7v24.7c0,2.1,0.4,3.6,1.1,4.6c0.7,1,2,1.5,3.7,1.5c0.7,0,1.8-0.1,3.3-0.3l0.2,3.3
			c-1.1,0.4-2.5,0.6-4.4,0.6c-2.8,0-4.8-0.8-6.1-2.4c-1.3-1.6-1.9-4-1.9-7.2v-24.7h-6.8v-3.3h6.8v-9.5H903.3z"/>
		<path d="M934.8,166.7c0-5.7,1.3-10.3,3.8-13.7c2.6-3.4,6-5.1,10.4-5.1c5,0,8.8,2,11.4,5.9v-20.7h4.1v52.5h-3.8l-0.2-4.9
			c-2.6,3.7-6.5,5.6-11.6,5.6c-4.3,0-7.7-1.7-10.3-5.1c-2.6-3.4-3.9-8.1-3.9-13.9V166.7z M938.9,167.5c0,4.7,0.9,8.4,2.8,11.2
			c1.9,2.7,4.6,4.1,8,4.1c5,0,8.6-2.2,10.7-6.7v-17.4c-2.1-4.8-5.7-7.2-10.7-7.2c-3.4,0-6.1,1.3-8,4.1
			C939.9,158.2,938.9,162.2,938.9,167.5z"/>
		<path d="M999.1,180.9c-2.5,3.6-6.4,5.4-11.8,5.4c-3.9,0-6.9-1.1-9-3.4c-2.1-2.3-3.1-5.7-3.1-10.2v-24.1h4.1v23.5
			c0,7,2.8,10.6,8.5,10.6c5.9,0,9.7-2.4,11.2-7.3v-26.8h4.1v37h-4L999.1,180.9z"/>
		<path d="M243.1,251.5c0,5.8-1.3,10.3-3.8,13.7c-2.6,3.4-6,5.1-10.3,5.1c-5.1,0-9-1.9-11.7-5.7l-0.2,5.1h-3.8v-52.5h4.1V238
			c2.6-4,6.4-6,11.6-6c4.4,0,7.8,1.7,10.4,5c2.5,3.3,3.8,8,3.8,13.9V251.5z M239,250.7c0-4.9-0.9-8.6-2.8-11.3s-4.6-4-8-4
			c-2.6,0-4.8,0.6-6.7,1.9s-3.2,3.2-4.1,5.7v16.7c2.1,4.6,5.7,7,10.9,7c3.4,0,6-1.3,7.9-4C238,260,239,256.1,239,250.7z"/>
		<path d="M275.9,264.9c-2.5,3.6-6.4,5.4-11.8,5.4c-3.9,0-6.9-1.1-9-3.4c-2.1-2.3-3.1-5.7-3.1-10.2v-24.1h4.1v23.5
			c0,7,2.8,10.6,8.5,10.6c5.9,0,9.7-2.4,11.2-7.3v-26.8h4.1v37h-4L275.9,264.9z"/>
		<path d="M288.9,250.7c0-5.7,1.3-10.3,3.8-13.7c2.6-3.4,6-5.1,10.4-5.1c5,0,8.8,2,11.4,5.9v-20.7h4.1v52.5h-3.8l-0.2-4.9
			c-2.6,3.7-6.5,5.6-11.6,5.6c-4.3,0-7.7-1.7-10.3-5.1c-2.6-3.4-3.9-8.1-3.9-13.9V250.7z M293,251.5c0,4.7,0.9,8.4,2.8,11.2
			s4.6,4.1,8,4.1c5,0,8.6-2.2,10.7-6.7v-17.4c-2.1-4.8-5.7-7.2-10.7-7.2c-3.4,0-6.1,1.3-8,4.1C294,242.2,293,246.2,293,251.5z"/>
		<path d="M327.8,250.7c0-5.8,1.3-10.4,3.8-13.8c2.6-3.4,6-5.1,10.4-5.1c5,0,8.9,2,11.5,6l0.2-5.3h3.8v36.2c0,4.8-1.3,8.5-4,11.3
			c-2.7,2.8-6.3,4.2-10.8,4.2c-2.6,0-5-0.6-7.4-1.7c-2.3-1.2-4.2-2.7-5.5-4.6l2.3-2.5c2.9,3.6,6.3,5.3,10.3,5.3c3.4,0,6.1-1,8-3
			c1.9-2,2.9-4.8,3-8.4v-4.6c-2.6,3.6-6.4,5.5-11.5,5.5c-4.3,0-7.7-1.7-10.3-5.1s-3.9-8-3.9-13.8V250.7z M331.9,251.5
			c0,4.7,0.9,8.4,2.8,11.2s4.6,4.1,8,4.1c5,0,8.6-2.3,10.7-6.8v-17.2c-1-2.4-2.3-4.2-4.1-5.4s-4-1.9-6.5-1.9c-3.4,0-6.1,1.3-8,4.1
			C332.9,242.2,331.9,246.2,331.9,251.5z"/>
		<path d="M382.6,270.3c-3.1,0-6-0.8-8.5-2.3c-2.5-1.5-4.5-3.7-5.9-6.5c-1.4-2.8-2.1-5.9-2.1-9.3v-1.5c0-3.6,0.7-6.8,2.1-9.6
			c1.4-2.8,3.3-5.1,5.8-6.7c2.5-1.6,5.1-2.4,8-2.4c4.5,0,8,1.5,10.7,4.6s3.9,7.3,3.9,12.6v2.3h-26.4v0.8c0,4.2,1.2,7.7,3.6,10.5
			c2.4,2.8,5.4,4.2,9.1,4.2c2.2,0,4.1-0.4,5.8-1.2c1.7-0.8,3.2-2.1,4.6-3.8l2.6,1.9C392.7,268.1,388.3,270.3,382.6,270.3z
			 M381.8,235.4c-3.1,0-5.7,1.1-7.8,3.4c-2.1,2.3-3.4,5.3-3.8,9.1h22.2v-0.4c-0.1-3.6-1.1-6.4-3-8.7
			C387.4,236.5,384.9,235.4,381.8,235.4z"/>
		<path d="M410.8,223.1v9.5h7.7v3.3h-7.7v24.7c0,2.1,0.4,3.6,1.1,4.6c0.7,1,2,1.5,3.7,1.5c0.7,0,1.8-0.1,3.3-0.3l0.2,3.3
			c-1.1,0.4-2.5,0.6-4.4,0.6c-2.8,0-4.8-0.8-6.1-2.4s-1.9-4-1.9-7.2v-24.7h-6.8v-3.3h6.8v-9.5H410.8z"/>
		<path d="M442.3,250.7c0-5.7,1.3-10.3,3.8-13.7c2.6-3.4,6-5.1,10.4-5.1c5,0,8.8,2,11.4,5.9v-20.7h4.1v52.5h-3.8l-0.2-4.9
			c-2.6,3.7-6.5,5.6-11.6,5.6c-4.3,0-7.7-1.7-10.3-5.1c-2.6-3.4-3.9-8.1-3.9-13.9V250.7z M446.4,251.5c0,4.7,0.9,8.4,2.8,11.2
			s4.6,4.1,8,4.1c5,0,8.6-2.2,10.7-6.7v-17.4c-2.1-4.8-5.7-7.2-10.7-7.2c-3.4,0-6.1,1.3-8,4.1C447.4,242.2,446.4,246.2,446.4,251.5z
			"/>
		<path d="M497.2,270.3c-3.1,0-6-0.8-8.5-2.3c-2.5-1.5-4.5-3.7-5.9-6.5c-1.4-2.8-2.1-5.9-2.1-9.3v-1.5c0-3.6,0.7-6.8,2.1-9.6
			c1.4-2.8,3.3-5.1,5.8-6.7c2.5-1.6,5.1-2.4,8-2.4c4.5,0,8,1.5,10.7,4.6s3.9,7.3,3.9,12.6v2.3h-26.4v0.8c0,4.2,1.2,7.7,3.6,10.5
			c2.4,2.8,5.4,4.2,9.1,4.2c2.2,0,4.1-0.4,5.8-1.2c1.7-0.8,3.2-2.1,4.6-3.8l2.6,1.9C507.2,268.1,502.9,270.3,497.2,270.3z
			 M496.4,235.4c-3.1,0-5.7,1.1-7.8,3.4c-2.1,2.3-3.4,5.3-3.8,9.1H507v-0.4c-0.1-3.6-1.1-6.4-3-8.7
			C502,236.5,499.5,235.4,496.4,235.4z"/>
		<path d="M540.6,269.6h-4.1v-52.5h4.1V269.6z"/>
		<path d="M575.1,269.6c-0.4-1.2-0.7-2.9-0.8-5.2c-1.4,1.9-3.3,3.3-5.5,4.3c-2.2,1-4.6,1.5-7.1,1.5c-3.6,0-6.4-1-8.6-3
			c-2.2-2-3.3-4.5-3.3-7.5c0-3.6,1.5-6.4,4.5-8.5c3-2.1,7.2-3.1,12.5-3.1h7.4v-4.2c0-2.6-0.8-4.7-2.4-6.2c-1.6-1.5-4-2.3-7.1-2.3
			c-2.8,0-5.2,0.7-7.1,2.2c-1.9,1.5-2.8,3.2-2.8,5.3l-4.1,0c0-2.9,1.4-5.5,4.1-7.6c2.7-2.2,6.1-3.2,10.1-3.2c4.1,0,7.4,1,9.8,3.1
			c2.4,2.1,3.6,4.9,3.7,8.6v17.5c0,3.6,0.4,6.3,1.1,8v0.4H575.1z M562.2,266.6c2.7,0,5.2-0.7,7.3-2c2.2-1.3,3.7-3.1,4.7-5.3v-8.1
			h-7.3c-4.1,0-7.3,0.8-9.6,2.2s-3.5,3.4-3.5,6c0,2.1,0.8,3.8,2.3,5.2S559.7,266.6,562.2,266.6z"/>
		<path d="M610,232.6l0.1,6c1.4-2.2,3.1-3.9,5.1-5c2.1-1.1,4.3-1.7,6.8-1.7c5.8,0,9.5,2.4,11.1,7.2c1.3-2.3,3.1-4.1,5.3-5.3
			s4.6-1.9,7.3-1.9c7.9,0,12,4.3,12.1,13v24.7h-4.1v-24.4c0-3.3-0.7-5.8-2.1-7.3c-1.4-1.6-3.7-2.4-6.9-2.4c-2.9,0-5.4,1-7.5,2.9
			c-2,1.9-3.2,4.1-3.4,6.8v24.5h-4.1v-24.7c0-3.2-0.8-5.5-2.2-7.1s-3.7-2.3-6.8-2.3c-2.6,0-4.8,0.7-6.6,2.2
			c-1.8,1.5-3.2,3.7-4.1,6.5v25.4H606v-37H610z"/>
		<path d="M692.1,264.9c-2.5,3.6-6.4,5.4-11.8,5.4c-3.9,0-6.9-1.1-9-3.4c-2.1-2.3-3.1-5.7-3.1-10.2v-24.1h4.1v23.5
			c0,7,2.8,10.6,8.5,10.6c5.9,0,9.7-2.4,11.2-7.3v-26.8h4.1v37h-4L692.1,264.9z"/>
		<path d="M710.6,232.6l0.1,6.3c1.4-2.3,3.1-4,5.2-5.2c2.1-1.2,4.4-1.8,6.9-1.8c4,0,6.9,1.1,8.9,3.3c1.9,2.2,2.9,5.6,2.9,10v24.3
			h-4.1v-24.3c0-3.3-0.7-5.8-2.1-7.4c-1.4-1.6-3.6-2.4-6.6-2.4c-2.5,0-4.8,0.8-6.7,2.4c-1.9,1.6-3.4,3.7-4.3,6.4v25.3h-4.1v-37
			H710.6z"/>
		<path d="M744.9,221.9c0-0.8,0.2-1.4,0.8-2c0.5-0.5,1.2-0.8,2.1-0.8c0.9,0,1.6,0.3,2.1,0.8c0.5,0.5,0.8,1.2,0.8,2
			c0,0.8-0.3,1.4-0.8,1.9c-0.5,0.5-1.2,0.8-2.1,0.8c-0.9,0-1.5-0.3-2.1-0.8C745.2,223.3,744.9,222.7,744.9,221.9z M749.7,269.6h-4.1
			v-37h4.1V269.6z"/>
		<path d="M774.5,266.8c2.8,0,5.2-0.8,7.2-2.4c1.9-1.6,3-3.7,3.1-6.2h3.9c-0.1,2.3-0.8,4.3-2.1,6.2s-3,3.3-5.2,4.4
			c-2.2,1-4.5,1.6-6.9,1.6c-4.9,0-8.7-1.7-11.5-5.1c-2.8-3.4-4.3-7.9-4.3-13.6v-1.2c0-3.6,0.6-6.9,1.9-9.7c1.3-2.8,3.1-5,5.5-6.5
			c2.4-1.5,5.2-2.3,8.4-2.3c4.1,0,7.4,1.2,10,3.6c2.6,2.4,4,5.6,4.2,9.5h-3.9c-0.2-2.9-1.2-5.2-3.1-7s-4.3-2.7-7.2-2.7
			c-3.7,0-6.6,1.3-8.6,4s-3.1,6.4-3.1,11.2v1.2c0,4.7,1,8.4,3.1,11C767.9,265.5,770.8,266.8,774.5,266.8z"/>
		<path d="M796.7,221.9c0-0.8,0.2-1.4,0.8-2c0.5-0.5,1.2-0.8,2.1-0.8c0.9,0,1.6,0.3,2.1,0.8c0.5,0.5,0.8,1.2,0.8,2
			c0,0.8-0.3,1.4-0.8,1.9c-0.5,0.5-1.2,0.8-2.1,0.8c-0.9,0-1.5-0.3-2.1-0.8C796.9,223.3,796.7,222.7,796.7,221.9z M801.5,269.6h-4.1
			v-37h4.1V269.6z"/>
		<path d="M842.3,251.5c0,5.8-1.3,10.3-3.8,13.7c-2.6,3.4-6,5.1-10.3,5.1c-5.1,0-8.9-1.8-11.6-5.3v18.9h-4.1v-51.2h3.8l0.2,5.2
			c2.7-3.9,6.5-5.9,11.6-5.9c4.4,0,7.9,1.7,10.4,5s3.8,8,3.8,13.9V251.5z M838.2,250.7c0-4.7-1-8.4-2.9-11.2
			c-1.9-2.7-4.6-4.1-8.1-4.1c-2.5,0-4.7,0.6-6.5,1.8c-1.8,1.2-3.2,3-4.1,5.3v17.7c1,2.1,2.4,3.7,4.2,4.9c1.8,1.1,4,1.7,6.5,1.7
			c3.4,0,6.1-1.4,8-4.1S838.2,256,838.2,250.7z"/>
		<path d="M874.7,269.6c-0.4-1.2-0.7-2.9-0.8-5.2c-1.4,1.9-3.3,3.3-5.5,4.3c-2.2,1-4.6,1.5-7.1,1.5c-3.6,0-6.4-1-8.6-3
			c-2.2-2-3.3-4.5-3.3-7.5c0-3.6,1.5-6.4,4.5-8.5c3-2.1,7.2-3.1,12.5-3.1h7.4v-4.2c0-2.6-0.8-4.7-2.4-6.2c-1.6-1.5-4-2.3-7.1-2.3
			c-2.8,0-5.2,0.7-7.1,2.2c-1.9,1.5-2.8,3.2-2.8,5.3l-4.1,0c0-2.9,1.4-5.5,4.1-7.6c2.7-2.2,6.1-3.2,10.1-3.2c4.1,0,7.4,1,9.8,3.1
			c2.4,2.1,3.6,4.9,3.7,8.6v17.5c0,3.6,0.4,6.3,1.1,8v0.4H874.7z M861.9,266.6c2.7,0,5.2-0.7,7.3-2c2.2-1.3,3.7-3.1,4.7-5.3v-8.1
			h-7.3c-4.1,0-7.3,0.8-9.6,2.2c-2.3,1.4-3.5,3.4-3.5,6c0,2.1,0.8,3.8,2.3,5.2C857.4,266,859.4,266.6,861.9,266.6z"/>
		<path d="M893.5,269.6h-4.1v-52.5h4.1V269.6z"/>
		<path d="M904.3,221.9c0-0.8,0.2-1.4,0.8-2c0.5-0.5,1.2-0.8,2.1-0.8c0.9,0,1.6,0.3,2.1,0.8c0.5,0.5,0.8,1.2,0.8,2
			c0,0.8-0.3,1.4-0.8,1.9c-0.5,0.5-1.2,0.8-2.1,0.8c-0.9,0-1.5-0.3-2.1-0.8C904.6,223.3,904.3,222.7,904.3,221.9z M909.2,269.6h-4.1
			v-37h4.1V269.6z"/>
		<path d="M926.6,223.1v9.5h7.7v3.3h-7.7v24.7c0,2.1,0.4,3.6,1.1,4.6c0.7,1,2,1.5,3.7,1.5c0.7,0,1.8-0.1,3.3-0.3l0.2,3.3
			c-1.1,0.4-2.5,0.6-4.4,0.6c-2.8,0-4.8-0.8-6.1-2.4c-1.3-1.6-1.9-4-1.9-7.2v-24.7h-6.8v-3.3h6.8v-9.5H926.6z"/>
		<path d="M957.1,270.3c-3.1,0-6-0.8-8.5-2.3c-2.5-1.5-4.5-3.7-5.9-6.5c-1.4-2.8-2.1-5.9-2.1-9.3v-1.5c0-3.6,0.7-6.8,2.1-9.6
			c1.4-2.8,3.3-5.1,5.8-6.7c2.5-1.6,5.1-2.4,8-2.4c4.5,0,8,1.5,10.7,4.6c2.6,3.1,3.9,7.3,3.9,12.6v2.3h-26.4v0.8
			c0,4.2,1.2,7.7,3.6,10.5c2.4,2.8,5.4,4.2,9.1,4.2c2.2,0,4.1-0.4,5.8-1.2c1.7-0.8,3.2-2.1,4.6-3.8l2.6,1.9
			C967.2,268.1,962.8,270.3,957.1,270.3z M956.3,235.4c-3.1,0-5.7,1.1-7.8,3.4s-3.4,5.3-3.8,9.1h22.2v-0.4c-0.1-3.6-1.1-6.4-3-8.7
			C961.9,236.5,959.4,235.4,956.3,235.4z M960.9,217.5h5l-7.9,9.5l-3.6,0L960.9,217.5z"/>
		<path d="M224.8,347.9l11.2-31.3h4.2l-13.8,37h-3.3l-13.9-37h4.2L224.8,347.9z"/>
		<path d="M269.8,353.6c-0.4-1.2-0.7-2.9-0.8-5.2c-1.4,1.9-3.3,3.3-5.5,4.3s-4.6,1.5-7.1,1.5c-3.6,0-6.4-1-8.6-3
			c-2.2-2-3.3-4.5-3.3-7.5c0-3.6,1.5-6.4,4.5-8.5c3-2.1,7.2-3.1,12.5-3.1h7.4v-4.2c0-2.6-0.8-4.7-2.4-6.2c-1.6-1.5-4-2.3-7.1-2.3
			c-2.8,0-5.2,0.7-7.1,2.2c-1.9,1.5-2.8,3.2-2.8,5.3l-4.1,0c0-2.9,1.4-5.5,4.1-7.6c2.7-2.2,6.1-3.2,10.1-3.2c4.1,0,7.4,1,9.8,3.1
			c2.4,2.1,3.6,4.9,3.7,8.6v17.5c0,3.6,0.4,6.3,1.1,8v0.4H269.8z M256.9,350.6c2.7,0,5.2-0.7,7.3-2s3.7-3.1,4.7-5.3v-8.1h-7.3
			c-4.1,0-7.3,0.8-9.6,2.2c-2.3,1.4-3.5,3.4-3.5,6c0,2.1,0.8,3.8,2.3,5.2S254.5,350.6,256.9,350.6z"/>
		<path d="M320.9,353.6c-0.5-0.9-0.8-2-1-3.3c-2.4,2.7-5.5,4-9.3,4c-3.6,0-6.6-1-9-3.1c-2.4-2.1-3.6-4.7-3.6-7.9
			c0-3.9,1.5-6.9,4.4-9c2.9-2.1,7.1-3.2,12.6-3.2h4.5v-2.1c0-1.7-0.4-3.1-1.3-4.1c-0.9-1-2.3-1.5-4.2-1.5c-1.7,0-3,0.4-3.9,1.2
			c-0.9,0.8-1.4,1.9-1.4,3.3h-9.9c0-2.1,0.7-4.1,2-5.9c1.3-1.8,3.2-3.3,5.6-4.3c2.4-1,5.1-1.6,8.1-1.6c4.6,0,8.2,1.1,10.9,3.4
			c2.7,2.3,4,5.5,4,9.7v16c0,3.5,0.5,6.2,1.5,8v0.6H320.9z M312.7,346.7c1.5,0,2.8-0.3,4-1c1.2-0.7,2.1-1.5,2.7-2.6v-6.4h-3.7
			c-4.9,0-7.6,1.7-7.9,5.1l0,0.6c0,1.2,0.4,2.2,1.3,3S311.2,346.7,312.7,346.7z"/>
		<path d="M359.1,349.8c-2.4,3-5.8,4.4-10.1,4.4c-4,0-7-1.1-9.1-3.4s-3.2-5.6-3.2-10v-24.2h9.9v23.9c0,3.9,1.8,5.8,5.3,5.8
			c3.3,0,5.7-1.2,6.9-3.5v-26.2h9.9v37h-9.3L359.1,349.8z"/>
		<path d="M390.2,327.6l6.2-11H407l-10.5,18.1l11,18.9h-10.6l-6.6-11.6l-6.6,11.6h-10.6l11-18.9l-10.5-18.1h10.6L390.2,327.6z"/>
		<path d="M462.5,335.4c0,5.7-1.3,10.3-3.9,13.7c-2.6,3.4-6.1,5.1-10.5,5.1c-3.7,0-6.8-1.3-9.1-3.9v17.4h-9.9v-51.2h9.2l0.3,3.6
			c2.4-2.9,5.5-4.3,9.4-4.3c4.6,0,8.1,1.7,10.6,5.1c2.5,3.4,3.8,8,3.8,13.9V335.4z M452.6,334.7c0-3.5-0.6-6.1-1.8-8
			c-1.2-1.9-3-2.8-5.3-2.8c-3.1,0-5.2,1.2-6.4,3.6v15.2c1.2,2.4,3.4,3.7,6.5,3.7C450.2,346.3,452.6,342.4,452.6,334.7z"/>
		<path d="M489.4,325.9c-1.3-0.2-2.5-0.3-3.6-0.3c-3.7,0-6.2,1.3-7.3,3.8v24.2h-9.9v-37h9.3l0.3,4.4c2-3.4,4.7-5.1,8.2-5.1
			c1.1,0,2.1,0.1,3.1,0.4L489.4,325.9z"/>
		<path d="M491.3,334.7c0-3.7,0.7-6.9,2.1-9.8s3.4-5.1,6.1-6.7c2.7-1.6,5.7-2.4,9.2-2.4c5,0,9.1,1.5,12.2,4.6
			c3.2,3.1,4.9,7.2,5.3,12.4l0.1,2.5c0,5.7-1.6,10.2-4.8,13.7s-7.4,5.1-12.7,5.1c-5.3,0-9.6-1.7-12.8-5.1s-4.8-8.1-4.8-13.9V334.7z
			 M501.2,335.4c0,3.5,0.7,6.2,2,8.1s3.2,2.8,5.7,2.8c2.4,0,4.3-0.9,5.6-2.8c1.3-1.8,2-4.8,2-8.8c0-3.4-0.7-6.1-2-8
			c-1.3-1.9-3.2-2.8-5.7-2.8c-2.4,0-4.3,0.9-5.6,2.8S501.2,331.5,501.2,335.4z"/>
		<path d="M542.9,316.6v39c0,4.1-1.1,7.3-3.2,9.5s-5.3,3.4-9.4,3.4c-1.7,0-3.3-0.2-4.9-0.6v-7.8c1.2,0.2,2.2,0.3,3.1,0.3
			c3,0,4.5-1.6,4.5-4.8v-39.1H542.9z M532.2,307c0-1.5,0.5-2.7,1.5-3.7s2.3-1.4,4-1.4s3.1,0.5,4.1,1.4s1.5,2.2,1.5,3.7
			c0,1.5-0.5,2.7-1.5,3.7c-1,1-2.4,1.4-4,1.4s-3-0.5-4-1.4C532.7,309.8,532.2,308.5,532.2,307z"/>
		<path d="M567.7,354.3c-5.4,0-9.8-1.7-13.2-5c-3.4-3.3-5.1-7.8-5.1-13.3v-1c0-3.7,0.7-7,2.2-10c1.4-2.9,3.5-5.2,6.1-6.8
			c2.6-1.6,5.6-2.4,9-2.4c5.1,0,9,1.6,11.9,4.8c2.9,3.2,4.4,7.7,4.4,13.6v4h-23.5c0.3,2.4,1.3,4.4,2.9,5.8c1.6,1.5,3.6,2.2,6.1,2.2
			c3.8,0,6.8-1.4,8.9-4.1l4.9,5.4c-1.5,2.1-3.5,3.7-6,4.9C573.6,353.7,570.7,354.3,567.7,354.3z M566.5,323.9c-2,0-3.5,0.7-4.8,2
			c-1.2,1.3-2,3.2-2.3,5.7h13.7v-0.8c0-2.2-0.6-3.9-1.8-5.1C570.3,324.5,568.6,323.9,566.5,323.9z"/>
		<path d="M600.3,307.5v9.1h6.3v7.2h-6.3v18.5c0,1.4,0.3,2.3,0.8,2.9s1.5,0.9,3,0.9c1.1,0,2.1-0.1,2.9-0.2v7.5
			c-1.9,0.6-3.9,0.9-6,0.9c-6.9,0-10.5-3.5-10.6-10.5v-19.9H585v-7.2h5.4v-9.1H600.3z"/>
		<path d="M632.2,343.4c0-1.2-0.6-2.2-1.8-2.9s-3.1-1.3-5.8-1.9c-8.8-1.8-13.2-5.6-13.2-11.2c0-3.3,1.4-6,4.1-8.2
			c2.7-2.2,6.3-3.3,10.7-3.3c4.7,0,8.4,1.1,11.3,3.3c2.8,2.2,4.2,5.1,4.2,8.6h-9.9c0-1.4-0.5-2.6-1.4-3.5c-0.9-0.9-2.3-1.4-4.3-1.4
			c-1.7,0-3,0.4-3.9,1.1s-1.4,1.7-1.4,2.9c0,1.1,0.5,2,1.6,2.6c1,0.7,2.8,1.3,5.2,1.7c2.5,0.5,4.5,1,6.2,1.7
			c5.2,1.9,7.8,5.2,7.8,9.9c0,3.4-1.4,6.1-4.3,8.2c-2.9,2.1-6.6,3.1-11.2,3.1c-3.1,0-5.9-0.6-8.3-1.7c-2.4-1.1-4.3-2.6-5.7-4.5
			s-2.1-4-2.1-6.2h9.4c0.1,1.8,0.7,3.1,1.9,4s2.8,1.4,4.9,1.4c1.9,0,3.3-0.4,4.3-1.1C631.7,345.5,632.2,344.5,632.2,343.4z"/>
		<path d="M664,334.8c0-5.8,1.3-10.4,3.9-13.8s6.1-5.1,10.6-5.1c3.6,0,6.6,1.3,8.9,4v-18.9h9.9v52.5h-8.9l-0.5-3.9
			c-2.5,3.1-5.6,4.6-9.5,4.6c-4.4,0-7.8-1.7-10.5-5.1C665.3,345.7,664,340.9,664,334.8z M673.9,335.5c0,3.5,0.6,6.1,1.8,8
			c1.2,1.9,3,2.8,5.3,2.8c3.1,0,5.2-1.3,6.5-3.9v-14.7c-1.2-2.6-3.4-3.9-6.4-3.9C676.3,323.9,673.9,327.8,673.9,335.5z"/>
		<path d="M722,354.3c-5.4,0-9.8-1.7-13.2-5s-5.1-7.8-5.1-13.3v-1c0-3.7,0.7-7,2.2-10c1.4-2.9,3.5-5.2,6.1-6.8
			c2.6-1.6,5.6-2.4,9-2.4c5.1,0,9,1.6,11.9,4.8c2.9,3.2,4.4,7.7,4.4,13.6v4h-23.5c0.3,2.4,1.3,4.4,2.9,5.8c1.6,1.5,3.6,2.2,6.1,2.2
			c3.8,0,6.8-1.4,8.9-4.1l4.9,5.4c-1.5,2.1-3.5,3.7-6,4.9C727.9,353.7,725.1,354.3,722,354.3z M720.9,323.9c-2,0-3.5,0.7-4.8,2
			c-1.2,1.3-2,3.2-2.3,5.7h13.7v-0.8c0-2.2-0.6-3.9-1.8-5.1C724.6,324.5,723,323.9,720.9,323.9z"/>
		<path d="M770.7,353.6h-9.9v-52.5h9.9V353.6z"/>
		<path d="M800.3,353.6c-0.5-0.9-0.8-2-1-3.3c-2.4,2.7-5.5,4-9.3,4c-3.6,0-6.6-1-9-3.1c-2.4-2.1-3.6-4.7-3.6-7.9
			c0-3.9,1.5-6.9,4.4-9c2.9-2.1,7.1-3.2,12.6-3.2h4.5v-2.1c0-1.7-0.4-3.1-1.3-4.1c-0.9-1-2.3-1.5-4.2-1.5c-1.7,0-3,0.4-3.9,1.2
			c-0.9,0.8-1.4,1.9-1.4,3.3h-9.9c0-2.1,0.7-4.1,2-5.9c1.3-1.8,3.2-3.3,5.6-4.3c2.4-1,5.1-1.6,8.1-1.6c4.6,0,8.2,1.1,10.9,3.4
			c2.7,2.3,4,5.5,4,9.7v16c0,3.5,0.5,6.2,1.5,8v0.6H800.3z M792.1,346.7c1.5,0,2.8-0.3,4-1c1.2-0.7,2.1-1.5,2.7-2.6v-6.4h-3.7
			c-4.9,0-7.6,1.7-7.9,5.1l0,0.6c0,1.2,0.4,2.2,1.3,3C789.4,346.3,790.6,346.7,792.1,346.7z"/>
		<path d="M847.6,341.5l6.9-24.9h10.3l-12.5,37h-9.4l-12.5-37h10.3L847.6,341.5z"/>
		<path d="M869.1,307c0-1.5,0.5-2.7,1.5-3.7c1-1,2.3-1.4,4-1.4c1.7,0,3,0.5,4,1.4c1,1,1.5,2.2,1.5,3.7c0,1.5-0.5,2.7-1.5,3.7
			c-1,1-2.4,1.4-4,1.4c-1.7,0-3-0.5-4-1.4S869.1,308.5,869.1,307z M879.6,353.6h-9.9v-37h9.9V353.6z"/>
		<path d="M898.2,353.6h-9.9v-52.5h9.9V353.6z"/>
		<path d="M916.7,353.6h-9.9v-52.5h9.9V353.6z"/>
		<path d="M941.9,354.3c-5.4,0-9.8-1.7-13.2-5s-5.1-7.8-5.1-13.3v-1c0-3.7,0.7-7,2.2-10c1.4-2.9,3.5-5.2,6.1-6.8
			c2.6-1.6,5.6-2.4,9-2.4c5.1,0,9,1.6,11.9,4.8c2.9,3.2,4.4,7.7,4.4,13.6v4h-23.5c0.3,2.4,1.3,4.4,2.9,5.8c1.6,1.5,3.6,2.2,6.1,2.2
			c3.8,0,6.8-1.4,8.9-4.1l4.9,5.4c-1.5,2.1-3.5,3.7-6,4.9C947.7,353.7,944.9,354.3,941.9,354.3z M940.7,323.9c-2,0-3.5,0.7-4.8,2
			c-1.2,1.3-2,3.2-2.3,5.7h13.7v-0.8c0-2.2-0.6-3.9-1.8-5.1C944.5,324.5,942.8,323.9,940.7,323.9z"/>
		<path d="M995.6,354.3c-3.1,0-6-0.8-8.5-2.3s-4.5-3.7-5.9-6.5c-1.4-2.8-2.1-5.9-2.1-9.3v-1.5c0-3.6,0.7-6.8,2.1-9.6
			c1.4-2.8,3.3-5.1,5.8-6.7c2.5-1.6,5.1-2.4,8-2.4c4.5,0,8,1.5,10.7,4.6c2.6,3.1,3.9,7.3,3.9,12.6v2.3h-26.4v0.8
			c0,4.2,1.2,7.7,3.6,10.5c2.4,2.8,5.4,4.2,9.1,4.2c2.2,0,4.1-0.4,5.8-1.2c1.7-0.8,3.2-2.1,4.6-3.8l2.6,1.9
			C1005.7,352.1,1001.3,354.3,995.6,354.3z M994.8,319.4c-3.1,0-5.7,1.1-7.8,3.4s-3.4,5.3-3.8,9.1h22.2v-0.4c-0.1-3.6-1.1-6.4-3-8.7
			C1000.4,320.5,997.9,319.4,994.8,319.4z"/>
		<path d="M1021.3,316.6l0.1,6.3c1.4-2.3,3.1-4,5.2-5.2c2.1-1.2,4.4-1.8,6.9-1.8c4,0,6.9,1.1,8.9,3.3c1.9,2.2,2.9,5.6,2.9,10v24.3
			h-4.1v-24.3c0-3.3-0.7-5.8-2.1-7.4c-1.4-1.6-3.6-2.4-6.6-2.4c-2.5,0-4.8,0.8-6.7,2.4c-1.9,1.6-3.4,3.7-4.3,6.4v25.3h-4.1v-37
			H1021.3z"/>
		<path d="M243.8,437.6h-31.2v-3.1l17.1-19.3c2.8-3.3,4.8-5.9,5.9-8.1s1.6-4.2,1.6-6.2c0-3.1-0.9-5.6-2.8-7.5s-4.4-2.8-7.6-2.8
			c-3.3,0-6.1,1.1-8.1,3.2c-2.1,2.1-3.1,4.9-3.1,8.3h-4.1c0-2.8,0.6-5.4,1.9-7.7s3.1-4.1,5.4-5.4c2.3-1.3,5-2,8-2
			c4.6,0,8.1,1.2,10.7,3.6s3.8,5.7,3.8,9.8c0,2.3-0.7,4.9-2.2,7.6c-1.4,2.8-4,6.2-7.6,10.3l-13.9,15.7h26.1V437.6z"/>
		<path d="M281.5,416.8c0,7-1.3,12.3-3.9,16s-6.4,5.5-11.4,5.5c-4.9,0-8.7-1.8-11.3-5.3c-2.6-3.6-4-8.8-4-15.6v-8.9
			c0-7,1.3-12.3,3.9-15.9c2.6-3.6,6.4-5.4,11.4-5.4c4.9,0,8.7,1.7,11.3,5.2s3.9,8.6,4,15.4V416.8z M277.3,407.9
			c0-5.7-0.9-10-2.8-12.9c-1.9-2.9-4.7-4.4-8.4-4.4c-3.7,0-6.5,1.4-8.3,4.3c-1.9,2.8-2.8,7.1-2.9,12.6v9.8c0,5.7,1,10,2.9,13
			c1.9,3,4.7,4.5,8.4,4.5c3.6,0,6.4-1.5,8.3-4.4s2.8-7.2,2.9-12.9V407.9z"/>
		<path d="M309.3,437.6h-4.1v-44.8l-13.5,5v-3.8l17-6.3h0.7V437.6z"/>
		<path d="M359.7,390.2l-21.3,47.4h-4.3l21.1-46.3H327v-3.5h32.7V390.2z"/>
		<path d="M376,423.7c0-2.7,0.4-4.8,1.1-6.5s2.2-3.6,4.4-5.8c2.3-2.2,3.7-3.8,4.4-4.7s1.2-1.9,1.5-3c0.4-1.1,0.5-2.4,0.5-3.8
			c0-2.8-0.8-5.1-2.3-6.7c-1.5-1.6-3.6-2.4-6.3-2.4c-2.7,0-4.9,0.8-6.6,2.3s-2.5,3.7-2.6,6.3H366c0-3.7,1.3-6.7,3.8-9
			s5.6-3.4,9.5-3.4c3.9,0,7,1.1,9.3,3.4c2.3,2.3,3.4,5.4,3.4,9.3c0,2.5-0.6,4.8-1.7,6.9c-1.1,2.2-3.2,4.7-6.4,7.5
			c-2.6,2.2-3.9,5.3-3.9,9.4H376z M375.4,435.2c0-0.8,0.2-1.4,0.7-2c0.5-0.5,1.2-0.8,2.1-0.8c0.9,0,1.6,0.3,2.1,0.8s0.8,1.2,0.8,2
			c0,0.8-0.3,1.4-0.8,1.9c-0.5,0.5-1.2,0.8-2.1,0.8c-0.9,0-1.6-0.3-2.1-0.8C375.7,436.6,375.4,435.9,375.4,435.2z"/>
	</g>
</g>
</svg>
