<?xml version="1.0" encoding="utf-8"?>
<!-- Generator: Adobe Illustrator 21.0.0, SVG Export Plug-In . SVG Version: 6.00 Build 0)  -->
<svg version="1.1" xmlns="http://www.w3.org/2000/svg" xmlns:xlink="http://www.w3.org/1999/xlink" x="0px" y="0px"
	 viewBox="0 0 1199.5 516" style="enable-background:new 0 0 1199.5 516;" xml:space="preserve">
<style type="text/css">
	.st0{fill:#0E97E7;}
	.st1{fill:#FFFFFF;}
	.st2{fill:none;stroke:#FFFFFF;stroke-width:18;stroke-miterlimit:10;}
	.st3{fill:none;stroke:#FFFFFF;stroke-width:5;stroke-miterlimit:10;}
	.st4{opacity:0.5;fill:none;stroke:#000000;stroke-width:1.5;stroke-miterlimit:10;}
	.st5{fill:none;stroke:#000000;stroke-width:8;stroke-miterlimit:10;}
	.st6{fill:#4F4F4F;}
	.st7{fill:none;stroke:#FFFFFF;stroke-width:16;stroke-miterlimit:10;}
	.st8{fill:none;stroke:#DF0920;stroke-width:18;stroke-miterlimit:10;}
	.st9{fill:none;stroke:#3E4098;stroke-width:18;stroke-miterlimit:10;}
	.st10{fill:#3E4098;}
	.st11{fill:none;stroke:#59C24F;stroke-width:18;stroke-miterlimit:10;}
	.st12{fill:none;}
</style>
<g id="Home_x5F_Claire_x5F_Juglair_x5F_St_x5F_Nazaire_xA0_Image_1_">
</g>
<g id="Calque_3">
</g>
<g id="bulles">
	<g>
		<path class="st1" d="M-1.9,482c0,18.8,15.2,34,34,34h1018c18.8,0,34-15.2,34-34V34c0-18.8-15.2-34-34-34L32.2,0
			c-18.8,0-34,15.2-34,34V482z"/>
		<polygon class="st1" points="1073.9,76 1201.4,76 1084.9,172 		"/>
		<g>
			<path d="M111.8,185.2H89.2l-5.1,14h-4.4l18.8-49.8h4l18.8,49.8H117L111.8,185.2z M90.5,181.7h20l-10-27.1L90.5,181.7z"/>
			<path d="M132.3,199.2h-4.1v-52.5h4.1V199.2z"/>
			<path d="M148,199.2h-4.1v-52.5h4.1V199.2z"/>
			<path d="M173.4,199.9c-3.1,0-6-0.8-8.5-2.3c-2.5-1.5-4.5-3.7-5.9-6.5c-1.4-2.8-2.1-5.9-2.1-9.3v-1.5c0-3.6,0.7-6.8,2.1-9.6
				c1.4-2.8,3.3-5.1,5.8-6.7c2.5-1.6,5.1-2.4,8-2.4c4.5,0,8,1.5,10.7,4.6s3.9,7.3,3.9,12.6v2.3h-26.4v0.8c0,4.2,1.2,7.7,3.6,10.5
				s5.4,4.2,9.1,4.2c2.2,0,4.1-0.4,5.8-1.2c1.7-0.8,3.2-2.1,4.6-3.8l2.6,1.9C183.5,197.7,179.1,199.9,173.4,199.9z M172.7,165
				c-3.1,0-5.7,1.1-7.8,3.4s-3.4,5.3-3.8,9.1h22.2V177c-0.1-3.6-1.1-6.4-3-8.7C178.3,166.1,175.8,165,172.7,165z"/>
			<path d="M198,195.7h24v3.5h-29.1v-3l22.4-30.4h-21.7v-3.6h26.9v3.1L198,195.7z"/>
			<path d="M228.5,208.5l-2.4-1.8c2.1-2.8,3.1-5.7,3.2-8.6v-5.3h4v4.3C233.2,201.8,231.6,205.6,228.5,208.5z"/>
			<path d="M274,199.9c-3.1,0-6-0.8-8.5-2.3c-2.5-1.5-4.5-3.7-5.9-6.5c-1.4-2.8-2.1-5.9-2.1-9.3v-1.5c0-3.6,0.7-6.8,2.1-9.6
				c1.4-2.8,3.3-5.1,5.8-6.7c2.5-1.6,5.1-2.4,8-2.4c4.5,0,8,1.5,10.7,4.6s3.9,7.3,3.9,12.6v2.3h-26.4v0.8c0,4.2,1.2,7.7,3.6,10.5
				s5.4,4.2,9.1,4.2c2.2,0,4.1-0.4,5.8-1.2c1.7-0.8,3.2-2.1,4.6-3.8l2.6,1.9C284.1,197.7,279.8,199.9,274,199.9z M273.3,165
				c-3.1,0-5.7,1.1-7.8,3.4s-3.4,5.3-3.8,9.1h22.2V177c-0.1-3.6-1.1-6.4-3-8.7C278.9,166.1,276.4,165,273.3,165z"/>
			<path d="M299.8,162.2l0.1,6.3c1.4-2.3,3.1-4,5.2-5.2c2.1-1.2,4.4-1.8,6.9-1.8c4,0,6.9,1.1,8.9,3.3c1.9,2.2,2.9,5.6,2.9,10v24.3
				h-4.1v-24.3c0-3.3-0.7-5.8-2.1-7.4c-1.4-1.6-3.6-2.4-6.6-2.4c-2.5,0-4.8,0.8-6.7,2.4c-1.9,1.6-3.4,3.7-4.3,6.4v25.3h-4.1v-37
				H299.8z"/>
			<path d="M348,196.4c2.8,0,5.2-0.8,7.2-2.4c1.9-1.6,3-3.7,3.1-6.2h3.9c-0.1,2.3-0.8,4.3-2.1,6.2s-3,3.3-5.2,4.4s-4.5,1.6-6.9,1.6
				c-4.9,0-8.7-1.7-11.5-5.1c-2.8-3.4-4.3-7.9-4.3-13.6V180c0-3.6,0.6-6.9,1.9-9.7c1.3-2.8,3.1-5,5.5-6.5c2.4-1.5,5.2-2.3,8.4-2.3
				c4.1,0,7.4,1.2,10,3.6c2.6,2.4,4,5.6,4.2,9.5h-3.9c-0.2-2.9-1.2-5.2-3.1-7s-4.3-2.7-7.2-2.7c-3.7,0-6.6,1.3-8.6,4
				s-3.1,6.4-3.1,11.2v1.2c0,4.7,1,8.4,3.1,11C341.4,195.1,344.3,196.4,348,196.4z"/>
			<path d="M368.1,180.2c0-3.6,0.7-6.8,2.1-9.6c1.4-2.8,3.3-5.1,5.8-6.6c2.5-1.6,5.4-2.4,8.6-2.4c4.9,0,8.9,1.7,12,5.2
				c3.1,3.5,4.6,8,4.6,13.7v0.9c0,3.6-0.7,6.8-2.1,9.7s-3.3,5.1-5.8,6.6c-2.5,1.5-5.4,2.3-8.6,2.3c-4.9,0-8.9-1.7-11.9-5.2
				c-3.1-3.5-4.6-8-4.6-13.7V180.2z M372.2,181.3c0,4.4,1.1,8,3.4,10.9c2.3,2.8,5.3,4.3,9,4.3c3.7,0,6.7-1.4,9-4.3
				c2.3-2.8,3.4-6.6,3.4-11.2v-0.8c0-2.8-0.5-5.4-1.6-7.8c-1-2.3-2.5-4.2-4.4-5.5c-1.9-1.3-4.1-1.9-6.5-1.9c-3.6,0-6.6,1.4-8.9,4.3
				c-2.3,2.9-3.5,6.6-3.5,11.2V181.3z"/>
			<path d="M426.7,165.7c-0.9-0.2-1.8-0.2-2.8-0.2c-2.6,0-4.7,0.7-6.5,2.1c-1.8,1.4-3,3.5-3.8,6.2v25.4h-4.1v-37h4l0.1,5.9
				c2.2-4.4,5.6-6.6,10.4-6.6c1.1,0,2,0.1,2.7,0.4L426.7,165.7z"/>
			<path d="M446.8,199.9c-3.1,0-6-0.8-8.5-2.3c-2.5-1.5-4.5-3.7-5.9-6.5c-1.4-2.8-2.1-5.9-2.1-9.3v-1.5c0-3.6,0.7-6.8,2.1-9.6
				c1.4-2.8,3.3-5.1,5.8-6.7c2.5-1.6,5.1-2.4,8-2.4c4.5,0,8,1.5,10.7,4.6s3.9,7.3,3.9,12.6v2.3h-26.4v0.8c0,4.2,1.2,7.7,3.6,10.5
				s5.4,4.2,9.1,4.2c2.2,0,4.1-0.4,5.8-1.2c1.7-0.8,3.2-2.1,4.6-3.8l2.6,1.9C456.9,197.7,452.5,199.9,446.8,199.9z M446.1,165
				c-3.1,0-5.7,1.1-7.8,3.4s-3.4,5.3-3.8,9.1h22.2V177c-0.1-3.6-1.1-6.4-3-8.7C451.7,166.1,449.2,165,446.1,165z"/>
			<path d="M506.3,195.4c-2.4,3-5.8,4.4-10.1,4.4c-4,0-7-1.1-9.1-3.4c-2.1-2.3-3.2-5.6-3.2-10v-24.2h9.9v23.9c0,3.9,1.8,5.8,5.3,5.8
				c3.3,0,5.7-1.2,6.9-3.5v-26.2h9.9v37h-9.3L506.3,195.4z"/>
			<path d="M532.4,162.2l0.3,4.3c2.6-3.3,6.2-5,10.6-5c3.9,0,6.8,1.2,8.8,3.5c1.9,2.3,2.9,5.7,2.9,10.3v23.9h-9.9v-23.7
				c0-2.1-0.5-3.6-1.4-4.6c-0.9-0.9-2.4-1.4-4.5-1.4c-2.8,0-4.9,1.2-6.3,3.6v26.1h-9.9v-37H532.4z"/>
			<path d="M579.5,199.9c-5.4,0-9.8-1.7-13.2-5c-3.4-3.3-5.1-7.8-5.1-13.3v-1c0-3.7,0.7-7,2.2-10c1.4-2.9,3.5-5.2,6.1-6.8
				c2.6-1.6,5.6-2.4,9-2.4c5.1,0,9,1.6,11.9,4.8c2.9,3.2,4.4,7.7,4.4,13.6v4h-23.5c0.3,2.4,1.3,4.4,2.9,5.8c1.6,1.5,3.6,2.2,6.1,2.2
				c3.8,0,6.8-1.4,8.9-4.1l4.9,5.4c-1.5,2.1-3.5,3.7-6,4.9C585.4,199.3,582.6,199.9,579.5,199.9z M578.4,169.5c-2,0-3.5,0.7-4.8,2
				c-1.2,1.3-2,3.2-2.3,5.7H585v-0.8c0-2.2-0.6-3.9-1.8-5.1C582.1,170.1,580.5,169.5,578.4,169.5z"/>
			<path d="M616.3,180.4c0-5.8,1.3-10.4,3.9-13.8s6.1-5.1,10.6-5.1c3.6,0,6.6,1.3,8.9,4v-18.9h9.9v52.5h-8.9l-0.5-3.9
				c-2.5,3.1-5.6,4.6-9.5,4.6c-4.4,0-7.8-1.7-10.5-5.1C617.6,191.3,616.3,186.5,616.3,180.4z M626.1,181.1c0,3.5,0.6,6.1,1.8,8
				c1.2,1.9,3,2.8,5.3,2.8c3.1,0,5.2-1.3,6.5-3.9v-14.7c-1.2-2.6-3.4-3.9-6.4-3.9C628.5,169.5,626.1,173.4,626.1,181.1z"/>
			<path d="M674.3,199.9c-5.4,0-9.8-1.7-13.2-5c-3.4-3.3-5.1-7.8-5.1-13.3v-1c0-3.7,0.7-7,2.2-10c1.4-2.9,3.5-5.2,6.1-6.8
				c2.6-1.6,5.6-2.4,9-2.4c5.1,0,9,1.6,11.9,4.8c2.9,3.2,4.4,7.7,4.4,13.6v4h-23.5c0.3,2.4,1.3,4.4,2.9,5.8c1.6,1.5,3.6,2.2,6.1,2.2
				c3.8,0,6.8-1.4,8.9-4.1l4.9,5.4c-1.5,2.1-3.5,3.7-6,4.9C680.1,199.3,677.3,199.9,674.3,199.9z M673.1,169.5c-2,0-3.5,0.7-4.8,2
				c-1.2,1.3-2,3.2-2.3,5.7h13.7v-0.8c0-2.2-0.6-3.9-1.8-5.1C676.8,170.1,675.2,169.5,673.1,169.5z M674,146.7h10.8l-9.5,10.6h-8
				L674,146.7z"/>
			<path d="M710.5,191.9c1.8,0,3.3-0.5,4.4-1.5c1.1-1,1.7-2.3,1.8-4h9.3c0,2.5-0.7,4.8-2.1,6.9c-1.3,2.1-3.2,3.7-5.5,4.9
				c-2.3,1.2-4.9,1.7-7.7,1.7c-5.3,0-9.5-1.7-12.5-5c-3.1-3.4-4.6-8-4.6-13.9v-0.6c0-5.7,1.5-10.2,4.5-13.6c3-3.4,7.2-5.1,12.5-5.1
				c4.6,0,8.3,1.3,11.1,3.9c2.8,2.6,4.2,6.1,4.3,10.5h-9.3c0-1.9-0.6-3.5-1.8-4.7c-1.1-1.2-2.6-1.8-4.5-1.8c-2.3,0-4,0.8-5.2,2.5
				c-1.2,1.7-1.8,4.4-1.8,8.2v1c0,3.8,0.6,6.5,1.7,8.2S708.1,191.9,710.5,191.9z"/>
			<path d="M742,199.2h-9.9v-52.5h9.9V199.2z"/>
			<path d="M771.6,199.2c-0.5-0.9-0.8-2-1-3.3c-2.4,2.7-5.5,4-9.3,4c-3.6,0-6.6-1-9-3.1c-2.4-2.1-3.6-4.7-3.6-7.9
				c0-3.9,1.5-6.9,4.4-9c2.9-2.1,7.1-3.2,12.6-3.2h4.5v-2.1c0-1.7-0.4-3.1-1.3-4.1c-0.9-1-2.3-1.5-4.2-1.5c-1.7,0-3,0.4-3.9,1.2
				c-0.9,0.8-1.4,1.9-1.4,3.3h-9.9c0-2.1,0.7-4.1,2-5.9c1.3-1.8,3.2-3.3,5.6-4.3c2.4-1,5.1-1.6,8.1-1.6c4.6,0,8.2,1.1,10.9,3.4
				c2.7,2.3,4,5.5,4,9.7v16c0,3.5,0.5,6.2,1.5,8v0.6H771.6z M763.4,192.3c1.5,0,2.8-0.3,4-1c1.2-0.7,2.1-1.5,2.7-2.6v-6.4h-3.7
				c-4.9,0-7.6,1.7-7.9,5.1l0,0.6c0,1.2,0.4,2.2,1.3,3C760.7,191.9,761.9,192.3,763.4,192.3z"/>
			<path d="M808.4,171.5c-1.3-0.2-2.5-0.3-3.6-0.3c-3.7,0-6.2,1.3-7.3,3.8v24.2h-9.9v-37h9.3l0.3,4.4c2-3.4,4.7-5.1,8.2-5.1
				c1.1,0,2.1,0.1,3.1,0.4L808.4,171.5z"/>
			<path d="M833.6,199.2c-0.5-0.9-0.8-2-1-3.3c-2.4,2.7-5.5,4-9.3,4c-3.6,0-6.6-1-9-3.1c-2.4-2.1-3.6-4.7-3.6-7.9
				c0-3.9,1.5-6.9,4.4-9c2.9-2.1,7.1-3.2,12.6-3.2h4.5v-2.1c0-1.7-0.4-3.1-1.3-4.1c-0.9-1-2.3-1.5-4.2-1.5c-1.7,0-3,0.4-3.9,1.2
				c-0.9,0.8-1.4,1.9-1.4,3.3h-9.9c0-2.1,0.7-4.1,2-5.9c1.3-1.8,3.2-3.3,5.6-4.3c2.4-1,5.1-1.6,8.1-1.6c4.6,0,8.2,1.1,10.9,3.4
				c2.7,2.3,4,5.5,4,9.7v16c0,3.5,0.5,6.2,1.5,8v0.6H833.6z M825.4,192.3c1.5,0,2.8-0.3,4-1c1.2-0.7,2.1-1.5,2.7-2.6v-6.4h-3.7
				c-4.9,0-7.6,1.7-7.9,5.1l0,0.6c0,1.2,0.4,2.2,1.3,3C822.7,191.9,823.9,192.3,825.4,192.3z"/>
			<path d="M861.5,153.1v9.1h6.3v7.2h-6.3v18.5c0,1.4,0.3,2.3,0.8,2.9c0.5,0.6,1.5,0.9,3,0.9c1.1,0,2.1-0.1,2.9-0.2v7.5
				c-1.9,0.6-3.9,0.9-6,0.9c-6.9,0-10.5-3.5-10.6-10.5v-19.9h-5.4v-7.2h5.4v-9.1H861.5z"/>
			<path d="M873.3,152.6c0-1.5,0.5-2.7,1.5-3.7c1-1,2.3-1.4,4-1.4c1.7,0,3,0.5,4,1.4c1,1,1.5,2.2,1.5,3.7c0,1.5-0.5,2.7-1.5,3.7
				c-1,1-2.4,1.4-4,1.4c-1.7,0-3-0.5-4-1.4S873.3,154.1,873.3,152.6z M883.8,199.2h-9.9v-37h9.9V199.2z"/>
			<path d="M890.4,180.4c0-3.7,0.7-6.9,2.1-9.8c1.4-2.9,3.4-5.1,6.1-6.7c2.7-1.6,5.7-2.4,9.2-2.4c5,0,9.1,1.5,12.2,4.6
				c3.2,3.1,4.9,7.2,5.3,12.4l0.1,2.5c0,5.7-1.6,10.2-4.8,13.7c-3.2,3.4-7.4,5.1-12.7,5.1s-9.6-1.7-12.8-5.1
				c-3.2-3.4-4.8-8.1-4.8-13.9V180.4z M900.3,181.1c0,3.5,0.7,6.2,2,8.1c1.3,1.9,3.2,2.8,5.7,2.8c2.4,0,4.3-0.9,5.6-2.8
				c1.3-1.8,2-4.8,2-8.8c0-3.4-0.7-6.1-2-8c-1.3-1.9-3.2-2.8-5.7-2.8c-2.4,0-4.3,0.9-5.6,2.8C900.9,174.2,900.3,177.1,900.3,181.1z"
				/>
			<path d="M940.6,162.2l0.3,4.3c2.6-3.3,6.2-5,10.6-5c3.9,0,6.8,1.2,8.8,3.5c1.9,2.3,2.9,5.7,2.9,10.3v23.9h-9.9v-23.7
				c0-2.1-0.5-3.6-1.4-4.6c-0.9-0.9-2.4-1.4-4.5-1.4c-2.8,0-4.9,1.2-6.3,3.6v26.1h-9.9v-37H940.6z"/>
			<path d="M80.9,264.4c0-5.8,1.3-10.4,3.9-13.8s6.1-5.1,10.6-5.1c3.6,0,6.6,1.3,8.9,4v-18.9h9.9v52.5h-8.9l-0.5-3.9
				c-2.5,3.1-5.6,4.6-9.5,4.6c-4.4,0-7.8-1.7-10.5-5.1C82.2,275.3,80.9,270.5,80.9,264.4z M90.8,265.1c0,3.5,0.6,6.1,1.8,8
				c1.2,1.9,3,2.8,5.3,2.8c3.1,0,5.2-1.3,6.5-3.9v-14.7c-1.2-2.6-3.4-3.9-6.4-3.9C93.2,253.5,90.8,257.4,90.8,265.1z"/>
			<path d="M124.8,248.7l-4.6-2.7c2-3.1,3-6.3,3-9.5v-5.8h7.9v5.3c0,2.1-0.6,4.3-1.7,6.7C128.2,245.1,126.6,247.1,124.8,248.7z"/>
			<path d="M137.9,236.6c0-1.5,0.5-2.7,1.5-3.7s2.3-1.4,4.1-1.4c1.7,0,3,0.5,4,1.4c1,1,1.5,2.2,1.5,3.7c0,1.5-0.5,2.7-1.5,3.7
				s-2.4,1.4-4,1.4c-1.7,0-3-0.5-4-1.4S137.9,238.1,137.9,236.6z M148.4,283.2h-9.9v-37h9.9V283.2z"/>
			<path d="M165.8,246.2l0.3,4.1c2.6-3.2,6.2-4.8,10.6-4.8c4.8,0,8,1.9,9.8,5.6c2.6-3.8,6.3-5.6,11.1-5.6c4,0,7,1.2,9,3.5
				c2,2.3,2.9,5.9,2.9,10.5v23.6h-9.9v-23.6c0-2.1-0.4-3.6-1.2-4.6c-0.8-1-2.3-1.5-4.3-1.5c-3,0-5,1.4-6.2,4.2l0,25.5h-9.9v-23.6
				c0-2.1-0.4-3.7-1.3-4.7c-0.8-1-2.3-1.4-4.3-1.4c-2.8,0-4.8,1.2-6.1,3.5v26.2h-9.9v-37H165.8z"/>
			<path d="M250.4,265c0,5.7-1.3,10.3-3.9,13.7c-2.6,3.4-6.1,5.1-10.5,5.1c-3.7,0-6.8-1.3-9.1-3.9v17.4h-9.9v-51.2h9.2l0.3,3.6
				c2.4-2.9,5.5-4.3,9.4-4.3c4.6,0,8.1,1.7,10.6,5.1c2.5,3.4,3.8,8,3.8,13.9V265z M240.6,264.3c0-3.5-0.6-6.1-1.8-8
				c-1.2-1.9-3-2.8-5.3-2.8c-3.1,0-5.2,1.2-6.4,3.6v15.2c1.2,2.4,3.4,3.7,6.5,3.7C238.2,275.9,240.6,272,240.6,264.3z"/>
			<path d="M255,264.4c0-3.7,0.7-6.9,2.1-9.8c1.4-2.9,3.4-5.1,6.1-6.7s5.7-2.4,9.2-2.4c5,0,9.1,1.5,12.2,4.6
				c3.2,3.1,4.9,7.2,5.3,12.4l0.1,2.5c0,5.7-1.6,10.2-4.8,13.7c-3.2,3.4-7.4,5.1-12.7,5.1s-9.6-1.7-12.8-5.1s-4.8-8.1-4.8-13.9
				V264.4z M285.6,240.3v0.4l-7.9,0l-5.3-5l-5.3,5l-7.7,0v-0.5l10.1-9.4h5.7L285.6,240.3z M264.9,265.1c0,3.5,0.7,6.2,2,8.1
				c1.3,1.9,3.2,2.8,5.7,2.8c2.4,0,4.3-0.9,5.6-2.8c1.3-1.8,2-4.8,2-8.8c0-3.4-0.7-6.1-2-8c-1.3-1.9-3.2-2.8-5.7-2.8
				c-2.4,0-4.3,0.9-5.6,2.8C265.5,258.2,264.9,261.1,264.9,265.1z"/>
			<path d="M308,237.1v9.1h6.3v7.2H308v18.5c0,1.4,0.3,2.3,0.8,2.9c0.5,0.6,1.5,0.9,3,0.9c1.1,0,2.1-0.1,2.9-0.2v7.5
				c-1.9,0.6-3.9,0.9-6,0.9c-6.9,0-10.5-3.5-10.6-10.5v-19.9h-5.4v-7.2h5.4v-9.1H308z"/>
			<path d="M339.8,273c0-1.2-0.6-2.2-1.8-2.9c-1.2-0.7-3.1-1.3-5.8-1.9c-8.8-1.8-13.2-5.6-13.2-11.2c0-3.3,1.4-6,4.1-8.2
				s6.3-3.3,10.7-3.3c4.7,0,8.4,1.1,11.3,3.3c2.8,2.2,4.2,5.1,4.2,8.6h-9.9c0-1.4-0.5-2.6-1.4-3.5c-0.9-0.9-2.3-1.4-4.3-1.4
				c-1.7,0-3,0.4-3.9,1.1c-0.9,0.8-1.4,1.7-1.4,2.9c0,1.1,0.5,2,1.6,2.6s2.8,1.3,5.2,1.7c2.5,0.5,4.5,1,6.2,1.7
				c5.2,1.9,7.8,5.2,7.8,9.9c0,3.4-1.4,6.1-4.3,8.2c-2.9,2.1-6.6,3.1-11.2,3.1c-3.1,0-5.9-0.6-8.3-1.7c-2.4-1.1-4.3-2.6-5.7-4.5
				s-2.1-4-2.1-6.2h9.4c0.1,1.8,0.7,3.1,1.9,4c1.2,0.9,2.8,1.4,4.9,1.4c1.9,0,3.3-0.4,4.3-1.1C339.3,275.1,339.8,274.1,339.8,273z"
				/>
			<path d="M397.7,283.2c-0.4-1.2-0.7-2.9-0.8-5.2c-1.4,1.9-3.3,3.3-5.5,4.3c-2.2,1-4.6,1.5-7.1,1.5c-3.6,0-6.4-1-8.6-3
				s-3.3-4.5-3.3-7.5c0-3.6,1.5-6.4,4.5-8.5c3-2.1,7.2-3.1,12.5-3.1h7.4v-4.2c0-2.6-0.8-4.7-2.4-6.2c-1.6-1.5-4-2.3-7.1-2.3
				c-2.8,0-5.2,0.7-7.1,2.2c-1.9,1.5-2.8,3.2-2.8,5.3l-4.1,0c0-2.9,1.4-5.5,4.1-7.6c2.7-2.2,6.1-3.2,10.1-3.2c4.1,0,7.4,1,9.8,3.1
				s3.6,4.9,3.7,8.6v17.5c0,3.6,0.4,6.3,1.1,8v0.4H397.7z M384.8,280.3c2.7,0,5.2-0.7,7.3-2c2.2-1.3,3.7-3.1,4.7-5.3v-8.1h-7.3
				c-4.1,0-7.3,0.8-9.6,2.2c-2.3,1.4-3.5,3.4-3.5,6c0,2.1,0.8,3.8,2.3,5.2S382.4,280.3,384.8,280.3z M391.3,240.6l-3.7,0l-7.7-9.5
				h4.9L391.3,240.6z"/>
			<path d="M445.9,249.7c-0.9-0.2-1.8-0.2-2.8-0.2c-2.6,0-4.7,0.7-6.5,2.1c-1.8,1.4-3,3.5-3.8,6.2v25.4h-4.1v-37h4l0.1,5.9
				c2.2-4.4,5.6-6.6,10.4-6.6c1.1,0,2,0.1,2.7,0.4L445.9,249.7z"/>
			<path d="M466.1,283.9c-3.1,0-6-0.8-8.5-2.3c-2.5-1.5-4.5-3.7-5.9-6.5c-1.4-2.8-2.1-5.9-2.1-9.3v-1.5c0-3.6,0.7-6.8,2.1-9.6
				c1.4-2.8,3.3-5.1,5.8-6.7c2.5-1.6,5.1-2.4,8-2.4c4.5,0,8,1.5,10.7,4.6s3.9,7.3,3.9,12.6v2.3h-26.4v0.8c0,4.2,1.2,7.7,3.6,10.5
				s5.4,4.2,9.1,4.2c2.2,0,4.1-0.4,5.8-1.2c1.7-0.8,3.2-2.1,4.6-3.8l2.6,1.9C476.2,281.7,471.8,283.9,466.1,283.9z M465.3,249
				c-3.1,0-5.7,1.1-7.8,3.4s-3.4,5.3-3.8,9.1h22.2V261c-0.1-3.6-1.1-6.4-3-8.7C470.9,250.1,468.4,249,465.3,249z"/>
			<path d="M491.6,246.2l0.1,6c1.4-2.2,3.1-3.9,5.1-5c2.1-1.1,4.3-1.7,6.8-1.7c5.8,0,9.5,2.4,11.1,7.2c1.3-2.3,3.1-4.1,5.3-5.3
				c2.2-1.2,4.6-1.9,7.3-1.9c7.9,0,12,4.3,12.1,13v24.7h-4.1v-24.4c0-3.3-0.7-5.8-2.1-7.3c-1.4-1.6-3.7-2.4-6.9-2.4
				c-2.9,0-5.4,1-7.5,2.9c-2,1.9-3.2,4.1-3.4,6.8v24.5h-4.1v-24.7c0-3.2-0.8-5.5-2.2-7.1s-3.7-2.3-6.8-2.3c-2.6,0-4.8,0.7-6.6,2.2
				c-1.8,1.5-3.2,3.7-4.1,6.5v25.4h-4.1v-37H491.6z"/>
			<path d="M579.7,265.1c0,5.8-1.3,10.3-3.8,13.7c-2.6,3.4-6,5.1-10.3,5.1c-5.1,0-8.9-1.8-11.6-5.3v18.9h-4.1v-51.2h3.8l0.2,5.2
				c2.7-3.9,6.5-5.9,11.6-5.9c4.4,0,7.9,1.7,10.4,5s3.8,8,3.8,13.9V265.1z M575.6,264.4c0-4.7-1-8.4-2.9-11.2
				c-1.9-2.7-4.6-4.1-8.1-4.1c-2.5,0-4.7,0.6-6.5,1.8c-1.8,1.2-3.2,3-4.1,5.3v17.7c1,2.1,2.4,3.7,4.2,4.9c1.8,1.1,4,1.7,6.5,1.7
				c3.4,0,6.1-1.4,8-4.1S575.6,269.6,575.6,264.4z"/>
			<path d="M593.3,283.2h-4.1v-52.5h4.1V283.2z"/>
			<path d="M604.2,235.5c0-0.8,0.2-1.4,0.8-2c0.5-0.5,1.2-0.8,2.1-0.8c0.9,0,1.6,0.3,2.1,0.8c0.5,0.5,0.8,1.2,0.8,2
				c0,0.8-0.3,1.4-0.8,1.9c-0.5,0.5-1.2,0.8-2.1,0.8c-0.9,0-1.5-0.3-2.1-0.8C604.4,236.9,604.2,236.3,604.2,235.5z M609,283.2h-4.1
				v-37h4.1V283.2z"/>
			<path d="M637.2,249.7c-0.9-0.2-1.8-0.2-2.8-0.2c-2.6,0-4.7,0.7-6.5,2.1c-1.8,1.4-3,3.5-3.8,6.2v25.4h-4.1v-37h4l0.1,5.9
				c2.2-4.4,5.6-6.6,10.4-6.6c1.1,0,2,0.1,2.7,0.4L637.2,249.7z"/>
			<path d="M660.3,280.7c0-0.8,0.3-1.5,0.8-2c0.5-0.6,1.2-0.8,2.1-0.8c0.9,0,1.6,0.3,2.2,0.8c0.5,0.6,0.8,1.2,0.8,2
				c0,0.8-0.3,1.5-0.8,2c-0.5,0.5-1.2,0.8-2.2,0.8c-0.9,0-1.6-0.3-2.1-0.8C660.6,282.2,660.3,281.5,660.3,280.7z"/>
			<path d="M677,280.7c0-0.8,0.3-1.5,0.8-2c0.5-0.6,1.2-0.8,2.1-0.8c0.9,0,1.6,0.3,2.2,0.8c0.5,0.6,0.8,1.2,0.8,2
				c0,0.8-0.3,1.5-0.8,2c-0.5,0.5-1.2,0.8-2.2,0.8c-0.9,0-1.6-0.3-2.1-0.8C677.3,282.2,677,281.5,677,280.7z"/>
			<path d="M693.7,280.7c0-0.8,0.3-1.5,0.8-2c0.5-0.6,1.2-0.8,2.1-0.8c0.9,0,1.6,0.3,2.2,0.8c0.5,0.6,0.8,1.2,0.8,2
				c0,0.8-0.3,1.5-0.8,2c-0.5,0.5-1.2,0.8-2.2,0.8c-0.9,0-1.6-0.3-2.1-0.8C694,282.2,693.7,281.5,693.7,280.7z"/>
			<path d="M734.4,233.4l18.4,43.9l18.4-43.9h5.6v49.8h-4.2v-21.7l0.3-22.2l-18.5,43.9h-3.2l-18.5-43.7l0.3,21.9v21.8h-4.2v-49.8
				H734.4z"/>
			<path d="M811.8,283.2c-0.4-1.2-0.7-2.9-0.8-5.2c-1.4,1.9-3.3,3.3-5.5,4.3c-2.2,1-4.6,1.5-7.1,1.5c-3.6,0-6.4-1-8.6-3
				c-2.2-2-3.3-4.5-3.3-7.5c0-3.6,1.5-6.4,4.5-8.5c3-2.1,7.2-3.1,12.5-3.1h7.4v-4.2c0-2.6-0.8-4.7-2.4-6.2c-1.6-1.5-4-2.3-7.1-2.3
				c-2.8,0-5.2,0.7-7.1,2.2c-1.9,1.5-2.8,3.2-2.8,5.3l-4.1,0c0-2.9,1.4-5.5,4.1-7.6c2.7-2.2,6.1-3.2,10.1-3.2c4.1,0,7.4,1,9.8,3.1
				c2.4,2.1,3.6,4.9,3.7,8.6v17.5c0,3.6,0.4,6.3,1.1,8v0.4H811.8z M798.9,280.3c2.7,0,5.2-0.7,7.3-2c2.2-1.3,3.7-3.1,4.7-5.3v-8.1
				h-7.3c-4.1,0-7.3,0.8-9.6,2.2c-2.3,1.4-3.5,3.4-3.5,6c0,2.1,0.8,3.8,2.3,5.2C794.5,279.6,796.5,280.3,798.9,280.3z"/>
			<path d="M825.7,235.5c0-0.8,0.2-1.4,0.8-2c0.5-0.5,1.2-0.8,2.1-0.8c0.9,0,1.6,0.3,2.1,0.8c0.5,0.5,0.8,1.2,0.8,2
				c0,0.8-0.3,1.4-0.8,1.9c-0.5,0.5-1.2,0.8-2.1,0.8c-0.9,0-1.5-0.3-2.1-0.8C825.9,236.9,825.7,236.3,825.7,235.5z M830.5,283.2
				h-4.1v-37h4.1V283.2z"/>
			<path d="M863.8,273.8c0-2-0.8-3.7-2.4-4.9c-1.6-1.2-4.1-2.2-7.4-2.9c-3.3-0.7-5.8-1.5-7.6-2.4c-1.8-0.9-3.2-2-4-3.3
				s-1.3-2.9-1.3-4.7c0-2.9,1.2-5.3,3.7-7.2c2.4-1.9,5.6-2.9,9.4-2.9c4.1,0,7.4,1,9.9,3.1c2.5,2,3.7,4.7,3.7,8h-4.1
				c0-2.2-0.9-4-2.7-5.4c-1.8-1.4-4.1-2.2-6.9-2.2c-2.7,0-4.8,0.6-6.5,1.8c-1.6,1.2-2.4,2.8-2.4,4.7c0,1.8,0.7,3.3,2,4.3
				c1.4,1,3.8,1.9,7.4,2.8c3.6,0.8,6.3,1.7,8.1,2.7s3.1,2.1,4,3.5c0.9,1.3,1.3,3,1.3,4.9c0,3.1-1.3,5.6-3.8,7.5
				c-2.5,1.9-5.8,2.8-9.9,2.8c-4.3,0-7.8-1-10.5-3.1c-2.7-2.1-4-4.7-4-7.9h4.1c0.2,2.4,1.2,4.3,3,5.6c1.9,1.3,4.3,2,7.4,2
				c2.8,0,5.1-0.6,6.9-1.9C862.9,277.3,863.8,275.7,863.8,273.8z"/>
			<path d="M891.8,264.2c0-3.6,0.7-6.8,2.1-9.6c1.4-2.8,3.3-5.1,5.8-6.6c2.5-1.6,5.4-2.4,8.6-2.4c4.9,0,8.9,1.7,12,5.2
				c3.1,3.5,4.6,8,4.6,13.7v0.9c0,3.6-0.7,6.8-2.1,9.7s-3.3,5.1-5.8,6.6c-2.5,1.5-5.4,2.3-8.6,2.3c-4.9,0-8.9-1.7-11.9-5.2
				c-3.1-3.5-4.6-8-4.6-13.7V264.2z M895.9,265.3c0,4.4,1.1,8,3.4,10.9c2.3,2.8,5.3,4.3,9,4.3c3.7,0,6.7-1.4,9-4.3
				c2.3-2.8,3.4-6.6,3.4-11.2v-0.8c0-2.8-0.5-5.4-1.6-7.8c-1-2.3-2.5-4.2-4.4-5.5c-1.9-1.3-4.1-1.9-6.5-1.9c-3.6,0-6.6,1.4-8.9,4.3
				c-2.3,2.9-3.5,6.6-3.5,11.2V265.3z"/>
			<path d="M957.1,278.5c-2.5,3.6-6.4,5.4-11.8,5.4c-3.9,0-6.9-1.1-9-3.4c-2.1-2.3-3.1-5.7-3.1-10.2v-24.1h4.1v23.5
				c0,7,2.8,10.6,8.5,10.6c5.9,0,9.7-2.4,11.2-7.3v-26.8h4.1v37h-4L957.1,278.5z M950.1,240.6l-3.7,0l-7.7-9.5h4.9L950.1,240.6z"/>
			<path d="M98.3,367.9c-3.1,0-6-0.8-8.5-2.3c-2.5-1.5-4.5-3.7-5.9-6.5c-1.4-2.8-2.1-5.9-2.1-9.3v-1.5c0-3.6,0.7-6.8,2.1-9.6
				c1.4-2.8,3.3-5.1,5.8-6.7c2.5-1.6,5.1-2.4,8-2.4c4.5,0,8,1.5,10.7,4.6s3.9,7.3,3.9,12.6v2.3H85.8v0.8c0,4.2,1.2,7.7,3.6,10.5
				s5.4,4.2,9.1,4.2c2.2,0,4.1-0.4,5.8-1.2c1.7-0.8,3.2-2.1,4.6-3.8l2.6,1.9C108.4,365.7,104,367.9,98.3,367.9z M97.6,333
				c-3.1,0-5.7,1.1-7.8,3.4s-3.4,5.3-3.8,9.1h22.2V345c-0.1-3.6-1.1-6.4-3-8.7C103.2,334.1,100.7,333,97.6,333z"/>
			<path d="M142.3,357.8c0-2-0.8-3.7-2.4-4.9s-4.1-2.2-7.4-2.9c-3.3-0.7-5.8-1.5-7.6-2.4c-1.8-0.9-3.2-2-4-3.3s-1.3-2.9-1.3-4.7
				c0-2.9,1.2-5.3,3.7-7.2c2.4-1.9,5.6-2.9,9.4-2.9c4.1,0,7.4,1,9.9,3.1c2.5,2,3.7,4.7,3.7,8h-4.1c0-2.2-0.9-4-2.7-5.4
				s-4.1-2.2-6.9-2.2c-2.7,0-4.8,0.6-6.5,1.8c-1.6,1.2-2.4,2.8-2.4,4.7c0,1.8,0.7,3.3,2,4.3s3.8,1.9,7.4,2.8
				c3.6,0.8,6.3,1.7,8.1,2.7s3.1,2.1,4,3.5c0.9,1.3,1.3,3,1.3,4.9c0,3.1-1.3,5.6-3.8,7.5c-2.5,1.9-5.8,2.8-9.9,2.8
				c-4.3,0-7.8-1-10.5-3.1c-2.7-2.1-4-4.7-4-7.9h4.1c0.2,2.4,1.2,4.3,3,5.6c1.9,1.3,4.3,2,7.4,2c2.8,0,5.1-0.6,6.9-1.9
				C141.4,361.3,142.3,359.7,142.3,357.8z"/>
			<path d="M162,320.7v9.5h7.7v3.3H162v24.7c0,2.1,0.4,3.6,1.1,4.6c0.7,1,2,1.5,3.7,1.5c0.7,0,1.8-0.1,3.3-0.3l0.2,3.3
				c-1.1,0.4-2.5,0.6-4.4,0.6c-2.8,0-4.8-0.8-6.1-2.4c-1.3-1.6-1.9-4-1.9-7.2v-24.7h-6.8v-3.3h6.8v-9.5H162z"/>
			<path d="M190.8,347h-16.4v-3.5h16.4V347z"/>
			<path d="M211.8,364.4c2.8,0,5.2-0.8,7.2-2.4c1.9-1.6,3-3.7,3.1-6.2h3.9c-0.1,2.3-0.8,4.3-2.1,6.2s-3,3.3-5.2,4.4
				s-4.5,1.6-6.9,1.6c-4.9,0-8.7-1.7-11.5-5.1c-2.8-3.4-4.3-7.9-4.3-13.6V348c0-3.6,0.6-6.9,1.9-9.7c1.3-2.8,3.1-5,5.5-6.5
				c2.4-1.5,5.2-2.3,8.4-2.3c4.1,0,7.4,1.2,10,3.6c2.6,2.4,4,5.6,4.2,9.5h-3.9c-0.2-2.9-1.2-5.2-3.1-7s-4.3-2.7-7.2-2.7
				c-3.7,0-6.6,1.3-8.6,4s-3.1,6.4-3.1,11.2v1.2c0,4.7,1,8.4,3.1,11C205.2,363.1,208.1,364.4,211.8,364.4z"/>
			<path d="M248.5,367.9c-3.1,0-6-0.8-8.5-2.3c-2.5-1.5-4.5-3.7-5.9-6.5c-1.4-2.8-2.1-5.9-2.1-9.3v-1.5c0-3.6,0.7-6.8,2.1-9.6
				c1.4-2.8,3.3-5.1,5.8-6.7c2.5-1.6,5.1-2.4,8-2.4c4.5,0,8,1.5,10.7,4.6c2.6,3.1,3.9,7.3,3.9,12.6v2.3H236v0.8
				c0,4.2,1.2,7.7,3.6,10.5s5.4,4.2,9.1,4.2c2.2,0,4.1-0.4,5.8-1.2c1.7-0.8,3.2-2.1,4.6-3.8l2.6,1.9
				C258.6,365.7,254.2,367.9,248.5,367.9z M247.8,333c-3.1,0-5.7,1.1-7.8,3.4s-3.4,5.3-3.8,9.1h22.2V345c-0.1-3.6-1.1-6.4-3-8.7
				C253.4,334.1,250.9,333,247.8,333z"/>
			<path d="M285.7,348.4c0-5.8,1.3-10.4,3.8-13.8c2.6-3.4,6.1-5.1,10.5-5.1c5,0,8.8,1.9,11.4,5.7l0.2-5h3.8v51.2h-4.1v-18.8
				c-2.7,3.5-6.5,5.3-11.4,5.3c-4.3,0-7.8-1.7-10.4-5.1s-3.9-8-3.9-13.8V348.4z M289.9,349.1c0,4.8,1,8.5,2.9,11.3
				c1.9,2.7,4.6,4.1,8,4.1c4.9,0,8.4-2.1,10.6-6.4v-18.1c-1-2.2-2.4-3.9-4.3-5.1c-1.8-1.2-3.9-1.8-6.3-1.8c-3.4,0-6.1,1.4-8.1,4.1
				C290.8,339.8,289.9,343.8,289.9,349.1z"/>
			<path d="M350.2,362.5c-2.5,3.6-6.4,5.4-11.8,5.4c-3.9,0-6.9-1.1-9-3.4c-2.1-2.3-3.1-5.7-3.1-10.2v-24.1h4.1v23.5
				c0,7,2.8,10.6,8.5,10.6c5.9,0,9.7-2.4,11.2-7.3v-26.8h4.1v37h-4L350.2,362.5z"/>
			<path d="M364.1,329.6l-2.4-1.8c2.1-2.8,3.1-5.7,3.2-8.7v-4.5h4v3.5C368.9,322.9,367.3,326.7,364.1,329.6z"/>
			<path d="M377.1,319.5c0-0.8,0.2-1.4,0.8-2c0.5-0.5,1.2-0.8,2.1-0.8c0.9,0,1.6,0.3,2.1,0.8c0.5,0.5,0.8,1.2,0.8,2
				c0,0.8-0.3,1.4-0.8,1.9c-0.5,0.5-1.2,0.8-2.1,0.8c-0.9,0-1.5-0.3-2.1-0.8C377.3,320.9,377.1,320.3,377.1,319.5z M381.9,367.2
				h-4.1v-37h4.1V367.2z"/>
			<path d="M397.6,367.2h-4.1v-52.5h4.1V367.2z"/>
			<path d="M437.2,361.6l11.2-31.3h4.2l-13.8,37h-3.3l-13.9-37h4.2L437.2,361.6z"/>
			<path d="M482.2,367.2c-0.4-1.2-0.7-2.9-0.8-5.2c-1.4,1.9-3.3,3.3-5.5,4.3c-2.2,1-4.6,1.5-7.1,1.5c-3.6,0-6.4-1-8.6-3
				s-3.3-4.5-3.3-7.5c0-3.6,1.5-6.4,4.5-8.5c3-2.1,7.2-3.1,12.5-3.1h7.4v-4.2c0-2.6-0.8-4.7-2.4-6.2c-1.6-1.5-4-2.3-7.1-2.3
				c-2.8,0-5.2,0.7-7.1,2.2c-1.9,1.5-2.8,3.2-2.8,5.3l-4.1,0c0-2.9,1.4-5.5,4.1-7.6c2.7-2.2,6.1-3.2,10.1-3.2c4.1,0,7.4,1,9.8,3.1
				s3.6,4.9,3.7,8.6v17.5c0,3.6,0.4,6.3,1.1,8v0.4H482.2z M469.4,364.3c2.7,0,5.2-0.7,7.3-2c2.2-1.3,3.7-3.1,4.7-5.3v-8.1h-7.3
				c-4.1,0-7.3,0.8-9.6,2.2c-2.3,1.4-3.5,3.4-3.5,6c0,2.1,0.8,3.8,2.3,5.2S466.9,364.3,469.4,364.3z"/>
			<path d="M527,364.4c2.8,0,5.2-0.8,7.2-2.4c1.9-1.6,3-3.7,3.1-6.2h3.9c-0.1,2.3-0.8,4.3-2.1,6.2s-3,3.3-5.2,4.4
				c-2.2,1-4.5,1.6-6.9,1.6c-4.9,0-8.7-1.7-11.5-5.1c-2.8-3.4-4.3-7.9-4.3-13.6V348c0-3.6,0.6-6.9,1.9-9.7c1.3-2.8,3.1-5,5.5-6.5
				c2.4-1.5,5.2-2.3,8.4-2.3c4.1,0,7.4,1.2,10,3.6c2.6,2.4,4,5.6,4.2,9.5h-3.9c-0.2-2.9-1.2-5.2-3.1-7s-4.3-2.7-7.2-2.7
				c-3.7,0-6.6,1.3-8.6,4s-3.1,6.4-3.1,11.2v1.2c0,4.7,1,8.4,3.1,11C520.5,363.1,523.3,364.4,527,364.4z"/>
			<path d="M563.8,367.9c-3.1,0-6-0.8-8.5-2.3c-2.5-1.5-4.5-3.7-5.9-6.5c-1.4-2.8-2.1-5.9-2.1-9.3v-1.5c0-3.6,0.7-6.8,2.1-9.6
				c1.4-2.8,3.3-5.1,5.8-6.7c2.5-1.6,5.1-2.4,8-2.4c4.5,0,8,1.5,10.7,4.6c2.6,3.1,3.9,7.3,3.9,12.6v2.3h-26.4v0.8
				c0,4.2,1.2,7.7,3.6,10.5c2.4,2.8,5.4,4.2,9.1,4.2c2.2,0,4.1-0.4,5.8-1.2c1.7-0.8,3.2-2.1,4.6-3.8l2.6,1.9
				C573.8,365.7,569.5,367.9,563.8,367.9z M563,333c-3.1,0-5.7,1.1-7.8,3.4s-3.4,5.3-3.8,9.1h22.2V345c-0.1-3.6-1.1-6.4-3-8.7
				C568.6,334.1,566.1,333,563,333z"/>
			<path d="M592,320.7v9.5h7.7v3.3H592v24.7c0,2.1,0.4,3.6,1.1,4.6c0.7,1,2,1.5,3.7,1.5c0.7,0,1.8-0.1,3.3-0.3l0.2,3.3
				c-1.1,0.4-2.5,0.6-4.4,0.6c-2.8,0-4.8-0.8-6.1-2.4c-1.3-1.6-1.9-4-1.9-7.2v-24.7H581v-3.3h6.8v-9.5H592z"/>
			<path d="M648.5,367.2c-0.4-1.2-0.7-2.9-0.8-5.2c-1.4,1.9-3.3,3.3-5.5,4.3c-2.2,1-4.6,1.5-7.1,1.5c-3.6,0-6.4-1-8.6-3
				c-2.2-2-3.3-4.5-3.3-7.5c0-3.6,1.5-6.4,4.5-8.5c3-2.1,7.2-3.1,12.5-3.1h7.4v-4.2c0-2.6-0.8-4.7-2.4-6.2c-1.6-1.5-4-2.3-7.1-2.3
				c-2.8,0-5.2,0.7-7.1,2.2c-1.9,1.5-2.8,3.2-2.8,5.3l-4.1,0c0-2.9,1.4-5.5,4.1-7.6c2.7-2.2,6.1-3.2,10.1-3.2c4.1,0,7.4,1,9.8,3.1
				c2.4,2.1,3.6,4.9,3.7,8.6v17.5c0,3.6,0.4,6.3,1.1,8v0.4H648.5z M635.6,364.3c2.7,0,5.2-0.7,7.3-2c2.2-1.3,3.7-3.1,4.7-5.3v-8.1
				h-7.3c-4.1,0-7.3,0.8-9.6,2.2c-2.3,1.4-3.5,3.4-3.5,6c0,2.1,0.8,3.8,2.3,5.2C631.1,363.6,633.1,364.3,635.6,364.3z"/>
			<path d="M679.7,333.7c-0.9-0.2-1.8-0.2-2.8-0.2c-2.6,0-4.7,0.7-6.5,2.1c-1.8,1.4-3,3.5-3.8,6.2v25.4h-4.1v-37h4l0.1,5.9
				c2.2-4.4,5.6-6.6,10.4-6.6c1.1,0,2,0.1,2.7,0.4L679.7,333.7z"/>
			<path d="M683.9,348.4c0-5.8,1.3-10.4,3.8-13.8c2.6-3.4,6-5.1,10.4-5.1c5,0,8.9,2,11.5,6l0.2-5.3h3.8v36.2c0,4.8-1.3,8.5-4,11.3
				c-2.7,2.8-6.3,4.2-10.8,4.2c-2.6,0-5-0.6-7.4-1.7c-2.3-1.2-4.2-2.7-5.5-4.6l2.3-2.5c2.9,3.6,6.3,5.3,10.3,5.3c3.4,0,6.1-1,8-3
				c1.9-2,2.9-4.8,3-8.4v-4.6c-2.6,3.6-6.4,5.5-11.5,5.5c-4.3,0-7.7-1.7-10.3-5.1s-3.9-8-3.9-13.8V348.4z M688,349.1
				c0,4.7,0.9,8.4,2.8,11.2c1.9,2.7,4.6,4.1,8,4.1c5,0,8.6-2.3,10.7-6.8v-17.2c-1-2.4-2.3-4.2-4.1-5.4c-1.8-1.2-4-1.9-6.5-1.9
				c-3.4,0-6.1,1.3-8,4.1C689,339.8,688,343.8,688,349.1z"/>
			<path d="M738.7,367.9c-3.1,0-6-0.8-8.5-2.3c-2.5-1.5-4.5-3.7-5.9-6.5c-1.4-2.8-2.1-5.9-2.1-9.3v-1.5c0-3.6,0.7-6.8,2.1-9.6
				c1.4-2.8,3.3-5.1,5.8-6.7c2.5-1.6,5.1-2.4,8-2.4c4.5,0,8,1.5,10.7,4.6c2.6,3.1,3.9,7.3,3.9,12.6v2.3h-26.4v0.8
				c0,4.2,1.2,7.7,3.6,10.5c2.4,2.8,5.4,4.2,9.1,4.2c2.2,0,4.1-0.4,5.8-1.2c1.7-0.8,3.2-2.1,4.6-3.8l2.6,1.9
				C748.7,365.7,744.4,367.9,738.7,367.9z M737.9,333c-3.1,0-5.7,1.1-7.8,3.4s-3.4,5.3-3.8,9.1h22.2V345c-0.1-3.6-1.1-6.4-3-8.7
				C743.5,334.1,741,333,737.9,333z"/>
			<path d="M764.4,330.2l0.1,6.3c1.4-2.3,3.1-4,5.2-5.2c2.1-1.2,4.4-1.8,6.9-1.8c4,0,6.9,1.1,8.9,3.3c1.9,2.2,2.9,5.6,2.9,10v24.3
				h-4.1v-24.3c0-3.3-0.7-5.8-2.1-7.4c-1.4-1.6-3.6-2.4-6.6-2.4c-2.5,0-4.8,0.8-6.7,2.4c-1.9,1.6-3.4,3.7-4.3,6.4v25.3h-4.1v-37
				H764.4z"/>
			<path d="M805.3,320.7v9.5h7.7v3.3h-7.7v24.7c0,2.1,0.4,3.6,1.1,4.6c0.7,1,2,1.5,3.7,1.5c0.7,0,1.8-0.1,3.3-0.3l0.2,3.3
				c-1.1,0.4-2.5,0.6-4.4,0.6c-2.8,0-4.8-0.8-6.1-2.4c-1.3-1.6-1.9-4-1.9-7.2v-24.7h-6.8v-3.3h6.8v-9.5H805.3z"/>
			<path d="M846,353.4c0-2.7,0.4-4.8,1.1-6.5s2.2-3.6,4.4-5.8c2.3-2.2,3.7-3.8,4.4-4.7c0.6-0.9,1.1-1.9,1.5-3
				c0.4-1.1,0.5-2.4,0.5-3.8c0-2.8-0.8-5.1-2.3-6.7s-3.6-2.4-6.3-2.4c-2.7,0-4.9,0.8-6.6,2.3c-1.7,1.6-2.5,3.7-2.6,6.3H836
				c0-3.7,1.3-6.7,3.8-9c2.5-2.2,5.6-3.4,9.5-3.4c3.9,0,7,1.1,9.3,3.4s3.4,5.4,3.4,9.3c0,2.5-0.6,4.8-1.7,6.9
				c-1.1,2.2-3.2,4.7-6.4,7.5c-2.6,2.2-3.9,5.3-3.9,9.4H846z M845.4,364.8c0-0.8,0.2-1.4,0.7-2s1.2-0.8,2.1-0.8
				c0.9,0,1.6,0.3,2.1,0.8c0.5,0.5,0.8,1.2,0.8,2c0,0.8-0.3,1.4-0.8,1.9c-0.5,0.5-1.2,0.8-2.1,0.8c-0.9,0-1.6-0.3-2.1-0.8
				C845.7,366.2,845.4,365.5,845.4,364.8z"/>
		</g>
	</g>
</g>
</svg>
