<?xml version="1.0" encoding="utf-8"?>
<!-- Generator: Adobe Illustrator 17.0.0, SVG Export Plug-In . SVG Version: 6.00 Build 0)  -->
<!DOCTYPE svg PUBLIC "-//W3C//DTD SVG 1.1//EN" "http://www.w3.org/Graphics/SVG/1.1/DTD/svg11.dtd">
<svg version="1.1" id="Calque_1" xmlns="http://www.w3.org/2000/svg" xmlns:xlink="http://www.w3.org/1999/xlink" x="0px" y="0px"
	 width="1417.3px" height="850.4px" viewBox="0 0 1417.3 850.4" style="enable-background:new 0 0 1417.3 850.4;"
	 xml:space="preserve">
<style type="text/css">
	.st0{fill:#FFFFFF;}
	.st1{enable-background:new    ;}
</style>
<g>
	<g>
		<path class="st0" d="M107,649c0,18.8,15.2,34,34,34h1018c18.8,0,34-15.2,34-34V201c0-18.8-15.2-34-34-34H141
			c-18.8,0-34,15.2-34,34V649z"/>
	</g>
	<g>
		<polygon class="st0" points="1182.7,243 1310.2,243 1193.8,339 		"/>
	</g>
	<g class="st1">
		<path d="M193.4,366.2h-5.9l21.6-49.6h4.9l21.6,49.6h-5.9l-5.5-13h-25.3L193.4,366.2z M200.8,348.5h21.5l-10.7-26L200.8,348.5z"/>
		<path d="M246.3,366.2h-4.6v-52.9h4.6V366.2z"/>
		<path d="M263.1,366.2h-4.6v-52.9h4.6V366.2z"/>
		<path d="M277.4,351.1c0.1,1.6,0.5,3.2,1.2,4.6c0.7,1.4,1.5,2.7,2.6,3.7c1.1,1,2.3,1.9,3.7,2.5s2.9,0.9,4.5,0.9
			c2.5,0,4.6-0.6,6.4-1.7c1.8-1.1,3.2-2.5,4.1-4l3.6,2.9c-2,2.5-4.1,4.2-6.5,5.3c-2.4,1.1-4.9,1.6-7.6,1.6c-2.4,0-4.7-0.4-6.8-1.3
			c-2.1-0.9-3.9-2.1-5.4-3.6c-1.5-1.5-2.7-3.4-3.5-5.5c-0.9-2.1-1.3-4.4-1.3-6.9c0-2.5,0.4-4.8,1.3-6.9c0.8-2.1,2-3.9,3.5-5.5
			c1.5-1.5,3.2-2.7,5.2-3.6c2-0.9,4.2-1.3,6.5-1.3c2.5,0,4.7,0.4,6.6,1.3c2,0.9,3.6,2.1,4.9,3.5c1.3,1.5,2.3,3.2,3,5.2
			c0.7,2,1.1,4.1,1.1,6.3v2.1H277.4z M299.7,347.3c0-3.1-0.9-5.7-2.8-7.6c-1.9-1.9-4.5-2.9-7.8-2.9c-1.5,0-2.9,0.3-4.3,0.9
			c-1.4,0.6-2.6,1.4-3.7,2.3c-1.1,1-1.9,2.1-2.5,3.4c-0.6,1.3-0.9,2.6-0.9,3.9H299.7z"/>
		<path d="M335.6,336.8L316.4,362h19.9v4.2h-26.6v-3.4l19.2-25.2h-18.2v-4.2h24.9V336.8z"/>
		<path d="M347.1,376h-4.6l4.7-16.5h5.7L347.1,376z"/>
		<path d="M385.1,351.1c0.1,1.6,0.5,3.2,1.2,4.6c0.7,1.4,1.5,2.7,2.6,3.7c1.1,1,2.3,1.9,3.7,2.5s2.9,0.9,4.5,0.9
			c2.5,0,4.6-0.6,6.4-1.7c1.8-1.1,3.2-2.5,4.1-4l3.6,2.9c-2,2.5-4.1,4.2-6.5,5.3c-2.4,1.1-4.9,1.6-7.6,1.6c-2.4,0-4.7-0.4-6.8-1.3
			c-2.1-0.9-3.9-2.1-5.4-3.6c-1.5-1.5-2.7-3.4-3.5-5.5c-0.9-2.1-1.3-4.4-1.3-6.9c0-2.5,0.4-4.8,1.3-6.9c0.8-2.1,2-3.9,3.5-5.5
			c1.5-1.5,3.2-2.7,5.2-3.6c2-0.9,4.2-1.3,6.5-1.3c2.5,0,4.7,0.4,6.6,1.3c2,0.9,3.6,2.1,4.9,3.5c1.3,1.5,2.3,3.2,3,5.2
			c0.7,2,1.1,4.1,1.1,6.3v2.1H385.1z M407.4,347.3c0-3.1-0.9-5.7-2.8-7.6c-1.9-1.9-4.5-2.9-7.8-2.9c-1.5,0-2.9,0.3-4.3,0.9
			c-1.4,0.6-2.6,1.4-3.7,2.3c-1.1,1-1.9,2.1-2.5,3.4c-0.6,1.3-0.9,2.6-0.9,3.9H407.4z"/>
		<path d="M425.2,333.4c0.1,0.9,0.2,1.8,0.2,2.6c0,0.9,0,1.7,0,2.6h0.1c0.5-0.9,1.2-1.7,2-2.5c0.8-0.7,1.7-1.4,2.7-1.9
			c1-0.5,2-1,3.1-1.3c1.1-0.3,2.2-0.5,3.3-0.5c4.2,0,7.3,1.1,9.3,3.3c2,2.2,3,5.4,3,9.5v20.8h-4.6V348c0-3.6-0.6-6.4-1.9-8.4
			c-1.3-1.9-3.6-2.9-7-2.9c-0.2,0-0.9,0.1-2,0.3c-1.1,0.2-2.2,0.7-3.4,1.5s-2.3,2.1-3.2,3.8c-0.9,1.7-1.4,4-1.4,7v16.8h-4.6v-25.5
			c0-0.9,0-2-0.1-3.4c-0.1-1.4-0.2-2.6-0.2-3.8H425.2z"/>
		<path d="M483.6,341.1c-0.8-1.2-1.9-2.2-3.3-3.1c-1.4-0.8-3-1.3-4.9-1.3c-1.9,0-3.6,0.3-5.1,0.9c-1.5,0.7-2.8,1.6-3.9,2.7
			c-1.1,1.2-1.9,2.6-2.4,4.2c-0.6,1.6-0.8,3.3-0.8,5.2c0,1.9,0.3,3.6,0.8,5.2c0.6,1.6,1.4,3,2.4,4.2c1.1,1.2,2.4,2.1,3.9,2.7
			c1.5,0.7,3.2,1,5.1,0.9c1.8,0,3.4-0.4,4.9-1.3c1.4-0.8,2.5-1.9,3.3-3.1l3.8,2.9c-1.6,1.9-3.5,3.3-5.5,4.2
			c-2.1,0.9-4.2,1.4-6.4,1.4c-2.7,0-5.1-0.4-7.2-1.2c-2.1-0.9-4-2.1-5.5-3.6c-1.5-1.5-2.7-3.4-3.5-5.5c-0.8-2.1-1.2-4.4-1.2-6.9
			c0-2.5,0.4-4.8,1.2-6.9c0.8-2.1,1.9-4,3.5-5.5c1.5-1.5,3.3-2.7,5.5-3.6c2.1-0.9,4.6-1.3,7.2-1.2c2.2,0,4.4,0.5,6.4,1.4
			c2.1,0.9,3.9,2.3,5.5,4.2L483.6,341.1z"/>
		<path d="M526.6,349.8c0,2.5-0.4,4.8-1.3,6.9c-0.9,2.1-2.1,3.9-3.6,5.5s-3.4,2.7-5.5,3.6c-2.1,0.9-4.5,1.3-7,1.3
			c-2.5,0-4.8-0.4-7-1.3c-2.1-0.9-4-2.1-5.5-3.6c-1.5-1.5-2.7-3.4-3.6-5.5c-0.9-2.1-1.3-4.4-1.3-6.9c0-2.5,0.4-4.8,1.3-6.9
			c0.9-2.1,2.1-3.9,3.6-5.5c1.5-1.5,3.4-2.7,5.5-3.6c2.1-0.9,4.4-1.3,7-1.3c2.6,0,4.9,0.4,7,1.3c2.1,0.9,4,2.1,5.5,3.6
			s2.7,3.4,3.6,5.5C526.1,345,526.6,347.3,526.6,349.8z M521.5,349.8c0-1.8-0.3-3.5-0.9-5.1c-0.6-1.6-1.4-3-2.5-4.1
			c-1.1-1.2-2.4-2.1-3.9-2.8c-1.5-0.7-3.2-1-5.1-1c-1.9,0-3.6,0.3-5.1,1c-1.5,0.7-2.8,1.6-3.9,2.8c-1.1,1.2-1.9,2.5-2.5,4.1
			c-0.6,1.6-0.9,3.3-0.9,5.1s0.3,3.5,0.9,5.1c0.6,1.6,1.4,3,2.5,4.1c1,1.2,2.3,2.1,3.9,2.8c1.5,0.7,3.2,1,5.1,1c1.9,0,3.6-0.3,5.1-1
			c1.5-0.7,2.8-1.6,3.9-2.8c1.1-1.2,1.9-2.5,2.5-4.1C521.2,353.3,521.5,351.6,521.5,349.8z"/>
		<path d="M535.5,343.6c0-1.4,0-2.9-0.1-4.4c-0.1-1.5-0.1-3.4-0.2-5.8h4.5v6.1h0.1c0.3-0.9,0.8-1.7,1.4-2.6c0.6-0.8,1.3-1.6,2.2-2.2
			c0.9-0.7,1.9-1.2,3-1.6c1.1-0.4,2.4-0.6,3.9-0.6c1.3,0,2.5,0.1,3.4,0.4l-0.9,4.5c-0.6-0.2-1.5-0.4-2.7-0.4c-1.8,0-3.3,0.3-4.5,1
			c-1.3,0.7-2.3,1.5-3.1,2.6c-0.8,1-1.5,2.2-1.9,3.4c-0.4,1.2-0.6,2.4-0.6,3.5v18.5h-4.6V343.6z"/>
		<path d="M560.2,351.1c0.1,1.6,0.5,3.2,1.2,4.6c0.7,1.4,1.5,2.7,2.6,3.7c1.1,1,2.3,1.9,3.7,2.5s2.9,0.9,4.5,0.9
			c2.5,0,4.6-0.6,6.4-1.7c1.8-1.1,3.2-2.5,4.1-4l3.6,2.9c-2,2.5-4.1,4.2-6.5,5.3c-2.4,1.1-4.9,1.6-7.6,1.6c-2.4,0-4.7-0.4-6.8-1.3
			c-2.1-0.9-3.9-2.1-5.4-3.6c-1.5-1.5-2.7-3.4-3.5-5.5c-0.9-2.1-1.3-4.4-1.3-6.9c0-2.5,0.4-4.8,1.3-6.9c0.8-2.1,2-3.9,3.5-5.5
			c1.5-1.5,3.2-2.7,5.2-3.6c2-0.9,4.2-1.3,6.5-1.3c2.5,0,4.7,0.4,6.6,1.3c2,0.9,3.6,2.1,4.9,3.5c1.3,1.5,2.3,3.2,3,5.2
			c0.7,2,1.1,4.1,1.1,6.3v2.1H560.2z M582.4,347.3c0-3.1-0.9-5.7-2.8-7.6c-1.9-1.9-4.5-2.9-7.8-2.9c-1.5,0-2.9,0.3-4.3,0.9
			c-1.4,0.6-2.6,1.4-3.7,2.3c-1.1,1-1.9,2.1-2.5,3.4c-0.6,1.3-0.9,2.6-0.9,3.9H582.4z"/>
		<path d="M639,366.2c-0.1-0.9-0.2-1.8-0.2-2.6c0-0.9,0-1.7,0-2.6h-0.1c-0.5,0.9-1.2,1.7-2,2.5c-0.8,0.7-1.7,1.4-2.7,1.9
			c-1,0.5-2,1-3.1,1.3c-1.1,0.3-2.2,0.5-3.3,0.5c-4.2,0-7.3-1.1-9.3-3.3c-2-2.2-3-5.4-3-9.5v-20.8h4.6v18.1c0,1.8,0.1,3.4,0.4,4.8
			c0.3,1.4,0.8,2.6,1.4,3.5c0.7,1,1.6,1.7,2.7,2.2c1.1,0.5,2.6,0.7,4.3,0.7c0.2,0,0.9-0.1,2-0.3c1.1-0.2,2.2-0.7,3.4-1.5
			c1.2-0.8,2.3-2.1,3.2-3.8c0.9-1.7,1.4-4,1.4-7v-16.8h4.6V359c0,0.9,0,2,0.1,3.4c0.1,1.4,0.2,2.6,0.2,3.8H639z"/>
		<path d="M658.7,333.4c0.1,0.9,0.2,1.8,0.2,2.6c0,0.9,0,1.7,0,2.6h0.1c0.5-0.9,1.2-1.7,2-2.5c0.8-0.7,1.7-1.4,2.7-1.9
			c1-0.5,2-1,3.1-1.3c1.1-0.3,2.2-0.5,3.3-0.5c4.2,0,7.3,1.1,9.3,3.3c2,2.2,3,5.4,3,9.5v20.8h-4.6V348c0-3.6-0.6-6.4-1.9-8.4
			c-1.3-1.9-3.6-2.9-7-2.9c-0.2,0-0.9,0.1-2,0.3c-1.1,0.2-2.2,0.7-3.4,1.5s-2.3,2.1-3.2,3.8c-0.9,1.7-1.4,4-1.4,7v16.8h-4.6v-25.5
			c0-0.9,0-2-0.1-3.4c-0.1-1.4-0.2-2.6-0.2-3.8H658.7z"/>
		<path d="M696.4,351.1c0.1,1.6,0.5,3.2,1.2,4.6c0.7,1.4,1.5,2.7,2.6,3.7c1.1,1,2.3,1.9,3.7,2.5s2.9,0.9,4.5,0.9
			c2.5,0,4.6-0.6,6.4-1.7c1.8-1.1,3.2-2.5,4.1-4l3.6,2.9c-2,2.5-4.1,4.2-6.5,5.3c-2.4,1.1-4.9,1.6-7.6,1.6c-2.4,0-4.7-0.4-6.8-1.3
			c-2.1-0.9-3.9-2.1-5.4-3.6c-1.5-1.5-2.7-3.4-3.5-5.5c-0.9-2.1-1.3-4.4-1.3-6.9c0-2.5,0.4-4.8,1.3-6.9c0.8-2.1,2-3.9,3.5-5.5
			c1.5-1.5,3.2-2.7,5.2-3.6c2-0.9,4.2-1.3,6.5-1.3c2.5,0,4.7,0.4,6.6,1.3c2,0.9,3.6,2.1,4.9,3.5c1.3,1.5,2.3,3.2,3,5.2s1,4.1,1,6.3
			v2.1H696.4z M718.6,347.3c0-3.1-0.9-5.7-2.8-7.6c-1.9-1.9-4.5-2.9-7.8-2.9c-1.5,0-2.9,0.3-4.3,0.9c-1.4,0.6-2.6,1.4-3.7,2.3
			c-1.1,1-1.9,2.1-2.5,3.4c-0.6,1.3-0.9,2.6-0.9,3.9H718.6z"/>
	</g>
	<g class="st1">
		<path d="M779.1,361.1H779c-1.2,2.1-2.8,3.5-4.9,4.5c-2.1,0.9-4.3,1.4-6.7,1.4c-2.6,0-4.9-0.5-7-1.4c-2-0.9-3.8-2.2-5.2-3.7
			c-1.4-1.6-2.5-3.5-3.3-5.6c-0.7-2.1-1.1-4.5-1.1-6.9s0.4-4.8,1.2-6.9c0.8-2.1,1.9-4,3.3-5.6c1.4-1.6,3.1-2.8,5.1-3.7
			c2-0.9,4.2-1.4,6.6-1.4c1.6,0,3,0.2,4.2,0.5c1.2,0.3,2.3,0.7,3.2,1.3c0.9,0.5,1.7,1.1,2.4,1.6c0.7,0.6,1.2,1.2,1.6,1.7h0.2v-23.6
			h8.4v52.9h-8V361.1z M759.2,349.4c0,1.3,0.2,2.6,0.7,3.8s1.1,2.3,2,3.2c0.9,0.9,1.9,1.7,3.1,2.2c1.2,0.6,2.6,0.8,4.1,0.8
			c1.5,0,2.9-0.3,4.1-0.8c1.2-0.6,2.2-1.3,3.1-2.2c0.9-0.9,1.5-2,2-3.2s0.7-2.5,0.7-3.8c0-1.3-0.2-2.6-0.7-3.8
			c-0.4-1.2-1.1-2.3-2-3.2c-0.9-0.9-1.9-1.7-3.1-2.2c-1.2-0.6-2.6-0.8-4.1-0.8c-1.5,0-2.9,0.3-4.1,0.8c-1.2,0.6-2.3,1.3-3.1,2.2
			c-0.9,0.9-1.5,2-2,3.2C759.5,346.8,759.2,348.1,759.2,349.4z"/>
		<path d="M803.3,352.3c0.3,2.5,1.3,4.5,2.9,5.9c1.7,1.4,3.7,2.1,6.1,2.1c2.1,0,3.9-0.4,5.3-1.3c1.4-0.9,2.7-1.9,3.7-3.3l6,4.5
			c-2,2.4-4.2,4.2-6.6,5.2c-2.4,1-5,1.5-7.6,1.5c-2.5,0-4.9-0.4-7.1-1.3c-2.2-0.8-4.2-2-5.8-3.6s-2.9-3.4-3.9-5.6
			c-1-2.2-1.4-4.6-1.4-7.2s0.5-5.1,1.4-7.2c1-2.2,2.3-4,3.9-5.6s3.6-2.7,5.8-3.6c2.2-0.8,4.6-1.3,7.1-1.3c2.3,0,4.5,0.4,6.4,1.2
			s3.6,2,5,3.5c1.4,1.5,2.4,3.4,3.2,5.7s1.2,4.9,1.2,7.8v2.3H803.3z M820.6,346c0-2.5-0.8-4.4-2.3-5.8c-1.5-1.4-3.6-2.1-6.2-2.1
			c-2.5,0-4.5,0.7-6,2.2c-1.5,1.4-2.4,3.4-2.7,5.8H820.6z M815.6,316.6h9.5l-9.9,10.1h-6.6L815.6,316.6z"/>
		<path d="M859.8,342.7c-1-1-2-1.8-3.1-2.5c-1.1-0.6-2.2-0.9-3.3-0.9c-1.5,0-2.9,0.3-4.1,0.8c-1.2,0.6-2.3,1.3-3.1,2.2s-1.5,2-2,3.2
			c-0.4,1.2-0.7,2.5-0.7,3.8c0,1.3,0.2,2.6,0.7,3.8c0.4,1.2,1.1,2.3,2,3.2s1.9,1.7,3.1,2.2c1.2,0.6,2.6,0.8,4.1,0.8
			c1.3,0,2.5-0.3,3.6-0.8c1.1-0.5,2.1-1.3,2.9-2.3l5.6,6c-0.8,0.8-1.8,1.6-2.9,2.2c-1.1,0.6-2.2,1.1-3.3,1.5
			c-1.1,0.4-2.2,0.6-3.2,0.8c-1,0.2-1.9,0.2-2.7,0.2c-2.5,0-4.9-0.4-7.1-1.3s-4.2-2-5.8-3.6c-1.6-1.5-2.9-3.4-3.9-5.6
			c-1-2.2-1.4-4.6-1.4-7.2s0.5-5.1,1.4-7.2c1-2.2,2.3-4,3.9-5.6c1.6-1.5,3.6-2.7,5.8-3.6s4.6-1.3,7.1-1.3c2.1,0,4.3,0.4,6.5,1.2
			s4.1,2.1,5.7,3.9L859.8,342.7z"/>
		<path d="M870.7,313.3h8.4v52.9h-8.4V313.3z"/>
		<path d="M909.7,361.6h-0.2c-1.2,1.9-2.8,3.3-4.6,4.2c-1.9,0.9-3.9,1.3-6.2,1.3c-1.5,0-3-0.2-4.5-0.6c-1.5-0.4-2.8-1-3.9-1.9
			c-1.1-0.8-2.1-1.9-2.8-3.2c-0.7-1.3-1-2.7-1-4.4c0-1.8,0.3-3.4,1-4.7c0.7-1.3,1.5-2.4,2.6-3.2c1.1-0.9,2.4-1.6,3.8-2.1
			c1.4-0.5,3-0.9,4.5-1.2c1.6-0.3,3.1-0.4,4.7-0.5c1.6-0.1,3.1-0.1,4.5-0.1h2.1v-0.9c0-2.1-0.7-3.7-2.2-4.7c-1.4-1-3.3-1.6-5.5-1.6
			c-1.8,0-3.4,0.3-5,0.9s-2.9,1.5-4,2.6l-4.4-4.4c1.9-1.9,4-3.3,6.5-4.1c2.5-0.8,5.1-1.3,7.7-1.3c2.4,0,4.4,0.3,6,0.8
			c1.6,0.5,3,1.2,4.1,2.1c1.1,0.8,1.9,1.8,2.5,2.9c0.6,1.1,1,2.2,1.3,3.3c0.3,1.1,0.4,2.2,0.5,3.3c0,1,0.1,2,0.1,2.8v19.3h-7.6
			V361.6z M909.2,351.1h-1.8c-1.2,0-2.5,0-3.9,0.1c-1.4,0.1-2.8,0.3-4.1,0.7c-1.3,0.4-2.4,0.9-3.3,1.5c-0.9,0.7-1.3,1.6-1.3,2.8
			c0,0.8,0.2,1.5,0.5,2c0.4,0.5,0.8,1,1.4,1.4c0.6,0.4,1.2,0.6,1.9,0.8c0.7,0.2,1.4,0.2,2.1,0.2c2.9,0,5-0.7,6.4-2.1
			c1.4-1.4,2.1-3.3,2.1-5.6V351.1z"/>
		<path d="M926.3,332.6h8.4v5.3h0.1c0.9-2,2.3-3.5,4-4.5c1.7-1.1,3.7-1.6,5.9-1.6c0.5,0,1,0,1.5,0.1c0.5,0.1,1,0.2,1.5,0.3v8.1
			c-0.7-0.2-1.4-0.3-2.1-0.5c-0.7-0.1-1.3-0.2-2-0.2c-2,0-3.5,0.4-4.7,1.1c-1.2,0.7-2.1,1.6-2.7,2.5s-1,1.9-1.3,2.8
			s-0.3,1.6-0.3,2.1v18h-8.4V332.6z"/>
		<path d="M974.6,361.6h-0.2c-1.2,1.9-2.8,3.3-4.6,4.2c-1.9,0.9-3.9,1.3-6.2,1.3c-1.5,0-3-0.2-4.5-0.6c-1.5-0.4-2.8-1-3.9-1.9
			c-1.1-0.8-2.1-1.9-2.8-3.2c-0.7-1.3-1-2.7-1-4.4c0-1.8,0.3-3.4,1-4.7c0.7-1.3,1.5-2.4,2.6-3.2c1.1-0.9,2.4-1.6,3.8-2.1
			c1.4-0.5,3-0.9,4.5-1.2c1.6-0.3,3.1-0.4,4.7-0.5c1.6-0.1,3.1-0.1,4.5-0.1h2.1v-0.9c0-2.1-0.7-3.7-2.2-4.7c-1.4-1-3.3-1.6-5.5-1.6
			c-1.8,0-3.4,0.3-5,0.9s-2.9,1.5-4,2.6l-4.4-4.4c1.9-1.9,4-3.3,6.5-4.1c2.5-0.8,5.1-1.3,7.7-1.3c2.4,0,4.4,0.3,6,0.8
			c1.6,0.5,3,1.2,4.1,2.1c1.1,0.8,1.9,1.8,2.5,2.9c0.6,1.1,1,2.2,1.3,3.3c0.3,1.1,0.4,2.2,0.5,3.3c0,1,0.1,2,0.1,2.8v19.3h-7.6
			V361.6z M974.1,351.1h-1.8c-1.2,0-2.5,0-3.9,0.1c-1.4,0.1-2.8,0.3-4.1,0.7c-1.3,0.4-2.4,0.9-3.3,1.5c-0.9,0.7-1.3,1.6-1.3,2.8
			c0,0.8,0.2,1.5,0.5,2c0.4,0.5,0.8,1,1.4,1.4c0.6,0.4,1.2,0.6,1.9,0.8c0.7,0.2,1.4,0.2,2.1,0.2c2.9,0,5-0.7,6.4-2.1
			c1.4-1.4,2.1-3.3,2.1-5.6V351.1z"/>
		<path d="M987.2,339.7v-7.1h6.9v-9.7h8.4v9.7h9.2v7.1h-9.2v14.7c0,1.7,0.3,3,0.9,4c0.6,1,1.9,1.5,3.7,1.5c0.7,0,1.6-0.1,2.5-0.2
			c0.9-0.2,1.6-0.4,2.1-0.8v7.1c-0.9,0.4-2,0.7-3.3,0.9c-1.3,0.2-2.4,0.2-3.4,0.2c-2.2,0-4.1-0.2-5.5-0.7c-1.4-0.5-2.5-1.2-3.4-2.2
			c-0.8-1-1.4-2.3-1.7-3.7c-0.3-1.5-0.5-3.2-0.5-5.2v-15.4H987.2z"/>
		<path d="M1017.4,321.2c0-1.4,0.5-2.5,1.5-3.5c1-1,2.3-1.5,3.8-1.5c1.5,0,2.8,0.5,3.9,1.4c1,1,1.6,2.2,1.6,3.6
			c0,1.4-0.5,2.6-1.6,3.6c-1.1,1-2.3,1.4-3.9,1.4c-1.5,0-2.8-0.5-3.8-1.5C1017.9,323.7,1017.4,322.5,1017.4,321.2z M1018.6,332.6
			h8.4v33.6h-8.4V332.6z"/>
		<path d="M1035,349.4c0-2.7,0.5-5.1,1.4-7.2c1-2.2,2.3-4,3.9-5.6c1.6-1.5,3.6-2.7,5.8-3.6s4.6-1.3,7.1-1.3c2.5,0,4.9,0.4,7.1,1.3
			c2.2,0.8,4.2,2,5.8,3.6c1.6,1.5,2.9,3.4,3.9,5.6s1.4,4.6,1.4,7.2s-0.5,5.1-1.4,7.2s-2.3,4-3.9,5.6c-1.6,1.5-3.6,2.7-5.8,3.6
			c-2.2,0.8-4.6,1.3-7.1,1.3c-2.5,0-4.9-0.4-7.1-1.3s-4.2-2-5.8-3.6c-1.6-1.5-2.9-3.4-3.9-5.6C1035.4,354.5,1035,352,1035,349.4z
			 M1043.4,349.4c0,1.3,0.2,2.6,0.7,3.8c0.4,1.2,1.1,2.3,2,3.2s1.9,1.7,3.1,2.2c1.2,0.6,2.6,0.8,4.1,0.8c1.5,0,2.9-0.3,4.1-0.8
			c1.2-0.6,2.3-1.3,3.1-2.2s1.5-2,2-3.2c0.4-1.2,0.7-2.5,0.7-3.8c0-1.3-0.2-2.6-0.7-3.8c-0.4-1.2-1.1-2.3-2-3.2s-1.9-1.7-3.1-2.2
			s-2.6-0.8-4.1-0.8c-1.5,0-2.9,0.3-4.1,0.8c-1.2,0.6-2.3,1.3-3.1,2.2s-1.5,2-2,3.2C1043.6,346.8,1043.4,348.1,1043.4,349.4z"/>
		<path d="M1079.3,332.6h8v5.4h0.1c0.8-1.7,2-3.1,3.6-4.4c1.6-1.2,3.9-1.9,6.6-1.9c2.2,0,4.1,0.4,5.7,1.1c1.6,0.7,2.8,1.7,3.8,2.9
			c1,1.2,1.7,2.6,2.1,4.2c0.4,1.6,0.6,3.2,0.6,5v21.2h-8.4v-17c0-0.9,0-2-0.1-3.1c-0.1-1.1-0.3-2.2-0.7-3.2c-0.4-1-1-1.8-1.9-2.5
			c-0.8-0.7-2-1-3.4-1c-1.4,0-2.6,0.2-3.5,0.7c-1,0.5-1.8,1.1-2.4,1.9c-0.6,0.8-1.1,1.7-1.4,2.7c-0.3,1-0.4,2.1-0.4,3.2v18.3h-8.4
			V332.6z"/>
	</g>
	<g class="st1">
		<path d="M218.9,445.1h-0.1c-1.2,2.1-2.8,3.5-4.9,4.5c-2.1,0.9-4.3,1.4-6.6,1.4c-2.6,0-4.9-0.5-7-1.4c-2-0.9-3.8-2.2-5.2-3.7
			c-1.4-1.6-2.5-3.5-3.3-5.6c-0.7-2.1-1.1-4.5-1.1-6.9s0.4-4.8,1.2-6.9c0.8-2.1,1.9-4,3.3-5.6c1.4-1.6,3.1-2.8,5.1-3.7
			c2-0.9,4.2-1.4,6.6-1.4c1.6,0,3,0.2,4.2,0.5c1.2,0.3,2.3,0.7,3.2,1.3c0.9,0.5,1.7,1.1,2.4,1.6c0.7,0.6,1.2,1.2,1.6,1.7h0.2v-23.6
			h8.4v52.9h-8V445.1z M199,433.4c0,1.3,0.2,2.6,0.7,3.8c0.4,1.2,1.1,2.3,2,3.2c0.9,0.9,1.9,1.7,3.1,2.2c1.2,0.6,2.6,0.8,4.1,0.8
			s2.9-0.3,4.1-0.8c1.2-0.6,2.3-1.3,3.1-2.2c0.9-0.9,1.5-2,2-3.2c0.4-1.2,0.7-2.5,0.7-3.8c0-1.3-0.2-2.6-0.7-3.8
			c-0.4-1.2-1.1-2.3-2-3.2c-0.9-0.9-1.9-1.7-3.1-2.2c-1.2-0.6-2.6-0.8-4.1-0.8s-2.9,0.3-4.1,0.8c-1.2,0.6-2.3,1.3-3.1,2.2
			c-0.9,0.9-1.5,2-2,3.2C199.3,430.8,199,432.1,199,433.4z"/>
		<path d="M240.3,400.6h8.5l-6,18.5h-7.5L240.3,400.6z"/>
		<path d="M256.2,405.2c0-1.4,0.5-2.5,1.5-3.5c1-1,2.3-1.5,3.8-1.5c1.5,0,2.8,0.5,3.9,1.4c1,1,1.6,2.2,1.6,3.6
			c0,1.4-0.5,2.6-1.6,3.6c-1,1-2.3,1.4-3.9,1.4c-1.5,0-2.8-0.5-3.8-1.5C256.7,407.7,256.2,406.5,256.2,405.2z M257.3,416.6h8.4v33.6
			h-8.4V416.6z"/>
		<path d="M275.1,416.6h8v5.2h0.1c0.7-1.6,1.9-3,3.6-4.2c1.7-1.2,3.9-1.9,6.7-1.9c5.3,0,8.8,2.1,10.5,6.2c1.2-2.1,2.7-3.7,4.6-4.7
			c1.8-1,4-1.5,6.5-1.5c2.2,0,4.1,0.4,5.7,1.1c1.5,0.7,2.8,1.8,3.7,3.1c1,1.3,1.6,2.8,2.1,4.6s0.6,3.6,0.6,5.6v20h-8.4v-19
			c0-1-0.1-2-0.3-3c-0.2-1-0.5-1.8-1-2.5c-0.5-0.7-1.1-1.3-1.9-1.7c-0.8-0.4-1.8-0.6-3.1-0.6c-1.3,0-2.4,0.2-3.3,0.7
			c-0.9,0.5-1.7,1.1-2.2,2c-0.6,0.8-1,1.8-1.3,2.8c-0.3,1-0.4,2.1-0.4,3.2v18.2h-8.4v-20c0-2.1-0.4-3.8-1.3-5
			c-0.9-1.2-2.4-1.9-4.4-1.9c-1.4,0-2.6,0.2-3.5,0.7c-1,0.5-1.8,1.1-2.4,1.9c-0.6,0.8-1.1,1.7-1.4,2.7s-0.4,2.1-0.4,3.2v18.3h-8.4
			V416.6z"/>
		<path d="M336.3,416.6h8v5h0.1c1.2-2.1,2.8-3.5,4.9-4.5c2.1-0.9,4.3-1.4,6.7-1.4c2.6,0,4.9,0.5,6.9,1.4c2.1,0.9,3.8,2.2,5.2,3.7
			c1.4,1.6,2.5,3.5,3.3,5.6c0.7,2.1,1.1,4.5,1.1,6.9s-0.4,4.8-1.2,6.9c-0.8,2.1-1.9,4-3.3,5.6c-1.4,1.6-3.1,2.8-5.1,3.7
			c-2,0.9-4.2,1.4-6.6,1.4c-1.6,0-3-0.2-4.2-0.5c-1.2-0.3-2.3-0.7-3.2-1.3c-0.9-0.5-1.7-1.1-2.4-1.6c-0.7-0.6-1.2-1.2-1.6-1.7h-0.2
			v20.2h-8.4V416.6z M364.2,433.4c0-1.3-0.2-2.6-0.7-3.8c-0.4-1.2-1.1-2.3-2-3.2c-0.9-0.9-1.9-1.7-3.1-2.2c-1.2-0.6-2.6-0.8-4.1-0.8
			s-2.9,0.3-4.1,0.8c-1.2,0.6-2.3,1.3-3.1,2.2c-0.9,0.9-1.5,2-2,3.2c-0.4,1.2-0.7,2.5-0.7,3.8c0,1.3,0.2,2.6,0.7,3.8
			c0.4,1.2,1.1,2.3,2,3.2c0.9,0.9,1.9,1.7,3.1,2.2c1.2,0.6,2.6,0.8,4.1,0.8s2.9-0.3,4.1-0.8c1.2-0.6,2.3-1.3,3.1-2.2
			c0.9-0.9,1.5-2,2-3.2C363.9,435.9,364.2,434.7,364.2,433.4z"/>
		<path d="M378.7,433.4c0-2.7,0.5-5.1,1.4-7.2c1-2.2,2.3-4,3.9-5.6c1.6-1.5,3.6-2.7,5.8-3.6c2.2-0.8,4.6-1.3,7.1-1.3
			s4.9,0.4,7.1,1.3c2.2,0.8,4.2,2,5.8,3.6c1.6,1.5,2.9,3.4,3.9,5.6c1,2.2,1.4,4.6,1.4,7.2s-0.5,5.1-1.4,7.2c-1,2.2-2.3,4-3.9,5.6
			c-1.6,1.5-3.6,2.7-5.8,3.6c-2.2,0.8-4.6,1.3-7.1,1.3s-4.9-0.4-7.1-1.3c-2.2-0.8-4.2-2-5.8-3.6c-1.6-1.5-2.9-3.4-3.9-5.6
			C379.2,438.5,378.7,436,378.7,433.4z M401.8,410.7l-4.8-6.3l-4.8,6.3h-7.8l8.1-10.1h9.4l8,10.1H401.8z M387.1,433.4
			c0,1.3,0.2,2.6,0.7,3.8c0.4,1.2,1.1,2.3,2,3.2c0.9,0.9,1.9,1.7,3.1,2.2c1.2,0.6,2.6,0.8,4.1,0.8s2.9-0.3,4.1-0.8
			c1.2-0.6,2.3-1.3,3.1-2.2c0.9-0.9,1.5-2,2-3.2c0.4-1.2,0.7-2.5,0.7-3.8c0-1.3-0.2-2.6-0.7-3.8c-0.4-1.2-1.1-2.3-2-3.2
			c-0.9-0.9-1.9-1.7-3.1-2.2c-1.2-0.6-2.6-0.8-4.1-0.8s-2.9,0.3-4.1,0.8c-1.2,0.6-2.3,1.3-3.1,2.2c-0.9,0.9-1.5,2-2,3.2
			C387.3,430.8,387.1,432.1,387.1,433.4z"/>
		<path d="M419.2,423.7v-7.1h6.9v-9.7h8.4v9.7h9.2v7.1h-9.2v14.7c0,1.7,0.3,3,0.9,4c0.6,1,1.9,1.5,3.7,1.5c0.7,0,1.6-0.1,2.5-0.2
			c0.9-0.2,1.6-0.4,2.1-0.8v7.1c-0.9,0.4-2,0.7-3.3,0.9c-1.3,0.2-2.4,0.2-3.4,0.2c-2.2,0-4.1-0.2-5.5-0.7c-1.4-0.5-2.5-1.2-3.4-2.2
			c-0.8-1-1.4-2.3-1.7-3.7c-0.3-1.5-0.5-3.2-0.5-5.2v-15.4H419.2z"/>
		<path d="M468.3,425.9c-1.6-2.3-3.8-3.4-6.6-3.4c-1.1,0-2.2,0.3-3.3,0.8c-1.1,0.6-1.6,1.5-1.6,2.7c0,1,0.4,1.8,1.3,2.2
			c0.9,0.5,2,0.9,3.4,1.2c1.4,0.3,2.8,0.7,4.4,1c1.6,0.3,3,0.9,4.4,1.6c1.4,0.7,2.5,1.7,3.4,3c0.9,1.3,1.3,3,1.3,5.2
			c0,2-0.4,3.7-1.3,5.1c-0.9,1.4-2,2.5-3.4,3.3c-1.4,0.8-2.9,1.4-4.7,1.8c-1.7,0.4-3.5,0.6-5.2,0.6c-2.6,0-5-0.4-7.2-1.1
			c-2.2-0.7-4.2-2.1-5.9-4.1l5.6-5.2c1.1,1.2,2.2,2.2,3.5,3c1.2,0.8,2.7,1.2,4.5,1.2c0.6,0,1.2-0.1,1.9-0.2c0.7-0.1,1.3-0.4,1.8-0.7
			c0.6-0.3,1-0.7,1.4-1.2c0.4-0.5,0.5-1.1,0.5-1.7c0-1.2-0.4-2-1.3-2.6c-0.9-0.6-2-1-3.4-1.4c-1.4-0.4-2.8-0.7-4.4-1
			c-1.6-0.3-3-0.8-4.4-1.5c-1.4-0.7-2.5-1.6-3.4-2.8c-0.9-1.2-1.3-2.9-1.3-5c0-1.9,0.4-3.5,1.2-4.9c0.8-1.4,1.8-2.5,3-3.4
			s2.7-1.5,4.3-2c1.6-0.4,3.3-0.6,5-0.6c2.2,0,4.5,0.4,6.6,1.2c2.2,0.8,4,2.1,5.3,4L468.3,425.9z"/>
	</g>
	<g class="st1">
		<path d="M522.1,430.1v-0.8c0-5.6-2.8-8.5-8.4-8.5c-3.8,0-7.2,1.3-10,3.9l-2.8-3.3c3.1-3.2,7.7-4.8,13.9-4.8c1.6,0,3.1,0.2,4.6,0.7
			c1.5,0.5,2.7,1.2,3.8,2.1c1.1,1,1.9,2.2,2.6,3.6c0.7,1.4,1,3.2,1,5.2v14.6c0,1.3,0.1,2.6,0.2,4c0.1,1.4,0.2,2.5,0.4,3.4h-4.5
			c-0.1-0.8-0.2-1.7-0.3-2.6c-0.1-0.9-0.1-1.8-0.1-2.7h-0.1c-1.4,2.2-3,3.8-4.8,4.7s-4.1,1.4-6.8,1.4c-1.4,0-2.8-0.2-4.2-0.6
			c-1.4-0.4-2.6-1-3.6-1.8c-1-0.8-1.9-1.8-2.5-3c-0.6-1.2-0.9-2.6-0.9-4.2c0-2.7,0.7-4.7,2.1-6.3c1.4-1.5,3.1-2.6,5.2-3.4
			c2.1-0.7,4.3-1.2,6.6-1.4c2.4-0.2,4.5-0.3,6.5-0.3H522.1z M519.7,433.9c-1.2,0-2.6,0.1-4.4,0.2c-1.8,0.1-3.4,0.4-5,0.8
			c-1.6,0.4-3,1.1-4.1,2.1c-1.1,0.9-1.7,2.2-1.7,3.9c0,1.1,0.2,2,0.7,2.8c0.4,0.8,1,1.4,1.8,1.9c0.7,0.5,1.6,0.8,2.5,1
			s1.8,0.3,2.8,0.3c1.7,0,3.1-0.3,4.4-0.8c1.2-0.6,2.3-1.3,3.1-2.3c0.8-1,1.5-2.1,1.9-3.4c0.4-1.3,0.6-2.6,0.6-4.1v-2.4H519.7z
			 M505.1,400.6h6.4l7,10.1h-4.1L505.1,400.6z"/>
		<path d="M557.3,427.6c0-1.4,0-2.9-0.1-4.4c-0.1-1.5-0.1-3.4-0.2-5.8h4.5v6.1h0.1c0.3-0.9,0.8-1.7,1.4-2.6s1.3-1.6,2.2-2.2
			s1.9-1.2,3-1.6c1.1-0.4,2.4-0.6,3.9-0.6c1.3,0,2.5,0.1,3.4,0.4l-0.9,4.5c-0.6-0.2-1.5-0.4-2.7-0.4c-1.8,0-3.3,0.3-4.5,1
			c-1.3,0.7-2.3,1.5-3.1,2.6c-0.8,1-1.5,2.2-1.9,3.4c-0.4,1.2-0.6,2.4-0.6,3.5v18.5h-4.6V427.6z"/>
		<path d="M582,435.1c0.1,1.6,0.5,3.2,1.2,4.6c0.7,1.4,1.5,2.7,2.6,3.7c1.1,1,2.3,1.9,3.7,2.5c1.4,0.6,2.9,0.9,4.5,0.9
			c2.5,0,4.6-0.6,6.4-1.7c1.8-1.1,3.2-2.5,4.1-4l3.6,2.9c-2,2.5-4.1,4.2-6.5,5.3c-2.4,1.1-4.9,1.6-7.6,1.6c-2.4,0-4.7-0.4-6.8-1.3
			c-2.1-0.9-3.9-2.1-5.4-3.6c-1.5-1.5-2.7-3.4-3.5-5.5c-0.9-2.1-1.3-4.4-1.3-6.9c0-2.5,0.4-4.8,1.3-6.9c0.8-2.1,2-3.9,3.5-5.5
			c1.5-1.5,3.2-2.7,5.2-3.6c2-0.9,4.2-1.3,6.5-1.3c2.5,0,4.7,0.4,6.7,1.3s3.6,2.1,4.9,3.5c1.3,1.5,2.3,3.2,3,5.2
			c0.7,2,1.1,4.1,1.1,6.3v2.1H582z M604.3,431.3c0-3.1-0.9-5.7-2.8-7.6c-1.9-1.9-4.5-2.9-7.8-2.9c-1.5,0-2.9,0.3-4.3,0.9
			c-1.4,0.6-2.6,1.4-3.7,2.3c-1,1-1.9,2.1-2.5,3.4c-0.6,1.3-0.9,2.6-0.9,3.9H604.3z"/>
		<path d="M617.7,424.7c0-1.2,0-2.4-0.1-3.6c-0.1-1.2-0.2-2.4-0.2-3.6h5v5h0.1c1.1-1.9,2.7-3.4,4.7-4.3c2-1,4-1.5,5.9-1.5
			c0.9,0,1.8,0.1,2.8,0.3c1,0.2,2,0.5,2.9,1c0.9,0.5,1.8,1.2,2.6,2.1c0.8,0.9,1.5,2,2.1,3.4c0.9-2.1,2.4-3.8,4.4-5
			c2-1.2,4.1-1.8,6.3-1.8c4.2,0,7.3,1.1,9.3,3.3c2,2.2,3,5.4,3,9.5v20.8H662v-19.1c0-3.3-0.6-5.9-1.8-7.6c-1.2-1.8-3.3-2.7-6.5-2.7
			c-1.7,0-3.2,0.3-4.3,1c-1.2,0.7-2.1,1.6-2.8,2.7c-0.7,1.1-1.2,2.4-1.6,3.8c-0.3,1.4-0.5,2.9-0.5,4.4v17.4h-4.6v-19.1
			c0-3.3-0.6-5.9-1.8-7.6c-1.2-1.8-3.3-2.7-6.5-2.7c-0.3,0-0.9,0.1-1.9,0.3c-1,0.2-2,0.7-3.1,1.5c-1.1,0.8-2,2.1-2.9,3.8
			c-0.9,1.7-1.3,4-1.3,7v16.8h-4.6V424.7z"/>
		<path d="M677.4,417.4h4.6v5.5h0.1c0.7-1.1,1.6-2.1,2.7-2.9c1-0.8,2.1-1.4,3.2-2c1.1-0.5,2.3-0.9,3.5-1.1c1.2-0.2,2.3-0.3,3.4-0.3
			c2.6,0,4.9,0.4,7,1.3c2.1,0.9,4,2.1,5.5,3.6s2.7,3.4,3.6,5.5c0.9,2.1,1.3,4.4,1.3,6.9c0,2.5-0.4,4.8-1.3,6.9
			c-0.9,2.1-2.1,3.9-3.6,5.5s-3.4,2.7-5.5,3.6c-2.1,0.9-4.5,1.3-7,1.3c-1.1,0-2.2-0.1-3.4-0.3c-1.2-0.2-2.3-0.6-3.5-1.1
			c-1.1-0.5-2.2-1.2-3.2-2c-1-0.8-1.9-1.8-2.7-2.9H682v25.6h-4.6V417.4z M707.3,433.8c0-1.8-0.3-3.5-0.9-5.1c-0.6-1.6-1.4-3-2.5-4.1
			c-1.1-1.2-2.4-2.1-3.9-2.8c-1.5-0.7-3.2-1-5.1-1c-1.9,0-3.7,0.3-5.2,1c-1.6,0.7-3,1.6-4.1,2.8c-1.2,1.2-2.1,2.5-2.7,4.1
			c-0.7,1.6-1,3.3-1,5.1s0.3,3.5,1,5.1c0.7,1.6,1.6,3,2.7,4.1c1.2,1.2,2.5,2.1,4.1,2.8c1.6,0.7,3.3,1,5.2,1c1.9,0,3.6-0.3,5.1-1
			c1.5-0.7,2.8-1.6,3.9-2.8c1.1-1.2,1.9-2.5,2.5-4.1C707,437.3,707.3,435.6,707.3,433.8z"/>
		<path d="M725.8,450.2h-4.6v-52.9h4.6V450.2z"/>
		<path d="M743.7,404.8c0,1-0.3,1.8-1,2.4s-1.5,0.9-2.3,0.9s-1.6-0.3-2.3-0.9c-0.7-0.6-1-1.4-1-2.4c0-1,0.4-1.8,1-2.4
			c0.7-0.6,1.5-0.9,2.3-0.9s1.6,0.3,2.3,0.9C743.3,403,743.7,403.8,743.7,404.8z M742.6,450.2H738v-32.8h4.6V450.2z"/>
		<path d="M754.2,427.6c0-1.4,0-2.9-0.1-4.4c-0.1-1.5-0.1-3.4-0.2-5.8h4.5v6.1h0.1c0.3-0.9,0.8-1.7,1.4-2.6c0.6-0.8,1.3-1.6,2.2-2.2
			c0.9-0.7,1.9-1.2,3-1.6c1.1-0.4,2.4-0.6,3.9-0.6c1.3,0,2.5,0.1,3.4,0.4l-0.9,4.5c-0.6-0.2-1.5-0.4-2.7-0.4c-1.8,0-3.3,0.3-4.5,1
			c-1.3,0.7-2.3,1.5-3.2,2.6s-1.5,2.2-1.9,3.4c-0.4,1.2-0.6,2.4-0.6,3.5v18.5h-4.6V427.6z"/>
		<path d="M804.9,446.8c0,1-0.3,1.9-1,2.6c-0.7,0.8-1.6,1.2-2.7,1.2s-2-0.4-2.7-1.2c-0.7-0.8-1-1.6-1-2.6c0-1,0.3-1.9,1-2.6
			c0.7-0.8,1.6-1.2,2.7-1.2s2,0.4,2.7,1.2C804.6,445,804.9,445.8,804.9,446.8z"/>
		<path d="M824.4,446.8c0,1-0.3,1.9-1,2.6c-0.7,0.8-1.6,1.2-2.7,1.2s-2-0.4-2.7-1.2c-0.7-0.8-1-1.6-1-2.6c0-1,0.3-1.9,1-2.6
			c0.7-0.8,1.6-1.2,2.7-1.2s2,0.4,2.7,1.2C824,445,824.4,445.8,824.4,446.8z"/>
		<path d="M843.8,446.8c0,1-0.3,1.9-1,2.6c-0.7,0.8-1.6,1.2-2.7,1.2s-2-0.4-2.7-1.2c-0.7-0.8-1-1.6-1-2.6c0-1,0.3-1.9,1-2.6
			c0.7-0.8,1.6-1.2,2.7-1.2s2,0.4,2.7,1.2C843.5,445,843.8,445.8,843.8,446.8z"/>
		<path d="M900.4,440.9l16.7-40.3h7.7v49.6h-5v-42.8h-0.1l-17.9,42.8h-2.7l-17.9-42.8H881v42.8h-5v-49.6h7.7L900.4,440.9z"/>
		<path d="M957.6,430.1v-0.8c0-5.6-2.8-8.5-8.4-8.5c-3.8,0-7.2,1.3-10,3.9l-2.8-3.3c3.1-3.2,7.7-4.8,13.9-4.8c1.6,0,3.1,0.2,4.6,0.7
			c1.5,0.5,2.7,1.2,3.8,2.1c1.1,1,1.9,2.2,2.6,3.6c0.7,1.4,1,3.2,1,5.2v14.6c0,1.3,0.1,2.6,0.2,4c0.1,1.4,0.2,2.5,0.4,3.4h-4.5
			c-0.1-0.8-0.2-1.7-0.3-2.6s-0.1-1.8-0.1-2.7h-0.1c-1.4,2.2-3,3.8-4.8,4.7c-1.8,1-4.1,1.4-6.8,1.4c-1.4,0-2.8-0.2-4.2-0.6
			c-1.4-0.4-2.6-1-3.6-1.8c-1.1-0.8-1.9-1.8-2.5-3s-0.9-2.6-0.9-4.2c0-2.7,0.7-4.7,2.1-6.3c1.4-1.5,3.1-2.6,5.2-3.4
			c2.1-0.7,4.3-1.2,6.7-1.4c2.4-0.2,4.5-0.3,6.5-0.3H957.6z M955.2,433.9c-1.2,0-2.6,0.1-4.4,0.2c-1.8,0.1-3.4,0.4-5,0.8
			c-1.6,0.4-3,1.1-4.1,2.1c-1.1,0.9-1.7,2.2-1.7,3.9c0,1.1,0.2,2,0.7,2.8c0.4,0.8,1,1.4,1.8,1.9c0.7,0.5,1.6,0.8,2.5,1
			s1.8,0.3,2.8,0.3c1.7,0,3.1-0.3,4.4-0.8c1.2-0.6,2.3-1.3,3.1-2.3c0.8-1,1.5-2.1,1.9-3.4c0.4-1.3,0.6-2.6,0.6-4.1v-2.4H955.2z"/>
		<path d="M979.6,404.8c0,1-0.3,1.8-1,2.4s-1.5,0.9-2.3,0.9c-0.8,0-1.6-0.3-2.3-0.9s-1-1.4-1-2.4c0-1,0.3-1.8,1-2.4
			c0.7-0.6,1.5-0.9,2.3-0.9c0.8,0,1.6,0.3,2.3,0.9C979.3,403,979.6,403.8,979.6,404.8z M978.6,450.2H974v-32.8h4.6V450.2z"/>
		<path d="M1007.1,425.2c-0.7-1.4-1.6-2.4-2.8-3.2c-1.2-0.8-2.6-1.2-4.3-1.2c-0.8,0-1.6,0.1-2.4,0.3c-0.8,0.2-1.6,0.5-2.2,0.9
			c-0.7,0.4-1.2,0.9-1.6,1.5c-0.4,0.6-0.6,1.4-0.6,2.2c0,1.5,0.5,2.7,1.6,3.4c1.1,0.7,2.7,1.3,4.8,1.8l4.7,1.1
			c2.3,0.5,4.2,1.6,5.7,3.1c1.5,1.6,2.3,3.5,2.3,5.8c0,1.8-0.4,3.3-1.1,4.6c-0.7,1.3-1.7,2.3-2.9,3.2c-1.2,0.8-2.6,1.4-4.1,1.8
			s-3.1,0.6-4.7,0.6c-2.5,0-4.9-0.5-7-1.4s-4-2.6-5.6-4.9l4-2.7c0.9,1.5,2.1,2.7,3.5,3.6c1.4,0.9,3.1,1.3,5.1,1.3
			c0.9,0,1.9-0.1,2.8-0.3s1.8-0.5,2.5-1c0.7-0.4,1.3-1,1.8-1.7c0.4-0.7,0.7-1.5,0.7-2.5c0-1.6-0.6-2.8-1.8-3.5
			c-1.2-0.7-2.7-1.3-4.4-1.7l-4.5-1c-0.6-0.1-1.3-0.4-2.3-0.7c-1-0.3-1.9-0.8-2.8-1.5c-0.9-0.7-1.7-1.5-2.3-2.6c-0.7-1-1-2.3-1-3.9
			c0-1.7,0.3-3.1,1-4.4c0.7-1.3,1.6-2.3,2.7-3.1c1.1-0.8,2.4-1.4,3.9-1.8s2.9-0.6,4.5-0.6c2.3,0,4.4,0.4,6.4,1.3s3.5,2.4,4.5,4.5
			L1007.1,425.2z"/>
		<path d="M1072.1,433.8c0,2.5-0.4,4.8-1.3,6.9c-0.9,2.1-2.1,3.9-3.6,5.5s-3.4,2.7-5.5,3.6c-2.1,0.9-4.5,1.3-7,1.3
			c-2.5,0-4.8-0.4-7-1.3c-2.1-0.9-4-2.1-5.5-3.6c-1.5-1.5-2.7-3.4-3.6-5.5c-0.9-2.1-1.3-4.4-1.3-6.9c0-2.5,0.4-4.8,1.3-6.9
			c0.9-2.1,2.1-3.9,3.6-5.5c1.5-1.5,3.4-2.7,5.5-3.6c2.1-0.9,4.4-1.3,7-1.3c2.6,0,4.9,0.4,7,1.3c2.1,0.9,4,2.1,5.5,3.6
			s2.7,3.4,3.6,5.5C1071.7,429,1072.1,431.3,1072.1,433.8z M1067.1,433.8c0-1.8-0.3-3.5-0.9-5.1c-0.6-1.6-1.4-3-2.5-4.1
			c-1.1-1.2-2.4-2.1-3.9-2.8c-1.5-0.7-3.2-1-5.1-1c-1.9,0-3.6,0.3-5.1,1c-1.5,0.7-2.8,1.6-3.8,2.8c-1.1,1.2-1.9,2.5-2.5,4.1
			c-0.6,1.6-0.9,3.3-0.9,5.1s0.3,3.5,0.9,5.1c0.6,1.6,1.4,3,2.5,4.1c1,1.2,2.3,2.1,3.8,2.8c1.5,0.7,3.2,1,5.1,1c1.9,0,3.6-0.3,5.1-1
			c1.5-0.7,2.8-1.6,3.9-2.8c1.1-1.2,1.9-2.5,2.5-4.1C1066.8,437.3,1067.1,435.6,1067.1,433.8z"/>
		<path d="M1104.2,450.2c-0.1-0.9-0.2-1.8-0.2-2.6c0-0.9,0-1.7,0-2.6h-0.1c-0.5,0.9-1.2,1.7-2,2.5c-0.8,0.7-1.7,1.4-2.7,1.9
			c-1,0.5-2,1-3.1,1.3c-1.1,0.3-2.2,0.5-3.3,0.5c-4.2,0-7.3-1.1-9.3-3.3c-2-2.2-3-5.4-3-9.5v-20.8h4.6v18.1c0,1.8,0.1,3.4,0.4,4.8
			c0.3,1.4,0.8,2.6,1.4,3.5c0.7,1,1.6,1.7,2.7,2.2c1.1,0.5,2.6,0.7,4.3,0.7c0.2,0,0.9-0.1,2-0.3c1.1-0.2,2.2-0.7,3.4-1.5
			c1.2-0.8,2.3-2.1,3.2-3.8c0.9-1.7,1.4-4,1.4-7v-16.8h4.6V443c0,0.9,0,2,0.1,3.4s0.2,2.6,0.2,3.8H1104.2z M1085.8,400.6h6.4l7,10.1
			h-4.1L1085.8,400.6z"/>
	</g>
	<g class="st1">
		<path d="M195.8,519.1c0.1,1.6,0.5,3.2,1.2,4.6c0.7,1.4,1.5,2.7,2.6,3.7c1.1,1,2.3,1.9,3.7,2.5s2.9,0.9,4.5,0.9
			c2.5,0,4.6-0.6,6.4-1.7c1.8-1.1,3.2-2.5,4.1-4l3.6,2.9c-2,2.5-4.1,4.2-6.5,5.3c-2.4,1.1-4.9,1.6-7.6,1.6c-2.4,0-4.7-0.4-6.8-1.3
			c-2.1-0.9-3.9-2.1-5.4-3.6c-1.5-1.5-2.7-3.4-3.5-5.5c-0.9-2.1-1.3-4.4-1.3-6.9c0-2.5,0.4-4.8,1.3-6.9c0.8-2.1,2-3.9,3.5-5.5
			c1.5-1.5,3.2-2.7,5.2-3.6c2-0.9,4.2-1.3,6.5-1.3c2.5,0,4.7,0.4,6.6,1.3c2,0.9,3.6,2.1,4.9,3.5c1.3,1.5,2.3,3.2,3,5.2
			c0.7,2,1.1,4.1,1.1,6.3v2.1H195.8z M218.1,515.3c0-3.1-0.9-5.7-2.8-7.6c-1.9-1.9-4.5-2.9-7.8-2.9c-1.5,0-2.9,0.3-4.3,0.9
			c-1.4,0.6-2.6,1.4-3.7,2.3c-1.1,1-1.9,2.1-2.5,3.4c-0.6,1.3-0.9,2.6-0.9,3.9H218.1z"/>
		<path d="M248.9,509.2c-0.7-1.4-1.6-2.4-2.8-3.2c-1.2-0.8-2.6-1.2-4.3-1.2c-0.8,0-1.6,0.1-2.4,0.3c-0.8,0.2-1.6,0.5-2.2,0.9
			c-0.7,0.4-1.2,0.9-1.6,1.5c-0.4,0.6-0.6,1.4-0.6,2.2c0,1.5,0.5,2.7,1.6,3.4c1.1,0.7,2.7,1.3,4.8,1.8l4.7,1.1
			c2.3,0.5,4.2,1.6,5.7,3.1c1.5,1.6,2.3,3.5,2.3,5.8c0,1.8-0.4,3.3-1.1,4.6c-0.7,1.3-1.7,2.3-2.9,3.2c-1.2,0.8-2.6,1.4-4.1,1.8
			s-3.1,0.6-4.7,0.6c-2.5,0-4.9-0.5-7-1.4s-4-2.6-5.6-4.9l4-2.7c0.9,1.5,2.1,2.7,3.5,3.6c1.4,0.9,3.1,1.3,5.1,1.3
			c0.9,0,1.9-0.1,2.8-0.3c0.9-0.2,1.8-0.5,2.5-1c0.7-0.4,1.3-1,1.8-1.7c0.4-0.7,0.7-1.5,0.7-2.5c0-1.6-0.6-2.8-1.8-3.5
			c-1.2-0.7-2.7-1.3-4.4-1.7l-4.5-1c-0.6-0.1-1.3-0.4-2.3-0.7c-1-0.3-1.9-0.8-2.8-1.5c-0.9-0.7-1.7-1.5-2.3-2.6c-0.7-1-1-2.3-1-3.9
			c0-1.7,0.3-3.1,1-4.4c0.7-1.3,1.6-2.3,2.7-3.1c1.1-0.8,2.4-1.4,3.9-1.8c1.4-0.4,2.9-0.6,4.5-0.6c2.3,0,4.4,0.4,6.4,1.3
			s3.5,2.4,4.5,4.5L248.9,509.2z"/>
		<path d="M278.3,505.6h-9.5v19.3c0,1.2,0.1,2.2,0.4,3c0.2,0.8,0.6,1.4,1,1.8c0.4,0.4,0.9,0.7,1.5,0.9c0.6,0.2,1.2,0.2,1.9,0.2
			c0.8,0,1.6-0.1,2.5-0.3c0.8-0.2,1.6-0.5,2.3-0.9l0.2,4.3c-1.7,0.8-3.8,1.2-6.2,1.2c-0.9,0-1.8-0.1-2.8-0.3c-1-0.2-1.8-0.7-2.6-1.3
			c-0.8-0.7-1.4-1.5-2-2.7c-0.5-1.1-0.8-2.6-0.8-4.4v-20.6h-6.9v-4.2h6.9v-9.2h4.6v9.2h9.5V505.6z"/>
		<path d="M300.2,519.7h-18v-4.6h18V519.7z"/>
		<path d="M331.8,509.1c-0.8-1.2-1.9-2.2-3.3-3.1c-1.4-0.8-3-1.3-4.9-1.3c-1.9,0-3.6,0.3-5.1,0.9c-1.5,0.7-2.8,1.6-3.9,2.7
			c-1.1,1.2-1.9,2.6-2.4,4.2c-0.6,1.6-0.8,3.3-0.8,5.2c0,1.9,0.3,3.6,0.8,5.2c0.6,1.6,1.4,3,2.4,4.2c1.1,1.2,2.4,2.1,3.9,2.7
			c1.5,0.7,3.2,1,5.1,0.9c1.8,0,3.4-0.4,4.9-1.3c1.4-0.8,2.5-1.9,3.3-3.1l3.8,2.9c-1.6,1.9-3.5,3.3-5.5,4.2
			c-2.1,0.9-4.2,1.4-6.4,1.4c-2.7,0-5.1-0.4-7.2-1.2c-2.1-0.9-4-2.1-5.5-3.6c-1.5-1.5-2.7-3.4-3.5-5.5c-0.8-2.1-1.2-4.4-1.2-6.9
			c0-2.5,0.4-4.8,1.2-6.9c0.8-2.1,1.9-4,3.5-5.5c1.5-1.5,3.3-2.7,5.5-3.6c2.1-0.9,4.6-1.3,7.2-1.2c2.2,0,4.4,0.5,6.4,1.4
			c2.1,0.9,3.9,2.3,5.5,4.2L331.8,509.1z"/>
		<path d="M344.8,519.1c0.1,1.6,0.5,3.2,1.2,4.6c0.7,1.4,1.5,2.7,2.6,3.7c1.1,1,2.3,1.9,3.7,2.5s2.9,0.9,4.5,0.9
			c2.5,0,4.6-0.6,6.4-1.7c1.8-1.1,3.2-2.5,4.1-4l3.6,2.9c-2,2.5-4.1,4.2-6.5,5.3c-2.4,1.1-4.9,1.6-7.6,1.6c-2.4,0-4.7-0.4-6.8-1.3
			c-2.1-0.9-3.9-2.1-5.4-3.6c-1.5-1.5-2.7-3.4-3.5-5.5c-0.9-2.1-1.3-4.4-1.3-6.9c0-2.5,0.4-4.8,1.3-6.9c0.8-2.1,2-3.9,3.5-5.5
			c1.5-1.5,3.2-2.7,5.2-3.6c2-0.9,4.2-1.3,6.5-1.3c2.5,0,4.7,0.4,6.6,1.3c2,0.9,3.6,2.1,4.9,3.5c1.3,1.5,2.3,3.2,3,5.2
			c0.7,2,1.1,4.1,1.1,6.3v2.1H344.8z M367.1,515.3c0-3.1-0.9-5.7-2.8-7.6c-1.9-1.9-4.5-2.9-7.8-2.9c-1.5,0-2.9,0.3-4.3,0.9
			c-1.4,0.6-2.6,1.4-3.7,2.3c-1.1,1-1.9,2.1-2.5,3.4c-0.6,1.3-0.9,2.6-0.9,3.9H367.1z"/>
		<path d="M432.7,554.3h-4.6v-25.6h-0.1c-0.7,1.1-1.6,2.1-2.7,2.9c-1,0.8-2.1,1.4-3.2,2c-1.1,0.5-2.3,0.9-3.5,1.1
			c-1.2,0.2-2.3,0.3-3.4,0.3c-2.6,0-4.9-0.4-7-1.3c-2.1-0.9-4-2.1-5.5-3.6s-2.7-3.4-3.6-5.5c-0.9-2.1-1.3-4.4-1.3-6.9
			c0-2.5,0.4-4.8,1.3-6.9c0.9-2.1,2.1-3.9,3.6-5.5s3.4-2.7,5.5-3.6c2.1-0.9,4.5-1.3,7-1.3c1.1,0,2.2,0.1,3.4,0.3
			c1.2,0.2,2.3,0.6,3.5,1.1c1.1,0.5,2.2,1.2,3.2,2c1,0.8,1.9,1.8,2.7,2.9h0.1v-5.5h4.6V554.3z M402.8,517.8c0,1.8,0.3,3.5,0.9,5.1
			c0.6,1.6,1.4,3,2.5,4.1c1.1,1.2,2.4,2.1,3.9,2.8c1.5,0.7,3.2,1,5.1,1c1.9,0,3.6-0.3,5.2-1c1.6-0.7,3-1.6,4.2-2.8
			c1.2-1.2,2.1-2.5,2.7-4.1c0.7-1.6,1-3.3,1-5.1s-0.3-3.5-1-5.1c-0.7-1.6-1.6-3-2.7-4.1c-1.2-1.2-2.6-2.1-4.2-2.8
			c-1.6-0.7-3.3-1-5.2-1c-1.9,0-3.6,0.3-5.1,1c-1.5,0.7-2.8,1.6-3.9,2.8c-1.1,1.2-1.9,2.5-2.5,4.1
			C403.1,514.3,402.8,516,402.8,517.8z"/>
		<path d="M466.4,534.2c-0.1-0.9-0.2-1.8-0.2-2.6c0-0.9,0-1.7,0-2.6h-0.1c-0.5,0.9-1.2,1.7-2,2.5c-0.8,0.7-1.7,1.4-2.7,1.9
			c-1,0.5-2,1-3.1,1.3c-1.1,0.3-2.2,0.5-3.3,0.5c-4.2,0-7.3-1.1-9.3-3.3c-2-2.2-3-5.4-3-9.5v-20.8h4.6v18.1c0,1.8,0.1,3.4,0.4,4.8
			c0.3,1.4,0.8,2.6,1.4,3.5c0.7,1,1.6,1.7,2.7,2.2c1.1,0.5,2.6,0.7,4.3,0.7c0.2,0,0.9-0.1,2-0.3c1.1-0.2,2.2-0.7,3.4-1.5
			c1.2-0.8,2.3-2.1,3.2-3.8c0.9-1.7,1.4-4,1.4-7v-16.8h4.6V527c0,0.9,0,2,0.1,3.4c0.1,1.4,0.2,2.6,0.2,3.8H466.4z"/>
		<path d="M485.2,501.1h-4.6l4.7-16.4h5.7L485.2,501.1z"/>
		<path d="M506.6,488.8c0,1-0.3,1.8-1,2.4s-1.5,0.9-2.3,0.9c-0.8,0-1.6-0.3-2.3-0.9c-0.7-0.6-1-1.4-1-2.4c0-1,0.4-1.8,1-2.4
			c0.7-0.6,1.5-0.9,2.3-0.9c0.8,0,1.6,0.3,2.3,0.9C506.3,487,506.6,487.8,506.6,488.8z M505.6,534.2h-4.6v-32.8h4.6V534.2z"/>
		<path d="M522.4,534.2h-4.6v-52.9h4.6V534.2z"/>
		<path d="M567.4,534.2h-5.2l-13.3-32.8h5.5l10.5,27.6h0.1l10.4-27.6h5.2L567.4,534.2z"/>
		<path d="M607.7,514.1v-0.8c0-5.6-2.8-8.5-8.4-8.5c-3.8,0-7.2,1.3-10,3.9l-2.8-3.3c3.1-3.2,7.7-4.8,13.9-4.8c1.6,0,3.1,0.2,4.6,0.7
			c1.5,0.5,2.7,1.2,3.8,2.1c1.1,1,1.9,2.2,2.6,3.6c0.7,1.4,1,3.2,1,5.2v14.6c0,1.3,0.1,2.6,0.2,4c0.1,1.4,0.2,2.5,0.4,3.4h-4.5
			c-0.1-0.8-0.2-1.7-0.3-2.6c-0.1-0.9-0.1-1.8-0.1-2.7h-0.1c-1.4,2.2-3,3.8-4.8,4.7c-1.8,1-4.1,1.4-6.8,1.4c-1.4,0-2.8-0.2-4.2-0.6
			c-1.4-0.4-2.6-1-3.6-1.8c-1.1-0.8-1.9-1.8-2.5-3c-0.6-1.2-0.9-2.6-0.9-4.2c0-2.7,0.7-4.7,2.1-6.3c1.4-1.5,3.1-2.6,5.2-3.4
			c2.1-0.7,4.3-1.2,6.6-1.4c2.4-0.2,4.5-0.3,6.5-0.3H607.7z M605.3,517.9c-1.2,0-2.6,0.1-4.4,0.2c-1.8,0.1-3.4,0.4-5,0.8
			c-1.6,0.4-3,1.1-4.1,2.1c-1.1,0.9-1.7,2.2-1.7,3.9c0,1.1,0.2,2,0.7,2.8c0.4,0.8,1,1.4,1.8,1.9c0.7,0.5,1.6,0.8,2.5,1
			s1.8,0.3,2.8,0.3c1.7,0,3.1-0.3,4.4-0.8c1.2-0.6,2.3-1.3,3.1-2.3c0.8-1,1.5-2.1,1.9-3.4c0.4-1.3,0.6-2.6,0.6-4.1v-2.4H605.3z"/>
		<path d="M666.4,509.1c-0.8-1.2-1.9-2.2-3.3-3.1c-1.4-0.8-3-1.3-4.9-1.3c-1.9,0-3.6,0.3-5.1,0.9c-1.5,0.7-2.8,1.6-3.9,2.7
			c-1.1,1.2-1.9,2.6-2.4,4.2c-0.6,1.6-0.8,3.3-0.8,5.2c0,1.9,0.3,3.6,0.8,5.2c0.6,1.6,1.4,3,2.4,4.2c1.1,1.2,2.4,2.1,3.9,2.7
			c1.5,0.7,3.2,1,5.1,0.9c1.8,0,3.4-0.4,4.9-1.3c1.4-0.8,2.5-1.9,3.3-3.1l3.8,2.9c-1.6,1.9-3.5,3.3-5.5,4.2
			c-2.1,0.9-4.2,1.4-6.4,1.4c-2.7,0-5.1-0.4-7.2-1.2c-2.1-0.9-4-2.1-5.5-3.6c-1.5-1.5-2.7-3.4-3.5-5.5c-0.8-2.1-1.2-4.4-1.2-6.9
			c0-2.5,0.4-4.8,1.2-6.9c0.8-2.1,1.9-4,3.5-5.5c1.5-1.5,3.3-2.7,5.5-3.6c2.1-0.9,4.6-1.3,7.2-1.2c2.2,0,4.4,0.5,6.4,1.4
			c2.1,0.9,3.9,2.3,5.5,4.2L666.4,509.1z"/>
		<path d="M679.4,519.1c0.1,1.6,0.5,3.2,1.2,4.6c0.7,1.4,1.5,2.7,2.6,3.7c1.1,1,2.3,1.9,3.7,2.5s2.9,0.9,4.5,0.9
			c2.5,0,4.6-0.6,6.4-1.7c1.8-1.1,3.2-2.5,4.1-4l3.6,2.9c-2,2.5-4.1,4.2-6.5,5.3c-2.4,1.1-4.9,1.6-7.6,1.6c-2.4,0-4.7-0.4-6.8-1.3
			c-2.1-0.9-3.9-2.1-5.4-3.6c-1.5-1.5-2.7-3.4-3.5-5.5c-0.9-2.1-1.3-4.4-1.3-6.9c0-2.5,0.4-4.8,1.3-6.9c0.8-2.1,2-3.9,3.5-5.5
			c1.5-1.5,3.2-2.7,5.2-3.6c2-0.9,4.2-1.3,6.5-1.3c2.5,0,4.7,0.4,6.6,1.3c2,0.9,3.6,2.1,4.9,3.5c1.3,1.5,2.3,3.2,3,5.2
			c0.7,2,1.1,4.1,1.1,6.3v2.1H679.4z M701.7,515.3c0-3.1-0.9-5.7-2.8-7.6c-1.9-1.9-4.5-2.9-7.8-2.9c-1.5,0-2.9,0.3-4.3,0.9
			c-1.4,0.6-2.6,1.4-3.7,2.3c-1.1,1-1.9,2.1-2.5,3.4c-0.6,1.3-0.9,2.6-0.9,3.9H701.7z"/>
		<path d="M732.1,505.6h-9.5v19.3c0,1.2,0.1,2.2,0.4,3c0.2,0.8,0.6,1.4,1,1.8c0.4,0.4,0.9,0.7,1.5,0.9c0.6,0.2,1.2,0.2,1.9,0.2
			c0.8,0,1.6-0.1,2.5-0.3c0.8-0.2,1.6-0.5,2.3-0.9l0.2,4.3c-1.7,0.8-3.8,1.2-6.2,1.2c-0.9,0-1.8-0.1-2.8-0.3c-1-0.2-1.8-0.7-2.6-1.3
			c-0.8-0.7-1.4-1.5-2-2.7c-0.5-1.1-0.8-2.6-0.8-4.4v-20.6h-6.9v-4.2h6.9v-9.2h4.6v9.2h9.5V505.6z"/>
		<path d="M778.8,514.1v-0.8c0-5.6-2.8-8.5-8.4-8.5c-3.8,0-7.2,1.3-10,3.9l-2.8-3.3c3.1-3.2,7.7-4.8,13.9-4.8c1.6,0,3.1,0.2,4.6,0.7
			c1.5,0.5,2.7,1.2,3.8,2.1c1.1,1,1.9,2.2,2.6,3.6c0.7,1.4,1,3.2,1,5.2v14.6c0,1.3,0.1,2.6,0.2,4c0.1,1.4,0.2,2.5,0.4,3.4h-4.5
			c-0.1-0.8-0.2-1.7-0.3-2.6c-0.1-0.9-0.1-1.8-0.1-2.7H779c-1.4,2.2-3,3.8-4.8,4.7s-4.1,1.4-6.8,1.4c-1.4,0-2.8-0.2-4.2-0.6
			c-1.4-0.4-2.6-1-3.6-1.8c-1-0.8-1.9-1.8-2.5-3c-0.6-1.2-0.9-2.6-0.9-4.2c0-2.7,0.7-4.7,2.1-6.3c1.4-1.5,3.1-2.6,5.2-3.4
			c2.1-0.7,4.3-1.2,6.6-1.4s4.5-0.3,6.5-0.3H778.8z M776.5,517.9c-1.2,0-2.6,0.1-4.4,0.2c-1.8,0.1-3.4,0.4-5,0.8
			c-1.6,0.4-3,1.1-4.1,2.1c-1.1,0.9-1.7,2.2-1.7,3.9c0,1.1,0.2,2,0.7,2.8c0.4,0.8,1,1.4,1.8,1.9c0.7,0.5,1.6,0.8,2.5,1
			s1.8,0.3,2.8,0.3c1.7,0,3.1-0.3,4.4-0.8c1.2-0.6,2.3-1.3,3.1-2.3c0.8-1,1.5-2.1,1.9-3.4c0.4-1.3,0.6-2.6,0.6-4.1v-2.4H776.5z"/>
		<path d="M794.7,511.6c0-1.4,0-2.9-0.1-4.4c-0.1-1.5-0.1-3.4-0.2-5.8h4.5v6.1h0.1c0.3-0.9,0.8-1.7,1.4-2.6s1.3-1.6,2.2-2.2
			s1.9-1.2,3-1.6c1.1-0.4,2.4-0.6,3.9-0.6c1.3,0,2.5,0.1,3.4,0.4l-0.9,4.5c-0.6-0.2-1.5-0.4-2.7-0.4c-1.8,0-3.3,0.3-4.5,1
			c-1.3,0.7-2.3,1.5-3.1,2.6c-0.8,1-1.5,2.2-1.9,3.4c-0.4,1.2-0.6,2.4-0.6,3.5v18.5h-4.6V511.6z"/>
		<path d="M818.7,540.8c1.4,1.8,3.1,3.3,5.3,4.4c2.2,1.1,4.6,1.6,7.2,1.6c2.3,0,4.3-0.3,6-1c1.6-0.7,3-1.6,4-2.8
			c1-1.2,1.7-2.5,2.2-4.1c0.4-1.6,0.7-3.2,0.7-5V528h-0.1c-1.5,2.2-3.3,3.8-5.5,4.8c-2.1,0.9-4.4,1.4-6.8,1.4s-4.6-0.4-6.7-1.3
			c-2.1-0.8-3.9-2-5.4-3.5c-1.5-1.5-2.8-3.2-3.6-5.3c-0.9-2.1-1.3-4.3-1.3-6.7s0.4-4.6,1.3-6.6s2-3.9,3.5-5.4
			c1.5-1.5,3.2-2.7,5.2-3.6c2-0.9,4.3-1.3,6.7-1.3c1,0,2,0.1,3.1,0.3c1.1,0.2,2.2,0.5,3.3,1c1.1,0.5,2.2,1.1,3.3,1.9
			c1.1,0.8,2.1,1.9,3,3.1h0.1v-5.5h4.6v32.5c0,1.8-0.2,3.7-0.7,5.7c-0.4,2-1.3,3.9-2.6,5.5c-1.3,1.7-3.1,3.1-5.4,4.2
			c-2.3,1.1-5.3,1.7-9,1.7c-3.3,0-6.2-0.5-8.8-1.6c-2.6-1.1-4.9-2.7-7-5L818.7,540.8z M819.5,517.4c0,1.7,0.3,3.3,0.9,4.9
			c0.6,1.5,1.5,2.8,2.6,4c1.1,1.1,2.4,2.1,3.8,2.7c1.5,0.7,3.1,1,4.8,1c1.7,0,3.3-0.3,4.8-0.9c1.5-0.6,2.9-1.5,4-2.6
			c1.2-1.1,2.1-2.4,2.7-4c0.6-1.5,0.9-3.3,0.9-5.2c0-1.7-0.3-3.3-0.8-4.9c-0.6-1.5-1.4-2.8-2.4-4c-1.1-1.1-2.4-2.1-3.9-2.7
			c-1.5-0.7-3.3-1-5.2-1c-1.7,0-3.3,0.3-4.8,1c-1.5,0.7-2.8,1.6-3.8,2.7c-1.1,1.1-2,2.5-2.6,4C819.8,514,819.5,515.7,819.5,517.4z"
			/>
		<path d="M862.1,519.1c0.1,1.6,0.5,3.2,1.2,4.6c0.7,1.4,1.5,2.7,2.6,3.7c1.1,1,2.3,1.9,3.7,2.5c1.4,0.6,2.9,0.9,4.5,0.9
			c2.5,0,4.6-0.6,6.4-1.7c1.8-1.1,3.2-2.5,4.1-4l3.6,2.9c-2,2.5-4.1,4.2-6.5,5.3c-2.4,1.1-4.9,1.6-7.6,1.6c-2.4,0-4.7-0.4-6.8-1.3
			c-2.1-0.9-3.9-2.1-5.4-3.6c-1.5-1.5-2.7-3.4-3.5-5.5c-0.9-2.1-1.3-4.4-1.3-6.9c0-2.5,0.4-4.8,1.3-6.9c0.8-2.1,2-3.9,3.5-5.5
			c1.5-1.5,3.2-2.7,5.2-3.6c2-0.9,4.2-1.3,6.5-1.3c2.5,0,4.7,0.4,6.7,1.3s3.6,2.1,4.9,3.5c1.3,1.5,2.3,3.2,3,5.2
			c0.7,2,1.1,4.1,1.1,6.3v2.1H862.1z M884.4,515.3c0-3.1-0.9-5.7-2.8-7.6c-1.9-1.9-4.5-2.9-7.8-2.9c-1.5,0-2.9,0.3-4.3,0.9
			c-1.4,0.6-2.6,1.4-3.7,2.3c-1,1-1.9,2.1-2.5,3.4c-0.6,1.3-0.9,2.6-0.9,3.9H884.4z"/>
		<path d="M902.2,501.4c0.1,0.9,0.2,1.8,0.2,2.6c0,0.9,0,1.7,0,2.6h0.1c0.5-0.9,1.2-1.7,2-2.5c0.8-0.7,1.7-1.4,2.7-1.9
			c1-0.5,2-1,3.1-1.3c1.1-0.3,2.2-0.5,3.3-0.5c4.2,0,7.3,1.1,9.3,3.3c2,2.2,3,5.4,3,9.5v20.8h-4.6V516c0-3.6-0.6-6.4-1.9-8.4
			c-1.3-1.9-3.6-2.9-7-2.9c-0.2,0-0.9,0.1-2,0.3c-1.1,0.2-2.2,0.7-3.4,1.5c-1.2,0.8-2.3,2.1-3.2,3.8c-0.9,1.7-1.4,4-1.4,7v16.8h-4.6
			v-25.5c0-0.9,0-2-0.1-3.4c-0.1-1.4-0.2-2.6-0.2-3.8H902.2z"/>
		<path d="M953.7,505.6h-9.5v19.3c0,1.2,0.1,2.2,0.3,3c0.2,0.8,0.6,1.4,1,1.8c0.4,0.4,0.9,0.7,1.5,0.9c0.6,0.2,1.2,0.2,1.9,0.2
			c0.8,0,1.6-0.1,2.5-0.3c0.8-0.2,1.6-0.5,2.3-0.9l0.2,4.3c-1.7,0.8-3.8,1.2-6.2,1.2c-0.9,0-1.8-0.1-2.8-0.3c-1-0.2-1.8-0.7-2.6-1.3
			c-0.8-0.7-1.4-1.5-2-2.7s-0.8-2.6-0.8-4.4v-20.6h-6.9v-4.2h6.9v-9.2h4.6v9.2h9.5V505.6z"/>
		<path d="M993.7,520.7h-5v-5.8c0-1.3,0.3-2.4,0.9-3.5c0.6-1,1.3-2,2.1-2.9s1.8-1.8,2.7-2.6c1-0.8,1.9-1.7,2.7-2.7
			c0.8-1,1.5-2,2.1-3c0.6-1.1,0.8-2.3,0.8-3.7c0-2.4-0.8-4.3-2.3-5.8c-1.5-1.5-3.5-2.2-5.9-2.2c-2.4,0-4.4,0.7-5.9,2.1
			c-1.6,1.4-2.6,3.2-3,5.5l-5.2-0.6c0.3-1.8,0.8-3.5,1.6-4.9s1.8-2.7,3.1-3.7c1.2-1,2.6-1.8,4.2-2.3c1.6-0.5,3.3-0.8,5.1-0.8
			c1.9,0,3.6,0.3,5.2,0.8c1.6,0.5,3,1.3,4.2,2.3c1.2,1,2.1,2.3,2.8,3.8s1,3.3,1,5.2s-0.3,3.6-0.8,5c-0.6,1.4-1.3,2.5-2.1,3.5
			s-1.8,1.9-2.7,2.7c-1,0.8-1.9,1.6-2.7,2.6c-0.8,0.9-1.5,1.9-2.1,3.1c-0.6,1.2-0.8,2.6-0.8,4.3V520.7z M995.4,530.8
			c0,1-0.3,1.9-1,2.6c-0.7,0.8-1.6,1.2-2.7,1.2s-2-0.4-2.7-1.2c-0.7-0.8-1-1.6-1-2.6c0-1,0.3-1.9,1-2.6c0.7-0.8,1.6-1.2,2.7-1.2
			s2,0.4,2.7,1.2C995.1,529,995.4,529.8,995.4,530.8z"/>
	</g>
</g>
</svg>
