<?xml version="1.0" encoding="utf-8"?>
<!-- Generator: Adobe Illustrator 21.0.0, SVG Export Plug-In . SVG Version: 6.00 Build 0)  -->
<svg version="1.1" xmlns="http://www.w3.org/2000/svg" xmlns:xlink="http://www.w3.org/1999/xlink" x="0px" y="0px"
	 viewBox="0 0 1197.2 516" style="enable-background:new 0 0 1197.2 516;" xml:space="preserve">
<style type="text/css">
	.st0{fill:#0E97E7;}
	.st1{fill:#FFFFFF;}
	.st2{fill:none;stroke:#FFFFFF;stroke-width:18;stroke-miterlimit:10;}
	.st3{fill:none;stroke:#FFFFFF;stroke-width:5;stroke-miterlimit:10;}
	.st4{opacity:0.5;fill:none;stroke:#000000;stroke-width:1.5;stroke-miterlimit:10;}
	.st5{fill:none;stroke:#000000;stroke-width:8;stroke-miterlimit:10;}
	.st6{fill:#4F4F4F;}
	.st7{fill:none;stroke:#FFFFFF;stroke-width:16;stroke-miterlimit:10;}
	.st8{fill:none;stroke:#DF0920;stroke-width:18;stroke-miterlimit:10;}
	.st9{fill:none;stroke:#3E4098;stroke-width:18;stroke-miterlimit:10;}
	.st10{fill:#3E4098;}
	.st11{fill:none;stroke:#59C24F;stroke-width:18;stroke-miterlimit:10;}
	.st12{fill:none;}
</style>
<g id="Home_x5F_Claire_x5F_Juglair_x5F_St_x5F_Nazaire_xA0_Image_1_">
</g>
<g id="Calque_3">
</g>
<g id="bulles">
	<g>
		<path class="st1" d="M1198.3,481.8c0,18.8-15.2,34-34,34h-1018c-18.8,0-34-15.2-34-34v-448c0-18.8,15.2-34,34-34h1018
			c18.8,0,34,15.2,34,34V481.8z"/>
		<polygon class="st1" points="123.4,75.8 -4.1,75.8 112.3,171.8 		"/>
		<g>
			<g>
				<path d="M263.9,182.3c-0.6,5.2-2.4,9.3-5.6,12c-3.2,2.8-7.4,4.2-12.7,4.2c-3.7,0-7-0.9-9.8-2.8c-2.8-1.8-5-4.5-6.6-7.8
					c-1.5-3.4-2.3-7.3-2.4-11.6v-6.5c0-4.4,0.8-8.3,2.3-11.8c1.5-3.4,3.8-6.1,6.7-7.9c2.9-1.9,6.2-2.8,10-2.8
					c5.3,0,9.5,1.4,12.6,4.3s4.9,6.8,5.4,11.9h-4.2c-1-8.5-5.6-12.7-13.8-12.7c-4.5,0-8.1,1.7-10.8,5.1c-2.7,3.4-4,8-4,14v6.1
					c0,5.7,1.3,10.3,3.9,13.8s6.1,5.1,10.6,5.1c4.4,0,7.7-1.1,9.9-3.2c2.2-2.1,3.6-5.3,4.1-9.5H263.9z"/>
				<path d="M272.3,160.2l-2.4-1.8c2.1-2.8,3.1-5.7,3.2-8.7v-4.5h4v3.5C277.1,153.5,275.5,157.3,272.3,160.2z"/>
				<path d="M297.9,198.5c-3.1,0-6-0.8-8.5-2.3c-2.5-1.5-4.5-3.7-5.9-6.5c-1.4-2.8-2.1-5.9-2.1-9.3v-1.5c0-3.6,0.7-6.8,2.1-9.6
					c1.4-2.8,3.3-5.1,5.8-6.7c2.5-1.6,5.1-2.4,8-2.4c4.5,0,8,1.5,10.7,4.6c2.6,3.1,3.9,7.3,3.9,12.6v2.3h-26.4v0.8
					c0,4.2,1.2,7.7,3.6,10.5c2.4,2.8,5.4,4.2,9.1,4.2c2.2,0,4.1-0.4,5.8-1.2c1.7-0.8,3.2-2.1,4.6-3.8l2.6,1.9
					C308,196.3,303.6,198.5,297.9,198.5z M297.1,163.6c-3.1,0-5.7,1.1-7.8,3.4s-3.4,5.3-3.8,9.1h22.2v-0.4c-0.1-3.6-1.1-6.4-3-8.7
					C302.7,164.7,300.2,163.6,297.1,163.6z"/>
				<path d="M341.9,188.4c0-2-0.8-3.7-2.4-4.9c-1.6-1.2-4.1-2.2-7.4-2.9c-3.3-0.7-5.8-1.5-7.6-2.4c-1.8-0.9-3.2-2-4-3.3
					s-1.3-2.9-1.3-4.7c0-2.9,1.2-5.3,3.7-7.2c2.4-1.9,5.6-2.9,9.4-2.9c4.1,0,7.4,1,9.9,3.1c2.5,2,3.7,4.7,3.7,8h-4.1
					c0-2.2-0.9-4-2.7-5.4c-1.8-1.4-4.1-2.2-6.9-2.2c-2.7,0-4.8,0.6-6.5,1.8c-1.6,1.2-2.4,2.8-2.4,4.7c0,1.8,0.7,3.3,2,4.3
					c1.4,1,3.8,1.9,7.4,2.8c3.6,0.8,6.3,1.7,8.1,2.7s3.1,2.1,4,3.5c0.9,1.3,1.3,3,1.3,4.9c0,3.1-1.3,5.6-3.8,7.5
					c-2.5,1.9-5.8,2.8-9.9,2.8c-4.3,0-7.8-1-10.5-3.1c-2.7-2.1-4-4.7-4-7.9h4.1c0.2,2.4,1.2,4.3,3,5.6c1.9,1.3,4.3,2,7.4,2
					c2.8,0,5.1-0.6,6.9-1.9C341,191.9,341.9,190.3,341.9,188.4z"/>
				<path d="M361.5,151.3v9.5h7.7v3.3h-7.7v24.7c0,2.1,0.4,3.6,1.1,4.6c0.7,1,2,1.5,3.7,1.5c0.7,0,1.8-0.1,3.3-0.3l0.2,3.3
					c-1.1,0.4-2.5,0.6-4.4,0.6c-2.8,0-4.8-0.8-6.1-2.4c-1.3-1.6-1.9-4-1.9-7.2v-24.7h-6.8v-3.3h6.8v-9.5H361.5z"/>
				<path d="M418.5,193.1c-2.5,3.6-6.4,5.4-11.8,5.4c-3.9,0-6.9-1.1-9-3.4c-2.1-2.3-3.1-5.7-3.1-10.2v-24.1h4.1v23.5
					c0,7,2.8,10.6,8.5,10.6c5.9,0,9.7-2.4,11.2-7.3v-26.8h4.1v37h-4L418.5,193.1z"/>
				<path d="M437,160.8l0.1,6.3c1.4-2.3,3.1-4,5.2-5.2c2.1-1.2,4.4-1.8,6.9-1.8c4,0,6.9,1.1,8.9,3.3c1.9,2.2,2.9,5.6,2.9,10v24.3
					h-4.1v-24.3c0-3.3-0.7-5.8-2.1-7.4c-1.4-1.6-3.6-2.4-6.6-2.4c-2.5,0-4.8,0.8-6.7,2.4c-1.9,1.6-3.4,3.7-4.3,6.4v25.3h-4.1v-37
					H437z"/>
				<path d="M507.1,187.6c0-1.2-0.6-2.2-1.8-2.9c-1.2-0.7-3.1-1.3-5.8-1.9c-8.8-1.8-13.2-5.6-13.2-11.2c0-3.3,1.4-6,4.1-8.2
					s6.3-3.3,10.7-3.3c4.7,0,8.4,1.1,11.3,3.3c2.8,2.2,4.2,5.1,4.2,8.6h-9.9c0-1.4-0.5-2.6-1.4-3.5c-0.9-0.9-2.3-1.4-4.3-1.4
					c-1.7,0-3,0.4-3.9,1.1c-0.9,0.8-1.4,1.7-1.4,2.9c0,1.1,0.5,2,1.6,2.6s2.8,1.3,5.2,1.7c2.5,0.5,4.5,1,6.2,1.7
					c5.2,1.9,7.8,5.2,7.8,9.9c0,3.4-1.4,6.1-4.3,8.2c-2.9,2.1-6.6,3.1-11.2,3.1c-3.1,0-5.9-0.6-8.3-1.7c-2.4-1.1-4.3-2.6-5.7-4.5
					s-2.1-4-2.1-6.2h9.4c0.1,1.8,0.7,3.1,1.9,4c1.2,0.9,2.8,1.4,4.9,1.4c1.9,0,3.3-0.4,4.3-1.1C506.6,189.7,507.1,188.7,507.1,187.6
					z"/>
				<path d="M544.5,197.8c-0.5-0.9-0.8-2-1-3.3c-2.4,2.7-5.5,4-9.3,4c-3.6,0-6.6-1-9-3.1c-2.4-2.1-3.6-4.7-3.6-7.9
					c0-3.9,1.5-6.9,4.4-9c2.9-2.1,7.1-3.2,12.6-3.2h4.5v-2.1c0-1.7-0.4-3.1-1.3-4.1c-0.9-1-2.3-1.5-4.2-1.5c-1.7,0-3,0.4-3.9,1.2
					c-0.9,0.8-1.4,1.9-1.4,3.3h-9.9c0-2.1,0.7-4.1,2-5.9c1.3-1.8,3.2-3.3,5.6-4.3c2.4-1,5.1-1.6,8.1-1.6c4.6,0,8.2,1.1,10.9,3.4
					c2.7,2.3,4,5.5,4,9.7v16c0,3.5,0.5,6.2,1.5,8v0.6H544.5z M536.3,190.9c1.5,0,2.8-0.3,4-1c1.2-0.7,2.1-1.5,2.7-2.6V181h-3.7
					c-4.9,0-7.6,1.7-7.9,5.1l0,0.6c0,1.2,0.4,2.2,1.3,3C533.6,190.5,534.8,190.9,536.3,190.9z"/>
				<path d="M576,190.5c1.8,0,3.3-0.5,4.4-1.5c1.1-1,1.7-2.3,1.8-4h9.3c0,2.5-0.7,4.8-2.1,6.9c-1.3,2.1-3.2,3.7-5.5,4.9
					c-2.3,1.2-4.9,1.7-7.7,1.7c-5.3,0-9.5-1.7-12.5-5c-3.1-3.4-4.6-8-4.6-13.9v-0.6c0-5.7,1.5-10.2,4.5-13.6c3-3.4,7.2-5.1,12.5-5.1
					c4.6,0,8.3,1.3,11.1,3.9c2.8,2.6,4.2,6.1,4.3,10.5h-9.3c0-1.9-0.6-3.5-1.8-4.7c-1.1-1.2-2.6-1.8-4.5-1.8c-2.3,0-4,0.8-5.2,2.5
					c-1.2,1.7-1.8,4.4-1.8,8.2v1c0,3.8,0.6,6.5,1.7,8.2S573.6,190.5,576,190.5z"/>
				<path d="M617.9,170.1c-1.3-0.2-2.5-0.3-3.6-0.3c-3.7,0-6.2,1.3-7.3,3.8v24.2h-9.9v-37h9.3l0.3,4.4c2-3.4,4.7-5.1,8.2-5.1
					c1.1,0,2.1,0.1,3.1,0.4L617.9,170.1z"/>
				<path d="M639,198.5c-5.4,0-9.8-1.7-13.2-5c-3.4-3.3-5.1-7.8-5.1-13.3v-1c0-3.7,0.7-7,2.2-10c1.4-2.9,3.5-5.2,6.1-6.8
					c2.6-1.6,5.6-2.4,9-2.4c5.1,0,9,1.6,11.9,4.8c2.9,3.2,4.4,7.7,4.4,13.6v4h-23.5c0.3,2.4,1.3,4.4,2.9,5.8
					c1.6,1.5,3.6,2.2,6.1,2.2c3.8,0,6.8-1.4,8.9-4.1l4.9,5.4c-1.5,2.1-3.5,3.7-6,4.9C644.9,197.9,642.1,198.5,639,198.5z
					 M637.9,168.1c-2,0-3.5,0.7-4.8,2c-1.2,1.3-2,3.2-2.3,5.7h13.7V175c0-2.2-0.6-3.9-1.8-5.1C641.6,168.7,640,168.1,637.9,168.1z
					 M638.7,145.3h10.8l-9.5,10.6h-8L638.7,145.3z"/>
				<path d="M692.6,190.5c1.8,0,3.3-0.5,4.4-1.5c1.1-1,1.7-2.3,1.8-4h9.3c0,2.5-0.7,4.8-2.1,6.9c-1.3,2.1-3.2,3.7-5.5,4.9
					c-2.3,1.2-4.9,1.7-7.7,1.7c-5.3,0-9.5-1.7-12.5-5c-3.1-3.4-4.6-8-4.6-13.9v-0.6c0-5.7,1.5-10.2,4.5-13.6c3-3.4,7.2-5.1,12.5-5.1
					c4.6,0,8.3,1.3,11.1,3.9c2.8,2.6,4.2,6.1,4.3,10.5h-9.3c0-1.9-0.6-3.5-1.8-4.7c-1.1-1.2-2.6-1.8-4.5-1.8c-2.3,0-4,0.8-5.2,2.5
					c-1.2,1.7-1.8,4.4-1.8,8.2v1c0,3.8,0.6,6.5,1.7,8.2S690.2,190.5,692.6,190.5z"/>
				<path d="M723.4,164.8c2.6-3.1,5.9-4.7,9.9-4.7c8,0,12.1,4.7,12.2,14v23.7h-9.9v-23.5c0-2.1-0.5-3.7-1.4-4.7
					c-0.9-1-2.4-1.5-4.5-1.5c-2.9,0-5,1.1-6.3,3.4v26.3h-9.9v-52.5h9.9V164.8z"/>
				<path d="M774.3,197.8c-0.5-0.9-0.8-2-1-3.3c-2.4,2.7-5.5,4-9.3,4c-3.6,0-6.6-1-9-3.1c-2.4-2.1-3.6-4.7-3.6-7.9
					c0-3.9,1.5-6.9,4.4-9c2.9-2.1,7.1-3.2,12.6-3.2h4.5v-2.1c0-1.7-0.4-3.1-1.3-4.1c-0.9-1-2.3-1.5-4.2-1.5c-1.7,0-3,0.4-3.9,1.2
					c-0.9,0.8-1.4,1.9-1.4,3.3h-9.9c0-2.1,0.7-4.1,2-5.9c1.3-1.8,3.2-3.3,5.6-4.3c2.4-1,5.1-1.6,8.1-1.6c4.6,0,8.2,1.1,10.9,3.4
					c2.7,2.3,4,5.5,4,9.7v16c0,3.5,0.5,6.2,1.5,8v0.6H774.3z M766.2,190.9c1.5,0,2.8-0.3,4-1c1.2-0.7,2.1-1.5,2.7-2.6V181h-3.7
					c-4.9,0-7.6,1.7-7.9,5.1l0,0.6c0,1.2,0.4,2.2,1.3,3C763.5,190.5,764.7,190.9,766.2,190.9z"/>
				<path d="M800.9,197.8h-9.9v-52.5h9.9V197.8z"/>
				<path d="M819.4,197.8h-9.9v-52.5h9.9V197.8z"/>
				<path d="M844.6,198.5c-5.4,0-9.8-1.7-13.2-5c-3.4-3.3-5.1-7.8-5.1-13.3v-1c0-3.7,0.7-7,2.2-10c1.4-2.9,3.5-5.2,6.1-6.8
					c2.6-1.6,5.6-2.4,9-2.4c5.1,0,9,1.6,11.9,4.8c2.9,3.2,4.4,7.7,4.4,13.6v4h-23.5c0.3,2.4,1.3,4.4,2.9,5.8
					c1.6,1.5,3.6,2.2,6.1,2.2c3.8,0,6.8-1.4,8.9-4.1l4.9,5.4c-1.5,2.1-3.5,3.7-6,4.9C850.5,197.9,847.7,198.5,844.6,198.5z
					 M843.4,168.1c-2,0-3.5,0.7-4.8,2c-1.2,1.3-2,3.2-2.3,5.7h13.7V175c0-2.2-0.6-3.9-1.8-5.1C847.2,168.7,845.5,168.1,843.4,168.1z
					"/>
				<path d="M874.5,160.8l0.3,4.3c2.6-3.3,6.2-5,10.6-5c3.9,0,6.8,1.2,8.8,3.5c1.9,2.3,2.9,5.7,2.9,10.3v23.9h-9.9v-23.7
					c0-2.1-0.5-3.6-1.4-4.6c-0.9-0.9-2.4-1.4-4.5-1.4c-2.8,0-4.9,1.2-6.3,3.6v26.1h-9.9v-37H874.5z"/>
				<path d="M903.2,179c0-5.7,1.4-10.2,4-13.7c2.7-3.5,6.3-5.2,10.9-5.2c4.1,0,7.2,1.4,9.5,4.2l0.4-3.5h9v35.8c0,3.2-0.7,6-2.2,8.4
					c-1.5,2.4-3.5,4.2-6.2,5.5c-2.7,1.3-5.8,1.9-9.4,1.9c-2.7,0-5.4-0.5-7.9-1.6c-2.6-1.1-4.5-2.5-5.8-4.2l4.4-6
					c2.5,2.8,5.4,4.1,9,4.1c2.6,0,4.7-0.7,6.1-2.1c1.5-1.4,2.2-3.4,2.2-6v-2c-2.3,2.6-5.3,3.9-9,3.9c-4.4,0-8-1.7-10.8-5.2
					c-2.7-3.5-4.1-8.1-4.1-13.8V179z M913,179.7c0,3.4,0.7,6,2,7.9c1.3,1.9,3.2,2.9,5.5,2.9c3,0,5.2-1.1,6.5-3.4v-15.6
					c-1.3-2.3-3.5-3.4-6.4-3.4c-2.4,0-4.2,1-5.6,2.9C913.7,173,913,175.9,913,179.7z"/>
				<path d="M961.6,198.5c-5.4,0-9.8-1.7-13.2-5c-3.4-3.3-5.1-7.8-5.1-13.3v-1c0-3.7,0.7-7,2.2-10c1.4-2.9,3.5-5.2,6.1-6.8
					c2.6-1.6,5.6-2.4,9-2.4c5.1,0,9,1.6,11.9,4.8c2.9,3.2,4.4,7.7,4.4,13.6v4h-23.5c0.3,2.4,1.3,4.4,2.9,5.8
					c1.6,1.5,3.6,2.2,6.1,2.2c3.8,0,6.8-1.4,8.9-4.1l4.9,5.4c-1.5,2.1-3.5,3.7-6,4.9C967.5,197.9,964.6,198.5,961.6,198.5z
					 M960.4,168.1c-2,0-3.5,0.7-4.8,2c-1.2,1.3-2,3.2-2.3,5.7h13.7V175c0-2.2-0.6-3.9-1.8-5.1C964.2,168.7,962.5,168.1,960.4,168.1z
					"/>
				<path d="M1014.6,195c2.8,0,5.2-0.8,7.2-2.4c1.9-1.6,3-3.7,3.1-6.2h3.9c-0.1,2.3-0.8,4.3-2.1,6.2s-3,3.3-5.2,4.4
					c-2.2,1-4.5,1.6-6.9,1.6c-4.9,0-8.7-1.7-11.5-5.1c-2.8-3.4-4.3-7.9-4.3-13.6v-1.2c0-3.6,0.6-6.9,1.9-9.7c1.3-2.8,3.1-5,5.5-6.5
					c2.4-1.5,5.2-2.3,8.4-2.3c4.1,0,7.4,1.2,10,3.6c2.6,2.4,4,5.6,4.2,9.5h-3.9c-0.2-2.9-1.2-5.2-3.1-7s-4.3-2.7-7.2-2.7
					c-3.7,0-6.6,1.3-8.6,4s-3.1,6.4-3.1,11.2v1.2c0,4.7,1,8.4,3.1,11C1008,193.7,1010.9,195,1014.6,195z"/>
				<path d="M1060.4,197.8c-0.4-1.2-0.7-2.9-0.8-5.2c-1.4,1.9-3.3,3.3-5.5,4.3c-2.2,1-4.6,1.5-7.1,1.5c-3.6,0-6.4-1-8.6-3
					c-2.2-2-3.3-4.5-3.3-7.5c0-3.6,1.5-6.4,4.5-8.5c3-2.1,7.2-3.1,12.5-3.1h7.4v-4.2c0-2.6-0.8-4.7-2.4-6.2c-1.6-1.5-4-2.3-7.1-2.3
					c-2.8,0-5.2,0.7-7.1,2.2c-1.9,1.5-2.8,3.2-2.8,5.3l-4.1,0c0-2.9,1.4-5.5,4.1-7.6c2.7-2.2,6.1-3.2,10.1-3.2c4.1,0,7.4,1,9.8,3.1
					c2.4,2.1,3.6,4.9,3.7,8.6v17.5c0,3.6,0.4,6.3,1.1,8v0.4H1060.4z M1047.5,194.9c2.7,0,5.2-0.7,7.3-2c2.2-1.3,3.7-3.1,4.7-5.3
					v-8.1h-7.3c-4.1,0-7.3,0.8-9.6,2.2c-2.3,1.4-3.5,3.4-3.5,6c0,2.1,0.8,3.8,2.3,5.2C1043,194.2,1045,194.9,1047.5,194.9z"/>
				<path d="M1091.6,164.3c-0.9-0.2-1.8-0.2-2.8-0.2c-2.6,0-4.7,0.7-6.5,2.1c-1.8,1.4-3,3.5-3.8,6.2v25.4h-4.1v-37h4l0.1,5.9
					c2.2-4.4,5.6-6.6,10.4-6.6c1.1,0,2,0.1,2.7,0.4L1091.6,164.3z"/>
				<path d="M232.2,281.8h-4.1v-52.5h4.1V281.8z"/>
				<path d="M257.7,282.5c-3.1,0-6-0.8-8.5-2.3c-2.5-1.5-4.5-3.7-5.9-6.5c-1.4-2.8-2.1-5.9-2.1-9.3v-1.5c0-3.6,0.7-6.8,2.1-9.6
					c1.4-2.8,3.3-5.1,5.8-6.7c2.5-1.6,5.1-2.4,8-2.4c4.5,0,8,1.5,10.7,4.6c2.6,3.1,3.9,7.3,3.9,12.6v2.3h-26.4v0.8
					c0,4.2,1.2,7.7,3.6,10.5c2.4,2.8,5.4,4.2,9.1,4.2c2.2,0,4.1-0.4,5.8-1.2c1.7-0.8,3.2-2.1,4.6-3.8l2.6,1.9
					C267.8,280.3,263.4,282.5,257.7,282.5z M256.9,247.6c-3.1,0-5.7,1.1-7.8,3.4s-3.4,5.3-3.8,9.1h22.2v-0.4c-0.1-3.6-1.1-6.4-3-8.7
					C262.5,248.7,260,247.6,256.9,247.6z"/>
				<path d="M326.3,263.7c0,5.8-1.3,10.3-3.8,13.7c-2.6,3.4-6,5.1-10.3,5.1c-5.2,0-9-1.9-11.7-5.7l-0.2,5.1h-3.8v-52.5h4.1v20.9
					c2.6-4,6.4-6,11.6-6c4.4,0,7.8,1.7,10.4,5s3.8,8,3.8,13.9V263.7z M322.2,263c0-4.9-0.9-8.6-2.8-11.3c-1.9-2.7-4.6-4-8-4
					c-2.6,0-4.8,0.6-6.7,1.9c-1.8,1.3-3.2,3.2-4.1,5.7v16.7c2.1,4.6,5.7,7,10.9,7c3.4,0,6-1.3,7.9-4S322.2,268.3,322.2,263z"/>
				<path d="M359.1,277.1c-2.5,3.6-6.4,5.4-11.8,5.4c-3.9,0-6.9-1.1-9-3.4c-2.1-2.3-3.1-5.7-3.1-10.2v-24.1h4.1v23.5
					c0,7,2.8,10.6,8.5,10.6c5.9,0,9.7-2.4,11.2-7.3v-26.8h4.1v37h-4L359.1,277.1z"/>
				<path d="M372.1,263c0-5.7,1.3-10.3,3.8-13.7c2.6-3.4,6-5.1,10.4-5.1c5,0,8.8,2,11.4,5.9v-20.7h4.1v52.5h-3.8l-0.2-4.9
					c-2.6,3.7-6.5,5.6-11.6,5.6c-4.3,0-7.7-1.7-10.3-5.1c-2.6-3.4-3.9-8.1-3.9-13.9V263z M376.3,263.7c0,4.7,0.9,8.4,2.8,11.2
					c1.9,2.7,4.6,4.1,8,4.1c5,0,8.6-2.2,10.7-6.7v-17.4c-2.1-4.8-5.7-7.2-10.7-7.2c-3.4,0-6.1,1.3-8,4.1
					C377.2,254.4,376.3,258.4,376.3,263.7z"/>
				<path d="M411,263c0-5.8,1.3-10.4,3.8-13.8c2.6-3.4,6-5.1,10.4-5.1c5,0,8.9,2,11.5,6l0.2-5.3h3.8V281c0,4.8-1.3,8.5-4,11.3
					c-2.7,2.8-6.3,4.2-10.8,4.2c-2.6,0-5-0.6-7.4-1.7c-2.3-1.2-4.2-2.7-5.5-4.6l2.3-2.5c2.9,3.6,6.3,5.3,10.3,5.3c3.4,0,6.1-1,8-3
					c1.9-2,2.9-4.8,3-8.4V277c-2.6,3.6-6.4,5.5-11.5,5.5c-4.3,0-7.7-1.7-10.3-5.1s-3.9-8-3.9-13.8V263z M415.2,263.7
					c0,4.7,0.9,8.4,2.8,11.2c1.9,2.7,4.6,4.1,8,4.1c5,0,8.6-2.3,10.7-6.8V255c-1-2.4-2.3-4.2-4.1-5.4c-1.8-1.2-4-1.9-6.5-1.9
					c-3.4,0-6.1,1.3-8,4.1C416.1,254.4,415.2,258.4,415.2,263.7z"/>
				<path d="M465.8,282.5c-3.1,0-6-0.8-8.5-2.3c-2.5-1.5-4.5-3.7-5.9-6.5c-1.4-2.8-2.1-5.9-2.1-9.3v-1.5c0-3.6,0.7-6.8,2.1-9.6
					c1.4-2.8,3.3-5.1,5.8-6.7c2.5-1.6,5.1-2.4,8-2.4c4.5,0,8,1.5,10.7,4.6c2.6,3.1,3.9,7.3,3.9,12.6v2.3h-26.4v0.8
					c0,4.2,1.2,7.7,3.6,10.5c2.4,2.8,5.4,4.2,9.1,4.2c2.2,0,4.1-0.4,5.8-1.2c1.7-0.8,3.2-2.1,4.6-3.8l2.6,1.9
					C475.9,280.3,471.6,282.5,465.8,282.5z M465.1,247.6c-3.1,0-5.7,1.1-7.8,3.4s-3.4,5.3-3.8,9.1h22.2v-0.4c-0.1-3.6-1.1-6.4-3-8.7
					C470.7,248.7,468.2,247.6,465.1,247.6z"/>
				<path d="M494,235.3v9.5h7.7v3.3H494v24.7c0,2.1,0.4,3.6,1.1,4.6c0.7,1,2,1.5,3.7,1.5c0.7,0,1.8-0.1,3.3-0.3l0.2,3.3
					c-1.1,0.4-2.5,0.6-4.4,0.6c-2.8,0-4.8-0.8-6.1-2.4c-1.3-1.6-1.9-4-1.9-7.2v-24.7h-6.8v-3.3h6.8v-9.5H494z"/>
				<path d="M525.5,263c0-5.7,1.3-10.3,3.8-13.7c2.6-3.4,6-5.1,10.4-5.1c5,0,8.8,2,11.4,5.9v-20.7h4.1v52.5h-3.8l-0.2-4.9
					c-2.6,3.7-6.5,5.6-11.6,5.6c-4.3,0-7.7-1.7-10.3-5.1c-2.6-3.4-3.9-8.1-3.9-13.9V263z M529.7,263.7c0,4.7,0.9,8.4,2.8,11.2
					c1.9,2.7,4.6,4.1,8,4.1c5,0,8.6-2.2,10.7-6.7v-17.4c-2.1-4.8-5.7-7.2-10.7-7.2c-3.4,0-6.1,1.3-8,4.1
					C530.6,254.4,529.7,258.4,529.7,263.7z"/>
				<path d="M580.4,282.5c-3.1,0-6-0.8-8.5-2.3c-2.5-1.5-4.5-3.7-5.9-6.5c-1.4-2.8-2.1-5.9-2.1-9.3v-1.5c0-3.6,0.7-6.8,2.1-9.6
					c1.4-2.8,3.3-5.1,5.8-6.7c2.5-1.6,5.1-2.4,8-2.4c4.5,0,8,1.5,10.7,4.6c2.6,3.1,3.9,7.3,3.9,12.6v2.3h-26.4v0.8
					c0,4.2,1.2,7.7,3.6,10.5c2.4,2.8,5.4,4.2,9.1,4.2c2.2,0,4.1-0.4,5.8-1.2c1.7-0.8,3.2-2.1,4.6-3.8l2.6,1.9
					C590.5,280.3,586.1,282.5,580.4,282.5z M579.6,247.6c-3.1,0-5.7,1.1-7.8,3.4s-3.4,5.3-3.8,9.1h22.2v-0.4c-0.1-3.6-1.1-6.4-3-8.7
					C585.3,248.7,582.7,247.6,579.6,247.6z"/>
				<path d="M623.8,281.8h-4.1v-52.5h4.1V281.8z"/>
				<path d="M658.3,281.8c-0.4-1.2-0.7-2.9-0.8-5.2c-1.4,1.9-3.3,3.3-5.5,4.3c-2.2,1-4.6,1.5-7.1,1.5c-3.6,0-6.4-1-8.6-3
					c-2.2-2-3.3-4.5-3.3-7.5c0-3.6,1.5-6.4,4.5-8.5c3-2.1,7.2-3.1,12.5-3.1h7.4v-4.2c0-2.6-0.8-4.7-2.4-6.2c-1.6-1.5-4-2.3-7.1-2.3
					c-2.8,0-5.2,0.7-7.1,2.2c-1.9,1.5-2.8,3.2-2.8,5.3l-4.1,0c0-2.9,1.4-5.5,4.1-7.6c2.7-2.2,6.1-3.2,10.1-3.2c4.1,0,7.4,1,9.8,3.1
					c2.4,2.1,3.6,4.9,3.7,8.6v17.5c0,3.6,0.4,6.3,1.1,8v0.4H658.3z M645.4,278.9c2.7,0,5.2-0.7,7.3-2c2.2-1.3,3.7-3.1,4.7-5.3v-8.1
					h-7.3c-4.1,0-7.3,0.8-9.6,2.2c-2.3,1.4-3.5,3.4-3.5,6c0,2.1,0.8,3.8,2.3,5.2C641,278.2,643,278.9,645.4,278.9z"/>
				<path d="M701,276.2l11.2-31.3h4.2l-13.8,37h-3.3l-13.9-37h4.2L701,276.2z"/>
				<path d="M722.9,234.1c0-0.8,0.2-1.4,0.8-2c0.5-0.5,1.2-0.8,2.1-0.8c0.9,0,1.6,0.3,2.1,0.8c0.5,0.5,0.8,1.2,0.8,2
					c0,0.8-0.3,1.4-0.8,1.9c-0.5,0.5-1.2,0.8-2.1,0.8c-0.9,0-1.5-0.3-2.1-0.8C723.1,235.5,722.9,234.9,722.9,234.1z M727.7,281.8
					h-4.1v-37h4.1V281.8z"/>
				<path d="M743.4,281.8h-4.1v-52.5h4.1V281.8z"/>
				<path d="M759.1,281.8H755v-52.5h4.1V281.8z"/>
				<path d="M784.5,282.5c-3.1,0-6-0.8-8.5-2.3c-2.5-1.5-4.5-3.7-5.9-6.5c-1.4-2.8-2.1-5.9-2.1-9.3v-1.5c0-3.6,0.7-6.8,2.1-9.6
					c1.4-2.8,3.3-5.1,5.8-6.7c2.5-1.6,5.1-2.4,8-2.4c4.5,0,8,1.5,10.7,4.6c2.6,3.1,3.9,7.3,3.9,12.6v2.3H772v0.8
					c0,4.2,1.2,7.7,3.6,10.5c2.4,2.8,5.4,4.2,9.1,4.2c2.2,0,4.1-0.4,5.8-1.2c1.7-0.8,3.2-2.1,4.6-3.8l2.6,1.9
					C794.6,280.3,790.2,282.5,784.5,282.5z M783.8,247.6c-3.1,0-5.7,1.1-7.8,3.4s-3.4,5.3-3.8,9.1h22.2v-0.4c-0.1-3.6-1.1-6.4-3-8.7
					C789.4,248.7,786.9,247.6,783.8,247.6z"/>
				<path d="M827.3,244.8l0.1,6.3c1.4-2.3,3.1-4,5.2-5.2c2.1-1.2,4.4-1.8,6.9-1.8c4,0,6.9,1.1,8.9,3.3c1.9,2.2,2.9,5.6,2.9,10v24.3
					h-4.1v-24.3c0-3.3-0.7-5.8-2.1-7.4c-1.4-1.6-3.6-2.4-6.6-2.4c-2.5,0-4.8,0.8-6.7,2.4c-1.9,1.6-3.4,3.7-4.3,6.4v25.3h-4.1v-37
					H827.3z"/>
				<path d="M876.2,282.5c-3.1,0-6-0.8-8.5-2.3c-2.5-1.5-4.5-3.7-5.9-6.5c-1.4-2.8-2.1-5.9-2.1-9.3v-1.5c0-3.6,0.7-6.8,2.1-9.6
					c1.4-2.8,3.3-5.1,5.8-6.7c2.5-1.6,5.1-2.4,8-2.4c4.5,0,8,1.5,10.7,4.6c2.6,3.1,3.9,7.3,3.9,12.6v2.3h-26.4v0.8
					c0,4.2,1.2,7.7,3.6,10.5c2.4,2.8,5.4,4.2,9.1,4.2c2.2,0,4.1-0.4,5.8-1.2c1.7-0.8,3.2-2.1,4.6-3.8l2.6,1.9
					C886.2,280.3,881.9,282.5,876.2,282.5z M875.4,247.6c-3.1,0-5.7,1.1-7.8,3.4s-3.4,5.3-3.8,9.1H886v-0.4c-0.1-3.6-1.1-6.4-3-8.7
					C881,248.7,878.5,247.6,875.4,247.6z"/>
				<path d="M944.8,263.7c0,5.8-1.3,10.3-3.8,13.7c-2.6,3.4-6,5.1-10.3,5.1c-5.1,0-8.9-1.8-11.6-5.3V296H915v-51.2h3.8l0.2,5.2
					c2.7-3.9,6.5-5.9,11.6-5.9c4.4,0,7.9,1.7,10.4,5s3.8,8,3.8,13.9V263.7z M940.7,263c0-4.7-1-8.4-2.9-11.2
					c-1.9-2.7-4.6-4.1-8.1-4.1c-2.5,0-4.7,0.6-6.5,1.8c-1.8,1.2-3.2,3-4.1,5.3v17.7c1,2.1,2.4,3.7,4.2,4.9c1.8,1.1,4,1.7,6.5,1.7
					c3.4,0,6.1-1.4,8-4.1S940.7,268.2,940.7,263z"/>
				<path d="M968.1,282.5c-3.1,0-6-0.8-8.5-2.3c-2.5-1.5-4.5-3.7-5.9-6.5c-1.4-2.8-2.1-5.9-2.1-9.3v-1.5c0-3.6,0.7-6.8,2.1-9.6
					c1.4-2.8,3.3-5.1,5.8-6.7c2.5-1.6,5.1-2.4,8-2.4c4.5,0,8,1.5,10.7,4.6c2.6,3.1,3.9,7.3,3.9,12.6v2.3h-26.4v0.8
					c0,4.2,1.2,7.7,3.6,10.5c2.4,2.8,5.4,4.2,9.1,4.2c2.2,0,4.1-0.4,5.8-1.2c1.7-0.8,3.2-2.1,4.6-3.8l2.6,1.9
					C978.2,280.3,973.9,282.5,968.1,282.5z M967.4,247.6c-3.1,0-5.7,1.1-7.8,3.4s-3.4,5.3-3.8,9.1h22.2v-0.4c-0.1-3.6-1.1-6.4-3-8.7
					C973,248.7,970.5,247.6,967.4,247.6z"/>
				<path d="M1013.8,277.1c-2.5,3.6-6.4,5.4-11.8,5.4c-3.9,0-6.9-1.1-9-3.4c-2.1-2.3-3.1-5.7-3.1-10.2v-24.1h4.1v23.5
					c0,7,2.8,10.6,8.5,10.6c5.9,0,9.7-2.4,11.2-7.3v-26.8h4.1v37h-4L1013.8,277.1z"/>
				<path d="M1034.8,235.3v9.5h7.7v3.3h-7.7v24.7c0,2.1,0.4,3.6,1.1,4.6c0.7,1,2,1.5,3.7,1.5c0.7,0,1.8-0.1,3.3-0.3l0.2,3.3
					c-1.1,0.4-2.5,0.6-4.4,0.6c-2.8,0-4.8-0.8-6.1-2.4c-1.3-1.6-1.9-4-1.9-7.2v-24.7h-6.8v-3.3h6.8v-9.5H1034.8z"/>
				<path d="M259.4,347.6c0,5.7-1.3,10.3-3.9,13.7c-2.6,3.4-6.1,5.1-10.5,5.1c-3.7,0-6.8-1.3-9.1-3.9V380h-9.9v-51.2h9.2l0.3,3.6
					c2.4-2.9,5.5-4.3,9.4-4.3c4.6,0,8.1,1.7,10.6,5.1c2.5,3.4,3.8,8,3.8,13.9V347.6z M249.5,346.9c0-3.5-0.6-6.1-1.8-8
					c-1.2-1.9-3-2.8-5.3-2.8c-3.1,0-5.2,1.2-6.4,3.6v15.2c1.2,2.4,3.4,3.7,6.5,3.7C247.2,358.5,249.5,354.6,249.5,346.9z"/>
				<path d="M287,365.8c-0.5-0.9-0.8-2-1-3.3c-2.4,2.7-5.5,4-9.3,4c-3.6,0-6.6-1-9-3.1c-2.4-2.1-3.6-4.7-3.6-7.9
					c0-3.9,1.5-6.9,4.4-9c2.9-2.1,7.1-3.2,12.6-3.2h4.5v-2.1c0-1.7-0.4-3.1-1.3-4.1c-0.9-1-2.3-1.5-4.2-1.5c-1.7,0-3,0.4-3.9,1.2
					c-0.9,0.8-1.4,1.9-1.4,3.3h-9.9c0-2.1,0.7-4.1,2-5.9c1.3-1.8,3.2-3.3,5.6-4.3c2.4-1,5.1-1.6,8.1-1.6c4.6,0,8.2,1.1,10.9,3.4
					c2.7,2.3,4,5.5,4,9.7v16c0,3.5,0.5,6.2,1.5,8v0.6H287z M278.8,358.9c1.5,0,2.8-0.3,4-1c1.2-0.7,2.1-1.5,2.7-2.6V349h-3.7
					c-4.9,0-7.6,1.7-7.9,5.1l0,0.6c0,1.2,0.4,2.2,1.3,3C276.1,358.5,277.3,358.9,278.8,358.9z"/>
				<path d="M323.1,355.6c0-1.2-0.6-2.2-1.8-2.9c-1.2-0.7-3.1-1.3-5.8-1.9c-8.8-1.8-13.2-5.6-13.2-11.2c0-3.3,1.4-6,4.1-8.2
					s6.3-3.3,10.7-3.3c4.7,0,8.4,1.1,11.3,3.3c2.8,2.2,4.2,5.1,4.2,8.6h-9.9c0-1.4-0.5-2.6-1.4-3.5c-0.9-0.9-2.3-1.4-4.3-1.4
					c-1.7,0-3,0.4-3.9,1.1c-0.9,0.8-1.4,1.7-1.4,2.9c0,1.1,0.5,2,1.6,2.6s2.8,1.3,5.2,1.7c2.5,0.5,4.5,1,6.2,1.7
					c5.2,1.9,7.8,5.2,7.8,9.9c0,3.4-1.4,6.1-4.3,8.2c-2.9,2.1-6.6,3.1-11.2,3.1c-3.1,0-5.9-0.6-8.3-1.7c-2.4-1.1-4.3-2.6-5.7-4.5
					s-2.1-4-2.1-6.2h9.4c0.1,1.8,0.7,3.1,1.9,4c1.2,0.9,2.8,1.4,4.9,1.4c1.9,0,3.3-0.4,4.3-1.1C322.6,357.7,323.1,356.7,323.1,355.6
					z"/>
				<path d="M373.5,366.5c-5.4,0-9.8-1.7-13.2-5c-3.4-3.3-5.1-7.8-5.1-13.3v-1c0-3.7,0.7-7,2.2-10c1.4-2.9,3.5-5.2,6.1-6.8
					c2.6-1.6,5.6-2.4,9-2.4c5.1,0,9,1.6,11.9,4.8c2.9,3.2,4.4,7.7,4.4,13.6v4h-23.5c0.3,2.4,1.3,4.4,2.9,5.8
					c1.6,1.5,3.6,2.2,6.1,2.2c3.8,0,6.8-1.4,8.9-4.1l4.9,5.4c-1.5,2.1-3.5,3.7-6,4.9C379.4,365.9,376.6,366.5,373.5,366.5z
					 M384.4,322.8v0.4l-7.9,0l-5.3-5l-5.3,5l-7.7,0v-0.5l10.1-9.4h5.7L384.4,322.8z M372.4,336.1c-2,0-3.5,0.7-4.8,2
					c-1.2,1.3-2,3.2-2.3,5.7H379V343c0-2.2-0.6-3.9-1.8-5.1C376.1,336.7,374.5,336.1,372.4,336.1z"/>
				<path d="M406.2,319.7v9.1h6.3v7.2h-6.3v18.5c0,1.4,0.3,2.3,0.8,2.9c0.5,0.6,1.5,0.9,3,0.9c1.1,0,2.1-0.1,2.9-0.2v7.5
					c-1.9,0.6-3.9,0.9-6,0.9c-6.9,0-10.5-3.5-10.6-10.5v-19.9h-5.4v-7.2h5.4v-9.1H406.2z"/>
				<path d="M438.8,338.1c-1.3-0.2-2.5-0.3-3.6-0.3c-3.7,0-6.2,1.3-7.3,3.8v24.2H418v-37h9.3l0.3,4.4c2-3.4,4.7-5.1,8.2-5.1
					c1.1,0,2.1,0.1,3.1,0.4L438.8,338.1z"/>
				<path d="M459.9,366.5c-5.4,0-9.8-1.7-13.2-5c-3.4-3.3-5.1-7.8-5.1-13.3v-1c0-3.7,0.7-7,2.2-10c1.4-2.9,3.5-5.2,6.1-6.8
					c2.6-1.6,5.6-2.4,9-2.4c5.1,0,9,1.6,11.9,4.8c2.9,3.2,4.4,7.7,4.4,13.6v4h-23.5c0.3,2.4,1.3,4.4,2.9,5.8
					c1.6,1.5,3.6,2.2,6.1,2.2c3.8,0,6.8-1.4,8.9-4.1l4.9,5.4c-1.5,2.1-3.5,3.7-6,4.9C465.8,365.9,463,366.5,459.9,366.5z
					 M458.8,336.1c-2,0-3.5,0.7-4.8,2c-1.2,1.3-2,3.2-2.3,5.7h13.7V343c0-2.2-0.6-3.9-1.8-5.1C462.5,336.7,460.9,336.1,458.8,336.1z
					"/>
				<path d="M496.6,347c0-5.8,1.3-10.4,3.9-13.8s6.1-5.1,10.6-5.1c3.6,0,6.6,1.3,8.9,4v-18.9h9.9v52.5H521l-0.5-3.9
					c-2.5,3.1-5.6,4.6-9.5,4.6c-4.4,0-7.8-1.7-10.5-5.1C497.9,357.9,496.6,353.1,496.6,347z M506.5,347.7c0,3.5,0.6,6.1,1.8,8
					c1.2,1.9,3,2.8,5.3,2.8c3.1,0,5.2-1.3,6.5-3.9V340c-1.2-2.6-3.4-3.9-6.4-3.9C508.9,336.1,506.5,340,506.5,347.7z"/>
				<path d="M554.6,366.5c-5.4,0-9.8-1.7-13.2-5c-3.4-3.3-5.1-7.8-5.1-13.3v-1c0-3.7,0.7-7,2.2-10c1.4-2.9,3.5-5.2,6.1-6.8
					c2.6-1.6,5.6-2.4,9-2.4c5.1,0,9,1.6,11.9,4.8c2.9,3.2,4.4,7.7,4.4,13.6v4h-23.5c0.3,2.4,1.3,4.4,2.9,5.8
					c1.6,1.5,3.6,2.2,6.1,2.2c3.8,0,6.8-1.4,8.9-4.1l4.9,5.4c-1.5,2.1-3.5,3.7-6,4.9C560.5,365.9,557.7,366.5,554.6,366.5z
					 M553.5,336.1c-2,0-3.5,0.7-4.8,2c-1.2,1.3-2,3.2-2.3,5.7h13.7V343c0-2.2-0.6-3.9-1.8-5.1C557.2,336.7,555.6,336.1,553.5,336.1z
					 M554.4,313.3h10.8l-9.5,10.6h-8L554.4,313.3z"/>
				<path d="M578.1,365.8v-29.7h-5.5v-7.2h5.5v-3.1c0-4.1,1.2-7.4,3.6-9.7c2.4-2.3,5.7-3.4,10-3.4c1.4,0,3,0.2,5,0.7l-0.1,7.6
					c-0.8-0.2-1.8-0.3-3-0.3c-3.7,0-5.6,1.8-5.6,5.3v3h7.3v7.2H588v29.7H578.1z"/>
				<path d="M600.4,319.2c0-1.5,0.5-2.7,1.5-3.7c1-1,2.3-1.4,4-1.4c1.7,0,3,0.5,4,1.4c1,1,1.5,2.2,1.5,3.7c0,1.5-0.5,2.7-1.5,3.7
					c-1,1-2.4,1.4-4,1.4c-1.7,0-3-0.5-4-1.4S600.4,320.7,600.4,319.2z M610.9,365.8H601v-37h9.9V365.8z"/>
				<path d="M634.4,358.5c1.8,0,3.3-0.5,4.4-1.5c1.1-1,1.7-2.3,1.8-4h9.3c0,2.5-0.7,4.8-2.1,6.9c-1.3,2.1-3.2,3.7-5.5,4.9
					c-2.3,1.2-4.9,1.7-7.7,1.7c-5.3,0-9.5-1.7-12.5-5c-3.1-3.4-4.6-8-4.6-13.9v-0.6c0-5.7,1.5-10.2,4.5-13.6c3-3.4,7.2-5.1,12.5-5.1
					c4.6,0,8.3,1.3,11.1,3.9c2.8,2.6,4.2,6.1,4.3,10.5h-9.3c0-1.9-0.6-3.5-1.8-4.7c-1.1-1.2-2.6-1.8-4.5-1.8c-2.3,0-4,0.8-5.2,2.5
					c-1.2,1.7-1.8,4.4-1.8,8.2v1c0,3.8,0.6,6.5,1.7,8.2S632.1,358.5,634.4,358.5z"/>
				<path d="M655.5,319.2c0-1.5,0.5-2.7,1.5-3.7c1-1,2.3-1.4,4-1.4c1.7,0,3,0.5,4,1.4c1,1,1.5,2.2,1.5,3.7c0,1.5-0.5,2.7-1.5,3.7
					c-1,1-2.4,1.4-4,1.4c-1.7,0-3-0.5-4-1.4S655.5,320.7,655.5,319.2z M666,365.8h-9.9v-37h9.9V365.8z"/>
				<path d="M685.9,319.7v9.1h6.3v7.2h-6.3v18.5c0,1.4,0.3,2.3,0.8,2.9c0.5,0.6,1.5,0.9,3,0.9c1.1,0,2.1-0.1,2.9-0.2v7.5
					c-1.9,0.6-3.9,0.9-6,0.9c-6.9,0-10.5-3.5-10.6-10.5v-19.9h-5.4v-7.2h5.4v-9.1H685.9z"/>
				<path d="M719.2,365.8c-0.5-0.9-0.8-2-1-3.3c-2.4,2.7-5.5,4-9.3,4c-3.6,0-6.6-1-9-3.1c-2.4-2.1-3.6-4.7-3.6-7.9
					c0-3.9,1.5-6.9,4.4-9c2.9-2.1,7.1-3.2,12.6-3.2h4.5v-2.1c0-1.7-0.4-3.1-1.3-4.1c-0.9-1-2.3-1.5-4.2-1.5c-1.7,0-3,0.4-3.9,1.2
					c-0.9,0.8-1.4,1.9-1.4,3.3h-9.9c0-2.1,0.7-4.1,2-5.9c1.3-1.8,3.2-3.3,5.6-4.3c2.4-1,5.1-1.6,8.1-1.6c4.6,0,8.2,1.1,10.9,3.4
					c2.7,2.3,4,5.5,4,9.7v16c0,3.5,0.5,6.2,1.5,8v0.6H719.2z M711,358.9c1.5,0,2.8-0.3,4-1c1.2-0.7,2.1-1.5,2.7-2.6V349h-3.7
					c-4.9,0-7.6,1.7-7.9,5.1l0,0.6c0,1.2,0.4,2.2,1.3,3C708.3,358.5,709.5,358.9,711,358.9z"/>
				<path d="M735.2,319.2c0-1.5,0.5-2.7,1.5-3.7c1-1,2.3-1.4,4-1.4c1.7,0,3,0.5,4,1.4c1,1,1.5,2.2,1.5,3.7c0,1.5-0.5,2.7-1.5,3.7
					c-1,1-2.4,1.4-4,1.4c-1.7,0-3-0.5-4-1.4S735.2,320.7,735.2,319.2z M745.7,365.8h-9.9v-37h9.9V365.8z"/>
				<path d="M774.6,338.1c-1.3-0.2-2.5-0.3-3.6-0.3c-3.7,0-6.2,1.3-7.3,3.8v24.2h-9.9v-37h9.3l0.3,4.4c2-3.4,4.7-5.1,8.2-5.1
					c1.1,0,2.1,0.1,3.1,0.4L774.6,338.1z"/>
				<path d="M795.8,366.5c-5.4,0-9.8-1.7-13.2-5c-3.4-3.3-5.1-7.8-5.1-13.3v-1c0-3.7,0.7-7,2.2-10c1.4-2.9,3.5-5.2,6.1-6.8
					c2.6-1.6,5.6-2.4,9-2.4c5.1,0,9,1.6,11.9,4.8c2.9,3.2,4.4,7.7,4.4,13.6v4h-23.5c0.3,2.4,1.3,4.4,2.9,5.8
					c1.6,1.5,3.6,2.2,6.1,2.2c3.8,0,6.8-1.4,8.9-4.1l4.9,5.4c-1.5,2.1-3.5,3.7-6,4.9C801.6,365.9,798.8,366.5,795.8,366.5z
					 M794.6,336.1c-2,0-3.5,0.7-4.8,2c-1.2,1.3-2,3.2-2.3,5.7h13.7V343c0-2.2-0.6-3.9-1.8-5.1C798.4,336.7,796.7,336.1,794.6,336.1z
					"/>
				<path d="M835,363.4c0-0.8,0.2-1.4,0.8-2c0.5-0.5,1.2-0.8,2.1-0.8c0.9,0,1.6,0.3,2.1,0.8c0.5,0.5,0.8,1.2,0.8,2
					c0,0.8-0.3,1.4-0.8,1.9c-0.5,0.5-1.2,0.8-2.1,0.8c-0.9,0-1.5-0.3-2.1-0.8C835.3,364.8,835,364.1,835,363.4z M839.5,351.9h-3.8
					l-0.2-35.9h4.2L839.5,351.9z"/>
			</g>
		</g>
	</g>
</g>
</svg>
