<?xml version="1.0" encoding="utf-8"?>
<!-- Generator: Adobe Illustrator 21.0.0, SVG Export Plug-In . SVG Version: 6.00 Build 0)  -->
<svg version="1.1" xmlns="http://www.w3.org/2000/svg" xmlns:xlink="http://www.w3.org/1999/xlink" x="0px" y="0px"
	 viewBox="0 0 1197.2 516" style="enable-background:new 0 0 1197.2 516;" xml:space="preserve">
<style type="text/css">
	.st0{fill:#0E97E7;}
	.st1{fill:#FFFFFF;}
	.st2{fill:none;stroke:#FFFFFF;stroke-width:18;stroke-miterlimit:10;}
	.st3{fill:none;stroke:#FFFFFF;stroke-width:5;stroke-miterlimit:10;}
	.st4{opacity:0.5;fill:none;stroke:#000000;stroke-width:1.5;stroke-miterlimit:10;}
	.st5{fill:none;stroke:#000000;stroke-width:8;stroke-miterlimit:10;}
	.st6{fill:#4F4F4F;}
	.st7{fill:none;stroke:#FFFFFF;stroke-width:16;stroke-miterlimit:10;}
	.st8{fill:none;stroke:#DF0920;stroke-width:18;stroke-miterlimit:10;}
	.st9{fill:none;stroke:#3E4098;stroke-width:18;stroke-miterlimit:10;}
	.st10{fill:#3E4098;}
	.st11{fill:none;stroke:#59C24F;stroke-width:18;stroke-miterlimit:10;}
	.st12{fill:none;}
</style>
<g id="Home_x5F_Claire_x5F_Juglair_x5F_St_x5F_Nazaire_xA0_Image_1_">
</g>
<g id="Calque_3">
</g>
<g id="bulles">
	<g>
		<path class="st1" d="M1199.8,482c0,18.8-15.2,34-34,34h-1018c-18.8,0-34-15.2-34-34V34c0-18.8,15.2-34,34-34h1018
			c18.8,0,34,15.2,34,34V482z"/>
		<polygon class="st1" points="124.9,76 -2.6,76 113.8,172 		"/>
		<g>
			<g>
				<path d="M235.2,141.9h-23.3v20.3h26.8v3.6h-31V116h30.8v3.6h-26.6v18.8h23.3V141.9z"/>
				<path d="M250.5,128.7l0.1,6.3c1.4-2.3,3.1-4,5.2-5.2c2.1-1.2,4.4-1.8,6.9-1.8c4,0,6.9,1.1,8.9,3.3c1.9,2.2,2.9,5.6,2.9,10v24.3
					h-4.1v-24.3c0-3.3-0.7-5.8-2.1-7.4c-1.4-1.6-3.6-2.4-6.6-2.4c-2.5,0-4.8,0.8-6.7,2.4c-1.9,1.6-3.4,3.7-4.3,6.4v25.3h-4.1v-37
					H250.5z"/>
				<path d="M319.1,132.2c-0.9-0.2-1.8-0.2-2.8-0.2c-2.6,0-4.7,0.7-6.5,2.1c-1.8,1.4-3,3.5-3.8,6.2v25.4h-4.1v-37h4l0.1,5.9
					c2.2-4.4,5.6-6.6,10.4-6.6c1.1,0,2,0.1,2.7,0.4L319.1,132.2z"/>
				<path d="M339.3,166.4c-3.1,0-6-0.8-8.5-2.3c-2.5-1.5-4.5-3.7-5.9-6.5c-1.4-2.8-2.1-5.9-2.1-9.3v-1.5c0-3.6,0.7-6.8,2.1-9.6
					c1.4-2.8,3.3-5.1,5.8-6.7c2.5-1.6,5.1-2.4,8-2.4c4.5,0,8,1.5,10.7,4.6c2.6,3.1,3.9,7.3,3.9,12.6v2.3h-26.4v0.8
					c0,4.2,1.2,7.7,3.6,10.5c2.4,2.8,5.4,4.2,9.1,4.2c2.2,0,4.1-0.4,5.8-1.2c1.7-0.8,3.2-2.1,4.6-3.8l2.6,1.9
					C349.4,164.2,345,166.4,339.3,166.4z M338.5,131.5c-3.1,0-5.7,1.1-7.8,3.4s-3.4,5.3-3.8,9.1h22.2v-0.4c-0.1-3.6-1.1-6.4-3-8.7
					C344.1,132.7,341.6,131.5,338.5,131.5z M343.1,113.6h5l-7.9,9.5l-3.6,0L343.1,113.6z"/>
				<path d="M384.5,165.7c-0.4-1.2-0.7-2.9-0.8-5.2c-1.4,1.9-3.3,3.3-5.5,4.3c-2.2,1-4.6,1.5-7.1,1.5c-3.6,0-6.4-1-8.6-3
					c-2.2-2-3.3-4.5-3.3-7.5c0-3.6,1.5-6.4,4.5-8.5c3-2.1,7.2-3.1,12.5-3.1h7.4V140c0-2.6-0.8-4.7-2.4-6.2c-1.6-1.5-4-2.3-7.1-2.3
					c-2.8,0-5.2,0.7-7.1,2.2c-1.9,1.5-2.8,3.2-2.8,5.3l-4.1,0c0-2.9,1.4-5.5,4.1-7.6c2.7-2.2,6.1-3.2,10.1-3.2c4.1,0,7.4,1,9.8,3.1
					c2.4,2.1,3.6,4.9,3.7,8.6v17.5c0,3.6,0.4,6.3,1.1,8v0.4H384.5z M371.6,162.8c2.7,0,5.2-0.7,7.3-2c2.2-1.3,3.7-3.1,4.7-5.3v-8.1
					h-7.3c-4.1,0-7.3,0.8-9.6,2.2c-2.3,1.4-3.5,3.4-3.5,6c0,2.1,0.8,3.8,2.3,5.2C367.1,162.1,369.1,162.8,371.6,162.8z"/>
				<path d="M403.2,165.7h-4.1v-52.5h4.1V165.7z"/>
				<path d="M414.1,118.1c0-0.8,0.2-1.4,0.8-2c0.5-0.5,1.2-0.8,2.1-0.8c0.9,0,1.6,0.3,2.1,0.8c0.5,0.5,0.8,1.2,0.8,2
					c0,0.8-0.3,1.4-0.8,1.9c-0.5,0.5-1.2,0.8-2.1,0.8c-0.9,0-1.5-0.3-2.1-0.8C414.3,119.5,414.1,118.8,414.1,118.1z M418.9,165.7
					h-4.1v-37h4.1V165.7z"/>
				<path d="M436.3,119.3v9.5h7.7v3.3h-7.7v24.7c0,2.1,0.4,3.6,1.1,4.6c0.7,1,2,1.5,3.7,1.5c0.7,0,1.8-0.1,3.3-0.3l0.2,3.3
					c-1.1,0.4-2.5,0.6-4.4,0.6c-2.8,0-4.8-0.8-6.1-2.4c-1.3-1.6-1.9-4-1.9-7.2v-24.7h-6.8v-3.3h6.8v-9.5H436.3z"/>
				<path d="M466.8,166.4c-3.1,0-6-0.8-8.5-2.3c-2.5-1.5-4.5-3.7-5.9-6.5c-1.4-2.8-2.1-5.9-2.1-9.3v-1.5c0-3.6,0.7-6.8,2.1-9.6
					c1.4-2.8,3.3-5.1,5.8-6.7c2.5-1.6,5.1-2.4,8-2.4c4.5,0,8,1.5,10.7,4.6c2.6,3.1,3.9,7.3,3.9,12.6v2.3h-26.4v0.8
					c0,4.2,1.2,7.7,3.6,10.5c2.4,2.8,5.4,4.2,9.1,4.2c2.2,0,4.1-0.4,5.8-1.2c1.7-0.8,3.2-2.1,4.6-3.8l2.6,1.9
					C476.9,164.2,472.5,166.4,466.8,166.4z M466,131.5c-3.1,0-5.7,1.1-7.8,3.4s-3.4,5.3-3.8,9.1h22.2v-0.4c-0.1-3.6-1.1-6.4-3-8.7
					C471.7,132.7,469.1,131.5,466,131.5z M470.6,113.6h5l-7.9,9.5l-3.6,0L470.6,113.6z"/>
				<path d="M487.8,175l-2.4-1.8c2.1-2.8,3.1-5.7,3.2-8.6v-5.3h4v4.3C492.6,168.3,491,172.1,487.8,175z"/>
				<path d="M542.5,115.6v3.6h-0.5c-5.9,0-10.6,1.8-14,5.3s-5.3,8.4-5.7,14.6c1.4-1.9,3.1-3.4,5.2-4.4c2.1-1,4.5-1.6,7.1-1.6
					c4.4,0,7.9,1.5,10.4,4.5c2.6,3,3.9,7,3.9,11.8c0,3.2-0.6,6.2-1.8,8.8c-1.2,2.6-2.9,4.6-5.2,6.1s-4.8,2.2-7.7,2.2
					c-4.8,0-8.6-1.7-11.6-5.2c-3-3.5-4.5-7.9-4.5-13.4v-4.1c0-8.9,2-15.8,6.1-20.7c4.1-4.9,9.8-7.4,17.3-7.5H542.5z M534,136.6
					c-2.6,0-5,0.8-7.3,2.3s-3.7,3.5-4.5,5.9v3.5c0,4.3,1.1,7.9,3.3,10.6c2.2,2.7,5.1,4.1,8.7,4.1c3.2,0,5.8-1.3,7.7-3.8s3-5.7,3-9.6
					c0-3.9-1-7.1-3-9.4C540,137.8,537.4,136.6,534,136.6z"/>
				<path d="M582.7,142.7c-1.5,2.1-3.3,3.8-5.4,5c-2.2,1.2-4.5,1.8-7,1.8c-2.8,0-5.3-0.7-7.5-2.2c-2.2-1.5-3.8-3.5-5-6
					c-1.2-2.6-1.8-5.4-1.8-8.4c0-3.3,0.6-6.3,1.9-9c1.3-2.7,3-4.8,5.3-6.3c2.3-1.5,4.9-2.2,7.8-2.2c5,0,8.9,1.7,11.7,5.2
					c2.8,3.5,4.2,8.5,4.2,14.9v3.7c0,9-1.9,15.7-5.7,20.2s-9.7,6.8-17.5,6.8h-0.8l0-3.6h1.4c5.9-0.1,10.5-1.8,13.6-5.1
					C580.9,154.2,582.6,149.3,582.7,142.7z M570.8,145.9c2.7,0,5.2-0.8,7.4-2.4s3.7-3.7,4.6-6.3v-2.4c0-5-1.1-9-3.2-11.7
					c-2.1-2.8-5-4.2-8.5-4.2c-3.2,0-5.9,1.3-8,3.9c-2.1,2.6-3.1,5.9-3.1,9.8c0,3.8,1,7,3,9.5C565,144.6,567.6,145.9,570.8,145.9z"/>
				<path d="M595,125.5c0-3,0.9-5.4,2.8-7.4c1.8-1.9,4.2-2.9,7-2.9c2.8,0,5.2,1,7,2.9c1.8,1.9,2.8,4.5,2.8,7.6v2.4
					c0,2.9-0.9,5.3-2.7,7.3c-1.8,1.9-4.1,2.9-7,2.9c-2.8,0-5.1-1-7-2.9c-1.9-1.9-2.8-4.4-2.8-7.6V125.5z M598.4,128.1
					c0,2.1,0.6,3.9,1.8,5.2s2.8,2.1,4.7,2.1c1.9,0,3.5-0.7,4.6-2.1c1.2-1.4,1.7-3.2,1.7-5.4v-2.5c0-2.1-0.6-3.9-1.8-5.3
					c-1.2-1.4-2.7-2.1-4.6-2.1c-1.9,0-3.4,0.7-4.6,2.1c-1.2,1.4-1.8,3.2-1.8,5.5V128.1z M606.1,161.6l-2.6-1.6l24.3-38.9l2.6,1.6
					L606.1,161.6z M620.1,153.5c0-3,0.9-5.4,2.8-7.3c1.8-1.9,4.2-2.9,7-2.9s5.1,1,7,2.9c1.9,1.9,2.8,4.5,2.8,7.6v2.4
					c0,3-0.9,5.4-2.8,7.3c-1.8,1.9-4.2,2.9-7,2.9s-5.1-1-7-2.9s-2.8-4.4-2.8-7.5V153.5z M623.4,156.2c0,2.1,0.6,3.9,1.8,5.3
					s2.8,2.1,4.7,2.1c2,0,3.5-0.7,4.7-2.1c1.1-1.4,1.7-3.2,1.7-5.4v-2.5c0-2.2-0.6-4-1.8-5.3s-2.7-2-4.7-2c-1.9,0-3.5,0.7-4.6,2
					c-1.2,1.3-1.8,3.2-1.8,5.4V156.2z"/>
				<path d="M663.7,146.9c0-5.7,1.3-10.3,3.8-13.7c2.6-3.4,6-5.1,10.4-5.1c5,0,8.8,2,11.4,5.9v-20.7h4.1v52.5h-3.8l-0.2-4.9
					c-2.6,3.7-6.5,5.6-11.6,5.6c-4.3,0-7.7-1.7-10.3-5.1c-2.6-3.4-3.9-8.1-3.9-13.9V146.9z M667.9,147.6c0,4.7,0.9,8.4,2.8,11.2
					c1.9,2.7,4.6,4.1,8,4.1c5,0,8.6-2.2,10.7-6.7v-17.4c-2.1-4.8-5.7-7.2-10.7-7.2c-3.4,0-6.1,1.3-8,4.1
					C668.8,138.4,667.9,142.3,667.9,147.6z"/>
				<path d="M718.6,166.4c-3.1,0-6-0.8-8.5-2.3c-2.5-1.5-4.5-3.7-5.9-6.5c-1.4-2.8-2.1-5.9-2.1-9.3v-1.5c0-3.6,0.7-6.8,2.1-9.6
					c1.4-2.8,3.3-5.1,5.8-6.7c2.5-1.6,5.1-2.4,8-2.4c4.5,0,8,1.5,10.7,4.6c2.6,3.1,3.9,7.3,3.9,12.6v2.3h-26.4v0.8
					c0,4.2,1.2,7.7,3.6,10.5c2.4,2.8,5.4,4.2,9.1,4.2c2.2,0,4.1-0.4,5.8-1.2c1.7-0.8,3.2-2.1,4.6-3.8l2.6,1.9
					C728.7,164.2,724.3,166.4,718.6,166.4z M717.8,131.5c-3.1,0-5.7,1.1-7.8,3.4s-3.4,5.3-3.8,9.1h22.2v-0.4c-0.1-3.6-1.1-6.4-3-8.7
					C723.5,132.7,720.9,131.5,717.8,131.5z"/>
				<path d="M762.6,156.3c0-2-0.8-3.7-2.4-4.9c-1.6-1.2-4.1-2.2-7.4-2.9c-3.3-0.7-5.8-1.5-7.6-2.4c-1.8-0.9-3.2-2-4-3.3
					s-1.3-2.9-1.3-4.7c0-2.9,1.2-5.3,3.7-7.2c2.4-1.9,5.6-2.9,9.4-2.9c4.1,0,7.4,1,9.9,3.1c2.5,2,3.7,4.7,3.7,8h-4.1
					c0-2.2-0.9-4-2.7-5.4c-1.8-1.4-4.1-2.2-6.9-2.2c-2.7,0-4.8,0.6-6.5,1.8c-1.6,1.2-2.4,2.8-2.4,4.7c0,1.8,0.7,3.3,2,4.3
					c1.4,1,3.8,1.9,7.4,2.8c3.6,0.8,6.3,1.7,8.1,2.7s3.1,2.1,4,3.5c0.9,1.3,1.3,3,1.3,4.9c0,3.1-1.3,5.6-3.8,7.5
					c-2.5,1.9-5.8,2.8-9.9,2.8c-4.3,0-7.8-1-10.5-3.1c-2.7-2.1-4-4.7-4-7.9h4.1c0.2,2.4,1.2,4.3,3,5.6c1.9,1.3,4.3,2,7.4,2
					c2.8,0,5.1-0.6,6.9-1.9C761.7,159.8,762.6,158.2,762.6,156.3z"/>
				<path d="M792.7,118.1c0-0.8,0.2-1.4,0.8-2c0.5-0.5,1.2-0.8,2.1-0.8c0.9,0,1.6,0.3,2.1,0.8c0.5,0.5,0.8,1.2,0.8,2
					c0,0.8-0.3,1.4-0.8,1.9c-0.5,0.5-1.2,0.8-2.1,0.8c-0.9,0-1.5-0.3-2.1-0.8C792.9,119.5,792.7,118.8,792.7,118.1z M797.5,165.7
					h-4.1v-37h4.1V165.7z"/>
				<path d="M812.5,128.7l0.1,6.3c1.4-2.3,3.1-4,5.2-5.2c2.1-1.2,4.4-1.8,6.9-1.8c4,0,6.9,1.1,8.9,3.3c1.9,2.2,2.9,5.6,2.9,10v24.3
					h-4.1v-24.3c0-3.3-0.7-5.8-2.1-7.4c-1.4-1.6-3.6-2.4-6.6-2.4c-2.5,0-4.8,0.8-6.7,2.4c-1.9,1.6-3.4,3.7-4.3,6.4v25.3h-4.1v-37
					H812.5z"/>
				<path d="M858.6,160.1l11.2-31.3h4.2l-13.8,37h-3.3l-13.9-37h4.2L858.6,160.1z"/>
				<path d="M894.6,166.4c-3.1,0-6-0.8-8.5-2.3c-2.5-1.5-4.5-3.7-5.9-6.5c-1.4-2.8-2.1-5.9-2.1-9.3v-1.5c0-3.6,0.7-6.8,2.1-9.6
					c1.4-2.8,3.3-5.1,5.8-6.7c2.5-1.6,5.1-2.4,8-2.4c4.5,0,8,1.5,10.7,4.6c2.6,3.1,3.9,7.3,3.9,12.6v2.3h-26.4v0.8
					c0,4.2,1.2,7.7,3.6,10.5c2.4,2.8,5.4,4.2,9.1,4.2c2.2,0,4.1-0.4,5.8-1.2c1.7-0.8,3.2-2.1,4.6-3.8l2.6,1.9
					C904.7,164.2,900.3,166.4,894.6,166.4z M893.8,131.5c-3.1,0-5.7,1.1-7.8,3.4s-3.4,5.3-3.8,9.1h22.2v-0.4c-0.1-3.6-1.1-6.4-3-8.7
					C899.4,132.7,896.9,131.5,893.8,131.5z"/>
				<path d="M938.6,156.3c0-2-0.8-3.7-2.4-4.9c-1.6-1.2-4.1-2.2-7.4-2.9c-3.3-0.7-5.8-1.5-7.6-2.4c-1.8-0.9-3.2-2-4-3.3
					s-1.3-2.9-1.3-4.7c0-2.9,1.2-5.3,3.7-7.2c2.4-1.9,5.6-2.9,9.4-2.9c4.1,0,7.4,1,9.9,3.1c2.5,2,3.7,4.7,3.7,8h-4.1
					c0-2.2-0.9-4-2.7-5.4c-1.8-1.4-4.1-2.2-6.9-2.2c-2.7,0-4.8,0.6-6.5,1.8c-1.6,1.2-2.4,2.8-2.4,4.7c0,1.8,0.7,3.3,2,4.3
					c1.4,1,3.8,1.9,7.4,2.8c3.6,0.8,6.3,1.7,8.1,2.7s3.1,2.1,4,3.5c0.9,1.3,1.3,3,1.3,4.9c0,3.1-1.3,5.6-3.8,7.5
					c-2.5,1.9-5.8,2.8-9.9,2.8c-4.3,0-7.8-1-10.5-3.1c-2.7-2.1-4-4.7-4-7.9h4.1c0.2,2.4,1.2,4.3,3,5.6c1.9,1.3,4.3,2,7.4,2
					c2.8,0,5.1-0.6,6.9-1.9C937.7,159.8,938.6,158.2,938.6,156.3z"/>
				<path d="M958.2,119.3v9.5h7.7v3.3h-7.7v24.7c0,2.1,0.4,3.6,1.1,4.6c0.7,1,2,1.5,3.7,1.5c0.7,0,1.8-0.1,3.3-0.3l0.2,3.3
					c-1.1,0.4-2.5,0.6-4.4,0.6c-2.8,0-4.8-0.8-6.1-2.4c-1.3-1.6-1.9-4-1.9-7.2v-24.7h-6.8v-3.3h6.8v-9.5H958.2z"/>
				<path d="M974.1,118.1c0-0.8,0.2-1.4,0.8-2c0.5-0.5,1.2-0.8,2.1-0.8c0.9,0,1.6,0.3,2.1,0.8c0.5,0.5,0.8,1.2,0.8,2
					c0,0.8-0.3,1.4-0.8,1.9c-0.5,0.5-1.2,0.8-2.1,0.8c-0.9,0-1.5-0.3-2.1-0.8C974.4,119.5,974.1,118.8,974.1,118.1z M978.9,165.7
					h-4.1v-37h4.1V165.7z"/>
				<path d="M1012.2,156.3c0-2-0.8-3.7-2.4-4.9c-1.6-1.2-4.1-2.2-7.4-2.9c-3.3-0.7-5.8-1.5-7.6-2.4c-1.8-0.9-3.2-2-4-3.3
					s-1.3-2.9-1.3-4.7c0-2.9,1.2-5.3,3.7-7.2c2.4-1.9,5.6-2.9,9.4-2.9c4.1,0,7.4,1,9.9,3.1c2.5,2,3.7,4.7,3.7,8h-4.1
					c0-2.2-0.9-4-2.7-5.4c-1.8-1.4-4.1-2.2-6.9-2.2c-2.7,0-4.8,0.6-6.5,1.8c-1.6,1.2-2.4,2.8-2.4,4.7c0,1.8,0.7,3.3,2,4.3
					c1.4,1,3.8,1.9,7.4,2.8c3.6,0.8,6.3,1.7,8.1,2.7s3.1,2.1,4,3.5c0.9,1.3,1.3,3,1.3,4.9c0,3.1-1.3,5.6-3.8,7.5
					c-2.5,1.9-5.8,2.8-9.9,2.8c-4.3,0-7.8-1-10.5-3.1c-2.7-2.1-4-4.7-4-7.9h4.1c0.2,2.4,1.2,4.3,3,5.6c1.9,1.3,4.3,2,7.4,2
					c2.8,0,5.1-0.6,6.9-1.9C1011.3,159.8,1012.2,158.2,1012.2,156.3z"/>
				<path d="M1047.6,156.3c0-2-0.8-3.7-2.4-4.9c-1.6-1.2-4.1-2.2-7.4-2.9c-3.3-0.7-5.8-1.5-7.6-2.4c-1.8-0.9-3.2-2-4-3.3
					s-1.3-2.9-1.3-4.7c0-2.9,1.2-5.3,3.7-7.2c2.4-1.9,5.6-2.9,9.4-2.9c4.1,0,7.4,1,9.9,3.1c2.5,2,3.7,4.7,3.7,8h-4.1
					c0-2.2-0.9-4-2.7-5.4c-1.8-1.4-4.1-2.2-6.9-2.2c-2.7,0-4.8,0.6-6.5,1.8c-1.6,1.2-2.4,2.8-2.4,4.7c0,1.8,0.7,3.3,2,4.3
					c1.4,1,3.8,1.9,7.4,2.8c3.6,0.8,6.3,1.7,8.1,2.7s3.1,2.1,4,3.5c0.9,1.3,1.3,3,1.3,4.9c0,3.1-1.3,5.6-3.8,7.5
					c-2.5,1.9-5.8,2.8-9.9,2.8c-4.3,0-7.8-1-10.5-3.1c-2.7-2.1-4-4.7-4-7.9h4.1c0.2,2.4,1.2,4.3,3,5.6c1.9,1.3,4.3,2,7.4,2
					c2.8,0,5.1-0.6,6.9-1.9C1046.8,159.8,1047.6,158.2,1047.6,156.3z"/>
				<path d="M1075.3,166.4c-3.1,0-6-0.8-8.5-2.3c-2.5-1.5-4.5-3.7-5.9-6.5c-1.4-2.8-2.1-5.9-2.1-9.3v-1.5c0-3.6,0.7-6.8,2.1-9.6
					c1.4-2.8,3.3-5.1,5.8-6.7c2.5-1.6,5.1-2.4,8-2.4c4.5,0,8,1.5,10.7,4.6c2.6,3.1,3.9,7.3,3.9,12.6v2.3h-26.4v0.8
					c0,4.2,1.2,7.7,3.6,10.5c2.4,2.8,5.4,4.2,9.1,4.2c2.2,0,4.1-0.4,5.8-1.2c1.7-0.8,3.2-2.1,4.6-3.8l2.6,1.9
					C1085.3,164.2,1081,166.4,1075.3,166.4z M1074.5,131.5c-3.1,0-5.7,1.1-7.8,3.4s-3.4,5.3-3.8,9.1h22.2v-0.4
					c-0.1-3.6-1.1-6.4-3-8.7C1080.1,132.7,1077.6,131.5,1074.5,131.5z"/>
				<path d="M1109.8,145.5h-16.4V142h16.4V145.5z"/>
				<path d="M210.5,212.7l0.1,6c1.4-2.2,3.1-3.9,5.1-5c2.1-1.1,4.3-1.7,6.8-1.7c5.8,0,9.5,2.4,11.1,7.2c1.3-2.3,3.1-4.1,5.3-5.3
					c2.2-1.2,4.6-1.9,7.3-1.9c7.9,0,12,4.3,12.1,13v24.7h-4.1v-24.4c0-3.3-0.7-5.8-2.1-7.3c-1.4-1.6-3.7-2.4-6.9-2.4
					c-2.9,0-5.4,1-7.5,2.9c-2,1.9-3.2,4.1-3.4,6.8v24.5h-4.1V225c0-3.2-0.8-5.5-2.2-7.1c-1.5-1.6-3.7-2.3-6.8-2.3
					c-2.6,0-4.8,0.7-6.6,2.2c-1.8,1.5-3.2,3.7-4.1,6.5v25.4h-4.1v-37H210.5z"/>
				<path d="M283.1,250.4c-3.1,0-6-0.8-8.5-2.3c-2.5-1.5-4.5-3.7-5.9-6.5c-1.4-2.8-2.1-5.9-2.1-9.3v-1.5c0-3.6,0.7-6.8,2.1-9.6
					c1.4-2.8,3.3-5.1,5.8-6.7c2.5-1.6,5.1-2.4,8-2.4c4.5,0,8,1.5,10.7,4.6c2.6,3.1,3.9,7.3,3.9,12.6v2.3h-26.4v0.8
					c0,4.2,1.2,7.7,3.6,10.5c2.4,2.8,5.4,4.2,9.1,4.2c2.2,0,4.1-0.4,5.8-1.2c1.7-0.8,3.2-2.1,4.6-3.8l2.6,1.9
					C293.2,248.2,288.8,250.4,283.1,250.4z M282.4,215.5c-3.1,0-5.7,1.1-7.8,3.4s-3.4,5.3-3.8,9.1h22.2v-0.4c-0.1-3.6-1.1-6.4-3-8.7
					C288,216.7,285.5,215.5,282.4,215.5z"/>
				<path d="M308.9,212.7l0.1,6.3c1.4-2.3,3.1-4,5.2-5.2c2.1-1.2,4.4-1.8,6.9-1.8c4,0,6.9,1.1,8.9,3.3c1.9,2.2,2.9,5.6,2.9,10v24.3
					h-4.1v-24.3c0-3.3-0.7-5.8-2.1-7.4c-1.4-1.6-3.6-2.4-6.6-2.4c-2.5,0-4.8,0.8-6.7,2.4c-1.9,1.6-3.4,3.7-4.3,6.4v25.3H305v-37
					H308.9z"/>
				<path d="M349.8,203.3v9.5h7.7v3.3h-7.7v24.7c0,2.1,0.4,3.6,1.1,4.6c0.7,1,2,1.5,3.7,1.5c0.7,0,1.8-0.1,3.3-0.3l0.2,3.3
					c-1.1,0.4-2.5,0.6-4.4,0.6c-2.8,0-4.8-0.8-6.1-2.4c-1.3-1.6-1.9-4-1.9-7.2v-24.7h-6.8v-3.3h6.8v-9.5H349.8z"/>
				<path d="M388,240.3c0-2-0.8-3.7-2.4-4.9c-1.6-1.2-4.1-2.2-7.4-2.9c-3.3-0.7-5.8-1.5-7.6-2.4c-1.8-0.9-3.2-2-4-3.3
					s-1.3-2.9-1.3-4.7c0-2.9,1.2-5.3,3.7-7.2c2.4-1.9,5.6-2.9,9.4-2.9c4.1,0,7.4,1,9.9,3.1c2.5,2,3.7,4.7,3.7,8h-4.1
					c0-2.2-0.9-4-2.7-5.4c-1.8-1.4-4.1-2.2-6.9-2.2c-2.7,0-4.8,0.6-6.5,1.8c-1.6,1.2-2.4,2.8-2.4,4.7c0,1.8,0.7,3.3,2,4.3
					c1.4,1,3.8,1.9,7.4,2.8c3.6,0.8,6.3,1.7,8.1,2.7s3.1,2.1,4,3.5c0.9,1.3,1.3,3,1.3,4.9c0,3.1-1.3,5.6-3.8,7.5
					c-2.5,1.9-5.8,2.8-9.9,2.8c-4.3,0-7.8-1-10.5-3.1c-2.7-2.1-4-4.7-4-7.9h4.1c0.2,2.4,1.2,4.3,3,5.6c1.9,1.3,4.3,2,7.4,2
					c2.8,0,5.1-0.6,6.9-1.9C387.2,243.8,388,242.2,388,240.3z"/>
				<path d="M416.7,230.9c0-5.7,1.3-10.3,3.8-13.7c2.6-3.4,6-5.1,10.4-5.1c5,0,8.8,2,11.4,5.9v-20.7h4.1v52.5h-3.8l-0.2-4.9
					c-2.6,3.7-6.5,5.6-11.6,5.6c-4.3,0-7.7-1.7-10.3-5.1c-2.6-3.4-3.9-8.1-3.9-13.9V230.9z M420.9,231.6c0,4.7,0.9,8.4,2.8,11.2
					c1.9,2.7,4.6,4.1,8,4.1c5,0,8.6-2.2,10.7-6.7v-17.4c-2.1-4.8-5.7-7.2-10.7-7.2c-3.4,0-6.1,1.3-8,4.1
					C421.8,222.4,420.9,226.3,420.9,231.6z"/>
				<path d="M471.6,250.4c-3.1,0-6-0.8-8.5-2.3c-2.5-1.5-4.5-3.7-5.9-6.5c-1.4-2.8-2.1-5.9-2.1-9.3v-1.5c0-3.6,0.7-6.8,2.1-9.6
					c1.4-2.8,3.3-5.1,5.8-6.7c2.5-1.6,5.1-2.4,8-2.4c4.5,0,8,1.5,10.7,4.6c2.6,3.1,3.9,7.3,3.9,12.6v2.3h-26.4v0.8
					c0,4.2,1.2,7.7,3.6,10.5c2.4,2.8,5.4,4.2,9.1,4.2c2.2,0,4.1-0.4,5.8-1.2c1.7-0.8,3.2-2.1,4.6-3.8l2.6,1.9
					C481.7,248.2,477.3,250.4,471.6,250.4z M470.8,215.5c-3.1,0-5.7,1.1-7.8,3.4s-3.4,5.3-3.8,9.1h22.2v-0.4c-0.1-3.6-1.1-6.4-3-8.7
					C476.4,216.7,473.9,215.5,470.8,215.5z"/>
				<path d="M515,249.7h-4.1v-52.5h4.1V249.7z"/>
				<path d="M549.5,249.7c-0.4-1.2-0.7-2.9-0.8-5.2c-1.4,1.9-3.3,3.3-5.5,4.3c-2.2,1-4.6,1.5-7.1,1.5c-3.6,0-6.4-1-8.6-3
					c-2.2-2-3.3-4.5-3.3-7.5c0-3.6,1.5-6.4,4.5-8.5c3-2.1,7.2-3.1,12.5-3.1h7.4V224c0-2.6-0.8-4.7-2.4-6.2c-1.6-1.5-4-2.3-7.1-2.3
					c-2.8,0-5.2,0.7-7.1,2.2c-1.9,1.5-2.8,3.2-2.8,5.3l-4.1,0c0-2.9,1.4-5.5,4.1-7.6c2.7-2.2,6.1-3.2,10.1-3.2c4.1,0,7.4,1,9.8,3.1
					c2.4,2.1,3.6,4.9,3.7,8.6v17.5c0,3.6,0.4,6.3,1.1,8v0.4H549.5z M536.6,246.8c2.7,0,5.2-0.7,7.3-2c2.2-1.3,3.7-3.1,4.7-5.3v-8.1
					h-7.3c-4.1,0-7.3,0.8-9.6,2.2c-2.3,1.4-3.5,3.4-3.5,6c0,2.1,0.8,3.8,2.3,5.2C532.2,246.1,534.2,246.8,536.6,246.8z"/>
				<path d="M592.2,244.1l11.2-31.3h4.2l-13.8,37h-3.3l-13.9-37h4.2L592.2,244.1z"/>
				<path d="M614.1,202.1c0-0.8,0.2-1.4,0.8-2c0.5-0.5,1.2-0.8,2.1-0.8c0.9,0,1.6,0.3,2.1,0.8c0.5,0.5,0.8,1.2,0.8,2
					c0,0.8-0.3,1.4-0.8,1.9c-0.5,0.5-1.2,0.8-2.1,0.8c-0.9,0-1.5-0.3-2.1-0.8C614.3,203.5,614.1,202.8,614.1,202.1z M618.9,249.7
					h-4.1v-37h4.1V249.7z"/>
				<path d="M634.6,249.7h-4.1v-52.5h4.1V249.7z"/>
				<path d="M650.3,249.7h-4.1v-52.5h4.1V249.7z"/>
				<path d="M675.7,250.4c-3.1,0-6-0.8-8.5-2.3c-2.5-1.5-4.5-3.7-5.9-6.5c-1.4-2.8-2.1-5.9-2.1-9.3v-1.5c0-3.6,0.7-6.8,2.1-9.6
					c1.4-2.8,3.3-5.1,5.8-6.7c2.5-1.6,5.1-2.4,8-2.4c4.5,0,8,1.5,10.7,4.6c2.6,3.1,3.9,7.3,3.9,12.6v2.3h-26.4v0.8
					c0,4.2,1.2,7.7,3.6,10.5c2.4,2.8,5.4,4.2,9.1,4.2c2.2,0,4.1-0.4,5.8-1.2c1.7-0.8,3.2-2.1,4.6-3.8l2.6,1.9
					C685.8,248.2,681.4,250.4,675.7,250.4z M675,215.5c-3.1,0-5.7,1.1-7.8,3.4s-3.4,5.3-3.8,9.1h22.2v-0.4c-0.1-3.6-1.1-6.4-3-8.7
					C680.6,216.7,678,215.5,675,215.5z"/>
				<path d="M713.9,229.5c0-5.2,0.7-10.2,2.1-14.9c1.4-4.7,3.4-8.9,6.2-12.5c2.7-3.6,5.7-6.2,8.8-7.6l1.9,5.3
					c-3.3,2.5-5.9,6.3-7.8,11.4c-1.9,5.2-2.8,11.2-2.8,18v1.1c0,6.9,0.9,12.9,2.8,18.1s4.5,9,7.8,11.6l-1.9,5.2
					c-3.1-1.4-6-3.8-8.7-7.4c-2.7-3.5-4.7-7.6-6.1-12.2c-1.4-4.6-2.2-9.4-2.3-14.4V229.5z"/>
				<path d="M747.7,220.5h5.3c2.5,0,4.4-0.6,5.6-1.9c1.2-1.3,1.8-2.9,1.8-5c0-2-0.6-3.6-1.8-4.7c-1.2-1.1-2.8-1.7-4.9-1.7
					c-1.9,0-3.5,0.5-4.8,1.6c-1.3,1-1.9,2.4-1.9,4H737c0-2.6,0.7-4.9,2.1-7c1.4-2.1,3.4-3.7,5.9-4.8s5.3-1.7,8.3-1.7
					c5.3,0,9.4,1.3,12.4,3.8c3,2.5,4.5,6,4.5,10.4c0,2.3-0.7,4.4-2.1,6.3c-1.4,1.9-3.2,3.4-5.5,4.4c2.8,1,4.9,2.5,6.3,4.5
					c1.4,2,2.1,4.4,2.1,7.1c0,4.4-1.6,8-4.8,10.6s-7.5,4-12.8,4c-5,0-9-1.3-12.2-3.9c-3.2-2.6-4.7-6.1-4.7-10.4h9.9
					c0,1.9,0.7,3.4,2.1,4.6c1.4,1.2,3.1,1.8,5.2,1.8c2.3,0,4.2-0.6,5.5-1.9c1.3-1.2,2-2.9,2-4.9c0-5-2.7-7.5-8.2-7.5h-5.2V220.5z"/>
				<path d="M779.2,225.3l2.9-25.3H810v8.2h-19.8l-1.2,10.7c2.3-1.3,4.8-1.9,7.5-1.9c4.7,0,8.5,1.5,11.1,4.4c2.7,2.9,4,7.1,4,12.3
					c0,3.2-0.7,6.1-2,8.6c-1.4,2.5-3.3,4.5-5.8,5.9c-2.5,1.4-5.5,2.1-9,2.1c-3,0-5.8-0.6-8.4-1.8c-2.6-1.2-4.6-2.9-6.1-5.1
					c-1.5-2.2-2.3-4.7-2.4-7.6h9.8c0.2,2.1,0.9,3.7,2.2,4.8c1.2,1.2,2.9,1.7,4.9,1.7c2.2,0,4-0.8,5.2-2.4c1.2-1.6,1.8-3.9,1.8-6.8
					c0-2.8-0.7-5-2.1-6.5c-1.4-1.5-3.4-2.3-5.9-2.3c-2.3,0-4.2,0.6-5.7,1.8l-1,0.9L779.2,225.3z"/>
				<path d="M845,212.7l0.3,4.1c2.6-3.2,6.2-4.8,10.6-4.8c4.8,0,8,1.9,9.8,5.6c2.6-3.8,6.3-5.6,11.1-5.6c4,0,7,1.2,9,3.5
					c2,2.3,2.9,5.9,2.9,10.5v23.6h-9.9v-23.6c0-2.1-0.4-3.6-1.2-4.6c-0.8-1-2.3-1.5-4.3-1.5c-3,0-5,1.4-6.2,4.2l0,25.5h-9.9v-23.6
					c0-2.1-0.4-3.7-1.3-4.7c-0.8-1-2.3-1.4-4.3-1.4c-2.8,0-4.8,1.2-6.1,3.5v26.2h-9.9v-37H845z"/>
				<path d="M896.3,203.2c0-1.5,0.5-2.7,1.5-3.7c1-1,2.3-1.4,4-1.4c1.7,0,3,0.5,4,1.4c1,1,1.5,2.2,1.5,3.7c0,1.5-0.5,2.7-1.5,3.7
					c-1,1-2.4,1.4-4,1.4c-1.7,0-3-0.5-4-1.4S896.3,204.7,896.3,203.2z M906.8,249.7h-9.9v-37h9.9V249.7z"/>
				<path d="M925.4,249.7h-9.9v-52.5h9.9V249.7z"/>
				<path d="M943.9,249.7H934v-52.5h9.9V249.7z"/>
				<path d="M952,203.2c0-1.5,0.5-2.7,1.5-3.7c1-1,2.3-1.4,4-1.4c1.7,0,3,0.5,4,1.4c1,1,1.5,2.2,1.5,3.7c0,1.5-0.5,2.7-1.5,3.7
					c-1,1-2.4,1.4-4,1.4c-1.7,0-3-0.5-4-1.4S952,204.7,952,203.2z M962.5,249.7h-9.9v-37h9.9V249.7z"/>
				<path d="M969.1,230.9c0-3.7,0.7-6.9,2.1-9.8c1.4-2.9,3.4-5.1,6.1-6.7c2.7-1.6,5.7-2.4,9.2-2.4c5,0,9.1,1.5,12.2,4.6
					c3.2,3.1,4.9,7.2,5.3,12.4l0.1,2.5c0,5.7-1.6,10.2-4.8,13.7c-3.2,3.4-7.4,5.1-12.7,5.1s-9.6-1.7-12.8-5.1
					c-3.2-3.4-4.8-8.1-4.8-13.9V230.9z M978.9,231.6c0,3.5,0.7,6.2,2,8.1c1.3,1.9,3.2,2.8,5.7,2.8c2.4,0,4.3-0.9,5.6-2.8
					c1.3-1.8,2-4.8,2-8.8c0-3.4-0.7-6.1-2-8c-1.3-1.9-3.2-2.8-5.7-2.8c-2.4,0-4.3,0.9-5.6,2.8C979.6,224.7,978.9,227.6,978.9,231.6z
					"/>
				<path d="M1019.3,212.7l0.3,4.3c2.6-3.3,6.2-5,10.6-5c3.9,0,6.8,1.2,8.8,3.5c1.9,2.3,2.9,5.7,2.9,10.3v23.9h-9.9V226
					c0-2.1-0.5-3.6-1.4-4.6c-0.9-0.9-2.4-1.4-4.5-1.4c-2.8,0-4.9,1.2-6.3,3.6v26.1h-9.9v-37H1019.3z"/>
				<path d="M1069.4,239.5c0-1.2-0.6-2.2-1.8-2.9c-1.2-0.7-3.1-1.3-5.8-1.9c-8.8-1.8-13.2-5.6-13.2-11.2c0-3.3,1.4-6,4.1-8.2
					s6.3-3.3,10.7-3.3c4.7,0,8.4,1.1,11.3,3.3c2.8,2.2,4.2,5.1,4.2,8.6h-9.9c0-1.4-0.5-2.6-1.4-3.5c-0.9-0.9-2.3-1.4-4.3-1.4
					c-1.7,0-3,0.4-3.9,1.1c-0.9,0.8-1.4,1.7-1.4,2.9c0,1.1,0.5,2,1.6,2.6s2.8,1.3,5.2,1.7c2.5,0.5,4.5,1,6.2,1.7
					c5.2,1.9,7.8,5.2,7.8,9.9c0,3.4-1.4,6.1-4.3,8.2c-2.9,2.1-6.6,3.1-11.2,3.1c-3.1,0-5.9-0.6-8.3-1.7c-2.4-1.1-4.3-2.6-5.7-4.5
					s-2.1-4-2.1-6.2h9.4c0.1,1.8,0.7,3.1,1.9,4c1.2,0.9,2.8,1.4,4.9,1.4c1.9,0,3.3-0.4,4.3-1.1
					C1068.9,241.6,1069.4,240.7,1069.4,239.5z"/>
				<path d="M203.7,315c0-5.8,1.3-10.4,3.9-13.8s6.1-5.1,10.6-5.1c3.6,0,6.6,1.3,8.9,4v-18.9h9.9v52.5h-8.9l-0.5-3.9
					c-2.5,3.1-5.6,4.6-9.5,4.6c-4.4,0-7.8-1.7-10.5-5.1C205,325.8,203.7,321.1,203.7,315z M213.6,315.7c0,3.5,0.6,6.1,1.8,8
					c1.2,1.9,3,2.8,5.3,2.8c3.1,0,5.2-1.3,6.5-3.9v-14.7c-1.2-2.6-3.4-3.9-6.4-3.9C215.9,304,213.6,307.9,213.6,315.7z"/>
				<path d="M247.5,299.2l-4.6-2.7c2-3.1,3-6.3,3-9.5v-5.8h7.9v5.3c0,2.1-0.6,4.3-1.7,6.7C250.9,295.6,249.4,297.6,247.5,299.2z"/>
				<path d="M274.2,334.4c-5.4,0-9.8-1.7-13.2-5c-3.4-3.3-5.1-7.8-5.1-13.3v-1c0-3.7,0.7-7,2.2-10c1.4-2.9,3.5-5.2,6.1-6.8
					c2.6-1.6,5.6-2.4,9-2.4c5.1,0,9,1.6,11.9,4.8c2.9,3.2,4.4,7.7,4.4,13.6v4h-23.5c0.3,2.4,1.3,4.4,2.9,5.8
					c1.6,1.5,3.6,2.2,6.1,2.2c3.8,0,6.8-1.4,8.9-4.1l4.9,5.4c-1.5,2.1-3.5,3.7-6,4.9C280.1,333.8,277.3,334.4,274.2,334.4z
					 M273.1,304c-2,0-3.5,0.7-4.8,2c-1.2,1.3-2,3.2-2.3,5.7h13.7v-0.8c0-2.2-0.6-3.9-1.8-5.1C276.8,304.6,275.2,304,273.1,304z"/>
				<path d="M317.2,330c-2.4,3-5.8,4.4-10.1,4.4c-4,0-7-1.1-9.1-3.4c-2.1-2.3-3.2-5.6-3.2-10v-24.2h9.9v23.9c0,3.9,1.8,5.8,5.3,5.8
					c3.3,0,5.7-1.2,6.9-3.5v-26.2h9.9v37h-9.3L317.2,330z"/>
				<path d="M355,306c-1.3-0.2-2.5-0.3-3.6-0.3c-3.7,0-6.2,1.3-7.3,3.8v24.2h-9.9v-37h9.3l0.3,4.4c2-3.4,4.7-5.1,8.2-5.1
					c1.1,0,2.1,0.1,3.1,0.4L355,306z"/>
				<path d="M356.9,314.9c0-3.7,0.7-6.9,2.1-9.8c1.4-2.9,3.4-5.1,6.1-6.7c2.7-1.6,5.7-2.4,9.2-2.4c5,0,9.1,1.5,12.2,4.6
					c3.2,3.1,4.9,7.2,5.3,12.4l0.1,2.5c0,5.7-1.6,10.2-4.8,13.7c-3.2,3.4-7.4,5.1-12.7,5.1s-9.6-1.7-12.8-5.1
					c-3.2-3.4-4.8-8.1-4.8-13.9V314.9z M366.8,315.6c0,3.5,0.7,6.2,2,8.1c1.3,1.9,3.2,2.8,5.7,2.8c2.4,0,4.3-0.9,5.6-2.8
					c1.3-1.8,2-4.8,2-8.8c0-3.4-0.7-6.1-2-8c-1.3-1.9-3.2-2.8-5.7-2.8c-2.4,0-4.3,0.9-5.6,2.8C367.5,308.7,366.8,311.6,366.8,315.6z
					"/>
				<path d="M418.1,323.5c0-1.2-0.6-2.2-1.8-2.9c-1.2-0.7-3.1-1.3-5.8-1.9c-8.8-1.8-13.2-5.6-13.2-11.2c0-3.3,1.4-6,4.1-8.2
					s6.3-3.3,10.7-3.3c4.7,0,8.4,1.1,11.3,3.3c2.8,2.2,4.2,5.1,4.2,8.6h-9.9c0-1.4-0.5-2.6-1.4-3.5c-0.9-0.9-2.3-1.4-4.3-1.4
					c-1.7,0-3,0.4-3.9,1.1c-0.9,0.8-1.4,1.7-1.4,2.9c0,1.1,0.5,2,1.6,2.6s2.8,1.3,5.2,1.7c2.5,0.5,4.5,1,6.2,1.7
					c5.2,1.9,7.8,5.2,7.8,9.9c0,3.4-1.4,6.1-4.3,8.2c-2.9,2.1-6.6,3.1-11.2,3.1c-3.1,0-5.9-0.6-8.3-1.7c-2.4-1.1-4.3-2.6-5.7-4.5
					s-2.1-4-2.1-6.2h9.4c0.1,1.8,0.7,3.1,1.9,4c1.2,0.9,2.8,1.4,4.9,1.4c1.9,0,3.3-0.4,4.3-1.1C417.6,325.6,418.1,324.7,418.1,323.5
					z"/>
				<path d="M451.1,314.3c0,5.2-0.7,10.1-2.2,14.9c-1.5,4.8-3.6,9-6.4,12.6c-2.8,3.6-5.8,6.2-8.9,7.5l-1.9-5.2
					c3.2-2.4,5.8-6.2,7.7-11.3c1.9-5.1,2.8-10.9,2.9-17.5v-1.8c0-6.8-0.9-12.8-2.8-18s-4.4-9.1-7.8-11.7l1.9-5.2
					c3.1,1.3,6,3.8,8.8,7.3c2.7,3.5,4.9,7.6,6.4,12.3c1.5,4.7,2.3,9.6,2.4,14.6V314.3z"/>
				<path d="M489.2,328.1l11.2-31.3h4.2l-13.8,37h-3.3l-13.9-37h4.2L489.2,328.1z"/>
				<path d="M508.6,314.7c0-3.6,0.7-6.8,2.1-9.6c1.4-2.8,3.3-5.1,5.8-6.6c2.5-1.6,5.4-2.4,8.6-2.4c4.9,0,8.9,1.7,12,5.2
					c3.1,3.5,4.6,8,4.6,13.7v0.9c0,3.6-0.7,6.8-2.1,9.7s-3.3,5.1-5.8,6.6c-2.5,1.5-5.4,2.3-8.6,2.3c-4.9,0-8.9-1.7-11.9-5.2
					c-3.1-3.5-4.6-8-4.6-13.7V314.7z M512.7,315.8c0,4.4,1.1,8,3.4,10.9c2.3,2.8,5.3,4.3,9,4.3c3.7,0,6.7-1.4,9-4.3
					c2.3-2.8,3.4-6.6,3.4-11.2v-0.8c0-2.8-0.5-5.4-1.6-7.8c-1-2.3-2.5-4.2-4.4-5.5c-1.9-1.3-4.1-1.9-6.5-1.9c-3.6,0-6.6,1.4-8.9,4.3
					c-2.3,2.9-3.5,6.6-3.5,11.2V315.8z"/>
				<path d="M554,296.7l0.1,6.3c1.4-2.3,3.1-4,5.2-5.2c2.1-1.2,4.4-1.8,6.9-1.8c4,0,6.9,1.1,8.9,3.3c1.9,2.2,2.9,5.6,2.9,10v24.3
					h-4.1v-24.3c0-3.3-0.7-5.8-2.1-7.4c-1.4-1.6-3.6-2.4-6.6-2.4c-2.5,0-4.8,0.8-6.7,2.4c-1.9,1.6-3.4,3.7-4.3,6.4v25.3h-4.1v-37
					H554z"/>
				<path d="M594.9,287.3v9.5h7.7v3.3h-7.7v24.7c0,2.1,0.4,3.6,1.1,4.6c0.7,1,2,1.5,3.7,1.5c0.7,0,1.8-0.1,3.3-0.3l0.2,3.3
					c-1.1,0.4-2.5,0.6-4.4,0.6c-2.8,0-4.8-0.8-6.1-2.4c-1.3-1.6-1.9-4-1.9-7.2v-24.7H584v-3.3h6.8v-9.5H594.9z"/>
				<path d="M651.4,333.7c-0.4-1.2-0.7-2.9-0.8-5.2c-1.4,1.9-3.3,3.3-5.5,4.3c-2.2,1-4.6,1.5-7.1,1.5c-3.6,0-6.4-1-8.6-3
					c-2.2-2-3.3-4.5-3.3-7.5c0-3.6,1.5-6.4,4.5-8.5c3-2.1,7.2-3.1,12.5-3.1h7.4V308c0-2.6-0.8-4.7-2.4-6.2c-1.6-1.5-4-2.3-7.1-2.3
					c-2.8,0-5.2,0.7-7.1,2.2c-1.9,1.5-2.8,3.2-2.8,5.3l-4.1,0c0-2.9,1.4-5.5,4.1-7.6c2.7-2.2,6.1-3.2,10.1-3.2c4.1,0,7.4,1,9.8,3.1
					c2.4,2.1,3.6,4.9,3.7,8.6v17.5c0,3.6,0.4,6.3,1.1,8v0.4H651.4z M638.5,330.8c2.7,0,5.2-0.7,7.3-2c2.2-1.3,3.7-3.1,4.7-5.3v-8.1
					h-7.3c-4.1,0-7.3,0.8-9.6,2.2c-2.3,1.4-3.5,3.4-3.5,6c0,2.1,0.8,3.8,2.3,5.2C634.1,330.1,636.1,330.8,638.5,330.8z"/>
				<path d="M689.3,329c-2.5,3.6-6.4,5.4-11.8,5.4c-3.9,0-6.9-1.1-9-3.4c-2.1-2.3-3.1-5.7-3.1-10.2v-24.1h4.1v23.5
					c0,7,2.8,10.6,8.5,10.6c5.9,0,9.7-2.4,11.2-7.3v-26.8h4.1v37h-4L689.3,329z"/>
				<path d="M715.6,311.7l10-15h4.9l-12.5,18.1l13.1,18.8h-4.8l-10.5-15.7l-10.5,15.7h-4.8l13.1-18.8l-12.5-18.1h4.8L715.6,311.7z"
					/>
				<path d="M784.8,315.6c0,5.8-1.3,10.3-3.8,13.7c-2.6,3.4-6,5.1-10.3,5.1c-5.1,0-8.9-1.8-11.6-5.3v18.9H755v-51.2h3.8l0.2,5.2
					c2.7-3.9,6.5-5.9,11.6-5.9c4.4,0,7.9,1.7,10.4,5s3.8,8,3.8,13.9V315.6z M780.7,314.9c0-4.7-1-8.4-2.9-11.2
					c-1.9-2.7-4.6-4.1-8.1-4.1c-2.5,0-4.7,0.6-6.5,1.8c-1.8,1.2-3.2,3-4.1,5.3v17.7c1,2.1,2.4,3.7,4.2,4.9c1.8,1.1,4,1.7,6.5,1.7
					c3.4,0,6.1-1.4,8-4.1S780.7,320.1,780.7,314.9z"/>
				<path d="M810.9,300.2c-0.9-0.2-1.8-0.2-2.8-0.2c-2.6,0-4.7,0.7-6.5,2.1c-1.8,1.4-3,3.5-3.8,6.2v25.4h-4.1v-37h4l0.1,5.9
					c2.2-4.4,5.6-6.6,10.4-6.6c1.1,0,2,0.1,2.7,0.4L810.9,300.2z"/>
				<path d="M814.4,314.7c0-3.6,0.7-6.8,2.1-9.6c1.4-2.8,3.3-5.1,5.8-6.6c2.5-1.6,5.4-2.4,8.6-2.4c4.9,0,8.9,1.7,12,5.2
					c3.1,3.5,4.6,8,4.6,13.7v0.9c0,3.6-0.7,6.8-2.1,9.7s-3.3,5.1-5.8,6.6c-2.5,1.5-5.4,2.3-8.6,2.3c-4.9,0-8.9-1.7-11.9-5.2
					c-3.1-3.5-4.6-8-4.6-13.7V314.7z M818.5,315.8c0,4.4,1.1,8,3.4,10.9c2.3,2.8,5.3,4.3,9,4.3c3.7,0,6.7-1.4,9-4.3
					c2.3-2.8,3.4-6.6,3.4-11.2v-0.8c0-2.8-0.5-5.4-1.6-7.8c-1-2.3-2.5-4.2-4.4-5.5c-1.9-1.3-4.1-1.9-6.5-1.9c-3.6,0-6.6,1.4-8.9,4.3
					c-2.3,2.9-3.5,6.6-3.5,11.2V315.8z"/>
				<path d="M860.3,296.7v41.4c0,3.4-0.8,6-2.5,7.8c-1.6,1.8-4.1,2.7-7.2,2.7c-1.2,0-2.4-0.2-3.6-0.6l0.1-3.4c1,0.3,2,0.4,3.1,0.4
					c4.1,0,6.1-2.3,6.1-7v-41.4H860.3z M858.3,283.3c0.9,0,1.6,0.3,2.1,0.8c0.5,0.5,0.8,1.2,0.8,2c0,0.8-0.3,1.4-0.8,1.9
					c-0.5,0.5-1.2,0.8-2.1,0.8c-0.9,0-1.5-0.3-2-0.8c-0.5-0.5-0.7-1.2-0.7-1.9c0-0.8,0.2-1.4,0.7-2
					C856.7,283.6,857.4,283.3,858.3,283.3z"/>
				<path d="M886.2,334.4c-3.1,0-6-0.8-8.5-2.3c-2.5-1.5-4.5-3.7-5.9-6.5c-1.4-2.8-2.1-5.9-2.1-9.3v-1.5c0-3.6,0.7-6.8,2.1-9.6
					c1.4-2.8,3.3-5.1,5.8-6.7c2.5-1.6,5.1-2.4,8-2.4c4.5,0,8,1.5,10.7,4.6c2.6,3.1,3.9,7.3,3.9,12.6v2.3h-26.4v0.8
					c0,4.2,1.2,7.7,3.6,10.5c2.4,2.8,5.4,4.2,9.1,4.2c2.2,0,4.1-0.4,5.8-1.2c1.7-0.8,3.2-2.1,4.6-3.8l2.6,1.9
					C896.3,332.2,891.9,334.4,886.2,334.4z M885.4,299.5c-3.1,0-5.7,1.1-7.8,3.4s-3.4,5.3-3.8,9.1H896v-0.4c-0.1-3.6-1.1-6.4-3-8.7
					C891,300.7,888.5,299.5,885.4,299.5z"/>
				<path d="M914.4,287.3v9.5h7.7v3.3h-7.7v24.7c0,2.1,0.4,3.6,1.1,4.6c0.7,1,2,1.5,3.7,1.5c0.7,0,1.8-0.1,3.3-0.3l0.2,3.3
					c-1.1,0.4-2.5,0.6-4.4,0.6c-2.8,0-4.8-0.8-6.1-2.4c-1.3-1.6-1.9-4-1.9-7.2v-24.7h-6.8v-3.3h6.8v-9.5H914.4z"/>
				<path d="M952.7,324.3c0-2-0.8-3.7-2.4-4.9c-1.6-1.2-4.1-2.2-7.4-2.9c-3.3-0.7-5.8-1.5-7.6-2.4c-1.8-0.9-3.2-2-4-3.3
					s-1.3-2.9-1.3-4.7c0-2.9,1.2-5.3,3.7-7.2c2.4-1.9,5.6-2.9,9.4-2.9c4.1,0,7.4,1,9.9,3.1c2.5,2,3.7,4.7,3.7,8h-4.1
					c0-2.2-0.9-4-2.7-5.4c-1.8-1.4-4.1-2.2-6.9-2.2c-2.7,0-4.8,0.6-6.5,1.8c-1.6,1.2-2.4,2.8-2.4,4.7c0,1.8,0.7,3.3,2,4.3
					c1.4,1,3.8,1.9,7.4,2.8c3.6,0.8,6.3,1.7,8.1,2.7s3.1,2.1,4,3.5c0.9,1.3,1.3,3,1.3,4.9c0,3.1-1.3,5.6-3.8,7.5
					c-2.5,1.9-5.8,2.8-9.9,2.8c-4.3,0-7.8-1-10.5-3.1c-2.7-2.1-4-4.7-4-7.9h4.1c0.2,2.4,1.2,4.3,3,5.6c1.9,1.3,4.3,2,7.4,2
					c2.8,0,5.1-0.6,6.9-1.9C951.8,327.8,952.7,326.2,952.7,324.3z"/>
				<path d="M996.7,331c2.8,0,5.2-0.8,7.2-2.4c1.9-1.6,3-3.7,3.1-6.2h3.9c-0.1,2.3-0.8,4.3-2.1,6.2s-3,3.3-5.2,4.4
					c-2.2,1-4.5,1.6-6.9,1.6c-4.9,0-8.7-1.7-11.5-5.1c-2.8-3.4-4.3-7.9-4.3-13.6v-1.2c0-3.6,0.6-6.9,1.9-9.7c1.3-2.8,3.1-5,5.5-6.5
					c2.4-1.5,5.2-2.3,8.4-2.3c4.1,0,7.4,1.2,10,3.6c2.6,2.4,4,5.6,4.2,9.5h-3.9c-0.2-2.9-1.2-5.2-3.1-7s-4.3-2.7-7.2-2.7
					c-3.7,0-6.6,1.3-8.6,4s-3.1,6.4-3.1,11.2v1.2c0,4.7,1,8.4,3.1,11C990.1,329.6,992.9,331,996.7,331z"/>
				<path d="M1033.4,334.4c-3.1,0-6-0.8-8.5-2.3c-2.5-1.5-4.5-3.7-5.9-6.5c-1.4-2.8-2.1-5.9-2.1-9.3v-1.5c0-3.6,0.7-6.8,2.1-9.6
					c1.4-2.8,3.3-5.1,5.8-6.7c2.5-1.6,5.1-2.4,8-2.4c4.5,0,8,1.5,10.7,4.6c2.6,3.1,3.9,7.3,3.9,12.6v2.3h-26.4v0.8
					c0,4.2,1.2,7.7,3.6,10.5c2.4,2.8,5.4,4.2,9.1,4.2c2.2,0,4.1-0.4,5.8-1.2c1.7-0.8,3.2-2.1,4.6-3.8l2.6,1.9
					C1043.4,332.2,1039.1,334.4,1033.4,334.4z M1032.6,299.5c-3.1,0-5.7,1.1-7.8,3.4s-3.4,5.3-3.8,9.1h22.2v-0.4
					c-0.1-3.6-1.1-6.4-3-8.7C1038.2,300.7,1035.7,299.5,1032.6,299.5z"/>
				<path d="M1061.6,287.3v9.5h7.7v3.3h-7.7v24.7c0,2.1,0.4,3.6,1.1,4.6c0.7,1,2,1.5,3.7,1.5c0.7,0,1.8-0.1,3.3-0.3l0.2,3.3
					c-1.1,0.4-2.5,0.6-4.4,0.6c-2.8,0-4.8-0.8-6.1-2.4c-1.3-1.6-1.9-4-1.9-7.2v-24.7h-6.8v-3.3h6.8v-9.5H1061.6z"/>
				<path d="M1084,287.3v9.5h7.7v3.3h-7.7v24.7c0,2.1,0.4,3.6,1.1,4.6c0.7,1,2,1.5,3.7,1.5c0.7,0,1.8-0.1,3.3-0.3l0.2,3.3
					c-1.1,0.4-2.5,0.6-4.4,0.6c-2.8,0-4.8-0.8-6.1-2.4c-1.3-1.6-1.9-4-1.9-7.2v-24.7h-6.8v-3.3h6.8v-9.5H1084z"/>
				<path d="M1114.5,334.4c-3.1,0-6-0.8-8.5-2.3c-2.5-1.5-4.5-3.7-5.9-6.5c-1.4-2.8-2.1-5.9-2.1-9.3v-1.5c0-3.6,0.7-6.8,2.1-9.6
					c1.4-2.8,3.3-5.1,5.8-6.7c2.5-1.6,5.1-2.4,8-2.4c4.5,0,8,1.5,10.7,4.6c2.6,3.1,3.9,7.3,3.9,12.6v2.3H1102v0.8
					c0,4.2,1.2,7.7,3.6,10.5c2.4,2.8,5.4,4.2,9.1,4.2c2.2,0,4.1-0.4,5.8-1.2c1.7-0.8,3.2-2.1,4.6-3.8l2.6,1.9
					C1124.6,332.2,1120.2,334.4,1114.5,334.4z M1113.8,299.5c-3.1,0-5.7,1.1-7.8,3.4s-3.4,5.3-3.8,9.1h22.2v-0.4
					c-0.1-3.6-1.1-6.4-3-8.7C1119.4,300.7,1116.8,299.5,1113.8,299.5z"/>
				<path d="M230.1,417.7c-0.4-1.2-0.7-2.9-0.8-5.2c-1.4,1.9-3.3,3.3-5.5,4.3c-2.2,1-4.6,1.5-7.1,1.5c-3.6,0-6.4-1-8.6-3
					c-2.2-2-3.3-4.5-3.3-7.5c0-3.6,1.5-6.4,4.5-8.5c3-2.1,7.2-3.1,12.5-3.1h7.4V392c0-2.6-0.8-4.7-2.4-6.2c-1.6-1.5-4-2.3-7.1-2.3
					c-2.8,0-5.2,0.7-7.1,2.2c-1.9,1.5-2.8,3.2-2.8,5.3l-4.1,0c0-2.9,1.4-5.5,4.1-7.6c2.7-2.2,6.1-3.2,10.1-3.2c4.1,0,7.4,1,9.8,3.1
					c2.4,2.1,3.6,4.9,3.7,8.6v17.5c0,3.6,0.4,6.3,1.1,8v0.4H230.1z M217.3,414.8c2.7,0,5.2-0.7,7.3-2c2.2-1.3,3.7-3.1,4.7-5.3v-8.1
					H222c-4.1,0-7.3,0.8-9.6,2.2c-2.3,1.4-3.5,3.4-3.5,6c0,2.1,0.8,3.8,2.3,5.2C212.8,414.1,214.8,414.8,217.3,414.8z"/>
				<path d="M248.1,380.7l0.1,6.3c1.4-2.3,3.1-4,5.2-5.2c2.1-1.2,4.4-1.8,6.9-1.8c4,0,6.9,1.1,8.9,3.3c1.9,2.2,2.9,5.6,2.9,10v24.3
					h-4.1v-24.3c0-3.3-0.7-5.8-2.1-7.4c-1.4-1.6-3.6-2.4-6.6-2.4c-2.5,0-4.8,0.8-6.7,2.4c-1.9,1.6-3.4,3.7-4.3,6.4v25.3h-4.1v-37
					H248.1z"/>
				<path d="M286.6,380.7l0.1,6.3c1.4-2.3,3.1-4,5.2-5.2c2.1-1.2,4.4-1.8,6.9-1.8c4,0,6.9,1.1,8.9,3.3c1.9,2.2,2.9,5.6,2.9,10v24.3
					h-4.1v-24.3c0-3.3-0.7-5.8-2.1-7.4c-1.4-1.6-3.6-2.4-6.6-2.4c-2.5,0-4.8,0.8-6.7,2.4c-1.9,1.6-3.4,3.7-4.3,6.4v25.3h-4.1v-37
					H286.6z"/>
				<path d="M335.5,418.4c-3.1,0-6-0.8-8.5-2.3c-2.5-1.5-4.5-3.7-5.9-6.5c-1.4-2.8-2.1-5.9-2.1-9.3v-1.5c0-3.6,0.7-6.8,2.1-9.6
					c1.4-2.8,3.3-5.1,5.8-6.7c2.5-1.6,5.1-2.4,8-2.4c4.5,0,8,1.5,10.7,4.6c2.6,3.1,3.9,7.3,3.9,12.6v2.3H323v0.8
					c0,4.2,1.2,7.7,3.6,10.5c2.4,2.8,5.4,4.2,9.1,4.2c2.2,0,4.1-0.4,5.8-1.2c1.7-0.8,3.2-2.1,4.6-3.8l2.6,1.9
					C345.6,416.2,341.2,418.4,335.5,418.4z M334.7,383.5c-3.1,0-5.7,1.1-7.8,3.4s-3.4,5.3-3.8,9.1h22.2v-0.4c-0.1-3.6-1.1-6.4-3-8.7
					C340.3,384.7,337.8,383.5,334.7,383.5z M339.3,365.6h5l-7.9,9.5l-3.6,0L339.3,365.6z"/>
				<path d="M371.6,418.4c-3.1,0-6-0.8-8.5-2.3c-2.5-1.5-4.5-3.7-5.9-6.5c-1.4-2.8-2.1-5.9-2.1-9.3v-1.5c0-3.6,0.7-6.8,2.1-9.6
					c1.4-2.8,3.3-5.1,5.8-6.7c2.5-1.6,5.1-2.4,8-2.4c4.5,0,8,1.5,10.7,4.6c2.6,3.1,3.9,7.3,3.9,12.6v2.3h-26.4v0.8
					c0,4.2,1.2,7.7,3.6,10.5c2.4,2.8,5.4,4.2,9.1,4.2c2.2,0,4.1-0.4,5.8-1.2c1.7-0.8,3.2-2.1,4.6-3.8l2.6,1.9
					C381.7,416.2,377.4,418.4,371.6,418.4z M370.9,383.5c-3.1,0-5.7,1.1-7.8,3.4s-3.4,5.3-3.8,9.1h22.2v-0.4c-0.1-3.6-1.1-6.4-3-8.7
					C376.5,384.7,374,383.5,370.9,383.5z"/>
				<path d="M393.1,415.3c0-0.8,0.3-1.5,0.8-2c0.5-0.6,1.2-0.8,2.1-0.8c0.9,0,1.6,0.3,2.2,0.8c0.5,0.6,0.8,1.2,0.8,2
					c0,0.8-0.3,1.5-0.8,2c-0.5,0.5-1.2,0.8-2.2,0.8c-0.9,0-1.6-0.3-2.1-0.8C393.4,416.7,393.1,416.1,393.1,415.3z"/>
			</g>
		</g>
	</g>
</g>
</svg>
