<?xml version="1.0" encoding="utf-8"?>
<!-- Generator: Adobe Illustrator 21.0.0, SVG Export Plug-In . SVG Version: 6.00 Build 0)  -->
<svg version="1.1" xmlns="http://www.w3.org/2000/svg" xmlns:xlink="http://www.w3.org/1999/xlink" x="0px" y="0px"
	 viewBox="0 0 1197.2 516" style="enable-background:new 0 0 1197.2 516;" xml:space="preserve">
<style type="text/css">
	.st0{fill:#0E97E7;}
	.st1{fill:#FFFFFF;}
	.st2{fill:none;stroke:#FFFFFF;stroke-width:18;stroke-miterlimit:10;}
	.st3{fill:none;stroke:#FFFFFF;stroke-width:5;stroke-miterlimit:10;}
	.st4{opacity:0.5;fill:none;stroke:#000000;stroke-width:1.5;stroke-miterlimit:10;}
	.st5{fill:none;stroke:#000000;stroke-width:8;stroke-miterlimit:10;}
	.st6{fill:#4F4F4F;}
	.st7{fill:none;stroke:#FFFFFF;stroke-width:16;stroke-miterlimit:10;}
	.st8{fill:none;stroke:#DF0920;stroke-width:18;stroke-miterlimit:10;}
	.st9{fill:none;stroke:#3E4098;stroke-width:18;stroke-miterlimit:10;}
	.st10{fill:#3E4098;}
	.st11{fill:none;stroke:#59C24F;stroke-width:18;stroke-miterlimit:10;}
	.st12{fill:none;}
</style>
<g id="Home_x5F_Claire_x5F_Juglair_x5F_St_x5F_Nazaire_xA0_Image_1_">
</g>
<g id="Calque_3">
</g>
<g id="bulles">
	<g>
		<path class="st1" d="M1201.7,482c0,18.8-15.2,34-34,34h-1018c-18.8,0-34-15.2-34-34V34c0-18.8,15.2-34,34-34h1018
			c18.8,0,34,15.2,34,34V482z"/>
		<polygon class="st1" points="126.7,76 -0.8,76 115.7,172 		"/>
		<g>
			<g>
				<path d="M232,202v-49.8h14.7c5.3,0,9.4,1.1,12.1,3.3c2.8,2.2,4.1,5.4,4.1,9.7c0,2.6-0.7,4.8-2.1,6.7c-1.4,1.9-3.3,3.3-5.8,4.1
					c2.9,0.6,5.2,2.1,7,4.3c1.8,2.2,2.6,4.8,2.6,7.7c0,4.4-1.4,7.8-4.3,10.3c-2.8,2.5-6.8,3.7-11.8,3.7H232z M236.2,174.6h11.5
					c3.5-0.1,6.2-0.9,8.2-2.5c1.9-1.6,2.9-3.9,2.9-6.9c0-3.2-1-5.6-3-7.1c-2-1.5-5-2.3-9-2.3h-10.5V174.6z M236.2,178.1v20.3h12.6
					c3.6,0,6.5-0.9,8.6-2.7c2.1-1.8,3.2-4.4,3.2-7.6c0-3.1-1-5.5-3-7.3c-2-1.8-4.8-2.7-8.4-2.7H236.2z"/>
				<path d="M271.6,183c0-3.6,0.7-6.8,2.1-9.6c1.4-2.8,3.3-5.1,5.8-6.6c2.5-1.6,5.4-2.4,8.6-2.4c4.9,0,8.9,1.7,12,5.2
					c3.1,3.5,4.6,8,4.6,13.7v0.9c0,3.6-0.7,6.8-2.1,9.7s-3.3,5.1-5.8,6.6c-2.5,1.5-5.4,2.3-8.6,2.3c-4.9,0-8.9-1.7-11.9-5.2
					c-3.1-3.5-4.6-8-4.6-13.7V183z M275.7,184.1c0,4.4,1.1,8,3.4,10.9c2.3,2.8,5.3,4.3,9,4.3c3.7,0,6.7-1.4,9-4.3
					c2.3-2.8,3.4-6.6,3.4-11.2V183c0-2.8-0.5-5.4-1.6-7.8c-1-2.3-2.5-4.2-4.4-5.5c-1.9-1.3-4.1-1.9-6.5-1.9c-3.6,0-6.6,1.4-8.9,4.3
					c-2.3,2.9-3.5,6.6-3.5,11.2V184.1z"/>
				<path d="M317,165l0.1,6.3c1.4-2.3,3.1-4,5.2-5.2c2.1-1.2,4.4-1.8,6.9-1.8c4,0,6.9,1.1,8.9,3.3c1.9,2.2,2.9,5.6,2.9,10V202h-4.1
					v-24.3c0-3.3-0.7-5.8-2.1-7.4c-1.4-1.6-3.6-2.4-6.6-2.4c-2.5,0-4.8,0.8-6.7,2.4c-1.9,1.6-3.4,3.7-4.3,6.4V202h-4.1v-37H317z"/>
				<path d="M356,165v41.4c0,3.4-0.8,6-2.5,7.8c-1.6,1.8-4.1,2.7-7.2,2.7c-1.2,0-2.4-0.2-3.6-0.6l0.1-3.4c1,0.3,2,0.4,3.1,0.4
					c4.1,0,6.1-2.3,6.1-7V165H356z M353.9,151.6c0.9,0,1.6,0.3,2.1,0.8c0.5,0.5,0.8,1.2,0.8,2c0,0.8-0.3,1.4-0.8,1.9
					c-0.5,0.5-1.2,0.8-2.1,0.8c-0.9,0-1.5-0.3-2-0.8c-0.5-0.5-0.7-1.2-0.7-1.9c0-0.8,0.2-1.4,0.7-2
					C352.4,151.9,353.1,151.6,353.9,151.6z"/>
				<path d="M365.3,183c0-3.6,0.7-6.8,2.1-9.6c1.4-2.8,3.3-5.1,5.8-6.6c2.5-1.6,5.4-2.4,8.6-2.4c4.9,0,8.9,1.7,12,5.2
					c3.1,3.5,4.6,8,4.6,13.7v0.9c0,3.6-0.7,6.8-2.1,9.7s-3.3,5.1-5.8,6.6c-2.5,1.5-5.4,2.3-8.6,2.3c-4.9,0-8.9-1.7-11.9-5.2
					c-3.1-3.5-4.6-8-4.6-13.7V183z M369.4,184.1c0,4.4,1.1,8,3.4,10.9c2.3,2.8,5.3,4.3,9,4.3c3.7,0,6.7-1.4,9-4.3
					c2.3-2.8,3.4-6.6,3.4-11.2V183c0-2.8-0.5-5.4-1.6-7.8c-1-2.3-2.5-4.2-4.4-5.5c-1.9-1.3-4.1-1.9-6.5-1.9c-3.6,0-6.6,1.4-8.9,4.3
					c-2.3,2.9-3.5,6.6-3.5,11.2V184.1z"/>
				<path d="M430.5,197.3c-2.5,3.6-6.4,5.4-11.8,5.4c-3.9,0-6.9-1.1-9-3.4c-2.1-2.3-3.1-5.7-3.1-10.2V165h4.1v23.5
					c0,7,2.8,10.6,8.5,10.6c5.9,0,9.7-2.4,11.2-7.3V165h4.1v37h-4L430.5,197.3z"/>
				<path d="M462.3,168.5c-0.9-0.2-1.8-0.2-2.8-0.2c-2.6,0-4.7,0.7-6.5,2.1c-1.8,1.4-3,3.5-3.8,6.2V202h-4.1v-37h4l0.1,5.9
					c2.2-4.4,5.6-6.6,10.4-6.6c1.1,0,2,0.1,2.7,0.4L462.3,168.5z"/>
				<path d="M485.6,199.6c0-0.8,0.2-1.4,0.8-2c0.5-0.5,1.2-0.8,2.1-0.8c0.9,0,1.6,0.3,2.1,0.8c0.5,0.5,0.8,1.2,0.8,2
					c0,0.8-0.3,1.4-0.8,1.9c-0.5,0.5-1.2,0.8-2.1,0.8c-0.9,0-1.5-0.3-2.1-0.8C485.9,201,485.6,200.3,485.6,199.6z M490.1,188.1h-3.8
					l-0.2-35.9h4.2L490.1,188.1z"/>
				<path d="M534.5,195.8l0.3,1.1l0.3-1.1l15.7-43.6h4.6L536.8,202h-4l-18.5-49.8h4.6L534.5,195.8z"/>
				<path d="M557.9,183c0-3.6,0.7-6.8,2.1-9.6c1.4-2.8,3.3-5.1,5.8-6.6c2.5-1.6,5.4-2.4,8.6-2.4c4.9,0,8.9,1.7,12,5.2
					c3.1,3.5,4.6,8,4.6,13.7v0.9c0,3.6-0.7,6.8-2.1,9.7s-3.3,5.1-5.8,6.6c-2.5,1.5-5.4,2.3-8.6,2.3c-4.9,0-8.9-1.7-11.9-5.2
					c-3.1-3.5-4.6-8-4.6-13.7V183z M562,184.1c0,4.4,1.1,8,3.4,10.9c2.3,2.8,5.3,4.3,9,4.3c3.7,0,6.7-1.4,9-4.3
					c2.3-2.8,3.4-6.6,3.4-11.2V183c0-2.8-0.5-5.4-1.6-7.8c-1-2.3-2.5-4.2-4.4-5.5c-1.9-1.3-4.1-1.9-6.5-1.9c-3.6,0-6.6,1.4-8.9,4.3
					c-2.3,2.9-3.5,6.6-3.5,11.2V184.1z"/>
				<path d="M623.1,197.3c-2.5,3.6-6.4,5.4-11.8,5.4c-3.9,0-6.9-1.1-9-3.4c-2.1-2.3-3.1-5.7-3.1-10.2V165h4.1v23.5
					c0,7,2.8,10.6,8.5,10.6c5.9,0,9.7-2.4,11.2-7.3V165h4.1v37h-4L623.1,197.3z"/>
				<path d="M660,192.6c0-2-0.8-3.7-2.4-4.9c-1.6-1.2-4.1-2.2-7.4-2.9c-3.3-0.7-5.8-1.5-7.6-2.4c-1.8-0.9-3.2-2-4-3.3
					s-1.3-2.9-1.3-4.7c0-2.9,1.2-5.3,3.7-7.2c2.4-1.9,5.6-2.9,9.4-2.9c4.1,0,7.4,1,9.9,3.1c2.5,2,3.7,4.7,3.7,8h-4.1
					c0-2.2-0.9-4-2.7-5.4c-1.8-1.4-4.1-2.2-6.9-2.2c-2.7,0-4.8,0.6-6.5,1.8c-1.6,1.2-2.4,2.8-2.4,4.7c0,1.8,0.7,3.3,2,4.3
					c1.4,1,3.8,1.9,7.4,2.8c3.6,0.8,6.3,1.7,8.1,2.7s3.1,2.1,4,3.5c0.9,1.3,1.3,3,1.3,4.9c0,3.1-1.3,5.6-3.8,7.5
					c-2.5,1.9-5.8,2.8-9.9,2.8c-4.3,0-7.8-1-10.5-3.1c-2.7-2.1-4-4.7-4-7.9h4.1c0.2,2.4,1.2,4.3,3,5.6c1.9,1.3,4.3,2,7.4,2
					c2.8,0,5.1-0.6,6.9-1.9C659.1,196.1,660,194.5,660,192.6z"/>
				<path d="M701.8,196.4L713,165h4.2l-13.8,37h-3.3l-13.9-37h4.2L701.8,196.4z"/>
				<path d="M721.2,183c0-3.6,0.7-6.8,2.1-9.6c1.4-2.8,3.3-5.1,5.8-6.6c2.5-1.6,5.4-2.4,8.6-2.4c4.9,0,8.9,1.7,12,5.2
					c3.1,3.5,4.6,8,4.6,13.7v0.9c0,3.6-0.7,6.8-2.1,9.7s-3.3,5.1-5.8,6.6c-2.5,1.5-5.4,2.3-8.6,2.3c-4.9,0-8.9-1.7-11.9-5.2
					c-3.1-3.5-4.6-8-4.6-13.7V183z M725.3,184.1c0,4.4,1.1,8,3.4,10.9c2.3,2.8,5.3,4.3,9,4.3c3.7,0,6.7-1.4,9-4.3
					c2.3-2.8,3.4-6.6,3.4-11.2V183c0-2.8-0.5-5.4-1.6-7.8c-1-2.3-2.5-4.2-4.4-5.5c-1.9-1.3-4.1-1.9-6.5-1.9c-3.6,0-6.6,1.4-8.9,4.3
					c-2.3,2.9-3.5,6.6-3.5,11.2V184.1z"/>
				<path d="M786.4,197.3c-2.5,3.6-6.4,5.4-11.8,5.4c-3.9,0-6.9-1.1-9-3.4c-2.1-2.3-3.1-5.7-3.1-10.2V165h4.1v23.5
					c0,7,2.8,10.6,8.5,10.6c5.9,0,9.7-2.4,11.2-7.3V165h4.1v37h-4L786.4,197.3z"/>
				<path d="M805.7,202h-4.1v-52.5h4.1V202z"/>
				<path d="M831.1,202.7c-3.1,0-6-0.8-8.5-2.3c-2.5-1.5-4.5-3.7-5.9-6.5c-1.4-2.8-2.1-5.9-2.1-9.3v-1.5c0-3.6,0.7-6.8,2.1-9.6
					c1.4-2.8,3.3-5.1,5.8-6.7c2.5-1.6,5.1-2.4,8-2.4c4.5,0,8,1.5,10.7,4.6c2.6,3.1,3.9,7.3,3.9,12.6v2.3h-26.4v0.8
					c0,4.2,1.2,7.7,3.6,10.5c2.4,2.8,5.4,4.2,9.1,4.2c2.2,0,4.1-0.4,5.8-1.2c1.7-0.8,3.2-2.1,4.6-3.8l2.6,1.9
					C841.2,200.5,836.8,202.7,831.1,202.7z M830.3,167.8c-3.1,0-5.7,1.1-7.8,3.4s-3.4,5.3-3.8,9.1h22.2v-0.4c-0.1-3.6-1.1-6.4-3-8.7
					C835.9,168.9,833.4,167.8,830.3,167.8z"/>
				<path d="M855.6,198.5h24v3.5h-29.1v-3l22.4-30.4h-21.7V165h26.9v3.1L855.6,198.5z"/>
				<path d="M926.1,192.6c0-2-0.8-3.7-2.4-4.9c-1.6-1.2-4.1-2.2-7.4-2.9c-3.3-0.7-5.8-1.5-7.6-2.4c-1.8-0.9-3.2-2-4-3.3
					s-1.3-2.9-1.3-4.7c0-2.9,1.2-5.3,3.7-7.2c2.4-1.9,5.6-2.9,9.4-2.9c4.1,0,7.4,1,9.9,3.1c2.5,2,3.7,4.7,3.7,8h-4.1
					c0-2.2-0.9-4-2.7-5.4c-1.8-1.4-4.1-2.2-6.9-2.2c-2.7,0-4.8,0.6-6.5,1.8c-1.6,1.2-2.4,2.8-2.4,4.7c0,1.8,0.7,3.3,2,4.3
					c1.4,1,3.8,1.9,7.4,2.8c3.6,0.8,6.3,1.7,8.1,2.7s3.1,2.1,4,3.5c0.9,1.3,1.3,3,1.3,4.9c0,3.1-1.3,5.6-3.8,7.5
					c-2.5,1.9-5.8,2.8-9.9,2.8c-4.3,0-7.8-1-10.5-3.1c-2.7-2.1-4-4.7-4-7.9h4.1c0.2,2.4,1.2,4.3,3,5.6c1.9,1.3,4.3,2,7.4,2
					c2.8,0,5.1-0.6,6.9-1.9C925.3,196.1,926.1,194.5,926.1,192.6z"/>
				<path d="M962.8,202c-0.4-1.2-0.7-2.9-0.8-5.2c-1.4,1.9-3.3,3.3-5.5,4.3c-2.2,1-4.6,1.5-7.1,1.5c-3.6,0-6.4-1-8.6-3
					c-2.2-2-3.3-4.5-3.3-7.5c0-3.6,1.5-6.4,4.5-8.5c3-2.1,7.2-3.1,12.5-3.1h7.4v-4.2c0-2.6-0.8-4.7-2.4-6.2c-1.6-1.5-4-2.3-7.1-2.3
					c-2.8,0-5.2,0.7-7.1,2.2c-1.9,1.5-2.8,3.2-2.8,5.3l-4.1,0c0-2.9,1.4-5.5,4.1-7.6c2.7-2.2,6.1-3.2,10.1-3.2c4.1,0,7.4,1,9.8,3.1
					c2.4,2.1,3.6,4.9,3.7,8.6v17.5c0,3.6,0.4,6.3,1.1,8v0.4H962.8z M949.9,199.1c2.7,0,5.2-0.7,7.3-2c2.2-1.3,3.7-3.1,4.7-5.3v-8.1
					h-7.3c-4.1,0-7.3,0.8-9.6,2.2c-2.3,1.4-3.5,3.4-3.5,6c0,2.1,0.8,3.8,2.3,5.2C945.5,198.4,947.5,199.1,949.9,199.1z"/>
				<path d="M987.9,196.4l11.2-31.3h4.2l-13.8,37h-3.3l-13.9-37h4.2L987.9,196.4z"/>
				<path d="M1007.3,183c0-3.6,0.7-6.8,2.1-9.6c1.4-2.8,3.3-5.1,5.8-6.6c2.5-1.6,5.4-2.4,8.6-2.4c4.9,0,8.9,1.7,12,5.2
					c3.1,3.5,4.6,8,4.6,13.7v0.9c0,3.6-0.7,6.8-2.1,9.7s-3.3,5.1-5.8,6.6c-2.5,1.5-5.4,2.3-8.6,2.3c-4.9,0-8.9-1.7-11.9-5.2
					c-3.1-3.5-4.6-8-4.6-13.7V183z M1011.4,184.1c0,4.4,1.1,8,3.4,10.9c2.3,2.8,5.3,4.3,9,4.3c3.7,0,6.7-1.4,9-4.3
					c2.3-2.8,3.4-6.6,3.4-11.2V183c0-2.8-0.5-5.4-1.6-7.8c-1-2.3-2.5-4.2-4.4-5.5c-1.9-1.3-4.1-1.9-6.5-1.9c-3.6,0-6.6,1.4-8.9,4.3
					c-2.3,2.9-3.5,6.6-3.5,11.2V184.1z"/>
				<path d="M1048.5,154.3c0-0.8,0.2-1.4,0.8-2c0.5-0.5,1.2-0.8,2.1-0.8c0.9,0,1.6,0.3,2.1,0.8c0.5,0.5,0.8,1.2,0.8,2
					c0,0.8-0.3,1.4-0.8,1.9c-0.5,0.5-1.2,0.8-2.1,0.8c-0.9,0-1.5-0.3-2.1-0.8C1048.8,155.8,1048.5,155.1,1048.5,154.3z M1053.4,202
					h-4.1v-37h4.1V202z"/>
				<path d="M1081.6,168.5c-0.9-0.2-1.8-0.2-2.8-0.2c-2.6,0-4.7,0.7-6.5,2.1c-1.8,1.4-3,3.5-3.8,6.2V202h-4.1v-37h4l0.1,5.9
					c2.2-4.4,5.6-6.6,10.4-6.6c1.1,0,2,0.1,2.7,0.4L1081.6,168.5z"/>
				<path d="M228.7,267c0-3.6,0.7-6.8,2.1-9.6c1.4-2.8,3.3-5.1,5.8-6.6c2.5-1.6,5.4-2.4,8.6-2.4c4.9,0,8.9,1.7,12,5.2
					c3.1,3.5,4.6,8,4.6,13.7v0.9c0,3.6-0.7,6.8-2.1,9.7s-3.3,5.1-5.8,6.6c-2.5,1.5-5.4,2.3-8.6,2.3c-4.9,0-8.9-1.7-11.9-5.2
					c-3.1-3.5-4.6-8-4.6-13.7V267z M232.8,268.1c0,4.4,1.1,8,3.4,10.9c2.3,2.8,5.3,4.3,9,4.3c3.7,0,6.7-1.4,9-4.3
					c2.3-2.8,3.4-6.6,3.4-11.2V267c0-2.8-0.5-5.4-1.6-7.8c-1-2.3-2.5-4.2-4.4-5.5c-1.9-1.3-4.1-1.9-6.5-1.9c-3.6,0-6.6,1.4-8.9,4.3
					c-2.3,2.9-3.5,6.6-3.5,11.2V268.1z"/>
				<path d="M294,281.3c-2.5,3.6-6.4,5.4-11.8,5.4c-3.9,0-6.9-1.1-9-3.4c-2.1-2.3-3.1-5.7-3.1-10.2V249h4.1v23.5
					c0,7,2.8,10.6,8.5,10.6c5.9,0,9.7-2.4,11.2-7.3V249h4.1v37h-4L294,281.3z M287,243.4l-3.7,0l-7.7-9.5h4.9L287,243.4z"/>
				<path d="M337.2,280.4l11.2-31.3h4.2l-13.8,37h-3.3l-13.9-37h4.2L337.2,280.4z"/>
				<path d="M382.2,286c-0.4-1.2-0.7-2.9-0.8-5.2c-1.4,1.9-3.3,3.3-5.5,4.3c-2.2,1-4.6,1.5-7.1,1.5c-3.6,0-6.4-1-8.6-3
					c-2.2-2-3.3-4.5-3.3-7.5c0-3.6,1.5-6.4,4.5-8.5c3-2.1,7.2-3.1,12.5-3.1h7.4v-4.2c0-2.6-0.8-4.7-2.4-6.2c-1.6-1.5-4-2.3-7.1-2.3
					c-2.8,0-5.2,0.7-7.1,2.2c-1.9,1.5-2.8,3.2-2.8,5.3l-4.1,0c0-2.9,1.4-5.5,4.1-7.6c2.7-2.2,6.1-3.2,10.1-3.2c4.1,0,7.4,1,9.8,3.1
					c2.4,2.1,3.6,4.9,3.7,8.6v17.5c0,3.6,0.4,6.3,1.1,8v0.4H382.2z M369.3,283.1c2.7,0,5.2-0.7,7.3-2c2.2-1.3,3.7-3.1,4.7-5.3v-8.1
					H374c-4.1,0-7.3,0.8-9.6,2.2c-2.3,1.4-3.5,3.4-3.5,6c0,2.1,0.8,3.8,2.3,5.2C364.9,282.4,366.9,283.1,369.3,283.1z"/>
				<path d="M425.7,273.9l6.9-24.9h10.3l-12.5,37h-9.4l-12.5-37h10.3L425.7,273.9z"/>
				<path d="M445.1,267.2c0-3.7,0.7-6.9,2.1-9.8c1.4-2.9,3.4-5.1,6.1-6.7c2.7-1.6,5.7-2.4,9.2-2.4c5,0,9.1,1.5,12.2,4.6
					c3.2,3.1,4.9,7.2,5.3,12.4l0.1,2.5c0,5.7-1.6,10.2-4.8,13.7c-3.2,3.4-7.4,5.1-12.7,5.1s-9.6-1.7-12.8-5.1
					c-3.2-3.4-4.8-8.1-4.8-13.9V267.2z M455,267.9c0,3.5,0.7,6.2,2,8.1c1.3,1.9,3.2,2.8,5.7,2.8c2.4,0,4.3-0.9,5.6-2.8
					c1.3-1.8,2-4.8,2-8.8c0-3.4-0.7-6.1-2-8c-1.3-1.9-3.2-2.8-5.7-2.8c-2.4,0-4.3,0.9-5.6,2.8C455.7,261,455,263.9,455,267.9z"/>
				<path d="M498.1,239.9v9.1h6.3v7.2h-6.3v18.5c0,1.4,0.3,2.3,0.8,2.9c0.5,0.6,1.5,0.9,3,0.9c1.1,0,2.1-0.1,2.9-0.2v7.5
					c-1.9,0.6-3.9,0.9-6,0.9c-6.9,0-10.5-3.5-10.6-10.5v-19.9h-5.4V249h5.4v-9.1H498.1z"/>
				<path d="M530.7,258.3c-1.3-0.2-2.5-0.3-3.6-0.3c-3.7,0-6.2,1.3-7.3,3.8V286h-9.9v-37h9.3l0.3,4.4c2-3.4,4.7-5.1,8.2-5.1
					c1.1,0,2.1,0.1,3.1,0.4L530.7,258.3z"/>
				<path d="M551.8,286.7c-5.4,0-9.8-1.7-13.2-5c-3.4-3.3-5.1-7.8-5.1-13.3v-1c0-3.7,0.7-7,2.2-10c1.4-2.9,3.5-5.2,6.1-6.8
					c2.6-1.6,5.6-2.4,9-2.4c5.1,0,9,1.6,11.9,4.8c2.9,3.2,4.4,7.7,4.4,13.6v4h-23.5c0.3,2.4,1.3,4.4,2.9,5.8
					c1.6,1.5,3.6,2.2,6.1,2.2c3.8,0,6.8-1.4,8.9-4.1l4.9,5.4c-1.5,2.1-3.5,3.7-6,4.9C557.7,286.1,554.9,286.7,551.8,286.7z
					 M550.7,256.3c-2,0-3.5,0.7-4.8,2c-1.2,1.3-2,3.2-2.3,5.7h13.7v-0.8c0-2.2-0.6-3.9-1.8-5.1C554.4,256.9,552.8,256.3,550.7,256.3
					z"/>
				<path d="M611.5,286c-0.5-0.9-0.8-2-1-3.3c-2.4,2.7-5.5,4-9.3,4c-3.6,0-6.6-1-9-3.1c-2.4-2.1-3.6-4.7-3.6-7.9
					c0-3.9,1.5-6.9,4.4-9c2.9-2.1,7.1-3.2,12.6-3.2h4.5v-2.1c0-1.7-0.4-3.1-1.3-4.1c-0.9-1-2.3-1.5-4.2-1.5c-1.7,0-3,0.4-3.9,1.2
					c-0.9,0.8-1.4,1.9-1.4,3.3h-9.9c0-2.1,0.7-4.1,2-5.9c1.3-1.8,3.2-3.3,5.6-4.3c2.4-1,5.1-1.6,8.1-1.6c4.6,0,8.2,1.1,10.9,3.4
					c2.7,2.3,4,5.5,4,9.7v16c0,3.5,0.5,6.2,1.5,8v0.6H611.5z M603.3,279.1c1.5,0,2.8-0.3,4-1c1.2-0.7,2.1-1.5,2.7-2.6v-6.4h-3.7
					c-4.9,0-7.6,1.7-7.9,5.1l0,0.6c0,1.2,0.4,2.2,1.3,3C600.6,278.7,601.8,279.1,603.3,279.1z"/>
				<path d="M648.4,258.3c-1.3-0.2-2.5-0.3-3.6-0.3c-3.7,0-6.2,1.3-7.3,3.8V286h-9.9v-37h9.3l0.3,4.4c2-3.4,4.7-5.1,8.2-5.1
					c1.1,0,2.1,0.1,3.1,0.4L648.4,258.3z"/>
				<path d="M651,267.2c0-5.7,1.4-10.2,4-13.7c2.7-3.5,6.3-5.2,10.9-5.2c4.1,0,7.2,1.4,9.5,4.2l0.4-3.5h9v35.8c0,3.2-0.7,6-2.2,8.4
					c-1.5,2.4-3.5,4.2-6.2,5.5c-2.7,1.3-5.8,1.9-9.4,1.9c-2.7,0-5.4-0.5-7.9-1.6c-2.6-1.1-4.5-2.5-5.8-4.2l4.4-6
					c2.5,2.8,5.4,4.1,9,4.1c2.6,0,4.7-0.7,6.1-2.1c1.5-1.4,2.2-3.4,2.2-6v-2c-2.3,2.6-5.3,3.9-9,3.9c-4.4,0-8-1.7-10.8-5.2
					c-2.7-3.5-4.1-8.1-4.1-13.8V267.2z M660.9,267.9c0,3.4,0.7,6,2,7.9c1.3,1.9,3.2,2.9,5.5,2.9c3,0,5.2-1.1,6.5-3.4v-15.6
					c-1.3-2.3-3.5-3.4-6.4-3.4c-2.4,0-4.2,1-5.6,2.9C661.6,261.2,660.9,264.1,660.9,267.9z"/>
				<path d="M709.4,286.7c-5.4,0-9.8-1.7-13.2-5c-3.4-3.3-5.1-7.8-5.1-13.3v-1c0-3.7,0.7-7,2.2-10c1.4-2.9,3.5-5.2,6.1-6.8
					c2.6-1.6,5.6-2.4,9-2.4c5.1,0,9,1.6,11.9,4.8c2.9,3.2,4.4,7.7,4.4,13.6v4h-23.5c0.3,2.4,1.3,4.4,2.9,5.8
					c1.6,1.5,3.6,2.2,6.1,2.2c3.8,0,6.8-1.4,8.9-4.1l4.9,5.4c-1.5,2.1-3.5,3.7-6,4.9C715.3,286.1,712.5,286.7,709.4,286.7z
					 M708.3,256.3c-2,0-3.5,0.7-4.8,2c-1.2,1.3-2,3.2-2.3,5.7H715v-0.8c0-2.2-0.6-3.9-1.8-5.1C712,256.9,710.4,256.3,708.3,256.3z"
					/>
				<path d="M739.4,249l0.3,4.3c2.6-3.3,6.2-5,10.6-5c3.9,0,6.8,1.2,8.8,3.5c1.9,2.3,2.9,5.7,2.9,10.3V286h-9.9v-23.7
					c0-2.1-0.5-3.6-1.4-4.6c-0.9-0.9-2.4-1.4-4.5-1.4c-2.8,0-4.9,1.2-6.3,3.6V286h-9.9v-37H739.4z"/>
				<path d="M781.3,239.9v9.1h6.3v7.2h-6.3v18.5c0,1.4,0.3,2.3,0.8,2.9c0.5,0.6,1.5,0.9,3,0.9c1.1,0,2.1-0.1,2.9-0.2v7.5
					c-1.9,0.6-3.9,0.9-6,0.9c-6.9,0-10.5-3.5-10.6-10.5v-19.9H766V249h5.4v-9.1H781.3z"/>
				<path d="M826,286.7c-3.1,0-6-0.8-8.5-2.3c-2.5-1.5-4.5-3.7-5.9-6.5c-1.4-2.8-2.1-5.9-2.1-9.3v-1.5c0-3.6,0.7-6.8,2.1-9.6
					c1.4-2.8,3.3-5.1,5.8-6.7c2.5-1.6,5.1-2.4,8-2.4c4.5,0,8,1.5,10.7,4.6c2.6,3.1,3.9,7.3,3.9,12.6v2.3h-26.4v0.8
					c0,4.2,1.2,7.7,3.6,10.5c2.4,2.8,5.4,4.2,9.1,4.2c2.2,0,4.1-0.4,5.8-1.2c1.7-0.8,3.2-2.1,4.6-3.8l2.6,1.9
					C836.1,284.5,831.7,286.7,826,286.7z M825.3,251.8c-3.1,0-5.7,1.1-7.8,3.4s-3.4,5.3-3.8,9.1h22.2v-0.4c-0.1-3.6-1.1-6.4-3-8.7
					C830.9,252.9,828.3,251.8,825.3,251.8z"/>
				<path d="M854.2,239.6v9.5h7.7v3.3h-7.7V277c0,2.1,0.4,3.6,1.1,4.6c0.7,1,2,1.5,3.7,1.5c0.7,0,1.8-0.1,3.3-0.3l0.2,3.3
					c-1.1,0.4-2.5,0.6-4.4,0.6c-2.8,0-4.8-0.8-6.1-2.4c-1.3-1.6-1.9-4-1.9-7.2v-24.7h-6.8V249h6.8v-9.5H854.2z"/>
				<path d="M901,283.2c2.8,0,5.2-0.8,7.2-2.4c1.9-1.6,3-3.7,3.1-6.2h3.9c-0.1,2.3-0.8,4.3-2.1,6.2s-3,3.3-5.2,4.4
					c-2.2,1-4.5,1.6-6.9,1.6c-4.9,0-8.7-1.7-11.5-5.1c-2.8-3.4-4.3-7.9-4.3-13.6v-1.2c0-3.6,0.6-6.9,1.9-9.7c1.3-2.8,3.1-5,5.5-6.5
					c2.4-1.5,5.2-2.3,8.4-2.3c4.1,0,7.4,1.2,10,3.6c2.6,2.4,4,5.6,4.2,9.5h-3.9c-0.2-2.9-1.2-5.2-3.1-7s-4.3-2.7-7.2-2.7
					c-3.7,0-6.6,1.3-8.6,4s-3.1,6.4-3.1,11.2v1.2c0,4.7,1,8.4,3.1,11C894.4,281.9,897.3,283.2,901,283.2z"/>
				<path d="M922.3,248.4l-2.4-1.8c2.1-2.8,3.1-5.7,3.2-8.7v-4.5h4v3.5C927,241.7,925.4,245.5,922.3,248.4z"/>
				<path d="M947.8,286.7c-3.1,0-6-0.8-8.5-2.3c-2.5-1.5-4.5-3.7-5.9-6.5c-1.4-2.8-2.1-5.9-2.1-9.3v-1.5c0-3.6,0.7-6.8,2.1-9.6
					c1.4-2.8,3.3-5.1,5.8-6.7c2.5-1.6,5.1-2.4,8-2.4c4.5,0,8,1.5,10.7,4.6c2.6,3.1,3.9,7.3,3.9,12.6v2.3h-26.4v0.8
					c0,4.2,1.2,7.7,3.6,10.5c2.4,2.8,5.4,4.2,9.1,4.2c2.2,0,4.1-0.4,5.8-1.2c1.7-0.8,3.2-2.1,4.6-3.8l2.6,1.9
					C957.9,284.5,953.5,286.7,947.8,286.7z M947,251.8c-3.1,0-5.7,1.1-7.8,3.4s-3.4,5.3-3.8,9.1h22.2v-0.4c-0.1-3.6-1.1-6.4-3-8.7
					C952.6,252.9,950.1,251.8,947,251.8z"/>
				<path d="M991.8,276.6c0-2-0.8-3.7-2.4-4.9c-1.6-1.2-4.1-2.2-7.4-2.9c-3.3-0.7-5.8-1.5-7.6-2.4c-1.8-0.9-3.2-2-4-3.3
					s-1.3-2.9-1.3-4.7c0-2.9,1.2-5.3,3.7-7.2c2.4-1.9,5.6-2.9,9.4-2.9c4.1,0,7.4,1,9.9,3.1c2.5,2,3.7,4.7,3.7,8h-4.1
					c0-2.2-0.9-4-2.7-5.4c-1.8-1.4-4.1-2.2-6.9-2.2c-2.7,0-4.8,0.6-6.5,1.8c-1.6,1.2-2.4,2.8-2.4,4.7c0,1.8,0.7,3.3,2,4.3
					c1.4,1,3.8,1.9,7.4,2.8c3.6,0.8,6.3,1.7,8.1,2.7s3.1,2.1,4,3.5c0.9,1.3,1.3,3,1.3,4.9c0,3.1-1.3,5.6-3.8,7.5
					c-2.5,1.9-5.8,2.8-9.9,2.8c-4.3,0-7.8-1-10.5-3.1c-2.7-2.1-4-4.7-4-7.9h4.1c0.2,2.4,1.2,4.3,3,5.6c1.9,1.3,4.3,2,7.4,2
					c2.8,0,5.1-0.6,6.9-1.9C990.9,280.1,991.8,278.5,991.8,276.6z"/>
				<path d="M1011.4,239.6v9.5h7.7v3.3h-7.7V277c0,2.1,0.4,3.6,1.1,4.6c0.7,1,2,1.5,3.7,1.5c0.7,0,1.8-0.1,3.3-0.3l0.2,3.3
					c-1.1,0.4-2.5,0.6-4.4,0.6c-2.8,0-4.8-0.8-6.1-2.4c-1.3-1.6-1.9-4-1.9-7.2v-24.7h-6.8V249h6.8v-9.5H1011.4z"/>
				<path d="M237.4,323.6v9.5h7.7v3.3h-7.7V361c0,2.1,0.4,3.6,1.1,4.6c0.7,1,2,1.5,3.7,1.5c0.7,0,1.8-0.1,3.3-0.3l0.2,3.3
					c-1.1,0.4-2.5,0.6-4.4,0.6c-2.8,0-4.8-0.8-6.1-2.4c-1.3-1.6-1.9-4-1.9-7.2v-24.7h-6.8V333h6.8v-9.5H237.4z"/>
				<path d="M250.6,351c0-3.6,0.7-6.8,2.1-9.6c1.4-2.8,3.3-5.1,5.8-6.6c2.5-1.6,5.4-2.4,8.6-2.4c4.9,0,8.9,1.7,12,5.2
					c3.1,3.5,4.6,8,4.6,13.7v0.9c0,3.6-0.7,6.8-2.1,9.7s-3.3,5.1-5.8,6.6c-2.5,1.5-5.4,2.3-8.6,2.3c-4.9,0-8.9-1.7-11.9-5.2
					c-3.1-3.5-4.6-8-4.6-13.7V351z M254.7,352.1c0,4.4,1.1,8,3.4,10.9c2.3,2.8,5.3,4.3,9,4.3c3.7,0,6.7-1.4,9-4.3
					c2.3-2.8,3.4-6.6,3.4-11.2V351c0-2.8-0.5-5.4-1.6-7.8c-1-2.3-2.5-4.2-4.4-5.5c-1.9-1.3-4.1-1.9-6.5-1.9c-3.6,0-6.6,1.4-8.9,4.3
					c-2.3,2.9-3.5,6.6-3.5,11.2V352.1z"/>
				<path d="M315.8,365.3c-2.5,3.6-6.4,5.4-11.8,5.4c-3.9,0-6.9-1.1-9-3.4c-2.1-2.3-3.1-5.7-3.1-10.2V333h4.1v23.5
					c0,7,2.8,10.6,8.5,10.6c5.9,0,9.7-2.4,11.2-7.3V333h4.1v37h-4L315.8,365.3z"/>
				<path d="M336.8,323.6v9.5h7.7v3.3h-7.7V361c0,2.1,0.4,3.6,1.1,4.6c0.7,1,2,1.5,3.7,1.5c0.7,0,1.8-0.1,3.3-0.3l0.2,3.3
					c-1.1,0.4-2.5,0.6-4.4,0.6c-2.8,0-4.8-0.8-6.1-2.4c-1.3-1.6-1.9-4-1.9-7.2v-24.7h-6.8V333h6.8v-9.5H336.8z"/>
				<path d="M393.3,370c-0.4-1.2-0.7-2.9-0.8-5.2c-1.4,1.9-3.3,3.3-5.5,4.3c-2.2,1-4.6,1.5-7.1,1.5c-3.6,0-6.4-1-8.6-3
					c-2.2-2-3.3-4.5-3.3-7.5c0-3.6,1.5-6.4,4.5-8.5c3-2.1,7.2-3.1,12.5-3.1h7.4v-4.2c0-2.6-0.8-4.7-2.4-6.2c-1.6-1.5-4-2.3-7.1-2.3
					c-2.8,0-5.2,0.7-7.1,2.2c-1.9,1.5-2.8,3.2-2.8,5.3l-4.1,0c0-2.9,1.4-5.5,4.1-7.6c2.7-2.2,6.1-3.2,10.1-3.2c4.1,0,7.4,1,9.8,3.1
					c2.4,2.1,3.6,4.9,3.7,8.6v17.5c0,3.6,0.4,6.3,1.1,8v0.4H393.3z M380.5,367.1c2.7,0,5.2-0.7,7.3-2c2.2-1.3,3.7-3.1,4.7-5.3v-8.1
					h-7.3c-4.1,0-7.3,0.8-9.6,2.2c-2.3,1.4-3.5,3.4-3.5,6c0,2.1,0.8,3.8,2.3,5.2C376,366.4,378,367.1,380.5,367.1z M387,327.4
					l-3.7,0l-7.7-9.5h4.9L387,327.4z"/>
				<path d="M427.4,370v-33.6h-6.1V333h6.1v-4.5c0-3.8,1-6.7,2.9-8.7c1.9-2,4.6-3,8-3c1.5,0,3,0.2,4.3,0.6l-0.3,3.4
					c-1.1-0.3-2.4-0.4-3.7-0.4c-2.3,0-4,0.7-5.3,2.1c-1.3,1.4-1.9,3.4-1.9,6v4.6h8.8v3.3h-8.8V370H427.4z"/>
				<path d="M471,370c-0.4-1.2-0.7-2.9-0.8-5.2c-1.4,1.9-3.3,3.3-5.5,4.3c-2.2,1-4.6,1.5-7.1,1.5c-3.6,0-6.4-1-8.6-3
					c-2.2-2-3.3-4.5-3.3-7.5c0-3.6,1.5-6.4,4.5-8.5c3-2.1,7.2-3.1,12.5-3.1h7.4v-4.2c0-2.6-0.8-4.7-2.4-6.2c-1.6-1.5-4-2.3-7.1-2.3
					c-2.8,0-5.2,0.7-7.1,2.2c-1.9,1.5-2.8,3.2-2.8,5.3l-4.1,0c0-2.9,1.4-5.5,4.1-7.6c2.7-2.2,6.1-3.2,10.1-3.2c4.1,0,7.4,1,9.8,3.1
					c2.4,2.1,3.6,4.9,3.7,8.6v17.5c0,3.6,0.4,6.3,1.1,8v0.4H471z M458.2,367.1c2.7,0,5.2-0.7,7.3-2c2.2-1.3,3.7-3.1,4.7-5.3v-8.1
					h-7.3c-4.1,0-7.3,0.8-9.6,2.2c-2.3,1.4-3.5,3.4-3.5,6c0,2.1,0.8,3.8,2.3,5.2C453.7,366.4,455.7,367.1,458.2,367.1z"/>
				<path d="M484.9,322.3c0-0.8,0.2-1.4,0.8-2c0.5-0.5,1.2-0.8,2.1-0.8c0.9,0,1.6,0.3,2.1,0.8c0.5,0.5,0.8,1.2,0.8,2
					c0,0.8-0.3,1.4-0.8,1.9c-0.5,0.5-1.2,0.8-2.1,0.8c-0.9,0-1.5-0.3-2.1-0.8C485.2,323.8,484.9,323.1,484.9,322.3z M489.7,370h-4.1
					v-37h4.1V370z"/>
				<path d="M507.2,323.6v9.5h7.7v3.3h-7.7V361c0,2.1,0.4,3.6,1.1,4.6c0.7,1,2,1.5,3.7,1.5c0.7,0,1.8-0.1,3.3-0.3l0.2,3.3
					c-1.1,0.4-2.5,0.6-4.4,0.6c-2.8,0-4.8-0.8-6.1-2.4c-1.3-1.6-1.9-4-1.9-7.2v-24.7h-6.8V333h6.8v-9.5H507.2z"/>
				<path d="M544.3,333l0.1,6.3c1.4-2.3,3.1-4,5.2-5.2c2.1-1.2,4.4-1.8,6.9-1.8c4,0,6.9,1.1,8.9,3.3c1.9,2.2,2.9,5.6,2.9,10V370
					h-4.1v-24.3c0-3.3-0.7-5.8-2.1-7.4c-1.4-1.6-3.6-2.4-6.6-2.4c-2.5,0-4.8,0.8-6.7,2.4c-1.9,1.6-3.4,3.7-4.3,6.4V370h-4.1v-37
					H544.3z"/>
				<path d="M576.6,351c0-3.6,0.7-6.8,2.1-9.6c1.4-2.8,3.3-5.1,5.8-6.6c2.5-1.6,5.4-2.4,8.6-2.4c4.9,0,8.9,1.7,12,5.2
					c3.1,3.5,4.6,8,4.6,13.7v0.9c0,3.6-0.7,6.8-2.1,9.7s-3.3,5.1-5.8,6.6c-2.5,1.5-5.4,2.3-8.6,2.3c-4.9,0-8.9-1.7-11.9-5.2
					c-3.1-3.5-4.6-8-4.6-13.7V351z M580.7,352.1c0,4.4,1.1,8,3.4,10.9c2.3,2.8,5.3,4.3,9,4.3c3.7,0,6.7-1.4,9-4.3
					c2.3-2.8,3.4-6.6,3.4-11.2V351c0-2.8-0.5-5.4-1.6-7.8c-1-2.3-2.5-4.2-4.4-5.5c-1.9-1.3-4.1-1.9-6.5-1.9c-3.6,0-6.6,1.4-8.9,4.3
					c-2.3,2.9-3.5,6.6-3.5,11.2V352.1z"/>
				<path d="M635.1,336.5c-0.9-0.2-1.8-0.2-2.8-0.2c-2.6,0-4.7,0.7-6.5,2.1c-1.8,1.4-3,3.5-3.8,6.2V370H618v-37h4l0.1,5.9
					c2.2-4.4,5.6-6.6,10.4-6.6c1.1,0,2,0.1,2.7,0.4L635.1,336.5z"/>
				<path d="M645.3,333l0.1,6c1.4-2.2,3.1-3.9,5.1-5c2.1-1.1,4.3-1.7,6.8-1.7c5.8,0,9.5,2.4,11.1,7.2c1.3-2.3,3.1-4.1,5.3-5.3
					c2.2-1.2,4.6-1.9,7.3-1.9c7.9,0,12,4.3,12.1,13V370h-4.1v-24.4c0-3.3-0.7-5.8-2.1-7.3c-1.4-1.6-3.7-2.4-6.9-2.4
					c-2.9,0-5.4,1-7.5,2.9c-2,1.9-3.2,4.1-3.4,6.8V370h-4.1v-24.7c0-3.2-0.8-5.5-2.2-7.1c-1.5-1.6-3.7-2.3-6.8-2.3
					c-2.6,0-4.8,0.7-6.6,2.2c-1.8,1.5-3.2,3.7-4.1,6.5V370h-4.1v-37H645.3z"/>
				<path d="M726.9,370c-0.4-1.2-0.7-2.9-0.8-5.2c-1.4,1.9-3.3,3.3-5.5,4.3c-2.2,1-4.6,1.5-7.1,1.5c-3.6,0-6.4-1-8.6-3
					c-2.2-2-3.3-4.5-3.3-7.5c0-3.6,1.5-6.4,4.5-8.5c3-2.1,7.2-3.1,12.5-3.1h7.4v-4.2c0-2.6-0.8-4.7-2.4-6.2c-1.6-1.5-4-2.3-7.1-2.3
					c-2.8,0-5.2,0.7-7.1,2.2c-1.9,1.5-2.8,3.2-2.8,5.3l-4.1,0c0-2.9,1.4-5.5,4.1-7.6c2.7-2.2,6.1-3.2,10.1-3.2c4.1,0,7.4,1,9.8,3.1
					c2.4,2.1,3.6,4.9,3.7,8.6v17.5c0,3.6,0.4,6.3,1.1,8v0.4H726.9z M714.1,367.1c2.7,0,5.2-0.7,7.3-2c2.2-1.3,3.7-3.1,4.7-5.3v-8.1
					h-7.3c-4.1,0-7.3,0.8-9.6,2.2c-2.3,1.4-3.5,3.4-3.5,6c0,2.1,0.8,3.8,2.3,5.2C709.6,366.4,711.6,367.1,714.1,367.1z"/>
				<path d="M745.7,370h-4.1v-52.5h4.1V370z"/>
				<path d="M773.4,367.5c0-0.8,0.3-1.5,0.8-2c0.5-0.6,1.2-0.8,2.1-0.8c0.9,0,1.6,0.3,2.2,0.8c0.5,0.6,0.8,1.2,0.8,2
					c0,0.8-0.3,1.5-0.8,2c-0.5,0.5-1.2,0.8-2.2,0.8c-0.9,0-1.6-0.3-2.1-0.8C773.7,369,773.4,368.3,773.4,367.5z"/>
				<path d="M790.1,367.5c0-0.8,0.3-1.5,0.8-2c0.5-0.6,1.2-0.8,2.1-0.8c0.9,0,1.6,0.3,2.2,0.8c0.5,0.6,0.8,1.2,0.8,2
					c0,0.8-0.3,1.5-0.8,2c-0.5,0.5-1.2,0.8-2.2,0.8c-0.9,0-1.6-0.3-2.1-0.8C790.4,369,790.1,368.3,790.1,367.5z"/>
			</g>
		</g>
	</g>
</g>
</svg>
