<?xml version="1.0" encoding="utf-8"?>
<!-- Generator: Adobe Illustrator 21.0.0, SVG Export Plug-In . SVG Version: 6.00 Build 0)  -->
<svg version="1.1" xmlns="http://www.w3.org/2000/svg" xmlns:xlink="http://www.w3.org/1999/xlink" x="0px" y="0px"
	 viewBox="0 0 1197.2 516" style="enable-background:new 0 0 1197.2 516;" xml:space="preserve">
<style type="text/css">
	.st0{fill:#0E97E7;}
	.st1{fill:#FFFFFF;}
	.st2{fill:none;stroke:#FFFFFF;stroke-width:18;stroke-miterlimit:10;}
	.st3{fill:none;stroke:#FFFFFF;stroke-width:5;stroke-miterlimit:10;}
	.st4{opacity:0.5;fill:none;stroke:#000000;stroke-width:1.5;stroke-miterlimit:10;}
	.st5{fill:none;stroke:#000000;stroke-width:8;stroke-miterlimit:10;}
	.st6{fill:#4F4F4F;}
	.st7{fill:none;stroke:#FFFFFF;stroke-width:16;stroke-miterlimit:10;}
	.st8{fill:none;stroke:#DF0920;stroke-width:18;stroke-miterlimit:10;}
	.st9{fill:none;stroke:#3E4098;stroke-width:18;stroke-miterlimit:10;}
	.st10{fill:#3E4098;}
	.st11{fill:none;stroke:#59C24F;stroke-width:18;stroke-miterlimit:10;}
	.st12{fill:none;}
</style>
<g id="Home_x5F_Claire_x5F_Juglair_x5F_St_x5F_Nazaire_xA0_Image_1_">
</g>
<g id="Calque_3">
</g>
<g id="bulles">
	<g>
		<path class="st1" d="M117.8,482c0,18.8,15.2,34,34,34h1018c18.8,0,34-15.2,34-34V34c0-18.8-15.2-34-34-34l-1018,0
			c-18.8,0-34,15.2-34,34V482z"/>
		<g>
			<path d="M224.6,206.2v-49.8h13.9c4.1,0,7.7,0.9,11,2.8c3.2,1.9,5.8,4.5,7.6,8c1.8,3.5,2.7,7.4,2.7,11.8v4.6
				c0,4.4-0.9,8.4-2.7,11.8c-1.8,3.4-4.3,6.1-7.6,8c-3.3,1.9-7,2.8-11.3,2.8H224.6z M228.8,160v42.7h9.4c5.2,0,9.4-1.7,12.6-5.2
				s4.8-8.2,4.8-14.1v-4.4c0-5.7-1.6-10.3-4.7-13.8c-3.1-3.4-7.2-5.2-12.3-5.2H228.8z"/>
			<path d="M292.8,206.2c-0.4-1.2-0.7-2.9-0.8-5.2c-1.4,1.9-3.3,3.3-5.5,4.3c-2.2,1-4.6,1.5-7.1,1.5c-3.6,0-6.4-1-8.6-3
				c-2.2-2-3.3-4.5-3.3-7.5c0-3.6,1.5-6.4,4.5-8.5c3-2.1,7.2-3.1,12.5-3.1h7.4v-4.2c0-2.6-0.8-4.7-2.4-6.2c-1.6-1.5-4-2.3-7.1-2.3
				c-2.8,0-5.2,0.7-7.1,2.2c-1.9,1.5-2.8,3.2-2.8,5.3l-4.1,0c0-2.9,1.4-5.5,4.1-7.6c2.7-2.2,6.1-3.2,10.1-3.2c4.1,0,7.4,1,9.8,3.1
				c2.4,2.1,3.6,4.9,3.7,8.6v17.5c0,3.6,0.4,6.3,1.1,8v0.4H292.8z M280,203.3c2.7,0,5.2-0.7,7.3-2c2.2-1.3,3.7-3.1,4.7-5.3v-8.1
				h-7.3c-4.1,0-7.3,0.8-9.6,2.2s-3.5,3.4-3.5,6c0,2.1,0.8,3.8,2.3,5.2S277.5,203.3,280,203.3z"/>
			<path d="M310.9,169.2l0.1,6.3c1.4-2.3,3.1-4,5.2-5.2c2.1-1.2,4.4-1.8,6.9-1.8c4,0,6.9,1.1,8.9,3.3c1.9,2.2,2.9,5.6,2.9,10v24.3
				h-4.1v-24.3c0-3.3-0.7-5.8-2.1-7.4c-1.4-1.6-3.6-2.4-6.6-2.4c-2.5,0-4.8,0.8-6.7,2.4c-1.9,1.6-3.4,3.7-4.3,6.4v25.3H307v-37
				H310.9z"/>
			<path d="M367.6,196.8c0-2-0.8-3.7-2.4-4.9c-1.6-1.2-4.1-2.2-7.4-2.9c-3.3-0.7-5.8-1.5-7.6-2.4c-1.8-0.9-3.2-2-4-3.3
				c-0.9-1.3-1.3-2.9-1.3-4.7c0-2.9,1.2-5.3,3.7-7.2c2.4-1.9,5.6-2.9,9.4-2.9c4.1,0,7.4,1,9.9,3.1c2.5,2,3.7,4.7,3.7,8h-4.1
				c0-2.2-0.9-4-2.7-5.4s-4.1-2.2-6.9-2.2c-2.7,0-4.8,0.6-6.5,1.8c-1.6,1.2-2.4,2.8-2.4,4.7c0,1.8,0.7,3.3,2,4.3
				c1.4,1,3.8,1.9,7.4,2.8c3.6,0.8,6.3,1.7,8.1,2.7c1.8,1,3.1,2.1,4,3.5c0.9,1.3,1.3,3,1.3,4.9c0,3.1-1.3,5.6-3.8,7.5
				c-2.5,1.9-5.8,2.8-9.9,2.8c-4.3,0-7.8-1-10.5-3.1c-2.7-2.1-4-4.7-4-7.9h4.1c0.2,2.4,1.2,4.3,3,5.6c1.9,1.3,4.3,2,7.4,2
				c2.8,0,5.1-0.6,6.9-1.9C366.7,200.3,367.6,198.7,367.6,196.8z"/>
			<path d="M411.6,203.4c2.8,0,5.2-0.8,7.2-2.4c1.9-1.6,3-3.7,3.1-6.2h3.9c-0.1,2.3-0.8,4.3-2.1,6.2s-3,3.3-5.2,4.4
				s-4.5,1.6-6.9,1.6c-4.9,0-8.7-1.7-11.5-5.1c-2.8-3.4-4.3-7.9-4.3-13.6V187c0-3.6,0.6-6.9,1.9-9.7s3.1-5,5.5-6.5
				c2.4-1.5,5.2-2.3,8.4-2.3c4.1,0,7.4,1.2,10,3.6c2.6,2.4,4,5.6,4.2,9.5h-3.9c-0.2-2.9-1.2-5.2-3.1-7c-1.9-1.8-4.3-2.7-7.2-2.7
				c-3.7,0-6.6,1.3-8.6,4c-2,2.7-3.1,6.4-3.1,11.2v1.2c0,4.7,1,8.4,3.1,11C405,202.1,407.9,203.4,411.6,203.4z"/>
			<path d="M448.3,206.9c-3.1,0-6-0.8-8.5-2.3c-2.5-1.5-4.5-3.7-5.9-6.5c-1.4-2.8-2.1-5.9-2.1-9.3v-1.5c0-3.6,0.7-6.8,2.1-9.6
				c1.4-2.8,3.3-5.1,5.8-6.7c2.5-1.6,5.1-2.4,8-2.4c4.5,0,8,1.5,10.7,4.6s3.9,7.3,3.9,12.6v2.3h-26.4v0.8c0,4.2,1.2,7.7,3.6,10.5
				c2.4,2.8,5.4,4.2,9.1,4.2c2.2,0,4.1-0.4,5.8-1.2c1.7-0.8,3.2-2.1,4.6-3.8l2.6,1.9C458.4,204.7,454,206.9,448.3,206.9z M447.5,172
				c-3.1,0-5.7,1.1-7.8,3.4c-2.1,2.3-3.4,5.3-3.8,9.1h22.2V184c-0.1-3.6-1.1-6.4-3-8.7C453.1,173.1,450.6,172,447.5,172z"/>
			<path d="M516.9,188.1c0,5.8-1.3,10.3-3.8,13.7c-2.6,3.4-6,5.1-10.3,5.1c-5.1,0-9-1.9-11.7-5.7l-0.2,5.1h-3.8v-52.5h4.1v20.9
				c2.6-4,6.4-6,11.6-6c4.4,0,7.8,1.7,10.4,5c2.5,3.3,3.8,8,3.8,13.9V188.1z M512.8,187.4c0-4.9-0.9-8.6-2.8-11.3s-4.6-4-8-4
				c-2.6,0-4.8,0.6-6.7,1.9s-3.2,3.2-4.1,5.7v16.7c2.1,4.6,5.7,7,10.9,7c3.4,0,6-1.3,7.9-4C511.9,196.7,512.8,192.7,512.8,187.4z"/>
			<path d="M549.7,201.5c-2.5,3.6-6.4,5.4-11.8,5.4c-3.9,0-6.9-1.1-9-3.4c-2.1-2.3-3.1-5.7-3.1-10.2v-24.1h4.1v23.5
				c0,7,2.8,10.6,8.5,10.6c5.9,0,9.7-2.4,11.2-7.3v-26.8h4.1v37h-4L549.7,201.5z"/>
			<path d="M562.7,187.4c0-5.7,1.3-10.3,3.8-13.7c2.6-3.4,6-5.1,10.4-5.1c5,0,8.8,2,11.4,5.9v-20.7h4.1v52.5h-3.8l-0.2-4.9
				c-2.6,3.7-6.5,5.6-11.6,5.6c-4.3,0-7.7-1.7-10.3-5.1c-2.6-3.4-3.9-8.1-3.9-13.9V187.4z M566.9,188.1c0,4.7,0.9,8.4,2.8,11.2
				s4.6,4.1,8,4.1c5,0,8.6-2.2,10.7-6.7v-17.4c-2.1-4.8-5.7-7.2-10.7-7.2c-3.4,0-6.1,1.3-8,4.1C567.8,178.8,566.9,182.8,566.9,188.1
				z"/>
			<path d="M601.6,187.4c0-5.8,1.3-10.4,3.8-13.8c2.6-3.4,6-5.1,10.4-5.1c5,0,8.9,2,11.5,6l0.2-5.3h3.8v36.2c0,4.8-1.3,8.5-4,11.3
				c-2.7,2.8-6.3,4.2-10.8,4.2c-2.6,0-5-0.6-7.4-1.7c-2.3-1.2-4.2-2.7-5.5-4.6l2.3-2.5c2.9,3.6,6.3,5.3,10.3,5.3c3.4,0,6.1-1,8-3
				c1.9-2,2.9-4.8,3-8.4v-4.6c-2.6,3.6-6.4,5.5-11.5,5.5c-4.3,0-7.7-1.7-10.3-5.1s-3.9-8-3.9-13.8V187.4z M605.8,188.1
				c0,4.7,0.9,8.4,2.8,11.2s4.6,4.1,8,4.1c5,0,8.6-2.3,10.7-6.8v-17.2c-1-2.4-2.3-4.2-4.1-5.4s-4-1.9-6.5-1.9c-3.4,0-6.1,1.3-8,4.1
				C606.7,178.8,605.8,182.8,605.8,188.1z"/>
			<path d="M656.4,206.9c-3.1,0-6-0.8-8.5-2.3c-2.5-1.5-4.5-3.7-5.9-6.5c-1.4-2.8-2.1-5.9-2.1-9.3v-1.5c0-3.6,0.7-6.8,2.1-9.6
				c1.4-2.8,3.3-5.1,5.8-6.7c2.5-1.6,5.1-2.4,8-2.4c4.5,0,8,1.5,10.7,4.6c2.6,3.1,3.9,7.3,3.9,12.6v2.3h-26.4v0.8
				c0,4.2,1.2,7.7,3.6,10.5c2.4,2.8,5.4,4.2,9.1,4.2c2.2,0,4.1-0.4,5.8-1.2c1.7-0.8,3.2-2.1,4.6-3.8l2.6,1.9
				C666.5,204.7,662.1,206.9,656.4,206.9z M655.7,172c-3.1,0-5.7,1.1-7.8,3.4c-2.1,2.3-3.4,5.3-3.8,9.1h22.2V184
				c-0.1-3.6-1.1-6.4-3-8.7C661.3,173.1,658.8,172,655.7,172z"/>
			<path d="M684.6,159.7v9.5h7.7v3.3h-7.7v24.7c0,2.1,0.4,3.6,1.1,4.6c0.7,1,2,1.5,3.7,1.5c0.7,0,1.8-0.1,3.3-0.3l0.2,3.3
				c-1.1,0.4-2.5,0.6-4.4,0.6c-2.8,0-4.8-0.8-6.1-2.4c-1.3-1.6-1.9-4-1.9-7.2v-24.7h-6.8v-3.3h6.8v-9.5H684.6z"/>
			<path d="M699.9,215.5l-2.4-1.8c2.1-2.8,3.1-5.7,3.2-8.6v-5.3h4v4.3C704.7,208.8,703.1,212.6,699.9,215.5z"/>
			<path d="M755,201.5c-2.5,3.6-6.4,5.4-11.8,5.4c-3.9,0-6.9-1.1-9-3.4c-2.1-2.3-3.1-5.7-3.1-10.2v-24.1h4.1v23.5
				c0,7,2.8,10.6,8.5,10.6c5.9,0,9.7-2.4,11.2-7.3v-26.8h4.1v37h-4L755,201.5z"/>
			<path d="M773.5,169.2l0.1,6.3c1.4-2.3,3.1-4,5.2-5.2c2.1-1.2,4.4-1.8,6.9-1.8c4,0,6.9,1.1,8.9,3.3c1.9,2.2,2.9,5.6,2.9,10v24.3
				h-4.1v-24.3c0-3.3-0.7-5.8-2.1-7.4c-1.4-1.6-3.6-2.4-6.6-2.4c-2.5,0-4.8,0.8-6.7,2.4c-1.9,1.6-3.4,3.7-4.3,6.4v25.3h-4.1v-37
				H773.5z"/>
			<path d="M822.4,206.9c-3.1,0-6-0.8-8.5-2.3c-2.5-1.5-4.5-3.7-5.9-6.5c-1.4-2.8-2.1-5.9-2.1-9.3v-1.5c0-3.6,0.7-6.8,2.1-9.6
				c1.4-2.8,3.3-5.1,5.8-6.7c2.5-1.6,5.1-2.4,8-2.4c4.5,0,8,1.5,10.7,4.6c2.6,3.1,3.9,7.3,3.9,12.6v2.3h-26.4v0.8
				c0,4.2,1.2,7.7,3.6,10.5c2.4,2.8,5.4,4.2,9.1,4.2c2.2,0,4.1-0.4,5.8-1.2c1.7-0.8,3.2-2.1,4.6-3.8l2.6,1.9
				C832.5,204.7,828.1,206.9,822.4,206.9z M821.7,172c-3.1,0-5.7,1.1-7.8,3.4s-3.4,5.3-3.8,9.1h22.2V184c-0.1-3.6-1.1-6.4-3-8.7
				C827.3,173.1,824.8,172,821.7,172z"/>
			<path d="M891,188.1c0,5.8-1.3,10.3-3.8,13.7c-2.6,3.4-6,5.1-10.3,5.1c-5.1,0-8.9-1.8-11.6-5.3v18.9h-4.1v-51.2h3.8l0.2,5.2
				c2.7-3.9,6.5-5.9,11.6-5.9c4.4,0,7.9,1.7,10.4,5s3.8,8,3.8,13.9V188.1z M886.9,187.4c0-4.7-1-8.4-2.9-11.2
				c-1.9-2.7-4.6-4.1-8.1-4.1c-2.5,0-4.7,0.6-6.5,1.8c-1.8,1.2-3.2,3-4.1,5.3v17.7c1,2.1,2.4,3.7,4.2,4.9c1.8,1.1,4,1.7,6.5,1.7
				c3.4,0,6.1-1.4,8-4.1S886.9,192.6,886.9,187.4z"/>
			<path d="M923.4,206.2c-0.4-1.2-0.7-2.9-0.8-5.2c-1.4,1.9-3.3,3.3-5.5,4.3c-2.2,1-4.6,1.5-7.1,1.5c-3.6,0-6.4-1-8.6-3
				c-2.2-2-3.3-4.5-3.3-7.5c0-3.6,1.5-6.4,4.5-8.5c3-2.1,7.2-3.1,12.5-3.1h7.4v-4.2c0-2.6-0.8-4.7-2.4-6.2c-1.6-1.5-4-2.3-7.1-2.3
				c-2.8,0-5.2,0.7-7.1,2.2c-1.9,1.5-2.8,3.2-2.8,5.3l-4.1,0c0-2.9,1.4-5.5,4.1-7.6c2.7-2.2,6.1-3.2,10.1-3.2c4.1,0,7.4,1,9.8,3.1
				c2.4,2.1,3.6,4.9,3.7,8.6v17.5c0,3.6,0.4,6.3,1.1,8v0.4H923.4z M910.6,203.3c2.7,0,5.2-0.7,7.3-2c2.2-1.3,3.7-3.1,4.7-5.3v-8.1
				h-7.3c-4.1,0-7.3,0.8-9.6,2.2c-2.3,1.4-3.5,3.4-3.5,6c0,2.1,0.8,3.8,2.3,5.2C906.1,202.6,908.1,203.3,910.6,203.3z"/>
			<path d="M954.6,172.7c-0.9-0.2-1.8-0.2-2.8-0.2c-2.6,0-4.7,0.7-6.5,2.1c-1.8,1.4-3,3.5-3.8,6.2v25.4h-4.1v-37h4l0.1,5.9
				c2.2-4.4,5.6-6.6,10.4-6.6c1.1,0,2,0.1,2.7,0.4L954.6,172.7z"/>
			<path d="M969.2,159.7v9.5h7.7v3.3h-7.7v24.7c0,2.1,0.4,3.6,1.1,4.6c0.7,1,2,1.5,3.7,1.5c0.7,0,1.8-0.1,3.3-0.3l0.2,3.3
				c-1.1,0.4-2.5,0.6-4.4,0.6c-2.8,0-4.8-0.8-6.1-2.4c-1.3-1.6-1.9-4-1.9-7.2v-24.7h-6.8v-3.3h6.8v-9.5H969.2z"/>
			<path d="M238,290.9c-3.1,0-6-0.8-8.5-2.3c-2.5-1.5-4.5-3.7-5.9-6.5c-1.4-2.8-2.1-5.9-2.1-9.3v-1.5c0-3.6,0.7-6.8,2.1-9.6
				c1.4-2.8,3.3-5.1,5.8-6.7c2.5-1.6,5.1-2.4,8-2.4c4.5,0,8,1.5,10.7,4.6s3.9,7.3,3.9,12.6v2.3h-26.4v0.8c0,4.2,1.2,7.7,3.6,10.5
				c2.4,2.8,5.4,4.2,9.1,4.2c2.2,0,4.1-0.4,5.8-1.2c1.7-0.8,3.2-2.1,4.6-3.8l2.6,1.9C248.1,288.7,243.7,290.9,238,290.9z M237.2,256
				c-3.1,0-5.7,1.1-7.8,3.4c-2.1,2.3-3.4,5.3-3.8,9.1h22.2V268c-0.1-3.6-1.1-6.4-3-8.7C242.8,257.1,240.3,256,237.2,256z"/>
			<path d="M282,280.8c0-2-0.8-3.7-2.4-4.9c-1.6-1.2-4.1-2.2-7.4-2.9c-3.3-0.7-5.8-1.5-7.6-2.4c-1.8-0.9-3.2-2-4-3.3
				c-0.9-1.3-1.3-2.9-1.3-4.7c0-2.9,1.2-5.3,3.7-7.2c2.4-1.9,5.6-2.9,9.4-2.9c4.1,0,7.4,1,9.9,3.1c2.5,2,3.7,4.7,3.7,8h-4.1
				c0-2.2-0.9-4-2.7-5.4s-4.1-2.2-6.9-2.2c-2.7,0-4.8,0.6-6.5,1.8c-1.6,1.2-2.4,2.8-2.4,4.7c0,1.8,0.7,3.3,2,4.3
				c1.4,1,3.8,1.9,7.4,2.8c3.6,0.8,6.3,1.7,8.1,2.7c1.8,1,3.1,2.1,4,3.5c0.9,1.3,1.3,3,1.3,4.9c0,3.1-1.3,5.6-3.8,7.5
				c-2.5,1.9-5.8,2.8-9.9,2.8c-4.3,0-7.8-1-10.5-3.1c-2.7-2.1-4-4.7-4-7.9h4.1c0.2,2.4,1.2,4.3,3,5.6c1.9,1.3,4.3,2,7.4,2
				c2.8,0,5.1-0.6,6.9-1.9C281.1,284.3,282,282.7,282,280.8z"/>
			<path d="M301.6,243.7v9.5h7.7v3.3h-7.7v24.7c0,2.1,0.4,3.6,1.1,4.6c0.7,1,2,1.5,3.7,1.5c0.7,0,1.8-0.1,3.3-0.3l0.2,3.3
				c-1.1,0.4-2.5,0.6-4.4,0.6c-2.8,0-4.8-0.8-6.1-2.4s-1.9-4-1.9-7.2v-24.7h-6.8v-3.3h6.8v-9.5H301.6z"/>
			<path d="M364.5,272.1c0,5.8-1.3,10.3-3.8,13.7c-2.6,3.4-6,5.1-10.3,5.1c-5.1,0-9-1.9-11.7-5.7l-0.2,5.1h-3.8v-52.5h4.1v20.9
				c2.6-4,6.4-6,11.6-6c4.4,0,7.8,1.7,10.4,5c2.5,3.3,3.8,8,3.8,13.9V272.1z M360.4,271.4c0-4.9-0.9-8.6-2.8-11.3s-4.6-4-8-4
				c-2.6,0-4.8,0.6-6.7,1.9s-3.2,3.2-4.1,5.7v16.7c2.1,4.6,5.7,7,10.9,7c3.4,0,6-1.3,7.9-4C359.5,280.7,360.4,276.7,360.4,271.4z"/>
			<path d="M373.3,242.5c0-0.8,0.3-1.4,0.8-2c0.5-0.5,1.2-0.8,2.1-0.8s1.6,0.3,2.1,0.8c0.5,0.5,0.8,1.2,0.8,2c0,0.8-0.3,1.4-0.8,1.9
				c-0.5,0.5-1.2,0.8-2.1,0.8s-1.5-0.3-2.1-0.8C373.6,243.9,373.3,243.3,373.3,242.5z M378.1,290.2H374v-37h4.1V290.2z"/>
			<path d="M403.6,290.9c-3.1,0-6-0.8-8.5-2.3c-2.5-1.5-4.5-3.7-5.9-6.5c-1.4-2.8-2.1-5.9-2.1-9.3v-1.5c0-3.6,0.7-6.8,2.1-9.6
				c1.4-2.8,3.3-5.1,5.8-6.7c2.5-1.6,5.1-2.4,8-2.4c4.5,0,8,1.5,10.7,4.6s3.9,7.3,3.9,12.6v2.3h-26.4v0.8c0,4.2,1.2,7.7,3.6,10.5
				c2.4,2.8,5.4,4.2,9.1,4.2c2.2,0,4.1-0.4,5.8-1.2c1.7-0.8,3.2-2.1,4.6-3.8l2.6,1.9C413.7,288.7,409.3,290.9,403.6,290.9z
				 M402.8,256c-3.1,0-5.7,1.1-7.8,3.4c-2.1,2.3-3.4,5.3-3.8,9.1h22.2V268c-0.1-3.6-1.1-6.4-3-8.7C408.4,257.1,405.9,256,402.8,256z
				"/>
			<path d="M429.3,253.2l0.1,6.3c1.4-2.3,3.1-4,5.2-5.2c2.1-1.2,4.4-1.8,6.9-1.8c4,0,6.9,1.1,8.9,3.3c1.9,2.2,2.9,5.6,2.9,10v24.3
				h-4.1v-24.3c0-3.3-0.7-5.8-2.1-7.4c-1.4-1.6-3.6-2.4-6.6-2.4c-2.5,0-4.8,0.8-6.7,2.4c-1.9,1.6-3.4,3.7-4.3,6.4v25.3h-4.1v-37
				H429.3z"/>
			<path d="M503,280.8c0-2-0.8-3.7-2.4-4.9c-1.6-1.2-4.1-2.2-7.4-2.9c-3.3-0.7-5.8-1.5-7.6-2.4c-1.8-0.9-3.2-2-4-3.3
				c-0.9-1.3-1.3-2.9-1.3-4.7c0-2.9,1.2-5.3,3.7-7.2c2.4-1.9,5.6-2.9,9.4-2.9c4.1,0,7.4,1,9.9,3.1c2.5,2,3.7,4.7,3.7,8h-4.1
				c0-2.2-0.9-4-2.7-5.4s-4.1-2.2-6.9-2.2c-2.7,0-4.8,0.6-6.5,1.8c-1.6,1.2-2.4,2.8-2.4,4.7c0,1.8,0.7,3.3,2,4.3
				c1.4,1,3.8,1.9,7.4,2.8c3.6,0.8,6.3,1.7,8.1,2.7c1.8,1,3.1,2.1,4,3.5c0.9,1.3,1.3,3,1.3,4.9c0,3.1-1.3,5.6-3.8,7.5
				c-2.5,1.9-5.8,2.8-9.9,2.8c-4.3,0-7.8-1-10.5-3.1c-2.7-2.1-4-4.7-4-7.9h4.1c0.2,2.4,1.2,4.3,3,5.6c1.9,1.3,4.3,2,7.4,2
				c2.8,0,5.1-0.6,6.9-1.9C502.2,284.3,503,282.7,503,280.8z"/>
			<path d="M540.1,285.5c-2.5,3.6-6.4,5.4-11.8,5.4c-3.9,0-6.9-1.1-9-3.4c-2.1-2.3-3.1-5.7-3.1-10.2v-24.1h4.1v23.5
				c0,7,2.8,10.6,8.5,10.6c5.9,0,9.7-2.4,11.2-7.3v-26.8h4.1v37h-4L540.1,285.5z M540.1,246.9v0.3h-3.8l-5.7-6.3l-5.7,6.3h-3.7v-0.4
				l8.1-8.7h2.6L540.1,246.9z"/>
			<path d="M571.9,256.7c-0.9-0.2-1.8-0.2-2.8-0.2c-2.6,0-4.7,0.7-6.5,2.1c-1.8,1.4-3,3.5-3.8,6.2v25.4h-4.1v-37h4l0.1,5.9
				c2.2-4.4,5.6-6.6,10.4-6.6c1.1,0,2,0.1,2.7,0.4L571.9,256.7z"/>
			<path d="M592,290.9c-3.1,0-6-0.8-8.5-2.3c-2.5-1.5-4.5-3.7-5.9-6.5c-1.4-2.8-2.1-5.9-2.1-9.3v-1.5c0-3.6,0.7-6.8,2.1-9.6
				c1.4-2.8,3.3-5.1,5.8-6.7c2.5-1.6,5.1-2.4,8-2.4c4.5,0,8,1.5,10.7,4.6s3.9,7.3,3.9,12.6v2.3h-26.4v0.8c0,4.2,1.2,7.7,3.6,10.5
				c2.4,2.8,5.4,4.2,9.1,4.2c2.2,0,4.1-0.4,5.8-1.2c1.7-0.8,3.2-2.1,4.6-3.8l2.6,1.9C602.1,288.7,597.7,290.9,592,290.9z M591.2,256
				c-3.1,0-5.7,1.1-7.8,3.4c-2.1,2.3-3.4,5.3-3.8,9.1h22.2V268c-0.1-3.6-1.1-6.4-3-8.7C596.9,257.1,594.3,256,591.2,256z"/>
			<path d="M644.5,287.4c2.8,0,5.2-0.8,7.2-2.4c1.9-1.6,3-3.7,3.1-6.2h3.9c-0.1,2.3-0.8,4.3-2.1,6.2s-3,3.3-5.2,4.4
				s-4.5,1.6-6.9,1.6c-4.9,0-8.7-1.7-11.5-5.1c-2.8-3.4-4.3-7.9-4.3-13.6V271c0-3.6,0.6-6.9,1.9-9.7s3.1-5,5.5-6.5
				c2.4-1.5,5.2-2.3,8.4-2.3c4.1,0,7.4,1.2,10,3.6c2.6,2.4,4,5.6,4.2,9.5h-3.9c-0.2-2.9-1.2-5.2-3.1-7c-1.9-1.8-4.3-2.7-7.2-2.7
				c-3.7,0-6.6,1.3-8.6,4c-2,2.7-3.1,6.4-3.1,11.2v1.2c0,4.7,1,8.4,3.1,11C637.9,286.1,640.8,287.4,644.5,287.4z"/>
			<path d="M664.7,271.2c0-3.6,0.7-6.8,2.1-9.6c1.4-2.8,3.3-5.1,5.8-6.6c2.5-1.6,5.4-2.4,8.6-2.4c4.9,0,8.9,1.7,12,5.2
				c3.1,3.5,4.6,8,4.6,13.7v0.9c0,3.6-0.7,6.8-2.1,9.7s-3.3,5.1-5.8,6.6c-2.5,1.5-5.4,2.3-8.6,2.3c-4.9,0-8.9-1.7-11.9-5.2
				c-3.1-3.5-4.6-8-4.6-13.7V271.2z M668.8,272.3c0,4.4,1.1,8,3.4,10.9c2.3,2.8,5.3,4.3,9,4.3c3.7,0,6.7-1.4,9-4.3
				c2.3-2.8,3.4-6.6,3.4-11.2v-0.8c0-2.8-0.5-5.4-1.6-7.8c-1-2.3-2.5-4.2-4.4-5.5c-1.9-1.3-4.1-1.9-6.5-1.9c-3.6,0-6.6,1.4-8.9,4.3
				c-2.3,2.9-3.5,6.6-3.5,11.2V272.3z"/>
			<path d="M710,253.2l0.1,6.3c1.4-2.3,3.1-4,5.2-5.2c2.1-1.2,4.4-1.8,6.9-1.8c4,0,6.9,1.1,8.9,3.3c1.9,2.2,2.9,5.6,2.9,10v24.3H730
				v-24.3c0-3.3-0.7-5.8-2.1-7.4c-1.4-1.6-3.6-2.4-6.6-2.4c-2.5,0-4.8,0.8-6.7,2.4c-1.9,1.6-3.4,3.7-4.3,6.4v25.3h-4.1v-37H710z"/>
			<path d="M766.7,280.8c0-2-0.8-3.7-2.4-4.9c-1.6-1.2-4.1-2.2-7.4-2.9c-3.3-0.7-5.8-1.5-7.6-2.4c-1.8-0.9-3.2-2-4-3.3
				s-1.3-2.9-1.3-4.7c0-2.9,1.2-5.3,3.7-7.2c2.4-1.9,5.6-2.9,9.4-2.9c4.1,0,7.4,1,9.9,3.1c2.5,2,3.7,4.7,3.7,8h-4.1
				c0-2.2-0.9-4-2.7-5.4c-1.8-1.4-4.1-2.2-6.9-2.2c-2.7,0-4.8,0.6-6.5,1.8c-1.6,1.2-2.4,2.8-2.4,4.7c0,1.8,0.7,3.3,2,4.3
				c1.4,1,3.8,1.9,7.4,2.8c3.6,0.8,6.3,1.7,8.1,2.7s3.1,2.1,4,3.5c0.9,1.3,1.3,3,1.3,4.9c0,3.1-1.3,5.6-3.8,7.5
				c-2.5,1.9-5.8,2.8-9.9,2.8c-4.3,0-7.8-1-10.5-3.1c-2.7-2.1-4-4.7-4-7.9h4.1c0.2,2.4,1.2,4.3,3,5.6c1.9,1.3,4.3,2,7.4,2
				c2.8,0,5.1-0.6,6.9-1.9C765.8,284.3,766.7,282.7,766.7,280.8z"/>
			<path d="M803.4,290.2c-0.4-1.2-0.7-2.9-0.8-5.2c-1.4,1.9-3.3,3.3-5.5,4.3c-2.2,1-4.6,1.5-7.1,1.5c-3.6,0-6.4-1-8.6-3
				c-2.2-2-3.3-4.5-3.3-7.5c0-3.6,1.5-6.4,4.5-8.5c3-2.1,7.2-3.1,12.5-3.1h7.4v-4.2c0-2.6-0.8-4.7-2.4-6.2c-1.6-1.5-4-2.3-7.1-2.3
				c-2.8,0-5.2,0.7-7.1,2.2c-1.9,1.5-2.8,3.2-2.8,5.3l-4.1,0c0-2.9,1.4-5.5,4.1-7.6c2.7-2.2,6.1-3.2,10.1-3.2c4.1,0,7.4,1,9.8,3.1
				c2.4,2.1,3.6,4.9,3.7,8.6v17.5c0,3.6,0.4,6.3,1.1,8v0.4H803.4z M790.5,287.3c2.7,0,5.2-0.7,7.3-2c2.2-1.3,3.7-3.1,4.7-5.3v-8.1
				h-7.3c-4.1,0-7.3,0.8-9.6,2.2c-2.3,1.4-3.5,3.4-3.5,6c0,2.1,0.8,3.8,2.3,5.2C786.1,286.6,788.1,287.3,790.5,287.3z"/>
			<path d="M831.2,287.4c2.8,0,5.2-0.8,7.2-2.4c1.9-1.6,3-3.7,3.1-6.2h3.9c-0.1,2.3-0.8,4.3-2.1,6.2s-3,3.3-5.2,4.4
				c-2.2,1-4.5,1.6-6.9,1.6c-4.9,0-8.7-1.7-11.5-5.1c-2.8-3.4-4.3-7.9-4.3-13.6V271c0-3.6,0.6-6.9,1.9-9.7c1.3-2.8,3.1-5,5.5-6.5
				c2.4-1.5,5.2-2.3,8.4-2.3c4.1,0,7.4,1.2,10,3.6c2.6,2.4,4,5.6,4.2,9.5h-3.9c-0.2-2.9-1.2-5.2-3.1-7s-4.3-2.7-7.2-2.7
				c-3.7,0-6.6,1.3-8.6,4s-3.1,6.4-3.1,11.2v1.2c0,4.7,1,8.4,3.1,11C824.6,286.1,827.5,287.4,831.2,287.4z"/>
			<path d="M870.7,256.7c-0.9-0.2-1.8-0.2-2.8-0.2c-2.6,0-4.7,0.7-6.5,2.1c-1.8,1.4-3,3.5-3.8,6.2v25.4h-4.1v-37h4l0.1,5.9
				c2.2-4.4,5.6-6.6,10.4-6.6c1.1,0,2,0.1,2.7,0.4L870.7,256.7z"/>
			<path d="M890.8,290.9c-3.1,0-6-0.8-8.5-2.3c-2.5-1.5-4.5-3.7-5.9-6.5c-1.4-2.8-2.1-5.9-2.1-9.3v-1.5c0-3.6,0.7-6.8,2.1-9.6
				c1.4-2.8,3.3-5.1,5.8-6.7c2.5-1.6,5.1-2.4,8-2.4c4.5,0,8,1.5,10.7,4.6c2.6,3.1,3.9,7.3,3.9,12.6v2.3h-26.4v0.8
				c0,4.2,1.2,7.7,3.6,10.5c2.4,2.8,5.4,4.2,9.1,4.2c2.2,0,4.1-0.4,5.8-1.2c1.7-0.8,3.2-2.1,4.6-3.8l2.6,1.9
				C900.9,288.7,896.5,290.9,890.8,290.9z M890,256c-3.1,0-5.7,1.1-7.8,3.4s-3.4,5.3-3.8,9.1h22.2V268c-0.1-3.6-1.1-6.4-3-8.7
				C895.7,257.1,893.1,256,890,256z M894.6,238.1h5l-7.9,9.5l-3.6,0L894.6,238.1z"/>
			<path d="M927,290.9c-3.1,0-6-0.8-8.5-2.3c-2.5-1.5-4.5-3.7-5.9-6.5c-1.4-2.8-2.1-5.9-2.1-9.3v-1.5c0-3.6,0.7-6.8,2.1-9.6
				c1.4-2.8,3.3-5.1,5.8-6.7c2.5-1.6,5.1-2.4,8-2.4c4.5,0,8,1.5,10.7,4.6c2.6,3.1,3.9,7.3,3.9,12.6v2.3h-26.4v0.8
				c0,4.2,1.2,7.7,3.6,10.5c2.4,2.8,5.4,4.2,9.1,4.2c2.2,0,4.1-0.4,5.8-1.2c1.7-0.8,3.2-2.1,4.6-3.8l2.6,1.9
				C937,288.7,932.7,290.9,927,290.9z M926.2,256c-3.1,0-5.7,1.1-7.8,3.4s-3.4,5.3-3.8,9.1h22.2V268c-0.1-3.6-1.1-6.4-3-8.7
				C931.8,257.1,929.3,256,926.2,256z"/>
			<path d="M985.7,290.2c-0.5-0.9-0.8-2-1-3.3c-2.4,2.7-5.5,4-9.3,4c-3.6,0-6.6-1-9-3.1c-2.4-2.1-3.6-4.7-3.6-7.9
				c0-3.9,1.5-6.9,4.4-9c2.9-2.1,7.1-3.2,12.6-3.2h4.5v-2.1c0-1.7-0.4-3.1-1.3-4.1c-0.9-1-2.3-1.5-4.2-1.5c-1.7,0-3,0.4-3.9,1.2
				c-0.9,0.8-1.4,1.9-1.4,3.3h-9.9c0-2.1,0.7-4.1,2-5.9c1.3-1.8,3.2-3.3,5.6-4.3c2.4-1,5.1-1.6,8.1-1.6c4.6,0,8.2,1.1,10.9,3.4
				c2.7,2.3,4,5.5,4,9.7v16c0,3.5,0.5,6.2,1.5,8v0.6H985.7z M977.5,283.3c1.5,0,2.8-0.3,4-1c1.2-0.7,2.1-1.5,2.7-2.6v-6.4h-3.7
				c-4.9,0-7.6,1.7-7.9,5.1l0,0.6c0,1.2,0.4,2.2,1.3,3C974.9,282.9,976,283.3,977.5,283.3z"/>
			<path d="M1024,286.4c-2.4,3-5.8,4.4-10.1,4.4c-4,0-7-1.1-9.1-3.4c-2.1-2.3-3.2-5.6-3.2-10v-24.2h9.9v23.9c0,3.9,1.8,5.8,5.3,5.8
				c3.3,0,5.7-1.2,6.9-3.5v-26.2h9.9v37h-9.3L1024,286.4z"/>
			<path d="M1055.1,264.3l6.2-11h10.6l-10.5,18.1l11,18.9h-10.6l-6.6-11.6l-6.6,11.6h-10.6l11-18.9l-10.5-18.1h10.6L1055.1,264.3z"
				/>
			<path d="M255.4,356c0,5.7-1.3,10.3-3.9,13.7c-2.6,3.4-6.1,5.1-10.5,5.1c-3.7,0-6.8-1.3-9.1-3.9v17.4h-9.9v-51.2h9.2l0.3,3.6
				c2.4-2.9,5.5-4.3,9.4-4.3c4.6,0,8.1,1.7,10.6,5.1c2.5,3.4,3.8,8,3.8,13.9V356z M245.5,355.3c0-3.5-0.6-6.1-1.8-8
				c-1.2-1.9-3-2.8-5.3-2.8c-3.1,0-5.2,1.2-6.4,3.6v15.2c1.2,2.4,3.4,3.7,6.5,3.7C243.2,366.9,245.5,363,245.5,355.3z"/>
			<path d="M282.3,346.5c-1.3-0.2-2.5-0.3-3.6-0.3c-3.7,0-6.2,1.3-7.3,3.8v24.2h-9.9v-37h9.3l0.3,4.4c2-3.4,4.7-5.1,8.2-5.1
				c1.1,0,2.1,0.1,3.1,0.4L282.3,346.5z"/>
			<path d="M284.3,355.4c0-3.7,0.7-6.9,2.1-9.8s3.4-5.1,6.1-6.7c2.7-1.6,5.7-2.4,9.2-2.4c5,0,9.1,1.5,12.2,4.6
				c3.2,3.1,4.9,7.2,5.3,12.4l0.1,2.5c0,5.7-1.6,10.2-4.8,13.7c-3.2,3.4-7.4,5.1-12.7,5.1s-9.6-1.7-12.8-5.1s-4.8-8.1-4.8-13.9
				V355.4z M294.2,356.1c0,3.5,0.7,6.2,2,8.1c1.3,1.9,3.2,2.8,5.7,2.8c2.4,0,4.3-0.9,5.6-2.8s2-4.8,2-8.8c0-3.4-0.7-6.1-2-8
				c-1.3-1.9-3.2-2.8-5.7-2.8c-2.4,0-4.3,0.9-5.6,2.8S294.2,352.1,294.2,356.1z"/>
			<path d="M335.9,337.2v39c0,4.1-1.1,7.3-3.2,9.5s-5.3,3.4-9.4,3.4c-1.7,0-3.3-0.2-4.9-0.6v-7.8c1.2,0.2,2.2,0.3,3.1,0.3
				c3,0,4.5-1.6,4.5-4.8v-39.1H335.9z M325.2,327.6c0-1.5,0.5-2.7,1.5-3.7s2.3-1.4,4-1.4s3.1,0.5,4.1,1.4s1.5,2.2,1.5,3.7
				c0,1.5-0.5,2.7-1.5,3.7c-1,1-2.4,1.4-4,1.4s-3-0.5-4-1.4C325.7,330.4,325.2,329.1,325.2,327.6z"/>
			<path d="M360.6,374.9c-5.4,0-9.8-1.7-13.2-5c-3.4-3.3-5.1-7.8-5.1-13.3v-1c0-3.7,0.7-7,2.2-10c1.4-2.9,3.5-5.2,6.1-6.8
				c2.6-1.6,5.6-2.4,9-2.4c5.1,0,9,1.6,11.9,4.8c2.9,3.2,4.4,7.7,4.4,13.6v4h-23.5c0.3,2.4,1.3,4.4,2.9,5.8c1.6,1.5,3.6,2.2,6.1,2.2
				c3.8,0,6.8-1.4,8.9-4.1l4.9,5.4c-1.5,2.1-3.5,3.7-6,4.9C366.5,374.3,363.7,374.9,360.6,374.9z M359.5,344.5c-2,0-3.5,0.7-4.8,2
				c-1.2,1.3-2,3.2-2.3,5.7h13.7v-0.8c0-2.2-0.6-3.9-1.8-5.1C363.2,345.1,361.6,344.5,359.5,344.5z"/>
			<path d="M393.2,328.1v9.1h6.3v7.2h-6.3v18.5c0,1.4,0.3,2.3,0.8,2.9c0.5,0.6,1.5,0.9,3,0.9c1.1,0,2.1-0.1,2.9-0.2v7.5
				c-1.9,0.6-3.9,0.9-6,0.9c-6.9,0-10.5-3.5-10.6-10.5v-19.9H378v-7.2h5.4v-9.1H393.2z"/>
			<path d="M425.1,364c0-1.2-0.6-2.2-1.8-2.9c-1.2-0.7-3.1-1.3-5.8-1.9c-8.8-1.8-13.2-5.6-13.2-11.2c0-3.3,1.4-6,4.1-8.2
				c2.7-2.2,6.3-3.3,10.7-3.3c4.7,0,8.4,1.1,11.3,3.3c2.8,2.2,4.2,5.1,4.2,8.6h-9.9c0-1.4-0.5-2.6-1.4-3.5c-0.9-0.9-2.3-1.4-4.3-1.4
				c-1.7,0-3,0.4-3.9,1.1s-1.4,1.7-1.4,2.9c0,1.1,0.5,2,1.6,2.6c1,0.7,2.8,1.3,5.2,1.7c2.5,0.5,4.5,1,6.2,1.7
				c5.2,1.9,7.8,5.2,7.8,9.9c0,3.4-1.4,6.1-4.3,8.2c-2.9,2.1-6.6,3.1-11.2,3.1c-3.1,0-5.9-0.6-8.3-1.7c-2.4-1.1-4.3-2.6-5.7-4.5
				s-2.1-4-2.1-6.2h9.4c0.1,1.8,0.7,3.1,1.9,4c1.2,0.9,2.8,1.4,4.9,1.4c1.9,0,3.3-0.4,4.3-1.1C424.6,366.1,425.1,365.1,425.1,364z"
				/>
			<path d="M442.2,371.7c0-0.8,0.3-1.5,0.8-2s1.2-0.8,2.1-0.8s1.6,0.3,2.2,0.8s0.8,1.2,0.8,2c0,0.8-0.3,1.5-0.8,2
				c-0.5,0.5-1.2,0.8-2.2,0.8s-1.6-0.3-2.1-0.8C442.5,373.2,442.2,372.5,442.2,371.7z"/>
		</g>
		<polygon class="st1" points="128.9,74 1.4,74 117.9,170 		"/>
	</g>
</g>
</svg>
