<?xml version="1.0" encoding="utf-8"?>
<!-- Generator: Adobe Illustrator 21.0.0, SVG Export Plug-In . SVG Version: 6.00 Build 0)  -->
<svg version="1.1" xmlns="http://www.w3.org/2000/svg" xmlns:xlink="http://www.w3.org/1999/xlink" x="0px" y="0px"
	 viewBox="0 0 1197.2 516" style="enable-background:new 0 0 1197.2 516;" xml:space="preserve">
<style type="text/css">
	.st0{fill:#0E97E7;}
	.st1{fill:#FFFFFF;}
	.st2{fill:none;stroke:#FFFFFF;stroke-width:18;stroke-miterlimit:10;}
	.st3{fill:none;stroke:#FFFFFF;stroke-width:5;stroke-miterlimit:10;}
	.st4{opacity:0.5;fill:none;stroke:#000000;stroke-width:1.5;stroke-miterlimit:10;}
	.st5{fill:none;stroke:#000000;stroke-width:8;stroke-miterlimit:10;}
	.st6{fill:#4F4F4F;}
	.st7{fill:none;stroke:#FFFFFF;stroke-width:16;stroke-miterlimit:10;}
	.st8{fill:none;stroke:#DF0920;stroke-width:18;stroke-miterlimit:10;}
	.st9{fill:none;stroke:#3E4098;stroke-width:18;stroke-miterlimit:10;}
	.st10{fill:#3E4098;}
	.st11{fill:none;stroke:#59C24F;stroke-width:18;stroke-miterlimit:10;}
	.st12{fill:none;}
	.st13{font-family:'Roboto-Bold';}
	.st14{font-size:64.022px;}
</style>
<g id="Home_x5F_Claire_x5F_Juglair_x5F_St_x5F_Nazaire_xA0_Image_1_">
</g>
<g id="Calque_3">
</g>
<g id="bulles">
	<text transform="matrix(1 0 0 1 91.6585 298.9797)" class="st1 st13 st14">22,6%</text>
	<text transform="matrix(1 0 0 1 487.3924 298.9797)" class="st1 st13 st14">31,36%</text>
	<text transform="matrix(1 0 0 1 916.0242 298.9797)" class="st1 st13 st14">45,6%</text>
	<circle class="st2" cx="1009.9" cy="278.1" r="161"/>
	<circle class="st2" cx="600.7" cy="278.1" r="161"/>
	<circle class="st2" cx="187.3" cy="277.9" r="161"/>
	<path class="st8" d="M26.3,278.1c0-88.9,72.1-161,161-161"/>
	<path class="st9" d="M439.9,278.1c0-88.9,72.1-161,161-161"/>
	<g>
		<path class="st10" d="M642.6,114.3v16.6c-13.3-3.8-27.3-5.8-41.7-5.8v-16C615.3,109.1,629.2,110.9,642.6,114.3z"/>
	</g>
	<path class="st11" d="M849,278.1c0-88.9,72.1-161,161-161s161,72.1,161,161"/>
</g>
</svg>
