<?xml version="1.0" encoding="utf-8"?>
<!-- Generator: Adobe Illustrator 17.0.0, SVG Export Plug-In . SVG Version: 6.00 Build 0)  -->
<!DOCTYPE svg PUBLIC "-//W3C//DTD SVG 1.1//EN" "http://www.w3.org/Graphics/SVG/1.1/DTD/svg11.dtd">
<svg version="1.1" id="Calque_1" xmlns="http://www.w3.org/2000/svg" xmlns:xlink="http://www.w3.org/1999/xlink" x="0px" y="0px"
	 width="1417.3px" height="850.4px" viewBox="0 0 1417.3 850.4" style="enable-background:new 0 0 1417.3 850.4;"
	 xml:space="preserve">
<style type="text/css">
	.st0{fill:#FFFFFF;}
	.st1{enable-background:new    ;}
</style>
<g>
	<g>
		<path class="st0" d="M224,648.7c0,18.8,15.2,34,34,34h1018c18.8,0,34-15.2,34-34v-448c0-18.8-15.2-34-34-34H258
			c-18.8,0-34,15.2-34,34V648.7z"/>
	</g>
	<g class="st1">
		<path d="M328.3,310.3H343c2.1,0,4,0.2,6,0.6c1.9,0.4,3.6,1.1,5.1,2.1c1.5,1,2.7,2.3,3.6,3.8c0.9,1.6,1.3,3.5,1.3,5.9
			c0,2.7-0.8,5-2.3,7s-3.7,3.2-6.5,3.9v0.1c3.5,0.3,6.2,1.5,8.2,3.7c2,2.2,3,5.1,3,8.7c0,0.8-0.2,2-0.6,3.5
			c-0.4,1.5-1.2,3.1-2.5,4.6s-3.1,2.8-5.5,4s-5.6,1.7-9.5,1.7h-15.1V310.3z M333.3,332h10.2c1.2,0,2.4-0.2,3.6-0.5
			c1.2-0.3,2.3-0.8,3.2-1.5c1-0.7,1.7-1.6,2.3-2.7s0.9-2.4,0.9-4c0-0.5-0.1-1.2-0.3-2.2c-0.2-0.9-0.7-1.9-1.4-2.8
			c-0.7-0.9-1.8-1.7-3.2-2.4c-1.4-0.7-3.3-1-5.7-1h-9.7V332z M333.3,355.3h9.7c1.8,0,3.5-0.2,5.1-0.6c1.6-0.4,3-0.9,4.1-1.7
			c1.2-0.8,2.1-1.7,2.8-2.9c0.7-1.2,1-2.6,1-4.2c0-3.3-1-5.7-3.2-7.3c-2.1-1.6-5.2-2.4-9.2-2.4h-10.3V355.3z"/>
		<path d="M403.8,343.5c0,2.5-0.4,4.8-1.3,6.9c-0.9,2.1-2.1,3.9-3.6,5.5s-3.4,2.7-5.5,3.6c-2.1,0.9-4.5,1.3-7,1.3
			c-2.5,0-4.8-0.4-7-1.3c-2.1-0.9-4-2.1-5.5-3.6s-2.7-3.4-3.6-5.5c-0.9-2.1-1.3-4.4-1.3-6.9c0-2.5,0.4-4.8,1.3-6.9
			c0.9-2.1,2.1-3.9,3.6-5.5s3.4-2.7,5.5-3.6c2.1-0.9,4.4-1.3,7-1.3c2.6,0,4.9,0.4,7,1.3c2.1,0.9,4,2.1,5.5,3.6s2.7,3.4,3.6,5.5
			C403.4,338.8,403.8,341,403.8,343.5z M398.8,343.5c0-1.8-0.3-3.5-0.9-5.1c-0.6-1.6-1.4-3-2.5-4.1c-1.1-1.2-2.4-2.1-3.9-2.8
			c-1.5-0.7-3.2-1-5.1-1c-1.9,0-3.6,0.3-5.1,1c-1.5,0.7-2.8,1.6-3.9,2.8c-1,1.2-1.9,2.5-2.5,4.1c-0.6,1.6-0.9,3.3-0.9,5.1
			s0.3,3.5,0.9,5.1c0.6,1.6,1.4,3,2.5,4.1c1,1.2,2.3,2.1,3.9,2.8c1.5,0.7,3.2,1,5.1,1c1.9,0,3.6-0.3,5.1-1c1.5-0.7,2.8-1.6,3.9-2.8
			c1.1-1.2,1.9-2.5,2.5-4.1C398.5,347,398.8,345.3,398.8,343.5z"/>
		<path d="M416.6,327.1c0.1,0.9,0.2,1.8,0.2,2.6c0,0.9,0,1.7,0,2.6h0.1c0.5-0.9,1.2-1.7,2-2.5c0.8-0.7,1.7-1.4,2.7-1.9
			c1-0.5,2-1,3.1-1.3c1.1-0.3,2.2-0.5,3.3-0.5c4.2,0,7.3,1.1,9.3,3.3c2,2.2,3,5.4,3,9.5v20.8h-4.6v-18.1c0-3.6-0.6-6.4-1.9-8.4
			c-1.3-1.9-3.6-2.9-7-2.9c-0.2,0-0.9,0.1-2,0.3c-1.1,0.2-2.2,0.7-3.4,1.5c-1.2,0.8-2.3,2.1-3.2,3.8c-0.9,1.7-1.4,4-1.4,7v16.8h-4.6
			v-25.5c0-0.9,0-2-0.1-3.4c-0.1-1.4-0.2-2.6-0.2-3.8H416.6z"/>
		<path d="M444.5,372l0.2,0.1c0.4,0.1,0.8,0.2,1.2,0.3c0.4,0.1,0.9,0.1,1.2,0.1c1.1,0,2-0.2,2.7-0.6c0.7-0.4,1.2-1,1.5-1.6
			c0.3-0.7,0.5-1.4,0.6-2.2c0.1-0.8,0.1-1.6,0.1-2.4v-38.5h4.6v39.3c0,0.5,0,1.3-0.1,2.4c0,1.1-0.3,2.3-0.9,3.5
			c-0.5,1.2-1.4,2.2-2.7,3.1c-1.3,0.9-3.1,1.3-5.6,1.3c-1.3,0-2.5-0.2-3.6-0.7L444.5,372z M457.8,314.5c0,1-0.3,1.8-1,2.4
			s-1.5,0.9-2.3,0.9s-1.6-0.3-2.3-0.9c-0.7-0.6-1-1.4-1-2.4c0-1,0.4-1.8,1-2.4c0.7-0.6,1.5-0.9,2.3-0.9s1.6,0.3,2.3,0.9
			C457.5,312.8,457.8,313.6,457.8,314.5z"/>
		<path d="M501,343.5c0,2.5-0.4,4.8-1.3,6.9c-0.9,2.1-2.1,3.9-3.6,5.5s-3.4,2.7-5.5,3.6c-2.1,0.9-4.5,1.3-7,1.3
			c-2.5,0-4.8-0.4-7-1.3c-2.1-0.9-4-2.1-5.5-3.6s-2.7-3.4-3.6-5.5c-0.9-2.1-1.3-4.4-1.3-6.9c0-2.5,0.4-4.8,1.3-6.9
			c0.9-2.1,2.1-3.9,3.6-5.5s3.4-2.7,5.5-3.6c2.1-0.9,4.4-1.3,7-1.3c2.6,0,4.9,0.4,7,1.3c2.1,0.9,4,2.1,5.5,3.6s2.7,3.4,3.6,5.5
			C500.6,338.8,501,341,501,343.5z M496,343.5c0-1.8-0.3-3.5-0.9-5.1c-0.6-1.6-1.4-3-2.5-4.1c-1.1-1.2-2.4-2.1-3.9-2.8
			c-1.5-0.7-3.2-1-5.1-1c-1.9,0-3.6,0.3-5.1,1c-1.5,0.7-2.8,1.6-3.9,2.8c-1,1.2-1.9,2.5-2.5,4.1c-0.6,1.6-0.9,3.3-0.9,5.1
			s0.3,3.5,0.9,5.1c0.6,1.6,1.4,3,2.5,4.1c1,1.2,2.3,2.1,3.9,2.8c1.5,0.7,3.2,1,5.1,1c1.9,0,3.6-0.3,5.1-1c1.5-0.7,2.8-1.6,3.9-2.8
			c1.1-1.2,1.9-2.5,2.5-4.1C495.7,347,496,345.3,496,343.5z"/>
		<path d="M533.1,359.9c-0.1-0.9-0.2-1.8-0.2-2.6c0-0.9,0-1.7,0-2.6h-0.1c-0.5,0.9-1.2,1.7-2,2.5c-0.8,0.7-1.7,1.4-2.7,1.9
			c-1,0.5-2,1-3.1,1.3c-1.1,0.3-2.2,0.5-3.3,0.5c-4.2,0-7.3-1.1-9.3-3.3c-2-2.2-3-5.4-3-9.5v-20.8h4.6v18.1c0,1.8,0.1,3.4,0.4,4.8
			c0.3,1.4,0.8,2.6,1.4,3.5c0.7,1,1.6,1.7,2.7,2.2c1.1,0.5,2.6,0.7,4.3,0.7c0.2,0,0.9-0.1,2-0.3s2.2-0.7,3.4-1.5s2.3-2.1,3.2-3.8
			s1.4-4,1.4-7v-16.8h4.6v25.5c0,0.9,0,2,0.1,3.4c0.1,1.4,0.2,2.6,0.2,3.8H533.1z"/>
		<path d="M548.8,337.4c0-1.4,0-2.9-0.1-4.4c-0.1-1.5-0.1-3.4-0.2-5.8h4.5v6.1h0.1c0.3-0.9,0.8-1.7,1.4-2.6s1.3-1.6,2.2-2.2
			s1.9-1.2,3-1.6c1.1-0.4,2.4-0.6,3.9-0.6c1.3,0,2.5,0.1,3.4,0.4l-0.9,4.5c-0.6-0.2-1.5-0.4-2.7-0.4c-1.8,0-3.3,0.3-4.5,1
			c-1.3,0.7-2.3,1.5-3.1,2.6c-0.8,1-1.5,2.2-1.9,3.4c-0.4,1.2-0.6,2.4-0.6,3.5v18.5h-4.6V337.4z"/>
		<path d="M569.3,369.7h-4.6l4.7-16.5h5.7L569.3,369.7z"/>
		<path d="M618.5,359.9h-5.2L600,327.1h5.5l10.5,27.6h0.1l10.4-27.6h5.2L618.5,359.9z"/>
		<path d="M670.9,343.5c0,2.5-0.4,4.8-1.3,6.9c-0.9,2.1-2.1,3.9-3.6,5.5s-3.4,2.7-5.5,3.6c-2.1,0.9-4.5,1.3-7,1.3
			c-2.5,0-4.8-0.4-7-1.3c-2.1-0.9-4-2.1-5.5-3.6c-1.5-1.5-2.7-3.4-3.6-5.5c-0.9-2.1-1.3-4.4-1.3-6.9c0-2.5,0.4-4.8,1.3-6.9
			c0.9-2.1,2.1-3.9,3.6-5.5c1.5-1.5,3.4-2.7,5.5-3.6c2.1-0.9,4.4-1.3,7-1.3c2.6,0,4.9,0.4,7,1.3c2.1,0.9,4,2.1,5.5,3.6
			s2.7,3.4,3.6,5.5C670.5,338.8,670.9,341,670.9,343.5z M665.9,343.5c0-1.8-0.3-3.5-0.9-5.1c-0.6-1.6-1.4-3-2.5-4.1
			c-1.1-1.2-2.4-2.1-3.9-2.8c-1.5-0.7-3.2-1-5.1-1c-1.9,0-3.6,0.3-5.1,1c-1.5,0.7-2.8,1.6-3.8,2.8c-1.1,1.2-1.9,2.5-2.5,4.1
			c-0.6,1.6-0.9,3.3-0.9,5.1s0.3,3.5,0.9,5.1c0.6,1.6,1.4,3,2.5,4.1c1,1.2,2.3,2.1,3.8,2.8c1.5,0.7,3.2,1,5.1,1c1.9,0,3.6-0.3,5.1-1
			c1.5-0.7,2.8-1.6,3.9-2.8c1.1-1.2,1.9-2.5,2.5-4.1C665.6,347,665.9,345.3,665.9,343.5z"/>
		<path d="M703,359.9c-0.1-0.9-0.2-1.8-0.2-2.6c0-0.9,0-1.7,0-2.6h-0.1c-0.5,0.9-1.2,1.7-2,2.5c-0.8,0.7-1.7,1.4-2.7,1.9
			c-1,0.5-2,1-3.1,1.3c-1.1,0.3-2.2,0.5-3.3,0.5c-4.2,0-7.3-1.1-9.3-3.3c-2-2.2-3-5.4-3-9.5v-20.8h4.6v18.1c0,1.8,0.1,3.4,0.4,4.8
			c0.3,1.4,0.8,2.6,1.4,3.5c0.7,1,1.6,1.7,2.7,2.2c1.1,0.5,2.6,0.7,4.3,0.7c0.2,0,0.9-0.1,2-0.3s2.2-0.7,3.4-1.5s2.3-2.1,3.2-3.8
			s1.4-4,1.4-7v-16.8h4.6v25.5c0,0.9,0,2,0.1,3.4c0.1,1.4,0.2,2.6,0.2,3.8H703z"/>
		<path d="M735.6,334.9c-0.7-1.4-1.6-2.4-2.8-3.2c-1.2-0.8-2.6-1.2-4.3-1.2c-0.8,0-1.6,0.1-2.4,0.3c-0.8,0.2-1.6,0.5-2.2,0.9
			c-0.7,0.4-1.2,0.9-1.6,1.5c-0.4,0.6-0.6,1.4-0.6,2.2c0,1.5,0.5,2.7,1.6,3.4c1.1,0.7,2.7,1.3,4.8,1.8l4.7,1.1
			c2.3,0.5,4.2,1.6,5.7,3.1c1.5,1.6,2.3,3.5,2.3,5.8c0,1.8-0.4,3.3-1.1,4.6c-0.7,1.3-1.7,2.3-2.9,3.2c-1.2,0.8-2.6,1.4-4.1,1.8
			s-3.1,0.6-4.7,0.6c-2.5,0-4.9-0.5-7-1.4s-4-2.6-5.6-4.9l4-2.7c0.9,1.5,2.1,2.7,3.5,3.6c1.4,0.9,3.1,1.3,5.1,1.3
			c0.9,0,1.9-0.1,2.8-0.3s1.8-0.5,2.5-1c0.7-0.4,1.3-1,1.8-1.7c0.4-0.7,0.7-1.5,0.7-2.5c0-1.6-0.6-2.8-1.8-3.5
			c-1.2-0.7-2.7-1.3-4.4-1.7l-4.5-1c-0.6-0.1-1.3-0.4-2.3-0.7c-1-0.3-1.9-0.8-2.8-1.5c-0.9-0.7-1.7-1.5-2.3-2.6c-0.7-1-1-2.3-1-3.9
			c0-1.7,0.3-3.1,1-4.4c0.7-1.3,1.6-2.3,2.7-3.1c1.1-0.8,2.4-1.4,3.9-1.8s2.9-0.6,4.5-0.6c2.3,0,4.4,0.4,6.4,1.3s3.5,2.4,4.5,4.5
			L735.6,334.9z"/>
		<path d="M781.9,359.9h-5.2l-13.3-32.8h5.5l10.5,27.6h0.1l10.4-27.6h5.2L781.9,359.9z"/>
		<path d="M834.4,343.5c0,2.5-0.4,4.8-1.3,6.9c-0.9,2.1-2.1,3.9-3.6,5.5s-3.4,2.7-5.5,3.6c-2.1,0.9-4.5,1.3-7,1.3
			c-2.5,0-4.8-0.4-7-1.3c-2.1-0.9-4-2.1-5.5-3.6c-1.5-1.5-2.7-3.4-3.6-5.5c-0.9-2.1-1.3-4.4-1.3-6.9c0-2.5,0.4-4.8,1.3-6.9
			c0.9-2.1,2.1-3.9,3.6-5.5c1.5-1.5,3.4-2.7,5.5-3.6c2.1-0.9,4.4-1.3,7-1.3c2.6,0,4.9,0.4,7,1.3c2.1,0.9,4,2.1,5.5,3.6
			s2.7,3.4,3.6,5.5C833.9,338.8,834.4,341,834.4,343.5z M829.3,343.5c0-1.8-0.3-3.5-0.9-5.1c-0.6-1.6-1.4-3-2.5-4.1
			c-1.1-1.2-2.4-2.1-3.9-2.8c-1.5-0.7-3.2-1-5.1-1c-1.9,0-3.6,0.3-5.1,1c-1.5,0.7-2.8,1.6-3.8,2.8c-1.1,1.2-1.9,2.5-2.5,4.1
			c-0.6,1.6-0.9,3.3-0.9,5.1s0.3,3.5,0.9,5.1c0.6,1.6,1.4,3,2.5,4.1c1,1.2,2.3,2.1,3.8,2.8c1.5,0.7,3.2,1,5.1,1c1.9,0,3.6-0.3,5.1-1
			c1.5-0.7,2.8-1.6,3.9-2.8c1.1-1.2,1.9-2.5,2.5-4.1C829,347,829.3,345.3,829.3,343.5z"/>
		<path d="M866.4,359.9c-0.1-0.9-0.2-1.8-0.2-2.6c0-0.9,0-1.7,0-2.6h-0.1c-0.5,0.9-1.2,1.7-2,2.5c-0.8,0.7-1.7,1.4-2.7,1.9
			c-1,0.5-2,1-3.1,1.3c-1.1,0.3-2.2,0.5-3.3,0.5c-4.2,0-7.3-1.1-9.3-3.3c-2-2.2-3-5.4-3-9.5v-20.8h4.6v18.1c0,1.8,0.1,3.4,0.4,4.8
			c0.3,1.4,0.8,2.6,1.4,3.5c0.7,1,1.6,1.7,2.7,2.2c1.1,0.5,2.6,0.7,4.3,0.7c0.2,0,0.9-0.1,2-0.3s2.2-0.7,3.4-1.5s2.3-2.1,3.2-3.8
			s1.4-4,1.4-7v-16.8h4.6v25.5c0,0.9,0,2,0.1,3.4c0.1,1.4,0.2,2.6,0.2,3.8H866.4z"/>
		<path d="M887.4,359.9h-4.6V307h4.6V359.9z"/>
		<path d="M901.7,344.8c0.1,1.6,0.5,3.2,1.2,4.6c0.7,1.4,1.5,2.7,2.6,3.7c1.1,1,2.3,1.9,3.7,2.5c1.4,0.6,2.9,0.9,4.5,0.9
			c2.5,0,4.6-0.6,6.4-1.7c1.8-1.1,3.2-2.5,4.1-4l3.6,2.9c-2,2.5-4.1,4.2-6.5,5.3c-2.4,1.1-4.9,1.6-7.6,1.6c-2.4,0-4.7-0.4-6.8-1.3
			c-2.1-0.9-3.9-2.1-5.4-3.6c-1.5-1.5-2.7-3.4-3.5-5.5c-0.9-2.1-1.3-4.4-1.3-6.9c0-2.5,0.4-4.8,1.3-6.9c0.8-2.1,2-3.9,3.5-5.5
			c1.5-1.5,3.2-2.7,5.2-3.6c2-0.9,4.2-1.3,6.5-1.3c2.5,0,4.7,0.4,6.7,1.3s3.6,2.1,4.9,3.5c1.3,1.5,2.3,3.2,3,5.2
			c0.7,2,1.1,4.1,1.1,6.3v2.1H901.7z M924,341c0-3.1-0.9-5.7-2.8-7.6c-1.9-1.9-4.5-2.9-7.8-2.9c-1.5,0-2.9,0.3-4.3,0.9
			c-1.4,0.6-2.6,1.4-3.7,2.3c-1,1-1.9,2.1-2.5,3.4c-0.6,1.3-0.9,2.6-0.9,3.9H924z"/>
		<path d="M959.9,330.5l-19.2,25.2h19.9v4.2H934v-3.4l19.2-25.2H935v-4.2h24.9V330.5z"/>
		<path d="M1004.1,334.9c-0.7-1.4-1.6-2.4-2.8-3.2c-1.2-0.8-2.6-1.2-4.3-1.2c-0.8,0-1.6,0.1-2.4,0.3c-0.8,0.2-1.6,0.5-2.2,0.9
			c-0.7,0.4-1.2,0.9-1.6,1.5c-0.4,0.6-0.6,1.4-0.6,2.2c0,1.5,0.5,2.7,1.6,3.4c1.1,0.7,2.7,1.3,4.8,1.8l4.7,1.1
			c2.3,0.5,4.2,1.6,5.7,3.1c1.5,1.6,2.3,3.5,2.3,5.8c0,1.8-0.4,3.3-1.1,4.6c-0.7,1.3-1.7,2.3-2.9,3.2c-1.2,0.8-2.6,1.4-4.1,1.8
			s-3.1,0.6-4.7,0.6c-2.5,0-4.9-0.5-7-1.4s-4-2.6-5.6-4.9l4-2.7c0.9,1.5,2.1,2.7,3.5,3.6c1.4,0.9,3.1,1.3,5.1,1.3
			c0.9,0,1.9-0.1,2.8-0.3s1.8-0.5,2.5-1c0.7-0.4,1.3-1,1.8-1.7c0.4-0.7,0.7-1.5,0.7-2.5c0-1.6-0.6-2.8-1.8-3.5
			c-1.2-0.7-2.7-1.3-4.4-1.7l-4.5-1c-0.6-0.1-1.3-0.4-2.3-0.7c-1-0.3-1.9-0.8-2.8-1.5c-0.9-0.7-1.7-1.5-2.3-2.6c-0.7-1-1-2.3-1-3.9
			c0-1.7,0.3-3.1,1-4.4c0.7-1.3,1.6-2.3,2.7-3.1c1.1-0.8,2.4-1.4,3.9-1.8s2.9-0.6,4.5-0.6c2.3,0,4.4,0.4,6.4,1.3s3.5,2.4,4.5,4.5
			L1004.1,334.9z"/>
		<path d="M1037.5,339.8V339c0-5.6-2.8-8.5-8.4-8.5c-3.8,0-7.2,1.3-10,3.9l-2.8-3.3c3.1-3.2,7.7-4.8,13.9-4.8c1.6,0,3.1,0.2,4.6,0.7
			c1.5,0.5,2.7,1.2,3.8,2.1c1.1,1,1.9,2.2,2.6,3.6c0.7,1.4,1,3.2,1,5.2v14.6c0,1.3,0.1,2.6,0.2,4c0.1,1.4,0.2,2.5,0.4,3.4h-4.5
			c-0.1-0.8-0.2-1.7-0.3-2.6c-0.1-0.9-0.1-1.8-0.1-2.7h-0.1c-1.4,2.2-3,3.8-4.8,4.7c-1.8,1-4.1,1.4-6.8,1.4c-1.4,0-2.8-0.2-4.2-0.6
			c-1.4-0.4-2.6-1-3.6-1.8c-1.1-0.8-1.9-1.8-2.5-3s-0.9-2.6-0.9-4.2c0-2.7,0.7-4.7,2.1-6.3c1.4-1.5,3.1-2.6,5.2-3.4
			c2.1-0.7,4.3-1.2,6.7-1.4c2.4-0.2,4.5-0.3,6.5-0.3H1037.5z M1035.1,343.6c-1.2,0-2.6,0.1-4.4,0.2c-1.8,0.1-3.4,0.4-5,0.8
			c-1.6,0.4-3,1.1-4.1,2.1c-1.1,0.9-1.7,2.2-1.7,3.9c0,1.1,0.2,2,0.7,2.8c0.4,0.8,1,1.4,1.8,1.9c0.7,0.5,1.6,0.8,2.5,1
			c0.9,0.2,1.8,0.3,2.8,0.3c1.7,0,3.1-0.3,4.4-0.8c1.2-0.6,2.3-1.3,3.1-2.3c0.8-1,1.5-2.1,1.9-3.4c0.4-1.3,0.6-2.6,0.6-4.1v-2.4
			H1035.1z"/>
		<path d="M1067.3,359.9h-5.2l-13.3-32.8h5.5l10.5,27.6h0.1l10.4-27.6h5.2L1067.3,359.9z"/>
		<path d="M1119.7,343.5c0,2.5-0.4,4.8-1.3,6.9c-0.9,2.1-2.1,3.9-3.6,5.5s-3.4,2.7-5.5,3.6c-2.1,0.9-4.5,1.3-7,1.3
			c-2.5,0-4.8-0.4-7-1.3c-2.1-0.9-4-2.1-5.5-3.6s-2.7-3.4-3.6-5.5c-0.9-2.1-1.3-4.4-1.3-6.9c0-2.5,0.4-4.8,1.3-6.9
			c0.9-2.1,2.1-3.9,3.6-5.5s3.4-2.7,5.5-3.6c2.1-0.9,4.4-1.3,7-1.3c2.6,0,4.9,0.4,7,1.3c2.1,0.9,4,2.1,5.5,3.6s2.7,3.4,3.6,5.5
			C1119.3,338.8,1119.7,341,1119.7,343.5z M1114.7,343.5c0-1.8-0.3-3.5-0.9-5.1c-0.6-1.6-1.4-3-2.5-4.1c-1.1-1.2-2.4-2.1-3.9-2.8
			c-1.5-0.7-3.2-1-5.1-1c-1.9,0-3.6,0.3-5.1,1c-1.5,0.7-2.8,1.6-3.9,2.8c-1,1.2-1.9,2.5-2.4,4.1c-0.6,1.6-0.9,3.3-0.9,5.1
			s0.3,3.5,0.9,5.1c0.6,1.6,1.4,3,2.4,4.1c1.1,1.2,2.3,2.1,3.9,2.8c1.5,0.7,3.2,1,5.1,1c1.9,0,3.6-0.3,5.1-1
			c1.5-0.7,2.8-1.6,3.9-2.8c1.1-1.2,1.9-2.5,2.5-4.1C1114.4,347,1114.7,345.3,1114.7,343.5z"/>
		<path d="M1134.8,314.5c0,1-0.3,1.8-1,2.4s-1.5,0.9-2.3,0.9c-0.8,0-1.6-0.3-2.3-0.9s-1-1.4-1-2.4c0-1,0.3-1.8,1-2.4
			c0.7-0.6,1.5-0.9,2.3-0.9c0.8,0,1.6,0.3,2.3,0.9C1134.5,312.8,1134.8,313.6,1134.8,314.5z M1133.8,359.9h-4.6v-32.8h4.6V359.9z"/>
		<path d="M1145.4,337.4c0-1.4,0-2.9-0.1-4.4c-0.1-1.5-0.1-3.4-0.2-5.8h4.5v6.1h0.1c0.3-0.9,0.8-1.7,1.4-2.6s1.3-1.6,2.2-2.2
			c0.9-0.7,1.9-1.2,3-1.6s2.4-0.6,3.9-0.6c1.3,0,2.4,0.1,3.4,0.4l-0.9,4.5c-0.6-0.2-1.5-0.4-2.7-0.4c-1.8,0-3.3,0.3-4.5,1
			c-1.3,0.7-2.3,1.5-3.2,2.6c-0.8,1-1.5,2.2-1.9,3.4c-0.4,1.2-0.6,2.4-0.6,3.5v18.5h-4.6V337.4z"/>
	</g>
	<g class="st1">
		<path d="M324.6,427.1c0-2.7,0.5-5.1,1.4-7.2c1-2.2,2.3-4,3.9-5.6c1.6-1.5,3.6-2.7,5.8-3.6c2.2-0.8,4.6-1.3,7.1-1.3
			c2.5,0,4.9,0.4,7.1,1.3s4.2,2,5.8,3.6s2.9,3.4,3.9,5.6c1,2.2,1.4,4.6,1.4,7.2s-0.5,5.1-1.4,7.2c-1,2.2-2.3,4-3.9,5.6
			s-3.6,2.7-5.8,3.6s-4.6,1.3-7.1,1.3c-2.5,0-4.9-0.4-7.1-1.3c-2.2-0.8-4.2-2-5.8-3.6c-1.6-1.5-2.9-3.4-3.9-5.6
			C325.1,432.2,324.6,429.8,324.6,427.1z M333,427.1c0,1.3,0.2,2.6,0.7,3.8c0.4,1.2,1.1,2.3,2,3.2c0.9,0.9,1.9,1.7,3.1,2.2
			c1.2,0.6,2.6,0.8,4.1,0.8s2.9-0.3,4.1-0.8c1.2-0.6,2.3-1.3,3.1-2.2c0.9-0.9,1.5-2,2-3.2c0.4-1.2,0.7-2.5,0.7-3.8
			c0-1.3-0.2-2.6-0.7-3.8c-0.4-1.2-1.1-2.3-2-3.2c-0.9-0.9-1.9-1.7-3.1-2.2c-1.2-0.6-2.6-0.8-4.1-0.8s-2.9,0.3-4.1,0.8
			c-1.2,0.6-2.3,1.3-3.1,2.2c-0.9,0.9-1.5,2-2,3.2C333.3,424.5,333,425.8,333,427.1z"/>
		<path d="M399.7,443.9h-8v-5.4h-0.1c-0.8,1.7-2,3.1-3.6,4.4c-1.6,1.2-3.8,1.9-6.7,1.9c-2.2,0-4.1-0.4-5.7-1.1
			c-1.6-0.7-2.8-1.7-3.8-2.9s-1.7-2.6-2.1-4.2c-0.4-1.6-0.6-3.2-0.6-5v-21.2h8.4v17c0,0.9,0,2,0.1,3.1s0.3,2.2,0.7,3.2
			c0.4,1,1,1.8,1.8,2.5c0.8,0.7,2,1,3.5,1c1.4,0,2.6-0.2,3.5-0.7c1-0.5,1.8-1.1,2.4-1.9c0.6-0.8,1.1-1.7,1.4-2.7
			c0.3-1,0.4-2.1,0.4-3.2v-18.3h8.4V443.9z M387.6,404.4h-6.6l-9.9-10.1h9.5L387.6,404.4z"/>
		<path d="M425.4,410.3h9.2l9,23.5h0.1l9-23.5h8.6L448,443.9h-9L425.4,410.3z"/>
		<path d="M464.6,427.1c0-2.7,0.5-5.1,1.4-7.2c1-2.2,2.3-4,3.9-5.6s3.6-2.7,5.8-3.6s4.6-1.3,7.1-1.3c2.5,0,4.9,0.4,7.1,1.3
			c2.2,0.8,4.2,2,5.8,3.6c1.6,1.5,2.9,3.4,3.9,5.6c1,2.2,1.4,4.6,1.4,7.2s-0.5,5.1-1.4,7.2c-1,2.2-2.3,4-3.9,5.6
			c-1.6,1.5-3.6,2.7-5.8,3.6c-2.2,0.8-4.6,1.3-7.1,1.3c-2.5,0-4.9-0.4-7.1-1.3s-4.2-2-5.8-3.6s-2.9-3.4-3.9-5.6
			C465,432.2,464.6,429.8,464.6,427.1z M473,427.1c0,1.3,0.2,2.6,0.7,3.8s1.1,2.3,2,3.2c0.9,0.9,1.9,1.7,3.1,2.2
			c1.2,0.6,2.6,0.8,4.1,0.8s2.9-0.3,4.1-0.8c1.2-0.6,2.3-1.3,3.1-2.2c0.9-0.9,1.5-2,2-3.2c0.4-1.2,0.7-2.5,0.7-3.8
			c0-1.3-0.2-2.6-0.7-3.8c-0.4-1.2-1.1-2.3-2-3.2c-0.9-0.9-1.9-1.7-3.1-2.2c-1.2-0.6-2.6-0.8-4.1-0.8s-2.9,0.3-4.1,0.8
			c-1.2,0.6-2.3,1.3-3.1,2.2c-0.9,0.9-1.5,2-2,3.2C473.2,424.5,473,425.8,473,427.1z"/>
		<path d="M508.9,410.3h8v5.4h0.1c0.8-1.7,2-3.1,3.6-4.4c1.6-1.2,3.9-1.9,6.7-1.9c2.2,0,4.1,0.4,5.7,1.1c1.6,0.7,2.8,1.7,3.8,2.9
			c1,1.2,1.7,2.6,2.1,4.2c0.4,1.6,0.6,3.2,0.6,5v21.2h-8.4v-17c0-0.9,0-2-0.1-3.1c-0.1-1.1-0.3-2.2-0.7-3.2c-0.4-1-1-1.8-1.9-2.5
			c-0.8-0.7-2-1-3.4-1c-1.4,0-2.6,0.2-3.5,0.7c-1,0.5-1.8,1.1-2.4,1.9c-0.6,0.8-1.1,1.7-1.4,2.7c-0.3,1-0.4,2.1-0.4,3.2v18.3h-8.4
			V410.3z"/>
		<path d="M545.2,417.4v-7.1h6.9v-9.7h8.4v9.7h9.2v7.1h-9.2v14.7c0,1.7,0.3,3,0.9,4c0.6,1,1.9,1.5,3.7,1.5c0.7,0,1.6-0.1,2.5-0.2
			c0.9-0.2,1.6-0.4,2.1-0.8v7.1c-0.9,0.4-2,0.7-3.3,0.9c-1.3,0.2-2.4,0.2-3.4,0.2c-2.2,0-4.1-0.2-5.5-0.7c-1.4-0.5-2.5-1.2-3.4-2.2
			c-0.8-1-1.4-2.3-1.7-3.7c-0.3-1.5-0.5-3.2-0.5-5.2v-15.4H545.2z"/>
		<path d="M592.5,410.3h9.2l9,23.5h0.1l9-23.5h8.6l-13.2,33.6h-9L592.5,410.3z"/>
		<path d="M631.7,427.1c0-2.7,0.5-5.1,1.4-7.2c1-2.2,2.3-4,3.9-5.6c1.6-1.5,3.6-2.7,5.8-3.6c2.2-0.8,4.6-1.3,7.1-1.3
			c2.5,0,4.9,0.4,7.1,1.3s4.2,2,5.8,3.6s2.9,3.4,3.9,5.6c1,2.2,1.4,4.6,1.4,7.2s-0.5,5.1-1.4,7.2c-1,2.2-2.3,4-3.9,5.6
			s-3.6,2.7-5.8,3.6s-4.6,1.3-7.1,1.3c-2.5,0-4.9-0.4-7.1-1.3c-2.2-0.8-4.2-2-5.8-3.6c-1.6-1.5-2.9-3.4-3.9-5.6
			C632.2,432.2,631.7,429.8,631.7,427.1z M640.1,427.1c0,1.3,0.2,2.6,0.7,3.8c0.4,1.2,1.1,2.3,2,3.2c0.9,0.9,1.9,1.7,3.1,2.2
			c1.2,0.6,2.6,0.8,4.1,0.8s2.9-0.3,4.1-0.8c1.2-0.6,2.3-1.3,3.1-2.2c0.9-0.9,1.5-2,2-3.2c0.4-1.2,0.7-2.5,0.7-3.8
			c0-1.3-0.2-2.6-0.7-3.8c-0.4-1.2-1.1-2.3-2-3.2c-0.9-0.9-1.9-1.7-3.1-2.2c-1.2-0.6-2.6-0.8-4.1-0.8s-2.9,0.3-4.1,0.8
			c-1.2,0.6-2.3,1.3-3.1,2.2c-0.9,0.9-1.5,2-2,3.2C640.3,424.5,640.1,425.8,640.1,427.1z"/>
		<path d="M694,419.6c-1.6-2.3-3.8-3.4-6.6-3.4c-1.1,0-2.2,0.3-3.3,0.8c-1.1,0.6-1.6,1.5-1.6,2.7c0,1,0.4,1.8,1.3,2.2
			c0.9,0.5,2,0.9,3.4,1.2c1.4,0.3,2.8,0.7,4.4,1c1.6,0.3,3,0.9,4.4,1.6c1.4,0.7,2.5,1.7,3.4,3c0.9,1.3,1.3,3,1.3,5.2
			c0,2-0.4,3.7-1.3,5.1c-0.9,1.4-2,2.5-3.4,3.3c-1.4,0.8-2.9,1.4-4.7,1.8c-1.7,0.4-3.5,0.6-5.2,0.6c-2.6,0-5-0.4-7.2-1.1
			s-4.2-2.1-5.9-4.1l5.6-5.2c1.1,1.2,2.2,2.2,3.5,3c1.2,0.8,2.7,1.2,4.5,1.2c0.6,0,1.2-0.1,1.9-0.2c0.7-0.1,1.3-0.4,1.8-0.7
			c0.6-0.3,1-0.7,1.4-1.2c0.3-0.5,0.5-1.1,0.5-1.7c0-1.2-0.4-2-1.3-2.6c-0.9-0.6-2-1-3.4-1.4c-1.4-0.4-2.8-0.7-4.4-1
			c-1.6-0.3-3-0.8-4.4-1.5c-1.4-0.7-2.5-1.6-3.4-2.8c-0.9-1.2-1.3-2.9-1.3-5c0-1.9,0.4-3.5,1.2-4.9c0.8-1.4,1.8-2.5,3-3.4
			s2.7-1.5,4.3-2c1.6-0.4,3.3-0.6,5-0.6c2.2,0,4.5,0.4,6.6,1.2c2.2,0.8,4,2.1,5.3,4L694,419.6z"/>
		<path d="M737,404.4l-4.8-6.3l-4.8,6.3h-7.8l8.1-10.1h9.4l8,10.1H737z M728,410.3h8.4v33.6H728V410.3z"/>
		<path d="M745.7,410.3h8v5.2h0.1c0.7-1.6,1.9-3,3.6-4.2c1.7-1.2,3.9-1.9,6.7-1.9c5.3,0,8.8,2.1,10.5,6.2c1.2-2.1,2.7-3.7,4.5-4.7
			c1.8-1,4-1.5,6.5-1.5c2.2,0,4.1,0.4,5.7,1.1c1.5,0.7,2.8,1.8,3.7,3.1c1,1.3,1.6,2.8,2.1,4.6s0.6,3.6,0.6,5.6v20h-8.4v-19
			c0-1-0.1-2-0.3-3c-0.2-1-0.5-1.8-1-2.5c-0.5-0.7-1.1-1.3-1.9-1.7c-0.8-0.4-1.8-0.6-3.1-0.6c-1.3,0-2.4,0.2-3.3,0.7
			c-0.9,0.5-1.7,1.1-2.2,2c-0.6,0.8-1,1.8-1.3,2.8c-0.3,1-0.4,2.1-0.4,3.2v18.2h-8.4v-20c0-2.1-0.4-3.8-1.3-5
			c-0.9-1.2-2.4-1.9-4.4-1.9c-1.4,0-2.6,0.2-3.5,0.7c-1,0.5-1.8,1.1-2.4,1.9c-0.6,0.8-1.1,1.7-1.4,2.7c-0.3,1-0.4,2.1-0.4,3.2v18.3
			h-8.4V410.3z"/>
		<path d="M807,410.3h8v5h0.1c1.2-2.1,2.8-3.5,4.9-4.5c2.1-0.9,4.3-1.4,6.7-1.4c2.6,0,4.9,0.5,6.9,1.4c2.1,0.9,3.8,2.2,5.2,3.7
			c1.4,1.6,2.5,3.5,3.3,5.6c0.7,2.1,1.1,4.5,1.1,6.9s-0.4,4.8-1.2,6.9c-0.8,2.1-1.9,4-3.3,5.6c-1.4,1.6-3.1,2.8-5.1,3.7
			c-2,0.9-4.2,1.4-6.6,1.4c-1.6,0-3-0.2-4.2-0.5c-1.2-0.3-2.3-0.7-3.2-1.3c-0.9-0.5-1.7-1.1-2.4-1.6c-0.7-0.6-1.2-1.2-1.6-1.7h-0.2
			v20.2H807V410.3z M834.9,427.1c0-1.3-0.2-2.6-0.7-3.8c-0.4-1.2-1.1-2.3-2-3.2c-0.9-0.9-1.9-1.7-3.1-2.2c-1.2-0.6-2.6-0.8-4.1-0.8
			s-2.9,0.3-4.1,0.8c-1.2,0.6-2.3,1.3-3.1,2.2s-1.5,2-2,3.2c-0.4,1.2-0.7,2.5-0.7,3.8c0,1.3,0.2,2.6,0.7,3.8s1.1,2.3,2,3.2
			s1.9,1.7,3.1,2.2c1.2,0.6,2.6,0.8,4.1,0.8s2.9-0.3,4.1-0.8c1.2-0.6,2.3-1.3,3.1-2.2c0.9-0.9,1.5-2,2-3.2
			C834.6,429.7,834.9,428.4,834.9,427.1z"/>
		<path d="M849.4,427.1c0-2.7,0.5-5.1,1.4-7.2c1-2.2,2.3-4,3.9-5.6s3.6-2.7,5.8-3.6s4.6-1.3,7.1-1.3c2.5,0,4.9,0.4,7.1,1.3
			c2.2,0.8,4.2,2,5.8,3.6c1.6,1.5,2.9,3.4,3.9,5.6c1,2.2,1.4,4.6,1.4,7.2s-0.5,5.1-1.4,7.2c-1,2.2-2.3,4-3.9,5.6
			c-1.6,1.5-3.6,2.7-5.8,3.6c-2.2,0.8-4.6,1.3-7.1,1.3c-2.5,0-4.9-0.4-7.1-1.3s-4.2-2-5.8-3.6s-2.9-3.4-3.9-5.6
			C849.9,432.2,849.4,429.8,849.4,427.1z M857.8,427.1c0,1.3,0.2,2.6,0.7,3.8s1.1,2.3,2,3.2c0.9,0.9,1.9,1.7,3.1,2.2
			c1.2,0.6,2.6,0.8,4.1,0.8s2.9-0.3,4.1-0.8c1.2-0.6,2.3-1.3,3.1-2.2c0.9-0.9,1.5-2,2-3.2c0.4-1.2,0.7-2.5,0.7-3.8
			c0-1.3-0.2-2.6-0.7-3.8c-0.4-1.2-1.1-2.3-2-3.2c-0.9-0.9-1.9-1.7-3.1-2.2c-1.2-0.6-2.6-0.8-4.1-0.8s-2.9,0.3-4.1,0.8
			c-1.2,0.6-2.3,1.3-3.1,2.2c-0.9,0.9-1.5,2-2,3.2C858,424.5,857.8,425.8,857.8,427.1z"/>
		<path d="M889.9,417.4v-7.1h6.9v-9.7h8.4v9.7h9.2v7.1h-9.2v14.7c0,1.7,0.3,3,0.9,4c0.6,1,1.9,1.5,3.7,1.5c0.7,0,1.6-0.1,2.5-0.2
			c0.9-0.2,1.6-0.4,2.1-0.8v7.1c-0.9,0.4-2,0.7-3.3,0.9c-1.3,0.2-2.4,0.2-3.4,0.2c-2.2,0-4.1-0.2-5.5-0.7c-1.4-0.5-2.5-1.2-3.4-2.2
			c-0.8-1-1.4-2.3-1.7-3.7c-0.3-1.5-0.5-3.2-0.5-5.2v-15.4H889.9z"/>
		<path d="M938.9,419.6c-1.6-2.3-3.8-3.4-6.6-3.4c-1.1,0-2.2,0.3-3.3,0.8c-1.1,0.6-1.6,1.5-1.6,2.7c0,1,0.4,1.8,1.3,2.2
			c0.9,0.5,2,0.9,3.4,1.2c1.4,0.3,2.8,0.7,4.4,1s3,0.9,4.4,1.6s2.5,1.7,3.4,3c0.9,1.3,1.3,3,1.3,5.2c0,2-0.4,3.7-1.3,5.1
			c-0.9,1.4-2,2.5-3.4,3.3c-1.4,0.8-2.9,1.4-4.7,1.8s-3.5,0.6-5.2,0.6c-2.6,0-5-0.4-7.2-1.1c-2.2-0.7-4.2-2.1-5.9-4.1l5.6-5.2
			c1.1,1.2,2.2,2.2,3.5,3c1.2,0.8,2.7,1.2,4.5,1.2c0.6,0,1.2-0.1,1.9-0.2c0.7-0.1,1.3-0.4,1.8-0.7c0.6-0.3,1-0.7,1.4-1.2
			c0.4-0.5,0.5-1.1,0.5-1.7c0-1.2-0.4-2-1.3-2.6c-0.9-0.6-2-1-3.4-1.4c-1.4-0.4-2.8-0.7-4.4-1c-1.6-0.3-3-0.8-4.4-1.5
			c-1.4-0.7-2.5-1.6-3.4-2.8c-0.9-1.2-1.3-2.9-1.3-5c0-1.9,0.4-3.5,1.2-4.9c0.8-1.4,1.8-2.5,3-3.4s2.7-1.5,4.3-2
			c1.6-0.4,3.3-0.6,5-0.6c2.2,0,4.5,0.4,6.7,1.2c2.2,0.8,4,2.1,5.3,4L938.9,419.6z"/>
	</g>
	<g class="st1">
		<path d="M956.5,453.7h-4.6l4.7-16.5h5.7L956.5,453.7z"/>
		<path d="M994.5,428.8c0.1,1.6,0.5,3.2,1.2,4.6c0.7,1.4,1.5,2.7,2.6,3.7c1.1,1,2.3,1.9,3.7,2.5c1.4,0.6,2.9,0.9,4.5,0.9
			c2.5,0,4.6-0.6,6.4-1.7c1.8-1.1,3.2-2.5,4.1-4l3.6,2.9c-2,2.5-4.1,4.2-6.5,5.3c-2.4,1.1-4.9,1.6-7.6,1.6c-2.4,0-4.7-0.4-6.8-1.3
			c-2.1-0.9-3.9-2.1-5.4-3.6c-1.5-1.5-2.7-3.4-3.5-5.5c-0.9-2.1-1.3-4.4-1.3-6.9c0-2.5,0.4-4.8,1.3-6.9c0.8-2.1,2-3.9,3.5-5.5
			c1.5-1.5,3.2-2.7,5.2-3.6c2-0.9,4.2-1.3,6.5-1.3c2.5,0,4.7,0.4,6.7,1.3c2,0.9,3.6,2.1,4.9,3.5c1.3,1.5,2.3,3.2,3,5.2
			c0.7,2,1,4.1,1,6.3v2.1H994.5z M1016.8,425c0-3.1-0.9-5.7-2.8-7.6c-1.9-1.9-4.5-2.9-7.8-2.9c-1.5,0-2.9,0.3-4.3,0.9
			c-1.4,0.6-2.6,1.4-3.7,2.3c-1.1,1-1.9,2.1-2.5,3.4c-0.6,1.3-0.9,2.6-0.9,3.9H1016.8z"/>
		<path d="M1047.2,415.3h-9.5v19.3c0,1.2,0.1,2.2,0.3,3c0.2,0.8,0.6,1.4,1,1.8c0.4,0.4,0.9,0.7,1.5,0.9c0.6,0.2,1.2,0.2,1.9,0.2
			c0.8,0,1.6-0.1,2.5-0.3c0.8-0.2,1.6-0.5,2.3-0.9l0.2,4.3c-1.7,0.8-3.8,1.2-6.2,1.2c-0.9,0-1.8-0.1-2.8-0.3c-1-0.2-1.8-0.7-2.6-1.3
			c-0.8-0.7-1.4-1.5-2-2.7c-0.5-1.1-0.8-2.6-0.8-4.4v-20.6h-6.9v-4.2h6.9v-9.2h4.6v9.2h9.5V415.3z"/>
		<path d="M1096.8,418.8c-0.8-1.2-1.9-2.2-3.3-3.1c-1.4-0.8-3-1.3-4.9-1.3c-1.9,0-3.6,0.3-5.1,0.9c-1.5,0.7-2.8,1.6-3.9,2.7
			c-1.1,1.2-1.9,2.6-2.4,4.2c-0.6,1.6-0.8,3.3-0.8,5.2c0,1.9,0.3,3.6,0.8,5.2c0.6,1.6,1.4,3,2.4,4.2c1.1,1.2,2.4,2.1,3.9,2.7
			c1.5,0.7,3.2,1,5.1,0.9c1.8,0,3.4-0.4,4.9-1.3s2.5-1.9,3.3-3.1l3.8,2.9c-1.6,1.9-3.5,3.3-5.5,4.2c-2.1,0.9-4.2,1.4-6.4,1.4
			c-2.7,0-5.1-0.4-7.2-1.2c-2.1-0.9-4-2.1-5.5-3.6c-1.5-1.5-2.7-3.4-3.5-5.5c-0.8-2.1-1.2-4.4-1.2-6.9c0-2.5,0.4-4.8,1.2-6.9
			c0.8-2.1,1.9-4,3.5-5.5c1.5-1.5,3.3-2.7,5.5-3.6c2.1-0.9,4.5-1.3,7.2-1.2c2.2,0,4.4,0.5,6.4,1.4c2.1,0.9,3.9,2.3,5.5,4.2
			L1096.8,418.8z"/>
		<path d="M1110.2,410.8h-4.6l4.7-16.4h5.7L1110.2,410.8z"/>
		<path d="M1128.1,428.8c0.1,1.6,0.5,3.2,1.2,4.6c0.7,1.4,1.5,2.7,2.6,3.7c1.1,1,2.3,1.9,3.7,2.5s2.9,0.9,4.5,0.9
			c2.5,0,4.6-0.6,6.4-1.7c1.8-1.1,3.2-2.5,4.1-4l3.6,2.9c-2,2.5-4.1,4.2-6.5,5.3c-2.4,1.1-4.9,1.6-7.6,1.6c-2.4,0-4.7-0.4-6.8-1.3
			c-2.1-0.9-3.9-2.1-5.4-3.6c-1.5-1.5-2.7-3.4-3.5-5.5c-0.9-2.1-1.3-4.4-1.3-6.9c0-2.5,0.4-4.8,1.3-6.9c0.8-2.1,2-3.9,3.5-5.5
			c1.5-1.5,3.2-2.7,5.2-3.6c2-0.9,4.2-1.3,6.5-1.3c2.5,0,4.7,0.4,6.7,1.3c2,0.9,3.6,2.1,4.9,3.5c1.3,1.5,2.3,3.2,3,5.2s1,4.1,1,6.3
			v2.1H1128.1z M1150.4,425c0-3.1-0.9-5.7-2.8-7.6c-1.9-1.9-4.5-2.9-7.8-2.9c-1.5,0-2.9,0.3-4.3,0.9c-1.4,0.6-2.6,1.4-3.7,2.3
			c-1,1-1.9,2.1-2.5,3.4c-0.6,1.3-0.9,2.6-0.9,3.9H1150.4z"/>
		<path d="M1181.2,418.9c-0.7-1.4-1.6-2.4-2.8-3.2c-1.2-0.8-2.6-1.2-4.3-1.2c-0.8,0-1.6,0.1-2.4,0.3c-0.8,0.2-1.6,0.5-2.2,0.9
			c-0.7,0.4-1.2,0.9-1.6,1.5c-0.4,0.6-0.6,1.4-0.6,2.2c0,1.5,0.5,2.7,1.6,3.4c1.1,0.7,2.7,1.3,4.8,1.8l4.7,1.1
			c2.3,0.5,4.2,1.6,5.7,3.1c1.5,1.6,2.3,3.5,2.3,5.8c0,1.8-0.4,3.3-1.1,4.6c-0.7,1.3-1.7,2.3-2.9,3.2c-1.2,0.8-2.6,1.4-4.1,1.8
			c-1.5,0.4-3.1,0.6-4.7,0.6c-2.5,0-4.9-0.5-7-1.4s-4-2.6-5.6-4.9l4-2.7c0.9,1.5,2.1,2.7,3.5,3.6c1.4,0.9,3.1,1.3,5.1,1.3
			c0.9,0,1.9-0.1,2.8-0.3s1.8-0.5,2.5-1c0.7-0.4,1.3-1,1.8-1.7s0.7-1.5,0.7-2.5c0-1.6-0.6-2.8-1.8-3.5c-1.2-0.7-2.7-1.3-4.4-1.7
			l-4.5-1c-0.6-0.1-1.3-0.4-2.3-0.7c-1-0.3-1.9-0.8-2.8-1.5c-0.9-0.7-1.7-1.5-2.3-2.6s-1-2.3-1-3.9c0-1.7,0.3-3.1,1-4.4
			c0.7-1.3,1.6-2.3,2.7-3.1c1.1-0.8,2.4-1.4,3.9-1.8c1.4-0.4,2.9-0.6,4.5-0.6c2.3,0,4.4,0.4,6.4,1.3c2,0.9,3.5,2.4,4.6,4.5
			L1181.2,418.9z"/>
		<path d="M1210.6,415.3h-9.5v19.3c0,1.2,0.1,2.2,0.4,3c0.2,0.8,0.6,1.4,1,1.8c0.4,0.4,0.9,0.7,1.5,0.9c0.6,0.2,1.2,0.2,1.9,0.2
			c0.8,0,1.6-0.1,2.4-0.3c0.8-0.2,1.6-0.5,2.3-0.9l0.2,4.3c-1.7,0.8-3.8,1.2-6.2,1.2c-0.9,0-1.8-0.1-2.8-0.3c-1-0.2-1.8-0.7-2.6-1.3
			c-0.8-0.7-1.4-1.5-2-2.7c-0.5-1.1-0.8-2.6-0.8-4.4v-20.6h-6.9v-4.2h6.9v-9.2h4.6v9.2h9.5V415.3z"/>
	</g>
	<g class="st1">
		<path d="M343.5,499.3h-9.5v19.3c0,1.2,0.1,2.2,0.3,3c0.2,0.8,0.6,1.4,1,1.8c0.4,0.4,0.9,0.7,1.5,0.9c0.6,0.2,1.2,0.2,1.9,0.2
			c0.8,0,1.6-0.1,2.5-0.3c0.8-0.2,1.6-0.5,2.3-0.9l0.2,4.3c-1.7,0.8-3.8,1.2-6.2,1.2c-0.9,0-1.8-0.1-2.8-0.3c-1-0.2-1.8-0.7-2.6-1.3
			c-0.8-0.7-1.4-1.5-2-2.7c-0.5-1.1-0.8-2.6-0.8-4.4v-20.6h-6.9v-4.2h6.9v-9.2h4.6v9.2h9.5V499.3z"/>
		<path d="M382.9,511.5c0,2.5-0.4,4.8-1.3,6.9c-0.9,2.1-2.1,3.9-3.6,5.5s-3.4,2.7-5.5,3.6c-2.1,0.9-4.5,1.3-7,1.3
			c-2.5,0-4.8-0.4-7-1.3c-2.1-0.9-4-2.1-5.5-3.6s-2.7-3.4-3.6-5.5c-0.9-2.1-1.3-4.4-1.3-6.9c0-2.5,0.4-4.8,1.3-6.9
			c0.9-2.1,2.1-3.9,3.6-5.5s3.4-2.7,5.5-3.6c2.1-0.9,4.4-1.3,7-1.3c2.6,0,4.9,0.4,7,1.3c2.1,0.9,4,2.1,5.5,3.6s2.7,3.4,3.6,5.5
			C382.5,506.8,382.9,509,382.9,511.5z M377.9,511.5c0-1.8-0.3-3.5-0.9-5.1c-0.6-1.6-1.4-3-2.5-4.1c-1.1-1.2-2.4-2.1-3.9-2.8
			c-1.5-0.7-3.2-1-5.1-1c-1.9,0-3.6,0.3-5.1,1c-1.5,0.7-2.8,1.6-3.9,2.8c-1,1.2-1.9,2.5-2.5,4.1c-0.6,1.6-0.9,3.3-0.9,5.1
			s0.3,3.5,0.9,5.1c0.6,1.6,1.4,3,2.5,4.1c1,1.2,2.3,2.1,3.9,2.8c1.5,0.7,3.2,1,5.1,1c1.9,0,3.6-0.3,5.1-1c1.5-0.7,2.8-1.6,3.9-2.8
			c1.1-1.2,1.9-2.5,2.5-4.1C377.6,515,377.9,513.3,377.9,511.5z"/>
		<path d="M415,527.9c-0.1-0.9-0.2-1.8-0.2-2.6c0-0.9,0-1.7,0-2.6h-0.1c-0.5,0.9-1.2,1.7-2,2.5c-0.8,0.7-1.7,1.4-2.7,1.9
			c-1,0.5-2,1-3.1,1.3c-1.1,0.3-2.2,0.5-3.3,0.5c-4.2,0-7.3-1.1-9.3-3.3c-2-2.2-3-5.4-3-9.5v-20.8h4.6v18.1c0,1.8,0.1,3.4,0.4,4.8
			c0.3,1.4,0.8,2.6,1.4,3.5c0.7,1,1.6,1.7,2.7,2.2c1.1,0.5,2.6,0.7,4.3,0.7c0.2,0,0.9-0.1,2-0.3s2.2-0.7,3.4-1.5s2.3-2.1,3.2-3.8
			s1.4-4,1.4-7v-16.8h4.6v25.5c0,0.9,0,2,0.1,3.4c0.1,1.4,0.2,2.6,0.2,3.8H415z"/>
		<path d="M447.2,499.3h-9.5v19.3c0,1.2,0.1,2.2,0.3,3c0.2,0.8,0.6,1.4,1,1.8c0.4,0.4,0.9,0.7,1.5,0.9c0.6,0.2,1.2,0.2,1.9,0.2
			c0.8,0,1.6-0.1,2.5-0.3c0.8-0.2,1.6-0.5,2.3-0.9l0.2,4.3c-1.7,0.8-3.8,1.2-6.2,1.2c-0.9,0-1.8-0.1-2.8-0.3c-1-0.2-1.8-0.7-2.6-1.3
			c-0.8-0.7-1.4-1.5-2-2.7c-0.5-1.1-0.8-2.6-0.8-4.4v-20.6h-6.9v-4.2h6.9v-9.2h4.6v9.2h9.5V499.3z"/>
		<path d="M494,507.8V507c0-5.6-2.8-8.5-8.4-8.5c-3.8,0-7.2,1.3-10,3.9l-2.8-3.3c3.1-3.2,7.7-4.8,13.9-4.8c1.6,0,3.1,0.2,4.6,0.7
			c1.5,0.5,2.7,1.2,3.8,2.1c1.1,1,1.9,2.2,2.6,3.6c0.7,1.4,1,3.2,1,5.2v14.6c0,1.3,0.1,2.6,0.2,4c0.1,1.4,0.2,2.5,0.4,3.4h-4.5
			c-0.1-0.8-0.2-1.7-0.3-2.6c-0.1-0.9-0.1-1.8-0.1-2.7h-0.1c-1.4,2.2-3,3.8-4.8,4.7s-4.1,1.4-6.8,1.4c-1.4,0-2.8-0.2-4.2-0.6
			c-1.4-0.4-2.6-1-3.6-1.8c-1-0.8-1.9-1.8-2.5-3c-0.6-1.2-0.9-2.6-0.9-4.2c0-2.7,0.7-4.7,2.1-6.3c1.4-1.5,3.1-2.6,5.2-3.4
			c2.1-0.7,4.3-1.2,6.6-1.4s4.5-0.3,6.5-0.3H494z M491.6,511.6c-1.2,0-2.6,0.1-4.4,0.2c-1.8,0.1-3.4,0.4-5,0.8
			c-1.6,0.4-3,1.1-4.1,2.1c-1.1,0.9-1.7,2.2-1.7,3.9c0,1.1,0.2,2,0.7,2.8c0.4,0.8,1,1.4,1.8,1.9c0.7,0.5,1.6,0.8,2.5,1
			s1.8,0.3,2.8,0.3c1.7,0,3.1-0.3,4.4-0.8c1.2-0.6,2.3-1.3,3.1-2.3c0.8-1,1.5-2.1,1.9-3.4c0.4-1.3,0.6-2.6,0.6-4.1v-2.4H491.6z
			 M477,478.3h6.4l7,10.1h-4.1L477,478.3z"/>
		<path d="M544,499.3h-7.8v28.6h-4.6v-28.6h-6.9v-4.2h6.9v-9c0-4.3,1-7.4,3-9.3c2-1.8,4.7-2.8,8-2.8c0.7,0,1.3,0,2,0.1
			c0.7,0.1,1.3,0.2,2,0.4l-0.8,4.2c-0.6-0.1-1.1-0.3-1.8-0.3c-0.6-0.1-1.2-0.1-1.8-0.1c-1.3,0-2.3,0.2-3.1,0.6
			c-0.8,0.4-1.4,1-1.8,1.8c-0.4,0.8-0.7,1.7-0.8,2.7c-0.1,1-0.2,2.1-0.2,3.3v8.4h7.8V499.3z"/>
		<path d="M570.5,507.8V507c0-5.6-2.8-8.5-8.4-8.5c-3.8,0-7.2,1.3-10,3.9l-2.8-3.3c3.1-3.2,7.7-4.8,13.9-4.8c1.6,0,3.1,0.2,4.6,0.7
			c1.5,0.5,2.7,1.2,3.8,2.1c1.1,1,1.9,2.2,2.6,3.6c0.7,1.4,1,3.2,1,5.2v14.6c0,1.3,0.1,2.6,0.2,4c0.1,1.4,0.2,2.5,0.4,3.4h-4.5
			c-0.1-0.8-0.2-1.7-0.3-2.6c-0.1-0.9-0.1-1.8-0.1-2.7h-0.1c-1.4,2.2-3,3.8-4.8,4.7s-4.1,1.4-6.8,1.4c-1.4,0-2.8-0.2-4.2-0.6
			c-1.4-0.4-2.6-1-3.6-1.8c-1-0.8-1.9-1.8-2.5-3c-0.6-1.2-0.9-2.6-0.9-4.2c0-2.7,0.7-4.7,2.1-6.3c1.4-1.5,3.1-2.6,5.2-3.4
			c2.1-0.7,4.3-1.2,6.6-1.4s4.5-0.3,6.5-0.3H570.5z M568.1,511.6c-1.2,0-2.6,0.1-4.4,0.2c-1.8,0.1-3.4,0.4-5,0.8
			c-1.6,0.4-3,1.1-4.1,2.1c-1.1,0.9-1.7,2.2-1.7,3.9c0,1.1,0.2,2,0.7,2.8c0.4,0.8,1,1.4,1.8,1.9c0.7,0.5,1.6,0.8,2.5,1
			s1.8,0.3,2.8,0.3c1.7,0,3.1-0.3,4.4-0.8c1.2-0.6,2.3-1.3,3.1-2.3c0.8-1,1.5-2.1,1.9-3.4c0.4-1.3,0.6-2.6,0.6-4.1v-2.4H568.1z"/>
		<path d="M592.5,482.5c0,1-0.3,1.8-1,2.4s-1.5,0.9-2.3,0.9s-1.6-0.3-2.3-0.9c-0.7-0.6-1-1.4-1-2.4c0-1,0.4-1.8,1-2.4
			c0.7-0.6,1.5-0.9,2.3-0.9s1.6,0.3,2.3,0.9C592.2,480.8,592.5,481.6,592.5,482.5z M591.5,527.9h-4.6v-32.8h4.6V527.9z"/>
		<path d="M619.5,499.3h-9.5v19.3c0,1.2,0.1,2.2,0.4,3c0.2,0.8,0.6,1.4,1,1.8c0.4,0.4,0.9,0.7,1.5,0.9c0.6,0.2,1.2,0.2,1.9,0.2
			c0.8,0,1.6-0.1,2.5-0.3c0.8-0.2,1.6-0.5,2.3-0.9l0.2,4.3c-1.7,0.8-3.8,1.2-6.2,1.2c-0.9,0-1.8-0.1-2.8-0.3c-1-0.2-1.8-0.7-2.6-1.3
			c-0.8-0.7-1.4-1.5-2-2.7c-0.5-1.1-0.8-2.6-0.8-4.4v-20.6h-6.9v-4.2h6.9v-9.2h4.6v9.2h9.5V499.3z"/>
		<path d="M651,527.9h-4.6V475h4.6V527.9z"/>
		<path d="M695.2,511.5c0,2.5-0.4,4.8-1.3,6.9c-0.9,2.1-2.1,3.9-3.6,5.5s-3.4,2.7-5.5,3.6c-2.1,0.9-4.5,1.3-7,1.3
			c-2.5,0-4.8-0.4-7-1.3c-2.1-0.9-4-2.1-5.5-3.6s-2.7-3.4-3.6-5.5c-0.9-2.1-1.3-4.4-1.3-6.9c0-2.5,0.4-4.8,1.3-6.9
			c0.9-2.1,2.1-3.9,3.6-5.5s3.4-2.7,5.5-3.6c2.1-0.9,4.4-1.3,7-1.3c2.6,0,4.9,0.4,7,1.3c2.1,0.9,4,2.1,5.5,3.6s2.7,3.4,3.6,5.5
			C694.8,506.8,695.2,509,695.2,511.5z M690.2,511.5c0-1.8-0.3-3.5-0.9-5.1c-0.6-1.6-1.4-3-2.5-4.1c-1.1-1.2-2.4-2.1-3.9-2.8
			c-1.5-0.7-3.2-1-5.1-1c-1.9,0-3.6,0.3-5.1,1c-1.5,0.7-2.8,1.6-3.9,2.8c-1,1.2-1.9,2.5-2.5,4.1c-0.6,1.6-0.9,3.3-0.9,5.1
			s0.3,3.5,0.9,5.1c0.6,1.6,1.4,3,2.5,4.1c1,1.2,2.3,2.1,3.9,2.8c1.5,0.7,3.2,1,5.1,1c1.9,0,3.6-0.3,5.1-1c1.5-0.7,2.8-1.6,3.9-2.8
			c1.1-1.2,1.9-2.5,2.5-4.1C689.9,515,690.2,513.3,690.2,511.5z"/>
		<path d="M706.1,534.5c1.4,1.8,3.1,3.3,5.3,4.4c2.2,1.1,4.6,1.6,7.2,1.6c2.3,0,4.3-0.3,6-1c1.6-0.7,3-1.6,4-2.8
			c1-1.2,1.7-2.5,2.2-4.1c0.4-1.6,0.7-3.2,0.7-5v-5.9h-0.1c-1.5,2.2-3.3,3.8-5.5,4.8c-2.1,0.9-4.4,1.4-6.8,1.4s-4.6-0.4-6.7-1.3
			c-2.1-0.8-3.9-2-5.4-3.5c-1.5-1.5-2.8-3.2-3.6-5.3c-0.9-2.1-1.3-4.3-1.3-6.7s0.4-4.6,1.3-6.6s2-3.9,3.5-5.4
			c1.5-1.5,3.2-2.7,5.2-3.6c2-0.9,4.3-1.3,6.7-1.3c1,0,2,0.1,3.1,0.3c1.1,0.2,2.2,0.5,3.3,1c1.1,0.5,2.2,1.1,3.3,1.9
			c1.1,0.8,2.1,1.9,3,3.1h0.1v-5.5h4.6v32.5c0,1.8-0.2,3.7-0.7,5.7c-0.4,2-1.3,3.9-2.6,5.5c-1.3,1.7-3.1,3.1-5.4,4.2
			c-2.3,1.1-5.3,1.7-9,1.7c-3.3,0-6.2-0.5-8.8-1.6c-2.6-1.1-4.9-2.7-7-5L706.1,534.5z M707,511.1c0,1.7,0.3,3.3,0.9,4.9
			c0.6,1.5,1.5,2.8,2.6,4c1.1,1.1,2.4,2.1,3.8,2.7c1.5,0.7,3.1,1,4.8,1c1.7,0,3.3-0.3,4.8-0.9c1.5-0.6,2.9-1.5,4-2.6
			c1.2-1.1,2.1-2.4,2.7-4c0.6-1.5,0.9-3.3,0.9-5.2c0-1.7-0.3-3.3-0.8-4.9c-0.6-1.5-1.4-2.8-2.4-4c-1.1-1.1-2.4-2.1-3.9-2.7
			c-1.5-0.7-3.3-1-5.2-1c-1.7,0-3.3,0.3-4.8,1c-1.5,0.7-2.8,1.6-3.8,2.7c-1.1,1.1-2,2.5-2.6,4C707.3,507.7,707,509.4,707,511.1z"/>
		<path d="M753.1,482.5c0,1-0.3,1.8-1,2.4s-1.5,0.9-2.3,0.9s-1.6-0.3-2.3-0.9c-0.7-0.6-1-1.4-1-2.4c0-1,0.4-1.8,1-2.4
			c0.7-0.6,1.5-0.9,2.3-0.9s1.6,0.3,2.3,0.9C752.8,480.8,753.1,481.6,753.1,482.5z M752.1,527.9h-4.6v-32.8h4.6V527.9z"/>
		<path d="M795.9,548.1h-4.6v-25.6h-0.1c-0.7,1.1-1.6,2.1-2.7,2.9c-1,0.8-2.1,1.4-3.2,2c-1.1,0.5-2.3,0.9-3.5,1.1
			c-1.2,0.2-2.3,0.3-3.4,0.3c-2.6,0-4.9-0.4-7-1.3c-2.1-0.9-4-2.1-5.5-3.6s-2.7-3.4-3.6-5.5c-0.9-2.1-1.3-4.4-1.3-6.9
			c0-2.5,0.4-4.8,1.3-6.9c0.9-2.1,2.1-3.9,3.6-5.5s3.4-2.7,5.5-3.6c2.1-0.9,4.5-1.3,7-1.3c1.1,0,2.2,0.1,3.4,0.3
			c1.2,0.2,2.3,0.6,3.5,1.1c1.1,0.5,2.2,1.2,3.2,2c1,0.8,1.9,1.8,2.7,2.9h0.1v-5.5h4.6V548.1z M766,511.5c0,1.8,0.3,3.5,0.9,5.1
			c0.6,1.6,1.4,3,2.5,4.1c1.1,1.2,2.4,2.1,3.9,2.8c1.5,0.7,3.2,1,5.1,1c1.9,0,3.6-0.3,5.2-1c1.6-0.7,3-1.6,4.2-2.8
			c1.2-1.2,2.1-2.5,2.7-4.1c0.7-1.6,1-3.3,1-5.1s-0.3-3.5-1-5.1c-0.7-1.6-1.6-3-2.7-4.1c-1.2-1.2-2.6-2.1-4.2-2.8
			c-1.6-0.7-3.3-1-5.2-1c-1.9,0-3.6,0.3-5.1,1c-1.5,0.7-2.8,1.6-3.9,2.8c-1.1,1.2-1.9,2.5-2.5,4.1C766.3,508,766,509.7,766,511.5z"
			/>
		<path d="M829.6,527.9c-0.1-0.9-0.2-1.8-0.2-2.6c0-0.9,0-1.7,0-2.6h-0.1c-0.5,0.9-1.2,1.7-2,2.5c-0.8,0.7-1.7,1.4-2.7,1.9
			c-1,0.5-2,1-3.1,1.3c-1.1,0.3-2.2,0.5-3.3,0.5c-4.2,0-7.3-1.1-9.3-3.3c-2-2.2-3-5.4-3-9.5v-20.8h4.6v18.1c0,1.8,0.1,3.4,0.4,4.8
			c0.3,1.4,0.8,2.6,1.4,3.5c0.7,1,1.6,1.7,2.7,2.2c1.1,0.5,2.6,0.7,4.3,0.7c0.2,0,0.9-0.1,2-0.3c1.1-0.2,2.2-0.7,3.4-1.5
			c1.2-0.8,2.3-2.1,3.2-3.8c0.9-1.7,1.4-4,1.4-7v-16.8h4.6v25.5c0,0.9,0,2,0.1,3.4s0.2,2.6,0.2,3.8H829.6z"/>
		<path d="M848.1,512.8c0.1,1.6,0.5,3.2,1.2,4.6c0.7,1.4,1.5,2.7,2.6,3.7c1.1,1,2.3,1.9,3.7,2.5c1.4,0.6,2.9,0.9,4.5,0.9
			c2.5,0,4.6-0.6,6.4-1.7c1.8-1.1,3.2-2.5,4.1-4l3.6,2.9c-2,2.5-4.1,4.2-6.5,5.3c-2.4,1.1-4.9,1.6-7.6,1.6c-2.4,0-4.7-0.4-6.8-1.3
			c-2.1-0.9-3.9-2.1-5.4-3.6c-1.5-1.5-2.7-3.4-3.5-5.5c-0.9-2.1-1.3-4.4-1.3-6.9c0-2.5,0.4-4.8,1.3-6.9c0.8-2.1,2-3.9,3.5-5.5
			c1.5-1.5,3.2-2.7,5.2-3.6c2-0.9,4.2-1.3,6.5-1.3c2.5,0,4.7,0.4,6.6,1.3c2,0.9,3.6,2.1,4.9,3.5c1.3,1.5,2.3,3.2,3,5.2s1,4.1,1,6.3
			v2.1H848.1z M870.3,509c0-3.1-0.9-5.7-2.8-7.6c-1.9-1.9-4.5-2.9-7.8-2.9c-1.5,0-2.9,0.3-4.3,0.9c-1.4,0.6-2.6,1.4-3.7,2.3
			c-1.1,1-1.9,2.1-2.5,3.4c-0.6,1.3-0.9,2.6-0.9,3.9H870.3z"/>
	</g>
	<g>
		<polygon class="st0" points="235,242.7 107.5,242.7 224,338.7 		"/>
	</g>
</g>
</svg>
