<?xml version="1.0" encoding="utf-8"?>
<!-- Generator: Adobe Illustrator 21.0.0, SVG Export Plug-In . SVG Version: 6.00 Build 0)  -->
<svg version="1.1" xmlns="http://www.w3.org/2000/svg" xmlns:xlink="http://www.w3.org/1999/xlink" x="0px" y="0px"
	 viewBox="0 0 103.4 370" style="enable-background:new 0 0 103.4 370;" xml:space="preserve">
<style type="text/css">
	.st0{fill:#FF5949;}
	.st1{fill:#F75B35;}
	.st2{fill:#FFD3CF;}
	.st3{fill:none;stroke:#1D1D1B;stroke-linecap:round;stroke-linejoin:round;stroke-miterlimit:10;}
	.st4{fill:#FFFFFF;}
	.st5{fill:#1D1D1B;}
	.st6{fill:#FFE02F;}
	.st7{fill:none;stroke:#FFFFFF;stroke-width:2;stroke-miterlimit:10;}
	.st8{fill:#003072;}
	.st9{fill:#29235C;}
	.st10{fill:none;stroke:#575756;stroke-linecap:round;stroke-linejoin:round;stroke-miterlimit:10;}
	.st11{fill:#575756;}
	.st12{fill:none;stroke:#2D2E81;stroke-linecap:round;stroke-linejoin:round;stroke-miterlimit:10;}
	.st13{fill:#706F6F;}
	.st14{fill:#A9D7F7;}
</style>
<g id="Calque_1">
	<path class="st0" d="M86,204.5H17.2v-92.3c0-7.5,6.1-13.6,13.6-13.6H72c7.7,0,14,6.3,14,14V204.5z"/>
	<path class="st1" d="M89.2,84.9V37.6C89.2,16.9,72.2,0,51.6,0h0C30.9,0,14,16.9,14,37.6v47.3H89.2z"/>
	<rect x="44.8" y="67.5" class="st2" width="14.1" height="31.7"/>
	<ellipse class="st2" cx="51.8" cy="46.5" rx="28.8" ry="37"/>
	<ellipse class="st2" cx="21.2" cy="49.2" rx="4" ry="5.7"/>
	<polyline class="st3" points="50.6,51.5 46.3,58.7 50.8,58.7 	"/>
	<circle class="st4" cx="51.8" cy="126.2" r="3.6"/>
	<circle class="st4" cx="51.8" cy="139.9" r="3.6"/>
	<rect x="0" y="248.3" class="st2" width="10.8" height="17.5"/>
	<rect x="11.5" y="248.3" class="st2" width="3.4" height="9.8"/>
	
		<rect x="92.6" y="250.9" transform="matrix(-1 -4.467106e-11 4.467106e-11 -1 195.8699 519.2911)" class="st2" width="10.8" height="17.5"/>
	
		<rect x="88.3" y="250.9" transform="matrix(-1 -4.431490e-11 4.431490e-11 -1 180.1199 511.5411)" class="st2" width="3.4" height="9.8"/>
	<path class="st0" d="M7.6,247.3L7.6,247.3c-4.2,0-7.6-3.4-7.6-7.6l0-132.9c0-4.2,3.4-7.6,7.6-7.6h0c4.2,0,7.6,3.4,7.6,7.6v132.9
		C15.2,243.9,11.8,247.3,7.6,247.3z"/>
	<path class="st0" d="M95.8,250L95.8,250c-4.2,0-7.6-3.4-7.6-7.6V111.2c0-4.2,3.4-7.6,7.6-7.6h0c4.2,0,7.6,3.4,7.6,7.6v131.2
		C103.4,246.6,100,250,95.8,250z"/>
	<rect x="25.2" y="204.5" class="st6" width="53.5" height="145"/>
	<line class="st7" x1="52.1" y1="205" x2="52.8" y2="350"/>
	<path class="st5" d="M51.7,349.5V370H17.2c0,0,1.5-14.5,20.5-14v-6.5H51.7z"/>
	<path class="st5" d="M53.8,349.5V370h34.5c0,0-1.5-14.5-20.5-14v-6.5H53.8z"/>
	<path class="st3" d="M35.2,47.1c0-1.7,1.4-3.2,3.2-3.2c1.7,0,3.2,1.4,3.2,3.2"/>
	<path class="st3" d="M58.8,47.1c0-1.7,1.4-3.2,3.2-3.2s3.2,1.4,3.2,3.2"/>
	<path class="st1" d="M32.2,17.3c0,0,33.4,52.2,64.6,32.1c0,0-4-0.1-7.8-5.8l-8.5-25.1L46.2,4.2L32.2,17.3z"/>
</g>
<g id="Calque_2">
</g>
</svg>
