<?xml version="1.0" encoding="utf-8"?>
<!-- Generator: Adobe Illustrator 21.0.0, SVG Export Plug-In . SVG Version: 6.00 Build 0)  -->
<svg version="1.1" xmlns="http://www.w3.org/2000/svg" xmlns:xlink="http://www.w3.org/1999/xlink" x="0px" y="0px"
	 viewBox="0 0 841.9 595.3" style="enable-background:new 0 0 841.9 595.3;" xml:space="preserve">
<style type="text/css">
	.st0{fill:#FF5949;}
	.st1{fill:#F75B35;}
	.st2{fill:#FFD3CF;}
	.st3{fill:none;stroke:#1D1D1B;stroke-linecap:round;stroke-linejoin:round;stroke-miterlimit:10;}
	.st4{fill:#FFFFFF;}
	.st5{fill:#FFE02F;}
	.st6{fill:none;stroke:#FFFFFF;stroke-width:2;stroke-miterlimit:10;}
	.st7{fill:#1D1D1B;}
	.st8{display:none;}
	.st9{display:inline;fill:#1D1D1B;}
	.st10{display:inline;fill:#FFD3CF;}
	.st11{display:inline;fill:none;stroke:#1D1D1B;stroke-linecap:round;stroke-linejoin:round;stroke-miterlimit:10;}
	.st12{display:inline;fill:#29235C;}
	.st13{display:inline;}
	.st14{display:inline;fill:none;stroke:#FFFFFF;stroke-width:2;stroke-miterlimit:10;}
	.st15{display:inline;fill:none;stroke:#575756;stroke-linecap:round;stroke-linejoin:round;stroke-miterlimit:10;}
	.st16{display:inline;fill:#575756;}
	.st17{display:inline;fill:none;stroke:#2D2E81;stroke-linecap:round;stroke-linejoin:round;stroke-miterlimit:10;}
	.st18{display:inline;fill:#706F6F;}
	.st19{display:inline;fill:#A9D7F7;}
	.st20{display:inline;fill:#11D3D3;}
	.st21{display:inline;fill:#FF5949;}
	.st22{display:inline;fill:#003072;}
</style>
<g id="Calque_1">
	<path class="st0" d="M472.2,328h-68.8v-92.3c0-7.5,6.1-13.6,13.6-13.6h41.2c7.7,0,14,6.3,14,14V328z"/>
	<path class="st1" d="M475.4,208.3v-47.3c0-20.7-16.9-37.6-37.6-37.6h0c-20.7,0-37.6,16.9-37.6,37.6v47.3H475.4z"/>
	<rect x="431" y="191" class="st2" width="14.1" height="31.7"/>
	<ellipse class="st2" cx="438" cy="170" rx="28.8" ry="37"/>
	<ellipse class="st2" cx="407.4" cy="172.7" rx="4" ry="5.7"/>
	<polyline class="st3" points="436.8,175 432.5,182.2 437,182.2 	"/>
	<circle class="st4" cx="438" cy="249.6" r="3.6"/>
	<circle class="st4" cx="438" cy="263.4" r="3.6"/>
	<rect x="386.2" y="371.8" class="st2" width="10.8" height="17.5"/>
	<rect x="397.7" y="371.8" class="st2" width="3.4" height="9.8"/>
	
		<rect x="478.8" y="374.4" transform="matrix(-1 -4.484025e-11 4.484025e-11 -1 968.2588 766.25)" class="st2" width="10.8" height="17.5"/>
	
		<rect x="474.5" y="374.4" transform="matrix(-1 -4.484203e-11 4.484203e-11 -1 952.5088 758.5)" class="st2" width="3.4" height="9.8"/>
	<path class="st0" d="M393.8,370.8L393.8,370.8c-4.2,0-7.6-3.4-7.6-7.6V230.3c0-4.2,3.4-7.6,7.6-7.6l0,0c4.2,0,7.6,3.4,7.6,7.6
		v132.9C401.4,367.4,398,370.8,393.8,370.8z"/>
	<path class="st0" d="M482,373.5L482,373.5c-4.2,0-7.6-3.4-7.6-7.6V234.7c0-4.2,3.4-7.6,7.6-7.6h0c4.2,0,7.6,3.4,7.6,7.6v131.2
		C489.6,370.1,486.2,373.5,482,373.5z"/>
	<rect x="411.4" y="328" class="st5" width="53.5" height="145"/>
	<line class="st6" x1="438.3" y1="328.5" x2="439" y2="473.5"/>
	<path class="st7" d="M437.9,473v20.5h-34.5c0,0,1.5-14.5,20.5-14V473H437.9z"/>
	<path class="st7" d="M440,473v20.5h34.5c0,0-1.5-14.5-20.5-14V473H440z"/>
	<path class="st3" d="M421.4,170.6c0-1.7,1.4-3.2,3.2-3.2s3.2,1.4,3.2,3.2"/>
	<path class="st3" d="M445,170.6c0-1.7,1.4-3.2,3.2-3.2s3.2,1.4,3.2,3.2"/>
	<path class="st1" d="M418.4,140.8c0,0,33.4,52.2,64.6,32.1c0,0-4-0.1-7.8-5.8l-8.5-25.1l-34.3-14.3L418.4,140.8z"/>
</g>
<g id="Calque_2">
</g>
<g id="maire" class="st8">
	<path class="st9" d="M366.7,369.3L366.7,369.3c-4.2,0-7.6-3.4-7.6-7.6V228.8c0-4.2,3.4-7.6,7.6-7.6l0,0c4.2,0,7.6,3.4,7.6,7.6
		v132.9C374.3,365.9,370.9,369.3,366.7,369.3z"/>
	<path class="st9" d="M476.3,368L476.3,368c-4.2,0-7.6-3.4-7.6-7.6V227.5c0-4.2,3.4-7.6,7.6-7.6l0,0c4.2,0,7.6,3.4,7.6,7.6v132.9
		C483.9,364.6,480.4,368,476.3,368z"/>
	<rect x="415.4" y="191" class="st10" width="14.1" height="31.1"/>
	<ellipse class="st10" cx="422.4" cy="170" rx="28.8" ry="37"/>
	<ellipse class="st10" cx="391.9" cy="172.7" rx="4" ry="5.7"/>
	<ellipse class="st10" cx="451.2" cy="172.7" rx="4" ry="5.7"/>
	<polyline class="st11" points="421.2,175 417,182.2 421.4,182.2 	"/>
	<rect x="359.5" y="370.3" class="st10" width="10.8" height="17.5"/>
	<rect x="371" y="370.3" class="st10" width="3.4" height="9.8"/>
	
		<rect x="472.8" y="371.6" transform="matrix(-1 -4.484025e-11 4.484025e-11 -1 956.3557 760.6667)" class="st10" width="10.8" height="17.5"/>
	
		<rect x="468.6" y="371.6" transform="matrix(-1 -4.484203e-11 4.484203e-11 -1 940.6057 752.9167)" class="st10" width="3.4" height="9.8"/>
	<path class="st11" d="M405.9,170.6c0-1.7,1.4-3.2,3.2-3.2s3.2,1.4,3.2,3.2"/>
	<path class="st11" d="M429.5,170.6c0-1.7,1.4-3.2,3.2-3.2s3.2,1.4,3.2,3.2"/>
	<path class="st12" d="M416.4,483.2h-2c-3.3,0-6-2.7-6-6v-81.9c0-3.3,2.7-6,6-6h2c3.3,0,6,2.7,6,6v81.9
		C422.4,480.5,419.7,483.2,416.4,483.2z"/>
	<path class="st12" d="M432.5,483.2h-2c-3.3,0-6-2.7-6-6v-81.9c0-3.3,2.7-6,6-6h2c3.3,0,6,2.7,6,6v81.9
		C438.5,480.5,435.8,483.2,432.5,483.2z"/>
	<polygon class="st13" points="441.7,467 405.1,467 395.9,328 449.4,328 	"/>
	<polygon class="st9" points="408.4,473 422.4,473 422.4,493.5 387.9,493.5 377,493.5 408.3,483.2 	"/>
	<polygon class="st9" points="438.5,473 424.5,473 424.5,493.5 458.9,493.5 469.8,493.5 438.5,483.2 	"/>
	<line class="st14" x1="422.7" y1="328.5" x2="423.5" y2="473.5"/>
	<polygon class="st9" points="458.9,356 385.7,356 375.4,222.1 467.4,222.1 	"/>
	<polygon class="st15" points="397,222.6 388.1,231 401.5,235.3 386.8,246.1 422.3,299.2 407.8,222.6 	"/>
	<polygon class="st15" points="447.9,222.6 456.8,231 443.4,235.3 458,246.1 422.3,299.2 437.7,222.6 	"/>
	<circle class="st16" cx="422.4" cy="314.5" r="1.8"/>
	
		<ellipse transform="matrix(0.7071 -0.7071 0.7071 0.7071 -92.8289 388.4164)" class="st16" cx="422.4" cy="306.3" rx="1.8" ry="1.8"/>
	<path class="st17" d="M413.1,174H405c-2.7,0-4.9-2.2-4.9-4.9l0,0c0-2.7,2.2-4.9,4.9-4.9h8.1c2.7,0,4.9,2.2,4.9,4.9l0,0
		C418,171.8,415.8,174,413.1,174z"/>
	<path class="st17" d="M436.7,174h-8.1c-2.7,0-4.9-2.2-4.9-4.9l0,0c0-2.7,2.2-4.9,4.9-4.9h8.1c2.7,0,4.9,2.2,4.9,4.9l0,0
		C441.6,171.8,439.4,174,436.7,174z"/>
	<path class="st17" d="M418,169.7c0-1.6,1.3-1.4,2.9-1.4c1.6,0,2.9-0.1,2.9,1.4"/>
	<line class="st17" x1="400.1" y1="169.1" x2="393.7" y2="166.6"/>
	<path class="st18" d="M444.3,147.2h-26.4c0,0-23.8,0.5-23.8-13.3l11.4,1.1l-3-3.3h9.9C412.3,131.8,440.2,130.6,444.3,147.2z"/>
	<path class="st18" d="M402.8,143.4c-3.9,3.1-7.2,13.2-7.2,13.2s7.4-10.9,13-11.3L402.8,143.4z"/>
	<path class="st18" d="M441.9,143c3.9,3.1,7.2,13.2,7.2,13.2s-7.4-10.9-13-11.3L441.9,143z"/>
	<line class="st17" x1="441.6" y1="169.1" x2="451" y2="166.1"/>
	<polygon class="st19" points="408,222.1 437.9,222.1 422.4,298.8 	"/>
	<rect x="416.6" y="222.1" class="st12" width="11.6" height="4.1"/>
	<rect x="418.1" y="226.6" class="st12" width="8.7" height="64.8"/>
</g>
<g id="fille">
</g>
<g id="homme" class="st8">
	<path class="st20" d="M455.8,328H387v-92.3c0-7.5,6.1-13.6,13.6-13.6h41.2c7.7,0,14,6.3,14,14V328z"/>
	<rect x="414.6" y="191" class="st10" width="14.1" height="31.1"/>
	<ellipse class="st10" cx="421.6" cy="170" rx="28.8" ry="37"/>
	<ellipse class="st10" cx="391" cy="172.7" rx="4" ry="5.7"/>
	<ellipse class="st10" cx="450.3" cy="172.7" rx="4" ry="5.7"/>
	<polyline class="st11" points="420.4,175 416.1,182.2 420.6,182.2 	"/>
	<rect x="369.8" y="371.8" class="st10" width="10.8" height="17.5"/>
	<rect x="381.3" y="371.8" class="st10" width="3.4" height="9.8"/>
	
		<rect x="462.4" y="374.4" transform="matrix(-1 -4.484025e-11 4.484025e-11 -1 935.4584 766.25)" class="st10" width="10.8" height="17.5"/>
	
		<rect x="458.1" y="374.4" transform="matrix(-1 -4.484203e-11 4.484203e-11 -1 919.7084 758.5)" class="st10" width="3.4" height="9.8"/>
	<path class="st11" d="M405,170.6c0-1.7,1.4-3.2,3.2-3.2s3.2,1.4,3.2,3.2"/>
	<path class="st11" d="M428.6,170.6c0-1.7,1.4-3.2,3.2-3.2s3.2,1.4,3.2,3.2"/>
	<path class="st21" d="M415.5,483.2h-2c-3.3,0-6-2.7-6-6v-81.9c0-3.3,2.7-6,6-6h2c3.3,0,6,2.7,6,6v81.9
		C421.5,480.5,418.8,483.2,415.5,483.2z"/>
	<path class="st21" d="M431.6,483.2h-2c-3.3,0-6-2.7-6-6v-81.9c0-3.3,2.7-6,6-6h2c3.3,0,6,2.7,6,6v81.9
		C437.7,480.5,435,483.2,431.6,483.2z"/>
	<polygon class="st22" points="443.2,467 401.5,467 395,328 448.5,328 	"/>
	<path class="st9" d="M421.5,473v20.5H387c0,0,1.5-14.5,20.5-14V473H421.5z"/>
	<line class="st14" x1="421.9" y1="328.5" x2="422.6" y2="473.5"/>
	<path class="st9" d="M423.6,473v20.5h34.5c0,0-1.5-14.5-20.5-14V473H423.6z"/>
	<path class="st10" d="M377.4,370.8L377.4,370.8c-2.8,0-5.2-2.3-5.2-5.2v-95.1c0-2.8,2.3-5.2,5.2-5.2l0,0c2.8,0,5.2,2.3,5.2,5.2
		v95.1C382.6,368.5,380.2,370.8,377.4,370.8z"/>
	<path class="st10" d="M465.6,373.5L465.6,373.5c-2.8,0-5.2-2.3-5.2-5.2v-99.8c0-2.8,2.3-5.2,5.2-5.2l0,0c2.8,0,5.2,2.3,5.2,5.2
		v99.8C470.8,371.2,468.5,373.5,465.6,373.5z"/>
	<path class="st20" d="M385,275.1v-43.5c0-4.9-3.4-8.9-7.6-8.9l0,0c-4.2,0-7.6,4-7.6,8.9v43.5H385z"/>
	<path class="st20" d="M458,270.1v-38.9c0-5,3.4-9,7.6-9l0,0c4.2,0,7.6,4.1,7.6,9v38.9"/>
	<path class="st9" d="M445.5,149.5h-29.4c0,0-26.6,0.8-26.6-20.2l12.7,1.7l-3.3-5h11C409.9,126,441,124.3,445.5,149.5z"/>
	<path class="st9" d="M445.5,149.5"/>
	<path class="st9" d="M443.4,149.5l-0.2,23.9h3.7v-4.9c0,0,1.7-2.5,3.4-1.6c0,0-0.7-11.3-4.8-17.5L443.4,149.5z"/>
	<path class="st9" d="M399.5,145.1l-0.1,28.2l-4,0.1l-0.3-5c0,0,0-1.8-2.2-0.6c0,0,0.8-14.7,6-22.5H399.5z"/>
</g>
</svg>
