<?xml version="1.0" encoding="utf-8"?>
<!-- Generator: Adobe Illustrator 21.0.2, SVG Export Plug-In . SVG Version: 6.00 Build 0)  -->
<svg version="1.1" id="Calque_1" xmlns="http://www.w3.org/2000/svg" xmlns:xlink="http://www.w3.org/1999/xlink" x="0px" y="0px"
	 viewBox="0 0 464 691" style="enable-background:new 0 0 464 691;" xml:space="preserve">
<style type="text/css">
	.st0{fill:#FBCE9D;stroke:#F7B563;stroke-width:23.3729;stroke-linecap:round;stroke-linejoin:round;stroke-miterlimit:10;}
	.st1{fill:#F7B563;}
	.st2{fill:#046076;}
</style>
<g>
	<g>
		<path class="st0" d="M153.9,91.4c-30.4-22.8-74.4,1.5-74.4,39.5v227.8v24.3c0,0-13.7-83.5-68.3-83.5v138.2v66.8
			c0,21.3,3,41,10.6,59.2c24.3,66.8,88.1,115.4,164,115.4h136.7c69.8,0,127.5-56.2,127.5-127.5V423.9v-83.5c0-22.8-18.2-41-41-41
			h-12.1c-22.8,0-41,18.2-41,41v-12.1c0-31.9-21.3-51.6-45.6-51.6c-24.3,0-45.6,19.7-45.6,45.6v-19.7c0-24.3-16.7-45.6-41-48.6
			c-27.3-3-50.1,18.2-50.1,45.6V124.8C170.6,112.6,164.5,100.5,153.9,91.4z"/>
	</g>
	<path class="st1" d="M363.5,343.4v47.1c0,4.6-3,7.6-7.6,7.6c-4.6,0-7.6-3-7.6-7.6v-47.1c0-4.6,3-7.6,7.6-7.6
		C360.4,335.8,363.5,338.9,363.5,343.4z"/>
	<path class="st1" d="M270.8,325.2v92.6c0,4.6-3,7.6-7.6,7.6s-7.6-3-7.6-7.6v-92.6c0-4.6,3-7.6,7.6-7.6S270.8,320.6,270.8,325.2z"/>
	<path class="st1" d="M179.7,300.9v130.6c0,4.6-3,7.6-7.6,7.6c-4.6,0-7.6-3-7.6-7.6V300.9c0-4.6,3-7.6,7.6-7.6
		C176.7,293.3,179.7,296.4,179.7,300.9z"/>
	<path class="st1" d="M87.1,343.4V474c0,4.6-3,7.6-7.6,7.6c-4.6,0-7.6-3-7.6-7.6V343.4c0-4.6,3-7.6,7.6-7.6
		C84.1,335.8,87.1,338.9,87.1,343.4z"/>
	<path class="st2" d="M90.1,58c0,3-1.5,6.1-3,7.6c-4.6,4.6-12.1,4.6-16.7,0L47.6,42.8c-4.6-4.6-4.6-12.1,0-16.7s12.1-4.6,16.7,0
		l22.8,22.8C90.1,51.9,90.1,54.9,90.1,58z"/>
	<path class="st2" d="M205.5,35.2c0,3-1.5,6.1-3,7.6l-22.8,22.8c-4.6,4.6-12.1,4.6-16.7,0c-4.6-4.6-4.6-12.1,0-16.7l22.8-22.8
		c4.6-4.6,12.1-4.6,16.7,0C204,29.1,205.5,32.1,205.5,35.2z"/>
	<path class="st2" d="M56.7,105c0,6.1-4.6,12.1-12.1,12.1H21.8c-6.1,0-12.1-4.6-12.1-12.1c0-6.1,4.6-12.1,12.1-12.1h22.8
		C50.7,92.9,56.7,97.4,56.7,105z"/>
	<path class="st2" d="M240.5,92.9c0,6.1-4.6,12.1-12.1,12.1h-22.8c-6.1,0-12.1-4.6-12.1-12.1c0-6.1,4.6-12.1,12.1-12.1h22.8
		C234.4,80.7,240.5,86.8,240.5,92.9z"/>
	<path class="st2" d="M137.2,12.4v22.8c0,6.1-4.6,12.1-12.1,12.1c-7.6,0-12.1-4.6-12.1-12.1V12.4c0-6.1,4.6-12.1,12.1-12.1
		C132.7,0.3,137.2,6.3,137.2,12.4z"/>
</g>
</svg>
