<?xml version="1.0" encoding="utf-8"?>
<!-- Generator: Adobe Illustrator 21.0.0, SVG Export Plug-In . SVG Version: 6.00 Build 0)  -->
<svg version="1.1" xmlns="http://www.w3.org/2000/svg" xmlns:xlink="http://www.w3.org/1999/xlink" x="0px" y="0px"
	 viewBox="0 0 104.1 370" style="enable-background:new 0 0 104.1 370;" xml:space="preserve">
<style type="text/css">
	.st0{fill:#FF5949;}
	.st1{fill:#F75B35;}
	.st2{fill:#FFD3CF;}
	.st3{fill:none;stroke:#1D1D1B;stroke-linecap:round;stroke-linejoin:round;stroke-miterlimit:10;}
	.st4{fill:#FFFFFF;}
	.st5{fill:#1D1D1B;}
	.st6{fill:#FFE02F;}
	.st7{fill:none;stroke:#FFFFFF;stroke-width:2;stroke-miterlimit:10;}
	.st8{fill:#0BD8C4;}
	.st9{fill:#003072;}
	.st10{fill:#29235C;}
	.st11{fill:none;stroke:#575756;stroke-linecap:round;stroke-linejoin:round;stroke-miterlimit:10;}
	.st12{fill:#575756;}
	.st13{fill:none;stroke:#2D2E81;stroke-linecap:round;stroke-linejoin:round;stroke-miterlimit:10;}
	.st14{fill:#706F6F;}
	.st15{fill:none;stroke:#FFFFFF;stroke-width:5;stroke-miterlimit:10;}
	.st16{fill:#A9D7F7;}
</style>
<g id="Calque_1">
	<path class="st8" d="M86.6,203.4H17.4v-93c0-7.5,6.1-13.6,13.6-13.6h41.6c7.7,0,14,6.3,14,14V203.4z"/>
	<rect x="45.1" y="65.5" class="st2" width="14.2" height="31.3"/>
	<ellipse class="st2" cx="52.2" cy="44.3" rx="29" ry="37.3"/>
	<ellipse class="st2" cx="21.4" cy="47" rx="4" ry="5.7"/>
	<ellipse class="st2" cx="81.1" cy="47" rx="4" ry="5.7"/>
	<polyline class="st3" points="50.9,49.4 46.6,56.6 51.1,56.6 	"/>
	<rect x="0" y="247.5" class="st2" width="10.8" height="17.6"/>
	<rect x="11.6" y="247.5" class="st2" width="3.5" height="9.8"/>
	
		<rect x="93.2" y="250.1" transform="matrix(-1 -4.487400e-11 4.487400e-11 -1 197.2003 517.7917)" class="st2" width="10.8" height="17.6"/>
	
		<rect x="88.9" y="250.1" transform="matrix(-1 -4.506363e-11 4.506363e-11 -1 181.3433 509.9891)" class="st2" width="3.5" height="9.8"/>
	<path class="st3" d="M35.5,44.9c0-1.8,1.4-3.2,3.2-3.2c1.8,0,3.2,1.4,3.2,3.2"/>
	<path class="st3" d="M59.2,44.9c0-1.8,1.4-3.2,3.2-3.2s3.2,1.4,3.2,3.2"/>
	<path class="st0" d="M46.1,359.7H44c-3.3,0-6-2.7-6-6v-82.6c0-3.3,2.7-6,6-6h2.1c3.3,0,6,2.7,6,6v82.6
		C52.1,357,49.4,359.7,46.1,359.7z"/>
	<path class="st0" d="M62.3,359.7h-2.1c-3.3,0-6-2.7-6-6v-82.6c0-3.3,2.7-6,6-6h2.1c3.3,0,6,2.7,6,6v82.6
		C68.3,357,65.6,359.7,62.3,359.7z"/>
	<polygon class="st9" points="73.9,343.3 32,343.3 25.4,203.4 79.3,203.4 	"/>
	<path class="st5" d="M52.1,349.4V370H17.4c0,0,1.5-14.6,20.6-14.1v-6.5H52.1z"/>
	<line class="st7" x1="52.4" y1="203.9" x2="53.2" y2="349.9"/>
	<path class="st5" d="M54.2,349.4V370h34.7c0,0-1.5-14.6-20.6-14.1v-6.5H54.2z"/>
	<path class="st2" d="M7.7,246.5L7.7,246.5c-2.9,0-5.2-2.3-5.2-5.2v-95.8c0-2.8,2.3-5.2,5.2-5.2h0.1c2.8,0,5.2,2.3,5.2,5.2v95.8
		C12.9,244.1,10.5,246.5,7.7,246.5z"/>
	<path class="st2" d="M96.5,249.2L96.5,249.2c-2.9,0-5.2-2.3-5.2-5.2V143.5c0-2.8,2.3-5.2,5.2-5.2h0.1c2.8,0,5.2,2.3,5.2,5.2V244
		C101.7,246.9,99.4,249.2,96.5,249.2z"/>
	<path class="st8" d="M15.3,150.1v-43.8c0-4.9-3.4-8.9-7.6-8.9h0c-4.2,0-7.6,4-7.6,8.9l0,43.8H15.3z"/>
	<path class="st8" d="M88.8,145.1v-39.2c0-5,3.4-9.1,7.6-9.1h0c4.2,0,7.6,4.1,7.6,9.1v39.2"/>
	<path class="st5" d="M76.3,23.7H46.6c0,0-26.8,0.8-26.8-20.3l12.8,1.7l-3.4-5h11.1C40.4,0,71.7-1.7,76.3,23.7z"/>
	<path class="st5" d="M74.1,23.7l-0.2,24.1h3.7v-4.9c0,0,1.7-2.5,3.5-1.6c0,0-0.7-11.4-4.8-17.6L74.1,23.7z"/>
	<path class="st5" d="M29.9,19.2l-0.1,28.4l-4.1,0.1l-0.3-5.1c0,0,0-1.8-2.2-0.7c0,0,0.8-14.8,6-22.7H29.9z"/>
</g>
<g id="Calque_2">
</g>
</svg>
