<?xml version="1.0" encoding="utf-8"?>
<!-- Generator: Adobe Illustrator 21.0.2, SVG Export Plug-In . SVG Version: 6.00 Build 0)  -->
<svg version="1.1" id="Calque_1" xmlns="http://www.w3.org/2000/svg" xmlns:xlink="http://www.w3.org/1999/xlink" x="0px" y="0px"
	 viewBox="0 0 124.7 360.5" style="enable-background:new 0 0 124.7 360.5;" xml:space="preserve">
<style type="text/css">
	.st0{display:none;}
	.st1{display:inline;fill:#FF5949;}
	.st2{display:inline;fill:#F75B35;}
	.st3{display:inline;fill:#FFD3CF;}
	.st4{display:inline;fill:none;stroke:#1D1D1B;stroke-linecap:round;stroke-linejoin:round;stroke-miterlimit:10;}
	.st5{display:inline;fill:#FFFFFF;}
	.st6{display:inline;fill:#FFE02F;}
	.st7{display:inline;fill:none;stroke:#FFFFFF;stroke-width:2;stroke-miterlimit:10;}
	.st8{display:inline;fill:#1D1D1B;}
	.st9{fill:#1D1D1B;}
	.st10{fill:#FFD3CF;}
	.st11{fill:none;stroke:#1D1D1B;stroke-linecap:round;stroke-linejoin:round;stroke-miterlimit:10;}
	.st12{fill:#26219B;}
	.st13{fill:none;stroke:#FFFFFF;stroke-width:2;stroke-miterlimit:10;}
	.st14{fill:none;stroke:#575756;stroke-linecap:round;stroke-linejoin:round;stroke-miterlimit:10;}
	.st15{fill:#575756;}
	.st16{fill:none;stroke:#2D2E81;stroke-linecap:round;stroke-linejoin:round;stroke-miterlimit:10;}
	.st17{fill:#706F6F;}
	.st18{fill:#A9D7F7;}
	.st19{fill:#29235C;}
	.st20{fill:#3266BA;}
	.st21{clip-path:url(#SVGID_2_);fill:#FFFFFF;}
	.st22{clip-path:url(#SVGID_4_);fill:#DD2626;}
	.st23{display:inline;fill:#11D3D3;}
	.st24{display:inline;fill:#003072;}
</style>
<g id="Calque_1_1_" class="st0">
	<path class="st1" d="M113.1,195H44.3v-92.3c0-7.5,6.1-13.6,13.6-13.6h41.2c7.7,0,14,6.3,14,14V195z"/>
	<path class="st2" d="M116.3,75.3V28.1c0-20.7-16.9-37.6-37.6-37.6l0,0C58-9.5,41.1,7.4,41.1,28.1v47.3L116.3,75.3L116.3,75.3z"/>
	<rect x="71.9" y="58" class="st3" width="14.1" height="31.7"/>
	<ellipse class="st3" cx="78.9" cy="37" rx="28.8" ry="37"/>
	<ellipse class="st3" cx="48.3" cy="39.7" rx="4" ry="5.7"/>
	<polyline class="st4" points="77.7,42 73.4,49.2 77.9,49.2 	"/>
	<circle class="st5" cx="78.9" cy="116.6" r="3.6"/>
	<circle class="st5" cx="78.9" cy="130.4" r="3.6"/>
	<rect x="27.1" y="238.8" class="st3" width="10.8" height="17.5"/>
	<rect x="38.6" y="238.8" class="st3" width="3.4" height="9.8"/>
	<rect x="119.7" y="241.4" class="st3" width="10.8" height="17.5"/>
	<rect x="115.4" y="241.4" class="st3" width="3.4" height="9.8"/>
	<path class="st1" d="M34.7,237.8L34.7,237.8c-4.2,0-7.6-3.4-7.6-7.6V97.3c0-4.2,3.4-7.6,7.6-7.6l0,0c4.2,0,7.6,3.4,7.6,7.6v132.9
		C42.3,234.4,38.9,237.8,34.7,237.8z"/>
	<path class="st1" d="M122.9,240.5L122.9,240.5c-4.2,0-7.6-3.4-7.6-7.6V101.7c0-4.2,3.4-7.6,7.6-7.6l0,0c4.2,0,7.6,3.4,7.6,7.6
		v131.2C130.5,237.1,127.1,240.5,122.9,240.5z"/>
	<rect x="52.3" y="195" class="st6" width="53.5" height="145"/>
	<line class="st7" x1="79.2" y1="195.5" x2="79.9" y2="340.5"/>
	<path class="st8" d="M78.8,340v20.5H44.3c0,0,1.5-14.5,20.5-14V340H78.8z"/>
	<path class="st8" d="M80.9,340v20.5h34.5c0,0-1.5-14.5-20.5-14V340H80.9z"/>
	<path class="st4" d="M62.3,37.6c0-1.7,1.4-3.2,3.2-3.2c1.7,0,3.2,1.4,3.2,3.2"/>
	<path class="st4" d="M85.9,37.6c0-1.7,1.4-3.2,3.2-3.2s3.2,1.4,3.2,3.2"/>
	<path class="st2" d="M59.3,7.8c0,0,33.4,52.2,64.6,32.1c0,0-4-0.1-7.8-5.8L107.6,9L73.3-5.3L59.3,7.8z"/>
</g>
<g id="maire">
	<path class="st9" d="M7.6,236.3L7.6,236.3c-4.2,0-7.6-3.4-7.6-7.6V95.8c0-4.2,3.4-7.6,7.6-7.6l0,0c4.2,0,7.6,3.4,7.6,7.6v132.9
		C15.2,232.9,11.8,236.3,7.6,236.3z"/>
	<path class="st9" d="M117.2,235L117.2,235c-4.2,0-7.6-3.4-7.6-7.6V94.5c0-4.2,3.4-7.6,7.6-7.6l0,0c4.2,0,7.6,3.4,7.6,7.6v132.9
		C124.8,231.6,121.3,235,117.2,235z"/>
	<rect x="56.3" y="58" class="st10" width="14.1" height="31.1"/>
	<ellipse class="st10" cx="63.3" cy="37" rx="28.8" ry="37"/>
	<ellipse class="st10" cx="32.8" cy="39.7" rx="4" ry="5.7"/>
	<ellipse class="st10" cx="92.1" cy="39.7" rx="4" ry="5.7"/>
	<polyline class="st11" points="62.1,42 57.9,49.2 62.3,49.2 	"/>
	<rect x="0.4" y="237.3" class="st10" width="10.8" height="17.5"/>
	<rect x="11.9" y="237.3" class="st10" width="3.4" height="9.8"/>
	<rect x="113.9" y="236.3" class="st10" width="10.8" height="17.5"/>
	<rect x="109.7" y="236.3" class="st10" width="3.4" height="9.8"/>
	<path class="st11" d="M46.8,37.6c0-1.7,1.4-3.2,3.2-3.2s3.2,1.4,3.2,3.2"/>
	<path class="st11" d="M70.4,37.6c0-1.7,1.4-3.2,3.2-3.2s3.2,1.4,3.2,3.2"/>
	<path class="st12" d="M57.3,350.2h-2c-3.3,0-6-2.7-6-6v-81.9c0-3.3,2.7-6,6-6h2c3.3,0,6,2.7,6,6v81.9
		C63.3,347.5,60.6,350.2,57.3,350.2z"/>
	<path class="st12" d="M73.4,350.2h-2c-3.3,0-6-2.7-6-6v-81.9c0-3.3,2.7-6,6-6h2c3.3,0,6,2.7,6,6v81.9
		C79.4,347.5,76.7,350.2,73.4,350.2z"/>
	<polygon points="82.6,334 46,334 36.8,195 90.3,195 	"/>
	<polygon class="st9" points="49.3,340 63.3,340 63.3,360.5 28.8,360.5 17.9,360.5 49.2,350.2 	"/>
	<polygon class="st9" points="79.4,340 65.4,340 65.4,360.5 99.8,360.5 110.7,360.5 79.4,350.2 	"/>
	<line class="st13" x1="63.6" y1="195.5" x2="64.4" y2="340.5"/>
	<polygon class="st9" points="99.8,223 26.6,223 16.3,89.1 108.3,89.1 	"/>
	<polygon class="st14" points="37.9,89.6 29,98 42.4,102.3 27.7,113.1 63.2,166.2 48.7,89.6 	"/>
	<polygon class="st14" points="88.8,89.6 97.7,98 84.3,102.3 98.9,113.1 63.2,166.2 78.6,89.6 	"/>
	<circle class="st15" cx="63.3" cy="181.5" r="1.8"/>
	<circle class="st15" cx="63.3" cy="173.3" r="1.8"/>
	<path class="st16" d="M54,41h-8.1c-2.7,0-4.9-2.2-4.9-4.9l0,0c0-2.7,2.2-4.9,4.9-4.9H54c2.7,0,4.9,2.2,4.9,4.9l0,0
		C58.9,38.8,56.7,41,54,41z"/>
	<path class="st16" d="M77.6,41h-8.1c-2.7,0-4.9-2.2-4.9-4.9l0,0c0-2.7,2.2-4.9,4.9-4.9h8.1c2.7,0,4.9,2.2,4.9,4.9l0,0
		C82.5,38.8,80.3,41,77.6,41z"/>
	<path class="st16" d="M58.9,36.7c0-1.6,1.3-1.4,2.9-1.4s2.9-0.1,2.9,1.4"/>
	<line class="st16" x1="41" y1="36.1" x2="34.6" y2="33.6"/>
	<path class="st17" d="M85.2,14.2H58.8c0,0-23.8,0.5-23.8-13.3L46.4,2l-3-3.3h9.9C53.2-1.2,81.1-2.4,85.2,14.2z"/>
	<path class="st17" d="M43.7,10.4c-3.9,3.1-7.2,13.2-7.2,13.2s7.4-10.9,13-11.3L43.7,10.4z"/>
	<path class="st17" d="M82.8,10c3.9,3.1,7.2,13.2,7.2,13.2s-7.4-10.9-13-11.3L82.8,10z"/>
	<line class="st16" x1="82.5" y1="36.1" x2="91.9" y2="33.1"/>
	<polygon class="st18" points="48.9,89.1 78.8,89.1 63.3,165.8 	"/>
	<rect x="57.5" y="89.1" class="st19" width="11.6" height="4.1"/>
	<rect x="59" y="93.6" class="st19" width="8.7" height="64.8"/>
	<path class="st20" d="M21,89.1c0,0,0.3,70.2,80.4,108.6l1.7-25.2c0,0-54.3-27.7-59.9-83.5L21,89.1z"/>
	<g>
		<g>
			<defs>
				<path id="SVGID_1_" d="M21,89.1c0,0,0.3,70.2,80.4,108.6l1.7-25.2c0,0-54.3-27.7-59.9-83.5L21,89.1z"/>
			</defs>
			<clipPath id="SVGID_2_">
				<use xlink:href="#SVGID_1_"  style="overflow:visible;"/>
			</clipPath>
			<path class="st21" d="M27.7,82.7c0,0-1.1,74.6,79.3,108.5l4.8-11.8L40.1,77.7L27.7,82.7z"/>
		</g>
	</g>
	<g>
		<g>
			<defs>
				<path id="SVGID_3_" d="M21,89.1c0,0,0.3,70.2,80.4,108.6l1.7-25.2c0,0-54.3-27.7-59.9-83.5L21,89.1z"/>
			</defs>
			<clipPath id="SVGID_4_">
				<use xlink:href="#SVGID_3_"  style="overflow:visible;"/>
			</clipPath>
			<path class="st22" d="M35.3,83.8c0,0,1.7,67.5,68.9,97.5l3.9-8L45,83.8H35.3z"/>
		</g>
	</g>
</g>
<g id="homme" class="st0">
	<path class="st23" d="M96.7,195H27.9v-92.3c0-7.5,6.1-13.6,13.6-13.6h41.2c7.7,0,14,6.3,14,14V195z"/>
	<rect x="55.5" y="58" class="st3" width="14.1" height="31.1"/>
	<ellipse class="st3" cx="62.5" cy="37" rx="28.8" ry="37"/>
	<ellipse class="st3" cx="31.9" cy="39.7" rx="4" ry="5.7"/>
	<ellipse class="st3" cx="91.2" cy="39.7" rx="4" ry="5.7"/>
	<polyline class="st4" points="61.3,42 57,49.2 61.5,49.2 	"/>
	<rect x="10.7" y="238.8" class="st3" width="10.8" height="17.5"/>
	<rect x="22.2" y="238.8" class="st3" width="3.4" height="9.8"/>
	<rect x="103.3" y="241.4" class="st3" width="10.8" height="17.5"/>
	<rect x="99" y="241.4" class="st3" width="3.4" height="9.8"/>
	<path class="st4" d="M45.9,37.6c0-1.7,1.4-3.2,3.2-3.2s3.2,1.4,3.2,3.2"/>
	<path class="st4" d="M69.5,37.6c0-1.7,1.4-3.2,3.2-3.2s3.2,1.4,3.2,3.2"/>
	<path class="st1" d="M56.4,350.2h-2c-3.3,0-6-2.7-6-6v-81.9c0-3.3,2.7-6,6-6h2c3.3,0,6,2.7,6,6v81.9
		C62.4,347.5,59.7,350.2,56.4,350.2z"/>
	<path class="st1" d="M72.5,350.2h-2c-3.3,0-6-2.7-6-6v-81.9c0-3.3,2.7-6,6-6h2c3.3,0,6,2.7,6,6v81.9
		C78.6,347.5,75.9,350.2,72.5,350.2z"/>
	<polygon class="st24" points="84.1,334 42.4,334 35.9,195 89.4,195 	"/>
	<path class="st8" d="M62.4,340v20.5H27.9c0,0,1.5-14.5,20.5-14V340H62.4z"/>
	<line class="st7" x1="62.8" y1="195.5" x2="63.5" y2="340.5"/>
	<path class="st8" d="M64.5,340v20.5H99c0,0-1.5-14.5-20.5-14V340H64.5z"/>
	<path class="st3" d="M18.3,237.8L18.3,237.8c-2.8,0-5.2-2.3-5.2-5.2v-95.1c0-2.8,2.3-5.2,5.2-5.2l0,0c2.8,0,5.2,2.3,5.2,5.2v95.1
		C23.5,235.5,21.1,237.8,18.3,237.8z"/>
	<path class="st3" d="M106.5,240.5L106.5,240.5c-2.8,0-5.2-2.3-5.2-5.2v-99.8c0-2.8,2.3-5.2,5.2-5.2l0,0c2.8,0,5.2,2.3,5.2,5.2v99.8
		C111.7,238.2,109.4,240.5,106.5,240.5z"/>
	<path class="st23" d="M25.9,142.1V98.6c0-4.9-3.4-8.9-7.6-8.9l0,0c-4.2,0-7.6,4-7.6,8.9v43.5H25.9z"/>
	<path class="st23" d="M98.9,137.1V98.2c0-5,3.4-9,7.6-9l0,0c4.2,0,7.6,4.1,7.6,9v38.9"/>
	<path class="st8" d="M86.4,16.5H57c0,0-26.6,0.8-26.6-20.2L43.1-2l-3.3-5h11C50.8-7,81.9-8.7,86.4,16.5z"/>
	<path class="st8" d="M84.3,16.5l-0.2,23.9h3.7v-4.9c0,0,1.7-2.5,3.4-1.6c0,0-0.7-11.3-4.8-17.5L84.3,16.5z"/>
	<path class="st8" d="M40.4,12.1l-0.1,28.2l-4,0.1l-0.3-5c0,0,0-1.8-2.2-0.6c0,0,0.8-14.7,6-22.5h0.6V12.1z"/>
</g>
</svg>
