<?xml version="1.0" encoding="utf-8"?>
<!-- Generator: Adobe Illustrator 17.0.0, SVG Export Plug-In . SVG Version: 6.00 Build 0)  -->
<!DOCTYPE svg PUBLIC "-//W3C//DTD SVG 1.1//EN" "http://www.w3.org/Graphics/SVG/1.1/DTD/svg11.dtd">
<svg version="1.1" xmlns="http://www.w3.org/2000/svg" xmlns:xlink="http://www.w3.org/1999/xlink" x="0px" y="0px" width="243px"
	 height="441px" viewBox="0 0 243 441" style="enable-background:new 0 0 243 441;" xml:space="preserve">
<style type="text/css">
	.st0{display:none;}
	.st1{display:inline;fill:#FF5949;}
	.st2{display:inline;fill:#F75B35;}
	.st3{display:inline;fill:#FFD3CF;}
	.st4{display:inline;fill:none;stroke:#1D1D1B;stroke-linecap:round;stroke-linejoin:round;stroke-miterlimit:10;}
	.st5{display:inline;fill:#FFFFFF;}
	.st6{display:inline;fill:#FFE02F;}
	.st7{display:inline;fill:none;stroke:#FFFFFF;stroke-width:2;stroke-miterlimit:10;}
	.st8{display:inline;fill:#1D1D1B;}
	.st9{fill:#1D1D1B;}
	.st10{fill:#FFD3CF;}
	.st11{fill:none;stroke:#1D1D1B;stroke-linecap:round;stroke-linejoin:round;stroke-miterlimit:10;}
	.st12{fill:#26219B;}
	.st13{fill:none;stroke:#FFFFFF;stroke-width:2;stroke-miterlimit:10;}
	.st14{fill:none;stroke:#575756;stroke-linecap:round;stroke-linejoin:round;stroke-miterlimit:10;}
	.st15{fill:#575756;}
	.st16{fill:none;stroke:#2D2E81;stroke-linecap:round;stroke-linejoin:round;stroke-miterlimit:10;}
	.st17{fill:#706F6F;}
	.st18{fill:#A9D7F7;}
	.st19{fill:#29235C;}
	.st20{fill:#3266BA;}
	.st21{clip-path:url(#SVGID_2_);fill:#FFFFFF;}
	.st22{clip-path:url(#SVGID_4_);fill:#DD2626;}
	.st23{display:inline;fill:#11D3D3;}
	.st24{display:inline;fill:#003072;}
</style>
<g id="Calque_1" class="st0">
	<path class="st1" d="M174.2,233h-68.8v-92.3c0-7.5,6.1-13.6,13.6-13.6h41.2c7.7,0,14,6.3,14,14V233z"/>
	<path class="st2" d="M177.4,113.3V66.1c0-20.7-16.9-37.6-37.6-37.6h0c-20.7,0-37.6,16.9-37.6,37.6v47.3H177.4z"/>
	<rect x="133" y="96" class="st3" width="14.1" height="31.7"/>
	<ellipse class="st3" cx="140" cy="75" rx="28.8" ry="37"/>
	<ellipse class="st3" cx="109.4" cy="77.7" rx="4" ry="5.7"/>
	<polyline class="st4" points="138.8,80 134.5,87.2 139,87.2 	"/>
	<circle class="st5" cx="140" cy="154.6" r="3.6"/>
	<circle class="st5" cx="140" cy="168.4" r="3.6"/>
	<rect x="88.2" y="276.8" class="st3" width="10.8" height="17.5"/>
	<rect x="99.7" y="276.8" class="st3" width="3.4" height="9.8"/>
	<rect x="180.8" y="279.4" class="st3" width="10.8" height="17.5"/>
	<rect x="176.5" y="279.4" class="st3" width="3.4" height="9.8"/>
	<path class="st1" d="M95.8,275.8L95.8,275.8c-4.2,0-7.6-3.4-7.6-7.6V135.3c0-4.2,3.4-7.6,7.6-7.6h0c4.2,0,7.6,3.4,7.6,7.6v132.9
		C103.4,272.4,100,275.8,95.8,275.8z"/>
	<path class="st1" d="M184,278.5L184,278.5c-4.2,0-7.6-3.4-7.6-7.6V139.7c0-4.2,3.4-7.6,7.6-7.6h0c4.2,0,7.6,3.4,7.6,7.6v131.2
		C191.6,275.1,188.2,278.5,184,278.5z"/>
	<rect x="113.4" y="233" class="st6" width="53.5" height="145"/>
	<line class="st7" x1="140.3" y1="233.5" x2="141" y2="378.5"/>
	<path class="st8" d="M139.9,378v20.5h-34.5c0,0,1.5-14.5,20.5-14V378H139.9z"/>
	<path class="st8" d="M142,378v20.5h34.5c0,0-1.5-14.5-20.5-14V378H142z"/>
	<path class="st4" d="M123.4,75.6c0-1.7,1.4-3.2,3.2-3.2c1.7,0,3.2,1.4,3.2,3.2"/>
	<path class="st4" d="M147,75.6c0-1.7,1.4-3.2,3.2-3.2s3.2,1.4,3.2,3.2"/>
	<path class="st2" d="M120.4,45.8c0,0,33.4,52.2,64.6,32.1c0,0-4-0.1-7.8-5.8L168.7,47l-34.3-14.3L120.4,45.8z"/>
</g>
<g id="Calque_2" class="st0">
</g>
<g id="maire">
	<path class="st9" d="M68.7,274.3L68.7,274.3c-4.2,0-7.6-3.4-7.6-7.6V133.8c0-4.2,3.4-7.6,7.6-7.6h0c4.2,0,7.6,3.4,7.6,7.6v132.9
		C76.3,270.9,72.9,274.3,68.7,274.3z"/>
	<path class="st9" d="M178.3,273L178.3,273c-4.2,0-7.6-3.4-7.6-7.6V132.5c0-4.2,3.4-7.6,7.6-7.6h0c4.2,0,7.6,3.4,7.6,7.6v132.9
		C185.9,269.6,182.4,273,178.3,273z"/>
	<rect x="117.4" y="96" class="st10" width="14.1" height="31.1"/>
	<ellipse class="st10" cx="124.4" cy="75" rx="28.8" ry="37"/>
	<ellipse class="st10" cx="93.9" cy="77.7" rx="4" ry="5.7"/>
	<ellipse class="st10" cx="153.2" cy="77.7" rx="4" ry="5.7"/>
	<polyline class="st11" points="123.2,80 119,87.2 123.4,87.2 	"/>
	<rect x="61.5" y="275.3" class="st10" width="10.8" height="17.5"/>
	<rect x="73" y="275.3" class="st10" width="3.4" height="9.8"/>
	<rect x="175" y="274.3" class="st10" width="10.8" height="17.5"/>
	<rect x="170.8" y="274.3" class="st10" width="3.4" height="9.8"/>
	<path class="st11" d="M107.9,75.6c0-1.7,1.4-3.2,3.2-3.2s3.2,1.4,3.2,3.2"/>
	<path class="st11" d="M131.5,75.6c0-1.7,1.4-3.2,3.2-3.2s3.2,1.4,3.2,3.2"/>
	<path class="st12" d="M118.4,388.2h-2c-3.3,0-6-2.7-6-6v-81.9c0-3.3,2.7-6,6-6h2c3.3,0,6,2.7,6,6v81.9
		C124.4,385.5,121.7,388.2,118.4,388.2z"/>
	<path class="st12" d="M134.5,388.2h-2c-3.3,0-6-2.7-6-6v-81.9c0-3.3,2.7-6,6-6h2c3.3,0,6,2.7,6,6v81.9
		C140.5,385.5,137.8,388.2,134.5,388.2z"/>
	<polygon points="143.7,372 107.1,372 97.9,233 151.4,233 	"/>
	<polygon class="st9" points="110.4,378 124.4,378 124.4,398.5 89.9,398.5 79,398.5 110.3,388.2 	"/>
	<polygon class="st9" points="140.5,378 126.5,378 126.5,398.5 160.9,398.5 171.8,398.5 140.5,388.2 	"/>
	<line class="st13" x1="124.7" y1="233.5" x2="125.5" y2="378.5"/>
	<polygon class="st9" points="160.9,261 87.7,261 77.4,127.1 169.4,127.1 	"/>
	<polygon class="st14" points="99,127.6 90.1,136 103.5,140.3 88.8,151.1 124.3,204.2 109.8,127.6 	"/>
	<polygon class="st14" points="149.9,127.6 158.8,136 145.4,140.3 160,151.1 124.3,204.2 139.7,127.6 	"/>
	<circle class="st15" cx="124.4" cy="219.5" r="1.8"/>
	<circle class="st15" cx="124.4" cy="211.3" r="1.8"/>
	<path class="st16" d="M115.1,79H107c-2.7,0-4.9-2.2-4.9-4.9v0c0-2.7,2.2-4.9,4.9-4.9h8.1c2.7,0,4.9,2.2,4.9,4.9v0
		C120,76.8,117.8,79,115.1,79z"/>
	<path class="st16" d="M138.7,79h-8.1c-2.7,0-4.9-2.2-4.9-4.9v0c0-2.7,2.2-4.9,4.9-4.9h8.1c2.7,0,4.9,2.2,4.9,4.9v0
		C143.6,76.8,141.4,79,138.7,79z"/>
	<path class="st16" d="M120,74.7c0-1.6,1.3-1.4,2.9-1.4s2.9-0.1,2.9,1.4"/>
	<line class="st16" x1="102.1" y1="74.1" x2="95.7" y2="71.6"/>
	<path class="st17" d="M146.3,52.2h-26.4c0,0-23.8,0.5-23.8-13.3l11.4,1.1l-3-3.3h9.9C114.3,36.8,142.2,35.6,146.3,52.2z"/>
	<path class="st17" d="M104.8,48.4c-3.9,3.1-7.2,13.2-7.2,13.2s7.4-10.9,13-11.3L104.8,48.4z"/>
	<path class="st17" d="M143.9,48c3.9,3.1,7.2,13.2,7.2,13.2s-7.4-10.9-13-11.3L143.9,48z"/>
	<line class="st16" x1="143.6" y1="74.1" x2="153" y2="71.1"/>
	<polygon class="st18" points="110,127.1 139.9,127.1 124.4,203.8 	"/>
	<rect x="118.6" y="127.1" class="st19" width="11.6" height="4.1"/>
	<rect x="120.1" y="131.6" class="st19" width="8.7" height="64.8"/>
	<path class="st20" d="M82.1,127.1c0,0,0.3,70.2,80.4,108.6l1.7-25.2c0,0-54.3-27.7-59.9-83.5L82.1,127.1z"/>
	<g>
		<defs>
			<path id="SVGID_1_" d="M82.1,127.1c0,0,0.3,70.2,80.4,108.6l1.7-25.2c0,0-54.3-27.7-59.9-83.5L82.1,127.1z"/>
		</defs>
		<clipPath id="SVGID_2_">
			<use xlink:href="#SVGID_1_"  style="overflow:visible;"/>
		</clipPath>
		<path class="st21" d="M88.8,120.7c0,0-1.1,74.6,79.3,108.5l4.8-11.8l-71.7-101.7L88.8,120.7z"/>
	</g>
	<g>
		<defs>
			<path id="SVGID_3_" d="M82.1,127.1c0,0,0.3,70.2,80.4,108.6l1.7-25.2c0,0-54.3-27.7-59.9-83.5L82.1,127.1z"/>
		</defs>
		<clipPath id="SVGID_4_">
			<use xlink:href="#SVGID_3_"  style="overflow:visible;"/>
		</clipPath>
		<path class="st22" d="M96.4,121.8c0,0,1.7,67.5,68.9,97.5l3.9-8l-63.1-89.5H96.4z"/>
	</g>
</g>
<g id="fille" class="st0">
</g>
<g id="homme" class="st0">
	<path class="st23" d="M157.8,233H89v-92.3c0-7.5,6.1-13.6,13.6-13.6h41.2c7.7,0,14,6.3,14,14V233z"/>
	<rect x="116.6" y="96" class="st3" width="14.1" height="31.1"/>
	<ellipse class="st3" cx="123.6" cy="75" rx="28.8" ry="37"/>
	<ellipse class="st3" cx="93" cy="77.7" rx="4" ry="5.7"/>
	<ellipse class="st3" cx="152.3" cy="77.7" rx="4" ry="5.7"/>
	<polyline class="st4" points="122.4,80 118.1,87.2 122.6,87.2 	"/>
	<rect x="71.8" y="276.8" class="st3" width="10.8" height="17.5"/>
	<rect x="83.3" y="276.8" class="st3" width="3.4" height="9.8"/>
	<rect x="164.4" y="279.4" class="st3" width="10.8" height="17.5"/>
	<rect x="160.1" y="279.4" class="st3" width="3.4" height="9.8"/>
	<path class="st4" d="M107,75.6c0-1.7,1.4-3.2,3.2-3.2s3.2,1.4,3.2,3.2"/>
	<path class="st4" d="M130.6,75.6c0-1.7,1.4-3.2,3.2-3.2s3.2,1.4,3.2,3.2"/>
	<path class="st1" d="M117.5,388.2h-2c-3.3,0-6-2.7-6-6v-81.9c0-3.3,2.7-6,6-6h2c3.3,0,6,2.7,6,6v81.9
		C123.5,385.5,120.8,388.2,117.5,388.2z"/>
	<path class="st1" d="M133.6,388.2h-2c-3.3,0-6-2.7-6-6v-81.9c0-3.3,2.7-6,6-6h2c3.3,0,6,2.7,6,6v81.9
		C139.7,385.5,137,388.2,133.6,388.2z"/>
	<polygon class="st24" points="145.2,372 103.5,372 97,233 150.5,233 	"/>
	<path class="st8" d="M123.5,378v20.5H89c0,0,1.5-14.5,20.5-14V378H123.5z"/>
	<line class="st7" x1="123.9" y1="233.5" x2="124.6" y2="378.5"/>
	<path class="st8" d="M125.6,378v20.5h34.5c0,0-1.5-14.5-20.5-14V378H125.6z"/>
	<path class="st3" d="M79.4,275.8L79.4,275.8c-2.8,0-5.2-2.3-5.2-5.2v-95.1c0-2.8,2.3-5.2,5.2-5.2h0c2.8,0,5.2,2.3,5.2,5.2v95.1
		C84.6,273.5,82.2,275.8,79.4,275.8z"/>
	<path class="st3" d="M167.6,278.5L167.6,278.5c-2.8,0-5.2-2.3-5.2-5.2v-99.8c0-2.8,2.3-5.2,5.2-5.2l0,0c2.8,0,5.2,2.3,5.2,5.2v99.8
		C172.8,276.2,170.5,278.5,167.6,278.5z"/>
	<path class="st23" d="M87,180.1v-43.5c0-4.9-3.4-8.9-7.6-8.9h0c-4.2,0-7.6,4-7.6,8.9v43.5H87z"/>
	<path class="st23" d="M160,175.1v-38.9c0-5,3.4-9,7.6-9h0c4.2,0,7.6,4.1,7.6,9v38.9"/>
	<path class="st8" d="M147.5,54.5h-29.4c0,0-26.6,0.8-26.6-20.2l12.7,1.7l-3.3-5h11C111.9,31,143,29.3,147.5,54.5z"/>
	<path class="st8" d="M147.5,54.5"/>
	<path class="st8" d="M145.4,54.5l-0.2,23.9h3.7v-4.9c0,0,1.7-2.5,3.4-1.6c0,0-0.7-11.3-4.8-17.5L145.4,54.5z"/>
	<path class="st8" d="M101.5,50.1l-0.1,28.2l-4,0.1l-0.3-5c0,0,0-1.8-2.2-0.6c0,0,0.8-14.7,6-22.5H101.5z"/>
</g>
</svg>
