<?xml version="1.0" encoding="utf-8"?>
<!-- Generator: Adobe Illustrator 21.0.0, SVG Export Plug-In . SVG Version: 6.00 Build 0)  -->
<svg version="1.1" xmlns="http://www.w3.org/2000/svg" xmlns:xlink="http://www.w3.org/1999/xlink" x="0px" y="0px"
	 viewBox="0 0 1197.2 516" style="enable-background:new 0 0 1197.2 516;" xml:space="preserve">
<style type="text/css">
	.st0{fill:#0E97E7;}
	.st1{fill:#FFFFFF;}
	.st2{fill:none;stroke:#FFFFFF;stroke-width:18;stroke-miterlimit:10;}
	.st3{fill:none;stroke:#FFFFFF;stroke-width:5;stroke-miterlimit:10;}
	.st4{opacity:0.5;fill:none;stroke:#000000;stroke-width:1.5;stroke-miterlimit:10;}
	.st5{fill:none;stroke:#000000;stroke-width:8;stroke-miterlimit:10;}
	.st6{fill:#4F4F4F;}
	.st7{fill:none;stroke:#FFFFFF;stroke-width:16;stroke-miterlimit:10;}
	.st8{fill:none;stroke:#DF0920;stroke-width:18;stroke-miterlimit:10;}
	.st9{fill:none;stroke:#3E4098;stroke-width:18;stroke-miterlimit:10;}
	.st10{fill:#3E4098;}
	.st11{fill:none;stroke:#59C24F;stroke-width:18;stroke-miterlimit:10;}
	.st12{fill:none;}
</style>
<g id="Home_x5F_Claire_x5F_Juglair_x5F_St_x5F_Nazaire_xA0_Image_1_">
</g>
<g id="Calque_3">
</g>
<g id="bulles">
	<g>
		<g>
			<path class="st1" d="M191.5,288.2c0-7.1-2.9-12.9-8.6-17.2c-5.7-4.3-14.4-7.7-25.9-10.2c-11.6-2.4-20.5-5.3-26.9-8.4
				c-6.4-3.2-11.1-7-14.2-11.6c-3.1-4.6-4.6-10.1-4.6-16.6c0-10.3,4.3-18.8,12.9-25.5c8.6-6.7,19.6-10.1,33-10.1
				c14.5,0,26.2,3.6,35,10.8c8.8,7.2,13.2,16.5,13.2,28.1h-14.4c0-7.6-3.2-14-9.6-19c-6.4-5.1-14.4-7.6-24.1-7.6
				c-9.5,0-17.1,2.1-22.8,6.3c-5.7,4.2-8.6,9.7-8.6,16.4c0,6.5,2.4,11.5,7.2,15.1c4.8,3.6,13.5,6.8,26.1,9.8
				c12.6,3,22.1,6.1,28.4,9.5c6.3,3.4,11,7.4,14,12.2c3,4.7,4.6,10.5,4.6,17.2c0,11-4.4,19.8-13.3,26.4c-8.9,6.6-20.4,9.9-34.7,9.9
				c-15.2,0-27.5-3.7-36.9-11c-9.4-7.3-14.1-16.6-14.1-27.9h14.4c0.6,8.4,4.1,15,10.7,19.7c6.5,4.7,15.2,7,25.9,7
				c10,0,18.1-2.2,24.3-6.6C188.4,300.5,191.5,294.9,191.5,288.2z"/>
			<path class="st1" d="M322.1,304.8c-8.7,12.6-22.5,18.9-41.5,18.9c-13.9,0-24.4-4-31.7-12.1c-7.2-8.1-10.9-20-11.1-35.8V191h14.3
				V274c0,24.8,10,37.2,30.1,37.2c20.9,0,34.1-8.6,39.6-25.9V191h14.4v130.2h-14L322.1,304.8z"/>
			<path class="st1" d="M372.9,153.4c0-2.7,0.9-5,2.6-6.9c1.8-1.9,4.2-2.8,7.2-2.8c3,0,5.5,0.9,7.3,2.8c1.8,1.9,2.7,4.2,2.7,6.9
				c0,2.7-0.9,5-2.7,6.8c-1.8,1.8-4.2,2.8-7.3,2.8c-3.1,0-5.5-0.9-7.2-2.8C373.8,158.4,372.9,156.1,372.9,153.4z M389.9,321.3h-14.4
				V191h14.4V321.3z"/>
			<path class="st1" d="M469.6,301.4L509.2,191H524l-48.6,130.2h-11.7L414.8,191h14.8L469.6,301.4z"/>
			<path class="st1" d="M628,321.3c-1.4-4.1-2.4-10.2-2.8-18.2c-5.1,6.6-11.5,11.7-19.3,15.2c-7.8,3.6-16.1,5.4-24.9,5.4
				c-12.5,0-22.6-3.5-30.4-10.5c-7.7-7-11.6-15.8-11.6-26.5c0-12.7,5.3-22.7,15.8-30.1c10.6-7.4,25.3-11.1,44.1-11.1h26.1v-14.8
				c0-9.3-2.9-16.6-8.6-22c-5.7-5.3-14.1-8-25.1-8c-10,0-18.3,2.6-24.9,7.7c-6.6,5.1-9.9,11.3-9.9,18.5l-14.4-0.1
				c0-10.4,4.8-19.3,14.4-26.9c9.6-7.6,21.5-11.4,35.5-11.4c14.5,0,26,3.6,34.4,10.9c8.4,7.3,12.7,17.4,12.9,30.4v61.6
				c0,12.6,1.3,22,4,28.3v1.4H628z M582.7,310.9c9.6,0,18.2-2.3,25.8-7c7.6-4.7,13.1-10.9,16.6-18.7v-28.6h-25.8
				c-14.4,0.2-25.6,2.8-33.7,7.9c-8.1,5.1-12.2,12.1-12.2,21c0,7.3,2.7,13.4,8.1,18.2C567,308.5,574,310.9,582.7,310.9z"/>
			<path class="st1" d="M691.5,191l0.5,22.3c4.9-8,11-14.1,18.3-18.4c7.3-4.2,15.4-6.3,24.2-6.3c14,0,24.4,3.9,31.2,11.8
				c6.8,7.9,10.3,19.7,10.4,35.4v85.5h-14.3v-85.6c-0.1-11.6-2.5-20.3-7.4-26c-4.9-5.7-12.6-8.5-23.3-8.5c-8.9,0-16.8,2.8-23.7,8.4
				c-6.9,5.6-11.9,13.1-15.2,22.6v89.2h-14.3V191H691.5z"/>
			<path class="st1" d="M835.6,157.7V191h27v11.8h-27v86.9c0,7.2,1.3,12.6,3.9,16.1c2.6,3.5,7,5.3,13.1,5.3c2.4,0,6.3-0.4,11.7-1.2
				l0.6,11.7c-3.8,1.4-8.9,2-15.4,2c-9.9,0-17.1-2.9-21.5-8.6c-4.5-5.7-6.7-14.2-6.7-25.3v-86.9h-24V191h24v-33.3H835.6z"/>
		</g>
		<g>
			<g>
				<line class="st3" x1="914" y1="261.6" x2="1084.2" y2="261.6"/>
				<g>
					<polygon class="st1" points="1080.5,274.1 1102.1,261.6 1080.5,249.2 					"/>
				</g>
			</g>
		</g>
		<path class="st3" d="M1189.8,145.7c0-34.3-27.8-62.1-62.1-62.1H63.1C28.8,83.6,1,111.4,1,145.7v215.4c0,34.3,27.8,62.1,62.1,62.1
			h1064.5c34.3,0,62.1-27.8,62.1-62.1V145.7z"/>
	</g>
</g>
</svg>
