<?xml version="1.0" encoding="utf-8"?>
<!-- Generator: Adobe Illustrator 17.0.0, SVG Export Plug-In . SVG Version: 6.00 Build 0)  -->
<!DOCTYPE svg PUBLIC "-//W3C//DTD SVG 1.1//EN" "http://www.w3.org/Graphics/SVG/1.1/DTD/svg11.dtd">
<svg version="1.1" id="Calque_1" xmlns="http://www.w3.org/2000/svg" xmlns:xlink="http://www.w3.org/1999/xlink" x="0px" y="0px"
	 width="1417.3px" height="850.4px" viewBox="0 0 1417.3 850.4" style="enable-background:new 0 0 1417.3 850.4;"
	 xml:space="preserve">
<style type="text/css">
	.st0{enable-background:new    ;}
	.st1{fill:#FFFFFF;}
</style>
<g>
	<g class="st0">
		<path class="st1" d="M555,417.6c-0.9-1.7-2.1-3.1-3.6-4.1c-1.5-1-3.3-1.5-5.5-1.5c-1,0-2.1,0.1-3.1,0.4c-1.1,0.2-2,0.6-2.8,1.1
			c-0.8,0.5-1.5,1.2-2,1.9c-0.5,0.8-0.8,1.7-0.8,2.9c0,2,0.7,3.4,2.1,4.3c1.4,0.9,3.5,1.7,6.2,2.3l6,1.4c2.9,0.7,5.4,2,7.3,4
			c1.9,2,2.9,4.5,2.9,7.5c0,2.3-0.5,4.2-1.4,5.9c-0.9,1.7-2.2,3-3.7,4.1c-1.5,1-3.3,1.8-5.3,2.3c-2,0.5-4,0.7-6,0.7
			c-3.2,0-6.3-0.6-9-1.8c-2.8-1.2-5.2-3.3-7.2-6.3l5.1-3.5c1.2,1.9,2.7,3.5,4.5,4.6c1.8,1.1,4,1.7,6.5,1.7c1.2,0,2.4-0.1,3.6-0.4
			c1.2-0.3,2.3-0.7,3.2-1.3c0.9-0.6,1.7-1.3,2.2-2.2c0.6-0.9,0.9-1.9,0.9-3.1c0-2.1-0.8-3.6-2.3-4.5c-1.6-0.9-3.5-1.7-5.7-2.2
			l-5.8-1.4c-0.7-0.2-1.7-0.5-2.9-0.9c-1.2-0.4-2.4-1-3.6-1.9c-1.2-0.8-2.2-1.9-3-3.3c-0.8-1.4-1.3-3-1.3-5c0-2.2,0.4-4,1.3-5.7
			c0.9-1.6,2-2.9,3.5-4c1.5-1,3.1-1.8,5-2.3c1.9-0.5,3.8-0.8,5.8-0.8c2.9,0,5.7,0.6,8.2,1.7c2.5,1.1,4.5,3.1,5.9,5.9L555,417.6z"/>
		<path class="st1" d="M601.5,449.8c-0.1-1.1-0.2-2.3-0.2-3.4c0-1.1,0-2.2,0-3.4H601c-0.7,1.1-1.5,2.2-2.5,3.2c-1,1-2.2,1.8-3.4,2.5
			c-1.3,0.7-2.6,1.2-4,1.6c-1.4,0.4-2.8,0.6-4.2,0.6c-5.4,0-9.4-1.4-12-4.3c-2.6-2.8-3.9-6.9-3.9-12.2v-26.7h5.9V431
			c0,2.3,0.2,4.4,0.5,6.2c0.4,1.8,1,3.3,1.8,4.5c0.9,1.2,2,2.2,3.5,2.8c1.5,0.6,3.3,0.9,5.5,0.9c0.3,0,1.1-0.1,2.5-0.4
			c1.4-0.2,2.8-0.9,4.4-2c1.5-1.1,2.9-2.7,4.1-4.9c1.2-2.2,1.8-5.2,1.8-9v-21.6h5.9v32.9c0,1.1,0,2.6,0.1,4.3c0.1,1.7,0.2,3.4,0.3,5
			H601.5z"/>
		<path class="st1" d="M629.7,391.4c0,1.3-0.5,2.3-1.4,3.1c-0.9,0.8-1.9,1.2-3,1.2s-2.1-0.4-3-1.2c-0.9-0.8-1.4-1.8-1.4-3.1
			c0-1.3,0.5-2.3,1.4-3.1c0.9-0.8,1.9-1.2,3-1.2s2.1,0.4,3,1.2C629.3,389.2,629.7,390.2,629.7,391.4z M628.4,449.8h-5.9v-42.1h5.9
			V449.8z"/>
		<path class="st1" d="M661.2,449.8h-6.7l-17.1-42.1h7l13.5,35.5h0.2l13.4-35.5h6.8L661.2,449.8z"/>
		<path class="st1" d="M713.1,423.9v-1.1c0-7.3-3.6-10.9-10.8-10.9c-4.9,0-9.2,1.7-12.9,5l-3.6-4.2c4-4.1,9.9-6.1,17.8-6.1
			c2,0,4,0.3,5.9,0.9c1.9,0.6,3.5,1.5,4.9,2.7c1.4,1.2,2.5,2.8,3.3,4.6c0.8,1.9,1.3,4.1,1.3,6.7v18.8c0,1.6,0.1,3.3,0.2,5.1
			c0.1,1.8,0.3,3.2,0.5,4.4H714c-0.2-1-0.3-2.1-0.4-3.3c-0.1-1.2-0.1-2.4-0.1-3.5h-0.2c-1.7,2.8-3.8,4.8-6.2,6.1
			c-2.4,1.2-5.3,1.8-8.7,1.8c-1.9,0-3.7-0.3-5.4-0.8c-1.7-0.5-3.3-1.3-4.6-2.3c-1.4-1-2.4-2.3-3.2-3.9c-0.8-1.5-1.2-3.3-1.2-5.4
			c0-3.4,0.9-6.1,2.7-8.1c1.8-1.9,4-3.4,6.7-4.4c2.7-1,5.5-1.6,8.6-1.8c3-0.2,5.8-0.4,8.3-0.4H713.1z M710,428.8
			c-1.5,0-3.4,0.1-5.6,0.2c-2.2,0.2-4.4,0.5-6.5,1.1c-2.1,0.6-3.8,1.5-5.3,2.7c-1.5,1.2-2.2,2.9-2.2,5c0,1.4,0.3,2.6,0.9,3.6
			c0.6,1,1.3,1.8,2.3,2.4c1,0.6,2,1.1,3.2,1.4c1.2,0.3,2.4,0.4,3.6,0.4c2.2,0,4-0.4,5.6-1.1c1.6-0.7,2.9-1.7,4-2.9
			c1.1-1.2,1.9-2.7,2.4-4.3s0.8-3.4,0.8-5.3v-3.1H710z"/>
		<path class="st1" d="M738.4,407.6c0.1,1.1,0.2,2.3,0.2,3.4c0,1.1,0,2.2,0,3.4h0.2c0.7-1.1,1.5-2.2,2.5-3.1c1-1,2.2-1.8,3.4-2.5
			c1.3-0.7,2.6-1.2,4-1.6c1.4-0.4,2.8-0.6,4.2-0.6c5.4,0,9.4,1.4,12,4.3c2.6,2.9,3.9,6.9,3.9,12.2v26.7h-5.9v-23.3
			c0-4.7-0.8-8.3-2.4-10.8c-1.6-2.5-4.6-3.7-9-3.7c-0.3,0-1.1,0.1-2.5,0.4c-1.4,0.2-2.8,0.9-4.4,2c-1.5,1.1-2.9,2.7-4.1,4.9
			c-1.2,2.2-1.8,5.2-1.8,9v21.6h-5.9v-32.9c0-1.1,0-2.6-0.1-4.3c-0.1-1.7-0.2-3.4-0.3-5H738.4z"/>
		<path class="st1" d="M804.6,413h-12.2v24.8c0,1.6,0.1,2.8,0.5,3.8c0.3,1,0.7,1.8,1.3,2.3s1.2,0.9,1.9,1.1c0.7,0.2,1.6,0.3,2.5,0.3
			c1,0,2.1-0.1,3.2-0.4c1.1-0.3,2.1-0.7,3-1.2l0.3,5.5c-2.2,1-4.9,1.5-8,1.5c-1.1,0-2.3-0.2-3.6-0.5c-1.2-0.3-2.4-0.9-3.4-1.7
			c-1-0.8-1.9-2-2.5-3.4c-0.7-1.4-1-3.3-1-5.7V413h-8.9v-5.4h8.9v-11.9h5.9v11.9h12.2V413z"/>
	</g>
	<g>
		<g>
			<g>
				<rect x="825.3" y="425.5" class="st1" width="50.8" height="5"/>
			</g>
			<g>
				<g>
					<polygon class="st1" points="872.4,440.5 894,428 872.4,415.5 					"/>
				</g>
			</g>
		</g>
	</g>
	<g>
		<path class="st1" d="M903.3,489.5H514.7c-13.9,0-25.2-11.3-25.2-25.2v-78.6c0-13.9,11.3-25.2,25.2-25.2h388.6
			c13.9,0,25.2,11.3,25.2,25.2v78.6C928.5,478.2,917.2,489.5,903.3,489.5z M514.7,365.5c-11.1,0-20.2,9.1-20.2,20.2v78.6
			c0,11.1,9.1,20.2,20.2,20.2h388.6c11.1,0,20.2-9.1,20.2-20.2v-78.6c0-11.1-9.1-20.2-20.2-20.2H514.7z"/>
	</g>
</g>
</svg>
