<?xml version="1.0" encoding="utf-8"?>
<!-- Generator: Adobe Illustrator 21.0.0, SVG Export Plug-In . SVG Version: 6.00 Build 0)  -->
<svg version="1.1" xmlns="http://www.w3.org/2000/svg" xmlns:xlink="http://www.w3.org/1999/xlink" x="0px" y="0px"
	 viewBox="0 0 567.2 2029.7" style="enable-background:new 0 0 567.2 2029.7;" xml:space="preserve">
<style type="text/css">
	.st0{display:none;}
	.st1{fill:#0E97E7;}
	.st2{fill:#FFFFFF;}
	.st3{fill:none;stroke:#FFFFFF;stroke-width:5;stroke-miterlimit:10;}
	.st4{opacity:0.5;fill:none;stroke:#000000;stroke-width:1.5;stroke-miterlimit:10;}
	.st5{fill:none;stroke:#000000;stroke-width:8;stroke-miterlimit:10;}
	.st6{fill:#4F4F4F;}
	.st7{fill:none;stroke:#FFFFFF;stroke-width:16;stroke-miterlimit:10;}
</style>
<g id="Home_x5F_Claire_x5F_Juglair_x5F_St_x5F_Nazaire_xA0_Image_1_" class="st0">
</g>
<g id="Calque_3">
</g>
<g id="bulles">
	<g>
		<path class="st6" d="M471.7,1121.9H94.6V554.7c0-7.5,6.1-13.6,13.6-13.6h349.5c7.7,0,14,6.3,14,14V1121.9z"/>
		<rect x="245.6" y="370.4" class="st6" width="77.2" height="170.7"/>
		<ellipse class="st6" cx="284.1" cy="255.2" rx="157.7" ry="203"/>
		<ellipse class="st6" cx="116.6" cy="269.9" rx="21.9" ry="31.2"/>
		<ellipse class="st6" cx="441.9" cy="269.9" rx="21.9" ry="31.2"/>
		<polyline class="st6" points="277.4,282.6 254.2,321.9 278.7,321.9 		"/>
		<rect x="0" y="1362.1" class="st6" width="59" height="96"/>
		<rect x="63.2" y="1362.1" class="st6" width="18.9" height="53.5"/>
		
			<rect x="507.7" y="1376.2" transform="matrix(-1 -4.479096e-11 4.479096e-11 -1 1074.4055 2848.4683)" class="st6" width="59" height="96"/>
		
			<rect x="484.5" y="1376.2" transform="matrix(-1 -4.481805e-11 4.481805e-11 -1 988.012 2805.957)" class="st6" width="18.9" height="53.5"/>
		<path class="st6" d="M193.3,258.4c0-9.6,7.8-17.4,17.4-17.4c9.6,0,17.4,7.8,17.4,17.4"/>
		<path class="st6" d="M322.7,258.4c0-9.6,7.8-17.4,17.4-17.4c9.6,0,17.4,7.8,17.4,17.4"/>
		<path class="st6" d="M277.7,1973.4h-65c-3.3,0-6-2.7-6-6v-503.4c0-3.3,2.7-6,6-6h65c3.3,0,6,2.7,6,6v503.4
			C283.7,1970.7,281,1973.4,277.7,1973.4z"/>
		<path class="st6" d="M366.2,1973.4h-65c-3.3,0-6-2.7-6-6v-503.4c0-3.3,2.7-6,6-6h65c3.3,0,6,2.7,6,6v503.4
			C372.3,1970.7,369.6,1973.4,366.2,1973.4z"/>
		<polygon class="st6" points="402.7,1884.3 174.2,1884.3 138.5,1121.9 432,1121.9 		"/>
		<path class="st6" d="M283.7,1917.2v112.4H94.6c0,0,8.1-79.5,112.3-76.8v-35.7H283.7z"/>
		<path class="st6" d="M295.3,1917.2v112.4h189.1c0,0-8.1-79.5-112.3-76.8v-35.7H295.3z"/>
		<path class="st6" d="M64.8,1356.6H18.4c-2.8,0-5.2-2.3-5.2-5.2V783.3c0-2.8,2.3-5.2,5.2-5.2h46.4c2.8,0,5.2,2.3,5.2,5.2v568.1
			C70,1354.3,67.7,1356.6,64.8,1356.6z"/>
		<path class="st6" d="M548.8,1371.4h-46.4c-2.8,0-5.2-2.3-5.2-5.2V772.3c0-2.8,2.3-5.2,5.2-5.2h46.4c2.8,0,5.2,2.3,5.2,5.2v593.9
			C554,1369.1,551.7,1371.4,548.8,1371.4z"/>
		<path class="st6" d="M83.3,831.5V592.7c0-26.8-18.7-48.7-41.6-48.7h0C18.7,544.1,0,566,0,592.7l0,238.7H83.3z"/>
		<path class="st6" d="M484,804.1V590.6c0-27.2,18.7-49.5,41.6-49.5h0c22.9,0,41.6,22.3,41.6,49.5v213.5"/>
		<path class="st6" d="M415.5,142.8H254.2c0,0-145.8,4.5-145.8-110.7l69.5,9.1l-18.3-27.4h60.3C219.9,13.8,390.4,4.5,415.5,142.8z"
			/>
		<path class="st6" d="M403.7,142.8l-0.9,131.1H423v-26.6c0,0,9.4-13.5,18.8-8.6c0,0-3.6-62-26.4-96L403.7,142.8z"/>
		<path class="st6" d="M162.8,118.5L162.3,273l-22.2,0.3l-1.6-27.6c0,0-0.2-9.9-12-3.6c0,0,4.4-80.6,32.7-123.6H162.8z"/>
	</g>
</g>
</svg>
