<?xml version="1.0" encoding="utf-8"?>
<!-- Generator: Adobe Illustrator 21.0.0, SVG Export Plug-In . SVG Version: 6.00 Build 0)  -->
<svg version="1.1" xmlns="http://www.w3.org/2000/svg" xmlns:xlink="http://www.w3.org/1999/xlink" x="0px" y="0px"
	 viewBox="0 0 567.2 2029.7" style="enable-background:new 0 0 567.2 2029.7;" xml:space="preserve">
<style type="text/css">
	.st0{display:none;}
	.st1{fill:#0E97E7;}
	.st2{fill:#FFFFFF;}
	.st3{fill:none;stroke:#FFFFFF;stroke-width:5;stroke-miterlimit:10;}
	.st4{opacity:0.5;fill:none;stroke:#000000;stroke-width:1.5;stroke-miterlimit:10;}
	.st5{fill:none;stroke:#000000;stroke-width:8;stroke-miterlimit:10;}
	.st6{fill:#4F4F4F;}
	.st7{fill:none;stroke:#FFFFFF;stroke-width:16;stroke-miterlimit:10;}
</style>
<g id="Home_x5F_Claire_x5F_Juglair_x5F_St_x5F_Nazaire_xA0_Image_1_" class="st0">
</g>
<g id="Calque_3">
</g>
<g id="bulles">
	<path class="st6" d="M471.7,1121.9H94.6V554.7c0-7.5,6.1-13.6,13.6-13.6h349.5c7.7,0,14,6.3,14,14V1121.9z"/>
	<path class="st6" d="M489.1,465.5V206.2C489.1,92.8,396.3,0,282.9,0h0C169.4,0,76.6,92.8,76.6,206.2v259.3H489.1z"/>
	<rect x="245.6" y="370.4" class="st6" width="77.2" height="173.7"/>
	<ellipse class="st6" cx="284.1" cy="255.2" rx="157.7" ry="203"/>
	<ellipse class="st6" cx="116.6" cy="269.9" rx="21.9" ry="31.2"/>
	<circle class="st6" cx="284.1" cy="692" r="19.9"/>
	<circle class="st6" cx="284.1" cy="767.4" r="19.9"/>
	<rect x="0" y="1362.1" class="st6" width="59" height="96"/>
	<rect x="63.2" y="1362.1" class="st6" width="18.9" height="53.5"/>
	
		<rect x="507.7" y="1376.2" transform="matrix(-1 -4.479096e-11 4.479096e-11 -1 1074.4055 2848.4683)" class="st6" width="59" height="96"/>
	
		<rect x="484.5" y="1376.2" transform="matrix(-1 -4.481805e-11 4.481805e-11 -1 988.012 2805.957)" class="st6" width="18.9" height="53.5"/>
	<path class="st6" d="M75.7,1356.6H7.6c-4.2,0-7.6-3.4-7.6-7.6l0-797.3c0-4.2,3.4-7.6,7.6-7.6h68.1c4.2,0,7.6,3.4,7.6,7.6V1349
		C83.3,1353.2,79.8,1356.6,75.7,1356.6z"/>
	<path class="st6" d="M559.7,1371.4h-68.1c-4.2,0-7.6-3.4-7.6-7.6V548.7c0-4.2,3.4-7.6,7.6-7.6h68.1c4.2,0,7.6,3.4,7.6,7.6v815.2
		C567.2,1368,563.8,1371.4,559.7,1371.4z"/>
	<rect x="138.5" y="1121.9" class="st6" width="293.5" height="795.4"/>
	<path class="st6" d="M283.7,1917.2v112.4H94.6c0,0,8.1-79.5,112.3-76.8v-35.7H283.7z"/>
	<path class="st6" d="M295.3,1917.2v112.4h189.1c0,0-8.1-79.5-112.3-76.8v-35.7H295.3z"/>
	<path class="st6" d="M176.7,94.9c0,0,183.4,286.5,354.4,176c0,0-21.9-0.3-42.7-31.6l-46.5-137.7L253.7,23.3L176.7,94.9z"/>
	<line class="st7" x1="239.1" y1="822.1" x2="329.1" y2="822.1"/>
	<line class="st7" x1="284.1" y1="867.1" x2="284.1" y2="777.1"/>
</g>
</svg>
