<svg id="Calque_1" data-name="Calque 1" xmlns="http://www.w3.org/2000/svg" xmlns:xlink="http://www.w3.org/1999/xlink" viewBox="0 0 651.26 337.56"><defs><style>.cls-1{fill:#152942;}.cls-2{fill:#fff;}.cls-3{fill:#49a8dc;}.cls-4{fill:#53bcba;}.cls-5{fill:none;stroke:#010101;stroke-miterlimit:10;stroke-width:1.94px;}.cls-6{fill:url(#radial-gradient);}.cls-7{fill:#e83e4d;}.cls-8{fill:#ffd447;}</style><radialGradient id="radial-gradient" cx="-4860.52" cy="306.77" r="99.11" gradientTransform="matrix(-1, 0, 0, 1, -4713.55, 0)" gradientUnits="userSpaceOnUse"><stop offset="0" stop-color="#5fc5e9" stop-opacity="0.3"/><stop offset="1" stop-color="#5fc5e9" stop-opacity="0.8"/></radialGradient></defs><title>picto</title><rect class="cls-1" y="275.98" width="285.41" height="61.58"/><rect class="cls-2" x="8.54" y="284.87" width="276.87" height="43.8"/><rect class="cls-3" x="285.41" width="183.68" height="24.01"/><rect class="cls-1" x="285.41" y="24.01" width="183.68" height="313.55"/><rect class="cls-4" x="383.47" y="24.01" width="85.62" height="313.55"/><rect class="cls-4" x="335.78" y="24.01" width="47.69" height="313.55"/><line class="cls-5" x1="335.78" y1="24.01" x2="335.78" y2="337.56"/><line class="cls-5" x1="383.47" y1="24.01" x2="383.47" y2="337.56"/><line class="cls-5" x1="359.62" y1="24.01" x2="359.62" y2="337.56"/><line class="cls-5" x1="383.46" y1="68.5" x2="469.09" y2="68.5"/><line class="cls-5" x1="383.46" y1="115.11" x2="469.09" y2="115.11"/><line class="cls-5" x1="383.46" y1="161.72" x2="469.09" y2="161.72"/><line class="cls-5" x1="383.46" y1="208.33" x2="469.09" y2="208.33"/><line class="cls-5" x1="383.46" y1="254.94" x2="469.09" y2="254.94"/><line class="cls-5" x1="383.46" y1="301.55" x2="469.09" y2="301.55"/><line class="cls-5" x1="335.78" y1="68.5" x2="383.46" y2="68.5"/><line class="cls-5" x1="335.78" y1="115.11" x2="383.46" y2="115.11"/><line class="cls-5" x1="335.78" y1="161.72" x2="383.46" y2="161.72"/><line class="cls-5" x1="335.78" y1="208.33" x2="383.46" y2="208.33"/><line class="cls-5" x1="335.78" y1="254.94" x2="383.46" y2="254.94"/><line class="cls-5" x1="335.78" y1="301.55" x2="383.46" y2="301.55"/><rect class="cls-1" x="469.09" y="208.33" width="157.91" height="129.23"/><rect class="cls-3" x="469.09" y="208.33" width="182.18" height="24.01"/><rect class="cls-6" x="8.54" y="284.87" width="276.87" height="43.8"/><path class="cls-7" d="M285.41,291.27c52.6,0,117.75-5.69,117.75-50.64,0-1.2,0-2.44-.11-3.72C365,257,324,264.42,293.94,264.42c-97.08,0-141.3-31.43-141.3-60.64s44.22-60.64,141.3-60.64c59.2,0,102.44,16.32,124.57,45.41C450.48,161.91,476,119.1,476,50.26H508.1c0,82.27-33,135.15-75.52,167.77a93.8,93.8,0,0,1,2.66,22.61c0,57.4-66.64,81.64-149.83,81.64Zm8.53-116.06c-31.67,0-61.22,4.31-83.19,12.13-21.5,7.66-26,15.25-26,16.43s4.52,8.77,26,16.43c22,7.82,51.52,12.13,83.19,12.13,3.83,0,52-.55,97.84-25.67C378.45,189.75,350.53,175.22,293.94,175.22Z"/><rect class="cls-4" x="559.59" y="264.79" width="32.69" height="32.69"/><rect class="cls-4" x="501.67" y="264.79" width="32.69" height="32.69"/><rect class="cls-8" x="469.09" width="45.34" height="62.36"/></svg>