<svg id="Calque_1" data-name="Calque 1" xmlns="http://www.w3.org/2000/svg" viewBox="0 0 468.67 348.51"><defs><style>.cls-1{fill:#074753;}.cls-2{fill:#084754;}.cls-3{fill:#47a7dc;}.cls-4{fill:#f7f3e6;}.cls-5{fill:#152942;}.cls-6{fill:#1d76bc;}.cls-7{fill:#dfab55;}</style></defs><title>picto</title><rect class="cls-1" x="164.4" y="95.79" width="142.61" height="58.51"/><path class="cls-2" d="M245.64,10.34A11.43,11.43,0,0,0,234.22-1.09h0a11.43,11.43,0,0,0-11.43,11.43V45.25a11.43,11.43,0,0,0,11.43,11.43h0a11.43,11.43,0,0,0,11.43-11.43Z"/><rect class="cls-3" x="140.69" y="184.9" width="187.06" height="123.51"/><rect class="cls-4" y="184.9" width="141.01" height="163.61"/><rect class="cls-5" x="23.07" y="204.7" width="23.47" height="31.17"/><rect class="cls-4" x="19.46" y="213.3" width="31.29" height="5.79"/><rect class="cls-5" x="58.47" y="204.7" width="23.47" height="31.17"/><rect class="cls-4" x="54.86" y="213.3" width="31.29" height="5.79"/><rect class="cls-5" x="93.87" y="204.7" width="23.47" height="31.17"/><rect class="cls-4" x="90.26" y="213.3" width="31.29" height="5.79"/><rect class="cls-5" x="23.07" y="251.12" width="23.47" height="31.17"/><rect class="cls-4" x="19.46" y="259.72" width="31.29" height="5.79"/><rect class="cls-5" x="58.47" y="251.12" width="23.47" height="31.17"/><rect class="cls-4" x="54.86" y="259.72" width="31.29" height="5.79"/><rect class="cls-5" x="93.87" y="251.12" width="23.47" height="31.17"/><rect class="cls-4" x="90.26" y="259.72" width="31.29" height="5.79"/><rect class="cls-6" y="308.41" width="153.57" height="40.1"/><polygon class="cls-5" points="140.69 184.9 140.69 308.41 160.96 308.41 160.96 300.58 153.44 300.58 153.44 214.93 160.96 214.93 160.96 207.11 191.04 207.11 191.04 214.93 198.57 214.93 198.57 300.58 191.04 300.58 191.04 308.41 219.17 308.41 219.17 300.58 211.65 300.58 211.65 214.93 219.17 214.93 219.17 207.11 249.26 207.11 249.26 214.93 256.78 214.93 256.78 300.58 249.26 300.58 249.26 308.41 277.39 308.41 277.39 300.58 269.87 300.58 269.87 214.93 277.39 214.93 277.39 207.11 307.48 207.11 307.48 214.93 315 214.93 315 300.58 307.48 300.58 307.48 308.41 327.75 308.41 327.75 184.9 140.69 184.9"/><rect class="cls-7" x="153.57" y="308.41" width="163.07" height="10.03"/><rect class="cls-5" x="153.57" y="318.43" width="163.07" height="10.03"/><rect class="cls-7" x="153.57" y="328.46" width="163.07" height="10.03"/><rect class="cls-5" x="153.57" y="338.49" width="163.07" height="10.03"/><polygon class="cls-5" points="143.34 150.3 143.34 161.98 19.46 161.98 19.46 150.3 0 150.3 0 184.9 9.73 184.9 19.46 184.9 235.1 184.9 235.1 161.98 235.1 150.3 143.34 150.3"/><rect class="cls-4" x="327.66" y="184.96" width="141.01" height="163.61"/><rect class="cls-5" x="422.13" y="204.76" width="23.47" height="31.17"/><rect class="cls-4" x="417.92" y="213.35" width="31.29" height="5.79"/><rect class="cls-5" x="386.73" y="204.76" width="23.47" height="31.17"/><rect class="cls-4" x="382.52" y="213.35" width="31.29" height="5.79"/><rect class="cls-5" x="351.33" y="204.76" width="23.47" height="31.17"/><rect class="cls-4" x="347.12" y="213.35" width="31.29" height="5.79"/><rect class="cls-5" x="422.13" y="251.18" width="23.47" height="31.17"/><rect class="cls-4" x="417.92" y="259.78" width="31.29" height="5.79"/><rect class="cls-5" x="386.73" y="251.18" width="23.47" height="31.17"/><rect class="cls-4" x="382.52" y="259.78" width="31.29" height="5.79"/><rect class="cls-5" x="351.33" y="251.18" width="23.47" height="31.17"/><rect class="cls-4" x="347.12" y="259.78" width="31.29" height="5.79"/><rect class="cls-6" x="315.1" y="308.47" width="153.57" height="40.1"/><polygon class="cls-5" points="325.33 150.36 325.33 162.04 449.21 162.04 449.21 150.36 468.67 150.36 468.67 184.96 458.94 184.96 449.21 184.96 233.57 184.96 233.57 162.04 233.57 150.36 325.33 150.36"/><polygon class="cls-7" points="327.75 184.9 235.1 150.3 140.69 184.9 327.75 184.9"/><path class="cls-3" d="M186.06,105.91a9,9,0,0,0-9,9v25.23h18.06V114.94A9,9,0,0,0,186.06,105.91Z"/><path class="cls-3" d="M234.22,105.91a9,9,0,0,0-9,9v25.23h18.06V114.94A9,9,0,0,0,234.22,105.91Z"/><path class="cls-3" d="M282.38,105.91a9,9,0,0,0-9,9v25.23h18.06V114.94A9,9,0,0,0,282.38,105.91Z"/><path class="cls-7" d="M255.68,40.1h.77V32.33H212.86V40.1h.77a59.54,59.54,0,0,0-38.55,55.69H294.24A59.54,59.54,0,0,0,255.68,40.1Z"/></svg>