<svg id="Calque_1" data-name="Calque 1" xmlns="http://www.w3.org/2000/svg" viewBox="0 0 541.86 283.33"><defs><style>.cls-1{fill:#152942;}.cls-2{fill:#e83d4d;}.cls-3{fill:#fff;}.cls-4,.cls-7{fill:#47a7dc;}.cls-5{fill:#1d76bc;}.cls-6{fill:none;stroke-width:1.65px;}.cls-6,.cls-7{stroke:#010101;stroke-miterlimit:10;}.cls-7{stroke-width:3.31px;}</style></defs><title>picto</title><rect class="cls-1" x="387.65" width="154.16" height="20.15"/><rect class="cls-2" x="282.14" y="37.34" width="105.51" height="20.15"/><rect class="cls-2" y="38.82" width="105.51" height="20.15"/><rect class="cls-3" x="387.65" y="20.15" width="154.16" height="263.17"/><rect class="cls-4" x="387.65" y="20.15" width="71.86" height="263.17"/><rect class="cls-5" x="459.51" y="20.15" width="40.02" height="263.17"/><line class="cls-6" x1="499.53" y1="20.15" x2="499.53" y2="283.33"/><line class="cls-6" x1="459.51" y1="20.15" x2="459.51" y2="283.33"/><line class="cls-6" x1="479.52" y1="20.15" x2="479.52" y2="283.33"/><line class="cls-6" x1="459.52" y1="57.5" x2="387.65" y2="57.5"/><line class="cls-6" x1="459.52" y1="96.62" x2="387.65" y2="96.62"/><line class="cls-6" x1="459.52" y1="135.74" x2="387.65" y2="135.74"/><line class="cls-6" x1="459.52" y1="174.86" x2="387.65" y2="174.86"/><line class="cls-6" x1="459.52" y1="213.98" x2="387.65" y2="213.98"/><line class="cls-6" x1="459.52" y1="253.1" x2="387.65" y2="253.1"/><line class="cls-6" x1="499.53" y1="57.5" x2="459.52" y2="57.5"/><line class="cls-6" x1="499.53" y1="96.62" x2="459.52" y2="96.62"/><line class="cls-6" x1="499.53" y1="135.74" x2="459.52" y2="135.74"/><line class="cls-6" x1="499.53" y1="174.86" x2="459.52" y2="174.86"/><line class="cls-6" x1="499.53" y1="213.98" x2="459.52" y2="213.98"/><line class="cls-6" x1="499.53" y1="253.1" x2="459.52" y2="253.1"/><rect class="cls-1" x="282.14" y="57.5" width="105.51" height="225.83"/><rect class="cls-7" x="314.74" y="100.76" width="45.05" height="45.05"/><rect class="cls-7" x="314.74" y="174.86" width="45.05" height="45.05"/><rect class="cls-1" y="58.98" width="105.51" height="225.83"/><rect class="cls-7" x="32.6" y="102.25" width="45.05" height="45.05"/><rect class="cls-7" x="32.6" y="176.34" width="45.05" height="45.05"/><line class="cls-6" x1="229.98" y1="248.65" x2="105.51" y2="248.65"/><line class="cls-6" x1="197.38" y1="248.65" x2="197.38" y2="283.33"/><line class="cls-6" x1="165.37" y1="248.65" x2="165.37" y2="283.33"/><line class="cls-6" x1="133.37" y1="248.65" x2="133.37" y2="283.33"/></svg>