<svg id="Calque_1" data-name="Calque 1" xmlns="http://www.w3.org/2000/svg" viewBox="0 0 413.6 435.34"><defs><style>.cls-1{fill:#152942;}.cls-2{fill:#47a7dc;}.cls-3{fill:#fff;}.cls-4{fill:#e83d4d;}.cls-5{fill:#1d76bc;}.cls-6{fill:#9fd3dc;}.cls-7{fill:#b0b0b0;}.cls-8{fill:#f8f7f8;}.cls-9{fill:#72c7d7;}.cls-10{fill:#707070;}</style></defs><title>picto</title><rect class="cls-1" x="223.54" y="141.6" width="13.25" height="61.16"/><rect class="cls-1" x="169.75" y="141.6" width="13.25" height="61.16"/><rect class="cls-1" x="146.28" y="63.97" width="113.97" height="81.84"/><polygon class="cls-2" points="115.47 70.94 205.57 0 293.4 70.94 115.47 70.94"/><rect class="cls-1" x="23.01" y="273.69" width="362.84" height="29.07"/><polygon class="cls-3" points="23.01 273.69 206.76 165.54 385.85 273.69 23.01 273.69"/><circle class="cls-4" cx="204.43" cy="227.17" r="24.42"/><rect class="cls-3" x="46.27" y="302.77" width="320.98" height="132.58"/><rect class="cls-2" x="82.32" y="344.63" width="48.84" height="48.84"/><rect class="cls-2" x="282.35" y="344.63" width="48.84" height="48.84"/><rect class="cls-5" x="180.01" y="344.63" width="48.84" height="90.71"/><path class="cls-6" d="M9.84,360.08c-.42-.87-2.7-4.78-2.7-4.78s-2.27,3.91-2.7,4.78c-.65,1.35-.35,4.33,2.7,4.33S10.49,361.43,9.84,360.08Z"/><path class="cls-6" d="M25.16,360.08c.42-.87,2.7-4.78,2.7-4.78s2.27,3.91,2.7,4.78c.65,1.35.35,4.33-2.7,4.33S24.51,361.43,25.16,360.08Z"/><path class="cls-6" d="M20.2,365.56c-.42-.87-2.7-4.78-2.7-4.78s-2.27,3.91-2.7,4.78c-.65,1.35-.35,4.33,2.7,4.33S20.85,366.91,20.2,365.56Z"/><path class="cls-7" d="M16.58,330h0v-7.25a7.89,7.89,0,0,1,7.88-7.88H45.1v3.82H24.46a4.07,4.07,0,0,0-4.06,4.06V330H16.58Z"/><path class="cls-8" d="M1.42,351.12V344a16.08,16.08,0,1,1,32.16,0v7.13Z"/><rect class="cls-9" y="340.8" width="35" height="3.82"/><rect class="cls-10" x="42.2" y="311.35" width="3.82" height="10.94"/><path class="cls-6" d="M406.46,364.41c3,0,3.35-3,2.7-4.33-.42-.87-2.7-4.78-2.7-4.78s-2.27,3.91-2.7,4.78C403.11,361.43,403.42,364.41,406.46,364.41Z"/><path class="cls-6" d="M385.74,364.41c-3,0-3.35-3-2.7-4.33.42-.87,2.7-4.78,2.7-4.78s2.27,3.91,2.7,4.78C389.09,361.43,388.79,364.41,385.74,364.41Z"/><path class="cls-6" d="M396.1,369.89c3,0,3.35-3,2.7-4.33-.42-.87-2.7-4.78-2.7-4.78s-2.27,3.91-2.7,4.78C392.75,366.91,393.06,369.89,396.1,369.89Z"/><path class="cls-7" d="M397,330H393.2v-7.25a4.07,4.07,0,0,0-4.06-4.06H368.51v-3.82h20.64a7.89,7.89,0,0,1,7.88,7.88V330h0Z"/><path class="cls-8" d="M412.18,351.12H380V344a16.08,16.08,0,1,1,32.16,0v7.13Z"/><rect class="cls-9" x="378.6" y="340.8" width="35" height="3.82"/><rect class="cls-10" x="367.59" y="311.35" width="3.82" height="10.94"/></svg>