<svg id="Calque_1" data-name="Calque 1" xmlns="http://www.w3.org/2000/svg" xmlns:xlink="http://www.w3.org/1999/xlink" viewBox="0 0 675.81 340.51"><defs><style>.cls-1{fill:none;}.cls-2{fill:url(#radial-gradient);}.cls-3{fill:url(#radial-gradient-2);}.cls-4{fill:#c7c6c6;}.cls-5{fill:#152942;}.cls-6{fill:#fff;}.cls-7{clip-path:url(#clip-path);}.cls-8{fill:#e83d4d;}.cls-9{clip-path:url(#clip-path-2);}</style><radialGradient id="radial-gradient" cx="1.04" cy="339.57" r="0.9" gradientUnits="userSpaceOnUse"><stop offset="0" stop-color="#fed697"/><stop offset="0.39" stop-color="#f0c178"/><stop offset="0.84" stop-color="#dfab55"/></radialGradient><radialGradient id="radial-gradient-2" cx="353.15" cy="230.17" r="298.2" xlink:href="#radial-gradient"/><clipPath id="clip-path"><path class="cls-1" d="M474.7,159.72c8.17-4.77,16.91,0,16.91,0a17.54,17.54,0,0,0-33.81,0C466,154.94,474.7,159.72,474.7,159.72Z"/></clipPath><clipPath id="clip-path-2"><path class="cls-1" d="M214,213.67c8.17-4.77,16.91,0,16.91,0a17.54,17.54,0,0,0-33.81,0C205.25,208.89,214,213.67,214,213.67Z"/></clipPath></defs><title>picto</title><path class="cls-2" d="M1.09,337.4C1,338.45,1,339.51,1,340.57Z"/><path class="cls-3" d="M651.54,7.28H533.8a37,37,0,0,0-37,37h0v71.53a37,37,0,0,1-37,37H232.71a11.87,11.87,0,0,0,0,23.74h.89a11.87,11.87,0,1,1,0,23.74h-84a14.33,14.33,0,0,0,1.07,28.62h-.83a11.87,11.87,0,1,1,0,23.74l-89.35-.3c-42.37,0-58.72,27.31-58.72,60.28L1.09,337.4A59.7,59.7,0,0,1,60.7,280.88l118.7-.28a11.87,11.87,0,1,0,0-23.74h.83a14.33,14.33,0,0,1-1.07-28.62h84a11.87,11.87,0,1,0,0-23.74h-.89a11.87,11.87,0,1,1,0-23.74H489.4a37,37,0,0,0,37-37V72.26h0a37,37,0,0,1,37-37h70.44A37,37,0,0,0,670.72,0C669.86,5.39,662.09,7.28,651.54,7.28Z"/><path class="cls-2" d="M1.09,337.4C1,338.45,1,339.51,1,340.57Z"/><path class="cls-4" d="M670.72,0a6,6,0,0,1-2.11,3.76,12.45,12.45,0,0,1-3.84,2.16,35.21,35.21,0,0,1-8.64,1.71c-2.93.28-5.86.29-8.77.38l-8.74.23-35,.8-35,.67-35,.61L535,4.5h0a3,3,0,0,1-1.1,5.81h-.1a33.74,33.74,0,0,0-23.69,10.24,33.31,33.31,0,0,0-9.38,23.69A3.85,3.85,0,0,1,495.95,48l-.13,0h0l4.91-3.75.7,64.52,0,4,0,2v1l0,1.13a34.86,34.86,0,0,1-.33,4.52l-.33,2.25c-.1.75-.34,1.48-.5,2.22a41.56,41.56,0,0,1-8,16.24,42.13,42.13,0,0,1-31.85,15.61l-64.59.43-64.52.14-32.26.07-16.13,0-16.13,0-32.26-.07h-1.93l-.53,0-.52.08a6.44,6.44,0,0,0-2,.73,6.21,6.21,0,0,0-2.71,3.16,6.25,6.25,0,0,0,2.41,7.51,5.84,5.84,0,0,0,1.94.84,6.7,6.7,0,0,0,1.06.16c.3,0,.8,0,1.79.05a17.35,17.35,0,0,1,.51,34.68c-1.11.06-1.62,0-2.32,0h-2l-16.13-.1-64.52-.42H150a9.62,9.62,0,0,0-6.06,16.43,9.84,9.84,0,0,0,6.77,2.86v8.9h-.83V224.4a16.31,16.31,0,0,1,9.83,3.41,16,16,0,0,1,5.73,8.61,16.23,16.23,0,0,1-.66,10.27,15.84,15.84,0,0,1-14.12,9.9c-1,.05-1.45,0-2.13,0l-7.73-.11-15.45-.28L63.5,255.08c-2.61-.07-5.09-.1-7.59,0s-5,.26-7.46.58a60.9,60.9,0,0,0-14.4,3.56,46.44,46.44,0,0,0-12.71,7.45,45.85,45.85,0,0,0-9.71,11.19c-5.31,8.51-7.89,18.6-8.83,28.73L1.09,337.4V306.46A78.58,78.58,0,0,1,3.22,291a66.81,66.81,0,0,1,2.34-7.53,59.34,59.34,0,0,1,3.36-7.19,47.94,47.94,0,0,1,9.93-12.48,50.55,50.55,0,0,1,13.52-8.63c9.84-4.29,20.75-5.64,31.14-5.62l61.81-.73,15.45-.17,7.73-.06a13,13,0,0,0,3-.22,7.81,7.81,0,0,0,5.47-4.77,7.25,7.25,0,0,0,.49-2.43,7,7,0,0,0-.3-2.45,7.34,7.34,0,0,0-2.77-4,7.49,7.49,0,0,0-4.54-1.46,4.44,4.44,0,0,1,0-8.88h.87a4.45,4.45,0,0,1,.1,8.9h-.1a19,19,0,0,1-1.43-37.95h.36l64.52-.42,16.13-.1h2c.64,0,1.48,0,1.71,0a6.49,6.49,0,0,0,2.1-.5,6.75,6.75,0,0,0,3.13-2.89,6.5,6.5,0,0,0,.63-4.19,6.35,6.35,0,0,0-2.13-3.64,6.27,6.27,0,0,0-3.93-1.49c-.36,0-1.2,0-2.24-.06a17.81,17.81,0,0,1-2.92-.44,17,17,0,0,1-5.43-2.33,17.48,17.48,0,0,1,6.29-31.82l1.47-.22,1.48-.08h2.11l32.26-.07,16.13,0,16.13,0,32.26.07,64.52.14,64.45.38A32.17,32.17,0,0,0,484.69,136,33,33,0,0,0,491,123.64c.14-.57.35-1.12.43-1.7l.28-1.73a25.79,25.79,0,0,0,.34-3.5l.06-.88v-1l0-2,0-4,.7-64.52v-.1a3.84,3.84,0,0,1,3.88-3.8,4,4,0,0,1,1,.15h0L493,44.26a40.65,40.65,0,0,1,12.27-28.58A40.23,40.23,0,0,1,533.8,4.27l-1.2,5.81h0l-.09,0a3,3,0,0,1,1.29-5.77l35,.61,35,.67,35,.8,8.74.23c2.92.07,5.82.21,8.7.1a34.53,34.53,0,0,0,8.55-1.21,12.1,12.1,0,0,0,3.84-1.89A5.92,5.92,0,0,0,670.72,0Z"/><rect class="cls-5" x="466.07" y="166.17" width="17.26" height="3.4"/><rect class="cls-5" x="467.63" y="168.83" width="1.56" height="7.44"/><rect class="cls-5" x="480.21" y="168.83" width="1.56" height="7.44"/><rect class="cls-5" x="473.96" y="157.9" width="1.47" height="9.46"/><rect class="cls-5" x="471.49" y="171.13" width="6.52" height="2.3"/><rect class="cls-5" x="474.17" y="172.87" width="1.15" height="3.4"/><rect class="cls-5" x="483.33" y="170.85" width="6.52" height="2.3"/><rect class="cls-5" x="486.02" y="172.6" width="1.15" height="3.4"/><path class="cls-6" d="M474.7,159.72c8.17-4.77,16.91,0,16.91,0a17.54,17.54,0,0,0-33.81,0C466,154.94,474.7,159.72,474.7,159.72Z"/><g class="cls-7"><path class="cls-8" d="M474.7,159.72V146.84s8,.86,10.47,10.92Z"/><path class="cls-8" d="M463.82,158.32s1.33-9.37,10.88-11.48l-2.48-3.17L456,152.4l-.37,9.27Z"/></g><rect class="cls-5" x="205.35" y="220.12" width="17.26" height="3.4"/><rect class="cls-5" x="206.91" y="222.78" width="1.56" height="7.44"/><rect class="cls-5" x="219.49" y="222.78" width="1.56" height="7.44"/><rect class="cls-5" x="213.24" y="211.86" width="1.47" height="9.46"/><rect class="cls-5" x="210.77" y="225.08" width="6.52" height="2.3"/><rect class="cls-5" x="213.45" y="226.82" width="1.15" height="3.4"/><rect class="cls-5" x="222.61" y="224.8" width="6.52" height="2.3"/><rect class="cls-5" x="225.3" y="226.55" width="1.15" height="3.4"/><path class="cls-6" d="M214,213.67c8.17-4.77,16.91,0,16.91,0a17.54,17.54,0,0,0-33.81,0C205.25,208.89,214,213.67,214,213.67Z"/><g class="cls-9"><path class="cls-8" d="M214,213.67V200.79s8,.86,10.47,10.92Z"/><path class="cls-8" d="M203.1,212.27s1.33-9.37,10.88-11.48l-2.48-3.17-16.21,8.72-.37,9.27Z"/></g></svg>