<svg id="Calque_1" data-name="Calque 1" xmlns="http://www.w3.org/2000/svg" viewBox="0 0 533.79 349.69"><defs><style>.cls-1{fill:none;stroke:#152942;stroke-miterlimit:10;stroke-width:7.7px;}.cls-2{fill:#010101;}.cls-3{fill:#47a7dc;}.cls-4{fill:#dfab55;}.cls-5{fill:#fed697;}.cls-6{fill:#f7f3e6;}</style></defs><title>picto</title><line class="cls-1" x1="219.31" y1="101.53" x2="219.31" y2="135.93"/><line class="cls-1" x1="314.86" y1="101.53" x2="314.86" y2="139.61"/><path class="cls-2" d="M321.27,17.85H297.62V15.18A15.18,15.18,0,0,0,282.43,0H251.74a15.18,15.18,0,0,0-15.18,15.18v2.67H212.9A15.18,15.18,0,0,0,197.72,33V91.58a15.18,15.18,0,0,0,15.18,15.18H321.27a15.18,15.18,0,0,0,15.18-15.18V33A15.18,15.18,0,0,0,321.27,17.85Z"/><circle class="cls-3" cx="267.09" cy="62.31" r="32.32"/><circle class="cls-2" cx="267.09" cy="62.31" r="18.43"/><path class="cls-4" d="M12.32,245.53V349.69h164V163S92.58,185.18,12.32,245.53Z"/><polygon class="cls-5" points="12.32 246.04 22.91 237.8 22.91 349.69 12.32 349.69 12.32 246.04"/><polygon class="cls-5" points="81.88 201.74 92.48 196.31 92.48 349.69 81.88 349.69 81.88 201.74"/><polygon class="cls-5" points="151.45 170.6 176.33 161.98 176.33 349.69 151.45 349.69 151.45 170.6"/><path class="cls-1" d="M178.17,161.42S83.1,189.14,2.76,252.2"/><rect class="cls-6" x="29.71" y="263.08" width="44" height="30.66"/><rect class="cls-6" x="99.74" y="263.08" width="44" height="30.66"/><path class="cls-3" d="M38.35,311.46v38.24H65.07V311.46C50.79,299.48,38.35,311.46,38.35,311.46Z"/><path class="cls-3" d="M108.37,311.46v38.24h26.72V311.46C120.81,299.48,108.37,311.46,108.37,311.46Z"/><polygon class="cls-4" points="267.09 115.04 176.33 141.92 176.33 349.69 357.85 349.69 357.85 141.92 267.09 115.04"/><path class="cls-3" d="M205,295.54a14.3,14.3,0,0,0-14.3,14.3v39.85h28.56V309.84h0A14.3,14.3,0,0,0,205,295.54Z"/><path class="cls-3" d="M329.17,295.54a14.3,14.3,0,0,0-14.3,14.3v39.85h28.56V309.84h0A14.3,14.3,0,0,0,329.17,295.54Z"/><path class="cls-3" d="M238,349.69V322.82a29.08,29.08,0,1,1,58.15,0h-.08v26.87Z"/><polyline class="cls-1" points="169.57 144.53 267.09 115.04 364.6 144.53"/><rect class="cls-6" x="191.53" y="256.33" width="14.51" height="22.09"/><rect class="cls-6" x="191.53" y="212.42" width="14.51" height="22.09"/><rect class="cls-6" x="238.01" y="256.33" width="14.51" height="22.09"/><rect class="cls-6" x="238.01" y="212.42" width="14.51" height="22.09"/><rect class="cls-6" x="281.65" y="256.33" width="14.51" height="22.09"/><rect class="cls-6" x="281.65" y="212.42" width="14.51" height="22.09"/><rect class="cls-6" x="328.95" y="256.33" width="14.51" height="22.09"/><rect class="cls-6" x="328.95" y="212.42" width="14.51" height="22.09"/><rect class="cls-5" x="176.33" y="178.62" width="181.52" height="14.44"/><path class="cls-4" d="M521.68,245.53V349.69h-164V163S441.42,185.18,521.68,245.53Z"/><polygon class="cls-5" points="452.12 201.74 441.52 196.31 441.52 349.69 452.12 349.69 452.12 201.74"/><polygon class="cls-5" points="382.55 170.6 357.67 161.98 357.67 349.69 382.55 349.69 382.55 170.6"/><path class="cls-1" d="M355.83,161.42s95.07,27.72,175.41,90.78"/><rect class="cls-6" x="460.29" y="263.08" width="44" height="30.66"/><rect class="cls-6" x="390.27" y="263.08" width="44" height="30.66"/><path class="cls-3" d="M495.65,311.46v38.24H468.93V311.46C483.21,299.48,495.65,311.46,495.65,311.46Z"/><path class="cls-3" d="M425.63,311.46v38.24H398.91V311.46C413.19,299.48,425.63,311.46,425.63,311.46Z"/></svg>