<svg id="Calque_1" data-name="Calque 1" xmlns="http://www.w3.org/2000/svg" viewBox="0 0 599.8 348.56"><defs><style>.cls-1{fill:#074753;}.cls-2{fill:#2077bc;}.cls-3{fill:#084754;}.cls-4{fill:#fff;}.cls-5{fill:#152942;}.cls-6{fill:#49a8dc;}</style></defs><title>picto</title><polygon class="cls-1" points="218.14 102.98 153.63 102.98 0 250.11 212.48 250.11 218.14 102.98"/><path class="cls-2" d="M175.13,206V0S307.54,12.45,399.21,115.43V206Z"/><path class="cls-2" d="M0,287.45H0a39.61,39.61,0,0,0,39.61,39.61H560.19a39.61,39.61,0,0,0,39.61-39.61h0"/><rect class="cls-3" x="57.15" y="327.06" width="485.5" height="21.5"/><rect class="cls-4" y="250.11" width="599.8" height="37.35"/><rect class="cls-3" x="39.33" y="250.11" width="4.53" height="37.35"/><rect class="cls-3" x="86.29" y="250.11" width="4.53" height="37.35"/><rect class="cls-3" x="133.26" y="250.11" width="4.53" height="37.35"/><rect class="cls-3" x="180.22" y="250.11" width="4.53" height="37.35"/><rect class="cls-3" x="227.19" y="250.11" width="4.53" height="37.35"/><rect class="cls-3" x="274.16" y="250.11" width="4.53" height="37.35"/><rect class="cls-3" x="321.12" y="250.11" width="4.53" height="37.35"/><rect class="cls-3" x="368.09" y="250.11" width="4.53" height="37.35"/><rect class="cls-3" x="415.05" y="250.11" width="4.53" height="37.35"/><rect class="cls-3" x="462.02" y="250.11" width="4.53" height="37.35"/><rect class="cls-3" x="508.98" y="250.11" width="4.53" height="37.35"/><rect class="cls-3" x="555.95" y="250.11" width="4.53" height="37.35"/><polygon class="cls-5" points="599.8 250.11 495.4 164.1 495.4 82.61 439.95 132.41 356.2 132.41 356.2 205.97 175.13 205.97 175.13 172.02 104.97 110.91 104.97 226.34 74.41 250.11 599.8 250.11"/><rect class="cls-6" x="278.68" y="250.11" width="42.44" height="98.46"/></svg>